%TF.GenerationSoftware,KiCad,Pcbnew,9.0.1*%
%TF.CreationDate,2025-04-25T18:02:47+02:00*%
%TF.ProjectId,CC_Load,43435f4c-6f61-4642-9e6b-696361645f70,rev?*%
%TF.SameCoordinates,Original*%
%TF.FileFunction,Legend,Top*%
%TF.FilePolarity,Positive*%
%FSLAX46Y46*%
G04 Gerber Fmt 4.6, Leading zero omitted, Abs format (unit mm)*
G04 Created by KiCad (PCBNEW 9.0.1) date 2025-04-25 18:02:47*
%MOMM*%
%LPD*%
G01*
G04 APERTURE LIST*
G04 Aperture macros list*
%AMRoundRect*
0 Rectangle with rounded corners*
0 $1 Rounding radius*
0 $2 $3 $4 $5 $6 $7 $8 $9 X,Y pos of 4 corners*
0 Add a 4 corners polygon primitive as box body*
4,1,4,$2,$3,$4,$5,$6,$7,$8,$9,$2,$3,0*
0 Add four circle primitives for the rounded corners*
1,1,$1+$1,$2,$3*
1,1,$1+$1,$4,$5*
1,1,$1+$1,$6,$7*
1,1,$1+$1,$8,$9*
0 Add four rect primitives between the rounded corners*
20,1,$1+$1,$2,$3,$4,$5,0*
20,1,$1+$1,$4,$5,$6,$7,0*
20,1,$1+$1,$6,$7,$8,$9,0*
20,1,$1+$1,$8,$9,$2,$3,0*%
G04 Aperture macros list end*
%ADD10C,0.200000*%
%ADD11C,0.150000*%
%ADD12C,0.400000*%
%ADD13C,0.120000*%
%ADD14RoundRect,0.250000X-0.625000X0.312500X-0.625000X-0.312500X0.625000X-0.312500X0.625000X0.312500X0*%
%ADD15R,1.600000X0.550000*%
%ADD16R,0.550000X1.600000*%
%ADD17RoundRect,0.250000X0.650000X-0.325000X0.650000X0.325000X-0.650000X0.325000X-0.650000X-0.325000X0*%
%ADD18RoundRect,0.250000X1.000000X0.650000X-1.000000X0.650000X-1.000000X-0.650000X1.000000X-0.650000X0*%
%ADD19RoundRect,0.250000X0.325000X0.650000X-0.325000X0.650000X-0.325000X-0.650000X0.325000X-0.650000X0*%
%ADD20R,2.000000X1.905000*%
%ADD21O,2.000000X1.905000*%
%ADD22R,1.500000X1.500000*%
%ADD23RoundRect,0.250000X-0.325000X-0.650000X0.325000X-0.650000X0.325000X0.650000X-0.325000X0.650000X0*%
%ADD24RoundRect,0.150000X-0.825000X-0.150000X0.825000X-0.150000X0.825000X0.150000X-0.825000X0.150000X0*%
%ADD25RoundRect,0.250000X0.312500X0.625000X-0.312500X0.625000X-0.312500X-0.625000X0.312500X-0.625000X0*%
%ADD26C,6.400000*%
%ADD27RoundRect,0.250000X-0.312500X-0.625000X0.312500X-0.625000X0.312500X0.625000X-0.312500X0.625000X0*%
%ADD28R,1.700000X1.700000*%
%ADD29C,1.700000*%
%ADD30R,1.400000X1.200000*%
%ADD31RoundRect,0.150000X0.150000X-0.587500X0.150000X0.587500X-0.150000X0.587500X-0.150000X-0.587500X0*%
%ADD32RoundRect,0.250000X0.262500X0.450000X-0.262500X0.450000X-0.262500X-0.450000X0.262500X-0.450000X0*%
%ADD33RoundRect,0.250000X0.475000X-0.250000X0.475000X0.250000X-0.475000X0.250000X-0.475000X-0.250000X0*%
%ADD34RoundRect,0.250000X0.625000X-0.312500X0.625000X0.312500X-0.625000X0.312500X-0.625000X-0.312500X0*%
%ADD35RoundRect,0.250000X-0.650000X0.325000X-0.650000X-0.325000X0.650000X-0.325000X0.650000X0.325000X0*%
%ADD36RoundRect,0.250000X0.375000X1.075000X-0.375000X1.075000X-0.375000X-1.075000X0.375000X-1.075000X0*%
%ADD37RoundRect,0.150000X-0.512500X-0.150000X0.512500X-0.150000X0.512500X0.150000X-0.512500X0.150000X0*%
%ADD38RoundRect,0.100000X-0.637500X-0.100000X0.637500X-0.100000X0.637500X0.100000X-0.637500X0.100000X0*%
%ADD39C,0.650000*%
%ADD40R,1.240000X0.600000*%
%ADD41R,1.240000X0.300000*%
%ADD42O,2.100000X1.000000*%
%ADD43O,1.800000X1.000000*%
%ADD44C,2.400000*%
%ADD45O,2.400000X2.400000*%
%ADD46RoundRect,0.250000X-0.475000X0.250000X-0.475000X-0.250000X0.475000X-0.250000X0.475000X0.250000X0*%
%ADD47RoundRect,0.250000X-0.375000X-1.075000X0.375000X-1.075000X0.375000X1.075000X-0.375000X1.075000X0*%
%ADD48RoundRect,0.225000X0.225000X0.375000X-0.225000X0.375000X-0.225000X-0.375000X0.225000X-0.375000X0*%
%ADD49RoundRect,0.250000X-1.950000X-1.000000X1.950000X-1.000000X1.950000X1.000000X-1.950000X1.000000X0*%
%ADD50C,2.000000*%
%ADD51RoundRect,0.150000X0.587500X0.150000X-0.587500X0.150000X-0.587500X-0.150000X0.587500X-0.150000X0*%
%ADD52RoundRect,0.250000X-0.450000X0.262500X-0.450000X-0.262500X0.450000X-0.262500X0.450000X0.262500X0*%
%ADD53R,1.905000X2.000000*%
%ADD54O,1.905000X2.000000*%
G04 APERTURE END LIST*
D10*
X174544742Y-104821428D02*
X173344742Y-104821428D01*
X174430457Y-103564285D02*
X174487600Y-103621428D01*
X174487600Y-103621428D02*
X174544742Y-103792856D01*
X174544742Y-103792856D02*
X174544742Y-103907142D01*
X174544742Y-103907142D02*
X174487600Y-104078571D01*
X174487600Y-104078571D02*
X174373314Y-104192856D01*
X174373314Y-104192856D02*
X174259028Y-104249999D01*
X174259028Y-104249999D02*
X174030457Y-104307142D01*
X174030457Y-104307142D02*
X173859028Y-104307142D01*
X173859028Y-104307142D02*
X173630457Y-104249999D01*
X173630457Y-104249999D02*
X173516171Y-104192856D01*
X173516171Y-104192856D02*
X173401885Y-104078571D01*
X173401885Y-104078571D02*
X173344742Y-103907142D01*
X173344742Y-103907142D02*
X173344742Y-103792856D01*
X173344742Y-103792856D02*
X173401885Y-103621428D01*
X173401885Y-103621428D02*
X173459028Y-103564285D01*
X174487600Y-103107142D02*
X174544742Y-102935714D01*
X174544742Y-102935714D02*
X174544742Y-102649999D01*
X174544742Y-102649999D02*
X174487600Y-102535714D01*
X174487600Y-102535714D02*
X174430457Y-102478571D01*
X174430457Y-102478571D02*
X174316171Y-102421428D01*
X174316171Y-102421428D02*
X174201885Y-102421428D01*
X174201885Y-102421428D02*
X174087600Y-102478571D01*
X174087600Y-102478571D02*
X174030457Y-102535714D01*
X174030457Y-102535714D02*
X173973314Y-102649999D01*
X173973314Y-102649999D02*
X173916171Y-102878571D01*
X173916171Y-102878571D02*
X173859028Y-102992856D01*
X173859028Y-102992856D02*
X173801885Y-103049999D01*
X173801885Y-103049999D02*
X173687600Y-103107142D01*
X173687600Y-103107142D02*
X173573314Y-103107142D01*
X173573314Y-103107142D02*
X173459028Y-103049999D01*
X173459028Y-103049999D02*
X173401885Y-102992856D01*
X173401885Y-102992856D02*
X173344742Y-102878571D01*
X173344742Y-102878571D02*
X173344742Y-102592856D01*
X173344742Y-102592856D02*
X173401885Y-102421428D01*
X174544742Y-101907142D02*
X173344742Y-101907142D01*
X173344742Y-101907142D02*
X173344742Y-101449999D01*
X173344742Y-101449999D02*
X173401885Y-101335714D01*
X173401885Y-101335714D02*
X173459028Y-101278571D01*
X173459028Y-101278571D02*
X173573314Y-101221428D01*
X173573314Y-101221428D02*
X173744742Y-101221428D01*
X173744742Y-101221428D02*
X173859028Y-101278571D01*
X173859028Y-101278571D02*
X173916171Y-101335714D01*
X173916171Y-101335714D02*
X173973314Y-101449999D01*
X173973314Y-101449999D02*
X173973314Y-101907142D01*
X173287600Y-98935713D02*
X174830457Y-99964285D01*
X174487600Y-97678570D02*
X174544742Y-97507142D01*
X174544742Y-97507142D02*
X174544742Y-97221427D01*
X174544742Y-97221427D02*
X174487600Y-97107142D01*
X174487600Y-97107142D02*
X174430457Y-97049999D01*
X174430457Y-97049999D02*
X174316171Y-96992856D01*
X174316171Y-96992856D02*
X174201885Y-96992856D01*
X174201885Y-96992856D02*
X174087600Y-97049999D01*
X174087600Y-97049999D02*
X174030457Y-97107142D01*
X174030457Y-97107142D02*
X173973314Y-97221427D01*
X173973314Y-97221427D02*
X173916171Y-97449999D01*
X173916171Y-97449999D02*
X173859028Y-97564284D01*
X173859028Y-97564284D02*
X173801885Y-97621427D01*
X173801885Y-97621427D02*
X173687600Y-97678570D01*
X173687600Y-97678570D02*
X173573314Y-97678570D01*
X173573314Y-97678570D02*
X173459028Y-97621427D01*
X173459028Y-97621427D02*
X173401885Y-97564284D01*
X173401885Y-97564284D02*
X173344742Y-97449999D01*
X173344742Y-97449999D02*
X173344742Y-97164284D01*
X173344742Y-97164284D02*
X173401885Y-96992856D01*
X174544742Y-96478570D02*
X173344742Y-96478570D01*
X173344742Y-96478570D02*
X173344742Y-96021427D01*
X173344742Y-96021427D02*
X173401885Y-95907142D01*
X173401885Y-95907142D02*
X173459028Y-95849999D01*
X173459028Y-95849999D02*
X173573314Y-95792856D01*
X173573314Y-95792856D02*
X173744742Y-95792856D01*
X173744742Y-95792856D02*
X173859028Y-95849999D01*
X173859028Y-95849999D02*
X173916171Y-95907142D01*
X173916171Y-95907142D02*
X173973314Y-96021427D01*
X173973314Y-96021427D02*
X173973314Y-96478570D01*
X174544742Y-95278570D02*
X173344742Y-95278570D01*
X105828572Y-114316171D02*
X105428572Y-114316171D01*
X105428572Y-114944742D02*
X105428572Y-113744742D01*
X105428572Y-113744742D02*
X106000000Y-113744742D01*
X106400000Y-114601885D02*
X106971429Y-114601885D01*
X106285714Y-114944742D02*
X106685714Y-113744742D01*
X106685714Y-113744742D02*
X107085714Y-114944742D01*
X107485714Y-114944742D02*
X107485714Y-113744742D01*
X107485714Y-113744742D02*
X108171428Y-114944742D01*
X108171428Y-114944742D02*
X108171428Y-113744742D01*
D11*
X149085714Y-119257533D02*
X149695238Y-119257533D01*
X151904762Y-119257533D02*
X152514286Y-119257533D01*
X152209524Y-119562295D02*
X152209524Y-118952771D01*
D10*
X167268465Y-94530326D02*
X167268465Y-94196993D01*
X167792275Y-94054136D02*
X167792275Y-94530326D01*
X167792275Y-94530326D02*
X166792275Y-94530326D01*
X166792275Y-94530326D02*
X166792275Y-94054136D01*
X166792275Y-93720802D02*
X167792275Y-93054136D01*
X166792275Y-93054136D02*
X167792275Y-93720802D01*
X166792275Y-92816040D02*
X166792275Y-92244612D01*
X167792275Y-92530326D02*
X166792275Y-92530326D01*
X169306980Y-93958898D02*
X169354600Y-94006517D01*
X169354600Y-94006517D02*
X169402219Y-94149374D01*
X169402219Y-94149374D02*
X169402219Y-94244612D01*
X169402219Y-94244612D02*
X169354600Y-94387469D01*
X169354600Y-94387469D02*
X169259361Y-94482707D01*
X169259361Y-94482707D02*
X169164123Y-94530326D01*
X169164123Y-94530326D02*
X168973647Y-94577945D01*
X168973647Y-94577945D02*
X168830790Y-94577945D01*
X168830790Y-94577945D02*
X168640314Y-94530326D01*
X168640314Y-94530326D02*
X168545076Y-94482707D01*
X168545076Y-94482707D02*
X168449838Y-94387469D01*
X168449838Y-94387469D02*
X168402219Y-94244612D01*
X168402219Y-94244612D02*
X168402219Y-94149374D01*
X168402219Y-94149374D02*
X168449838Y-94006517D01*
X168449838Y-94006517D02*
X168497457Y-93958898D01*
X168402219Y-93530326D02*
X169211742Y-93530326D01*
X169211742Y-93530326D02*
X169306980Y-93482707D01*
X169306980Y-93482707D02*
X169354600Y-93435088D01*
X169354600Y-93435088D02*
X169402219Y-93339850D01*
X169402219Y-93339850D02*
X169402219Y-93149374D01*
X169402219Y-93149374D02*
X169354600Y-93054136D01*
X169354600Y-93054136D02*
X169306980Y-93006517D01*
X169306980Y-93006517D02*
X169211742Y-92958898D01*
X169211742Y-92958898D02*
X168402219Y-92958898D01*
X169402219Y-91911279D02*
X168926028Y-92244612D01*
X169402219Y-92482707D02*
X168402219Y-92482707D01*
X168402219Y-92482707D02*
X168402219Y-92101755D01*
X168402219Y-92101755D02*
X168449838Y-92006517D01*
X168449838Y-92006517D02*
X168497457Y-91958898D01*
X168497457Y-91958898D02*
X168592695Y-91911279D01*
X168592695Y-91911279D02*
X168735552Y-91911279D01*
X168735552Y-91911279D02*
X168830790Y-91958898D01*
X168830790Y-91958898D02*
X168878409Y-92006517D01*
X168878409Y-92006517D02*
X168926028Y-92101755D01*
X168926028Y-92101755D02*
X168926028Y-92482707D01*
X169402219Y-90911279D02*
X168926028Y-91244612D01*
X169402219Y-91482707D02*
X168402219Y-91482707D01*
X168402219Y-91482707D02*
X168402219Y-91101755D01*
X168402219Y-91101755D02*
X168449838Y-91006517D01*
X168449838Y-91006517D02*
X168497457Y-90958898D01*
X168497457Y-90958898D02*
X168592695Y-90911279D01*
X168592695Y-90911279D02*
X168735552Y-90911279D01*
X168735552Y-90911279D02*
X168830790Y-90958898D01*
X168830790Y-90958898D02*
X168878409Y-91006517D01*
X168878409Y-91006517D02*
X168926028Y-91101755D01*
X168926028Y-91101755D02*
X168926028Y-91482707D01*
X170964544Y-94577945D02*
X171012163Y-94435088D01*
X171012163Y-94435088D02*
X171012163Y-94196993D01*
X171012163Y-94196993D02*
X170964544Y-94101755D01*
X170964544Y-94101755D02*
X170916924Y-94054136D01*
X170916924Y-94054136D02*
X170821686Y-94006517D01*
X170821686Y-94006517D02*
X170726448Y-94006517D01*
X170726448Y-94006517D02*
X170631210Y-94054136D01*
X170631210Y-94054136D02*
X170583591Y-94101755D01*
X170583591Y-94101755D02*
X170535972Y-94196993D01*
X170535972Y-94196993D02*
X170488353Y-94387469D01*
X170488353Y-94387469D02*
X170440734Y-94482707D01*
X170440734Y-94482707D02*
X170393115Y-94530326D01*
X170393115Y-94530326D02*
X170297877Y-94577945D01*
X170297877Y-94577945D02*
X170202639Y-94577945D01*
X170202639Y-94577945D02*
X170107401Y-94530326D01*
X170107401Y-94530326D02*
X170059782Y-94482707D01*
X170059782Y-94482707D02*
X170012163Y-94387469D01*
X170012163Y-94387469D02*
X170012163Y-94149374D01*
X170012163Y-94149374D02*
X170059782Y-94006517D01*
X170488353Y-93577945D02*
X170488353Y-93244612D01*
X171012163Y-93101755D02*
X171012163Y-93577945D01*
X171012163Y-93577945D02*
X170012163Y-93577945D01*
X170012163Y-93577945D02*
X170012163Y-93101755D01*
X170012163Y-92816040D02*
X170012163Y-92244612D01*
X171012163Y-92530326D02*
X170012163Y-92530326D01*
D12*
X132269347Y-104494438D02*
X132269347Y-102494438D01*
X132269347Y-102494438D02*
X133031252Y-102494438D01*
X133031252Y-102494438D02*
X133221728Y-102589676D01*
X133221728Y-102589676D02*
X133316966Y-102684914D01*
X133316966Y-102684914D02*
X133412204Y-102875390D01*
X133412204Y-102875390D02*
X133412204Y-103161104D01*
X133412204Y-103161104D02*
X133316966Y-103351580D01*
X133316966Y-103351580D02*
X133221728Y-103446819D01*
X133221728Y-103446819D02*
X133031252Y-103542057D01*
X133031252Y-103542057D02*
X132269347Y-103542057D01*
X134269347Y-104494438D02*
X134269347Y-103161104D01*
X134269347Y-103542057D02*
X134364585Y-103351580D01*
X134364585Y-103351580D02*
X134459823Y-103256342D01*
X134459823Y-103256342D02*
X134650299Y-103161104D01*
X134650299Y-103161104D02*
X134840776Y-103161104D01*
X135793156Y-104494438D02*
X135602680Y-104399200D01*
X135602680Y-104399200D02*
X135507442Y-104303961D01*
X135507442Y-104303961D02*
X135412204Y-104113485D01*
X135412204Y-104113485D02*
X135412204Y-103542057D01*
X135412204Y-103542057D02*
X135507442Y-103351580D01*
X135507442Y-103351580D02*
X135602680Y-103256342D01*
X135602680Y-103256342D02*
X135793156Y-103161104D01*
X135793156Y-103161104D02*
X136078871Y-103161104D01*
X136078871Y-103161104D02*
X136269347Y-103256342D01*
X136269347Y-103256342D02*
X136364585Y-103351580D01*
X136364585Y-103351580D02*
X136459823Y-103542057D01*
X136459823Y-103542057D02*
X136459823Y-104113485D01*
X136459823Y-104113485D02*
X136364585Y-104303961D01*
X136364585Y-104303961D02*
X136269347Y-104399200D01*
X136269347Y-104399200D02*
X136078871Y-104494438D01*
X136078871Y-104494438D02*
X135793156Y-104494438D01*
X138174109Y-103161104D02*
X138174109Y-104780152D01*
X138174109Y-104780152D02*
X138078871Y-104970628D01*
X138078871Y-104970628D02*
X137983633Y-105065866D01*
X137983633Y-105065866D02*
X137793156Y-105161104D01*
X137793156Y-105161104D02*
X137507442Y-105161104D01*
X137507442Y-105161104D02*
X137316966Y-105065866D01*
X138174109Y-104399200D02*
X137983633Y-104494438D01*
X137983633Y-104494438D02*
X137602680Y-104494438D01*
X137602680Y-104494438D02*
X137412204Y-104399200D01*
X137412204Y-104399200D02*
X137316966Y-104303961D01*
X137316966Y-104303961D02*
X137221728Y-104113485D01*
X137221728Y-104113485D02*
X137221728Y-103542057D01*
X137221728Y-103542057D02*
X137316966Y-103351580D01*
X137316966Y-103351580D02*
X137412204Y-103256342D01*
X137412204Y-103256342D02*
X137602680Y-103161104D01*
X137602680Y-103161104D02*
X137983633Y-103161104D01*
X137983633Y-103161104D02*
X138174109Y-103256342D01*
X139126490Y-104494438D02*
X139126490Y-103161104D01*
X139126490Y-103542057D02*
X139221728Y-103351580D01*
X139221728Y-103351580D02*
X139316966Y-103256342D01*
X139316966Y-103256342D02*
X139507442Y-103161104D01*
X139507442Y-103161104D02*
X139697919Y-103161104D01*
X141221728Y-104494438D02*
X141221728Y-103446819D01*
X141221728Y-103446819D02*
X141126490Y-103256342D01*
X141126490Y-103256342D02*
X140936014Y-103161104D01*
X140936014Y-103161104D02*
X140555061Y-103161104D01*
X140555061Y-103161104D02*
X140364585Y-103256342D01*
X141221728Y-104399200D02*
X141031252Y-104494438D01*
X141031252Y-104494438D02*
X140555061Y-104494438D01*
X140555061Y-104494438D02*
X140364585Y-104399200D01*
X140364585Y-104399200D02*
X140269347Y-104208723D01*
X140269347Y-104208723D02*
X140269347Y-104018247D01*
X140269347Y-104018247D02*
X140364585Y-103827771D01*
X140364585Y-103827771D02*
X140555061Y-103732533D01*
X140555061Y-103732533D02*
X141031252Y-103732533D01*
X141031252Y-103732533D02*
X141221728Y-103637295D01*
X142174109Y-104494438D02*
X142174109Y-103161104D01*
X142174109Y-103351580D02*
X142269347Y-103256342D01*
X142269347Y-103256342D02*
X142459823Y-103161104D01*
X142459823Y-103161104D02*
X142745538Y-103161104D01*
X142745538Y-103161104D02*
X142936014Y-103256342D01*
X142936014Y-103256342D02*
X143031252Y-103446819D01*
X143031252Y-103446819D02*
X143031252Y-104494438D01*
X143031252Y-103446819D02*
X143126490Y-103256342D01*
X143126490Y-103256342D02*
X143316966Y-103161104D01*
X143316966Y-103161104D02*
X143602680Y-103161104D01*
X143602680Y-103161104D02*
X143793157Y-103256342D01*
X143793157Y-103256342D02*
X143888395Y-103446819D01*
X143888395Y-103446819D02*
X143888395Y-104494438D01*
X144840776Y-104494438D02*
X144840776Y-103161104D01*
X144840776Y-103351580D02*
X144936014Y-103256342D01*
X144936014Y-103256342D02*
X145126490Y-103161104D01*
X145126490Y-103161104D02*
X145412205Y-103161104D01*
X145412205Y-103161104D02*
X145602681Y-103256342D01*
X145602681Y-103256342D02*
X145697919Y-103446819D01*
X145697919Y-103446819D02*
X145697919Y-104494438D01*
X145697919Y-103446819D02*
X145793157Y-103256342D01*
X145793157Y-103256342D02*
X145983633Y-103161104D01*
X145983633Y-103161104D02*
X146269347Y-103161104D01*
X146269347Y-103161104D02*
X146459824Y-103256342D01*
X146459824Y-103256342D02*
X146555062Y-103446819D01*
X146555062Y-103446819D02*
X146555062Y-104494438D01*
X148364586Y-104494438D02*
X148364586Y-103446819D01*
X148364586Y-103446819D02*
X148269348Y-103256342D01*
X148269348Y-103256342D02*
X148078872Y-103161104D01*
X148078872Y-103161104D02*
X147697919Y-103161104D01*
X147697919Y-103161104D02*
X147507443Y-103256342D01*
X148364586Y-104399200D02*
X148174110Y-104494438D01*
X148174110Y-104494438D02*
X147697919Y-104494438D01*
X147697919Y-104494438D02*
X147507443Y-104399200D01*
X147507443Y-104399200D02*
X147412205Y-104208723D01*
X147412205Y-104208723D02*
X147412205Y-104018247D01*
X147412205Y-104018247D02*
X147507443Y-103827771D01*
X147507443Y-103827771D02*
X147697919Y-103732533D01*
X147697919Y-103732533D02*
X148174110Y-103732533D01*
X148174110Y-103732533D02*
X148364586Y-103637295D01*
X149316967Y-104494438D02*
X149316967Y-102494438D01*
X149316967Y-103256342D02*
X149507443Y-103161104D01*
X149507443Y-103161104D02*
X149888396Y-103161104D01*
X149888396Y-103161104D02*
X150078872Y-103256342D01*
X150078872Y-103256342D02*
X150174110Y-103351580D01*
X150174110Y-103351580D02*
X150269348Y-103542057D01*
X150269348Y-103542057D02*
X150269348Y-104113485D01*
X150269348Y-104113485D02*
X150174110Y-104303961D01*
X150174110Y-104303961D02*
X150078872Y-104399200D01*
X150078872Y-104399200D02*
X149888396Y-104494438D01*
X149888396Y-104494438D02*
X149507443Y-104494438D01*
X149507443Y-104494438D02*
X149316967Y-104399200D01*
X151412205Y-104494438D02*
X151221729Y-104399200D01*
X151221729Y-104399200D02*
X151126491Y-104208723D01*
X151126491Y-104208723D02*
X151126491Y-102494438D01*
X152936015Y-104399200D02*
X152745539Y-104494438D01*
X152745539Y-104494438D02*
X152364586Y-104494438D01*
X152364586Y-104494438D02*
X152174110Y-104399200D01*
X152174110Y-104399200D02*
X152078872Y-104208723D01*
X152078872Y-104208723D02*
X152078872Y-103446819D01*
X152078872Y-103446819D02*
X152174110Y-103256342D01*
X152174110Y-103256342D02*
X152364586Y-103161104D01*
X152364586Y-103161104D02*
X152745539Y-103161104D01*
X152745539Y-103161104D02*
X152936015Y-103256342D01*
X152936015Y-103256342D02*
X153031253Y-103446819D01*
X153031253Y-103446819D02*
X153031253Y-103637295D01*
X153031253Y-103637295D02*
X152078872Y-103827771D01*
X155412206Y-104494438D02*
X155412206Y-102494438D01*
X155412206Y-102494438D02*
X155888396Y-102494438D01*
X155888396Y-102494438D02*
X156174111Y-102589676D01*
X156174111Y-102589676D02*
X156364587Y-102780152D01*
X156364587Y-102780152D02*
X156459825Y-102970628D01*
X156459825Y-102970628D02*
X156555063Y-103351580D01*
X156555063Y-103351580D02*
X156555063Y-103637295D01*
X156555063Y-103637295D02*
X156459825Y-104018247D01*
X156459825Y-104018247D02*
X156364587Y-104208723D01*
X156364587Y-104208723D02*
X156174111Y-104399200D01*
X156174111Y-104399200D02*
X155888396Y-104494438D01*
X155888396Y-104494438D02*
X155412206Y-104494438D01*
X158555063Y-104303961D02*
X158459825Y-104399200D01*
X158459825Y-104399200D02*
X158174111Y-104494438D01*
X158174111Y-104494438D02*
X157983635Y-104494438D01*
X157983635Y-104494438D02*
X157697920Y-104399200D01*
X157697920Y-104399200D02*
X157507444Y-104208723D01*
X157507444Y-104208723D02*
X157412206Y-104018247D01*
X157412206Y-104018247D02*
X157316968Y-103637295D01*
X157316968Y-103637295D02*
X157316968Y-103351580D01*
X157316968Y-103351580D02*
X157412206Y-102970628D01*
X157412206Y-102970628D02*
X157507444Y-102780152D01*
X157507444Y-102780152D02*
X157697920Y-102589676D01*
X157697920Y-102589676D02*
X157983635Y-102494438D01*
X157983635Y-102494438D02*
X158174111Y-102494438D01*
X158174111Y-102494438D02*
X158459825Y-102589676D01*
X158459825Y-102589676D02*
X158555063Y-102684914D01*
X161888397Y-104494438D02*
X160936016Y-104494438D01*
X160936016Y-104494438D02*
X160936016Y-102494438D01*
X162840778Y-104494438D02*
X162650302Y-104399200D01*
X162650302Y-104399200D02*
X162555064Y-104303961D01*
X162555064Y-104303961D02*
X162459826Y-104113485D01*
X162459826Y-104113485D02*
X162459826Y-103542057D01*
X162459826Y-103542057D02*
X162555064Y-103351580D01*
X162555064Y-103351580D02*
X162650302Y-103256342D01*
X162650302Y-103256342D02*
X162840778Y-103161104D01*
X162840778Y-103161104D02*
X163126493Y-103161104D01*
X163126493Y-103161104D02*
X163316969Y-103256342D01*
X163316969Y-103256342D02*
X163412207Y-103351580D01*
X163412207Y-103351580D02*
X163507445Y-103542057D01*
X163507445Y-103542057D02*
X163507445Y-104113485D01*
X163507445Y-104113485D02*
X163412207Y-104303961D01*
X163412207Y-104303961D02*
X163316969Y-104399200D01*
X163316969Y-104399200D02*
X163126493Y-104494438D01*
X163126493Y-104494438D02*
X162840778Y-104494438D01*
X165221731Y-104494438D02*
X165221731Y-103446819D01*
X165221731Y-103446819D02*
X165126493Y-103256342D01*
X165126493Y-103256342D02*
X164936017Y-103161104D01*
X164936017Y-103161104D02*
X164555064Y-103161104D01*
X164555064Y-103161104D02*
X164364588Y-103256342D01*
X165221731Y-104399200D02*
X165031255Y-104494438D01*
X165031255Y-104494438D02*
X164555064Y-104494438D01*
X164555064Y-104494438D02*
X164364588Y-104399200D01*
X164364588Y-104399200D02*
X164269350Y-104208723D01*
X164269350Y-104208723D02*
X164269350Y-104018247D01*
X164269350Y-104018247D02*
X164364588Y-103827771D01*
X164364588Y-103827771D02*
X164555064Y-103732533D01*
X164555064Y-103732533D02*
X165031255Y-103732533D01*
X165031255Y-103732533D02*
X165221731Y-103637295D01*
X167031255Y-104494438D02*
X167031255Y-102494438D01*
X167031255Y-104399200D02*
X166840779Y-104494438D01*
X166840779Y-104494438D02*
X166459826Y-104494438D01*
X166459826Y-104494438D02*
X166269350Y-104399200D01*
X166269350Y-104399200D02*
X166174112Y-104303961D01*
X166174112Y-104303961D02*
X166078874Y-104113485D01*
X166078874Y-104113485D02*
X166078874Y-103542057D01*
X166078874Y-103542057D02*
X166174112Y-103351580D01*
X166174112Y-103351580D02*
X166269350Y-103256342D01*
X166269350Y-103256342D02*
X166459826Y-103161104D01*
X166459826Y-103161104D02*
X166840779Y-103161104D01*
X166840779Y-103161104D02*
X167031255Y-103256342D01*
D10*
X152911286Y-95088742D02*
X152911286Y-93888742D01*
X152911286Y-93888742D02*
X153197000Y-93888742D01*
X153197000Y-93888742D02*
X153368429Y-93945885D01*
X153368429Y-93945885D02*
X153482714Y-94060171D01*
X153482714Y-94060171D02*
X153539857Y-94174457D01*
X153539857Y-94174457D02*
X153597000Y-94403028D01*
X153597000Y-94403028D02*
X153597000Y-94574457D01*
X153597000Y-94574457D02*
X153539857Y-94803028D01*
X153539857Y-94803028D02*
X153482714Y-94917314D01*
X153482714Y-94917314D02*
X153368429Y-95031600D01*
X153368429Y-95031600D02*
X153197000Y-95088742D01*
X153197000Y-95088742D02*
X152911286Y-95088742D01*
X154625572Y-94288742D02*
X154625572Y-95088742D01*
X154339857Y-93831600D02*
X154054143Y-94688742D01*
X154054143Y-94688742D02*
X154797000Y-94688742D01*
X158113857Y-94671885D02*
X158685286Y-94671885D01*
X157999571Y-95014742D02*
X158399571Y-93814742D01*
X158399571Y-93814742D02*
X158799571Y-95014742D01*
X159713857Y-93814742D02*
X159485285Y-93814742D01*
X159485285Y-93814742D02*
X159370999Y-93871885D01*
X159370999Y-93871885D02*
X159313857Y-93929028D01*
X159313857Y-93929028D02*
X159199571Y-94100457D01*
X159199571Y-94100457D02*
X159142428Y-94329028D01*
X159142428Y-94329028D02*
X159142428Y-94786171D01*
X159142428Y-94786171D02*
X159199571Y-94900457D01*
X159199571Y-94900457D02*
X159256714Y-94957600D01*
X159256714Y-94957600D02*
X159370999Y-95014742D01*
X159370999Y-95014742D02*
X159599571Y-95014742D01*
X159599571Y-95014742D02*
X159713857Y-94957600D01*
X159713857Y-94957600D02*
X159770999Y-94900457D01*
X159770999Y-94900457D02*
X159828142Y-94786171D01*
X159828142Y-94786171D02*
X159828142Y-94500457D01*
X159828142Y-94500457D02*
X159770999Y-94386171D01*
X159770999Y-94386171D02*
X159713857Y-94329028D01*
X159713857Y-94329028D02*
X159599571Y-94271885D01*
X159599571Y-94271885D02*
X159370999Y-94271885D01*
X159370999Y-94271885D02*
X159256714Y-94329028D01*
X159256714Y-94329028D02*
X159199571Y-94386171D01*
X159199571Y-94386171D02*
X159142428Y-94500457D01*
D11*
X170800390Y-99816665D02*
X170762295Y-99883332D01*
X170762295Y-99883332D02*
X170762295Y-99983332D01*
X170762295Y-99983332D02*
X170800390Y-100083332D01*
X170800390Y-100083332D02*
X170876580Y-100149999D01*
X170876580Y-100149999D02*
X170952771Y-100183332D01*
X170952771Y-100183332D02*
X171105152Y-100216665D01*
X171105152Y-100216665D02*
X171219438Y-100216665D01*
X171219438Y-100216665D02*
X171371819Y-100183332D01*
X171371819Y-100183332D02*
X171448009Y-100149999D01*
X171448009Y-100149999D02*
X171524200Y-100083332D01*
X171524200Y-100083332D02*
X171562295Y-99983332D01*
X171562295Y-99983332D02*
X171562295Y-99916665D01*
X171562295Y-99916665D02*
X171524200Y-99816665D01*
X171524200Y-99816665D02*
X171486104Y-99783332D01*
X171486104Y-99783332D02*
X171219438Y-99783332D01*
X171219438Y-99783332D02*
X171219438Y-99916665D01*
X171562295Y-99483332D02*
X170762295Y-99483332D01*
X170762295Y-99483332D02*
X171562295Y-99083332D01*
X171562295Y-99083332D02*
X170762295Y-99083332D01*
X171562295Y-98749999D02*
X170762295Y-98749999D01*
X170762295Y-98749999D02*
X170762295Y-98583332D01*
X170762295Y-98583332D02*
X170800390Y-98483332D01*
X170800390Y-98483332D02*
X170876580Y-98416666D01*
X170876580Y-98416666D02*
X170952771Y-98383332D01*
X170952771Y-98383332D02*
X171105152Y-98349999D01*
X171105152Y-98349999D02*
X171219438Y-98349999D01*
X171219438Y-98349999D02*
X171371819Y-98383332D01*
X171371819Y-98383332D02*
X171448009Y-98416666D01*
X171448009Y-98416666D02*
X171524200Y-98483332D01*
X171524200Y-98483332D02*
X171562295Y-98583332D01*
X171562295Y-98583332D02*
X171562295Y-98749999D01*
X171524200Y-97549999D02*
X171562295Y-97449999D01*
X171562295Y-97449999D02*
X171562295Y-97283333D01*
X171562295Y-97283333D02*
X171524200Y-97216666D01*
X171524200Y-97216666D02*
X171486104Y-97183333D01*
X171486104Y-97183333D02*
X171409914Y-97149999D01*
X171409914Y-97149999D02*
X171333723Y-97149999D01*
X171333723Y-97149999D02*
X171257533Y-97183333D01*
X171257533Y-97183333D02*
X171219438Y-97216666D01*
X171219438Y-97216666D02*
X171181342Y-97283333D01*
X171181342Y-97283333D02*
X171143247Y-97416666D01*
X171143247Y-97416666D02*
X171105152Y-97483333D01*
X171105152Y-97483333D02*
X171067057Y-97516666D01*
X171067057Y-97516666D02*
X170990866Y-97549999D01*
X170990866Y-97549999D02*
X170914676Y-97549999D01*
X170914676Y-97549999D02*
X170838485Y-97516666D01*
X170838485Y-97516666D02*
X170800390Y-97483333D01*
X170800390Y-97483333D02*
X170762295Y-97416666D01*
X170762295Y-97416666D02*
X170762295Y-97249999D01*
X170762295Y-97249999D02*
X170800390Y-97149999D01*
X171143247Y-96849999D02*
X171143247Y-96616666D01*
X171562295Y-96516666D02*
X171562295Y-96849999D01*
X171562295Y-96849999D02*
X170762295Y-96849999D01*
X170762295Y-96849999D02*
X170762295Y-96516666D01*
X170762295Y-96316666D02*
X170762295Y-95916666D01*
X171562295Y-96116666D02*
X170762295Y-96116666D01*
X114680951Y-118900390D02*
X114604761Y-118862295D01*
X114604761Y-118862295D02*
X114490475Y-118862295D01*
X114490475Y-118862295D02*
X114376189Y-118900390D01*
X114376189Y-118900390D02*
X114299999Y-118976580D01*
X114299999Y-118976580D02*
X114261904Y-119052771D01*
X114261904Y-119052771D02*
X114223808Y-119205152D01*
X114223808Y-119205152D02*
X114223808Y-119319438D01*
X114223808Y-119319438D02*
X114261904Y-119471819D01*
X114261904Y-119471819D02*
X114299999Y-119548009D01*
X114299999Y-119548009D02*
X114376189Y-119624200D01*
X114376189Y-119624200D02*
X114490475Y-119662295D01*
X114490475Y-119662295D02*
X114566666Y-119662295D01*
X114566666Y-119662295D02*
X114680951Y-119624200D01*
X114680951Y-119624200D02*
X114719047Y-119586104D01*
X114719047Y-119586104D02*
X114719047Y-119319438D01*
X114719047Y-119319438D02*
X114566666Y-119319438D01*
X115061904Y-119662295D02*
X115061904Y-118862295D01*
X115061904Y-118862295D02*
X115519047Y-119662295D01*
X115519047Y-119662295D02*
X115519047Y-118862295D01*
X115899999Y-119662295D02*
X115899999Y-118862295D01*
X115899999Y-118862295D02*
X116090475Y-118862295D01*
X116090475Y-118862295D02*
X116204761Y-118900390D01*
X116204761Y-118900390D02*
X116280951Y-118976580D01*
X116280951Y-118976580D02*
X116319046Y-119052771D01*
X116319046Y-119052771D02*
X116357142Y-119205152D01*
X116357142Y-119205152D02*
X116357142Y-119319438D01*
X116357142Y-119319438D02*
X116319046Y-119471819D01*
X116319046Y-119471819D02*
X116280951Y-119548009D01*
X116280951Y-119548009D02*
X116204761Y-119624200D01*
X116204761Y-119624200D02*
X116090475Y-119662295D01*
X116090475Y-119662295D02*
X115899999Y-119662295D01*
X117271427Y-119624200D02*
X117385713Y-119662295D01*
X117385713Y-119662295D02*
X117576189Y-119662295D01*
X117576189Y-119662295D02*
X117652380Y-119624200D01*
X117652380Y-119624200D02*
X117690475Y-119586104D01*
X117690475Y-119586104D02*
X117728570Y-119509914D01*
X117728570Y-119509914D02*
X117728570Y-119433723D01*
X117728570Y-119433723D02*
X117690475Y-119357533D01*
X117690475Y-119357533D02*
X117652380Y-119319438D01*
X117652380Y-119319438D02*
X117576189Y-119281342D01*
X117576189Y-119281342D02*
X117423808Y-119243247D01*
X117423808Y-119243247D02*
X117347618Y-119205152D01*
X117347618Y-119205152D02*
X117309523Y-119167057D01*
X117309523Y-119167057D02*
X117271427Y-119090866D01*
X117271427Y-119090866D02*
X117271427Y-119014676D01*
X117271427Y-119014676D02*
X117309523Y-118938485D01*
X117309523Y-118938485D02*
X117347618Y-118900390D01*
X117347618Y-118900390D02*
X117423808Y-118862295D01*
X117423808Y-118862295D02*
X117614285Y-118862295D01*
X117614285Y-118862295D02*
X117728570Y-118900390D01*
X117995237Y-118862295D02*
X118185713Y-119662295D01*
X118185713Y-119662295D02*
X118338094Y-119090866D01*
X118338094Y-119090866D02*
X118490475Y-119662295D01*
X118490475Y-119662295D02*
X118680952Y-118862295D01*
X120166666Y-119433723D02*
X120547619Y-119433723D01*
X120090476Y-119662295D02*
X120357143Y-118862295D01*
X120357143Y-118862295D02*
X120623809Y-119662295D01*
X122985714Y-119243247D02*
X123100000Y-119281342D01*
X123100000Y-119281342D02*
X123138095Y-119319438D01*
X123138095Y-119319438D02*
X123176191Y-119395628D01*
X123176191Y-119395628D02*
X123176191Y-119509914D01*
X123176191Y-119509914D02*
X123138095Y-119586104D01*
X123138095Y-119586104D02*
X123100000Y-119624200D01*
X123100000Y-119624200D02*
X123023810Y-119662295D01*
X123023810Y-119662295D02*
X122719048Y-119662295D01*
X122719048Y-119662295D02*
X122719048Y-118862295D01*
X122719048Y-118862295D02*
X122985714Y-118862295D01*
X122985714Y-118862295D02*
X123061905Y-118900390D01*
X123061905Y-118900390D02*
X123100000Y-118938485D01*
X123100000Y-118938485D02*
X123138095Y-119014676D01*
X123138095Y-119014676D02*
X123138095Y-119090866D01*
X123138095Y-119090866D02*
X123100000Y-119167057D01*
X123100000Y-119167057D02*
X123061905Y-119205152D01*
X123061905Y-119205152D02*
X122985714Y-119243247D01*
X122985714Y-119243247D02*
X122719048Y-119243247D01*
D10*
X139728571Y-114852219D02*
X139728571Y-113852219D01*
X139728571Y-113852219D02*
X140109523Y-113852219D01*
X140109523Y-113852219D02*
X140204761Y-113899838D01*
X140204761Y-113899838D02*
X140252380Y-113947457D01*
X140252380Y-113947457D02*
X140299999Y-114042695D01*
X140299999Y-114042695D02*
X140299999Y-114185552D01*
X140299999Y-114185552D02*
X140252380Y-114280790D01*
X140252380Y-114280790D02*
X140204761Y-114328409D01*
X140204761Y-114328409D02*
X140109523Y-114376028D01*
X140109523Y-114376028D02*
X139728571Y-114376028D01*
X140633333Y-113852219D02*
X140871428Y-114852219D01*
X140871428Y-114852219D02*
X141061904Y-114137933D01*
X141061904Y-114137933D02*
X141252380Y-114852219D01*
X141252380Y-114852219D02*
X141490476Y-113852219D01*
X142442856Y-114852219D02*
X142109523Y-114376028D01*
X141871428Y-114852219D02*
X141871428Y-113852219D01*
X141871428Y-113852219D02*
X142252380Y-113852219D01*
X142252380Y-113852219D02*
X142347618Y-113899838D01*
X142347618Y-113899838D02*
X142395237Y-113947457D01*
X142395237Y-113947457D02*
X142442856Y-114042695D01*
X142442856Y-114042695D02*
X142442856Y-114185552D01*
X142442856Y-114185552D02*
X142395237Y-114280790D01*
X142395237Y-114280790D02*
X142347618Y-114328409D01*
X142347618Y-114328409D02*
X142252380Y-114376028D01*
X142252380Y-114376028D02*
X141871428Y-114376028D01*
X144109523Y-114852219D02*
X143633333Y-114852219D01*
X143633333Y-114852219D02*
X143633333Y-113852219D01*
X144442857Y-114328409D02*
X144776190Y-114328409D01*
X144919047Y-114852219D02*
X144442857Y-114852219D01*
X144442857Y-114852219D02*
X144442857Y-113852219D01*
X144442857Y-113852219D02*
X144919047Y-113852219D01*
X145347619Y-114852219D02*
X145347619Y-113852219D01*
X145347619Y-113852219D02*
X145585714Y-113852219D01*
X145585714Y-113852219D02*
X145728571Y-113899838D01*
X145728571Y-113899838D02*
X145823809Y-113995076D01*
X145823809Y-113995076D02*
X145871428Y-114090314D01*
X145871428Y-114090314D02*
X145919047Y-114280790D01*
X145919047Y-114280790D02*
X145919047Y-114423647D01*
X145919047Y-114423647D02*
X145871428Y-114614123D01*
X145871428Y-114614123D02*
X145823809Y-114709361D01*
X145823809Y-114709361D02*
X145728571Y-114804600D01*
X145728571Y-114804600D02*
X145585714Y-114852219D01*
X145585714Y-114852219D02*
X145347619Y-114852219D01*
D11*
X91499609Y-84480952D02*
X91537704Y-84404762D01*
X91537704Y-84404762D02*
X91537704Y-84290476D01*
X91537704Y-84290476D02*
X91499609Y-84176190D01*
X91499609Y-84176190D02*
X91423419Y-84100000D01*
X91423419Y-84100000D02*
X91347228Y-84061905D01*
X91347228Y-84061905D02*
X91194847Y-84023809D01*
X91194847Y-84023809D02*
X91080561Y-84023809D01*
X91080561Y-84023809D02*
X90928180Y-84061905D01*
X90928180Y-84061905D02*
X90851990Y-84100000D01*
X90851990Y-84100000D02*
X90775800Y-84176190D01*
X90775800Y-84176190D02*
X90737704Y-84290476D01*
X90737704Y-84290476D02*
X90737704Y-84366667D01*
X90737704Y-84366667D02*
X90775800Y-84480952D01*
X90775800Y-84480952D02*
X90813895Y-84519048D01*
X90813895Y-84519048D02*
X91080561Y-84519048D01*
X91080561Y-84519048D02*
X91080561Y-84366667D01*
X90737704Y-84861905D02*
X91537704Y-84861905D01*
X91537704Y-84861905D02*
X90737704Y-85319048D01*
X90737704Y-85319048D02*
X91537704Y-85319048D01*
X90737704Y-85700000D02*
X91537704Y-85700000D01*
X91537704Y-85700000D02*
X91537704Y-85890476D01*
X91537704Y-85890476D02*
X91499609Y-86004762D01*
X91499609Y-86004762D02*
X91423419Y-86080952D01*
X91423419Y-86080952D02*
X91347228Y-86119047D01*
X91347228Y-86119047D02*
X91194847Y-86157143D01*
X91194847Y-86157143D02*
X91080561Y-86157143D01*
X91080561Y-86157143D02*
X90928180Y-86119047D01*
X90928180Y-86119047D02*
X90851990Y-86080952D01*
X90851990Y-86080952D02*
X90775800Y-86004762D01*
X90775800Y-86004762D02*
X90737704Y-85890476D01*
X90737704Y-85890476D02*
X90737704Y-85700000D01*
X90737704Y-87528571D02*
X90737704Y-87071428D01*
X90737704Y-87300000D02*
X91537704Y-87300000D01*
X91537704Y-87300000D02*
X91423419Y-87223809D01*
X91423419Y-87223809D02*
X91347228Y-87147619D01*
X91347228Y-87147619D02*
X91309133Y-87071428D01*
X91461514Y-87833333D02*
X91499609Y-87871429D01*
X91499609Y-87871429D02*
X91537704Y-87947619D01*
X91537704Y-87947619D02*
X91537704Y-88138095D01*
X91537704Y-88138095D02*
X91499609Y-88214286D01*
X91499609Y-88214286D02*
X91461514Y-88252381D01*
X91461514Y-88252381D02*
X91385323Y-88290476D01*
X91385323Y-88290476D02*
X91309133Y-88290476D01*
X91309133Y-88290476D02*
X91194847Y-88252381D01*
X91194847Y-88252381D02*
X90737704Y-87795238D01*
X90737704Y-87795238D02*
X90737704Y-88290476D01*
X91537704Y-88519048D02*
X90737704Y-88785715D01*
X90737704Y-88785715D02*
X91537704Y-89052381D01*
D10*
X163113857Y-94671885D02*
X163685286Y-94671885D01*
X162999571Y-95014742D02*
X163399571Y-93814742D01*
X163399571Y-93814742D02*
X163799571Y-95014742D01*
X164085285Y-93814742D02*
X164885285Y-93814742D01*
X164885285Y-93814742D02*
X164370999Y-95014742D01*
X102651143Y-105700742D02*
X102251143Y-105129314D01*
X101965429Y-105700742D02*
X101965429Y-104500742D01*
X101965429Y-104500742D02*
X102422572Y-104500742D01*
X102422572Y-104500742D02*
X102536857Y-104557885D01*
X102536857Y-104557885D02*
X102594000Y-104615028D01*
X102594000Y-104615028D02*
X102651143Y-104729314D01*
X102651143Y-104729314D02*
X102651143Y-104900742D01*
X102651143Y-104900742D02*
X102594000Y-105015028D01*
X102594000Y-105015028D02*
X102536857Y-105072171D01*
X102536857Y-105072171D02*
X102422572Y-105129314D01*
X102422572Y-105129314D02*
X101965429Y-105129314D01*
X103165429Y-105072171D02*
X103565429Y-105072171D01*
X103736857Y-105700742D02*
X103165429Y-105700742D01*
X103165429Y-105700742D02*
X103165429Y-104500742D01*
X103165429Y-104500742D02*
X103736857Y-104500742D01*
X104194000Y-105643600D02*
X104365429Y-105700742D01*
X104365429Y-105700742D02*
X104651143Y-105700742D01*
X104651143Y-105700742D02*
X104765429Y-105643600D01*
X104765429Y-105643600D02*
X104822571Y-105586457D01*
X104822571Y-105586457D02*
X104879714Y-105472171D01*
X104879714Y-105472171D02*
X104879714Y-105357885D01*
X104879714Y-105357885D02*
X104822571Y-105243600D01*
X104822571Y-105243600D02*
X104765429Y-105186457D01*
X104765429Y-105186457D02*
X104651143Y-105129314D01*
X104651143Y-105129314D02*
X104422571Y-105072171D01*
X104422571Y-105072171D02*
X104308286Y-105015028D01*
X104308286Y-105015028D02*
X104251143Y-104957885D01*
X104251143Y-104957885D02*
X104194000Y-104843600D01*
X104194000Y-104843600D02*
X104194000Y-104729314D01*
X104194000Y-104729314D02*
X104251143Y-104615028D01*
X104251143Y-104615028D02*
X104308286Y-104557885D01*
X104308286Y-104557885D02*
X104422571Y-104500742D01*
X104422571Y-104500742D02*
X104708286Y-104500742D01*
X104708286Y-104500742D02*
X104879714Y-104557885D01*
X105394000Y-105072171D02*
X105794000Y-105072171D01*
X105965428Y-105700742D02*
X105394000Y-105700742D01*
X105394000Y-105700742D02*
X105394000Y-104500742D01*
X105394000Y-104500742D02*
X105965428Y-104500742D01*
X106308285Y-104500742D02*
X106994000Y-104500742D01*
X106651142Y-105700742D02*
X106651142Y-104500742D01*
D11*
X127304761Y-118900390D02*
X127228571Y-118862295D01*
X127228571Y-118862295D02*
X127114285Y-118862295D01*
X127114285Y-118862295D02*
X126999999Y-118900390D01*
X126999999Y-118900390D02*
X126923809Y-118976580D01*
X126923809Y-118976580D02*
X126885714Y-119052771D01*
X126885714Y-119052771D02*
X126847618Y-119205152D01*
X126847618Y-119205152D02*
X126847618Y-119319438D01*
X126847618Y-119319438D02*
X126885714Y-119471819D01*
X126885714Y-119471819D02*
X126923809Y-119548009D01*
X126923809Y-119548009D02*
X126999999Y-119624200D01*
X126999999Y-119624200D02*
X127114285Y-119662295D01*
X127114285Y-119662295D02*
X127190476Y-119662295D01*
X127190476Y-119662295D02*
X127304761Y-119624200D01*
X127304761Y-119624200D02*
X127342857Y-119586104D01*
X127342857Y-119586104D02*
X127342857Y-119319438D01*
X127342857Y-119319438D02*
X127190476Y-119319438D01*
X127685714Y-119662295D02*
X127685714Y-118862295D01*
X127685714Y-118862295D02*
X128142857Y-119662295D01*
X128142857Y-119662295D02*
X128142857Y-118862295D01*
X128523809Y-119662295D02*
X128523809Y-118862295D01*
X128523809Y-118862295D02*
X128714285Y-118862295D01*
X128714285Y-118862295D02*
X128828571Y-118900390D01*
X128828571Y-118900390D02*
X128904761Y-118976580D01*
X128904761Y-118976580D02*
X128942856Y-119052771D01*
X128942856Y-119052771D02*
X128980952Y-119205152D01*
X128980952Y-119205152D02*
X128980952Y-119319438D01*
X128980952Y-119319438D02*
X128942856Y-119471819D01*
X128942856Y-119471819D02*
X128904761Y-119548009D01*
X128904761Y-119548009D02*
X128828571Y-119624200D01*
X128828571Y-119624200D02*
X128714285Y-119662295D01*
X128714285Y-119662295D02*
X128523809Y-119662295D01*
X129895237Y-119624200D02*
X130009523Y-119662295D01*
X130009523Y-119662295D02*
X130199999Y-119662295D01*
X130199999Y-119662295D02*
X130276190Y-119624200D01*
X130276190Y-119624200D02*
X130314285Y-119586104D01*
X130314285Y-119586104D02*
X130352380Y-119509914D01*
X130352380Y-119509914D02*
X130352380Y-119433723D01*
X130352380Y-119433723D02*
X130314285Y-119357533D01*
X130314285Y-119357533D02*
X130276190Y-119319438D01*
X130276190Y-119319438D02*
X130199999Y-119281342D01*
X130199999Y-119281342D02*
X130047618Y-119243247D01*
X130047618Y-119243247D02*
X129971428Y-119205152D01*
X129971428Y-119205152D02*
X129933333Y-119167057D01*
X129933333Y-119167057D02*
X129895237Y-119090866D01*
X129895237Y-119090866D02*
X129895237Y-119014676D01*
X129895237Y-119014676D02*
X129933333Y-118938485D01*
X129933333Y-118938485D02*
X129971428Y-118900390D01*
X129971428Y-118900390D02*
X130047618Y-118862295D01*
X130047618Y-118862295D02*
X130238095Y-118862295D01*
X130238095Y-118862295D02*
X130352380Y-118900390D01*
X131152381Y-119586104D02*
X131114285Y-119624200D01*
X131114285Y-119624200D02*
X131000000Y-119662295D01*
X131000000Y-119662295D02*
X130923809Y-119662295D01*
X130923809Y-119662295D02*
X130809523Y-119624200D01*
X130809523Y-119624200D02*
X130733333Y-119548009D01*
X130733333Y-119548009D02*
X130695238Y-119471819D01*
X130695238Y-119471819D02*
X130657142Y-119319438D01*
X130657142Y-119319438D02*
X130657142Y-119205152D01*
X130657142Y-119205152D02*
X130695238Y-119052771D01*
X130695238Y-119052771D02*
X130733333Y-118976580D01*
X130733333Y-118976580D02*
X130809523Y-118900390D01*
X130809523Y-118900390D02*
X130923809Y-118862295D01*
X130923809Y-118862295D02*
X131000000Y-118862295D01*
X131000000Y-118862295D02*
X131114285Y-118900390D01*
X131114285Y-118900390D02*
X131152381Y-118938485D01*
X131876190Y-119662295D02*
X131495238Y-119662295D01*
X131495238Y-119662295D02*
X131495238Y-118862295D01*
X132714285Y-119624200D02*
X132828571Y-119662295D01*
X132828571Y-119662295D02*
X133019047Y-119662295D01*
X133019047Y-119662295D02*
X133095238Y-119624200D01*
X133095238Y-119624200D02*
X133133333Y-119586104D01*
X133133333Y-119586104D02*
X133171428Y-119509914D01*
X133171428Y-119509914D02*
X133171428Y-119433723D01*
X133171428Y-119433723D02*
X133133333Y-119357533D01*
X133133333Y-119357533D02*
X133095238Y-119319438D01*
X133095238Y-119319438D02*
X133019047Y-119281342D01*
X133019047Y-119281342D02*
X132866666Y-119243247D01*
X132866666Y-119243247D02*
X132790476Y-119205152D01*
X132790476Y-119205152D02*
X132752381Y-119167057D01*
X132752381Y-119167057D02*
X132714285Y-119090866D01*
X132714285Y-119090866D02*
X132714285Y-119014676D01*
X132714285Y-119014676D02*
X132752381Y-118938485D01*
X132752381Y-118938485D02*
X132790476Y-118900390D01*
X132790476Y-118900390D02*
X132866666Y-118862295D01*
X132866666Y-118862295D02*
X133057143Y-118862295D01*
X133057143Y-118862295D02*
X133171428Y-118900390D01*
X133514286Y-119662295D02*
X133514286Y-118862295D01*
X133514286Y-118862295D02*
X133704762Y-118862295D01*
X133704762Y-118862295D02*
X133819048Y-118900390D01*
X133819048Y-118900390D02*
X133895238Y-118976580D01*
X133895238Y-118976580D02*
X133933333Y-119052771D01*
X133933333Y-119052771D02*
X133971429Y-119205152D01*
X133971429Y-119205152D02*
X133971429Y-119319438D01*
X133971429Y-119319438D02*
X133933333Y-119471819D01*
X133933333Y-119471819D02*
X133895238Y-119548009D01*
X133895238Y-119548009D02*
X133819048Y-119624200D01*
X133819048Y-119624200D02*
X133704762Y-119662295D01*
X133704762Y-119662295D02*
X133514286Y-119662295D01*
X134276190Y-119433723D02*
X134657143Y-119433723D01*
X134200000Y-119662295D02*
X134466667Y-118862295D01*
X134466667Y-118862295D02*
X134733333Y-119662295D01*
X135495238Y-118862295D02*
X135761905Y-119662295D01*
X135761905Y-119662295D02*
X136028571Y-118862295D01*
X136752381Y-119586104D02*
X136714285Y-119624200D01*
X136714285Y-119624200D02*
X136600000Y-119662295D01*
X136600000Y-119662295D02*
X136523809Y-119662295D01*
X136523809Y-119662295D02*
X136409523Y-119624200D01*
X136409523Y-119624200D02*
X136333333Y-119548009D01*
X136333333Y-119548009D02*
X136295238Y-119471819D01*
X136295238Y-119471819D02*
X136257142Y-119319438D01*
X136257142Y-119319438D02*
X136257142Y-119205152D01*
X136257142Y-119205152D02*
X136295238Y-119052771D01*
X136295238Y-119052771D02*
X136333333Y-118976580D01*
X136333333Y-118976580D02*
X136409523Y-118900390D01*
X136409523Y-118900390D02*
X136523809Y-118862295D01*
X136523809Y-118862295D02*
X136600000Y-118862295D01*
X136600000Y-118862295D02*
X136714285Y-118900390D01*
X136714285Y-118900390D02*
X136752381Y-118938485D01*
X137552381Y-119586104D02*
X137514285Y-119624200D01*
X137514285Y-119624200D02*
X137400000Y-119662295D01*
X137400000Y-119662295D02*
X137323809Y-119662295D01*
X137323809Y-119662295D02*
X137209523Y-119624200D01*
X137209523Y-119624200D02*
X137133333Y-119548009D01*
X137133333Y-119548009D02*
X137095238Y-119471819D01*
X137095238Y-119471819D02*
X137057142Y-119319438D01*
X137057142Y-119319438D02*
X137057142Y-119205152D01*
X137057142Y-119205152D02*
X137095238Y-119052771D01*
X137095238Y-119052771D02*
X137133333Y-118976580D01*
X137133333Y-118976580D02*
X137209523Y-118900390D01*
X137209523Y-118900390D02*
X137323809Y-118862295D01*
X137323809Y-118862295D02*
X137400000Y-118862295D01*
X137400000Y-118862295D02*
X137514285Y-118900390D01*
X137514285Y-118900390D02*
X137552381Y-118938485D01*
D10*
X95555257Y-84800000D02*
X96755257Y-84800000D01*
X96755257Y-84800000D02*
X96755257Y-85257143D01*
X96755257Y-85257143D02*
X96698114Y-85371428D01*
X96698114Y-85371428D02*
X96640971Y-85428571D01*
X96640971Y-85428571D02*
X96526685Y-85485714D01*
X96526685Y-85485714D02*
X96355257Y-85485714D01*
X96355257Y-85485714D02*
X96240971Y-85428571D01*
X96240971Y-85428571D02*
X96183828Y-85371428D01*
X96183828Y-85371428D02*
X96126685Y-85257143D01*
X96126685Y-85257143D02*
X96126685Y-84800000D01*
X96755257Y-85885714D02*
X95555257Y-86171428D01*
X95555257Y-86171428D02*
X96412400Y-86400000D01*
X96412400Y-86400000D02*
X95555257Y-86628571D01*
X95555257Y-86628571D02*
X96755257Y-86914286D01*
X95555257Y-88057143D02*
X96126685Y-87657143D01*
X95555257Y-87371429D02*
X96755257Y-87371429D01*
X96755257Y-87371429D02*
X96755257Y-87828572D01*
X96755257Y-87828572D02*
X96698114Y-87942857D01*
X96698114Y-87942857D02*
X96640971Y-88000000D01*
X96640971Y-88000000D02*
X96526685Y-88057143D01*
X96526685Y-88057143D02*
X96355257Y-88057143D01*
X96355257Y-88057143D02*
X96240971Y-88000000D01*
X96240971Y-88000000D02*
X96183828Y-87942857D01*
X96183828Y-87942857D02*
X96126685Y-87828572D01*
X96126685Y-87828572D02*
X96126685Y-87371429D01*
X161995714Y-106294742D02*
X161995714Y-107266171D01*
X161995714Y-107266171D02*
X162052857Y-107380457D01*
X162052857Y-107380457D02*
X162110000Y-107437600D01*
X162110000Y-107437600D02*
X162224285Y-107494742D01*
X162224285Y-107494742D02*
X162452857Y-107494742D01*
X162452857Y-107494742D02*
X162567142Y-107437600D01*
X162567142Y-107437600D02*
X162624285Y-107380457D01*
X162624285Y-107380457D02*
X162681428Y-107266171D01*
X162681428Y-107266171D02*
X162681428Y-106294742D01*
X163195714Y-107151885D02*
X163767143Y-107151885D01*
X163081428Y-107494742D02*
X163481428Y-106294742D01*
X163481428Y-106294742D02*
X163881428Y-107494742D01*
X164967142Y-107494742D02*
X164567142Y-106923314D01*
X164281428Y-107494742D02*
X164281428Y-106294742D01*
X164281428Y-106294742D02*
X164738571Y-106294742D01*
X164738571Y-106294742D02*
X164852856Y-106351885D01*
X164852856Y-106351885D02*
X164909999Y-106409028D01*
X164909999Y-106409028D02*
X164967142Y-106523314D01*
X164967142Y-106523314D02*
X164967142Y-106694742D01*
X164967142Y-106694742D02*
X164909999Y-106809028D01*
X164909999Y-106809028D02*
X164852856Y-106866171D01*
X164852856Y-106866171D02*
X164738571Y-106923314D01*
X164738571Y-106923314D02*
X164281428Y-106923314D01*
X165309999Y-106294742D02*
X165995714Y-106294742D01*
X165652856Y-107494742D02*
X165652856Y-106294742D01*
D11*
X156333332Y-118900390D02*
X156257142Y-118862295D01*
X156257142Y-118862295D02*
X156142856Y-118862295D01*
X156142856Y-118862295D02*
X156028570Y-118900390D01*
X156028570Y-118900390D02*
X155952380Y-118976580D01*
X155952380Y-118976580D02*
X155914285Y-119052771D01*
X155914285Y-119052771D02*
X155876189Y-119205152D01*
X155876189Y-119205152D02*
X155876189Y-119319438D01*
X155876189Y-119319438D02*
X155914285Y-119471819D01*
X155914285Y-119471819D02*
X155952380Y-119548009D01*
X155952380Y-119548009D02*
X156028570Y-119624200D01*
X156028570Y-119624200D02*
X156142856Y-119662295D01*
X156142856Y-119662295D02*
X156219047Y-119662295D01*
X156219047Y-119662295D02*
X156333332Y-119624200D01*
X156333332Y-119624200D02*
X156371428Y-119586104D01*
X156371428Y-119586104D02*
X156371428Y-119319438D01*
X156371428Y-119319438D02*
X156219047Y-119319438D01*
X156714285Y-119662295D02*
X156714285Y-118862295D01*
X156714285Y-118862295D02*
X157171428Y-119662295D01*
X157171428Y-119662295D02*
X157171428Y-118862295D01*
X157552380Y-119662295D02*
X157552380Y-118862295D01*
X157552380Y-118862295D02*
X157742856Y-118862295D01*
X157742856Y-118862295D02*
X157857142Y-118900390D01*
X157857142Y-118900390D02*
X157933332Y-118976580D01*
X157933332Y-118976580D02*
X157971427Y-119052771D01*
X157971427Y-119052771D02*
X158009523Y-119205152D01*
X158009523Y-119205152D02*
X158009523Y-119319438D01*
X158009523Y-119319438D02*
X157971427Y-119471819D01*
X157971427Y-119471819D02*
X157933332Y-119548009D01*
X157933332Y-119548009D02*
X157857142Y-119624200D01*
X157857142Y-119624200D02*
X157742856Y-119662295D01*
X157742856Y-119662295D02*
X157552380Y-119662295D01*
X159685713Y-119205152D02*
X159609523Y-119167057D01*
X159609523Y-119167057D02*
X159571428Y-119128961D01*
X159571428Y-119128961D02*
X159533332Y-119052771D01*
X159533332Y-119052771D02*
X159533332Y-119014676D01*
X159533332Y-119014676D02*
X159571428Y-118938485D01*
X159571428Y-118938485D02*
X159609523Y-118900390D01*
X159609523Y-118900390D02*
X159685713Y-118862295D01*
X159685713Y-118862295D02*
X159838094Y-118862295D01*
X159838094Y-118862295D02*
X159914285Y-118900390D01*
X159914285Y-118900390D02*
X159952380Y-118938485D01*
X159952380Y-118938485D02*
X159990475Y-119014676D01*
X159990475Y-119014676D02*
X159990475Y-119052771D01*
X159990475Y-119052771D02*
X159952380Y-119128961D01*
X159952380Y-119128961D02*
X159914285Y-119167057D01*
X159914285Y-119167057D02*
X159838094Y-119205152D01*
X159838094Y-119205152D02*
X159685713Y-119205152D01*
X159685713Y-119205152D02*
X159609523Y-119243247D01*
X159609523Y-119243247D02*
X159571428Y-119281342D01*
X159571428Y-119281342D02*
X159533332Y-119357533D01*
X159533332Y-119357533D02*
X159533332Y-119509914D01*
X159533332Y-119509914D02*
X159571428Y-119586104D01*
X159571428Y-119586104D02*
X159609523Y-119624200D01*
X159609523Y-119624200D02*
X159685713Y-119662295D01*
X159685713Y-119662295D02*
X159838094Y-119662295D01*
X159838094Y-119662295D02*
X159914285Y-119624200D01*
X159914285Y-119624200D02*
X159952380Y-119586104D01*
X159952380Y-119586104D02*
X159990475Y-119509914D01*
X159990475Y-119509914D02*
X159990475Y-119357533D01*
X159990475Y-119357533D02*
X159952380Y-119281342D01*
X159952380Y-119281342D02*
X159914285Y-119243247D01*
X159914285Y-119243247D02*
X159838094Y-119205152D01*
X162200000Y-119662295D02*
X162352381Y-119662295D01*
X162352381Y-119662295D02*
X162428571Y-119624200D01*
X162428571Y-119624200D02*
X162466667Y-119586104D01*
X162466667Y-119586104D02*
X162542857Y-119471819D01*
X162542857Y-119471819D02*
X162580952Y-119319438D01*
X162580952Y-119319438D02*
X162580952Y-119014676D01*
X162580952Y-119014676D02*
X162542857Y-118938485D01*
X162542857Y-118938485D02*
X162504762Y-118900390D01*
X162504762Y-118900390D02*
X162428571Y-118862295D01*
X162428571Y-118862295D02*
X162276190Y-118862295D01*
X162276190Y-118862295D02*
X162200000Y-118900390D01*
X162200000Y-118900390D02*
X162161905Y-118938485D01*
X162161905Y-118938485D02*
X162123809Y-119014676D01*
X162123809Y-119014676D02*
X162123809Y-119205152D01*
X162123809Y-119205152D02*
X162161905Y-119281342D01*
X162161905Y-119281342D02*
X162200000Y-119319438D01*
X162200000Y-119319438D02*
X162276190Y-119357533D01*
X162276190Y-119357533D02*
X162428571Y-119357533D01*
X162428571Y-119357533D02*
X162504762Y-119319438D01*
X162504762Y-119319438D02*
X162542857Y-119281342D01*
X162542857Y-119281342D02*
X162580952Y-119205152D01*
X164561905Y-119662295D02*
X164104762Y-119662295D01*
X164333334Y-119662295D02*
X164333334Y-118862295D01*
X164333334Y-118862295D02*
X164257143Y-118976580D01*
X164257143Y-118976580D02*
X164180953Y-119052771D01*
X164180953Y-119052771D02*
X164104762Y-119090866D01*
X165057144Y-118862295D02*
X165133334Y-118862295D01*
X165133334Y-118862295D02*
X165209525Y-118900390D01*
X165209525Y-118900390D02*
X165247620Y-118938485D01*
X165247620Y-118938485D02*
X165285715Y-119014676D01*
X165285715Y-119014676D02*
X165323810Y-119167057D01*
X165323810Y-119167057D02*
X165323810Y-119357533D01*
X165323810Y-119357533D02*
X165285715Y-119509914D01*
X165285715Y-119509914D02*
X165247620Y-119586104D01*
X165247620Y-119586104D02*
X165209525Y-119624200D01*
X165209525Y-119624200D02*
X165133334Y-119662295D01*
X165133334Y-119662295D02*
X165057144Y-119662295D01*
X165057144Y-119662295D02*
X164980953Y-119624200D01*
X164980953Y-119624200D02*
X164942858Y-119586104D01*
X164942858Y-119586104D02*
X164904763Y-119509914D01*
X164904763Y-119509914D02*
X164866667Y-119357533D01*
X164866667Y-119357533D02*
X164866667Y-119167057D01*
X164866667Y-119167057D02*
X164904763Y-119014676D01*
X164904763Y-119014676D02*
X164942858Y-118938485D01*
X164942858Y-118938485D02*
X164980953Y-118900390D01*
X164980953Y-118900390D02*
X165057144Y-118862295D01*
D10*
X92128571Y-93144742D02*
X92128571Y-94116171D01*
X92128571Y-94116171D02*
X92185714Y-94230457D01*
X92185714Y-94230457D02*
X92242857Y-94287600D01*
X92242857Y-94287600D02*
X92357142Y-94344742D01*
X92357142Y-94344742D02*
X92585714Y-94344742D01*
X92585714Y-94344742D02*
X92699999Y-94287600D01*
X92699999Y-94287600D02*
X92757142Y-94230457D01*
X92757142Y-94230457D02*
X92814285Y-94116171D01*
X92814285Y-94116171D02*
X92814285Y-93144742D01*
X93328571Y-94287600D02*
X93500000Y-94344742D01*
X93500000Y-94344742D02*
X93785714Y-94344742D01*
X93785714Y-94344742D02*
X93900000Y-94287600D01*
X93900000Y-94287600D02*
X93957142Y-94230457D01*
X93957142Y-94230457D02*
X94014285Y-94116171D01*
X94014285Y-94116171D02*
X94014285Y-94001885D01*
X94014285Y-94001885D02*
X93957142Y-93887600D01*
X93957142Y-93887600D02*
X93900000Y-93830457D01*
X93900000Y-93830457D02*
X93785714Y-93773314D01*
X93785714Y-93773314D02*
X93557142Y-93716171D01*
X93557142Y-93716171D02*
X93442857Y-93659028D01*
X93442857Y-93659028D02*
X93385714Y-93601885D01*
X93385714Y-93601885D02*
X93328571Y-93487600D01*
X93328571Y-93487600D02*
X93328571Y-93373314D01*
X93328571Y-93373314D02*
X93385714Y-93259028D01*
X93385714Y-93259028D02*
X93442857Y-93201885D01*
X93442857Y-93201885D02*
X93557142Y-93144742D01*
X93557142Y-93144742D02*
X93842857Y-93144742D01*
X93842857Y-93144742D02*
X94014285Y-93201885D01*
X94928571Y-93716171D02*
X95099999Y-93773314D01*
X95099999Y-93773314D02*
X95157142Y-93830457D01*
X95157142Y-93830457D02*
X95214285Y-93944742D01*
X95214285Y-93944742D02*
X95214285Y-94116171D01*
X95214285Y-94116171D02*
X95157142Y-94230457D01*
X95157142Y-94230457D02*
X95099999Y-94287600D01*
X95099999Y-94287600D02*
X94985714Y-94344742D01*
X94985714Y-94344742D02*
X94528571Y-94344742D01*
X94528571Y-94344742D02*
X94528571Y-93144742D01*
X94528571Y-93144742D02*
X94928571Y-93144742D01*
X94928571Y-93144742D02*
X95042857Y-93201885D01*
X95042857Y-93201885D02*
X95099999Y-93259028D01*
X95099999Y-93259028D02*
X95157142Y-93373314D01*
X95157142Y-93373314D02*
X95157142Y-93487600D01*
X95157142Y-93487600D02*
X95099999Y-93601885D01*
X95099999Y-93601885D02*
X95042857Y-93659028D01*
X95042857Y-93659028D02*
X94928571Y-93716171D01*
X94928571Y-93716171D02*
X94528571Y-93716171D01*
X97328571Y-94230457D02*
X97271428Y-94287600D01*
X97271428Y-94287600D02*
X97100000Y-94344742D01*
X97100000Y-94344742D02*
X96985714Y-94344742D01*
X96985714Y-94344742D02*
X96814285Y-94287600D01*
X96814285Y-94287600D02*
X96700000Y-94173314D01*
X96700000Y-94173314D02*
X96642857Y-94059028D01*
X96642857Y-94059028D02*
X96585714Y-93830457D01*
X96585714Y-93830457D02*
X96585714Y-93659028D01*
X96585714Y-93659028D02*
X96642857Y-93430457D01*
X96642857Y-93430457D02*
X96700000Y-93316171D01*
X96700000Y-93316171D02*
X96814285Y-93201885D01*
X96814285Y-93201885D02*
X96985714Y-93144742D01*
X96985714Y-93144742D02*
X97100000Y-93144742D01*
X97100000Y-93144742D02*
X97271428Y-93201885D01*
X97271428Y-93201885D02*
X97328571Y-93259028D01*
D11*
X159144284Y-111350390D02*
X159068094Y-111312295D01*
X159068094Y-111312295D02*
X158953808Y-111312295D01*
X158953808Y-111312295D02*
X158839522Y-111350390D01*
X158839522Y-111350390D02*
X158763332Y-111426580D01*
X158763332Y-111426580D02*
X158725237Y-111502771D01*
X158725237Y-111502771D02*
X158687141Y-111655152D01*
X158687141Y-111655152D02*
X158687141Y-111769438D01*
X158687141Y-111769438D02*
X158725237Y-111921819D01*
X158725237Y-111921819D02*
X158763332Y-111998009D01*
X158763332Y-111998009D02*
X158839522Y-112074200D01*
X158839522Y-112074200D02*
X158953808Y-112112295D01*
X158953808Y-112112295D02*
X159029999Y-112112295D01*
X159029999Y-112112295D02*
X159144284Y-112074200D01*
X159144284Y-112074200D02*
X159182380Y-112036104D01*
X159182380Y-112036104D02*
X159182380Y-111769438D01*
X159182380Y-111769438D02*
X159029999Y-111769438D01*
X159525237Y-112112295D02*
X159525237Y-111312295D01*
X159525237Y-111312295D02*
X159982380Y-112112295D01*
X159982380Y-112112295D02*
X159982380Y-111312295D01*
X160363332Y-112112295D02*
X160363332Y-111312295D01*
X160363332Y-111312295D02*
X160553808Y-111312295D01*
X160553808Y-111312295D02*
X160668094Y-111350390D01*
X160668094Y-111350390D02*
X160744284Y-111426580D01*
X160744284Y-111426580D02*
X160782379Y-111502771D01*
X160782379Y-111502771D02*
X160820475Y-111655152D01*
X160820475Y-111655152D02*
X160820475Y-111769438D01*
X160820475Y-111769438D02*
X160782379Y-111921819D01*
X160782379Y-111921819D02*
X160744284Y-111998009D01*
X160744284Y-111998009D02*
X160668094Y-112074200D01*
X160668094Y-112074200D02*
X160553808Y-112112295D01*
X160553808Y-112112295D02*
X160363332Y-112112295D01*
X161658570Y-111312295D02*
X162115713Y-111312295D01*
X161887141Y-112112295D02*
X161887141Y-111312295D01*
X162306189Y-111312295D02*
X162839523Y-112112295D01*
X162839523Y-111312295D02*
X162306189Y-112112295D01*
X164820476Y-112112295D02*
X164553809Y-111731342D01*
X164363333Y-112112295D02*
X164363333Y-111312295D01*
X164363333Y-111312295D02*
X164668095Y-111312295D01*
X164668095Y-111312295D02*
X164744285Y-111350390D01*
X164744285Y-111350390D02*
X164782380Y-111388485D01*
X164782380Y-111388485D02*
X164820476Y-111464676D01*
X164820476Y-111464676D02*
X164820476Y-111578961D01*
X164820476Y-111578961D02*
X164782380Y-111655152D01*
X164782380Y-111655152D02*
X164744285Y-111693247D01*
X164744285Y-111693247D02*
X164668095Y-111731342D01*
X164668095Y-111731342D02*
X164363333Y-111731342D01*
X165087142Y-111312295D02*
X165620476Y-112112295D01*
X165620476Y-111312295D02*
X165087142Y-112112295D01*
X167601429Y-112112295D02*
X167334762Y-111731342D01*
X167144286Y-112112295D02*
X167144286Y-111312295D01*
X167144286Y-111312295D02*
X167449048Y-111312295D01*
X167449048Y-111312295D02*
X167525238Y-111350390D01*
X167525238Y-111350390D02*
X167563333Y-111388485D01*
X167563333Y-111388485D02*
X167601429Y-111464676D01*
X167601429Y-111464676D02*
X167601429Y-111578961D01*
X167601429Y-111578961D02*
X167563333Y-111655152D01*
X167563333Y-111655152D02*
X167525238Y-111693247D01*
X167525238Y-111693247D02*
X167449048Y-111731342D01*
X167449048Y-111731342D02*
X167144286Y-111731342D01*
X167906190Y-112074200D02*
X168020476Y-112112295D01*
X168020476Y-112112295D02*
X168210952Y-112112295D01*
X168210952Y-112112295D02*
X168287143Y-112074200D01*
X168287143Y-112074200D02*
X168325238Y-112036104D01*
X168325238Y-112036104D02*
X168363333Y-111959914D01*
X168363333Y-111959914D02*
X168363333Y-111883723D01*
X168363333Y-111883723D02*
X168325238Y-111807533D01*
X168325238Y-111807533D02*
X168287143Y-111769438D01*
X168287143Y-111769438D02*
X168210952Y-111731342D01*
X168210952Y-111731342D02*
X168058571Y-111693247D01*
X168058571Y-111693247D02*
X167982381Y-111655152D01*
X167982381Y-111655152D02*
X167944286Y-111617057D01*
X167944286Y-111617057D02*
X167906190Y-111540866D01*
X167906190Y-111540866D02*
X167906190Y-111464676D01*
X167906190Y-111464676D02*
X167944286Y-111388485D01*
X167944286Y-111388485D02*
X167982381Y-111350390D01*
X167982381Y-111350390D02*
X168058571Y-111312295D01*
X168058571Y-111312295D02*
X168249048Y-111312295D01*
X168249048Y-111312295D02*
X168363333Y-111350390D01*
X168591905Y-111312295D02*
X169049048Y-111312295D01*
X168820476Y-112112295D02*
X168820476Y-111312295D01*
D10*
X100500000Y-71644742D02*
X100500000Y-70444742D01*
X100500000Y-70444742D02*
X100957143Y-70444742D01*
X100957143Y-70444742D02*
X101071428Y-70501885D01*
X101071428Y-70501885D02*
X101128571Y-70559028D01*
X101128571Y-70559028D02*
X101185714Y-70673314D01*
X101185714Y-70673314D02*
X101185714Y-70844742D01*
X101185714Y-70844742D02*
X101128571Y-70959028D01*
X101128571Y-70959028D02*
X101071428Y-71016171D01*
X101071428Y-71016171D02*
X100957143Y-71073314D01*
X100957143Y-71073314D02*
X100500000Y-71073314D01*
X101585714Y-70444742D02*
X101871428Y-71644742D01*
X101871428Y-71644742D02*
X102100000Y-70787600D01*
X102100000Y-70787600D02*
X102328571Y-71644742D01*
X102328571Y-71644742D02*
X102614286Y-70444742D01*
X103757143Y-71644742D02*
X103357143Y-71073314D01*
X103071429Y-71644742D02*
X103071429Y-70444742D01*
X103071429Y-70444742D02*
X103528572Y-70444742D01*
X103528572Y-70444742D02*
X103642857Y-70501885D01*
X103642857Y-70501885D02*
X103700000Y-70559028D01*
X103700000Y-70559028D02*
X103757143Y-70673314D01*
X103757143Y-70673314D02*
X103757143Y-70844742D01*
X103757143Y-70844742D02*
X103700000Y-70959028D01*
X103700000Y-70959028D02*
X103642857Y-71016171D01*
X103642857Y-71016171D02*
X103528572Y-71073314D01*
X103528572Y-71073314D02*
X103071429Y-71073314D01*
D11*
X141085714Y-119257533D02*
X141695238Y-119257533D01*
X143904762Y-119257533D02*
X144514286Y-119257533D01*
X144209524Y-119562295D02*
X144209524Y-118952771D01*
X178500390Y-107666665D02*
X178462295Y-107733332D01*
X178462295Y-107733332D02*
X178462295Y-107833332D01*
X178462295Y-107833332D02*
X178500390Y-107933332D01*
X178500390Y-107933332D02*
X178576580Y-107999999D01*
X178576580Y-107999999D02*
X178652771Y-108033332D01*
X178652771Y-108033332D02*
X178805152Y-108066665D01*
X178805152Y-108066665D02*
X178919438Y-108066665D01*
X178919438Y-108066665D02*
X179071819Y-108033332D01*
X179071819Y-108033332D02*
X179148009Y-107999999D01*
X179148009Y-107999999D02*
X179224200Y-107933332D01*
X179224200Y-107933332D02*
X179262295Y-107833332D01*
X179262295Y-107833332D02*
X179262295Y-107766665D01*
X179262295Y-107766665D02*
X179224200Y-107666665D01*
X179224200Y-107666665D02*
X179186104Y-107633332D01*
X179186104Y-107633332D02*
X178919438Y-107633332D01*
X178919438Y-107633332D02*
X178919438Y-107766665D01*
X179262295Y-107333332D02*
X178462295Y-107333332D01*
X178462295Y-107333332D02*
X179262295Y-106933332D01*
X179262295Y-106933332D02*
X178462295Y-106933332D01*
X179262295Y-106599999D02*
X178462295Y-106599999D01*
X178462295Y-106599999D02*
X178462295Y-106433332D01*
X178462295Y-106433332D02*
X178500390Y-106333332D01*
X178500390Y-106333332D02*
X178576580Y-106266666D01*
X178576580Y-106266666D02*
X178652771Y-106233332D01*
X178652771Y-106233332D02*
X178805152Y-106199999D01*
X178805152Y-106199999D02*
X178919438Y-106199999D01*
X178919438Y-106199999D02*
X179071819Y-106233332D01*
X179071819Y-106233332D02*
X179148009Y-106266666D01*
X179148009Y-106266666D02*
X179224200Y-106333332D01*
X179224200Y-106333332D02*
X179262295Y-106433332D01*
X179262295Y-106433332D02*
X179262295Y-106599999D01*
X179262295Y-105366666D02*
X178462295Y-105366666D01*
X178462295Y-105366666D02*
X179033723Y-105133333D01*
X179033723Y-105133333D02*
X178462295Y-104899999D01*
X178462295Y-104899999D02*
X179262295Y-104899999D01*
X178462295Y-104433333D02*
X178462295Y-104299999D01*
X178462295Y-104299999D02*
X178500390Y-104233333D01*
X178500390Y-104233333D02*
X178576580Y-104166666D01*
X178576580Y-104166666D02*
X178728961Y-104133333D01*
X178728961Y-104133333D02*
X178995628Y-104133333D01*
X178995628Y-104133333D02*
X179148009Y-104166666D01*
X179148009Y-104166666D02*
X179224200Y-104233333D01*
X179224200Y-104233333D02*
X179262295Y-104299999D01*
X179262295Y-104299999D02*
X179262295Y-104433333D01*
X179262295Y-104433333D02*
X179224200Y-104499999D01*
X179224200Y-104499999D02*
X179148009Y-104566666D01*
X179148009Y-104566666D02*
X178995628Y-104599999D01*
X178995628Y-104599999D02*
X178728961Y-104599999D01*
X178728961Y-104599999D02*
X178576580Y-104566666D01*
X178576580Y-104566666D02*
X178500390Y-104499999D01*
X178500390Y-104499999D02*
X178462295Y-104433333D01*
X179224200Y-103866666D02*
X179262295Y-103766666D01*
X179262295Y-103766666D02*
X179262295Y-103600000D01*
X179262295Y-103600000D02*
X179224200Y-103533333D01*
X179224200Y-103533333D02*
X179186104Y-103500000D01*
X179186104Y-103500000D02*
X179109914Y-103466666D01*
X179109914Y-103466666D02*
X179033723Y-103466666D01*
X179033723Y-103466666D02*
X178957533Y-103500000D01*
X178957533Y-103500000D02*
X178919438Y-103533333D01*
X178919438Y-103533333D02*
X178881342Y-103600000D01*
X178881342Y-103600000D02*
X178843247Y-103733333D01*
X178843247Y-103733333D02*
X178805152Y-103800000D01*
X178805152Y-103800000D02*
X178767057Y-103833333D01*
X178767057Y-103833333D02*
X178690866Y-103866666D01*
X178690866Y-103866666D02*
X178614676Y-103866666D01*
X178614676Y-103866666D02*
X178538485Y-103833333D01*
X178538485Y-103833333D02*
X178500390Y-103800000D01*
X178500390Y-103800000D02*
X178462295Y-103733333D01*
X178462295Y-103733333D02*
X178462295Y-103566666D01*
X178462295Y-103566666D02*
X178500390Y-103466666D01*
X179262295Y-103166666D02*
X178462295Y-103166666D01*
X179262295Y-102300000D02*
X178462295Y-102300000D01*
X178462295Y-102300000D02*
X179033723Y-102066667D01*
X179033723Y-102066667D02*
X178462295Y-101833333D01*
X178462295Y-101833333D02*
X179262295Y-101833333D01*
X179262295Y-101500000D02*
X178462295Y-101500000D01*
X179224200Y-101200000D02*
X179262295Y-101100000D01*
X179262295Y-101100000D02*
X179262295Y-100933334D01*
X179262295Y-100933334D02*
X179224200Y-100866667D01*
X179224200Y-100866667D02*
X179186104Y-100833334D01*
X179186104Y-100833334D02*
X179109914Y-100800000D01*
X179109914Y-100800000D02*
X179033723Y-100800000D01*
X179033723Y-100800000D02*
X178957533Y-100833334D01*
X178957533Y-100833334D02*
X178919438Y-100866667D01*
X178919438Y-100866667D02*
X178881342Y-100933334D01*
X178881342Y-100933334D02*
X178843247Y-101066667D01*
X178843247Y-101066667D02*
X178805152Y-101133334D01*
X178805152Y-101133334D02*
X178767057Y-101166667D01*
X178767057Y-101166667D02*
X178690866Y-101200000D01*
X178690866Y-101200000D02*
X178614676Y-101200000D01*
X178614676Y-101200000D02*
X178538485Y-101166667D01*
X178538485Y-101166667D02*
X178500390Y-101133334D01*
X178500390Y-101133334D02*
X178462295Y-101066667D01*
X178462295Y-101066667D02*
X178462295Y-100900000D01*
X178462295Y-100900000D02*
X178500390Y-100800000D01*
X178462295Y-100366667D02*
X178462295Y-100233333D01*
X178462295Y-100233333D02*
X178500390Y-100166667D01*
X178500390Y-100166667D02*
X178576580Y-100100000D01*
X178576580Y-100100000D02*
X178728961Y-100066667D01*
X178728961Y-100066667D02*
X178995628Y-100066667D01*
X178995628Y-100066667D02*
X179148009Y-100100000D01*
X179148009Y-100100000D02*
X179224200Y-100166667D01*
X179224200Y-100166667D02*
X179262295Y-100233333D01*
X179262295Y-100233333D02*
X179262295Y-100366667D01*
X179262295Y-100366667D02*
X179224200Y-100433333D01*
X179224200Y-100433333D02*
X179148009Y-100500000D01*
X179148009Y-100500000D02*
X178995628Y-100533333D01*
X178995628Y-100533333D02*
X178728961Y-100533333D01*
X178728961Y-100533333D02*
X178576580Y-100500000D01*
X178576580Y-100500000D02*
X178500390Y-100433333D01*
X178500390Y-100433333D02*
X178462295Y-100366667D01*
X179224200Y-99266667D02*
X179262295Y-99166667D01*
X179262295Y-99166667D02*
X179262295Y-99000001D01*
X179262295Y-99000001D02*
X179224200Y-98933334D01*
X179224200Y-98933334D02*
X179186104Y-98900001D01*
X179186104Y-98900001D02*
X179109914Y-98866667D01*
X179109914Y-98866667D02*
X179033723Y-98866667D01*
X179033723Y-98866667D02*
X178957533Y-98900001D01*
X178957533Y-98900001D02*
X178919438Y-98933334D01*
X178919438Y-98933334D02*
X178881342Y-99000001D01*
X178881342Y-99000001D02*
X178843247Y-99133334D01*
X178843247Y-99133334D02*
X178805152Y-99200001D01*
X178805152Y-99200001D02*
X178767057Y-99233334D01*
X178767057Y-99233334D02*
X178690866Y-99266667D01*
X178690866Y-99266667D02*
X178614676Y-99266667D01*
X178614676Y-99266667D02*
X178538485Y-99233334D01*
X178538485Y-99233334D02*
X178500390Y-99200001D01*
X178500390Y-99200001D02*
X178462295Y-99133334D01*
X178462295Y-99133334D02*
X178462295Y-98966667D01*
X178462295Y-98966667D02*
X178500390Y-98866667D01*
X179186104Y-98166667D02*
X179224200Y-98200000D01*
X179224200Y-98200000D02*
X179262295Y-98300000D01*
X179262295Y-98300000D02*
X179262295Y-98366667D01*
X179262295Y-98366667D02*
X179224200Y-98466667D01*
X179224200Y-98466667D02*
X179148009Y-98533334D01*
X179148009Y-98533334D02*
X179071819Y-98566667D01*
X179071819Y-98566667D02*
X178919438Y-98600000D01*
X178919438Y-98600000D02*
X178805152Y-98600000D01*
X178805152Y-98600000D02*
X178652771Y-98566667D01*
X178652771Y-98566667D02*
X178576580Y-98533334D01*
X178576580Y-98533334D02*
X178500390Y-98466667D01*
X178500390Y-98466667D02*
X178462295Y-98366667D01*
X178462295Y-98366667D02*
X178462295Y-98300000D01*
X178462295Y-98300000D02*
X178500390Y-98200000D01*
X178500390Y-98200000D02*
X178538485Y-98166667D01*
X179262295Y-97533334D02*
X179262295Y-97866667D01*
X179262295Y-97866667D02*
X178462295Y-97866667D01*
X179262295Y-97300000D02*
X178462295Y-97300000D01*
X179262295Y-96900000D02*
X178805152Y-97200000D01*
X178462295Y-96900000D02*
X178919438Y-97300000D01*
X179262295Y-95666667D02*
X178881342Y-95900000D01*
X179262295Y-96066667D02*
X178462295Y-96066667D01*
X178462295Y-96066667D02*
X178462295Y-95800000D01*
X178462295Y-95800000D02*
X178500390Y-95733334D01*
X178500390Y-95733334D02*
X178538485Y-95700000D01*
X178538485Y-95700000D02*
X178614676Y-95666667D01*
X178614676Y-95666667D02*
X178728961Y-95666667D01*
X178728961Y-95666667D02*
X178805152Y-95700000D01*
X178805152Y-95700000D02*
X178843247Y-95733334D01*
X178843247Y-95733334D02*
X178881342Y-95800000D01*
X178881342Y-95800000D02*
X178881342Y-96066667D01*
X179224200Y-95400000D02*
X179262295Y-95300000D01*
X179262295Y-95300000D02*
X179262295Y-95133334D01*
X179262295Y-95133334D02*
X179224200Y-95066667D01*
X179224200Y-95066667D02*
X179186104Y-95033334D01*
X179186104Y-95033334D02*
X179109914Y-95000000D01*
X179109914Y-95000000D02*
X179033723Y-95000000D01*
X179033723Y-95000000D02*
X178957533Y-95033334D01*
X178957533Y-95033334D02*
X178919438Y-95066667D01*
X178919438Y-95066667D02*
X178881342Y-95133334D01*
X178881342Y-95133334D02*
X178843247Y-95266667D01*
X178843247Y-95266667D02*
X178805152Y-95333334D01*
X178805152Y-95333334D02*
X178767057Y-95366667D01*
X178767057Y-95366667D02*
X178690866Y-95400000D01*
X178690866Y-95400000D02*
X178614676Y-95400000D01*
X178614676Y-95400000D02*
X178538485Y-95366667D01*
X178538485Y-95366667D02*
X178500390Y-95333334D01*
X178500390Y-95333334D02*
X178462295Y-95266667D01*
X178462295Y-95266667D02*
X178462295Y-95100000D01*
X178462295Y-95100000D02*
X178500390Y-95000000D01*
X178462295Y-94800000D02*
X178462295Y-94400000D01*
X179262295Y-94600000D02*
X178462295Y-94600000D01*
X178462295Y-93733334D02*
X179262295Y-93500001D01*
X179262295Y-93500001D02*
X178462295Y-93266667D01*
X179186104Y-92633334D02*
X179224200Y-92666667D01*
X179224200Y-92666667D02*
X179262295Y-92766667D01*
X179262295Y-92766667D02*
X179262295Y-92833334D01*
X179262295Y-92833334D02*
X179224200Y-92933334D01*
X179224200Y-92933334D02*
X179148009Y-93000001D01*
X179148009Y-93000001D02*
X179071819Y-93033334D01*
X179071819Y-93033334D02*
X178919438Y-93066667D01*
X178919438Y-93066667D02*
X178805152Y-93066667D01*
X178805152Y-93066667D02*
X178652771Y-93033334D01*
X178652771Y-93033334D02*
X178576580Y-93000001D01*
X178576580Y-93000001D02*
X178500390Y-92933334D01*
X178500390Y-92933334D02*
X178462295Y-92833334D01*
X178462295Y-92833334D02*
X178462295Y-92766667D01*
X178462295Y-92766667D02*
X178500390Y-92666667D01*
X178500390Y-92666667D02*
X178538485Y-92633334D01*
X179186104Y-91933334D02*
X179224200Y-91966667D01*
X179224200Y-91966667D02*
X179262295Y-92066667D01*
X179262295Y-92066667D02*
X179262295Y-92133334D01*
X179262295Y-92133334D02*
X179224200Y-92233334D01*
X179224200Y-92233334D02*
X179148009Y-92300001D01*
X179148009Y-92300001D02*
X179071819Y-92333334D01*
X179071819Y-92333334D02*
X178919438Y-92366667D01*
X178919438Y-92366667D02*
X178805152Y-92366667D01*
X178805152Y-92366667D02*
X178652771Y-92333334D01*
X178652771Y-92333334D02*
X178576580Y-92300001D01*
X178576580Y-92300001D02*
X178500390Y-92233334D01*
X178500390Y-92233334D02*
X178462295Y-92133334D01*
X178462295Y-92133334D02*
X178462295Y-92066667D01*
X178462295Y-92066667D02*
X178500390Y-91966667D01*
X178500390Y-91966667D02*
X178538485Y-91933334D01*
D10*
X115342857Y-114316171D02*
X115742857Y-114316171D01*
X115914285Y-114944742D02*
X115342857Y-114944742D01*
X115342857Y-114944742D02*
X115342857Y-113744742D01*
X115342857Y-113744742D02*
X115914285Y-113744742D01*
X116428571Y-114944742D02*
X116428571Y-113744742D01*
X116428571Y-113744742D02*
X117114285Y-114944742D01*
X117114285Y-114944742D02*
X117114285Y-113744742D01*
X118371428Y-114830457D02*
X118314285Y-114887600D01*
X118314285Y-114887600D02*
X118142857Y-114944742D01*
X118142857Y-114944742D02*
X118028571Y-114944742D01*
X118028571Y-114944742D02*
X117857142Y-114887600D01*
X117857142Y-114887600D02*
X117742857Y-114773314D01*
X117742857Y-114773314D02*
X117685714Y-114659028D01*
X117685714Y-114659028D02*
X117628571Y-114430457D01*
X117628571Y-114430457D02*
X117628571Y-114259028D01*
X117628571Y-114259028D02*
X117685714Y-114030457D01*
X117685714Y-114030457D02*
X117742857Y-113916171D01*
X117742857Y-113916171D02*
X117857142Y-113801885D01*
X117857142Y-113801885D02*
X118028571Y-113744742D01*
X118028571Y-113744742D02*
X118142857Y-113744742D01*
X118142857Y-113744742D02*
X118314285Y-113801885D01*
X118314285Y-113801885D02*
X118371428Y-113859028D01*
X119114285Y-113744742D02*
X119342857Y-113744742D01*
X119342857Y-113744742D02*
X119457142Y-113801885D01*
X119457142Y-113801885D02*
X119571428Y-113916171D01*
X119571428Y-113916171D02*
X119628571Y-114144742D01*
X119628571Y-114144742D02*
X119628571Y-114544742D01*
X119628571Y-114544742D02*
X119571428Y-114773314D01*
X119571428Y-114773314D02*
X119457142Y-114887600D01*
X119457142Y-114887600D02*
X119342857Y-114944742D01*
X119342857Y-114944742D02*
X119114285Y-114944742D01*
X119114285Y-114944742D02*
X119000000Y-114887600D01*
X119000000Y-114887600D02*
X118885714Y-114773314D01*
X118885714Y-114773314D02*
X118828571Y-114544742D01*
X118828571Y-114544742D02*
X118828571Y-114144742D01*
X118828571Y-114144742D02*
X118885714Y-113916171D01*
X118885714Y-113916171D02*
X119000000Y-113801885D01*
X119000000Y-113801885D02*
X119114285Y-113744742D01*
X120142857Y-114944742D02*
X120142857Y-113744742D01*
X120142857Y-113744742D02*
X120428571Y-113744742D01*
X120428571Y-113744742D02*
X120600000Y-113801885D01*
X120600000Y-113801885D02*
X120714285Y-113916171D01*
X120714285Y-113916171D02*
X120771428Y-114030457D01*
X120771428Y-114030457D02*
X120828571Y-114259028D01*
X120828571Y-114259028D02*
X120828571Y-114430457D01*
X120828571Y-114430457D02*
X120771428Y-114659028D01*
X120771428Y-114659028D02*
X120714285Y-114773314D01*
X120714285Y-114773314D02*
X120600000Y-114887600D01*
X120600000Y-114887600D02*
X120428571Y-114944742D01*
X120428571Y-114944742D02*
X120142857Y-114944742D01*
X121342857Y-114316171D02*
X121742857Y-114316171D01*
X121914285Y-114944742D02*
X121342857Y-114944742D01*
X121342857Y-114944742D02*
X121342857Y-113744742D01*
X121342857Y-113744742D02*
X121914285Y-113744742D01*
X123114285Y-114944742D02*
X122714285Y-114373314D01*
X122428571Y-114944742D02*
X122428571Y-113744742D01*
X122428571Y-113744742D02*
X122885714Y-113744742D01*
X122885714Y-113744742D02*
X122999999Y-113801885D01*
X122999999Y-113801885D02*
X123057142Y-113859028D01*
X123057142Y-113859028D02*
X123114285Y-113973314D01*
X123114285Y-113973314D02*
X123114285Y-114144742D01*
X123114285Y-114144742D02*
X123057142Y-114259028D01*
X123057142Y-114259028D02*
X122999999Y-114316171D01*
X122999999Y-114316171D02*
X122885714Y-114373314D01*
X122885714Y-114373314D02*
X122428571Y-114373314D01*
X161695714Y-83914742D02*
X162095714Y-85114742D01*
X162095714Y-85114742D02*
X162495714Y-83914742D01*
X163752857Y-85057600D02*
X163924286Y-85114742D01*
X163924286Y-85114742D02*
X164210000Y-85114742D01*
X164210000Y-85114742D02*
X164324286Y-85057600D01*
X164324286Y-85057600D02*
X164381428Y-85000457D01*
X164381428Y-85000457D02*
X164438571Y-84886171D01*
X164438571Y-84886171D02*
X164438571Y-84771885D01*
X164438571Y-84771885D02*
X164381428Y-84657600D01*
X164381428Y-84657600D02*
X164324286Y-84600457D01*
X164324286Y-84600457D02*
X164210000Y-84543314D01*
X164210000Y-84543314D02*
X163981428Y-84486171D01*
X163981428Y-84486171D02*
X163867143Y-84429028D01*
X163867143Y-84429028D02*
X163810000Y-84371885D01*
X163810000Y-84371885D02*
X163752857Y-84257600D01*
X163752857Y-84257600D02*
X163752857Y-84143314D01*
X163752857Y-84143314D02*
X163810000Y-84029028D01*
X163810000Y-84029028D02*
X163867143Y-83971885D01*
X163867143Y-83971885D02*
X163981428Y-83914742D01*
X163981428Y-83914742D02*
X164267143Y-83914742D01*
X164267143Y-83914742D02*
X164438571Y-83971885D01*
X164952857Y-84486171D02*
X165352857Y-84486171D01*
X165524285Y-85114742D02*
X164952857Y-85114742D01*
X164952857Y-85114742D02*
X164952857Y-83914742D01*
X164952857Y-83914742D02*
X165524285Y-83914742D01*
X166038571Y-85114742D02*
X166038571Y-83914742D01*
X166038571Y-83914742D02*
X166724285Y-85114742D01*
X166724285Y-85114742D02*
X166724285Y-83914742D01*
X167238571Y-85057600D02*
X167410000Y-85114742D01*
X167410000Y-85114742D02*
X167695714Y-85114742D01*
X167695714Y-85114742D02*
X167810000Y-85057600D01*
X167810000Y-85057600D02*
X167867142Y-85000457D01*
X167867142Y-85000457D02*
X167924285Y-84886171D01*
X167924285Y-84886171D02*
X167924285Y-84771885D01*
X167924285Y-84771885D02*
X167867142Y-84657600D01*
X167867142Y-84657600D02*
X167810000Y-84600457D01*
X167810000Y-84600457D02*
X167695714Y-84543314D01*
X167695714Y-84543314D02*
X167467142Y-84486171D01*
X167467142Y-84486171D02*
X167352857Y-84429028D01*
X167352857Y-84429028D02*
X167295714Y-84371885D01*
X167295714Y-84371885D02*
X167238571Y-84257600D01*
X167238571Y-84257600D02*
X167238571Y-84143314D01*
X167238571Y-84143314D02*
X167295714Y-84029028D01*
X167295714Y-84029028D02*
X167352857Y-83971885D01*
X167352857Y-83971885D02*
X167467142Y-83914742D01*
X167467142Y-83914742D02*
X167752857Y-83914742D01*
X167752857Y-83914742D02*
X167924285Y-83971885D01*
X168438571Y-84486171D02*
X168838571Y-84486171D01*
X169009999Y-85114742D02*
X168438571Y-85114742D01*
X168438571Y-85114742D02*
X168438571Y-83914742D01*
X168438571Y-83914742D02*
X169009999Y-83914742D01*
X148019047Y-114804600D02*
X148161904Y-114852219D01*
X148161904Y-114852219D02*
X148399999Y-114852219D01*
X148399999Y-114852219D02*
X148495237Y-114804600D01*
X148495237Y-114804600D02*
X148542856Y-114756980D01*
X148542856Y-114756980D02*
X148590475Y-114661742D01*
X148590475Y-114661742D02*
X148590475Y-114566504D01*
X148590475Y-114566504D02*
X148542856Y-114471266D01*
X148542856Y-114471266D02*
X148495237Y-114423647D01*
X148495237Y-114423647D02*
X148399999Y-114376028D01*
X148399999Y-114376028D02*
X148209523Y-114328409D01*
X148209523Y-114328409D02*
X148114285Y-114280790D01*
X148114285Y-114280790D02*
X148066666Y-114233171D01*
X148066666Y-114233171D02*
X148019047Y-114137933D01*
X148019047Y-114137933D02*
X148019047Y-114042695D01*
X148019047Y-114042695D02*
X148066666Y-113947457D01*
X148066666Y-113947457D02*
X148114285Y-113899838D01*
X148114285Y-113899838D02*
X148209523Y-113852219D01*
X148209523Y-113852219D02*
X148447618Y-113852219D01*
X148447618Y-113852219D02*
X148590475Y-113899838D01*
X148876190Y-113852219D02*
X149447618Y-113852219D01*
X149161904Y-114852219D02*
X149161904Y-113852219D01*
X149733333Y-114804600D02*
X149876190Y-114852219D01*
X149876190Y-114852219D02*
X150114285Y-114852219D01*
X150114285Y-114852219D02*
X150209523Y-114804600D01*
X150209523Y-114804600D02*
X150257142Y-114756980D01*
X150257142Y-114756980D02*
X150304761Y-114661742D01*
X150304761Y-114661742D02*
X150304761Y-114566504D01*
X150304761Y-114566504D02*
X150257142Y-114471266D01*
X150257142Y-114471266D02*
X150209523Y-114423647D01*
X150209523Y-114423647D02*
X150114285Y-114376028D01*
X150114285Y-114376028D02*
X149923809Y-114328409D01*
X149923809Y-114328409D02*
X149828571Y-114280790D01*
X149828571Y-114280790D02*
X149780952Y-114233171D01*
X149780952Y-114233171D02*
X149733333Y-114137933D01*
X149733333Y-114137933D02*
X149733333Y-114042695D01*
X149733333Y-114042695D02*
X149780952Y-113947457D01*
X149780952Y-113947457D02*
X149828571Y-113899838D01*
X149828571Y-113899838D02*
X149923809Y-113852219D01*
X149923809Y-113852219D02*
X150161904Y-113852219D01*
X150161904Y-113852219D02*
X150304761Y-113899838D01*
X151971428Y-114852219D02*
X151495238Y-114852219D01*
X151495238Y-114852219D02*
X151495238Y-113852219D01*
X152304762Y-114328409D02*
X152638095Y-114328409D01*
X152780952Y-114852219D02*
X152304762Y-114852219D01*
X152304762Y-114852219D02*
X152304762Y-113852219D01*
X152304762Y-113852219D02*
X152780952Y-113852219D01*
X153209524Y-114852219D02*
X153209524Y-113852219D01*
X153209524Y-113852219D02*
X153447619Y-113852219D01*
X153447619Y-113852219D02*
X153590476Y-113899838D01*
X153590476Y-113899838D02*
X153685714Y-113995076D01*
X153685714Y-113995076D02*
X153733333Y-114090314D01*
X153733333Y-114090314D02*
X153780952Y-114280790D01*
X153780952Y-114280790D02*
X153780952Y-114423647D01*
X153780952Y-114423647D02*
X153733333Y-114614123D01*
X153733333Y-114614123D02*
X153685714Y-114709361D01*
X153685714Y-114709361D02*
X153590476Y-114804600D01*
X153590476Y-114804600D02*
X153447619Y-114852219D01*
X153447619Y-114852219D02*
X153209524Y-114852219D01*
X159100000Y-114944742D02*
X159100000Y-113744742D01*
X159100000Y-113744742D02*
X159557143Y-113744742D01*
X159557143Y-113744742D02*
X159671428Y-113801885D01*
X159671428Y-113801885D02*
X159728571Y-113859028D01*
X159728571Y-113859028D02*
X159785714Y-113973314D01*
X159785714Y-113973314D02*
X159785714Y-114144742D01*
X159785714Y-114144742D02*
X159728571Y-114259028D01*
X159728571Y-114259028D02*
X159671428Y-114316171D01*
X159671428Y-114316171D02*
X159557143Y-114373314D01*
X159557143Y-114373314D02*
X159100000Y-114373314D01*
X160300000Y-114944742D02*
X160300000Y-113744742D01*
X160871429Y-114944742D02*
X160871429Y-113744742D01*
X160871429Y-113744742D02*
X161557143Y-114944742D01*
X161557143Y-114944742D02*
X161557143Y-113744742D01*
X162071429Y-114887600D02*
X162242858Y-114944742D01*
X162242858Y-114944742D02*
X162528572Y-114944742D01*
X162528572Y-114944742D02*
X162642858Y-114887600D01*
X162642858Y-114887600D02*
X162700000Y-114830457D01*
X162700000Y-114830457D02*
X162757143Y-114716171D01*
X162757143Y-114716171D02*
X162757143Y-114601885D01*
X162757143Y-114601885D02*
X162700000Y-114487600D01*
X162700000Y-114487600D02*
X162642858Y-114430457D01*
X162642858Y-114430457D02*
X162528572Y-114373314D01*
X162528572Y-114373314D02*
X162300000Y-114316171D01*
X162300000Y-114316171D02*
X162185715Y-114259028D01*
X162185715Y-114259028D02*
X162128572Y-114201885D01*
X162128572Y-114201885D02*
X162071429Y-114087600D01*
X162071429Y-114087600D02*
X162071429Y-113973314D01*
X162071429Y-113973314D02*
X162128572Y-113859028D01*
X162128572Y-113859028D02*
X162185715Y-113801885D01*
X162185715Y-113801885D02*
X162300000Y-113744742D01*
X162300000Y-113744742D02*
X162585715Y-113744742D01*
X162585715Y-113744742D02*
X162757143Y-113801885D01*
X173344742Y-89271428D02*
X173344742Y-88585714D01*
X174544742Y-88928571D02*
X173344742Y-88928571D01*
X173916171Y-88185713D02*
X173916171Y-87785713D01*
X174544742Y-87614285D02*
X174544742Y-88185713D01*
X174544742Y-88185713D02*
X173344742Y-88185713D01*
X173344742Y-88185713D02*
X173344742Y-87614285D01*
X174544742Y-87099999D02*
X173344742Y-87099999D01*
X173344742Y-87099999D02*
X174201885Y-86699999D01*
X174201885Y-86699999D02*
X173344742Y-86299999D01*
X173344742Y-86299999D02*
X174544742Y-86299999D01*
X174544742Y-85728570D02*
X173344742Y-85728570D01*
X173344742Y-85728570D02*
X173344742Y-85271427D01*
X173344742Y-85271427D02*
X173401885Y-85157142D01*
X173401885Y-85157142D02*
X173459028Y-85099999D01*
X173459028Y-85099999D02*
X173573314Y-85042856D01*
X173573314Y-85042856D02*
X173744742Y-85042856D01*
X173744742Y-85042856D02*
X173859028Y-85099999D01*
X173859028Y-85099999D02*
X173916171Y-85157142D01*
X173916171Y-85157142D02*
X173973314Y-85271427D01*
X173973314Y-85271427D02*
X173973314Y-85728570D01*
X147782714Y-93945885D02*
X147668429Y-93888742D01*
X147668429Y-93888742D02*
X147497000Y-93888742D01*
X147497000Y-93888742D02*
X147325571Y-93945885D01*
X147325571Y-93945885D02*
X147211286Y-94060171D01*
X147211286Y-94060171D02*
X147154143Y-94174457D01*
X147154143Y-94174457D02*
X147097000Y-94403028D01*
X147097000Y-94403028D02*
X147097000Y-94574457D01*
X147097000Y-94574457D02*
X147154143Y-94803028D01*
X147154143Y-94803028D02*
X147211286Y-94917314D01*
X147211286Y-94917314D02*
X147325571Y-95031600D01*
X147325571Y-95031600D02*
X147497000Y-95088742D01*
X147497000Y-95088742D02*
X147611286Y-95088742D01*
X147611286Y-95088742D02*
X147782714Y-95031600D01*
X147782714Y-95031600D02*
X147839857Y-94974457D01*
X147839857Y-94974457D02*
X147839857Y-94574457D01*
X147839857Y-94574457D02*
X147611286Y-94574457D01*
X148354143Y-95088742D02*
X148354143Y-93888742D01*
X148354143Y-93888742D02*
X149039857Y-95088742D01*
X149039857Y-95088742D02*
X149039857Y-93888742D01*
X149611286Y-95088742D02*
X149611286Y-93888742D01*
X149611286Y-93888742D02*
X149897000Y-93888742D01*
X149897000Y-93888742D02*
X150068429Y-93945885D01*
X150068429Y-93945885D02*
X150182714Y-94060171D01*
X150182714Y-94060171D02*
X150239857Y-94174457D01*
X150239857Y-94174457D02*
X150297000Y-94403028D01*
X150297000Y-94403028D02*
X150297000Y-94574457D01*
X150297000Y-94574457D02*
X150239857Y-94803028D01*
X150239857Y-94803028D02*
X150182714Y-94917314D01*
X150182714Y-94917314D02*
X150068429Y-95031600D01*
X150068429Y-95031600D02*
X149897000Y-95088742D01*
X149897000Y-95088742D02*
X149611286Y-95088742D01*
D11*
X105290476Y-119257533D02*
X105900000Y-119257533D01*
X107500000Y-119257533D02*
X108109524Y-119257533D01*
X107804762Y-119562295D02*
X107804762Y-118952771D01*
D10*
X130457142Y-113744742D02*
X130685714Y-113744742D01*
X130685714Y-113744742D02*
X130799999Y-113801885D01*
X130799999Y-113801885D02*
X130914285Y-113916171D01*
X130914285Y-113916171D02*
X130971428Y-114144742D01*
X130971428Y-114144742D02*
X130971428Y-114544742D01*
X130971428Y-114544742D02*
X130914285Y-114773314D01*
X130914285Y-114773314D02*
X130799999Y-114887600D01*
X130799999Y-114887600D02*
X130685714Y-114944742D01*
X130685714Y-114944742D02*
X130457142Y-114944742D01*
X130457142Y-114944742D02*
X130342857Y-114887600D01*
X130342857Y-114887600D02*
X130228571Y-114773314D01*
X130228571Y-114773314D02*
X130171428Y-114544742D01*
X130171428Y-114544742D02*
X130171428Y-114144742D01*
X130171428Y-114144742D02*
X130228571Y-113916171D01*
X130228571Y-113916171D02*
X130342857Y-113801885D01*
X130342857Y-113801885D02*
X130457142Y-113744742D01*
X132057142Y-114944742D02*
X131485714Y-114944742D01*
X131485714Y-114944742D02*
X131485714Y-113744742D01*
X132457143Y-114316171D02*
X132857143Y-114316171D01*
X133028571Y-114944742D02*
X132457143Y-114944742D01*
X132457143Y-114944742D02*
X132457143Y-113744742D01*
X132457143Y-113744742D02*
X133028571Y-113744742D01*
X133542857Y-114944742D02*
X133542857Y-113744742D01*
X133542857Y-113744742D02*
X133828571Y-113744742D01*
X133828571Y-113744742D02*
X134000000Y-113801885D01*
X134000000Y-113801885D02*
X134114285Y-113916171D01*
X134114285Y-113916171D02*
X134171428Y-114030457D01*
X134171428Y-114030457D02*
X134228571Y-114259028D01*
X134228571Y-114259028D02*
X134228571Y-114430457D01*
X134228571Y-114430457D02*
X134171428Y-114659028D01*
X134171428Y-114659028D02*
X134114285Y-114773314D01*
X134114285Y-114773314D02*
X134000000Y-114887600D01*
X134000000Y-114887600D02*
X133828571Y-114944742D01*
X133828571Y-114944742D02*
X133542857Y-114944742D01*
D11*
X169495237Y-60837704D02*
X169495237Y-61637704D01*
X169495237Y-61637704D02*
X169038094Y-60837704D01*
X169038094Y-60837704D02*
X169038094Y-61637704D01*
X168657142Y-61256752D02*
X168390476Y-61256752D01*
X168276190Y-60837704D02*
X168657142Y-60837704D01*
X168657142Y-60837704D02*
X168657142Y-61637704D01*
X168657142Y-61637704D02*
X168276190Y-61637704D01*
X167514285Y-61599609D02*
X167590475Y-61637704D01*
X167590475Y-61637704D02*
X167704761Y-61637704D01*
X167704761Y-61637704D02*
X167819047Y-61599609D01*
X167819047Y-61599609D02*
X167895237Y-61523419D01*
X167895237Y-61523419D02*
X167933332Y-61447228D01*
X167933332Y-61447228D02*
X167971428Y-61294847D01*
X167971428Y-61294847D02*
X167971428Y-61180561D01*
X167971428Y-61180561D02*
X167933332Y-61028180D01*
X167933332Y-61028180D02*
X167895237Y-60951990D01*
X167895237Y-60951990D02*
X167819047Y-60875800D01*
X167819047Y-60875800D02*
X167704761Y-60837704D01*
X167704761Y-60837704D02*
X167628570Y-60837704D01*
X167628570Y-60837704D02*
X167514285Y-60875800D01*
X167514285Y-60875800D02*
X167476189Y-60913895D01*
X167476189Y-60913895D02*
X167476189Y-61180561D01*
X167476189Y-61180561D02*
X167628570Y-61180561D01*
X166523808Y-60837704D02*
X166523808Y-61637704D01*
X166523808Y-61637704D02*
X166219046Y-61637704D01*
X166219046Y-61637704D02*
X166142856Y-61599609D01*
X166142856Y-61599609D02*
X166104761Y-61561514D01*
X166104761Y-61561514D02*
X166066665Y-61485323D01*
X166066665Y-61485323D02*
X166066665Y-61371038D01*
X166066665Y-61371038D02*
X166104761Y-61294847D01*
X166104761Y-61294847D02*
X166142856Y-61256752D01*
X166142856Y-61256752D02*
X166219046Y-61218657D01*
X166219046Y-61218657D02*
X166523808Y-61218657D01*
X165571427Y-61637704D02*
X165419046Y-61637704D01*
X165419046Y-61637704D02*
X165342856Y-61599609D01*
X165342856Y-61599609D02*
X165266665Y-61523419D01*
X165266665Y-61523419D02*
X165228570Y-61371038D01*
X165228570Y-61371038D02*
X165228570Y-61104371D01*
X165228570Y-61104371D02*
X165266665Y-60951990D01*
X165266665Y-60951990D02*
X165342856Y-60875800D01*
X165342856Y-60875800D02*
X165419046Y-60837704D01*
X165419046Y-60837704D02*
X165571427Y-60837704D01*
X165571427Y-60837704D02*
X165647618Y-60875800D01*
X165647618Y-60875800D02*
X165723808Y-60951990D01*
X165723808Y-60951990D02*
X165761904Y-61104371D01*
X165761904Y-61104371D02*
X165761904Y-61371038D01*
X165761904Y-61371038D02*
X165723808Y-61523419D01*
X165723808Y-61523419D02*
X165647618Y-61599609D01*
X165647618Y-61599609D02*
X165571427Y-61637704D01*
X164923809Y-60875800D02*
X164809523Y-60837704D01*
X164809523Y-60837704D02*
X164619047Y-60837704D01*
X164619047Y-60837704D02*
X164542856Y-60875800D01*
X164542856Y-60875800D02*
X164504761Y-60913895D01*
X164504761Y-60913895D02*
X164466666Y-60990085D01*
X164466666Y-60990085D02*
X164466666Y-61066276D01*
X164466666Y-61066276D02*
X164504761Y-61142466D01*
X164504761Y-61142466D02*
X164542856Y-61180561D01*
X164542856Y-61180561D02*
X164619047Y-61218657D01*
X164619047Y-61218657D02*
X164771428Y-61256752D01*
X164771428Y-61256752D02*
X164847618Y-61294847D01*
X164847618Y-61294847D02*
X164885713Y-61332942D01*
X164885713Y-61332942D02*
X164923809Y-61409133D01*
X164923809Y-61409133D02*
X164923809Y-61485323D01*
X164923809Y-61485323D02*
X164885713Y-61561514D01*
X164885713Y-61561514D02*
X164847618Y-61599609D01*
X164847618Y-61599609D02*
X164771428Y-61637704D01*
X164771428Y-61637704D02*
X164580951Y-61637704D01*
X164580951Y-61637704D02*
X164466666Y-61599609D01*
D10*
X168271428Y-65555257D02*
X168842856Y-65555257D01*
X168842856Y-65555257D02*
X168842856Y-66755257D01*
X167642856Y-66755257D02*
X167414284Y-66755257D01*
X167414284Y-66755257D02*
X167299999Y-66698114D01*
X167299999Y-66698114D02*
X167185713Y-66583828D01*
X167185713Y-66583828D02*
X167128570Y-66355257D01*
X167128570Y-66355257D02*
X167128570Y-65955257D01*
X167128570Y-65955257D02*
X167185713Y-65726685D01*
X167185713Y-65726685D02*
X167299999Y-65612400D01*
X167299999Y-65612400D02*
X167414284Y-65555257D01*
X167414284Y-65555257D02*
X167642856Y-65555257D01*
X167642856Y-65555257D02*
X167757142Y-65612400D01*
X167757142Y-65612400D02*
X167871427Y-65726685D01*
X167871427Y-65726685D02*
X167928570Y-65955257D01*
X167928570Y-65955257D02*
X167928570Y-66355257D01*
X167928570Y-66355257D02*
X167871427Y-66583828D01*
X167871427Y-66583828D02*
X167757142Y-66698114D01*
X167757142Y-66698114D02*
X167642856Y-66755257D01*
X166671427Y-65898114D02*
X166099999Y-65898114D01*
X166785713Y-65555257D02*
X166385713Y-66755257D01*
X166385713Y-66755257D02*
X165985713Y-65555257D01*
X165585713Y-65555257D02*
X165585713Y-66755257D01*
X165585713Y-66755257D02*
X165299999Y-66755257D01*
X165299999Y-66755257D02*
X165128570Y-66698114D01*
X165128570Y-66698114D02*
X165014285Y-66583828D01*
X165014285Y-66583828D02*
X164957142Y-66469542D01*
X164957142Y-66469542D02*
X164899999Y-66240971D01*
X164899999Y-66240971D02*
X164899999Y-66069542D01*
X164899999Y-66069542D02*
X164957142Y-65840971D01*
X164957142Y-65840971D02*
X165014285Y-65726685D01*
X165014285Y-65726685D02*
X165128570Y-65612400D01*
X165128570Y-65612400D02*
X165299999Y-65555257D01*
X165299999Y-65555257D02*
X165585713Y-65555257D01*
D11*
X179362295Y-88033332D02*
X178562295Y-88033332D01*
X178562295Y-88033332D02*
X179362295Y-87576189D01*
X179362295Y-87576189D02*
X178562295Y-87576189D01*
X178562295Y-87309523D02*
X178562295Y-86852380D01*
X179362295Y-87080952D02*
X178562295Y-87080952D01*
X179286104Y-86128570D02*
X179324200Y-86166666D01*
X179324200Y-86166666D02*
X179362295Y-86280951D01*
X179362295Y-86280951D02*
X179362295Y-86357142D01*
X179362295Y-86357142D02*
X179324200Y-86471428D01*
X179324200Y-86471428D02*
X179248009Y-86547618D01*
X179248009Y-86547618D02*
X179171819Y-86585713D01*
X179171819Y-86585713D02*
X179019438Y-86623809D01*
X179019438Y-86623809D02*
X178905152Y-86623809D01*
X178905152Y-86623809D02*
X178752771Y-86585713D01*
X178752771Y-86585713D02*
X178676580Y-86547618D01*
X178676580Y-86547618D02*
X178600390Y-86471428D01*
X178600390Y-86471428D02*
X178562295Y-86357142D01*
X178562295Y-86357142D02*
X178562295Y-86280951D01*
X178562295Y-86280951D02*
X178600390Y-86166666D01*
X178600390Y-86166666D02*
X178638485Y-86128570D01*
X114317261Y-109650057D02*
X114222023Y-109602438D01*
X114222023Y-109602438D02*
X114126785Y-109507200D01*
X114126785Y-109507200D02*
X113983928Y-109364342D01*
X113983928Y-109364342D02*
X113888690Y-109316723D01*
X113888690Y-109316723D02*
X113793452Y-109316723D01*
X113841071Y-109554819D02*
X113745833Y-109507200D01*
X113745833Y-109507200D02*
X113650595Y-109411961D01*
X113650595Y-109411961D02*
X113602976Y-109221485D01*
X113602976Y-109221485D02*
X113602976Y-108888152D01*
X113602976Y-108888152D02*
X113650595Y-108697676D01*
X113650595Y-108697676D02*
X113745833Y-108602438D01*
X113745833Y-108602438D02*
X113841071Y-108554819D01*
X113841071Y-108554819D02*
X114031547Y-108554819D01*
X114031547Y-108554819D02*
X114126785Y-108602438D01*
X114126785Y-108602438D02*
X114222023Y-108697676D01*
X114222023Y-108697676D02*
X114269642Y-108888152D01*
X114269642Y-108888152D02*
X114269642Y-109221485D01*
X114269642Y-109221485D02*
X114222023Y-109411961D01*
X114222023Y-109411961D02*
X114126785Y-109507200D01*
X114126785Y-109507200D02*
X114031547Y-109554819D01*
X114031547Y-109554819D02*
X113841071Y-109554819D01*
X115222023Y-109554819D02*
X114650595Y-109554819D01*
X114936309Y-109554819D02*
X114936309Y-108554819D01*
X114936309Y-108554819D02*
X114841071Y-108697676D01*
X114841071Y-108697676D02*
X114745833Y-108792914D01*
X114745833Y-108792914D02*
X114650595Y-108840533D01*
D13*
%TO.C,R16*%
X136090000Y-86272936D02*
X136090000Y-87727064D01*
X137910000Y-86272936D02*
X137910000Y-87727064D01*
D11*
%TO.C,U4*%
X126375000Y-86375000D02*
X126375000Y-86600000D01*
X126375000Y-86375000D02*
X126700000Y-86375000D01*
X126375000Y-93625000D02*
X126375000Y-93300000D01*
X126375000Y-93625000D02*
X126700000Y-93625000D01*
X133625000Y-86375000D02*
X133300000Y-86375000D01*
X133625000Y-86375000D02*
X133625000Y-86700000D01*
X133625000Y-93625000D02*
X133300000Y-93625000D01*
X133625000Y-93625000D02*
X133625000Y-93300000D01*
D13*
X125610000Y-86660000D02*
X125270000Y-86190000D01*
X125950000Y-86190000D01*
X125610000Y-86660000D01*
G36*
X125610000Y-86660000D02*
G01*
X125270000Y-86190000D01*
X125950000Y-86190000D01*
X125610000Y-86660000D01*
G37*
%TO.C,C16*%
X145090000Y-85161252D02*
X145090000Y-83738748D01*
X146910000Y-85161252D02*
X146910000Y-83738748D01*
%TO.C,D1*%
X118860000Y-109850000D02*
X113350000Y-109850000D01*
X118860000Y-113150000D02*
X113350000Y-113150000D01*
X118860000Y-113150000D02*
X118860000Y-109850000D01*
%TO.C,R19*%
X124693000Y-98205936D02*
X124693000Y-99660064D01*
X126513000Y-98205936D02*
X126513000Y-99660064D01*
%TO.C,R22*%
X107090000Y-67272936D02*
X107090000Y-68727064D01*
X108910000Y-67272936D02*
X108910000Y-68727064D01*
%TO.C,C12*%
X143461252Y-93340000D02*
X142038748Y-93340000D01*
X143461252Y-95160000D02*
X142038748Y-95160000D01*
%TO.C,U1*%
X90130000Y-70370000D02*
X94771000Y-70370000D01*
X90130000Y-73639000D02*
X91640000Y-73639000D01*
X90130000Y-77340000D02*
X91640000Y-77340000D01*
X90130000Y-80610000D02*
X90130000Y-70370000D01*
X90130000Y-80610000D02*
X94771000Y-80610000D01*
X91640000Y-80610000D02*
X91640000Y-70370000D01*
X94771000Y-80610000D02*
X94771000Y-70370000D01*
%TO.C,R30*%
X123590000Y-67272936D02*
X123590000Y-68727064D01*
X125410000Y-67272936D02*
X125410000Y-68727064D01*
%TO.C,TP3*%
X152847000Y-95824000D02*
X154747000Y-95824000D01*
X152847000Y-97724000D02*
X152847000Y-95824000D01*
X154747000Y-95824000D02*
X154747000Y-97724000D01*
X154747000Y-97724000D02*
X152847000Y-97724000D01*
%TO.C,C11*%
X121826248Y-74590000D02*
X123248752Y-74590000D01*
X121826248Y-76410000D02*
X123248752Y-76410000D01*
%TO.C,U3*%
X110225000Y-93845000D02*
X108275000Y-93845000D01*
X110225000Y-93845000D02*
X112175000Y-93845000D01*
X110225000Y-103965000D02*
X108275000Y-103965000D01*
X110225000Y-103965000D02*
X112175000Y-103965000D01*
X107525000Y-93900000D02*
X107285000Y-93570000D01*
X107765000Y-93570000D01*
X107525000Y-93900000D01*
G36*
X107525000Y-93900000D02*
G01*
X107285000Y-93570000D01*
X107765000Y-93570000D01*
X107525000Y-93900000D01*
G37*
%TO.C,R10*%
X120389564Y-107290000D02*
X118935436Y-107290000D01*
X120389564Y-109110000D02*
X118935436Y-109110000D01*
%TO.C,U5*%
X143000000Y-87440000D02*
X141050000Y-87440000D01*
X143000000Y-87440000D02*
X144950000Y-87440000D01*
X143000000Y-92560000D02*
X141050000Y-92560000D01*
X143000000Y-92560000D02*
X144950000Y-92560000D01*
X140300000Y-87535000D02*
X140060000Y-87205000D01*
X140540000Y-87205000D01*
X140300000Y-87535000D01*
G36*
X140300000Y-87535000D02*
G01*
X140060000Y-87205000D01*
X140540000Y-87205000D01*
X140300000Y-87535000D01*
G37*
%TO.C,R9*%
X101310436Y-64590000D02*
X102764564Y-64590000D01*
X101310436Y-66410000D02*
X102764564Y-66410000D01*
%TO.C,R27*%
X123264564Y-77090000D02*
X121810436Y-77090000D01*
X123264564Y-78910000D02*
X121810436Y-78910000D01*
%TO.C,J7*%
X164330000Y-64880000D02*
X164330000Y-63500000D01*
X165710000Y-64880000D02*
X164330000Y-64880000D01*
X166980000Y-62120000D02*
X169630000Y-62120000D01*
X166980000Y-64880000D02*
X166980000Y-62120000D01*
X166980000Y-64880000D02*
X169630000Y-64880000D01*
X169630000Y-64880000D02*
X169630000Y-62120000D01*
%TO.C,Y1*%
X120500000Y-91525000D02*
X116500000Y-91525000D01*
X120500000Y-94825000D02*
X120500000Y-91525000D01*
%TO.C,U7*%
X107752500Y-76100000D02*
X107752500Y-75450000D01*
X107752500Y-76100000D02*
X107752500Y-76750000D01*
X110872500Y-76100000D02*
X110872500Y-75450000D01*
X110872500Y-76100000D02*
X110872500Y-76750000D01*
X107802500Y-77262500D02*
X107472500Y-77502500D01*
X107472500Y-77022500D01*
X107802500Y-77262500D01*
G36*
X107802500Y-77262500D02*
G01*
X107472500Y-77502500D01*
X107472500Y-77022500D01*
X107802500Y-77262500D01*
G37*
%TO.C,J2*%
X104080000Y-118380000D02*
X104080000Y-117000000D01*
X105460000Y-118380000D02*
X104080000Y-118380000D01*
X106730000Y-115620000D02*
X109380000Y-115620000D01*
X106730000Y-118380000D02*
X106730000Y-115620000D01*
X106730000Y-118380000D02*
X109380000Y-118380000D01*
X109380000Y-118380000D02*
X109380000Y-115620000D01*
%TO.C,J4*%
X140200000Y-118380000D02*
X140200000Y-117000000D01*
X141580000Y-118380000D02*
X140200000Y-118380000D01*
X142850000Y-115620000D02*
X145500000Y-115620000D01*
X142850000Y-118380000D02*
X142850000Y-115620000D01*
X142850000Y-118380000D02*
X145500000Y-118380000D01*
X145500000Y-118380000D02*
X145500000Y-115620000D01*
%TO.C,R40*%
X142762064Y-84727000D02*
X141307936Y-84727000D01*
X142762064Y-86547000D02*
X141307936Y-86547000D01*
%TO.C,R3*%
X101977064Y-101015000D02*
X101522936Y-101015000D01*
X101977064Y-102485000D02*
X101522936Y-102485000D01*
%TO.C,R1*%
X101977064Y-98015000D02*
X101522936Y-98015000D01*
X101977064Y-99485000D02*
X101522936Y-99485000D01*
%TO.C,C1*%
X101538748Y-95090000D02*
X102961252Y-95090000D01*
X101538748Y-96910000D02*
X102961252Y-96910000D01*
%TO.C,J14*%
X167420000Y-98005000D02*
X167420000Y-95355000D01*
X170180000Y-95355000D02*
X167420000Y-95355000D01*
X170180000Y-98005000D02*
X167420000Y-98005000D01*
X170180000Y-98005000D02*
X170180000Y-95355000D01*
X170180000Y-99275000D02*
X170180000Y-100655000D01*
X170180000Y-100655000D02*
X168800000Y-100655000D01*
%TO.C,C13*%
X121265000Y-91536252D02*
X121265000Y-91013748D01*
X122735000Y-91536252D02*
X122735000Y-91013748D01*
%TO.C,C15*%
X141323748Y-79227000D02*
X142746252Y-79227000D01*
X141323748Y-81047000D02*
X142746252Y-81047000D01*
%TO.C,R13*%
X113490000Y-81589564D02*
X113490000Y-80135436D01*
X115310000Y-81589564D02*
X115310000Y-80135436D01*
%TO.C,R41*%
X147490000Y-109972936D02*
X147490000Y-111427064D01*
X149310000Y-109972936D02*
X149310000Y-111427064D01*
%TO.C,J11*%
X158540000Y-110880000D02*
X158540000Y-109500000D01*
X159920000Y-110880000D02*
X158540000Y-110880000D01*
X161190000Y-108120000D02*
X168920000Y-108120000D01*
X161190000Y-110880000D02*
X161190000Y-108120000D01*
X161190000Y-110880000D02*
X168920000Y-110880000D01*
X168920000Y-110880000D02*
X168920000Y-108120000D01*
%TO.C,R14*%
X115990000Y-81589564D02*
X115990000Y-80135436D01*
X117810000Y-81589564D02*
X117810000Y-80135436D01*
%TO.C,C18*%
X170290000Y-110261252D02*
X170290000Y-108838748D01*
X172110000Y-110261252D02*
X172110000Y-108838748D01*
%TO.C,C8*%
X136090000Y-92288748D02*
X136090000Y-93711252D01*
X137910000Y-92288748D02*
X137910000Y-93711252D01*
%TO.C,R25*%
X141590000Y-67272936D02*
X141590000Y-68727064D01*
X143410000Y-67272936D02*
X143410000Y-68727064D01*
%TO.C,C2*%
X133826248Y-74090000D02*
X135248752Y-74090000D01*
X133826248Y-75910000D02*
X135248752Y-75910000D01*
%TO.C,R11*%
X152927064Y-107290000D02*
X151472936Y-107290000D01*
X152927064Y-109110000D02*
X151472936Y-109110000D01*
%TO.C,R39*%
X142762064Y-81977000D02*
X141307936Y-81977000D01*
X142762064Y-83797000D02*
X141307936Y-83797000D01*
%TO.C,J13*%
X155730000Y-118430000D02*
X155730000Y-117050000D01*
X157110000Y-118430000D02*
X155730000Y-118430000D01*
X158380000Y-115670000D02*
X166110000Y-115670000D01*
X158380000Y-118430000D02*
X158380000Y-115670000D01*
X158380000Y-118430000D02*
X166110000Y-118430000D01*
X166110000Y-118430000D02*
X166110000Y-115670000D01*
%TO.C,D2*%
X100437500Y-70085000D02*
X104322500Y-70085000D01*
X104322500Y-66915000D02*
X100437500Y-66915000D01*
X104322500Y-70085000D02*
X104322500Y-66915000D01*
%TO.C,R18*%
X118227064Y-72090000D02*
X116772936Y-72090000D01*
X118227064Y-73910000D02*
X116772936Y-73910000D01*
%TO.C,J10*%
X148215000Y-118380000D02*
X148215000Y-117000000D01*
X149595000Y-118380000D02*
X148215000Y-118380000D01*
X150865000Y-115620000D02*
X153515000Y-115620000D01*
X150865000Y-118380000D02*
X150865000Y-115620000D01*
X150865000Y-118380000D02*
X153515000Y-118380000D01*
X153515000Y-118380000D02*
X153515000Y-115620000D01*
%TO.C,R31*%
X135340000Y-67272936D02*
X135340000Y-68727064D01*
X137160000Y-67272936D02*
X137160000Y-68727064D01*
%TO.C,D5*%
X168910000Y-67250000D02*
X163400000Y-67250000D01*
X168910000Y-70550000D02*
X163400000Y-70550000D01*
X168910000Y-70550000D02*
X168910000Y-67250000D01*
%TO.C,U6*%
X103200000Y-74840000D02*
X102400000Y-74840000D01*
X103200000Y-74840000D02*
X104000000Y-74840000D01*
X103200000Y-77960000D02*
X102400000Y-77960000D01*
X103200000Y-77960000D02*
X104000000Y-77960000D01*
X101900000Y-74890000D02*
X101660000Y-74560000D01*
X102140000Y-74560000D01*
X101900000Y-74890000D01*
G36*
X101900000Y-74890000D02*
G01*
X101660000Y-74560000D01*
X102140000Y-74560000D01*
X101900000Y-74890000D01*
G37*
%TO.C,U2*%
X132125000Y-77040000D02*
X129925000Y-77040000D01*
X132125000Y-77040000D02*
X134325000Y-77040000D01*
X132125000Y-82260000D02*
X129925000Y-82260000D01*
X132125000Y-82260000D02*
X134325000Y-82260000D01*
X129225000Y-77240000D02*
X128985000Y-76910000D01*
X129465000Y-76910000D01*
X129225000Y-77240000D01*
G36*
X129225000Y-77240000D02*
G01*
X128985000Y-76910000D01*
X129465000Y-76910000D01*
X129225000Y-77240000D01*
G37*
%TO.C,TP4*%
X147767000Y-95824000D02*
X149667000Y-95824000D01*
X147767000Y-97724000D02*
X147767000Y-95824000D01*
X149667000Y-95824000D02*
X149667000Y-97724000D01*
X149667000Y-97724000D02*
X147767000Y-97724000D01*
%TO.C,R21*%
X124590000Y-104689564D02*
X124590000Y-103235436D01*
X126410000Y-104689564D02*
X126410000Y-103235436D01*
%TO.C,R43*%
X108585436Y-78940000D02*
X110039564Y-78940000D01*
X108585436Y-80760000D02*
X110039564Y-80760000D01*
%TO.C,R26*%
X153090000Y-67272936D02*
X153090000Y-68727064D01*
X154910000Y-67272936D02*
X154910000Y-68727064D01*
%TO.C,R34*%
X130464564Y-74090000D02*
X129010436Y-74090000D01*
X130464564Y-75910000D02*
X129010436Y-75910000D01*
%TO.C,R6*%
X118935436Y-104540000D02*
X120389564Y-104540000D01*
X118935436Y-106360000D02*
X120389564Y-106360000D01*
%TO.C,J5*%
X90215000Y-95420000D02*
X91920000Y-95420000D01*
X90215000Y-104580000D02*
X90215000Y-95420000D01*
X91920000Y-104580000D02*
X90215000Y-104580000D01*
X93930000Y-104580000D02*
X95850000Y-104580000D01*
X95850000Y-95420000D02*
X93930000Y-95420000D01*
%TO.C,J1*%
X164130000Y-85830000D02*
X165510000Y-85830000D01*
X164130000Y-87210000D02*
X164130000Y-85830000D01*
X164130000Y-88480000D02*
X164130000Y-88590000D01*
X164130000Y-88480000D02*
X166890000Y-88480000D01*
X164130000Y-88590000D02*
X166890000Y-88590000D01*
X166890000Y-88480000D02*
X166890000Y-88590000D01*
%TO.C,R37*%
X148130000Y-72380000D02*
X173370000Y-72380000D01*
X148130000Y-75560000D02*
X148130000Y-72380000D01*
X148130000Y-78440000D02*
X148130000Y-81620000D01*
X148130000Y-81620000D02*
X173370000Y-81620000D01*
X173370000Y-72380000D02*
X173370000Y-75560000D01*
X173370000Y-81620000D02*
X173370000Y-78440000D01*
%TO.C,R23*%
X118590000Y-67272936D02*
X118590000Y-68727064D01*
X120410000Y-67272936D02*
X120410000Y-68727064D01*
%TO.C,R8*%
X152210436Y-86340000D02*
X153664564Y-86340000D01*
X152210436Y-88160000D02*
X153664564Y-88160000D01*
%TO.C,R32*%
X146840000Y-67272936D02*
X146840000Y-68727064D01*
X148660000Y-67272936D02*
X148660000Y-68727064D01*
%TO.C,J3*%
X92120000Y-83845000D02*
X93500000Y-83845000D01*
X92120000Y-85225000D02*
X92120000Y-83845000D01*
X92120000Y-86495000D02*
X92120000Y-89145000D01*
X92120000Y-86495000D02*
X94880000Y-86495000D01*
X92120000Y-89145000D02*
X94880000Y-89145000D01*
X94880000Y-86495000D02*
X94880000Y-89145000D01*
%TO.C,C5*%
X96865000Y-73338748D02*
X96865000Y-73861252D01*
X98335000Y-73338748D02*
X98335000Y-73861252D01*
%TO.C,C4*%
X96865000Y-77861252D02*
X96865000Y-77338748D01*
X98335000Y-77861252D02*
X98335000Y-77338748D01*
%TO.C,C14*%
X121265000Y-94563748D02*
X121265000Y-95086252D01*
X122735000Y-94563748D02*
X122735000Y-95086252D01*
%TO.C,R12*%
X170690000Y-87764564D02*
X170690000Y-86310436D01*
X172510000Y-87764564D02*
X172510000Y-86310436D01*
%TO.C,R35*%
X141307936Y-76477000D02*
X142762064Y-76477000D01*
X141307936Y-78297000D02*
X142762064Y-78297000D01*
%TO.C,D4*%
X149915000Y-109865000D02*
X149915000Y-113035000D01*
X149915000Y-113035000D02*
X153800000Y-113035000D01*
X153800000Y-109865000D02*
X149915000Y-109865000D01*
%TO.C,R28*%
X123264564Y-72090000D02*
X121810436Y-72090000D01*
X123264564Y-73910000D02*
X121810436Y-73910000D01*
%TO.C,C6*%
X116313748Y-97340000D02*
X117736252Y-97340000D01*
X116313748Y-99160000D02*
X117736252Y-99160000D01*
%TO.C,TP1*%
X158000000Y-95750000D02*
X159900000Y-95750000D01*
X158000000Y-97650000D02*
X158000000Y-95750000D01*
X159900000Y-95750000D02*
X159900000Y-97650000D01*
X159900000Y-97650000D02*
X158000000Y-97650000D01*
%TO.C,C17*%
X102626248Y-78990000D02*
X104048752Y-78990000D01*
X102626248Y-80810000D02*
X104048752Y-80810000D01*
%TO.C,J6*%
X175220000Y-87130000D02*
X175220000Y-84480000D01*
X177980000Y-84480000D02*
X175220000Y-84480000D01*
X177980000Y-87130000D02*
X175220000Y-87130000D01*
X177980000Y-87130000D02*
X177980000Y-84480000D01*
X177980000Y-88400000D02*
X177980000Y-89780000D01*
X177980000Y-89780000D02*
X176600000Y-89780000D01*
%TO.C,J9*%
X126940000Y-118380000D02*
X126940000Y-117000000D01*
X128320000Y-118380000D02*
X126940000Y-118380000D01*
X129590000Y-115620000D02*
X137320000Y-115620000D01*
X129590000Y-118380000D02*
X129590000Y-115620000D01*
X129590000Y-118380000D02*
X137320000Y-118380000D01*
X137320000Y-118380000D02*
X137320000Y-115620000D01*
%TO.C,J12*%
X175220000Y-105130000D02*
X175220000Y-92320000D01*
X177980000Y-92320000D02*
X175220000Y-92320000D01*
X177980000Y-105130000D02*
X175220000Y-105130000D01*
X177980000Y-105130000D02*
X177980000Y-92320000D01*
X177980000Y-106400000D02*
X177980000Y-107780000D01*
X177980000Y-107780000D02*
X176600000Y-107780000D01*
%TO.C,TP2*%
X163080000Y-95750000D02*
X164980000Y-95750000D01*
X163080000Y-97650000D02*
X163080000Y-95750000D01*
X164980000Y-95750000D02*
X164980000Y-97650000D01*
X164980000Y-97650000D02*
X163080000Y-97650000D01*
%TO.C,D3*%
X155390500Y-83500000D02*
X151380500Y-83500000D01*
X155390500Y-85500000D02*
X151380500Y-85500000D01*
X155390500Y-85500000D02*
X155390500Y-83500000D01*
%TO.C,R2*%
X111022936Y-88840000D02*
X112477064Y-88840000D01*
X111022936Y-90660000D02*
X112477064Y-90660000D01*
%TO.C,R7*%
X143627064Y-110990000D02*
X142172936Y-110990000D01*
X143627064Y-112810000D02*
X142172936Y-112810000D01*
%TO.C,C9*%
X118211252Y-74590000D02*
X116788748Y-74590000D01*
X118211252Y-76410000D02*
X116788748Y-76410000D01*
%TO.C,R36*%
X141307936Y-73727000D02*
X142762064Y-73727000D01*
X141307936Y-75547000D02*
X142762064Y-75547000D01*
%TO.C,R29*%
X112340000Y-67272936D02*
X112340000Y-68727064D01*
X114160000Y-67272936D02*
X114160000Y-68727064D01*
%TO.C,C3*%
X97600000Y-83890000D02*
X98600000Y-83890000D01*
X98100000Y-83390000D02*
X98100000Y-84390000D01*
X98840000Y-83104437D02*
X98840000Y-84890000D01*
X98840000Y-83104437D02*
X99904437Y-82040000D01*
X98840000Y-89695563D02*
X98840000Y-87910000D01*
X98840000Y-89695563D02*
X99904437Y-90760000D01*
X99904437Y-82040000D02*
X107560000Y-82040000D01*
X99904437Y-90760000D02*
X107560000Y-90760000D01*
X107560000Y-82040000D02*
X107560000Y-84890000D01*
X107560000Y-90760000D02*
X107560000Y-87910000D01*
%TO.C,R20*%
X127106000Y-98205936D02*
X127106000Y-99660064D01*
X128926000Y-98205936D02*
X128926000Y-99660064D01*
%TO.C,SW1*%
X100850000Y-108850000D02*
X100850000Y-110350000D01*
X102100000Y-112850000D02*
X106600000Y-112850000D01*
X106600000Y-106350000D02*
X102100000Y-106350000D01*
X107850000Y-110350000D02*
X107850000Y-108850000D01*
%TO.C,R33*%
X158340000Y-67272936D02*
X158340000Y-68727064D01*
X160160000Y-67272936D02*
X160160000Y-68727064D01*
%TO.C,R17*%
X123264564Y-82090000D02*
X121810436Y-82090000D01*
X123264564Y-83910000D02*
X121810436Y-83910000D01*
%TO.C,C10*%
X127090000Y-104686252D02*
X127090000Y-103263748D01*
X128910000Y-104686252D02*
X128910000Y-103263748D01*
%TO.C,R15*%
X123227064Y-79590000D02*
X121772936Y-79590000D01*
X123227064Y-81410000D02*
X121772936Y-81410000D01*
%TO.C,Q1*%
X114412500Y-105140000D02*
X113762500Y-105140000D01*
X114412500Y-105140000D02*
X115062500Y-105140000D01*
X114412500Y-108260000D02*
X113762500Y-108260000D01*
X114412500Y-108260000D02*
X115062500Y-108260000D01*
X115815000Y-108540000D02*
X115335000Y-108540000D01*
X115575000Y-108210000D01*
X115815000Y-108540000D01*
G36*
X115815000Y-108540000D02*
G01*
X115335000Y-108540000D01*
X115575000Y-108210000D01*
X115815000Y-108540000D01*
G37*
%TO.C,C7*%
X121090000Y-87511252D02*
X121090000Y-86088748D01*
X122910000Y-87511252D02*
X122910000Y-86088748D01*
%TO.C,R24*%
X129840000Y-67272936D02*
X129840000Y-68727064D01*
X131660000Y-67272936D02*
X131660000Y-68727064D01*
%TO.C,D6*%
X161210000Y-98750000D02*
X157200000Y-98750000D01*
X161210000Y-100750000D02*
X157200000Y-100750000D01*
X161210000Y-100750000D02*
X161210000Y-98750000D01*
%TO.C,R42*%
X163422936Y-98840000D02*
X164877064Y-98840000D01*
X163422936Y-100660000D02*
X164877064Y-100660000D01*
%TO.C,J8*%
X113910000Y-118380000D02*
X113910000Y-117000000D01*
X115290000Y-118380000D02*
X113910000Y-118380000D01*
X116560000Y-115620000D02*
X124290000Y-115620000D01*
X116560000Y-118380000D02*
X116560000Y-115620000D01*
X116560000Y-118380000D02*
X124290000Y-118380000D01*
X124290000Y-118380000D02*
X124290000Y-115620000D01*
%TO.C,R38*%
X147590000Y-85177064D02*
X147590000Y-83722936D01*
X149410000Y-85177064D02*
X149410000Y-83722936D01*
%TO.C,R4*%
X112514564Y-91300000D02*
X111060436Y-91300000D01*
X112514564Y-93120000D02*
X111060436Y-93120000D01*
%TO.C,R5*%
X157152936Y-86410000D02*
X158607064Y-86410000D01*
X157152936Y-88230000D02*
X158607064Y-88230000D01*
%TO.C,TH1*%
X127027000Y-67313436D02*
X127027000Y-67767564D01*
X128497000Y-67313436D02*
X128497000Y-67767564D01*
%TD*%
%LPC*%
D14*
%TO.C,R16*%
X137000000Y-85537500D03*
X137000000Y-88462500D03*
%TD*%
D15*
%TO.C,U4*%
X125750000Y-87200000D03*
X125750000Y-88000000D03*
X125750000Y-88800000D03*
X125750000Y-89600000D03*
X125750000Y-90400000D03*
X125750000Y-91200000D03*
X125750000Y-92000000D03*
X125750000Y-92800000D03*
D16*
X127200000Y-94250000D03*
X128000000Y-94250000D03*
X128800000Y-94250000D03*
X129600000Y-94250000D03*
X130400000Y-94250000D03*
X131200000Y-94250000D03*
X132000000Y-94250000D03*
X132800000Y-94250000D03*
D15*
X134250000Y-92800000D03*
X134250000Y-92000000D03*
X134250000Y-91200000D03*
X134250000Y-90400000D03*
X134250000Y-89600000D03*
X134250000Y-88800000D03*
X134250000Y-88000000D03*
X134250000Y-87200000D03*
D16*
X132800000Y-85750000D03*
X132000000Y-85750000D03*
X131200000Y-85750000D03*
X130400000Y-85750000D03*
X129600000Y-85750000D03*
X128800000Y-85750000D03*
X128000000Y-85750000D03*
X127200000Y-85750000D03*
%TD*%
D17*
%TO.C,C16*%
X146000000Y-85925000D03*
X146000000Y-82975000D03*
%TD*%
D18*
%TO.C,D1*%
X117350000Y-111500000D03*
X113350000Y-111500000D03*
%TD*%
D14*
%TO.C,R19*%
X125603000Y-97470500D03*
X125603000Y-100395500D03*
%TD*%
%TO.C,R22*%
X108000000Y-66537500D03*
X108000000Y-69462500D03*
%TD*%
D19*
%TO.C,C12*%
X144225000Y-94250000D03*
X141275000Y-94250000D03*
%TD*%
D20*
%TO.C,U1*%
X93400000Y-78030000D03*
D21*
X93400000Y-75490000D03*
X93400000Y-72950000D03*
%TD*%
D14*
%TO.C,R30*%
X124500000Y-66537500D03*
X124500000Y-69462500D03*
%TD*%
D22*
%TO.C,TP3*%
X153797000Y-96774000D03*
%TD*%
D23*
%TO.C,C11*%
X121062500Y-75500000D03*
X124012500Y-75500000D03*
%TD*%
D24*
%TO.C,U3*%
X107750000Y-94460000D03*
X107750000Y-95730000D03*
X107750000Y-97000000D03*
X107750000Y-98270000D03*
X107750000Y-99540000D03*
X107750000Y-100810000D03*
X107750000Y-102080000D03*
X107750000Y-103350000D03*
X112700000Y-103350000D03*
X112700000Y-102080000D03*
X112700000Y-100810000D03*
X112700000Y-99540000D03*
X112700000Y-98270000D03*
X112700000Y-97000000D03*
X112700000Y-95730000D03*
X112700000Y-94460000D03*
%TD*%
D25*
%TO.C,R10*%
X121125000Y-108200000D03*
X118200000Y-108200000D03*
%TD*%
D26*
%TO.C,H4*%
X175000000Y-115000000D03*
%TD*%
D24*
%TO.C,U5*%
X140525000Y-88095000D03*
X140525000Y-89365000D03*
X140525000Y-90635000D03*
X140525000Y-91905000D03*
X145475000Y-91905000D03*
X145475000Y-90635000D03*
X145475000Y-89365000D03*
X145475000Y-88095000D03*
%TD*%
D27*
%TO.C,R9*%
X100575000Y-65500000D03*
X103500000Y-65500000D03*
%TD*%
D25*
%TO.C,R27*%
X124000000Y-78000000D03*
X121075000Y-78000000D03*
%TD*%
D28*
%TO.C,J7*%
X165710000Y-63500000D03*
D29*
X168250000Y-63500000D03*
%TD*%
D30*
%TO.C,Y1*%
X119600000Y-92325000D03*
X117400000Y-92325000D03*
X117400000Y-94025000D03*
X119600000Y-94025000D03*
%TD*%
D31*
%TO.C,U7*%
X108362500Y-77037500D03*
X110262500Y-77037500D03*
X109312500Y-75162500D03*
%TD*%
D26*
%TO.C,H3*%
X95000000Y-115000000D03*
%TD*%
D28*
%TO.C,J2*%
X105460000Y-117000000D03*
D29*
X108000000Y-117000000D03*
%TD*%
D28*
%TO.C,J4*%
X141580000Y-117000000D03*
D29*
X144120000Y-117000000D03*
%TD*%
D25*
%TO.C,R40*%
X143497500Y-85637000D03*
X140572500Y-85637000D03*
%TD*%
D32*
%TO.C,R3*%
X102662500Y-101750000D03*
X100837500Y-101750000D03*
%TD*%
%TO.C,R1*%
X102662500Y-98750000D03*
X100837500Y-98750000D03*
%TD*%
D23*
%TO.C,C1*%
X100775000Y-96000000D03*
X103725000Y-96000000D03*
%TD*%
D28*
%TO.C,J14*%
X168800000Y-99275000D03*
D29*
X168800000Y-96735000D03*
%TD*%
D33*
%TO.C,C13*%
X122000000Y-92225000D03*
X122000000Y-90325000D03*
%TD*%
D23*
%TO.C,C15*%
X140560000Y-80137000D03*
X143510000Y-80137000D03*
%TD*%
D34*
%TO.C,R13*%
X114400000Y-82325000D03*
X114400000Y-79400000D03*
%TD*%
D14*
%TO.C,R41*%
X148400000Y-109237500D03*
X148400000Y-112162500D03*
%TD*%
D28*
%TO.C,J11*%
X159920000Y-109500000D03*
D29*
X162460000Y-109500000D03*
X165000000Y-109500000D03*
X167540000Y-109500000D03*
%TD*%
D34*
%TO.C,R14*%
X116900000Y-82325000D03*
X116900000Y-79400000D03*
%TD*%
D17*
%TO.C,C18*%
X171200000Y-111025000D03*
X171200000Y-108075000D03*
%TD*%
D35*
%TO.C,C8*%
X137000000Y-91525000D03*
X137000000Y-94475000D03*
%TD*%
D14*
%TO.C,R25*%
X142500000Y-66537500D03*
X142500000Y-69462500D03*
%TD*%
D23*
%TO.C,C2*%
X133062500Y-75000000D03*
X136012500Y-75000000D03*
%TD*%
D25*
%TO.C,R11*%
X153662500Y-108200000D03*
X150737500Y-108200000D03*
%TD*%
%TO.C,R39*%
X143497500Y-82887000D03*
X140572500Y-82887000D03*
%TD*%
D28*
%TO.C,J13*%
X157110000Y-117050000D03*
D29*
X159650000Y-117050000D03*
X162190000Y-117050000D03*
X164730000Y-117050000D03*
%TD*%
D36*
%TO.C,D2*%
X103437500Y-68500000D03*
X100637500Y-68500000D03*
%TD*%
D25*
%TO.C,R18*%
X118962500Y-73000000D03*
X116037500Y-73000000D03*
%TD*%
D28*
%TO.C,J10*%
X149595000Y-117000000D03*
D29*
X152135000Y-117000000D03*
%TD*%
D26*
%TO.C,H1*%
X95000000Y-65000000D03*
%TD*%
D14*
%TO.C,R31*%
X136250000Y-66537500D03*
X136250000Y-69462500D03*
%TD*%
D18*
%TO.C,D5*%
X167400000Y-68900000D03*
X163400000Y-68900000D03*
%TD*%
D37*
%TO.C,U6*%
X102062500Y-75450000D03*
X102062500Y-76400000D03*
X102062500Y-77350000D03*
X104337500Y-77350000D03*
X104337500Y-76400000D03*
X104337500Y-75450000D03*
%TD*%
D38*
%TO.C,U2*%
X129262500Y-77700000D03*
X129262500Y-78350000D03*
X129262500Y-79000000D03*
X129262500Y-79650000D03*
X129262500Y-80300000D03*
X129262500Y-80950000D03*
X129262500Y-81600000D03*
X134987500Y-81600000D03*
X134987500Y-80950000D03*
X134987500Y-80300000D03*
X134987500Y-79650000D03*
X134987500Y-79000000D03*
X134987500Y-78350000D03*
X134987500Y-77700000D03*
%TD*%
D22*
%TO.C,TP4*%
X148717000Y-96774000D03*
%TD*%
D34*
%TO.C,R21*%
X125500000Y-105425000D03*
X125500000Y-102500000D03*
%TD*%
D27*
%TO.C,R43*%
X107850000Y-79850000D03*
X110775000Y-79850000D03*
%TD*%
D14*
%TO.C,R26*%
X154000000Y-66537500D03*
X154000000Y-69462500D03*
%TD*%
D25*
%TO.C,R34*%
X131200000Y-75000000D03*
X128275000Y-75000000D03*
%TD*%
D27*
%TO.C,R6*%
X118200000Y-105450000D03*
X121125000Y-105450000D03*
%TD*%
D39*
%TO.C,J5*%
X96605000Y-97110000D03*
X96605000Y-102890000D03*
D40*
X97725000Y-96800000D03*
X97725000Y-97600000D03*
D41*
X97725000Y-98750000D03*
X97725000Y-99750000D03*
X97725000Y-100250000D03*
X97725000Y-101250000D03*
D40*
X97725000Y-102400000D03*
X97725000Y-103200000D03*
X97725000Y-103200000D03*
X97725000Y-102400000D03*
D41*
X97725000Y-101750000D03*
X97725000Y-100750000D03*
X97725000Y-99250000D03*
X97725000Y-98250000D03*
D40*
X97725000Y-97600000D03*
X97725000Y-96800000D03*
D42*
X97125000Y-95680000D03*
D43*
X92925000Y-95680000D03*
D42*
X97125000Y-104320000D03*
D43*
X92925000Y-104320000D03*
%TD*%
D28*
%TO.C,J1*%
X165510000Y-87210000D03*
%TD*%
D44*
%TO.C,R37*%
X146780000Y-77000000D03*
D45*
X174720000Y-77000000D03*
%TD*%
D26*
%TO.C,H2*%
X175000000Y-65000000D03*
%TD*%
D14*
%TO.C,R23*%
X119500000Y-66537500D03*
X119500000Y-69462500D03*
%TD*%
D27*
%TO.C,R8*%
X151475000Y-87250000D03*
X154400000Y-87250000D03*
%TD*%
D14*
%TO.C,R32*%
X147750000Y-66537500D03*
X147750000Y-69462500D03*
%TD*%
D28*
%TO.C,J3*%
X93500000Y-85225000D03*
D29*
X93500000Y-87765000D03*
%TD*%
D46*
%TO.C,C5*%
X97600000Y-72650000D03*
X97600000Y-74550000D03*
%TD*%
D33*
%TO.C,C4*%
X97600000Y-78550000D03*
X97600000Y-76650000D03*
%TD*%
D46*
%TO.C,C14*%
X122000000Y-93875000D03*
X122000000Y-95775000D03*
%TD*%
D34*
%TO.C,R12*%
X171600000Y-88500000D03*
X171600000Y-85575000D03*
%TD*%
D27*
%TO.C,R35*%
X140572500Y-77387000D03*
X143497500Y-77387000D03*
%TD*%
D47*
%TO.C,D4*%
X150800000Y-111450000D03*
X153600000Y-111450000D03*
%TD*%
D25*
%TO.C,R28*%
X124000000Y-73000000D03*
X121075000Y-73000000D03*
%TD*%
D23*
%TO.C,C6*%
X115550000Y-98250000D03*
X118500000Y-98250000D03*
%TD*%
D22*
%TO.C,TP1*%
X158950000Y-96700000D03*
%TD*%
D23*
%TO.C,C17*%
X101862500Y-79900000D03*
X104812500Y-79900000D03*
%TD*%
D28*
%TO.C,J6*%
X176600000Y-88400000D03*
D29*
X176600000Y-85860000D03*
%TD*%
D28*
%TO.C,J9*%
X128320000Y-117000000D03*
D29*
X130860000Y-117000000D03*
X133400000Y-117000000D03*
X135940000Y-117000000D03*
%TD*%
D28*
%TO.C,J12*%
X176600000Y-106400000D03*
D29*
X176600000Y-103860000D03*
X176600000Y-101320000D03*
X176600000Y-98780000D03*
X176600000Y-96240000D03*
X176600000Y-93700000D03*
%TD*%
D22*
%TO.C,TP2*%
X164030000Y-96700000D03*
%TD*%
D48*
%TO.C,D3*%
X154680500Y-84500000D03*
X151380500Y-84500000D03*
%TD*%
D27*
%TO.C,R2*%
X110287500Y-89750000D03*
X113212500Y-89750000D03*
%TD*%
D25*
%TO.C,R7*%
X144362500Y-111900000D03*
X141437500Y-111900000D03*
%TD*%
D19*
%TO.C,C9*%
X118975000Y-75500000D03*
X116025000Y-75500000D03*
%TD*%
D27*
%TO.C,R36*%
X140572500Y-74637000D03*
X143497500Y-74637000D03*
%TD*%
D14*
%TO.C,R29*%
X113250000Y-66537500D03*
X113250000Y-69462500D03*
%TD*%
D49*
%TO.C,C3*%
X99500000Y-86400000D03*
X106900000Y-86400000D03*
%TD*%
D14*
%TO.C,R20*%
X128016000Y-97470500D03*
X128016000Y-100395500D03*
%TD*%
D50*
%TO.C,SW1*%
X101100000Y-107350000D03*
X107600000Y-107350000D03*
X101100000Y-111850000D03*
X107600000Y-111850000D03*
%TD*%
D14*
%TO.C,R33*%
X159250000Y-66537500D03*
X159250000Y-69462500D03*
%TD*%
D25*
%TO.C,R17*%
X124000000Y-83000000D03*
X121075000Y-83000000D03*
%TD*%
D17*
%TO.C,C10*%
X128000000Y-105450000D03*
X128000000Y-102500000D03*
%TD*%
D25*
%TO.C,R15*%
X123962500Y-80500000D03*
X121037500Y-80500000D03*
%TD*%
D51*
%TO.C,Q1*%
X115350000Y-107650000D03*
X115350000Y-105750000D03*
X113475000Y-106700000D03*
%TD*%
D17*
%TO.C,C7*%
X122000000Y-88275000D03*
X122000000Y-85325000D03*
%TD*%
D14*
%TO.C,R24*%
X130750000Y-66537500D03*
X130750000Y-69462500D03*
%TD*%
D48*
%TO.C,D6*%
X160500000Y-99750000D03*
X157200000Y-99750000D03*
%TD*%
D27*
%TO.C,R42*%
X162687500Y-99750000D03*
X165612500Y-99750000D03*
%TD*%
D28*
%TO.C,J8*%
X115290000Y-117000000D03*
D29*
X117830000Y-117000000D03*
X120370000Y-117000000D03*
X122910000Y-117000000D03*
%TD*%
D34*
%TO.C,R38*%
X148500000Y-85912500D03*
X148500000Y-82987500D03*
%TD*%
D25*
%TO.C,R4*%
X113250000Y-92210000D03*
X110325000Y-92210000D03*
%TD*%
D27*
%TO.C,R5*%
X156417500Y-87320000D03*
X159342500Y-87320000D03*
%TD*%
D52*
%TO.C,TH1*%
X127762000Y-66628000D03*
X127762000Y-68453000D03*
%TD*%
D53*
%TO.C,Q5*%
X147675000Y-63545000D03*
D54*
X145135000Y-63545000D03*
X142595000Y-63545000D03*
%TD*%
D53*
%TO.C,Q6*%
X159190000Y-63545000D03*
D54*
X156650000Y-63545000D03*
X154110000Y-63545000D03*
%TD*%
D53*
%TO.C,Q2*%
X113130000Y-63545000D03*
D54*
X110590000Y-63545000D03*
X108050000Y-63545000D03*
%TD*%
D53*
%TO.C,Q4*%
X136160000Y-63545000D03*
D54*
X133620000Y-63545000D03*
X131080000Y-63545000D03*
%TD*%
D53*
%TO.C,Q3*%
X124645000Y-63545000D03*
D54*
X122105000Y-63545000D03*
X119565000Y-63545000D03*
%TD*%
%LPD*%
M02*
