%TF.GenerationSoftware,KiCad,Pcbnew,8.0.1*%
%TF.CreationDate,2024-04-29T16:23:36+02:00*%
%TF.ProjectId,CC_Load,43435f4c-6f61-4642-9e6b-696361645f70,rev?*%
%TF.SameCoordinates,Original*%
%TF.FileFunction,Paste,Top*%
%TF.FilePolarity,Positive*%
%FSLAX46Y46*%
G04 Gerber Fmt 4.6, Leading zero omitted, Abs format (unit mm)*
G04 Created by KiCad (PCBNEW 8.0.1) date 2024-04-29 16:23:36*
%MOMM*%
%LPD*%
G01*
G04 APERTURE LIST*
G04 Aperture macros list*
%AMRoundRect*
0 Rectangle with rounded corners*
0 $1 Rounding radius*
0 $2 $3 $4 $5 $6 $7 $8 $9 X,Y pos of 4 corners*
0 Add a 4 corners polygon primitive as box body*
4,1,4,$2,$3,$4,$5,$6,$7,$8,$9,$2,$3,0*
0 Add four circle primitives for the rounded corners*
1,1,$1+$1,$2,$3*
1,1,$1+$1,$4,$5*
1,1,$1+$1,$6,$7*
1,1,$1+$1,$8,$9*
0 Add four rect primitives between the rounded corners*
20,1,$1+$1,$2,$3,$4,$5,0*
20,1,$1+$1,$4,$5,$6,$7,0*
20,1,$1+$1,$6,$7,$8,$9,0*
20,1,$1+$1,$8,$9,$2,$3,0*%
G04 Aperture macros list end*
%ADD10RoundRect,0.150000X0.150000X-0.587500X0.150000X0.587500X-0.150000X0.587500X-0.150000X-0.587500X0*%
%ADD11RoundRect,0.150000X0.587500X0.150000X-0.587500X0.150000X-0.587500X-0.150000X0.587500X-0.150000X0*%
%ADD12RoundRect,0.250000X-0.625000X0.312500X-0.625000X-0.312500X0.625000X-0.312500X0.625000X0.312500X0*%
%ADD13RoundRect,0.250000X-1.950000X-1.000000X1.950000X-1.000000X1.950000X1.000000X-1.950000X1.000000X0*%
%ADD14RoundRect,0.250000X-0.375000X-1.075000X0.375000X-1.075000X0.375000X1.075000X-0.375000X1.075000X0*%
%ADD15RoundRect,0.250000X0.325000X0.650000X-0.325000X0.650000X-0.325000X-0.650000X0.325000X-0.650000X0*%
%ADD16RoundRect,0.250000X1.000000X0.650000X-1.000000X0.650000X-1.000000X-0.650000X1.000000X-0.650000X0*%
%ADD17RoundRect,0.250000X0.312500X0.625000X-0.312500X0.625000X-0.312500X-0.625000X0.312500X-0.625000X0*%
%ADD18RoundRect,0.250000X-0.325000X-0.650000X0.325000X-0.650000X0.325000X0.650000X-0.325000X0.650000X0*%
%ADD19RoundRect,0.250000X-0.312500X-0.625000X0.312500X-0.625000X0.312500X0.625000X-0.312500X0.625000X0*%
%ADD20R,1.400000X1.200000*%
%ADD21RoundRect,0.150000X-0.512500X-0.150000X0.512500X-0.150000X0.512500X0.150000X-0.512500X0.150000X0*%
%ADD22RoundRect,0.150000X-0.825000X-0.150000X0.825000X-0.150000X0.825000X0.150000X-0.825000X0.150000X0*%
%ADD23R,1.600000X0.550000*%
%ADD24R,0.550000X1.600000*%
%ADD25RoundRect,0.100000X-0.637500X-0.100000X0.637500X-0.100000X0.637500X0.100000X-0.637500X0.100000X0*%
%ADD26RoundRect,0.250000X-0.450000X0.262500X-0.450000X-0.262500X0.450000X-0.262500X0.450000X0.262500X0*%
%ADD27RoundRect,0.250000X0.625000X-0.312500X0.625000X0.312500X-0.625000X0.312500X-0.625000X-0.312500X0*%
%ADD28RoundRect,0.250000X0.262500X0.450000X-0.262500X0.450000X-0.262500X-0.450000X0.262500X-0.450000X0*%
%ADD29R,1.240000X0.600000*%
%ADD30R,1.240000X0.300000*%
%ADD31RoundRect,0.225000X0.225000X0.375000X-0.225000X0.375000X-0.225000X-0.375000X0.225000X-0.375000X0*%
%ADD32RoundRect,0.250000X0.375000X1.075000X-0.375000X1.075000X-0.375000X-1.075000X0.375000X-1.075000X0*%
%ADD33RoundRect,0.250000X-0.475000X0.250000X-0.475000X-0.250000X0.475000X-0.250000X0.475000X0.250000X0*%
%ADD34RoundRect,0.250000X0.475000X-0.250000X0.475000X0.250000X-0.475000X0.250000X-0.475000X-0.250000X0*%
%ADD35RoundRect,0.250000X0.650000X-0.325000X0.650000X0.325000X-0.650000X0.325000X-0.650000X-0.325000X0*%
%ADD36RoundRect,0.250000X-0.650000X0.325000X-0.650000X-0.325000X0.650000X-0.325000X0.650000X0.325000X0*%
G04 APERTURE END LIST*
D10*
%TO.C,U7*%
X108362500Y-77037500D03*
X110262500Y-77037500D03*
X109312500Y-75162500D03*
%TD*%
D11*
%TO.C,Q1*%
X115350000Y-107650000D03*
X115350000Y-105750000D03*
X113475000Y-106700000D03*
%TD*%
D12*
%TO.C,R41*%
X148400000Y-112162500D03*
X148400000Y-109237500D03*
%TD*%
D13*
%TO.C,C3*%
X99500000Y-86400000D03*
X106900000Y-86400000D03*
%TD*%
D14*
%TO.C,D4*%
X150800000Y-111450000D03*
X153600000Y-111450000D03*
%TD*%
D15*
%TO.C,C12*%
X144225000Y-94250000D03*
X141275000Y-94250000D03*
%TD*%
D16*
%TO.C,D5*%
X167400000Y-68900000D03*
X163400000Y-68900000D03*
%TD*%
D17*
%TO.C,R34*%
X131200000Y-75000000D03*
X128275000Y-75000000D03*
%TD*%
%TO.C,R28*%
X124000000Y-73000000D03*
X121075000Y-73000000D03*
%TD*%
%TO.C,R27*%
X124000000Y-78000000D03*
X121075000Y-78000000D03*
%TD*%
D18*
%TO.C,C11*%
X121062500Y-75500000D03*
X124012500Y-75500000D03*
%TD*%
D19*
%TO.C,R6*%
X118200000Y-105450000D03*
X121125000Y-105450000D03*
%TD*%
D20*
%TO.C,Y1*%
X119600000Y-94025000D03*
X117400000Y-94025000D03*
X117400000Y-92325000D03*
X119600000Y-92325000D03*
%TD*%
D21*
%TO.C,U6*%
X104337500Y-75450000D03*
X104337500Y-76400000D03*
X104337500Y-77350000D03*
X102062500Y-77350000D03*
X102062500Y-76400000D03*
X102062500Y-75450000D03*
%TD*%
D22*
%TO.C,U5*%
X140525000Y-88095000D03*
X140525000Y-89365000D03*
X140525000Y-90635000D03*
X140525000Y-91905000D03*
X145475000Y-91905000D03*
X145475000Y-90635000D03*
X145475000Y-89365000D03*
X145475000Y-88095000D03*
%TD*%
D23*
%TO.C,U4*%
X125750000Y-87200000D03*
X125750000Y-88000000D03*
X125750000Y-88800000D03*
X125750000Y-89600000D03*
X125750000Y-90400000D03*
X125750000Y-91200000D03*
X125750000Y-92000000D03*
X125750000Y-92800000D03*
D24*
X127200000Y-94250000D03*
X128000000Y-94250000D03*
X128800000Y-94250000D03*
X129600000Y-94250000D03*
X130400000Y-94250000D03*
X131200000Y-94250000D03*
X132000000Y-94250000D03*
X132800000Y-94250000D03*
D23*
X134250000Y-92800000D03*
X134250000Y-92000000D03*
X134250000Y-91200000D03*
X134250000Y-90400000D03*
X134250000Y-89600000D03*
X134250000Y-88800000D03*
X134250000Y-88000000D03*
X134250000Y-87200000D03*
D24*
X132800000Y-85750000D03*
X132000000Y-85750000D03*
X131200000Y-85750000D03*
X130400000Y-85750000D03*
X129600000Y-85750000D03*
X128800000Y-85750000D03*
X128000000Y-85750000D03*
X127200000Y-85750000D03*
%TD*%
D22*
%TO.C,U3*%
X107750000Y-94460000D03*
X107750000Y-95730000D03*
X107750000Y-97000000D03*
X107750000Y-98270000D03*
X107750000Y-99540000D03*
X107750000Y-100810000D03*
X107750000Y-102080000D03*
X107750000Y-103350000D03*
X112700000Y-103350000D03*
X112700000Y-102080000D03*
X112700000Y-100810000D03*
X112700000Y-99540000D03*
X112700000Y-98270000D03*
X112700000Y-97000000D03*
X112700000Y-95730000D03*
X112700000Y-94460000D03*
%TD*%
D25*
%TO.C,U2*%
X129262500Y-77700000D03*
X129262500Y-78350000D03*
X129262500Y-79000000D03*
X129262500Y-79650000D03*
X129262500Y-80300000D03*
X129262500Y-80950000D03*
X129262500Y-81600000D03*
X134987500Y-81600000D03*
X134987500Y-80950000D03*
X134987500Y-80300000D03*
X134987500Y-79650000D03*
X134987500Y-79000000D03*
X134987500Y-78350000D03*
X134987500Y-77700000D03*
%TD*%
D26*
%TO.C,TH1*%
X127762000Y-68453000D03*
X127762000Y-66628000D03*
%TD*%
D19*
%TO.C,R40*%
X110775000Y-79850000D03*
X107850000Y-79850000D03*
%TD*%
D17*
%TO.C,R39*%
X143497500Y-85637000D03*
X140572500Y-85637000D03*
%TD*%
%TO.C,R38*%
X143497500Y-82887000D03*
X140572500Y-82887000D03*
%TD*%
D19*
%TO.C,R36*%
X140572500Y-74637000D03*
X143497500Y-74637000D03*
%TD*%
%TO.C,R35*%
X140572500Y-77387000D03*
X143497500Y-77387000D03*
%TD*%
D12*
%TO.C,R33*%
X159250000Y-66537500D03*
X159250000Y-69462500D03*
%TD*%
%TO.C,R32*%
X147750000Y-66537500D03*
X147750000Y-69462500D03*
%TD*%
%TO.C,R31*%
X136250000Y-66537500D03*
X136250000Y-69462500D03*
%TD*%
%TO.C,R30*%
X124500000Y-66537500D03*
X124500000Y-69462500D03*
%TD*%
%TO.C,R29*%
X113250000Y-66537500D03*
X113250000Y-69462500D03*
%TD*%
%TO.C,R26*%
X154000000Y-66537500D03*
X154000000Y-69462500D03*
%TD*%
%TO.C,R25*%
X142500000Y-66537500D03*
X142500000Y-69462500D03*
%TD*%
%TO.C,R24*%
X130750000Y-66537500D03*
X130750000Y-69462500D03*
%TD*%
%TO.C,R23*%
X119500000Y-66537500D03*
X119500000Y-69462500D03*
%TD*%
%TO.C,R22*%
X108000000Y-66537500D03*
X108000000Y-69462500D03*
%TD*%
D27*
%TO.C,R21*%
X125500000Y-105425000D03*
X125500000Y-102500000D03*
%TD*%
D12*
%TO.C,R20*%
X128016000Y-97470500D03*
X128016000Y-100395500D03*
%TD*%
%TO.C,R19*%
X125603000Y-97470500D03*
X125603000Y-100395500D03*
%TD*%
%TO.C,R18*%
X137000000Y-85537500D03*
X137000000Y-88462500D03*
%TD*%
D17*
%TO.C,R17*%
X118962500Y-73000000D03*
X116037500Y-73000000D03*
%TD*%
%TO.C,R16*%
X124000000Y-83000000D03*
X121075000Y-83000000D03*
%TD*%
%TO.C,R15*%
X121037500Y-80500000D03*
X123962500Y-80500000D03*
%TD*%
D27*
%TO.C,R14*%
X116900000Y-79400000D03*
X116900000Y-82325000D03*
%TD*%
%TO.C,R13*%
X114400000Y-79400000D03*
X114400000Y-82325000D03*
%TD*%
%TO.C,R12*%
X171600000Y-88500000D03*
X171600000Y-85575000D03*
%TD*%
D17*
%TO.C,R11*%
X153662500Y-108200000D03*
X150737500Y-108200000D03*
%TD*%
%TO.C,R10*%
X121125000Y-108200000D03*
X118200000Y-108200000D03*
%TD*%
D19*
%TO.C,R9*%
X154400000Y-87250000D03*
X151475000Y-87250000D03*
%TD*%
%TO.C,R8*%
X100575000Y-65500000D03*
X103500000Y-65500000D03*
%TD*%
D17*
%TO.C,R7*%
X144362500Y-111900000D03*
X141437500Y-111900000D03*
%TD*%
D19*
%TO.C,R5*%
X159342500Y-87320000D03*
X156417500Y-87320000D03*
%TD*%
D17*
%TO.C,R4*%
X113250000Y-92210000D03*
X110325000Y-92210000D03*
%TD*%
D28*
%TO.C,R3*%
X102662500Y-101750000D03*
X100837500Y-101750000D03*
%TD*%
D17*
%TO.C,R2*%
X113212500Y-89750000D03*
X110287500Y-89750000D03*
%TD*%
D28*
%TO.C,R1*%
X102662500Y-98750000D03*
X100837500Y-98750000D03*
%TD*%
D29*
%TO.C,J5*%
X97725000Y-96800000D03*
X97725000Y-97600000D03*
D30*
X97725000Y-98750000D03*
X97725000Y-99750000D03*
X97725000Y-100250000D03*
X97725000Y-101250000D03*
D29*
X97725000Y-102400000D03*
X97725000Y-103200000D03*
X97725000Y-103200000D03*
X97725000Y-102400000D03*
D30*
X97725000Y-101750000D03*
X97725000Y-100750000D03*
X97725000Y-99250000D03*
X97725000Y-98250000D03*
D29*
X97725000Y-97600000D03*
X97725000Y-96800000D03*
%TD*%
D31*
%TO.C,D3*%
X151380500Y-84500000D03*
X154680500Y-84500000D03*
%TD*%
D32*
%TO.C,D2*%
X103437500Y-68500000D03*
X100637500Y-68500000D03*
%TD*%
D16*
%TO.C,D1*%
X117350000Y-111500000D03*
X113350000Y-111500000D03*
%TD*%
D18*
%TO.C,C16*%
X104812500Y-79900000D03*
X101862500Y-79900000D03*
%TD*%
%TO.C,C15*%
X140560000Y-80137000D03*
X143510000Y-80137000D03*
%TD*%
D33*
%TO.C,C14*%
X122000000Y-95775000D03*
X122000000Y-93875000D03*
%TD*%
D34*
%TO.C,C13*%
X122000000Y-90325000D03*
X122000000Y-92225000D03*
%TD*%
D35*
%TO.C,C10*%
X128000000Y-105450000D03*
X128000000Y-102500000D03*
%TD*%
D15*
%TO.C,C9*%
X118975000Y-75500000D03*
X116025000Y-75500000D03*
%TD*%
D36*
%TO.C,C8*%
X137000000Y-94475000D03*
X137000000Y-91525000D03*
%TD*%
D35*
%TO.C,C7*%
X122000000Y-85325000D03*
X122000000Y-88275000D03*
%TD*%
D18*
%TO.C,C6*%
X115550000Y-98250000D03*
X118500000Y-98250000D03*
%TD*%
D33*
%TO.C,C5*%
X97600000Y-72650000D03*
X97600000Y-74550000D03*
%TD*%
D34*
%TO.C,C4*%
X97600000Y-78550000D03*
X97600000Y-76650000D03*
%TD*%
D18*
%TO.C,C2*%
X133062500Y-75000000D03*
X136012500Y-75000000D03*
%TD*%
%TO.C,C1*%
X100775000Y-96000000D03*
X103725000Y-96000000D03*
%TD*%
M02*
