%TF.GenerationSoftware,KiCad,Pcbnew,8.0.1*%
%TF.CreationDate,2024-04-29T16:23:36+02:00*%
%TF.ProjectId,CC_Load,43435f4c-6f61-4642-9e6b-696361645f70,rev?*%
%TF.SameCoordinates,Original*%
%TF.FileFunction,Soldermask,Bot*%
%TF.FilePolarity,Negative*%
%FSLAX46Y46*%
G04 Gerber Fmt 4.6, Leading zero omitted, Abs format (unit mm)*
G04 Created by KiCad (PCBNEW 8.0.1) date 2024-04-29 16:23:36*
%MOMM*%
%LPD*%
G01*
G04 APERTURE LIST*
%ADD10R,1.500000X1.500000*%
%ADD11O,1.700000X1.700000*%
%ADD12R,1.700000X1.700000*%
%ADD13R,2.000000X1.905000*%
%ADD14O,2.000000X1.905000*%
%ADD15C,2.000000*%
%ADD16C,2.400000*%
%ADD17O,2.400000X2.400000*%
%ADD18R,1.905000X2.000000*%
%ADD19O,1.905000X2.000000*%
%ADD20C,0.650000*%
%ADD21O,2.100000X1.000000*%
%ADD22O,1.800000X1.000000*%
%ADD23C,6.400000*%
G04 APERTURE END LIST*
D10*
%TO.C,TP5*%
X148717000Y-96774000D03*
%TD*%
%TO.C,TP1*%
X163576000Y-96774000D03*
%TD*%
D11*
%TO.C,J2*%
X108000000Y-117000000D03*
D12*
X105460000Y-117000000D03*
%TD*%
D13*
%TO.C,U1*%
X93500000Y-78080000D03*
D14*
X93500000Y-75540000D03*
X93500000Y-73000000D03*
%TD*%
D10*
%TO.C,TP4*%
X153797000Y-96774000D03*
%TD*%
%TO.C,TP3*%
X158877000Y-96774000D03*
%TD*%
%TO.C,TP2*%
X168656000Y-96774000D03*
%TD*%
D15*
%TO.C,SW1*%
X101100000Y-107350000D03*
X107600000Y-107350000D03*
X101100000Y-111850000D03*
X107600000Y-111850000D03*
%TD*%
D16*
%TO.C,R37*%
X146780000Y-77000000D03*
D17*
X174720000Y-77000000D03*
%TD*%
D18*
%TO.C,Q6*%
X154080000Y-63500000D03*
D19*
X156620000Y-63500000D03*
X159160000Y-63500000D03*
%TD*%
D18*
%TO.C,Q5*%
X142580000Y-63500000D03*
D19*
X145120000Y-63500000D03*
X147660000Y-63500000D03*
%TD*%
D18*
%TO.C,Q4*%
X131040000Y-63500000D03*
D19*
X133580000Y-63500000D03*
X136120000Y-63500000D03*
%TD*%
D18*
%TO.C,Q3*%
X119500000Y-63500000D03*
D19*
X122040000Y-63500000D03*
X124580000Y-63500000D03*
%TD*%
%TO.C,Q2*%
X113160000Y-63500000D03*
X110620000Y-63500000D03*
D18*
X108080000Y-63500000D03*
%TD*%
D11*
%TO.C,J12*%
X164730000Y-117050000D03*
X162190000Y-117050000D03*
X159650000Y-117050000D03*
D12*
X157110000Y-117050000D03*
%TD*%
%TO.C,J11*%
X176600000Y-106400000D03*
D11*
X176600000Y-103860000D03*
X176600000Y-101320000D03*
X176600000Y-98780000D03*
X176600000Y-96240000D03*
X176600000Y-93700000D03*
%TD*%
D12*
%TO.C,J10*%
X149595000Y-117000000D03*
D11*
X152135000Y-117000000D03*
%TD*%
%TO.C,J9*%
X135940000Y-117000000D03*
X133400000Y-117000000D03*
X130860000Y-117000000D03*
D12*
X128320000Y-117000000D03*
%TD*%
D11*
%TO.C,J8*%
X122910000Y-117000000D03*
X120370000Y-117000000D03*
X117830000Y-117000000D03*
D12*
X115290000Y-117000000D03*
%TD*%
%TO.C,J7*%
X165710000Y-63500000D03*
D11*
X168250000Y-63500000D03*
%TD*%
D12*
%TO.C,J6*%
X176600000Y-88400000D03*
D11*
X176600000Y-85860000D03*
%TD*%
D20*
%TO.C,J5*%
X96605000Y-97110000D03*
X96605000Y-102890000D03*
D21*
X97125000Y-95680000D03*
D22*
X92925000Y-95680000D03*
D21*
X97125000Y-104320000D03*
D22*
X92925000Y-104320000D03*
%TD*%
D11*
%TO.C,J4*%
X144120000Y-117000000D03*
D12*
X141580000Y-117000000D03*
%TD*%
%TO.C,J3*%
X93500000Y-85225000D03*
D11*
X93500000Y-87765000D03*
%TD*%
D12*
%TO.C,J1*%
X163250000Y-87250000D03*
%TD*%
D23*
%TO.C,H4*%
X175000000Y-115000000D03*
%TD*%
%TO.C,H3*%
X95000000Y-115000000D03*
%TD*%
%TO.C,H1*%
X95000000Y-65000000D03*
%TD*%
%TO.C,H2*%
X175000000Y-65000000D03*
%TD*%
M02*
