%TF.GenerationSoftware,KiCad,Pcbnew,9.0.1*%
%TF.CreationDate,2025-04-25T18:02:47+02:00*%
%TF.ProjectId,CC_Load,43435f4c-6f61-4642-9e6b-696361645f70,rev?*%
%TF.SameCoordinates,Original*%
%TF.FileFunction,Soldermask,Top*%
%TF.FilePolarity,Negative*%
%FSLAX46Y46*%
G04 Gerber Fmt 4.6, Leading zero omitted, Abs format (unit mm)*
G04 Created by KiCad (PCBNEW 9.0.1) date 2025-04-25 18:02:47*
%MOMM*%
%LPD*%
G01*
G04 APERTURE LIST*
G04 Aperture macros list*
%AMRoundRect*
0 Rectangle with rounded corners*
0 $1 Rounding radius*
0 $2 $3 $4 $5 $6 $7 $8 $9 X,Y pos of 4 corners*
0 Add a 4 corners polygon primitive as box body*
4,1,4,$2,$3,$4,$5,$6,$7,$8,$9,$2,$3,0*
0 Add four circle primitives for the rounded corners*
1,1,$1+$1,$2,$3*
1,1,$1+$1,$4,$5*
1,1,$1+$1,$6,$7*
1,1,$1+$1,$8,$9*
0 Add four rect primitives between the rounded corners*
20,1,$1+$1,$2,$3,$4,$5,0*
20,1,$1+$1,$4,$5,$6,$7,0*
20,1,$1+$1,$6,$7,$8,$9,0*
20,1,$1+$1,$8,$9,$2,$3,0*%
G04 Aperture macros list end*
%ADD10RoundRect,0.250000X-0.625000X0.312500X-0.625000X-0.312500X0.625000X-0.312500X0.625000X0.312500X0*%
%ADD11R,1.600000X0.550000*%
%ADD12R,0.550000X1.600000*%
%ADD13RoundRect,0.250000X0.650000X-0.325000X0.650000X0.325000X-0.650000X0.325000X-0.650000X-0.325000X0*%
%ADD14RoundRect,0.250000X1.000000X0.650000X-1.000000X0.650000X-1.000000X-0.650000X1.000000X-0.650000X0*%
%ADD15RoundRect,0.250000X0.325000X0.650000X-0.325000X0.650000X-0.325000X-0.650000X0.325000X-0.650000X0*%
%ADD16R,2.000000X1.905000*%
%ADD17O,2.000000X1.905000*%
%ADD18R,1.500000X1.500000*%
%ADD19RoundRect,0.250000X-0.325000X-0.650000X0.325000X-0.650000X0.325000X0.650000X-0.325000X0.650000X0*%
%ADD20RoundRect,0.150000X-0.825000X-0.150000X0.825000X-0.150000X0.825000X0.150000X-0.825000X0.150000X0*%
%ADD21RoundRect,0.250000X0.312500X0.625000X-0.312500X0.625000X-0.312500X-0.625000X0.312500X-0.625000X0*%
%ADD22C,6.400000*%
%ADD23RoundRect,0.250000X-0.312500X-0.625000X0.312500X-0.625000X0.312500X0.625000X-0.312500X0.625000X0*%
%ADD24R,1.700000X1.700000*%
%ADD25C,1.700000*%
%ADD26R,1.400000X1.200000*%
%ADD27RoundRect,0.150000X0.150000X-0.587500X0.150000X0.587500X-0.150000X0.587500X-0.150000X-0.587500X0*%
%ADD28RoundRect,0.250000X0.262500X0.450000X-0.262500X0.450000X-0.262500X-0.450000X0.262500X-0.450000X0*%
%ADD29RoundRect,0.250000X0.475000X-0.250000X0.475000X0.250000X-0.475000X0.250000X-0.475000X-0.250000X0*%
%ADD30RoundRect,0.250000X0.625000X-0.312500X0.625000X0.312500X-0.625000X0.312500X-0.625000X-0.312500X0*%
%ADD31RoundRect,0.250000X-0.650000X0.325000X-0.650000X-0.325000X0.650000X-0.325000X0.650000X0.325000X0*%
%ADD32RoundRect,0.250000X0.375000X1.075000X-0.375000X1.075000X-0.375000X-1.075000X0.375000X-1.075000X0*%
%ADD33RoundRect,0.150000X-0.512500X-0.150000X0.512500X-0.150000X0.512500X0.150000X-0.512500X0.150000X0*%
%ADD34RoundRect,0.100000X-0.637500X-0.100000X0.637500X-0.100000X0.637500X0.100000X-0.637500X0.100000X0*%
%ADD35C,0.650000*%
%ADD36R,1.240000X0.600000*%
%ADD37R,1.240000X0.300000*%
%ADD38O,2.100000X1.000000*%
%ADD39O,1.800000X1.000000*%
%ADD40C,2.400000*%
%ADD41O,2.400000X2.400000*%
%ADD42RoundRect,0.250000X-0.475000X0.250000X-0.475000X-0.250000X0.475000X-0.250000X0.475000X0.250000X0*%
%ADD43RoundRect,0.250000X-0.375000X-1.075000X0.375000X-1.075000X0.375000X1.075000X-0.375000X1.075000X0*%
%ADD44RoundRect,0.225000X0.225000X0.375000X-0.225000X0.375000X-0.225000X-0.375000X0.225000X-0.375000X0*%
%ADD45RoundRect,0.250000X-1.950000X-1.000000X1.950000X-1.000000X1.950000X1.000000X-1.950000X1.000000X0*%
%ADD46C,2.000000*%
%ADD47RoundRect,0.150000X0.587500X0.150000X-0.587500X0.150000X-0.587500X-0.150000X0.587500X-0.150000X0*%
%ADD48RoundRect,0.250000X-0.450000X0.262500X-0.450000X-0.262500X0.450000X-0.262500X0.450000X0.262500X0*%
%ADD49R,1.905000X2.000000*%
%ADD50O,1.905000X2.000000*%
G04 APERTURE END LIST*
D10*
%TO.C,R16*%
X137000000Y-85537500D03*
X137000000Y-88462500D03*
%TD*%
D11*
%TO.C,U4*%
X125750000Y-87200000D03*
X125750000Y-88000000D03*
X125750000Y-88800000D03*
X125750000Y-89600000D03*
X125750000Y-90400000D03*
X125750000Y-91200000D03*
X125750000Y-92000000D03*
X125750000Y-92800000D03*
D12*
X127200000Y-94250000D03*
X128000000Y-94250000D03*
X128800000Y-94250000D03*
X129600000Y-94250000D03*
X130400000Y-94250000D03*
X131200000Y-94250000D03*
X132000000Y-94250000D03*
X132800000Y-94250000D03*
D11*
X134250000Y-92800000D03*
X134250000Y-92000000D03*
X134250000Y-91200000D03*
X134250000Y-90400000D03*
X134250000Y-89600000D03*
X134250000Y-88800000D03*
X134250000Y-88000000D03*
X134250000Y-87200000D03*
D12*
X132800000Y-85750000D03*
X132000000Y-85750000D03*
X131200000Y-85750000D03*
X130400000Y-85750000D03*
X129600000Y-85750000D03*
X128800000Y-85750000D03*
X128000000Y-85750000D03*
X127200000Y-85750000D03*
%TD*%
D13*
%TO.C,C16*%
X146000000Y-85925000D03*
X146000000Y-82975000D03*
%TD*%
D14*
%TO.C,D1*%
X117350000Y-111500000D03*
X113350000Y-111500000D03*
%TD*%
D10*
%TO.C,R19*%
X125603000Y-97470500D03*
X125603000Y-100395500D03*
%TD*%
%TO.C,R22*%
X108000000Y-66537500D03*
X108000000Y-69462500D03*
%TD*%
D15*
%TO.C,C12*%
X144225000Y-94250000D03*
X141275000Y-94250000D03*
%TD*%
D16*
%TO.C,U1*%
X93400000Y-78030000D03*
D17*
X93400000Y-75490000D03*
X93400000Y-72950000D03*
%TD*%
D10*
%TO.C,R30*%
X124500000Y-66537500D03*
X124500000Y-69462500D03*
%TD*%
D18*
%TO.C,TP3*%
X153797000Y-96774000D03*
%TD*%
D19*
%TO.C,C11*%
X121062500Y-75500000D03*
X124012500Y-75500000D03*
%TD*%
D20*
%TO.C,U3*%
X107750000Y-94460000D03*
X107750000Y-95730000D03*
X107750000Y-97000000D03*
X107750000Y-98270000D03*
X107750000Y-99540000D03*
X107750000Y-100810000D03*
X107750000Y-102080000D03*
X107750000Y-103350000D03*
X112700000Y-103350000D03*
X112700000Y-102080000D03*
X112700000Y-100810000D03*
X112700000Y-99540000D03*
X112700000Y-98270000D03*
X112700000Y-97000000D03*
X112700000Y-95730000D03*
X112700000Y-94460000D03*
%TD*%
D21*
%TO.C,R10*%
X121125000Y-108200000D03*
X118200000Y-108200000D03*
%TD*%
D22*
%TO.C,H4*%
X175000000Y-115000000D03*
%TD*%
D20*
%TO.C,U5*%
X140525000Y-88095000D03*
X140525000Y-89365000D03*
X140525000Y-90635000D03*
X140525000Y-91905000D03*
X145475000Y-91905000D03*
X145475000Y-90635000D03*
X145475000Y-89365000D03*
X145475000Y-88095000D03*
%TD*%
D23*
%TO.C,R9*%
X100575000Y-65500000D03*
X103500000Y-65500000D03*
%TD*%
D21*
%TO.C,R27*%
X124000000Y-78000000D03*
X121075000Y-78000000D03*
%TD*%
D24*
%TO.C,J7*%
X165710000Y-63500000D03*
D25*
X168250000Y-63500000D03*
%TD*%
D26*
%TO.C,Y1*%
X119600000Y-92325000D03*
X117400000Y-92325000D03*
X117400000Y-94025000D03*
X119600000Y-94025000D03*
%TD*%
D27*
%TO.C,U7*%
X108362500Y-77037500D03*
X110262500Y-77037500D03*
X109312500Y-75162500D03*
%TD*%
D22*
%TO.C,H3*%
X95000000Y-115000000D03*
%TD*%
D24*
%TO.C,J2*%
X105460000Y-117000000D03*
D25*
X108000000Y-117000000D03*
%TD*%
D24*
%TO.C,J4*%
X141580000Y-117000000D03*
D25*
X144120000Y-117000000D03*
%TD*%
D21*
%TO.C,R40*%
X143497500Y-85637000D03*
X140572500Y-85637000D03*
%TD*%
D28*
%TO.C,R3*%
X102662500Y-101750000D03*
X100837500Y-101750000D03*
%TD*%
%TO.C,R1*%
X102662500Y-98750000D03*
X100837500Y-98750000D03*
%TD*%
D19*
%TO.C,C1*%
X100775000Y-96000000D03*
X103725000Y-96000000D03*
%TD*%
D24*
%TO.C,J14*%
X168800000Y-99275000D03*
D25*
X168800000Y-96735000D03*
%TD*%
D29*
%TO.C,C13*%
X122000000Y-92225000D03*
X122000000Y-90325000D03*
%TD*%
D19*
%TO.C,C15*%
X140560000Y-80137000D03*
X143510000Y-80137000D03*
%TD*%
D30*
%TO.C,R13*%
X114400000Y-82325000D03*
X114400000Y-79400000D03*
%TD*%
D10*
%TO.C,R41*%
X148400000Y-109237500D03*
X148400000Y-112162500D03*
%TD*%
D24*
%TO.C,J11*%
X159920000Y-109500000D03*
D25*
X162460000Y-109500000D03*
X165000000Y-109500000D03*
X167540000Y-109500000D03*
%TD*%
D30*
%TO.C,R14*%
X116900000Y-82325000D03*
X116900000Y-79400000D03*
%TD*%
D13*
%TO.C,C18*%
X171200000Y-111025000D03*
X171200000Y-108075000D03*
%TD*%
D31*
%TO.C,C8*%
X137000000Y-91525000D03*
X137000000Y-94475000D03*
%TD*%
D10*
%TO.C,R25*%
X142500000Y-66537500D03*
X142500000Y-69462500D03*
%TD*%
D19*
%TO.C,C2*%
X133062500Y-75000000D03*
X136012500Y-75000000D03*
%TD*%
D21*
%TO.C,R11*%
X153662500Y-108200000D03*
X150737500Y-108200000D03*
%TD*%
%TO.C,R39*%
X143497500Y-82887000D03*
X140572500Y-82887000D03*
%TD*%
D24*
%TO.C,J13*%
X157110000Y-117050000D03*
D25*
X159650000Y-117050000D03*
X162190000Y-117050000D03*
X164730000Y-117050000D03*
%TD*%
D32*
%TO.C,D2*%
X103437500Y-68500000D03*
X100637500Y-68500000D03*
%TD*%
D21*
%TO.C,R18*%
X118962500Y-73000000D03*
X116037500Y-73000000D03*
%TD*%
D24*
%TO.C,J10*%
X149595000Y-117000000D03*
D25*
X152135000Y-117000000D03*
%TD*%
D22*
%TO.C,H1*%
X95000000Y-65000000D03*
%TD*%
D10*
%TO.C,R31*%
X136250000Y-66537500D03*
X136250000Y-69462500D03*
%TD*%
D14*
%TO.C,D5*%
X167400000Y-68900000D03*
X163400000Y-68900000D03*
%TD*%
D33*
%TO.C,U6*%
X102062500Y-75450000D03*
X102062500Y-76400000D03*
X102062500Y-77350000D03*
X104337500Y-77350000D03*
X104337500Y-76400000D03*
X104337500Y-75450000D03*
%TD*%
D34*
%TO.C,U2*%
X129262500Y-77700000D03*
X129262500Y-78350000D03*
X129262500Y-79000000D03*
X129262500Y-79650000D03*
X129262500Y-80300000D03*
X129262500Y-80950000D03*
X129262500Y-81600000D03*
X134987500Y-81600000D03*
X134987500Y-80950000D03*
X134987500Y-80300000D03*
X134987500Y-79650000D03*
X134987500Y-79000000D03*
X134987500Y-78350000D03*
X134987500Y-77700000D03*
%TD*%
D18*
%TO.C,TP4*%
X148717000Y-96774000D03*
%TD*%
D30*
%TO.C,R21*%
X125500000Y-105425000D03*
X125500000Y-102500000D03*
%TD*%
D23*
%TO.C,R43*%
X107850000Y-79850000D03*
X110775000Y-79850000D03*
%TD*%
D10*
%TO.C,R26*%
X154000000Y-66537500D03*
X154000000Y-69462500D03*
%TD*%
D21*
%TO.C,R34*%
X131200000Y-75000000D03*
X128275000Y-75000000D03*
%TD*%
D23*
%TO.C,R6*%
X118200000Y-105450000D03*
X121125000Y-105450000D03*
%TD*%
D35*
%TO.C,J5*%
X96605000Y-97110000D03*
X96605000Y-102890000D03*
D36*
X97725000Y-96800000D03*
X97725000Y-97600000D03*
D37*
X97725000Y-98750000D03*
X97725000Y-99750000D03*
X97725000Y-100250000D03*
X97725000Y-101250000D03*
D36*
X97725000Y-102400000D03*
X97725000Y-103200000D03*
X97725000Y-103200000D03*
X97725000Y-102400000D03*
D37*
X97725000Y-101750000D03*
X97725000Y-100750000D03*
X97725000Y-99250000D03*
X97725000Y-98250000D03*
D36*
X97725000Y-97600000D03*
X97725000Y-96800000D03*
D38*
X97125000Y-95680000D03*
D39*
X92925000Y-95680000D03*
D38*
X97125000Y-104320000D03*
D39*
X92925000Y-104320000D03*
%TD*%
D24*
%TO.C,J1*%
X165510000Y-87210000D03*
%TD*%
D40*
%TO.C,R37*%
X146780000Y-77000000D03*
D41*
X174720000Y-77000000D03*
%TD*%
D22*
%TO.C,H2*%
X175000000Y-65000000D03*
%TD*%
D10*
%TO.C,R23*%
X119500000Y-66537500D03*
X119500000Y-69462500D03*
%TD*%
D23*
%TO.C,R8*%
X151475000Y-87250000D03*
X154400000Y-87250000D03*
%TD*%
D10*
%TO.C,R32*%
X147750000Y-66537500D03*
X147750000Y-69462500D03*
%TD*%
D24*
%TO.C,J3*%
X93500000Y-85225000D03*
D25*
X93500000Y-87765000D03*
%TD*%
D42*
%TO.C,C5*%
X97600000Y-72650000D03*
X97600000Y-74550000D03*
%TD*%
D29*
%TO.C,C4*%
X97600000Y-78550000D03*
X97600000Y-76650000D03*
%TD*%
D42*
%TO.C,C14*%
X122000000Y-93875000D03*
X122000000Y-95775000D03*
%TD*%
D30*
%TO.C,R12*%
X171600000Y-88500000D03*
X171600000Y-85575000D03*
%TD*%
D23*
%TO.C,R35*%
X140572500Y-77387000D03*
X143497500Y-77387000D03*
%TD*%
D43*
%TO.C,D4*%
X150800000Y-111450000D03*
X153600000Y-111450000D03*
%TD*%
D21*
%TO.C,R28*%
X124000000Y-73000000D03*
X121075000Y-73000000D03*
%TD*%
D19*
%TO.C,C6*%
X115550000Y-98250000D03*
X118500000Y-98250000D03*
%TD*%
D18*
%TO.C,TP1*%
X158950000Y-96700000D03*
%TD*%
D19*
%TO.C,C17*%
X101862500Y-79900000D03*
X104812500Y-79900000D03*
%TD*%
D24*
%TO.C,J6*%
X176600000Y-88400000D03*
D25*
X176600000Y-85860000D03*
%TD*%
D24*
%TO.C,J9*%
X128320000Y-117000000D03*
D25*
X130860000Y-117000000D03*
X133400000Y-117000000D03*
X135940000Y-117000000D03*
%TD*%
D24*
%TO.C,J12*%
X176600000Y-106400000D03*
D25*
X176600000Y-103860000D03*
X176600000Y-101320000D03*
X176600000Y-98780000D03*
X176600000Y-96240000D03*
X176600000Y-93700000D03*
%TD*%
D18*
%TO.C,TP2*%
X164030000Y-96700000D03*
%TD*%
D44*
%TO.C,D3*%
X154680500Y-84500000D03*
X151380500Y-84500000D03*
%TD*%
D23*
%TO.C,R2*%
X110287500Y-89750000D03*
X113212500Y-89750000D03*
%TD*%
D21*
%TO.C,R7*%
X144362500Y-111900000D03*
X141437500Y-111900000D03*
%TD*%
D15*
%TO.C,C9*%
X118975000Y-75500000D03*
X116025000Y-75500000D03*
%TD*%
D23*
%TO.C,R36*%
X140572500Y-74637000D03*
X143497500Y-74637000D03*
%TD*%
D10*
%TO.C,R29*%
X113250000Y-66537500D03*
X113250000Y-69462500D03*
%TD*%
D45*
%TO.C,C3*%
X99500000Y-86400000D03*
X106900000Y-86400000D03*
%TD*%
D10*
%TO.C,R20*%
X128016000Y-97470500D03*
X128016000Y-100395500D03*
%TD*%
D46*
%TO.C,SW1*%
X101100000Y-107350000D03*
X107600000Y-107350000D03*
X101100000Y-111850000D03*
X107600000Y-111850000D03*
%TD*%
D10*
%TO.C,R33*%
X159250000Y-66537500D03*
X159250000Y-69462500D03*
%TD*%
D21*
%TO.C,R17*%
X124000000Y-83000000D03*
X121075000Y-83000000D03*
%TD*%
D13*
%TO.C,C10*%
X128000000Y-105450000D03*
X128000000Y-102500000D03*
%TD*%
D21*
%TO.C,R15*%
X123962500Y-80500000D03*
X121037500Y-80500000D03*
%TD*%
D47*
%TO.C,Q1*%
X115350000Y-107650000D03*
X115350000Y-105750000D03*
X113475000Y-106700000D03*
%TD*%
D13*
%TO.C,C7*%
X122000000Y-88275000D03*
X122000000Y-85325000D03*
%TD*%
D10*
%TO.C,R24*%
X130750000Y-66537500D03*
X130750000Y-69462500D03*
%TD*%
D44*
%TO.C,D6*%
X160500000Y-99750000D03*
X157200000Y-99750000D03*
%TD*%
D23*
%TO.C,R42*%
X162687500Y-99750000D03*
X165612500Y-99750000D03*
%TD*%
D24*
%TO.C,J8*%
X115290000Y-117000000D03*
D25*
X117830000Y-117000000D03*
X120370000Y-117000000D03*
X122910000Y-117000000D03*
%TD*%
D30*
%TO.C,R38*%
X148500000Y-85912500D03*
X148500000Y-82987500D03*
%TD*%
D21*
%TO.C,R4*%
X113250000Y-92210000D03*
X110325000Y-92210000D03*
%TD*%
D23*
%TO.C,R5*%
X156417500Y-87320000D03*
X159342500Y-87320000D03*
%TD*%
D48*
%TO.C,TH1*%
X127762000Y-66628000D03*
X127762000Y-68453000D03*
%TD*%
D49*
%TO.C,Q5*%
X147675000Y-63545000D03*
D50*
X145135000Y-63545000D03*
X142595000Y-63545000D03*
%TD*%
D49*
%TO.C,Q6*%
X159190000Y-63545000D03*
D50*
X156650000Y-63545000D03*
X154110000Y-63545000D03*
%TD*%
D49*
%TO.C,Q2*%
X113130000Y-63545000D03*
D50*
X110590000Y-63545000D03*
X108050000Y-63545000D03*
%TD*%
D49*
%TO.C,Q4*%
X136160000Y-63545000D03*
D50*
X133620000Y-63545000D03*
X131080000Y-63545000D03*
%TD*%
D49*
%TO.C,Q3*%
X124645000Y-63545000D03*
D50*
X122105000Y-63545000D03*
X119565000Y-63545000D03*
%TD*%
M02*
