%TF.GenerationSoftware,KiCad,Pcbnew,9.0.1*%
%TF.CreationDate,2025-04-25T18:02:47+02:00*%
%TF.ProjectId,CC_Load,43435f4c-6f61-4642-9e6b-696361645f70,rev?*%
%TF.SameCoordinates,Original*%
%TF.FileFunction,Soldermask,Bot*%
%TF.FilePolarity,Negative*%
%FSLAX46Y46*%
G04 Gerber Fmt 4.6, Leading zero omitted, Abs format (unit mm)*
G04 Created by KiCad (PCBNEW 9.0.1) date 2025-04-25 18:02:47*
%MOMM*%
%LPD*%
G01*
G04 APERTURE LIST*
%ADD10R,2.000000X1.905000*%
%ADD11O,2.000000X1.905000*%
%ADD12R,1.500000X1.500000*%
%ADD13C,6.400000*%
%ADD14R,1.700000X1.700000*%
%ADD15C,1.700000*%
%ADD16C,0.650000*%
%ADD17O,2.100000X1.000000*%
%ADD18O,1.800000X1.000000*%
%ADD19C,2.400000*%
%ADD20O,2.400000X2.400000*%
%ADD21C,2.000000*%
%ADD22R,1.905000X2.000000*%
%ADD23O,1.905000X2.000000*%
G04 APERTURE END LIST*
D10*
%TO.C,U1*%
X93400000Y-78030000D03*
D11*
X93400000Y-75490000D03*
X93400000Y-72950000D03*
%TD*%
D12*
%TO.C,TP3*%
X153797000Y-96774000D03*
%TD*%
D13*
%TO.C,H4*%
X175000000Y-115000000D03*
%TD*%
D14*
%TO.C,J7*%
X165710000Y-63500000D03*
D15*
X168250000Y-63500000D03*
%TD*%
D13*
%TO.C,H3*%
X95000000Y-115000000D03*
%TD*%
D14*
%TO.C,J2*%
X105460000Y-117000000D03*
D15*
X108000000Y-117000000D03*
%TD*%
D14*
%TO.C,J4*%
X141580000Y-117000000D03*
D15*
X144120000Y-117000000D03*
%TD*%
D14*
%TO.C,J14*%
X168800000Y-99275000D03*
D15*
X168800000Y-96735000D03*
%TD*%
D14*
%TO.C,J11*%
X159920000Y-109500000D03*
D15*
X162460000Y-109500000D03*
X165000000Y-109500000D03*
X167540000Y-109500000D03*
%TD*%
D14*
%TO.C,J13*%
X157110000Y-117050000D03*
D15*
X159650000Y-117050000D03*
X162190000Y-117050000D03*
X164730000Y-117050000D03*
%TD*%
D14*
%TO.C,J10*%
X149595000Y-117000000D03*
D15*
X152135000Y-117000000D03*
%TD*%
D13*
%TO.C,H1*%
X95000000Y-65000000D03*
%TD*%
D12*
%TO.C,TP4*%
X148717000Y-96774000D03*
%TD*%
D16*
%TO.C,J5*%
X96605000Y-97110000D03*
X96605000Y-102890000D03*
D17*
X97125000Y-95680000D03*
D18*
X92925000Y-95680000D03*
D17*
X97125000Y-104320000D03*
D18*
X92925000Y-104320000D03*
%TD*%
D14*
%TO.C,J1*%
X165510000Y-87210000D03*
%TD*%
D19*
%TO.C,R37*%
X146780000Y-77000000D03*
D20*
X174720000Y-77000000D03*
%TD*%
D13*
%TO.C,H2*%
X175000000Y-65000000D03*
%TD*%
D14*
%TO.C,J3*%
X93500000Y-85225000D03*
D15*
X93500000Y-87765000D03*
%TD*%
D12*
%TO.C,TP1*%
X158950000Y-96700000D03*
%TD*%
D14*
%TO.C,J6*%
X176600000Y-88400000D03*
D15*
X176600000Y-85860000D03*
%TD*%
D14*
%TO.C,J9*%
X128320000Y-117000000D03*
D15*
X130860000Y-117000000D03*
X133400000Y-117000000D03*
X135940000Y-117000000D03*
%TD*%
D14*
%TO.C,J12*%
X176600000Y-106400000D03*
D15*
X176600000Y-103860000D03*
X176600000Y-101320000D03*
X176600000Y-98780000D03*
X176600000Y-96240000D03*
X176600000Y-93700000D03*
%TD*%
D12*
%TO.C,TP2*%
X164030000Y-96700000D03*
%TD*%
D21*
%TO.C,SW1*%
X101100000Y-107350000D03*
X107600000Y-107350000D03*
X101100000Y-111850000D03*
X107600000Y-111850000D03*
%TD*%
D14*
%TO.C,J8*%
X115290000Y-117000000D03*
D15*
X117830000Y-117000000D03*
X120370000Y-117000000D03*
X122910000Y-117000000D03*
%TD*%
D22*
%TO.C,Q5*%
X147675000Y-63545000D03*
D23*
X145135000Y-63545000D03*
X142595000Y-63545000D03*
%TD*%
D22*
%TO.C,Q6*%
X159190000Y-63545000D03*
D23*
X156650000Y-63545000D03*
X154110000Y-63545000D03*
%TD*%
D22*
%TO.C,Q2*%
X113130000Y-63545000D03*
D23*
X110590000Y-63545000D03*
X108050000Y-63545000D03*
%TD*%
D22*
%TO.C,Q4*%
X136160000Y-63545000D03*
D23*
X133620000Y-63545000D03*
X131080000Y-63545000D03*
%TD*%
D22*
%TO.C,Q3*%
X124645000Y-63545000D03*
D23*
X122105000Y-63545000D03*
X119565000Y-63545000D03*
%TD*%
M02*
