%TF.GenerationSoftware,KiCad,Pcbnew,8.0.1*%
%TF.CreationDate,2024-04-29T16:23:36+02:00*%
%TF.ProjectId,CC_Load,43435f4c-6f61-4642-9e6b-696361645f70,rev?*%
%TF.SameCoordinates,Original*%
%TF.FileFunction,Other,User*%
%FSLAX46Y46*%
G04 Gerber Fmt 4.6, Leading zero omitted, Abs format (unit mm)*
G04 Created by KiCad (PCBNEW 8.0.1) date 2024-04-29 16:23:36*
%MOMM*%
%LPD*%
G01*
G04 APERTURE LIST*
%ADD10C,0.050000*%
G04 APERTURE END LIST*
D10*
%TO.C,U7*%
X107612500Y-78020000D02*
X111012500Y-78020000D01*
X111012500Y-78020000D02*
X111012500Y-74180000D01*
X107612500Y-74180000D02*
X107612500Y-78020000D01*
X111012500Y-74180000D02*
X107612500Y-74180000D01*
%TO.C,Q1*%
X116332500Y-108400000D02*
X116332500Y-105000000D01*
X116332500Y-105000000D02*
X112492500Y-105000000D01*
X112492500Y-108400000D02*
X116332500Y-108400000D01*
X112492500Y-105000000D02*
X112492500Y-108400000D01*
%TO.C,R41*%
X147280000Y-112980000D02*
X147280000Y-108420000D01*
X149520000Y-112980000D02*
X147280000Y-112980000D01*
X147280000Y-108420000D02*
X149520000Y-108420000D01*
X149520000Y-108420000D02*
X149520000Y-112980000D01*
%TO.C,TP5*%
X147467000Y-95524000D02*
X147467000Y-98024000D01*
X147467000Y-95524000D02*
X149967000Y-95524000D01*
X149967000Y-98024000D02*
X147467000Y-98024000D01*
X149967000Y-98024000D02*
X149967000Y-95524000D01*
%TO.C,TP1*%
X162326000Y-95524000D02*
X162326000Y-98024000D01*
X162326000Y-95524000D02*
X164826000Y-95524000D01*
X164826000Y-98024000D02*
X162326000Y-98024000D01*
X164826000Y-98024000D02*
X164826000Y-95524000D01*
%TO.C,C3*%
X97050000Y-84900000D02*
X97050000Y-87900000D01*
X97050000Y-87900000D02*
X98700000Y-87900000D01*
X98700000Y-83050000D02*
X98700000Y-84900000D01*
X98700000Y-83050000D02*
X99850000Y-81900000D01*
X98700000Y-84900000D02*
X97050000Y-84900000D01*
X98700000Y-87900000D02*
X98700000Y-89750000D01*
X98700000Y-89750000D02*
X99850000Y-90900000D01*
X99850000Y-81900000D02*
X107700000Y-81900000D01*
X99850000Y-90900000D02*
X107700000Y-90900000D01*
X107700000Y-81900000D02*
X107700000Y-84900000D01*
X107700000Y-84900000D02*
X109350000Y-84900000D01*
X107700000Y-87900000D02*
X107700000Y-90900000D01*
X109350000Y-84900000D02*
X109350000Y-87900000D01*
X109350000Y-87900000D02*
X107700000Y-87900000D01*
%TO.C,D4*%
X149920000Y-109870000D02*
X154480000Y-109870000D01*
X149920000Y-113030000D02*
X149920000Y-109870000D01*
X154480000Y-109870000D02*
X154480000Y-113030000D01*
X154480000Y-113030000D02*
X149920000Y-113030000D01*
%TO.C,C12*%
X145050000Y-95400000D02*
X140450000Y-95400000D01*
X145050000Y-93100000D02*
X145050000Y-95400000D01*
X140450000Y-95400000D02*
X140450000Y-93100000D01*
X140450000Y-93100000D02*
X145050000Y-93100000D01*
%TO.C,D5*%
X168900000Y-70650000D02*
X161900000Y-70650000D01*
X168900000Y-67150000D02*
X168900000Y-70650000D01*
X161900000Y-70650000D02*
X161900000Y-67150000D01*
X161900000Y-67150000D02*
X168900000Y-67150000D01*
%TO.C,R34*%
X132017500Y-76120000D02*
X127457500Y-76120000D01*
X132017500Y-73880000D02*
X132017500Y-76120000D01*
X127457500Y-76120000D02*
X127457500Y-73880000D01*
X127457500Y-73880000D02*
X132017500Y-73880000D01*
%TO.C,R28*%
X124817500Y-74120000D02*
X120257500Y-74120000D01*
X124817500Y-71880000D02*
X124817500Y-74120000D01*
X120257500Y-74120000D02*
X120257500Y-71880000D01*
X120257500Y-71880000D02*
X124817500Y-71880000D01*
%TO.C,R27*%
X124817500Y-79120000D02*
X120257500Y-79120000D01*
X124817500Y-76880000D02*
X124817500Y-79120000D01*
X120257500Y-79120000D02*
X120257500Y-76880000D01*
X120257500Y-76880000D02*
X124817500Y-76880000D01*
%TO.C,C11*%
X120237500Y-74350000D02*
X124837500Y-74350000D01*
X120237500Y-76650000D02*
X120237500Y-74350000D01*
X124837500Y-74350000D02*
X124837500Y-76650000D01*
X124837500Y-76650000D02*
X120237500Y-76650000D01*
%TO.C,R6*%
X117382500Y-104330000D02*
X121942500Y-104330000D01*
X117382500Y-106570000D02*
X117382500Y-104330000D01*
X121942500Y-104330000D02*
X121942500Y-106570000D01*
X121942500Y-106570000D02*
X117382500Y-106570000D01*
%TO.C,J2*%
X109810000Y-115200000D02*
X103660000Y-115200000D01*
X103660000Y-115200000D02*
X103660000Y-118800000D01*
X109810000Y-118800000D02*
X109810000Y-115200000D01*
X103660000Y-118800000D02*
X109810000Y-118800000D01*
%TO.C,Y1*%
X116400000Y-91475000D02*
X116400000Y-94875000D01*
X116400000Y-94875000D02*
X120600000Y-94875000D01*
X120600000Y-91475000D02*
X116400000Y-91475000D01*
X120600000Y-94875000D02*
X120600000Y-91475000D01*
%TO.C,U6*%
X105250000Y-78100000D02*
X105250000Y-74700000D01*
X105250000Y-74700000D02*
X101150000Y-74700000D01*
X101150000Y-78100000D02*
X105250000Y-78100000D01*
X101150000Y-74700000D02*
X101150000Y-78100000D01*
%TO.C,U5*%
X139300000Y-87300000D02*
X139300000Y-92700000D01*
X139300000Y-92700000D02*
X146700000Y-92700000D01*
X146700000Y-87300000D02*
X139300000Y-87300000D01*
X146700000Y-92700000D02*
X146700000Y-87300000D01*
%TO.C,U4*%
X124700000Y-84700000D02*
X124700000Y-95300000D01*
X124700000Y-84700000D02*
X135300000Y-84700000D01*
X124700000Y-95300000D02*
X135300000Y-95300000D01*
X135300000Y-84700000D02*
X135300000Y-95300000D01*
%TO.C,U3*%
X106525000Y-93705000D02*
X106525000Y-104105000D01*
X106525000Y-104105000D02*
X113925000Y-104105000D01*
X113925000Y-93705000D02*
X106525000Y-93705000D01*
X113925000Y-104105000D02*
X113925000Y-93705000D01*
%TO.C,U2*%
X128275000Y-76900000D02*
X128275000Y-82400000D01*
X128275000Y-82400000D02*
X135975000Y-82400000D01*
X135975000Y-76900000D02*
X128275000Y-76900000D01*
X135975000Y-82400000D02*
X135975000Y-76900000D01*
%TO.C,U1*%
X90100000Y-80790000D02*
X95010000Y-80790000D01*
X95010000Y-80790000D02*
X95010000Y-70290000D01*
X90100000Y-70290000D02*
X90100000Y-80790000D01*
X95010000Y-70290000D02*
X90100000Y-70290000D01*
%TO.C,TP4*%
X155047000Y-98024000D02*
X155047000Y-95524000D01*
X155047000Y-98024000D02*
X152547000Y-98024000D01*
X152547000Y-95524000D02*
X155047000Y-95524000D01*
X152547000Y-95524000D02*
X152547000Y-98024000D01*
%TO.C,TP3*%
X157627000Y-95524000D02*
X157627000Y-98024000D01*
X157627000Y-95524000D02*
X160127000Y-95524000D01*
X160127000Y-98024000D02*
X157627000Y-98024000D01*
X160127000Y-98024000D02*
X160127000Y-95524000D01*
%TO.C,TP2*%
X169906000Y-98024000D02*
X169906000Y-95524000D01*
X169906000Y-98024000D02*
X167406000Y-98024000D01*
X167406000Y-95524000D02*
X169906000Y-95524000D01*
X167406000Y-95524000D02*
X167406000Y-98024000D01*
%TO.C,TH1*%
X126812000Y-69220500D02*
X126812000Y-65860500D01*
X128712000Y-69220500D02*
X126812000Y-69220500D01*
X126812000Y-65860500D02*
X128712000Y-65860500D01*
X128712000Y-65860500D02*
X128712000Y-69220500D01*
%TO.C,SW1*%
X99600000Y-105850000D02*
X99850000Y-105850000D01*
X99600000Y-106100000D02*
X99600000Y-105850000D01*
X99600000Y-113100000D02*
X99600000Y-106100000D01*
X99600000Y-113100000D02*
X99600000Y-113350000D01*
X99600000Y-113350000D02*
X99850000Y-113350000D01*
X99850000Y-105850000D02*
X108850000Y-105850000D01*
X108850000Y-105850000D02*
X109100000Y-105850000D01*
X108850000Y-113350000D02*
X99850000Y-113350000D01*
X108850000Y-113350000D02*
X109100000Y-113350000D01*
X109100000Y-105850000D02*
X109100000Y-106100000D01*
X109100000Y-106100000D02*
X109100000Y-113100000D01*
X109100000Y-113350000D02*
X109100000Y-113100000D01*
%TO.C,R40*%
X111592500Y-80970000D02*
X107032500Y-80970000D01*
X111592500Y-78730000D02*
X111592500Y-80970000D01*
X107032500Y-80970000D02*
X107032500Y-78730000D01*
X107032500Y-78730000D02*
X111592500Y-78730000D01*
%TO.C,R39*%
X144315000Y-86757000D02*
X139755000Y-86757000D01*
X144315000Y-84517000D02*
X144315000Y-86757000D01*
X139755000Y-86757000D02*
X139755000Y-84517000D01*
X139755000Y-84517000D02*
X144315000Y-84517000D01*
%TO.C,R38*%
X144315000Y-84007000D02*
X139755000Y-84007000D01*
X144315000Y-81767000D02*
X144315000Y-84007000D01*
X139755000Y-84007000D02*
X139755000Y-81767000D01*
X139755000Y-81767000D02*
X144315000Y-81767000D01*
%TO.C,R37*%
X145330000Y-72250000D02*
X145330000Y-81750000D01*
X145330000Y-81750000D02*
X176170000Y-81750000D01*
X176170000Y-72250000D02*
X145330000Y-72250000D01*
X176170000Y-81750000D02*
X176170000Y-72250000D01*
%TO.C,R36*%
X139755000Y-73517000D02*
X144315000Y-73517000D01*
X139755000Y-75757000D02*
X139755000Y-73517000D01*
X144315000Y-73517000D02*
X144315000Y-75757000D01*
X144315000Y-75757000D02*
X139755000Y-75757000D01*
%TO.C,R35*%
X139755000Y-76267000D02*
X144315000Y-76267000D01*
X139755000Y-78507000D02*
X139755000Y-76267000D01*
X144315000Y-76267000D02*
X144315000Y-78507000D01*
X144315000Y-78507000D02*
X139755000Y-78507000D01*
%TO.C,R33*%
X160370000Y-65720000D02*
X160370000Y-70280000D01*
X158130000Y-65720000D02*
X160370000Y-65720000D01*
X160370000Y-70280000D02*
X158130000Y-70280000D01*
X158130000Y-70280000D02*
X158130000Y-65720000D01*
%TO.C,R32*%
X148870000Y-65720000D02*
X148870000Y-70280000D01*
X146630000Y-65720000D02*
X148870000Y-65720000D01*
X148870000Y-70280000D02*
X146630000Y-70280000D01*
X146630000Y-70280000D02*
X146630000Y-65720000D01*
%TO.C,R31*%
X137370000Y-65720000D02*
X137370000Y-70280000D01*
X135130000Y-65720000D02*
X137370000Y-65720000D01*
X137370000Y-70280000D02*
X135130000Y-70280000D01*
X135130000Y-70280000D02*
X135130000Y-65720000D01*
%TO.C,R30*%
X125620000Y-65720000D02*
X125620000Y-70280000D01*
X123380000Y-65720000D02*
X125620000Y-65720000D01*
X125620000Y-70280000D02*
X123380000Y-70280000D01*
X123380000Y-70280000D02*
X123380000Y-65720000D01*
%TO.C,R29*%
X114370000Y-65720000D02*
X114370000Y-70280000D01*
X112130000Y-65720000D02*
X114370000Y-65720000D01*
X114370000Y-70280000D02*
X112130000Y-70280000D01*
X112130000Y-70280000D02*
X112130000Y-65720000D01*
%TO.C,R26*%
X155120000Y-65720000D02*
X155120000Y-70280000D01*
X152880000Y-65720000D02*
X155120000Y-65720000D01*
X155120000Y-70280000D02*
X152880000Y-70280000D01*
X152880000Y-70280000D02*
X152880000Y-65720000D01*
%TO.C,R25*%
X143620000Y-65720000D02*
X143620000Y-70280000D01*
X141380000Y-65720000D02*
X143620000Y-65720000D01*
X143620000Y-70280000D02*
X141380000Y-70280000D01*
X141380000Y-70280000D02*
X141380000Y-65720000D01*
%TO.C,R24*%
X131870000Y-65720000D02*
X131870000Y-70280000D01*
X129630000Y-65720000D02*
X131870000Y-65720000D01*
X131870000Y-70280000D02*
X129630000Y-70280000D01*
X129630000Y-70280000D02*
X129630000Y-65720000D01*
%TO.C,R23*%
X120620000Y-65720000D02*
X120620000Y-70280000D01*
X118380000Y-65720000D02*
X120620000Y-65720000D01*
X120620000Y-70280000D02*
X118380000Y-70280000D01*
X118380000Y-70280000D02*
X118380000Y-65720000D01*
%TO.C,R22*%
X109120000Y-65720000D02*
X109120000Y-70280000D01*
X106880000Y-65720000D02*
X109120000Y-65720000D01*
X109120000Y-70280000D02*
X106880000Y-70280000D01*
X106880000Y-70280000D02*
X106880000Y-65720000D01*
%TO.C,R21*%
X124380000Y-106242500D02*
X124380000Y-101682500D01*
X126620000Y-106242500D02*
X124380000Y-106242500D01*
X124380000Y-101682500D02*
X126620000Y-101682500D01*
X126620000Y-101682500D02*
X126620000Y-106242500D01*
%TO.C,R20*%
X129136000Y-96653000D02*
X129136000Y-101213000D01*
X126896000Y-96653000D02*
X129136000Y-96653000D01*
X129136000Y-101213000D02*
X126896000Y-101213000D01*
X126896000Y-101213000D02*
X126896000Y-96653000D01*
%TO.C,R19*%
X126723000Y-96653000D02*
X126723000Y-101213000D01*
X124483000Y-96653000D02*
X126723000Y-96653000D01*
X126723000Y-101213000D02*
X124483000Y-101213000D01*
X124483000Y-101213000D02*
X124483000Y-96653000D01*
%TO.C,R18*%
X138120000Y-84720000D02*
X138120000Y-89280000D01*
X135880000Y-84720000D02*
X138120000Y-84720000D01*
X138120000Y-89280000D02*
X135880000Y-89280000D01*
X135880000Y-89280000D02*
X135880000Y-84720000D01*
%TO.C,R17*%
X119780000Y-74120000D02*
X115220000Y-74120000D01*
X119780000Y-71880000D02*
X119780000Y-74120000D01*
X115220000Y-74120000D02*
X115220000Y-71880000D01*
X115220000Y-71880000D02*
X119780000Y-71880000D01*
%TO.C,R16*%
X124817500Y-84120000D02*
X120257500Y-84120000D01*
X124817500Y-81880000D02*
X124817500Y-84120000D01*
X120257500Y-84120000D02*
X120257500Y-81880000D01*
X120257500Y-81880000D02*
X124817500Y-81880000D01*
%TO.C,R15*%
X120220000Y-79380000D02*
X124780000Y-79380000D01*
X120220000Y-81620000D02*
X120220000Y-79380000D01*
X124780000Y-79380000D02*
X124780000Y-81620000D01*
X124780000Y-81620000D02*
X120220000Y-81620000D01*
%TO.C,R14*%
X118020000Y-78582500D02*
X118020000Y-83142500D01*
X115780000Y-78582500D02*
X118020000Y-78582500D01*
X118020000Y-83142500D02*
X115780000Y-83142500D01*
X115780000Y-83142500D02*
X115780000Y-78582500D01*
%TO.C,R13*%
X115520000Y-78582500D02*
X115520000Y-83142500D01*
X113280000Y-78582500D02*
X115520000Y-78582500D01*
X115520000Y-83142500D02*
X113280000Y-83142500D01*
X113280000Y-83142500D02*
X113280000Y-78582500D01*
%TO.C,R12*%
X170480000Y-89317500D02*
X170480000Y-84757500D01*
X172720000Y-89317500D02*
X170480000Y-89317500D01*
X170480000Y-84757500D02*
X172720000Y-84757500D01*
X172720000Y-84757500D02*
X172720000Y-89317500D01*
%TO.C,R11*%
X154480000Y-109320000D02*
X149920000Y-109320000D01*
X154480000Y-107080000D02*
X154480000Y-109320000D01*
X149920000Y-109320000D02*
X149920000Y-107080000D01*
X149920000Y-107080000D02*
X154480000Y-107080000D01*
%TO.C,R10*%
X121942500Y-109320000D02*
X117382500Y-109320000D01*
X121942500Y-107080000D02*
X121942500Y-109320000D01*
X117382500Y-109320000D02*
X117382500Y-107080000D01*
X117382500Y-107080000D02*
X121942500Y-107080000D01*
%TO.C,R9*%
X155217500Y-88370000D02*
X150657500Y-88370000D01*
X155217500Y-86130000D02*
X155217500Y-88370000D01*
X150657500Y-88370000D02*
X150657500Y-86130000D01*
X150657500Y-86130000D02*
X155217500Y-86130000D01*
%TO.C,R8*%
X99757500Y-64380000D02*
X104317500Y-64380000D01*
X99757500Y-66620000D02*
X99757500Y-64380000D01*
X104317500Y-64380000D02*
X104317500Y-66620000D01*
X104317500Y-66620000D02*
X99757500Y-66620000D01*
%TO.C,R7*%
X145180000Y-113020000D02*
X140620000Y-113020000D01*
X145180000Y-110780000D02*
X145180000Y-113020000D01*
X140620000Y-113020000D02*
X140620000Y-110780000D01*
X140620000Y-110780000D02*
X145180000Y-110780000D01*
%TO.C,R5*%
X160160000Y-88440000D02*
X155600000Y-88440000D01*
X160160000Y-86200000D02*
X160160000Y-88440000D01*
X155600000Y-88440000D02*
X155600000Y-86200000D01*
X155600000Y-86200000D02*
X160160000Y-86200000D01*
%TO.C,R4*%
X114067500Y-93330000D02*
X109507500Y-93330000D01*
X114067500Y-91090000D02*
X114067500Y-93330000D01*
X109507500Y-93330000D02*
X109507500Y-91090000D01*
X109507500Y-91090000D02*
X114067500Y-91090000D01*
%TO.C,R3*%
X103430000Y-102700000D02*
X100070000Y-102700000D01*
X103430000Y-100800000D02*
X103430000Y-102700000D01*
X100070000Y-102700000D02*
X100070000Y-100800000D01*
X100070000Y-100800000D02*
X103430000Y-100800000D01*
%TO.C,R2*%
X114030000Y-90870000D02*
X109470000Y-90870000D01*
X114030000Y-88630000D02*
X114030000Y-90870000D01*
X109470000Y-90870000D02*
X109470000Y-88630000D01*
X109470000Y-88630000D02*
X114030000Y-88630000D01*
%TO.C,R1*%
X103430000Y-99700000D02*
X100070000Y-99700000D01*
X103430000Y-97800000D02*
X103430000Y-99700000D01*
X100070000Y-99700000D02*
X100070000Y-97800000D01*
X100070000Y-97800000D02*
X103430000Y-97800000D01*
%TO.C,Q6*%
X151370000Y-60100000D02*
X151370000Y-65010000D01*
X151370000Y-65010000D02*
X161870000Y-65010000D01*
X161870000Y-60100000D02*
X151370000Y-60100000D01*
X161870000Y-65010000D02*
X161870000Y-60100000D01*
%TO.C,Q5*%
X139870000Y-60100000D02*
X139870000Y-65010000D01*
X139870000Y-65010000D02*
X150370000Y-65010000D01*
X150370000Y-60100000D02*
X139870000Y-60100000D01*
X150370000Y-65010000D02*
X150370000Y-60100000D01*
%TO.C,Q4*%
X128330000Y-60100000D02*
X128330000Y-65010000D01*
X128330000Y-65010000D02*
X138830000Y-65010000D01*
X138830000Y-60100000D02*
X128330000Y-60100000D01*
X138830000Y-65010000D02*
X138830000Y-60100000D01*
%TO.C,Q3*%
X116790000Y-60100000D02*
X116790000Y-65010000D01*
X116790000Y-65010000D02*
X127290000Y-65010000D01*
X127290000Y-60100000D02*
X116790000Y-60100000D01*
X127290000Y-65010000D02*
X127290000Y-60100000D01*
%TO.C,Q2*%
X115870000Y-65010000D02*
X115870000Y-60100000D01*
X115870000Y-60100000D02*
X105370000Y-60100000D01*
X105370000Y-65010000D02*
X115870000Y-65010000D01*
X105370000Y-60100000D02*
X105370000Y-65010000D01*
%TO.C,J12*%
X166510000Y-115250000D02*
X155310000Y-115250000D01*
X155310000Y-115250000D02*
X155310000Y-118850000D01*
X166510000Y-118850000D02*
X166510000Y-115250000D01*
X155310000Y-118850000D02*
X166510000Y-118850000D01*
%TO.C,J11*%
X178400000Y-108200000D02*
X178400000Y-91900000D01*
X178400000Y-91900000D02*
X174800000Y-91900000D01*
X174800000Y-108200000D02*
X178400000Y-108200000D01*
X174800000Y-91900000D02*
X174800000Y-108200000D01*
%TO.C,J10*%
X147795000Y-118800000D02*
X153945000Y-118800000D01*
X153945000Y-118800000D02*
X153945000Y-115200000D01*
X147795000Y-115200000D02*
X147795000Y-118800000D01*
X153945000Y-115200000D02*
X147795000Y-115200000D01*
%TO.C,J9*%
X137720000Y-115200000D02*
X126520000Y-115200000D01*
X126520000Y-115200000D02*
X126520000Y-118800000D01*
X137720000Y-118800000D02*
X137720000Y-115200000D01*
X126520000Y-118800000D02*
X137720000Y-118800000D01*
%TO.C,J8*%
X124690000Y-115200000D02*
X113490000Y-115200000D01*
X113490000Y-115200000D02*
X113490000Y-118800000D01*
X124690000Y-118800000D02*
X124690000Y-115200000D01*
X113490000Y-118800000D02*
X124690000Y-118800000D01*
%TO.C,J7*%
X163910000Y-65300000D02*
X170060000Y-65300000D01*
X170060000Y-65300000D02*
X170060000Y-61700000D01*
X163910000Y-61700000D02*
X163910000Y-65300000D01*
X170060000Y-61700000D02*
X163910000Y-61700000D01*
%TO.C,J6*%
X178400000Y-90200000D02*
X178400000Y-84050000D01*
X178400000Y-84050000D02*
X174800000Y-84050000D01*
X174800000Y-90200000D02*
X178400000Y-90200000D01*
X174800000Y-84050000D02*
X174800000Y-90200000D01*
%TO.C,J5*%
X98850000Y-94680000D02*
X98850000Y-105320000D01*
X89820000Y-94680000D02*
X98850000Y-94680000D01*
X98850000Y-105320000D02*
X89820000Y-105320000D01*
X89820000Y-105320000D02*
X89820000Y-94680000D01*
%TO.C,J4*%
X145930000Y-115200000D02*
X139780000Y-115200000D01*
X139780000Y-115200000D02*
X139780000Y-118800000D01*
X145930000Y-118800000D02*
X145930000Y-115200000D01*
X139780000Y-118800000D02*
X145930000Y-118800000D01*
%TO.C,J3*%
X91700000Y-83425000D02*
X91700000Y-89575000D01*
X91700000Y-89575000D02*
X95300000Y-89575000D01*
X95300000Y-83425000D02*
X91700000Y-83425000D01*
X95300000Y-89575000D02*
X95300000Y-83425000D01*
%TO.C,J1*%
X165050000Y-89050000D02*
X165050000Y-85450000D01*
X165050000Y-85450000D02*
X161450000Y-85450000D01*
X161450000Y-89050000D02*
X165050000Y-89050000D01*
X161450000Y-85450000D02*
X161450000Y-89050000D01*
%TO.C,D3*%
X150680500Y-83350000D02*
X155380500Y-83350000D01*
X150680500Y-85650000D02*
X150680500Y-83350000D01*
X155380500Y-85650000D02*
X150680500Y-85650000D01*
X155380500Y-85650000D02*
X155380500Y-83350000D01*
%TO.C,D2*%
X104317500Y-70080000D02*
X99757500Y-70080000D01*
X104317500Y-66920000D02*
X104317500Y-70080000D01*
X99757500Y-70080000D02*
X99757500Y-66920000D01*
X99757500Y-66920000D02*
X104317500Y-66920000D01*
%TO.C,D1*%
X118850000Y-113250000D02*
X111850000Y-113250000D01*
X118850000Y-109750000D02*
X118850000Y-113250000D01*
X111850000Y-113250000D02*
X111850000Y-109750000D01*
X111850000Y-109750000D02*
X118850000Y-109750000D01*
%TO.C,C16*%
X105637500Y-81050000D02*
X101037500Y-81050000D01*
X105637500Y-78750000D02*
X105637500Y-81050000D01*
X101037500Y-81050000D02*
X101037500Y-78750000D01*
X101037500Y-78750000D02*
X105637500Y-78750000D01*
%TO.C,C15*%
X139735000Y-78987000D02*
X144335000Y-78987000D01*
X139735000Y-81287000D02*
X139735000Y-78987000D01*
X144335000Y-78987000D02*
X144335000Y-81287000D01*
X144335000Y-81287000D02*
X139735000Y-81287000D01*
%TO.C,C14*%
X121020000Y-96525000D02*
X121020000Y-93125000D01*
X122980000Y-96525000D02*
X121020000Y-96525000D01*
X121020000Y-93125000D02*
X122980000Y-93125000D01*
X122980000Y-93125000D02*
X122980000Y-96525000D01*
%TO.C,C13*%
X122980000Y-89575000D02*
X122980000Y-92975000D01*
X121020000Y-89575000D02*
X122980000Y-89575000D01*
X122980000Y-92975000D02*
X121020000Y-92975000D01*
X121020000Y-92975000D02*
X121020000Y-89575000D01*
%TO.C,C10*%
X126850000Y-106275000D02*
X126850000Y-101675000D01*
X129150000Y-106275000D02*
X126850000Y-106275000D01*
X126850000Y-101675000D02*
X129150000Y-101675000D01*
X129150000Y-101675000D02*
X129150000Y-106275000D01*
%TO.C,C9*%
X119800000Y-76650000D02*
X115200000Y-76650000D01*
X119800000Y-74350000D02*
X119800000Y-76650000D01*
X115200000Y-76650000D02*
X115200000Y-74350000D01*
X115200000Y-74350000D02*
X119800000Y-74350000D01*
%TO.C,C8*%
X135850000Y-95300000D02*
X135850000Y-90700000D01*
X138150000Y-95300000D02*
X135850000Y-95300000D01*
X135850000Y-90700000D02*
X138150000Y-90700000D01*
X138150000Y-90700000D02*
X138150000Y-95300000D01*
%TO.C,C7*%
X123150000Y-84500000D02*
X123150000Y-89100000D01*
X120850000Y-84500000D02*
X123150000Y-84500000D01*
X123150000Y-89100000D02*
X120850000Y-89100000D01*
X120850000Y-89100000D02*
X120850000Y-84500000D01*
%TO.C,C6*%
X114725000Y-97100000D02*
X119325000Y-97100000D01*
X114725000Y-99400000D02*
X114725000Y-97100000D01*
X119325000Y-97100000D02*
X119325000Y-99400000D01*
X119325000Y-99400000D02*
X114725000Y-99400000D01*
%TO.C,C5*%
X98580000Y-71900000D02*
X98580000Y-75300000D01*
X96620000Y-71900000D02*
X98580000Y-71900000D01*
X98580000Y-75300000D02*
X96620000Y-75300000D01*
X96620000Y-75300000D02*
X96620000Y-71900000D01*
%TO.C,C4*%
X96620000Y-79300000D02*
X96620000Y-75900000D01*
X98580000Y-79300000D02*
X96620000Y-79300000D01*
X96620000Y-75900000D02*
X98580000Y-75900000D01*
X98580000Y-75900000D02*
X98580000Y-79300000D01*
%TO.C,C2*%
X132237500Y-73850000D02*
X136837500Y-73850000D01*
X132237500Y-76150000D02*
X132237500Y-73850000D01*
X136837500Y-73850000D02*
X136837500Y-76150000D01*
X136837500Y-76150000D02*
X132237500Y-76150000D01*
%TO.C,C1*%
X99950000Y-94850000D02*
X104550000Y-94850000D01*
X99950000Y-97150000D02*
X99950000Y-94850000D01*
X104550000Y-94850000D02*
X104550000Y-97150000D01*
X104550000Y-97150000D02*
X99950000Y-97150000D01*
%TO.C,H4*%
X178450000Y-115000000D02*
G75*
G02*
X171550000Y-115000000I-3450000J0D01*
G01*
X171550000Y-115000000D02*
G75*
G02*
X178450000Y-115000000I3450000J0D01*
G01*
%TO.C,H3*%
X98450000Y-115000000D02*
G75*
G02*
X91550000Y-115000000I-3450000J0D01*
G01*
X91550000Y-115000000D02*
G75*
G02*
X98450000Y-115000000I3450000J0D01*
G01*
%TO.C,H1*%
X98450000Y-65000000D02*
G75*
G02*
X91550000Y-65000000I-3450000J0D01*
G01*
X91550000Y-65000000D02*
G75*
G02*
X98450000Y-65000000I3450000J0D01*
G01*
%TO.C,H2*%
X178450000Y-65000000D02*
G75*
G02*
X171550000Y-65000000I-3450000J0D01*
G01*
X171550000Y-65000000D02*
G75*
G02*
X178450000Y-65000000I3450000J0D01*
G01*
%TD*%
M02*
