M48
; DRILL file {KiCad 8.0.1} date 2024-04-29T16:23:29+0200
; FORMAT={-:-/ absolute / inch / decimal}
; #@! TF.CreationDate,2024-04-29T16:23:29+02:00
; #@! TF.GenerationSoftware,Kicad,Pcbnew,8.0.1
; #@! TF.FileFunction,Plated,1,2,PTH
FMAT,2
INCH
; #@! TA.AperFunction,Plated,PTH,ViaDrill
T1C0.0118
; #@! TA.AperFunction,Plated,PTH,ComponentDrill
T2C0.0236
; #@! TA.AperFunction,Plated,PTH,ComponentDrill
T3C0.0276
; #@! TA.AperFunction,Plated,PTH,ComponentDrill
T4C0.0394
; #@! TA.AperFunction,Plated,PTH,ComponentDrill
T5C0.0433
; #@! TA.AperFunction,Plated,PTH,ComponentDrill
T6C0.0472
; #@! TA.AperFunction,Plated,PTH,ComponentDrill
T7C0.1260
%
G90
G05
T1
X3.8Y-3.865
X3.8Y-3.9033
X3.8Y-3.9483
X3.8Y-4.01
X3.84Y-2.98
X3.89Y-4.06
X3.895Y-3.81
X3.92Y-2.58
X3.925Y-3.78
X4.06Y-3.01
X4.08Y-3.89
X4.08Y-4.005
X4.165Y-3.01
X4.17Y-3.145
X4.185Y-3.72
X4.19Y-3.045
X4.375Y-3.035
X4.505Y-3.275
X4.57Y-2.925
X4.59Y-4.165
X4.6Y-3.275
X4.62Y-3.585
X4.67Y-3.815
X4.71Y-3.745
X4.8Y-3.32
X4.805Y-3.52
X4.805Y-3.81
X4.81Y-4.15
X4.82Y-4.26
X4.865Y-3.455
X4.925Y-3.78
X4.945Y-3.895
X5.005Y-3.495
X5.005Y-3.56
X5.03Y-2.585
X5.03Y-2.73
X5.04Y-3.45
X5.04Y-3.895
X5.04Y-4.0
X5.075Y-3.595
X5.1Y-3.425
X5.1Y-3.48
X5.13Y-3.5
X5.135Y-3.325
X5.165Y-3.325
X5.195Y-3.505
X5.2Y-3.76
X5.23Y-3.325
X5.235Y-3.53
X5.24Y-2.9
X5.26Y-3.135
X5.26Y-3.71
X5.33Y-3.655
X5.34Y-3.435
X5.34Y-3.465
X5.395Y-2.955
X5.395Y-3.525
X5.395Y-3.76
X5.4Y-4.09
X5.41Y-4.06
X5.42Y-4.03
X5.48Y-3.565
X5.48Y-3.62
X5.49Y-3.37
X5.56Y-3.775
X5.6Y-3.52
X5.6929Y-3.1587
X5.735Y-4.405
X5.84Y-4.255
X5.92Y-3.435
X5.9201Y-3.3268
X6.08Y-3.49
X6.095Y-4.26
X6.665Y-2.71
X6.705Y-3.485
X6.755Y-3.325
T3
X5.855Y-3.81
X6.055Y-3.81
X6.255Y-3.81
X6.44Y-3.81
X6.64Y-3.81
T4
X3.6811Y-3.3553
X3.6811Y-3.4553
X4.152Y-4.6063
X4.252Y-4.6063
X4.539Y-4.6063
X4.639Y-4.6063
X4.739Y-4.6063
X4.839Y-4.6063
X5.052Y-4.6063
X5.152Y-4.6063
X5.252Y-4.6063
X5.352Y-4.6063
X5.574Y-4.6063
X5.674Y-4.6063
X5.8896Y-4.6063
X5.9896Y-4.6063
X6.1854Y-4.6083
X6.2854Y-4.6083
X6.3854Y-4.6083
X6.4272Y-3.435
X6.4854Y-4.6083
X6.524Y-2.5
X6.624Y-2.5
X6.9528Y-3.3803
X6.9528Y-3.4803
X6.9528Y-3.689
X6.9528Y-3.789
X6.9528Y-3.889
X6.9528Y-3.989
X6.9528Y-4.089
X6.9528Y-4.189
T5
X3.6811Y-2.874
X3.6811Y-2.974
X3.6811Y-3.074
X3.9803Y-4.2264
X3.9803Y-4.4035
X4.2362Y-4.2264
X4.2362Y-4.4035
X4.2551Y-2.5
X4.3551Y-2.5
X4.4551Y-2.5
X4.7047Y-2.5
X4.8047Y-2.5
X4.9047Y-2.5
X5.1591Y-2.5
X5.2591Y-2.5
X5.3591Y-2.5
X5.6134Y-2.5
X5.7134Y-2.5
X5.8134Y-2.5
X6.0661Y-2.5
X6.1661Y-2.5
X6.2661Y-2.5
T6
X5.7787Y-3.0315
X6.8787Y-3.0315
T7
X3.7402Y-2.5591
X3.7402Y-4.5276
X6.8898Y-2.5591
X6.8898Y-4.5276
T2
G00X3.6742Y-3.7669
M15
G01X3.6427Y-3.7669
M16
G05
G00X3.6742Y-4.1071
M15
G01X3.6427Y-4.1071
M16
G05
G00X3.8455Y-3.7669
M15
G01X3.8022Y-3.7669
M16
G05
G00X3.8455Y-4.1071
M15
G01X3.8022Y-4.1071
M16
G05
M30
