M48
; DRILL file {KiCad 9.0.1} date 2025-04-25T18:02:49+0200
; FORMAT={-:-/ absolute / inch / decimal}
; #@! TF.CreationDate,2025-04-25T18:02:49+02:00
; #@! TF.GenerationSoftware,Kicad,Pcbnew,9.0.1
; #@! TF.FileFunction,Plated,1,2,PTH
FMAT,2
INCH
; #@! TA.AperFunction,Plated,PTH,ViaDrill
T1C0.0118
; #@! TA.AperFunction,Plated,PTH,ComponentDrill
T2C0.0236
; #@! TA.AperFunction,Plated,PTH,ComponentDrill
T3C0.0276
; #@! TA.AperFunction,Plated,PTH,ComponentDrill
T4C0.0394
; #@! TA.AperFunction,Plated,PTH,ComponentDrill
T5C0.0433
; #@! TA.AperFunction,Plated,PTH,ComponentDrill
T6C0.0472
; #@! TA.AperFunction,Plated,PTH,ComponentDrill
T7C0.1260
%
G90
G05
T1
X3.8Y-3.865
X3.8Y-3.9033
X3.8Y-3.9483
X3.8Y-4.01
X3.84Y-2.98
X3.89Y-4.06
X3.895Y-3.81
X3.92Y-2.58
X3.925Y-3.78
X4.06Y-3.01
X4.08Y-3.89
X4.08Y-4.005
X4.165Y-3.01
X4.17Y-3.145
X4.185Y-3.72
X4.19Y-3.045
X4.3071Y-3.2953
X4.3505Y-3.7974
X4.375Y-3.035
X4.505Y-3.275
X4.57Y-2.925
X4.59Y-4.165
X4.6Y-3.275
X4.62Y-3.585
X4.67Y-3.815
X4.71Y-3.745
X4.7972Y-4.1516
X4.8Y-3.32
X4.805Y-3.52
X4.805Y-3.81
X4.82Y-4.26
X4.8976Y-3.8082
X4.9449Y-3.8819
X4.9518Y-3.7854
X4.9753Y-3.7834
X5.002Y-3.439
X5.005Y-3.495
X5.005Y-3.56
X5.03Y-2.585
X5.03Y-2.73
X5.0374Y-3.437
X5.0394Y-3.7677
X5.04Y-4.0
X5.0413Y-3.8799
X5.061Y-3.4744
X5.0906Y-3.4724
X5.1Y-3.425
X5.1024Y-3.5906
X5.13Y-3.5
X5.135Y-3.325
X5.1634Y-3.5
X5.165Y-3.325
X5.195Y-3.505
X5.2Y-3.76
X5.23Y-3.325
X5.235Y-3.53
X5.24Y-2.9
X5.26Y-3.135
X5.26Y-3.71
X5.2953Y-4.0157
X5.3282Y-4.0182
X5.33Y-3.655
X5.34Y-3.435
X5.34Y-3.465
X5.3669Y-4.0169
X5.395Y-2.955
X5.395Y-3.525
X5.395Y-3.76
X5.4076Y-4.0176
X5.48Y-3.565
X5.48Y-3.62
X5.49Y-3.37
X5.56Y-3.775
X5.6Y-3.52
X5.6929Y-3.1587
X5.735Y-4.405
X5.84Y-4.255
X5.8622Y-4.187
X5.8701Y-4.1634
X5.92Y-3.435
X5.9201Y-3.3268
X5.9764Y-3.9311
X6.08Y-3.49
X6.0846Y-4.3701
X6.095Y-4.26
X6.665Y-2.71
X6.705Y-3.485
X6.755Y-3.325
X6.7795Y-3.65
T3
X5.855Y-3.81
X6.055Y-3.81
X6.2579Y-3.8071
X6.4579Y-3.8071
T4
X3.6811Y-3.3553
X3.6811Y-3.4553
X4.152Y-4.6063
X4.252Y-4.6063
X4.539Y-4.6063
X4.639Y-4.6063
X4.739Y-4.6063
X4.839Y-4.6063
X5.052Y-4.6063
X5.152Y-4.6063
X5.252Y-4.6063
X5.352Y-4.6063
X5.574Y-4.6063
X5.674Y-4.6063
X5.8896Y-4.6063
X5.9896Y-4.6063
X6.1854Y-4.6083
X6.2854Y-4.6083
X6.2961Y-4.311
X6.3854Y-4.6083
X6.3961Y-4.311
X6.4854Y-4.6083
X6.4961Y-4.311
X6.5161Y-3.4335
X6.524Y-2.5
X6.5961Y-4.311
X6.624Y-2.5
X6.6457Y-3.8085
X6.6457Y-3.9085
X6.9528Y-3.3803
X6.9528Y-3.4803
X6.9528Y-3.689
X6.9528Y-3.789
X6.9528Y-3.889
X6.9528Y-3.989
X6.9528Y-4.089
X6.9528Y-4.189
T5
X3.6772Y-2.872
X3.6772Y-2.972
X3.6772Y-3.072
X3.9803Y-4.2264
X3.9803Y-4.4035
X4.2362Y-4.2264
X4.2362Y-4.4035
X4.2539Y-2.5018
X4.3539Y-2.5018
X4.4539Y-2.5018
X4.7073Y-2.5018
X4.8073Y-2.5018
X4.9073Y-2.5018
X5.1606Y-2.5018
X5.2606Y-2.5018
X5.3606Y-2.5018
X5.614Y-2.5018
X5.714Y-2.5018
X5.814Y-2.5018
X6.0673Y-2.5018
X6.1673Y-2.5018
X6.2673Y-2.5018
T6
X5.7787Y-3.0315
X6.8787Y-3.0315
T7
X3.7402Y-2.5591
X3.7402Y-4.5276
X6.8898Y-2.5591
X6.8898Y-4.5276
T2
G00X3.6742Y-3.7669
M15
G01X3.6427Y-3.7669
M16
G05
G00X3.6742Y-4.1071
M15
G01X3.6427Y-4.1071
M16
G05
G00X3.8455Y-3.7669
M15
G01X3.8022Y-3.7669
M16
G05
G00X3.8455Y-4.1071
M15
G01X3.8022Y-4.1071
M16
G05
M30
