%TF.GenerationSoftware,KiCad,Pcbnew,8.0.1*%
%TF.CreationDate,2024-04-29T16:23:36+02:00*%
%TF.ProjectId,CC_Load,43435f4c-6f61-4642-9e6b-696361645f70,rev?*%
%TF.SameCoordinates,Original*%
%TF.FileFunction,Legend,Top*%
%TF.FilePolarity,Positive*%
%FSLAX46Y46*%
G04 Gerber Fmt 4.6, Leading zero omitted, Abs format (unit mm)*
G04 Created by KiCad (PCBNEW 8.0.1) date 2024-04-29 16:23:36*
%MOMM*%
%LPD*%
G01*
G04 APERTURE LIST*
G04 Aperture macros list*
%AMRoundRect*
0 Rectangle with rounded corners*
0 $1 Rounding radius*
0 $2 $3 $4 $5 $6 $7 $8 $9 X,Y pos of 4 corners*
0 Add a 4 corners polygon primitive as box body*
4,1,4,$2,$3,$4,$5,$6,$7,$8,$9,$2,$3,0*
0 Add four circle primitives for the rounded corners*
1,1,$1+$1,$2,$3*
1,1,$1+$1,$4,$5*
1,1,$1+$1,$6,$7*
1,1,$1+$1,$8,$9*
0 Add four rect primitives between the rounded corners*
20,1,$1+$1,$2,$3,$4,$5,0*
20,1,$1+$1,$4,$5,$6,$7,0*
20,1,$1+$1,$6,$7,$8,$9,0*
20,1,$1+$1,$8,$9,$2,$3,0*%
G04 Aperture macros list end*
%ADD10C,0.200000*%
%ADD11C,0.150000*%
%ADD12C,0.400000*%
%ADD13C,0.120000*%
%ADD14RoundRect,0.150000X0.150000X-0.587500X0.150000X0.587500X-0.150000X0.587500X-0.150000X-0.587500X0*%
%ADD15RoundRect,0.150000X0.587500X0.150000X-0.587500X0.150000X-0.587500X-0.150000X0.587500X-0.150000X0*%
%ADD16RoundRect,0.250000X-0.625000X0.312500X-0.625000X-0.312500X0.625000X-0.312500X0.625000X0.312500X0*%
%ADD17R,1.500000X1.500000*%
%ADD18RoundRect,0.250000X-1.950000X-1.000000X1.950000X-1.000000X1.950000X1.000000X-1.950000X1.000000X0*%
%ADD19RoundRect,0.250000X-0.375000X-1.075000X0.375000X-1.075000X0.375000X1.075000X-0.375000X1.075000X0*%
%ADD20RoundRect,0.250000X0.325000X0.650000X-0.325000X0.650000X-0.325000X-0.650000X0.325000X-0.650000X0*%
%ADD21RoundRect,0.250000X1.000000X0.650000X-1.000000X0.650000X-1.000000X-0.650000X1.000000X-0.650000X0*%
%ADD22RoundRect,0.250000X0.312500X0.625000X-0.312500X0.625000X-0.312500X-0.625000X0.312500X-0.625000X0*%
%ADD23RoundRect,0.250000X-0.325000X-0.650000X0.325000X-0.650000X0.325000X0.650000X-0.325000X0.650000X0*%
%ADD24RoundRect,0.250000X-0.312500X-0.625000X0.312500X-0.625000X0.312500X0.625000X-0.312500X0.625000X0*%
%ADD25O,1.700000X1.700000*%
%ADD26R,1.700000X1.700000*%
%ADD27R,1.400000X1.200000*%
%ADD28RoundRect,0.150000X-0.512500X-0.150000X0.512500X-0.150000X0.512500X0.150000X-0.512500X0.150000X0*%
%ADD29RoundRect,0.150000X-0.825000X-0.150000X0.825000X-0.150000X0.825000X0.150000X-0.825000X0.150000X0*%
%ADD30R,1.600000X0.550000*%
%ADD31R,0.550000X1.600000*%
%ADD32RoundRect,0.100000X-0.637500X-0.100000X0.637500X-0.100000X0.637500X0.100000X-0.637500X0.100000X0*%
%ADD33R,2.000000X1.905000*%
%ADD34O,2.000000X1.905000*%
%ADD35RoundRect,0.250000X-0.450000X0.262500X-0.450000X-0.262500X0.450000X-0.262500X0.450000X0.262500X0*%
%ADD36C,2.000000*%
%ADD37C,2.400000*%
%ADD38O,2.400000X2.400000*%
%ADD39RoundRect,0.250000X0.625000X-0.312500X0.625000X0.312500X-0.625000X0.312500X-0.625000X-0.312500X0*%
%ADD40RoundRect,0.250000X0.262500X0.450000X-0.262500X0.450000X-0.262500X-0.450000X0.262500X-0.450000X0*%
%ADD41R,1.905000X2.000000*%
%ADD42O,1.905000X2.000000*%
%ADD43C,0.650000*%
%ADD44R,1.240000X0.600000*%
%ADD45R,1.240000X0.300000*%
%ADD46O,2.100000X1.000000*%
%ADD47O,1.800000X1.000000*%
%ADD48RoundRect,0.225000X0.225000X0.375000X-0.225000X0.375000X-0.225000X-0.375000X0.225000X-0.375000X0*%
%ADD49RoundRect,0.250000X0.375000X1.075000X-0.375000X1.075000X-0.375000X-1.075000X0.375000X-1.075000X0*%
%ADD50RoundRect,0.250000X-0.475000X0.250000X-0.475000X-0.250000X0.475000X-0.250000X0.475000X0.250000X0*%
%ADD51RoundRect,0.250000X0.475000X-0.250000X0.475000X0.250000X-0.475000X0.250000X-0.475000X-0.250000X0*%
%ADD52RoundRect,0.250000X0.650000X-0.325000X0.650000X0.325000X-0.650000X0.325000X-0.650000X-0.325000X0*%
%ADD53RoundRect,0.250000X-0.650000X0.325000X-0.650000X-0.325000X0.650000X-0.325000X0.650000X0.325000X0*%
%ADD54C,6.400000*%
G04 APERTURE END LIST*
D10*
X102651143Y-105700742D02*
X102251143Y-105129314D01*
X101965429Y-105700742D02*
X101965429Y-104500742D01*
X101965429Y-104500742D02*
X102422572Y-104500742D01*
X102422572Y-104500742D02*
X102536857Y-104557885D01*
X102536857Y-104557885D02*
X102594000Y-104615028D01*
X102594000Y-104615028D02*
X102651143Y-104729314D01*
X102651143Y-104729314D02*
X102651143Y-104900742D01*
X102651143Y-104900742D02*
X102594000Y-105015028D01*
X102594000Y-105015028D02*
X102536857Y-105072171D01*
X102536857Y-105072171D02*
X102422572Y-105129314D01*
X102422572Y-105129314D02*
X101965429Y-105129314D01*
X103165429Y-105072171D02*
X103565429Y-105072171D01*
X103736857Y-105700742D02*
X103165429Y-105700742D01*
X103165429Y-105700742D02*
X103165429Y-104500742D01*
X103165429Y-104500742D02*
X103736857Y-104500742D01*
X104194000Y-105643600D02*
X104365429Y-105700742D01*
X104365429Y-105700742D02*
X104651143Y-105700742D01*
X104651143Y-105700742D02*
X104765429Y-105643600D01*
X104765429Y-105643600D02*
X104822571Y-105586457D01*
X104822571Y-105586457D02*
X104879714Y-105472171D01*
X104879714Y-105472171D02*
X104879714Y-105357885D01*
X104879714Y-105357885D02*
X104822571Y-105243600D01*
X104822571Y-105243600D02*
X104765429Y-105186457D01*
X104765429Y-105186457D02*
X104651143Y-105129314D01*
X104651143Y-105129314D02*
X104422571Y-105072171D01*
X104422571Y-105072171D02*
X104308286Y-105015028D01*
X104308286Y-105015028D02*
X104251143Y-104957885D01*
X104251143Y-104957885D02*
X104194000Y-104843600D01*
X104194000Y-104843600D02*
X104194000Y-104729314D01*
X104194000Y-104729314D02*
X104251143Y-104615028D01*
X104251143Y-104615028D02*
X104308286Y-104557885D01*
X104308286Y-104557885D02*
X104422571Y-104500742D01*
X104422571Y-104500742D02*
X104708286Y-104500742D01*
X104708286Y-104500742D02*
X104879714Y-104557885D01*
X105394000Y-105072171D02*
X105794000Y-105072171D01*
X105965428Y-105700742D02*
X105394000Y-105700742D01*
X105394000Y-105700742D02*
X105394000Y-104500742D01*
X105394000Y-104500742D02*
X105965428Y-104500742D01*
X106308285Y-104500742D02*
X106994000Y-104500742D01*
X106651142Y-105700742D02*
X106651142Y-104500742D01*
X167739857Y-94745885D02*
X168311286Y-94745885D01*
X167625571Y-95088742D02*
X168025571Y-93888742D01*
X168025571Y-93888742D02*
X168425571Y-95088742D01*
X168711285Y-93888742D02*
X169511285Y-93888742D01*
X169511285Y-93888742D02*
X168996999Y-95088742D01*
X162739857Y-94745885D02*
X163311286Y-94745885D01*
X162625571Y-95088742D02*
X163025571Y-93888742D01*
X163025571Y-93888742D02*
X163425571Y-95088742D01*
X164339857Y-93888742D02*
X164111285Y-93888742D01*
X164111285Y-93888742D02*
X163996999Y-93945885D01*
X163996999Y-93945885D02*
X163939857Y-94003028D01*
X163939857Y-94003028D02*
X163825571Y-94174457D01*
X163825571Y-94174457D02*
X163768428Y-94403028D01*
X163768428Y-94403028D02*
X163768428Y-94860171D01*
X163768428Y-94860171D02*
X163825571Y-94974457D01*
X163825571Y-94974457D02*
X163882714Y-95031600D01*
X163882714Y-95031600D02*
X163996999Y-95088742D01*
X163996999Y-95088742D02*
X164225571Y-95088742D01*
X164225571Y-95088742D02*
X164339857Y-95031600D01*
X164339857Y-95031600D02*
X164396999Y-94974457D01*
X164396999Y-94974457D02*
X164454142Y-94860171D01*
X164454142Y-94860171D02*
X164454142Y-94574457D01*
X164454142Y-94574457D02*
X164396999Y-94460171D01*
X164396999Y-94460171D02*
X164339857Y-94403028D01*
X164339857Y-94403028D02*
X164225571Y-94345885D01*
X164225571Y-94345885D02*
X163996999Y-94345885D01*
X163996999Y-94345885D02*
X163882714Y-94403028D01*
X163882714Y-94403028D02*
X163825571Y-94460171D01*
X163825571Y-94460171D02*
X163768428Y-94574457D01*
X158039857Y-94745885D02*
X158611286Y-94745885D01*
X157925571Y-95088742D02*
X158325571Y-93888742D01*
X158325571Y-93888742D02*
X158725571Y-95088742D01*
X159011285Y-93888742D02*
X159754142Y-93888742D01*
X159754142Y-93888742D02*
X159354142Y-94345885D01*
X159354142Y-94345885D02*
X159525571Y-94345885D01*
X159525571Y-94345885D02*
X159639857Y-94403028D01*
X159639857Y-94403028D02*
X159696999Y-94460171D01*
X159696999Y-94460171D02*
X159754142Y-94574457D01*
X159754142Y-94574457D02*
X159754142Y-94860171D01*
X159754142Y-94860171D02*
X159696999Y-94974457D01*
X159696999Y-94974457D02*
X159639857Y-95031600D01*
X159639857Y-95031600D02*
X159525571Y-95088742D01*
X159525571Y-95088742D02*
X159182714Y-95088742D01*
X159182714Y-95088742D02*
X159068428Y-95031600D01*
X159068428Y-95031600D02*
X159011285Y-94974457D01*
X152911286Y-95088742D02*
X152911286Y-93888742D01*
X152911286Y-93888742D02*
X153197000Y-93888742D01*
X153197000Y-93888742D02*
X153368429Y-93945885D01*
X153368429Y-93945885D02*
X153482714Y-94060171D01*
X153482714Y-94060171D02*
X153539857Y-94174457D01*
X153539857Y-94174457D02*
X153597000Y-94403028D01*
X153597000Y-94403028D02*
X153597000Y-94574457D01*
X153597000Y-94574457D02*
X153539857Y-94803028D01*
X153539857Y-94803028D02*
X153482714Y-94917314D01*
X153482714Y-94917314D02*
X153368429Y-95031600D01*
X153368429Y-95031600D02*
X153197000Y-95088742D01*
X153197000Y-95088742D02*
X152911286Y-95088742D01*
X154625572Y-94288742D02*
X154625572Y-95088742D01*
X154339857Y-93831600D02*
X154054143Y-94688742D01*
X154054143Y-94688742D02*
X154797000Y-94688742D01*
X147782714Y-93945885D02*
X147668429Y-93888742D01*
X147668429Y-93888742D02*
X147497000Y-93888742D01*
X147497000Y-93888742D02*
X147325571Y-93945885D01*
X147325571Y-93945885D02*
X147211286Y-94060171D01*
X147211286Y-94060171D02*
X147154143Y-94174457D01*
X147154143Y-94174457D02*
X147097000Y-94403028D01*
X147097000Y-94403028D02*
X147097000Y-94574457D01*
X147097000Y-94574457D02*
X147154143Y-94803028D01*
X147154143Y-94803028D02*
X147211286Y-94917314D01*
X147211286Y-94917314D02*
X147325571Y-95031600D01*
X147325571Y-95031600D02*
X147497000Y-95088742D01*
X147497000Y-95088742D02*
X147611286Y-95088742D01*
X147611286Y-95088742D02*
X147782714Y-95031600D01*
X147782714Y-95031600D02*
X147839857Y-94974457D01*
X147839857Y-94974457D02*
X147839857Y-94574457D01*
X147839857Y-94574457D02*
X147611286Y-94574457D01*
X148354143Y-95088742D02*
X148354143Y-93888742D01*
X148354143Y-93888742D02*
X149039857Y-95088742D01*
X149039857Y-95088742D02*
X149039857Y-93888742D01*
X149611286Y-95088742D02*
X149611286Y-93888742D01*
X149611286Y-93888742D02*
X149897000Y-93888742D01*
X149897000Y-93888742D02*
X150068429Y-93945885D01*
X150068429Y-93945885D02*
X150182714Y-94060171D01*
X150182714Y-94060171D02*
X150239857Y-94174457D01*
X150239857Y-94174457D02*
X150297000Y-94403028D01*
X150297000Y-94403028D02*
X150297000Y-94574457D01*
X150297000Y-94574457D02*
X150239857Y-94803028D01*
X150239857Y-94803028D02*
X150182714Y-94917314D01*
X150182714Y-94917314D02*
X150068429Y-95031600D01*
X150068429Y-95031600D02*
X149897000Y-95088742D01*
X149897000Y-95088742D02*
X149611286Y-95088742D01*
X159485714Y-89444742D02*
X159885714Y-90644742D01*
X159885714Y-90644742D02*
X160285714Y-89444742D01*
X161542857Y-90587600D02*
X161714286Y-90644742D01*
X161714286Y-90644742D02*
X162000000Y-90644742D01*
X162000000Y-90644742D02*
X162114286Y-90587600D01*
X162114286Y-90587600D02*
X162171428Y-90530457D01*
X162171428Y-90530457D02*
X162228571Y-90416171D01*
X162228571Y-90416171D02*
X162228571Y-90301885D01*
X162228571Y-90301885D02*
X162171428Y-90187600D01*
X162171428Y-90187600D02*
X162114286Y-90130457D01*
X162114286Y-90130457D02*
X162000000Y-90073314D01*
X162000000Y-90073314D02*
X161771428Y-90016171D01*
X161771428Y-90016171D02*
X161657143Y-89959028D01*
X161657143Y-89959028D02*
X161600000Y-89901885D01*
X161600000Y-89901885D02*
X161542857Y-89787600D01*
X161542857Y-89787600D02*
X161542857Y-89673314D01*
X161542857Y-89673314D02*
X161600000Y-89559028D01*
X161600000Y-89559028D02*
X161657143Y-89501885D01*
X161657143Y-89501885D02*
X161771428Y-89444742D01*
X161771428Y-89444742D02*
X162057143Y-89444742D01*
X162057143Y-89444742D02*
X162228571Y-89501885D01*
X162742857Y-90016171D02*
X163142857Y-90016171D01*
X163314285Y-90644742D02*
X162742857Y-90644742D01*
X162742857Y-90644742D02*
X162742857Y-89444742D01*
X162742857Y-89444742D02*
X163314285Y-89444742D01*
X163828571Y-90644742D02*
X163828571Y-89444742D01*
X163828571Y-89444742D02*
X164514285Y-90644742D01*
X164514285Y-90644742D02*
X164514285Y-89444742D01*
X165028571Y-90587600D02*
X165200000Y-90644742D01*
X165200000Y-90644742D02*
X165485714Y-90644742D01*
X165485714Y-90644742D02*
X165600000Y-90587600D01*
X165600000Y-90587600D02*
X165657142Y-90530457D01*
X165657142Y-90530457D02*
X165714285Y-90416171D01*
X165714285Y-90416171D02*
X165714285Y-90301885D01*
X165714285Y-90301885D02*
X165657142Y-90187600D01*
X165657142Y-90187600D02*
X165600000Y-90130457D01*
X165600000Y-90130457D02*
X165485714Y-90073314D01*
X165485714Y-90073314D02*
X165257142Y-90016171D01*
X165257142Y-90016171D02*
X165142857Y-89959028D01*
X165142857Y-89959028D02*
X165085714Y-89901885D01*
X165085714Y-89901885D02*
X165028571Y-89787600D01*
X165028571Y-89787600D02*
X165028571Y-89673314D01*
X165028571Y-89673314D02*
X165085714Y-89559028D01*
X165085714Y-89559028D02*
X165142857Y-89501885D01*
X165142857Y-89501885D02*
X165257142Y-89444742D01*
X165257142Y-89444742D02*
X165542857Y-89444742D01*
X165542857Y-89444742D02*
X165714285Y-89501885D01*
X166228571Y-90016171D02*
X166628571Y-90016171D01*
X166799999Y-90644742D02*
X166228571Y-90644742D01*
X166228571Y-90644742D02*
X166228571Y-89444742D01*
X166228571Y-89444742D02*
X166799999Y-89444742D01*
D11*
X169495237Y-60837704D02*
X169495237Y-61637704D01*
X169495237Y-61637704D02*
X169038094Y-60837704D01*
X169038094Y-60837704D02*
X169038094Y-61637704D01*
X168657142Y-61256752D02*
X168390476Y-61256752D01*
X168276190Y-60837704D02*
X168657142Y-60837704D01*
X168657142Y-60837704D02*
X168657142Y-61637704D01*
X168657142Y-61637704D02*
X168276190Y-61637704D01*
X167514285Y-61599609D02*
X167590475Y-61637704D01*
X167590475Y-61637704D02*
X167704761Y-61637704D01*
X167704761Y-61637704D02*
X167819047Y-61599609D01*
X167819047Y-61599609D02*
X167895237Y-61523419D01*
X167895237Y-61523419D02*
X167933332Y-61447228D01*
X167933332Y-61447228D02*
X167971428Y-61294847D01*
X167971428Y-61294847D02*
X167971428Y-61180561D01*
X167971428Y-61180561D02*
X167933332Y-61028180D01*
X167933332Y-61028180D02*
X167895237Y-60951990D01*
X167895237Y-60951990D02*
X167819047Y-60875800D01*
X167819047Y-60875800D02*
X167704761Y-60837704D01*
X167704761Y-60837704D02*
X167628570Y-60837704D01*
X167628570Y-60837704D02*
X167514285Y-60875800D01*
X167514285Y-60875800D02*
X167476189Y-60913895D01*
X167476189Y-60913895D02*
X167476189Y-61180561D01*
X167476189Y-61180561D02*
X167628570Y-61180561D01*
X166523808Y-60837704D02*
X166523808Y-61637704D01*
X166523808Y-61637704D02*
X166219046Y-61637704D01*
X166219046Y-61637704D02*
X166142856Y-61599609D01*
X166142856Y-61599609D02*
X166104761Y-61561514D01*
X166104761Y-61561514D02*
X166066665Y-61485323D01*
X166066665Y-61485323D02*
X166066665Y-61371038D01*
X166066665Y-61371038D02*
X166104761Y-61294847D01*
X166104761Y-61294847D02*
X166142856Y-61256752D01*
X166142856Y-61256752D02*
X166219046Y-61218657D01*
X166219046Y-61218657D02*
X166523808Y-61218657D01*
X165571427Y-61637704D02*
X165419046Y-61637704D01*
X165419046Y-61637704D02*
X165342856Y-61599609D01*
X165342856Y-61599609D02*
X165266665Y-61523419D01*
X165266665Y-61523419D02*
X165228570Y-61371038D01*
X165228570Y-61371038D02*
X165228570Y-61104371D01*
X165228570Y-61104371D02*
X165266665Y-60951990D01*
X165266665Y-60951990D02*
X165342856Y-60875800D01*
X165342856Y-60875800D02*
X165419046Y-60837704D01*
X165419046Y-60837704D02*
X165571427Y-60837704D01*
X165571427Y-60837704D02*
X165647618Y-60875800D01*
X165647618Y-60875800D02*
X165723808Y-60951990D01*
X165723808Y-60951990D02*
X165761904Y-61104371D01*
X165761904Y-61104371D02*
X165761904Y-61371038D01*
X165761904Y-61371038D02*
X165723808Y-61523419D01*
X165723808Y-61523419D02*
X165647618Y-61599609D01*
X165647618Y-61599609D02*
X165571427Y-61637704D01*
X164923809Y-60875800D02*
X164809523Y-60837704D01*
X164809523Y-60837704D02*
X164619047Y-60837704D01*
X164619047Y-60837704D02*
X164542856Y-60875800D01*
X164542856Y-60875800D02*
X164504761Y-60913895D01*
X164504761Y-60913895D02*
X164466666Y-60990085D01*
X164466666Y-60990085D02*
X164466666Y-61066276D01*
X164466666Y-61066276D02*
X164504761Y-61142466D01*
X164504761Y-61142466D02*
X164542856Y-61180561D01*
X164542856Y-61180561D02*
X164619047Y-61218657D01*
X164619047Y-61218657D02*
X164771428Y-61256752D01*
X164771428Y-61256752D02*
X164847618Y-61294847D01*
X164847618Y-61294847D02*
X164885713Y-61332942D01*
X164885713Y-61332942D02*
X164923809Y-61409133D01*
X164923809Y-61409133D02*
X164923809Y-61485323D01*
X164923809Y-61485323D02*
X164885713Y-61561514D01*
X164885713Y-61561514D02*
X164847618Y-61599609D01*
X164847618Y-61599609D02*
X164771428Y-61637704D01*
X164771428Y-61637704D02*
X164580951Y-61637704D01*
X164580951Y-61637704D02*
X164466666Y-61599609D01*
D10*
X168271428Y-65555257D02*
X168842856Y-65555257D01*
X168842856Y-65555257D02*
X168842856Y-66755257D01*
X167642856Y-66755257D02*
X167414284Y-66755257D01*
X167414284Y-66755257D02*
X167299999Y-66698114D01*
X167299999Y-66698114D02*
X167185713Y-66583828D01*
X167185713Y-66583828D02*
X167128570Y-66355257D01*
X167128570Y-66355257D02*
X167128570Y-65955257D01*
X167128570Y-65955257D02*
X167185713Y-65726685D01*
X167185713Y-65726685D02*
X167299999Y-65612400D01*
X167299999Y-65612400D02*
X167414284Y-65555257D01*
X167414284Y-65555257D02*
X167642856Y-65555257D01*
X167642856Y-65555257D02*
X167757142Y-65612400D01*
X167757142Y-65612400D02*
X167871427Y-65726685D01*
X167871427Y-65726685D02*
X167928570Y-65955257D01*
X167928570Y-65955257D02*
X167928570Y-66355257D01*
X167928570Y-66355257D02*
X167871427Y-66583828D01*
X167871427Y-66583828D02*
X167757142Y-66698114D01*
X167757142Y-66698114D02*
X167642856Y-66755257D01*
X166671427Y-65898114D02*
X166099999Y-65898114D01*
X166785713Y-65555257D02*
X166385713Y-66755257D01*
X166385713Y-66755257D02*
X165985713Y-65555257D01*
X165585713Y-65555257D02*
X165585713Y-66755257D01*
X165585713Y-66755257D02*
X165299999Y-66755257D01*
X165299999Y-66755257D02*
X165128570Y-66698114D01*
X165128570Y-66698114D02*
X165014285Y-66583828D01*
X165014285Y-66583828D02*
X164957142Y-66469542D01*
X164957142Y-66469542D02*
X164899999Y-66240971D01*
X164899999Y-66240971D02*
X164899999Y-66069542D01*
X164899999Y-66069542D02*
X164957142Y-65840971D01*
X164957142Y-65840971D02*
X165014285Y-65726685D01*
X165014285Y-65726685D02*
X165128570Y-65612400D01*
X165128570Y-65612400D02*
X165299999Y-65555257D01*
X165299999Y-65555257D02*
X165585713Y-65555257D01*
X100500000Y-71644742D02*
X100500000Y-70444742D01*
X100500000Y-70444742D02*
X100957143Y-70444742D01*
X100957143Y-70444742D02*
X101071428Y-70501885D01*
X101071428Y-70501885D02*
X101128571Y-70559028D01*
X101128571Y-70559028D02*
X101185714Y-70673314D01*
X101185714Y-70673314D02*
X101185714Y-70844742D01*
X101185714Y-70844742D02*
X101128571Y-70959028D01*
X101128571Y-70959028D02*
X101071428Y-71016171D01*
X101071428Y-71016171D02*
X100957143Y-71073314D01*
X100957143Y-71073314D02*
X100500000Y-71073314D01*
X101585714Y-70444742D02*
X101871428Y-71644742D01*
X101871428Y-71644742D02*
X102100000Y-70787600D01*
X102100000Y-70787600D02*
X102328571Y-71644742D01*
X102328571Y-71644742D02*
X102614286Y-70444742D01*
X103757143Y-71644742D02*
X103357143Y-71073314D01*
X103071429Y-71644742D02*
X103071429Y-70444742D01*
X103071429Y-70444742D02*
X103528572Y-70444742D01*
X103528572Y-70444742D02*
X103642857Y-70501885D01*
X103642857Y-70501885D02*
X103700000Y-70559028D01*
X103700000Y-70559028D02*
X103757143Y-70673314D01*
X103757143Y-70673314D02*
X103757143Y-70844742D01*
X103757143Y-70844742D02*
X103700000Y-70959028D01*
X103700000Y-70959028D02*
X103642857Y-71016171D01*
X103642857Y-71016171D02*
X103528572Y-71073314D01*
X103528572Y-71073314D02*
X103071429Y-71073314D01*
D11*
X91499609Y-84480952D02*
X91537704Y-84404762D01*
X91537704Y-84404762D02*
X91537704Y-84290476D01*
X91537704Y-84290476D02*
X91499609Y-84176190D01*
X91499609Y-84176190D02*
X91423419Y-84100000D01*
X91423419Y-84100000D02*
X91347228Y-84061905D01*
X91347228Y-84061905D02*
X91194847Y-84023809D01*
X91194847Y-84023809D02*
X91080561Y-84023809D01*
X91080561Y-84023809D02*
X90928180Y-84061905D01*
X90928180Y-84061905D02*
X90851990Y-84100000D01*
X90851990Y-84100000D02*
X90775800Y-84176190D01*
X90775800Y-84176190D02*
X90737704Y-84290476D01*
X90737704Y-84290476D02*
X90737704Y-84366667D01*
X90737704Y-84366667D02*
X90775800Y-84480952D01*
X90775800Y-84480952D02*
X90813895Y-84519048D01*
X90813895Y-84519048D02*
X91080561Y-84519048D01*
X91080561Y-84519048D02*
X91080561Y-84366667D01*
X90737704Y-84861905D02*
X91537704Y-84861905D01*
X91537704Y-84861905D02*
X90737704Y-85319048D01*
X90737704Y-85319048D02*
X91537704Y-85319048D01*
X90737704Y-85700000D02*
X91537704Y-85700000D01*
X91537704Y-85700000D02*
X91537704Y-85890476D01*
X91537704Y-85890476D02*
X91499609Y-86004762D01*
X91499609Y-86004762D02*
X91423419Y-86080952D01*
X91423419Y-86080952D02*
X91347228Y-86119047D01*
X91347228Y-86119047D02*
X91194847Y-86157143D01*
X91194847Y-86157143D02*
X91080561Y-86157143D01*
X91080561Y-86157143D02*
X90928180Y-86119047D01*
X90928180Y-86119047D02*
X90851990Y-86080952D01*
X90851990Y-86080952D02*
X90775800Y-86004762D01*
X90775800Y-86004762D02*
X90737704Y-85890476D01*
X90737704Y-85890476D02*
X90737704Y-85700000D01*
X90737704Y-87528571D02*
X90737704Y-87071428D01*
X90737704Y-87300000D02*
X91537704Y-87300000D01*
X91537704Y-87300000D02*
X91423419Y-87223809D01*
X91423419Y-87223809D02*
X91347228Y-87147619D01*
X91347228Y-87147619D02*
X91309133Y-87071428D01*
X91461514Y-87833333D02*
X91499609Y-87871429D01*
X91499609Y-87871429D02*
X91537704Y-87947619D01*
X91537704Y-87947619D02*
X91537704Y-88138095D01*
X91537704Y-88138095D02*
X91499609Y-88214286D01*
X91499609Y-88214286D02*
X91461514Y-88252381D01*
X91461514Y-88252381D02*
X91385323Y-88290476D01*
X91385323Y-88290476D02*
X91309133Y-88290476D01*
X91309133Y-88290476D02*
X91194847Y-88252381D01*
X91194847Y-88252381D02*
X90737704Y-87795238D01*
X90737704Y-87795238D02*
X90737704Y-88290476D01*
X91537704Y-88519048D02*
X90737704Y-88785715D01*
X90737704Y-88785715D02*
X91537704Y-89052381D01*
D10*
X95555257Y-84800000D02*
X96755257Y-84800000D01*
X96755257Y-84800000D02*
X96755257Y-85257143D01*
X96755257Y-85257143D02*
X96698114Y-85371428D01*
X96698114Y-85371428D02*
X96640971Y-85428571D01*
X96640971Y-85428571D02*
X96526685Y-85485714D01*
X96526685Y-85485714D02*
X96355257Y-85485714D01*
X96355257Y-85485714D02*
X96240971Y-85428571D01*
X96240971Y-85428571D02*
X96183828Y-85371428D01*
X96183828Y-85371428D02*
X96126685Y-85257143D01*
X96126685Y-85257143D02*
X96126685Y-84800000D01*
X96755257Y-85885714D02*
X95555257Y-86171428D01*
X95555257Y-86171428D02*
X96412400Y-86400000D01*
X96412400Y-86400000D02*
X95555257Y-86628571D01*
X95555257Y-86628571D02*
X96755257Y-86914286D01*
X95555257Y-88057143D02*
X96126685Y-87657143D01*
X95555257Y-87371429D02*
X96755257Y-87371429D01*
X96755257Y-87371429D02*
X96755257Y-87828572D01*
X96755257Y-87828572D02*
X96698114Y-87942857D01*
X96698114Y-87942857D02*
X96640971Y-88000000D01*
X96640971Y-88000000D02*
X96526685Y-88057143D01*
X96526685Y-88057143D02*
X96355257Y-88057143D01*
X96355257Y-88057143D02*
X96240971Y-88000000D01*
X96240971Y-88000000D02*
X96183828Y-87942857D01*
X96183828Y-87942857D02*
X96126685Y-87828572D01*
X96126685Y-87828572D02*
X96126685Y-87371429D01*
X92128571Y-93144742D02*
X92128571Y-94116171D01*
X92128571Y-94116171D02*
X92185714Y-94230457D01*
X92185714Y-94230457D02*
X92242857Y-94287600D01*
X92242857Y-94287600D02*
X92357142Y-94344742D01*
X92357142Y-94344742D02*
X92585714Y-94344742D01*
X92585714Y-94344742D02*
X92699999Y-94287600D01*
X92699999Y-94287600D02*
X92757142Y-94230457D01*
X92757142Y-94230457D02*
X92814285Y-94116171D01*
X92814285Y-94116171D02*
X92814285Y-93144742D01*
X93328571Y-94287600D02*
X93500000Y-94344742D01*
X93500000Y-94344742D02*
X93785714Y-94344742D01*
X93785714Y-94344742D02*
X93900000Y-94287600D01*
X93900000Y-94287600D02*
X93957142Y-94230457D01*
X93957142Y-94230457D02*
X94014285Y-94116171D01*
X94014285Y-94116171D02*
X94014285Y-94001885D01*
X94014285Y-94001885D02*
X93957142Y-93887600D01*
X93957142Y-93887600D02*
X93900000Y-93830457D01*
X93900000Y-93830457D02*
X93785714Y-93773314D01*
X93785714Y-93773314D02*
X93557142Y-93716171D01*
X93557142Y-93716171D02*
X93442857Y-93659028D01*
X93442857Y-93659028D02*
X93385714Y-93601885D01*
X93385714Y-93601885D02*
X93328571Y-93487600D01*
X93328571Y-93487600D02*
X93328571Y-93373314D01*
X93328571Y-93373314D02*
X93385714Y-93259028D01*
X93385714Y-93259028D02*
X93442857Y-93201885D01*
X93442857Y-93201885D02*
X93557142Y-93144742D01*
X93557142Y-93144742D02*
X93842857Y-93144742D01*
X93842857Y-93144742D02*
X94014285Y-93201885D01*
X94928571Y-93716171D02*
X95099999Y-93773314D01*
X95099999Y-93773314D02*
X95157142Y-93830457D01*
X95157142Y-93830457D02*
X95214285Y-93944742D01*
X95214285Y-93944742D02*
X95214285Y-94116171D01*
X95214285Y-94116171D02*
X95157142Y-94230457D01*
X95157142Y-94230457D02*
X95099999Y-94287600D01*
X95099999Y-94287600D02*
X94985714Y-94344742D01*
X94985714Y-94344742D02*
X94528571Y-94344742D01*
X94528571Y-94344742D02*
X94528571Y-93144742D01*
X94528571Y-93144742D02*
X94928571Y-93144742D01*
X94928571Y-93144742D02*
X95042857Y-93201885D01*
X95042857Y-93201885D02*
X95099999Y-93259028D01*
X95099999Y-93259028D02*
X95157142Y-93373314D01*
X95157142Y-93373314D02*
X95157142Y-93487600D01*
X95157142Y-93487600D02*
X95099999Y-93601885D01*
X95099999Y-93601885D02*
X95042857Y-93659028D01*
X95042857Y-93659028D02*
X94928571Y-93716171D01*
X94928571Y-93716171D02*
X94528571Y-93716171D01*
X97328571Y-94230457D02*
X97271428Y-94287600D01*
X97271428Y-94287600D02*
X97100000Y-94344742D01*
X97100000Y-94344742D02*
X96985714Y-94344742D01*
X96985714Y-94344742D02*
X96814285Y-94287600D01*
X96814285Y-94287600D02*
X96700000Y-94173314D01*
X96700000Y-94173314D02*
X96642857Y-94059028D01*
X96642857Y-94059028D02*
X96585714Y-93830457D01*
X96585714Y-93830457D02*
X96585714Y-93659028D01*
X96585714Y-93659028D02*
X96642857Y-93430457D01*
X96642857Y-93430457D02*
X96700000Y-93316171D01*
X96700000Y-93316171D02*
X96814285Y-93201885D01*
X96814285Y-93201885D02*
X96985714Y-93144742D01*
X96985714Y-93144742D02*
X97100000Y-93144742D01*
X97100000Y-93144742D02*
X97271428Y-93201885D01*
X97271428Y-93201885D02*
X97328571Y-93259028D01*
D11*
X149085714Y-119257533D02*
X149695238Y-119257533D01*
X151904762Y-119257533D02*
X152514286Y-119257533D01*
X152209524Y-119562295D02*
X152209524Y-118952771D01*
X105290476Y-119257533D02*
X105900000Y-119257533D01*
X107500000Y-119257533D02*
X108109524Y-119257533D01*
X107804762Y-119562295D02*
X107804762Y-118952771D01*
X114680951Y-118900390D02*
X114604761Y-118862295D01*
X114604761Y-118862295D02*
X114490475Y-118862295D01*
X114490475Y-118862295D02*
X114376189Y-118900390D01*
X114376189Y-118900390D02*
X114299999Y-118976580D01*
X114299999Y-118976580D02*
X114261904Y-119052771D01*
X114261904Y-119052771D02*
X114223808Y-119205152D01*
X114223808Y-119205152D02*
X114223808Y-119319438D01*
X114223808Y-119319438D02*
X114261904Y-119471819D01*
X114261904Y-119471819D02*
X114299999Y-119548009D01*
X114299999Y-119548009D02*
X114376189Y-119624200D01*
X114376189Y-119624200D02*
X114490475Y-119662295D01*
X114490475Y-119662295D02*
X114566666Y-119662295D01*
X114566666Y-119662295D02*
X114680951Y-119624200D01*
X114680951Y-119624200D02*
X114719047Y-119586104D01*
X114719047Y-119586104D02*
X114719047Y-119319438D01*
X114719047Y-119319438D02*
X114566666Y-119319438D01*
X115061904Y-119662295D02*
X115061904Y-118862295D01*
X115061904Y-118862295D02*
X115519047Y-119662295D01*
X115519047Y-119662295D02*
X115519047Y-118862295D01*
X115899999Y-119662295D02*
X115899999Y-118862295D01*
X115899999Y-118862295D02*
X116090475Y-118862295D01*
X116090475Y-118862295D02*
X116204761Y-118900390D01*
X116204761Y-118900390D02*
X116280951Y-118976580D01*
X116280951Y-118976580D02*
X116319046Y-119052771D01*
X116319046Y-119052771D02*
X116357142Y-119205152D01*
X116357142Y-119205152D02*
X116357142Y-119319438D01*
X116357142Y-119319438D02*
X116319046Y-119471819D01*
X116319046Y-119471819D02*
X116280951Y-119548009D01*
X116280951Y-119548009D02*
X116204761Y-119624200D01*
X116204761Y-119624200D02*
X116090475Y-119662295D01*
X116090475Y-119662295D02*
X115899999Y-119662295D01*
X117271427Y-119624200D02*
X117385713Y-119662295D01*
X117385713Y-119662295D02*
X117576189Y-119662295D01*
X117576189Y-119662295D02*
X117652380Y-119624200D01*
X117652380Y-119624200D02*
X117690475Y-119586104D01*
X117690475Y-119586104D02*
X117728570Y-119509914D01*
X117728570Y-119509914D02*
X117728570Y-119433723D01*
X117728570Y-119433723D02*
X117690475Y-119357533D01*
X117690475Y-119357533D02*
X117652380Y-119319438D01*
X117652380Y-119319438D02*
X117576189Y-119281342D01*
X117576189Y-119281342D02*
X117423808Y-119243247D01*
X117423808Y-119243247D02*
X117347618Y-119205152D01*
X117347618Y-119205152D02*
X117309523Y-119167057D01*
X117309523Y-119167057D02*
X117271427Y-119090866D01*
X117271427Y-119090866D02*
X117271427Y-119014676D01*
X117271427Y-119014676D02*
X117309523Y-118938485D01*
X117309523Y-118938485D02*
X117347618Y-118900390D01*
X117347618Y-118900390D02*
X117423808Y-118862295D01*
X117423808Y-118862295D02*
X117614285Y-118862295D01*
X117614285Y-118862295D02*
X117728570Y-118900390D01*
X117995237Y-118862295D02*
X118185713Y-119662295D01*
X118185713Y-119662295D02*
X118338094Y-119090866D01*
X118338094Y-119090866D02*
X118490475Y-119662295D01*
X118490475Y-119662295D02*
X118680952Y-118862295D01*
X120166666Y-119433723D02*
X120547619Y-119433723D01*
X120090476Y-119662295D02*
X120357143Y-118862295D01*
X120357143Y-118862295D02*
X120623809Y-119662295D01*
X122985714Y-119243247D02*
X123100000Y-119281342D01*
X123100000Y-119281342D02*
X123138095Y-119319438D01*
X123138095Y-119319438D02*
X123176191Y-119395628D01*
X123176191Y-119395628D02*
X123176191Y-119509914D01*
X123176191Y-119509914D02*
X123138095Y-119586104D01*
X123138095Y-119586104D02*
X123100000Y-119624200D01*
X123100000Y-119624200D02*
X123023810Y-119662295D01*
X123023810Y-119662295D02*
X122719048Y-119662295D01*
X122719048Y-119662295D02*
X122719048Y-118862295D01*
X122719048Y-118862295D02*
X122985714Y-118862295D01*
X122985714Y-118862295D02*
X123061905Y-118900390D01*
X123061905Y-118900390D02*
X123100000Y-118938485D01*
X123100000Y-118938485D02*
X123138095Y-119014676D01*
X123138095Y-119014676D02*
X123138095Y-119090866D01*
X123138095Y-119090866D02*
X123100000Y-119167057D01*
X123100000Y-119167057D02*
X123061905Y-119205152D01*
X123061905Y-119205152D02*
X122985714Y-119243247D01*
X122985714Y-119243247D02*
X122719048Y-119243247D01*
X127304761Y-118900390D02*
X127228571Y-118862295D01*
X127228571Y-118862295D02*
X127114285Y-118862295D01*
X127114285Y-118862295D02*
X126999999Y-118900390D01*
X126999999Y-118900390D02*
X126923809Y-118976580D01*
X126923809Y-118976580D02*
X126885714Y-119052771D01*
X126885714Y-119052771D02*
X126847618Y-119205152D01*
X126847618Y-119205152D02*
X126847618Y-119319438D01*
X126847618Y-119319438D02*
X126885714Y-119471819D01*
X126885714Y-119471819D02*
X126923809Y-119548009D01*
X126923809Y-119548009D02*
X126999999Y-119624200D01*
X126999999Y-119624200D02*
X127114285Y-119662295D01*
X127114285Y-119662295D02*
X127190476Y-119662295D01*
X127190476Y-119662295D02*
X127304761Y-119624200D01*
X127304761Y-119624200D02*
X127342857Y-119586104D01*
X127342857Y-119586104D02*
X127342857Y-119319438D01*
X127342857Y-119319438D02*
X127190476Y-119319438D01*
X127685714Y-119662295D02*
X127685714Y-118862295D01*
X127685714Y-118862295D02*
X128142857Y-119662295D01*
X128142857Y-119662295D02*
X128142857Y-118862295D01*
X128523809Y-119662295D02*
X128523809Y-118862295D01*
X128523809Y-118862295D02*
X128714285Y-118862295D01*
X128714285Y-118862295D02*
X128828571Y-118900390D01*
X128828571Y-118900390D02*
X128904761Y-118976580D01*
X128904761Y-118976580D02*
X128942856Y-119052771D01*
X128942856Y-119052771D02*
X128980952Y-119205152D01*
X128980952Y-119205152D02*
X128980952Y-119319438D01*
X128980952Y-119319438D02*
X128942856Y-119471819D01*
X128942856Y-119471819D02*
X128904761Y-119548009D01*
X128904761Y-119548009D02*
X128828571Y-119624200D01*
X128828571Y-119624200D02*
X128714285Y-119662295D01*
X128714285Y-119662295D02*
X128523809Y-119662295D01*
X129895237Y-119624200D02*
X130009523Y-119662295D01*
X130009523Y-119662295D02*
X130199999Y-119662295D01*
X130199999Y-119662295D02*
X130276190Y-119624200D01*
X130276190Y-119624200D02*
X130314285Y-119586104D01*
X130314285Y-119586104D02*
X130352380Y-119509914D01*
X130352380Y-119509914D02*
X130352380Y-119433723D01*
X130352380Y-119433723D02*
X130314285Y-119357533D01*
X130314285Y-119357533D02*
X130276190Y-119319438D01*
X130276190Y-119319438D02*
X130199999Y-119281342D01*
X130199999Y-119281342D02*
X130047618Y-119243247D01*
X130047618Y-119243247D02*
X129971428Y-119205152D01*
X129971428Y-119205152D02*
X129933333Y-119167057D01*
X129933333Y-119167057D02*
X129895237Y-119090866D01*
X129895237Y-119090866D02*
X129895237Y-119014676D01*
X129895237Y-119014676D02*
X129933333Y-118938485D01*
X129933333Y-118938485D02*
X129971428Y-118900390D01*
X129971428Y-118900390D02*
X130047618Y-118862295D01*
X130047618Y-118862295D02*
X130238095Y-118862295D01*
X130238095Y-118862295D02*
X130352380Y-118900390D01*
X131152381Y-119586104D02*
X131114285Y-119624200D01*
X131114285Y-119624200D02*
X131000000Y-119662295D01*
X131000000Y-119662295D02*
X130923809Y-119662295D01*
X130923809Y-119662295D02*
X130809523Y-119624200D01*
X130809523Y-119624200D02*
X130733333Y-119548009D01*
X130733333Y-119548009D02*
X130695238Y-119471819D01*
X130695238Y-119471819D02*
X130657142Y-119319438D01*
X130657142Y-119319438D02*
X130657142Y-119205152D01*
X130657142Y-119205152D02*
X130695238Y-119052771D01*
X130695238Y-119052771D02*
X130733333Y-118976580D01*
X130733333Y-118976580D02*
X130809523Y-118900390D01*
X130809523Y-118900390D02*
X130923809Y-118862295D01*
X130923809Y-118862295D02*
X131000000Y-118862295D01*
X131000000Y-118862295D02*
X131114285Y-118900390D01*
X131114285Y-118900390D02*
X131152381Y-118938485D01*
X131876190Y-119662295D02*
X131495238Y-119662295D01*
X131495238Y-119662295D02*
X131495238Y-118862295D01*
X132714285Y-119624200D02*
X132828571Y-119662295D01*
X132828571Y-119662295D02*
X133019047Y-119662295D01*
X133019047Y-119662295D02*
X133095238Y-119624200D01*
X133095238Y-119624200D02*
X133133333Y-119586104D01*
X133133333Y-119586104D02*
X133171428Y-119509914D01*
X133171428Y-119509914D02*
X133171428Y-119433723D01*
X133171428Y-119433723D02*
X133133333Y-119357533D01*
X133133333Y-119357533D02*
X133095238Y-119319438D01*
X133095238Y-119319438D02*
X133019047Y-119281342D01*
X133019047Y-119281342D02*
X132866666Y-119243247D01*
X132866666Y-119243247D02*
X132790476Y-119205152D01*
X132790476Y-119205152D02*
X132752381Y-119167057D01*
X132752381Y-119167057D02*
X132714285Y-119090866D01*
X132714285Y-119090866D02*
X132714285Y-119014676D01*
X132714285Y-119014676D02*
X132752381Y-118938485D01*
X132752381Y-118938485D02*
X132790476Y-118900390D01*
X132790476Y-118900390D02*
X132866666Y-118862295D01*
X132866666Y-118862295D02*
X133057143Y-118862295D01*
X133057143Y-118862295D02*
X133171428Y-118900390D01*
X133514286Y-119662295D02*
X133514286Y-118862295D01*
X133514286Y-118862295D02*
X133704762Y-118862295D01*
X133704762Y-118862295D02*
X133819048Y-118900390D01*
X133819048Y-118900390D02*
X133895238Y-118976580D01*
X133895238Y-118976580D02*
X133933333Y-119052771D01*
X133933333Y-119052771D02*
X133971429Y-119205152D01*
X133971429Y-119205152D02*
X133971429Y-119319438D01*
X133971429Y-119319438D02*
X133933333Y-119471819D01*
X133933333Y-119471819D02*
X133895238Y-119548009D01*
X133895238Y-119548009D02*
X133819048Y-119624200D01*
X133819048Y-119624200D02*
X133704762Y-119662295D01*
X133704762Y-119662295D02*
X133514286Y-119662295D01*
X134276190Y-119433723D02*
X134657143Y-119433723D01*
X134200000Y-119662295D02*
X134466667Y-118862295D01*
X134466667Y-118862295D02*
X134733333Y-119662295D01*
X135495238Y-118862295D02*
X135761905Y-119662295D01*
X135761905Y-119662295D02*
X136028571Y-118862295D01*
X136752381Y-119586104D02*
X136714285Y-119624200D01*
X136714285Y-119624200D02*
X136600000Y-119662295D01*
X136600000Y-119662295D02*
X136523809Y-119662295D01*
X136523809Y-119662295D02*
X136409523Y-119624200D01*
X136409523Y-119624200D02*
X136333333Y-119548009D01*
X136333333Y-119548009D02*
X136295238Y-119471819D01*
X136295238Y-119471819D02*
X136257142Y-119319438D01*
X136257142Y-119319438D02*
X136257142Y-119205152D01*
X136257142Y-119205152D02*
X136295238Y-119052771D01*
X136295238Y-119052771D02*
X136333333Y-118976580D01*
X136333333Y-118976580D02*
X136409523Y-118900390D01*
X136409523Y-118900390D02*
X136523809Y-118862295D01*
X136523809Y-118862295D02*
X136600000Y-118862295D01*
X136600000Y-118862295D02*
X136714285Y-118900390D01*
X136714285Y-118900390D02*
X136752381Y-118938485D01*
X137552381Y-119586104D02*
X137514285Y-119624200D01*
X137514285Y-119624200D02*
X137400000Y-119662295D01*
X137400000Y-119662295D02*
X137323809Y-119662295D01*
X137323809Y-119662295D02*
X137209523Y-119624200D01*
X137209523Y-119624200D02*
X137133333Y-119548009D01*
X137133333Y-119548009D02*
X137095238Y-119471819D01*
X137095238Y-119471819D02*
X137057142Y-119319438D01*
X137057142Y-119319438D02*
X137057142Y-119205152D01*
X137057142Y-119205152D02*
X137095238Y-119052771D01*
X137095238Y-119052771D02*
X137133333Y-118976580D01*
X137133333Y-118976580D02*
X137209523Y-118900390D01*
X137209523Y-118900390D02*
X137323809Y-118862295D01*
X137323809Y-118862295D02*
X137400000Y-118862295D01*
X137400000Y-118862295D02*
X137514285Y-118900390D01*
X137514285Y-118900390D02*
X137552381Y-118938485D01*
X141085714Y-119257533D02*
X141695238Y-119257533D01*
X143904762Y-119257533D02*
X144514286Y-119257533D01*
X144209524Y-119562295D02*
X144209524Y-118952771D01*
X156333332Y-118900390D02*
X156257142Y-118862295D01*
X156257142Y-118862295D02*
X156142856Y-118862295D01*
X156142856Y-118862295D02*
X156028570Y-118900390D01*
X156028570Y-118900390D02*
X155952380Y-118976580D01*
X155952380Y-118976580D02*
X155914285Y-119052771D01*
X155914285Y-119052771D02*
X155876189Y-119205152D01*
X155876189Y-119205152D02*
X155876189Y-119319438D01*
X155876189Y-119319438D02*
X155914285Y-119471819D01*
X155914285Y-119471819D02*
X155952380Y-119548009D01*
X155952380Y-119548009D02*
X156028570Y-119624200D01*
X156028570Y-119624200D02*
X156142856Y-119662295D01*
X156142856Y-119662295D02*
X156219047Y-119662295D01*
X156219047Y-119662295D02*
X156333332Y-119624200D01*
X156333332Y-119624200D02*
X156371428Y-119586104D01*
X156371428Y-119586104D02*
X156371428Y-119319438D01*
X156371428Y-119319438D02*
X156219047Y-119319438D01*
X156714285Y-119662295D02*
X156714285Y-118862295D01*
X156714285Y-118862295D02*
X157171428Y-119662295D01*
X157171428Y-119662295D02*
X157171428Y-118862295D01*
X157552380Y-119662295D02*
X157552380Y-118862295D01*
X157552380Y-118862295D02*
X157742856Y-118862295D01*
X157742856Y-118862295D02*
X157857142Y-118900390D01*
X157857142Y-118900390D02*
X157933332Y-118976580D01*
X157933332Y-118976580D02*
X157971427Y-119052771D01*
X157971427Y-119052771D02*
X158009523Y-119205152D01*
X158009523Y-119205152D02*
X158009523Y-119319438D01*
X158009523Y-119319438D02*
X157971427Y-119471819D01*
X157971427Y-119471819D02*
X157933332Y-119548009D01*
X157933332Y-119548009D02*
X157857142Y-119624200D01*
X157857142Y-119624200D02*
X157742856Y-119662295D01*
X157742856Y-119662295D02*
X157552380Y-119662295D01*
X159685713Y-119205152D02*
X159609523Y-119167057D01*
X159609523Y-119167057D02*
X159571428Y-119128961D01*
X159571428Y-119128961D02*
X159533332Y-119052771D01*
X159533332Y-119052771D02*
X159533332Y-119014676D01*
X159533332Y-119014676D02*
X159571428Y-118938485D01*
X159571428Y-118938485D02*
X159609523Y-118900390D01*
X159609523Y-118900390D02*
X159685713Y-118862295D01*
X159685713Y-118862295D02*
X159838094Y-118862295D01*
X159838094Y-118862295D02*
X159914285Y-118900390D01*
X159914285Y-118900390D02*
X159952380Y-118938485D01*
X159952380Y-118938485D02*
X159990475Y-119014676D01*
X159990475Y-119014676D02*
X159990475Y-119052771D01*
X159990475Y-119052771D02*
X159952380Y-119128961D01*
X159952380Y-119128961D02*
X159914285Y-119167057D01*
X159914285Y-119167057D02*
X159838094Y-119205152D01*
X159838094Y-119205152D02*
X159685713Y-119205152D01*
X159685713Y-119205152D02*
X159609523Y-119243247D01*
X159609523Y-119243247D02*
X159571428Y-119281342D01*
X159571428Y-119281342D02*
X159533332Y-119357533D01*
X159533332Y-119357533D02*
X159533332Y-119509914D01*
X159533332Y-119509914D02*
X159571428Y-119586104D01*
X159571428Y-119586104D02*
X159609523Y-119624200D01*
X159609523Y-119624200D02*
X159685713Y-119662295D01*
X159685713Y-119662295D02*
X159838094Y-119662295D01*
X159838094Y-119662295D02*
X159914285Y-119624200D01*
X159914285Y-119624200D02*
X159952380Y-119586104D01*
X159952380Y-119586104D02*
X159990475Y-119509914D01*
X159990475Y-119509914D02*
X159990475Y-119357533D01*
X159990475Y-119357533D02*
X159952380Y-119281342D01*
X159952380Y-119281342D02*
X159914285Y-119243247D01*
X159914285Y-119243247D02*
X159838094Y-119205152D01*
X162200000Y-119662295D02*
X162352381Y-119662295D01*
X162352381Y-119662295D02*
X162428571Y-119624200D01*
X162428571Y-119624200D02*
X162466667Y-119586104D01*
X162466667Y-119586104D02*
X162542857Y-119471819D01*
X162542857Y-119471819D02*
X162580952Y-119319438D01*
X162580952Y-119319438D02*
X162580952Y-119014676D01*
X162580952Y-119014676D02*
X162542857Y-118938485D01*
X162542857Y-118938485D02*
X162504762Y-118900390D01*
X162504762Y-118900390D02*
X162428571Y-118862295D01*
X162428571Y-118862295D02*
X162276190Y-118862295D01*
X162276190Y-118862295D02*
X162200000Y-118900390D01*
X162200000Y-118900390D02*
X162161905Y-118938485D01*
X162161905Y-118938485D02*
X162123809Y-119014676D01*
X162123809Y-119014676D02*
X162123809Y-119205152D01*
X162123809Y-119205152D02*
X162161905Y-119281342D01*
X162161905Y-119281342D02*
X162200000Y-119319438D01*
X162200000Y-119319438D02*
X162276190Y-119357533D01*
X162276190Y-119357533D02*
X162428571Y-119357533D01*
X162428571Y-119357533D02*
X162504762Y-119319438D01*
X162504762Y-119319438D02*
X162542857Y-119281342D01*
X162542857Y-119281342D02*
X162580952Y-119205152D01*
X164561905Y-119662295D02*
X164104762Y-119662295D01*
X164333334Y-119662295D02*
X164333334Y-118862295D01*
X164333334Y-118862295D02*
X164257143Y-118976580D01*
X164257143Y-118976580D02*
X164180953Y-119052771D01*
X164180953Y-119052771D02*
X164104762Y-119090866D01*
X165057144Y-118862295D02*
X165133334Y-118862295D01*
X165133334Y-118862295D02*
X165209525Y-118900390D01*
X165209525Y-118900390D02*
X165247620Y-118938485D01*
X165247620Y-118938485D02*
X165285715Y-119014676D01*
X165285715Y-119014676D02*
X165323810Y-119167057D01*
X165323810Y-119167057D02*
X165323810Y-119357533D01*
X165323810Y-119357533D02*
X165285715Y-119509914D01*
X165285715Y-119509914D02*
X165247620Y-119586104D01*
X165247620Y-119586104D02*
X165209525Y-119624200D01*
X165209525Y-119624200D02*
X165133334Y-119662295D01*
X165133334Y-119662295D02*
X165057144Y-119662295D01*
X165057144Y-119662295D02*
X164980953Y-119624200D01*
X164980953Y-119624200D02*
X164942858Y-119586104D01*
X164942858Y-119586104D02*
X164904763Y-119509914D01*
X164904763Y-119509914D02*
X164866667Y-119357533D01*
X164866667Y-119357533D02*
X164866667Y-119167057D01*
X164866667Y-119167057D02*
X164904763Y-119014676D01*
X164904763Y-119014676D02*
X164942858Y-118938485D01*
X164942858Y-118938485D02*
X164980953Y-118900390D01*
X164980953Y-118900390D02*
X165057144Y-118862295D01*
X178500390Y-107666665D02*
X178462295Y-107733332D01*
X178462295Y-107733332D02*
X178462295Y-107833332D01*
X178462295Y-107833332D02*
X178500390Y-107933332D01*
X178500390Y-107933332D02*
X178576580Y-107999999D01*
X178576580Y-107999999D02*
X178652771Y-108033332D01*
X178652771Y-108033332D02*
X178805152Y-108066665D01*
X178805152Y-108066665D02*
X178919438Y-108066665D01*
X178919438Y-108066665D02*
X179071819Y-108033332D01*
X179071819Y-108033332D02*
X179148009Y-107999999D01*
X179148009Y-107999999D02*
X179224200Y-107933332D01*
X179224200Y-107933332D02*
X179262295Y-107833332D01*
X179262295Y-107833332D02*
X179262295Y-107766665D01*
X179262295Y-107766665D02*
X179224200Y-107666665D01*
X179224200Y-107666665D02*
X179186104Y-107633332D01*
X179186104Y-107633332D02*
X178919438Y-107633332D01*
X178919438Y-107633332D02*
X178919438Y-107766665D01*
X179262295Y-107333332D02*
X178462295Y-107333332D01*
X178462295Y-107333332D02*
X179262295Y-106933332D01*
X179262295Y-106933332D02*
X178462295Y-106933332D01*
X179262295Y-106599999D02*
X178462295Y-106599999D01*
X178462295Y-106599999D02*
X178462295Y-106433332D01*
X178462295Y-106433332D02*
X178500390Y-106333332D01*
X178500390Y-106333332D02*
X178576580Y-106266666D01*
X178576580Y-106266666D02*
X178652771Y-106233332D01*
X178652771Y-106233332D02*
X178805152Y-106199999D01*
X178805152Y-106199999D02*
X178919438Y-106199999D01*
X178919438Y-106199999D02*
X179071819Y-106233332D01*
X179071819Y-106233332D02*
X179148009Y-106266666D01*
X179148009Y-106266666D02*
X179224200Y-106333332D01*
X179224200Y-106333332D02*
X179262295Y-106433332D01*
X179262295Y-106433332D02*
X179262295Y-106599999D01*
X179262295Y-105366666D02*
X178462295Y-105366666D01*
X178462295Y-105366666D02*
X179033723Y-105133333D01*
X179033723Y-105133333D02*
X178462295Y-104899999D01*
X178462295Y-104899999D02*
X179262295Y-104899999D01*
X178462295Y-104433333D02*
X178462295Y-104299999D01*
X178462295Y-104299999D02*
X178500390Y-104233333D01*
X178500390Y-104233333D02*
X178576580Y-104166666D01*
X178576580Y-104166666D02*
X178728961Y-104133333D01*
X178728961Y-104133333D02*
X178995628Y-104133333D01*
X178995628Y-104133333D02*
X179148009Y-104166666D01*
X179148009Y-104166666D02*
X179224200Y-104233333D01*
X179224200Y-104233333D02*
X179262295Y-104299999D01*
X179262295Y-104299999D02*
X179262295Y-104433333D01*
X179262295Y-104433333D02*
X179224200Y-104499999D01*
X179224200Y-104499999D02*
X179148009Y-104566666D01*
X179148009Y-104566666D02*
X178995628Y-104599999D01*
X178995628Y-104599999D02*
X178728961Y-104599999D01*
X178728961Y-104599999D02*
X178576580Y-104566666D01*
X178576580Y-104566666D02*
X178500390Y-104499999D01*
X178500390Y-104499999D02*
X178462295Y-104433333D01*
X179224200Y-103866666D02*
X179262295Y-103766666D01*
X179262295Y-103766666D02*
X179262295Y-103600000D01*
X179262295Y-103600000D02*
X179224200Y-103533333D01*
X179224200Y-103533333D02*
X179186104Y-103500000D01*
X179186104Y-103500000D02*
X179109914Y-103466666D01*
X179109914Y-103466666D02*
X179033723Y-103466666D01*
X179033723Y-103466666D02*
X178957533Y-103500000D01*
X178957533Y-103500000D02*
X178919438Y-103533333D01*
X178919438Y-103533333D02*
X178881342Y-103600000D01*
X178881342Y-103600000D02*
X178843247Y-103733333D01*
X178843247Y-103733333D02*
X178805152Y-103800000D01*
X178805152Y-103800000D02*
X178767057Y-103833333D01*
X178767057Y-103833333D02*
X178690866Y-103866666D01*
X178690866Y-103866666D02*
X178614676Y-103866666D01*
X178614676Y-103866666D02*
X178538485Y-103833333D01*
X178538485Y-103833333D02*
X178500390Y-103800000D01*
X178500390Y-103800000D02*
X178462295Y-103733333D01*
X178462295Y-103733333D02*
X178462295Y-103566666D01*
X178462295Y-103566666D02*
X178500390Y-103466666D01*
X179262295Y-103166666D02*
X178462295Y-103166666D01*
X179262295Y-102300000D02*
X178462295Y-102300000D01*
X178462295Y-102300000D02*
X179033723Y-102066667D01*
X179033723Y-102066667D02*
X178462295Y-101833333D01*
X178462295Y-101833333D02*
X179262295Y-101833333D01*
X179262295Y-101500000D02*
X178462295Y-101500000D01*
X179224200Y-101200000D02*
X179262295Y-101100000D01*
X179262295Y-101100000D02*
X179262295Y-100933334D01*
X179262295Y-100933334D02*
X179224200Y-100866667D01*
X179224200Y-100866667D02*
X179186104Y-100833334D01*
X179186104Y-100833334D02*
X179109914Y-100800000D01*
X179109914Y-100800000D02*
X179033723Y-100800000D01*
X179033723Y-100800000D02*
X178957533Y-100833334D01*
X178957533Y-100833334D02*
X178919438Y-100866667D01*
X178919438Y-100866667D02*
X178881342Y-100933334D01*
X178881342Y-100933334D02*
X178843247Y-101066667D01*
X178843247Y-101066667D02*
X178805152Y-101133334D01*
X178805152Y-101133334D02*
X178767057Y-101166667D01*
X178767057Y-101166667D02*
X178690866Y-101200000D01*
X178690866Y-101200000D02*
X178614676Y-101200000D01*
X178614676Y-101200000D02*
X178538485Y-101166667D01*
X178538485Y-101166667D02*
X178500390Y-101133334D01*
X178500390Y-101133334D02*
X178462295Y-101066667D01*
X178462295Y-101066667D02*
X178462295Y-100900000D01*
X178462295Y-100900000D02*
X178500390Y-100800000D01*
X178462295Y-100366667D02*
X178462295Y-100233333D01*
X178462295Y-100233333D02*
X178500390Y-100166667D01*
X178500390Y-100166667D02*
X178576580Y-100100000D01*
X178576580Y-100100000D02*
X178728961Y-100066667D01*
X178728961Y-100066667D02*
X178995628Y-100066667D01*
X178995628Y-100066667D02*
X179148009Y-100100000D01*
X179148009Y-100100000D02*
X179224200Y-100166667D01*
X179224200Y-100166667D02*
X179262295Y-100233333D01*
X179262295Y-100233333D02*
X179262295Y-100366667D01*
X179262295Y-100366667D02*
X179224200Y-100433333D01*
X179224200Y-100433333D02*
X179148009Y-100500000D01*
X179148009Y-100500000D02*
X178995628Y-100533333D01*
X178995628Y-100533333D02*
X178728961Y-100533333D01*
X178728961Y-100533333D02*
X178576580Y-100500000D01*
X178576580Y-100500000D02*
X178500390Y-100433333D01*
X178500390Y-100433333D02*
X178462295Y-100366667D01*
X179224200Y-99266667D02*
X179262295Y-99166667D01*
X179262295Y-99166667D02*
X179262295Y-99000001D01*
X179262295Y-99000001D02*
X179224200Y-98933334D01*
X179224200Y-98933334D02*
X179186104Y-98900001D01*
X179186104Y-98900001D02*
X179109914Y-98866667D01*
X179109914Y-98866667D02*
X179033723Y-98866667D01*
X179033723Y-98866667D02*
X178957533Y-98900001D01*
X178957533Y-98900001D02*
X178919438Y-98933334D01*
X178919438Y-98933334D02*
X178881342Y-99000001D01*
X178881342Y-99000001D02*
X178843247Y-99133334D01*
X178843247Y-99133334D02*
X178805152Y-99200001D01*
X178805152Y-99200001D02*
X178767057Y-99233334D01*
X178767057Y-99233334D02*
X178690866Y-99266667D01*
X178690866Y-99266667D02*
X178614676Y-99266667D01*
X178614676Y-99266667D02*
X178538485Y-99233334D01*
X178538485Y-99233334D02*
X178500390Y-99200001D01*
X178500390Y-99200001D02*
X178462295Y-99133334D01*
X178462295Y-99133334D02*
X178462295Y-98966667D01*
X178462295Y-98966667D02*
X178500390Y-98866667D01*
X179186104Y-98166667D02*
X179224200Y-98200000D01*
X179224200Y-98200000D02*
X179262295Y-98300000D01*
X179262295Y-98300000D02*
X179262295Y-98366667D01*
X179262295Y-98366667D02*
X179224200Y-98466667D01*
X179224200Y-98466667D02*
X179148009Y-98533334D01*
X179148009Y-98533334D02*
X179071819Y-98566667D01*
X179071819Y-98566667D02*
X178919438Y-98600000D01*
X178919438Y-98600000D02*
X178805152Y-98600000D01*
X178805152Y-98600000D02*
X178652771Y-98566667D01*
X178652771Y-98566667D02*
X178576580Y-98533334D01*
X178576580Y-98533334D02*
X178500390Y-98466667D01*
X178500390Y-98466667D02*
X178462295Y-98366667D01*
X178462295Y-98366667D02*
X178462295Y-98300000D01*
X178462295Y-98300000D02*
X178500390Y-98200000D01*
X178500390Y-98200000D02*
X178538485Y-98166667D01*
X179262295Y-97533334D02*
X179262295Y-97866667D01*
X179262295Y-97866667D02*
X178462295Y-97866667D01*
X179262295Y-97300000D02*
X178462295Y-97300000D01*
X179262295Y-96900000D02*
X178805152Y-97200000D01*
X178462295Y-96900000D02*
X178919438Y-97300000D01*
X179262295Y-95666667D02*
X178881342Y-95900000D01*
X179262295Y-96066667D02*
X178462295Y-96066667D01*
X178462295Y-96066667D02*
X178462295Y-95800000D01*
X178462295Y-95800000D02*
X178500390Y-95733334D01*
X178500390Y-95733334D02*
X178538485Y-95700000D01*
X178538485Y-95700000D02*
X178614676Y-95666667D01*
X178614676Y-95666667D02*
X178728961Y-95666667D01*
X178728961Y-95666667D02*
X178805152Y-95700000D01*
X178805152Y-95700000D02*
X178843247Y-95733334D01*
X178843247Y-95733334D02*
X178881342Y-95800000D01*
X178881342Y-95800000D02*
X178881342Y-96066667D01*
X179224200Y-95400000D02*
X179262295Y-95300000D01*
X179262295Y-95300000D02*
X179262295Y-95133334D01*
X179262295Y-95133334D02*
X179224200Y-95066667D01*
X179224200Y-95066667D02*
X179186104Y-95033334D01*
X179186104Y-95033334D02*
X179109914Y-95000000D01*
X179109914Y-95000000D02*
X179033723Y-95000000D01*
X179033723Y-95000000D02*
X178957533Y-95033334D01*
X178957533Y-95033334D02*
X178919438Y-95066667D01*
X178919438Y-95066667D02*
X178881342Y-95133334D01*
X178881342Y-95133334D02*
X178843247Y-95266667D01*
X178843247Y-95266667D02*
X178805152Y-95333334D01*
X178805152Y-95333334D02*
X178767057Y-95366667D01*
X178767057Y-95366667D02*
X178690866Y-95400000D01*
X178690866Y-95400000D02*
X178614676Y-95400000D01*
X178614676Y-95400000D02*
X178538485Y-95366667D01*
X178538485Y-95366667D02*
X178500390Y-95333334D01*
X178500390Y-95333334D02*
X178462295Y-95266667D01*
X178462295Y-95266667D02*
X178462295Y-95100000D01*
X178462295Y-95100000D02*
X178500390Y-95000000D01*
X178462295Y-94800000D02*
X178462295Y-94400000D01*
X179262295Y-94600000D02*
X178462295Y-94600000D01*
X178462295Y-93733334D02*
X179262295Y-93500001D01*
X179262295Y-93500001D02*
X178462295Y-93266667D01*
X179186104Y-92633334D02*
X179224200Y-92666667D01*
X179224200Y-92666667D02*
X179262295Y-92766667D01*
X179262295Y-92766667D02*
X179262295Y-92833334D01*
X179262295Y-92833334D02*
X179224200Y-92933334D01*
X179224200Y-92933334D02*
X179148009Y-93000001D01*
X179148009Y-93000001D02*
X179071819Y-93033334D01*
X179071819Y-93033334D02*
X178919438Y-93066667D01*
X178919438Y-93066667D02*
X178805152Y-93066667D01*
X178805152Y-93066667D02*
X178652771Y-93033334D01*
X178652771Y-93033334D02*
X178576580Y-93000001D01*
X178576580Y-93000001D02*
X178500390Y-92933334D01*
X178500390Y-92933334D02*
X178462295Y-92833334D01*
X178462295Y-92833334D02*
X178462295Y-92766667D01*
X178462295Y-92766667D02*
X178500390Y-92666667D01*
X178500390Y-92666667D02*
X178538485Y-92633334D01*
X179186104Y-91933334D02*
X179224200Y-91966667D01*
X179224200Y-91966667D02*
X179262295Y-92066667D01*
X179262295Y-92066667D02*
X179262295Y-92133334D01*
X179262295Y-92133334D02*
X179224200Y-92233334D01*
X179224200Y-92233334D02*
X179148009Y-92300001D01*
X179148009Y-92300001D02*
X179071819Y-92333334D01*
X179071819Y-92333334D02*
X178919438Y-92366667D01*
X178919438Y-92366667D02*
X178805152Y-92366667D01*
X178805152Y-92366667D02*
X178652771Y-92333334D01*
X178652771Y-92333334D02*
X178576580Y-92300001D01*
X178576580Y-92300001D02*
X178500390Y-92233334D01*
X178500390Y-92233334D02*
X178462295Y-92133334D01*
X178462295Y-92133334D02*
X178462295Y-92066667D01*
X178462295Y-92066667D02*
X178500390Y-91966667D01*
X178500390Y-91966667D02*
X178538485Y-91933334D01*
X179362295Y-88033332D02*
X178562295Y-88033332D01*
X178562295Y-88033332D02*
X179362295Y-87576189D01*
X179362295Y-87576189D02*
X178562295Y-87576189D01*
X178562295Y-87309523D02*
X178562295Y-86852380D01*
X179362295Y-87080952D02*
X178562295Y-87080952D01*
X179286104Y-86128570D02*
X179324200Y-86166666D01*
X179324200Y-86166666D02*
X179362295Y-86280951D01*
X179362295Y-86280951D02*
X179362295Y-86357142D01*
X179362295Y-86357142D02*
X179324200Y-86471428D01*
X179324200Y-86471428D02*
X179248009Y-86547618D01*
X179248009Y-86547618D02*
X179171819Y-86585713D01*
X179171819Y-86585713D02*
X179019438Y-86623809D01*
X179019438Y-86623809D02*
X178905152Y-86623809D01*
X178905152Y-86623809D02*
X178752771Y-86585713D01*
X178752771Y-86585713D02*
X178676580Y-86547618D01*
X178676580Y-86547618D02*
X178600390Y-86471428D01*
X178600390Y-86471428D02*
X178562295Y-86357142D01*
X178562295Y-86357142D02*
X178562295Y-86280951D01*
X178562295Y-86280951D02*
X178600390Y-86166666D01*
X178600390Y-86166666D02*
X178638485Y-86128570D01*
D10*
X173344742Y-89271428D02*
X173344742Y-88585714D01*
X174544742Y-88928571D02*
X173344742Y-88928571D01*
X173916171Y-88185713D02*
X173916171Y-87785713D01*
X174544742Y-87614285D02*
X174544742Y-88185713D01*
X174544742Y-88185713D02*
X173344742Y-88185713D01*
X173344742Y-88185713D02*
X173344742Y-87614285D01*
X174544742Y-87099999D02*
X173344742Y-87099999D01*
X173344742Y-87099999D02*
X174201885Y-86699999D01*
X174201885Y-86699999D02*
X173344742Y-86299999D01*
X173344742Y-86299999D02*
X174544742Y-86299999D01*
X174544742Y-85728570D02*
X173344742Y-85728570D01*
X173344742Y-85728570D02*
X173344742Y-85271427D01*
X173344742Y-85271427D02*
X173401885Y-85157142D01*
X173401885Y-85157142D02*
X173459028Y-85099999D01*
X173459028Y-85099999D02*
X173573314Y-85042856D01*
X173573314Y-85042856D02*
X173744742Y-85042856D01*
X173744742Y-85042856D02*
X173859028Y-85099999D01*
X173859028Y-85099999D02*
X173916171Y-85157142D01*
X173916171Y-85157142D02*
X173973314Y-85271427D01*
X173973314Y-85271427D02*
X173973314Y-85728570D01*
X174544742Y-101821428D02*
X173344742Y-101821428D01*
X174430457Y-100564285D02*
X174487600Y-100621428D01*
X174487600Y-100621428D02*
X174544742Y-100792856D01*
X174544742Y-100792856D02*
X174544742Y-100907142D01*
X174544742Y-100907142D02*
X174487600Y-101078571D01*
X174487600Y-101078571D02*
X174373314Y-101192856D01*
X174373314Y-101192856D02*
X174259028Y-101249999D01*
X174259028Y-101249999D02*
X174030457Y-101307142D01*
X174030457Y-101307142D02*
X173859028Y-101307142D01*
X173859028Y-101307142D02*
X173630457Y-101249999D01*
X173630457Y-101249999D02*
X173516171Y-101192856D01*
X173516171Y-101192856D02*
X173401885Y-101078571D01*
X173401885Y-101078571D02*
X173344742Y-100907142D01*
X173344742Y-100907142D02*
X173344742Y-100792856D01*
X173344742Y-100792856D02*
X173401885Y-100621428D01*
X173401885Y-100621428D02*
X173459028Y-100564285D01*
X174487600Y-100107142D02*
X174544742Y-99935714D01*
X174544742Y-99935714D02*
X174544742Y-99649999D01*
X174544742Y-99649999D02*
X174487600Y-99535714D01*
X174487600Y-99535714D02*
X174430457Y-99478571D01*
X174430457Y-99478571D02*
X174316171Y-99421428D01*
X174316171Y-99421428D02*
X174201885Y-99421428D01*
X174201885Y-99421428D02*
X174087600Y-99478571D01*
X174087600Y-99478571D02*
X174030457Y-99535714D01*
X174030457Y-99535714D02*
X173973314Y-99649999D01*
X173973314Y-99649999D02*
X173916171Y-99878571D01*
X173916171Y-99878571D02*
X173859028Y-99992856D01*
X173859028Y-99992856D02*
X173801885Y-100049999D01*
X173801885Y-100049999D02*
X173687600Y-100107142D01*
X173687600Y-100107142D02*
X173573314Y-100107142D01*
X173573314Y-100107142D02*
X173459028Y-100049999D01*
X173459028Y-100049999D02*
X173401885Y-99992856D01*
X173401885Y-99992856D02*
X173344742Y-99878571D01*
X173344742Y-99878571D02*
X173344742Y-99592856D01*
X173344742Y-99592856D02*
X173401885Y-99421428D01*
X174544742Y-98907142D02*
X173344742Y-98907142D01*
X173344742Y-98907142D02*
X173344742Y-98449999D01*
X173344742Y-98449999D02*
X173401885Y-98335714D01*
X173401885Y-98335714D02*
X173459028Y-98278571D01*
X173459028Y-98278571D02*
X173573314Y-98221428D01*
X173573314Y-98221428D02*
X173744742Y-98221428D01*
X173744742Y-98221428D02*
X173859028Y-98278571D01*
X173859028Y-98278571D02*
X173916171Y-98335714D01*
X173916171Y-98335714D02*
X173973314Y-98449999D01*
X173973314Y-98449999D02*
X173973314Y-98907142D01*
X159100000Y-114944742D02*
X159100000Y-113744742D01*
X159100000Y-113744742D02*
X159557143Y-113744742D01*
X159557143Y-113744742D02*
X159671428Y-113801885D01*
X159671428Y-113801885D02*
X159728571Y-113859028D01*
X159728571Y-113859028D02*
X159785714Y-113973314D01*
X159785714Y-113973314D02*
X159785714Y-114144742D01*
X159785714Y-114144742D02*
X159728571Y-114259028D01*
X159728571Y-114259028D02*
X159671428Y-114316171D01*
X159671428Y-114316171D02*
X159557143Y-114373314D01*
X159557143Y-114373314D02*
X159100000Y-114373314D01*
X160300000Y-114944742D02*
X160300000Y-113744742D01*
X160871429Y-114944742D02*
X160871429Y-113744742D01*
X160871429Y-113744742D02*
X161557143Y-114944742D01*
X161557143Y-114944742D02*
X161557143Y-113744742D01*
X162071429Y-114887600D02*
X162242858Y-114944742D01*
X162242858Y-114944742D02*
X162528572Y-114944742D01*
X162528572Y-114944742D02*
X162642858Y-114887600D01*
X162642858Y-114887600D02*
X162700000Y-114830457D01*
X162700000Y-114830457D02*
X162757143Y-114716171D01*
X162757143Y-114716171D02*
X162757143Y-114601885D01*
X162757143Y-114601885D02*
X162700000Y-114487600D01*
X162700000Y-114487600D02*
X162642858Y-114430457D01*
X162642858Y-114430457D02*
X162528572Y-114373314D01*
X162528572Y-114373314D02*
X162300000Y-114316171D01*
X162300000Y-114316171D02*
X162185715Y-114259028D01*
X162185715Y-114259028D02*
X162128572Y-114201885D01*
X162128572Y-114201885D02*
X162071429Y-114087600D01*
X162071429Y-114087600D02*
X162071429Y-113973314D01*
X162071429Y-113973314D02*
X162128572Y-113859028D01*
X162128572Y-113859028D02*
X162185715Y-113801885D01*
X162185715Y-113801885D02*
X162300000Y-113744742D01*
X162300000Y-113744742D02*
X162585715Y-113744742D01*
X162585715Y-113744742D02*
X162757143Y-113801885D01*
X148019047Y-114804600D02*
X148161904Y-114852219D01*
X148161904Y-114852219D02*
X148399999Y-114852219D01*
X148399999Y-114852219D02*
X148495237Y-114804600D01*
X148495237Y-114804600D02*
X148542856Y-114756980D01*
X148542856Y-114756980D02*
X148590475Y-114661742D01*
X148590475Y-114661742D02*
X148590475Y-114566504D01*
X148590475Y-114566504D02*
X148542856Y-114471266D01*
X148542856Y-114471266D02*
X148495237Y-114423647D01*
X148495237Y-114423647D02*
X148399999Y-114376028D01*
X148399999Y-114376028D02*
X148209523Y-114328409D01*
X148209523Y-114328409D02*
X148114285Y-114280790D01*
X148114285Y-114280790D02*
X148066666Y-114233171D01*
X148066666Y-114233171D02*
X148019047Y-114137933D01*
X148019047Y-114137933D02*
X148019047Y-114042695D01*
X148019047Y-114042695D02*
X148066666Y-113947457D01*
X148066666Y-113947457D02*
X148114285Y-113899838D01*
X148114285Y-113899838D02*
X148209523Y-113852219D01*
X148209523Y-113852219D02*
X148447618Y-113852219D01*
X148447618Y-113852219D02*
X148590475Y-113899838D01*
X148876190Y-113852219D02*
X149447618Y-113852219D01*
X149161904Y-114852219D02*
X149161904Y-113852219D01*
X149733333Y-114804600D02*
X149876190Y-114852219D01*
X149876190Y-114852219D02*
X150114285Y-114852219D01*
X150114285Y-114852219D02*
X150209523Y-114804600D01*
X150209523Y-114804600D02*
X150257142Y-114756980D01*
X150257142Y-114756980D02*
X150304761Y-114661742D01*
X150304761Y-114661742D02*
X150304761Y-114566504D01*
X150304761Y-114566504D02*
X150257142Y-114471266D01*
X150257142Y-114471266D02*
X150209523Y-114423647D01*
X150209523Y-114423647D02*
X150114285Y-114376028D01*
X150114285Y-114376028D02*
X149923809Y-114328409D01*
X149923809Y-114328409D02*
X149828571Y-114280790D01*
X149828571Y-114280790D02*
X149780952Y-114233171D01*
X149780952Y-114233171D02*
X149733333Y-114137933D01*
X149733333Y-114137933D02*
X149733333Y-114042695D01*
X149733333Y-114042695D02*
X149780952Y-113947457D01*
X149780952Y-113947457D02*
X149828571Y-113899838D01*
X149828571Y-113899838D02*
X149923809Y-113852219D01*
X149923809Y-113852219D02*
X150161904Y-113852219D01*
X150161904Y-113852219D02*
X150304761Y-113899838D01*
X151971428Y-114852219D02*
X151495238Y-114852219D01*
X151495238Y-114852219D02*
X151495238Y-113852219D01*
X152304762Y-114328409D02*
X152638095Y-114328409D01*
X152780952Y-114852219D02*
X152304762Y-114852219D01*
X152304762Y-114852219D02*
X152304762Y-113852219D01*
X152304762Y-113852219D02*
X152780952Y-113852219D01*
X153209524Y-114852219D02*
X153209524Y-113852219D01*
X153209524Y-113852219D02*
X153447619Y-113852219D01*
X153447619Y-113852219D02*
X153590476Y-113899838D01*
X153590476Y-113899838D02*
X153685714Y-113995076D01*
X153685714Y-113995076D02*
X153733333Y-114090314D01*
X153733333Y-114090314D02*
X153780952Y-114280790D01*
X153780952Y-114280790D02*
X153780952Y-114423647D01*
X153780952Y-114423647D02*
X153733333Y-114614123D01*
X153733333Y-114614123D02*
X153685714Y-114709361D01*
X153685714Y-114709361D02*
X153590476Y-114804600D01*
X153590476Y-114804600D02*
X153447619Y-114852219D01*
X153447619Y-114852219D02*
X153209524Y-114852219D01*
X139728571Y-114852219D02*
X139728571Y-113852219D01*
X139728571Y-113852219D02*
X140109523Y-113852219D01*
X140109523Y-113852219D02*
X140204761Y-113899838D01*
X140204761Y-113899838D02*
X140252380Y-113947457D01*
X140252380Y-113947457D02*
X140299999Y-114042695D01*
X140299999Y-114042695D02*
X140299999Y-114185552D01*
X140299999Y-114185552D02*
X140252380Y-114280790D01*
X140252380Y-114280790D02*
X140204761Y-114328409D01*
X140204761Y-114328409D02*
X140109523Y-114376028D01*
X140109523Y-114376028D02*
X139728571Y-114376028D01*
X140633333Y-113852219D02*
X140871428Y-114852219D01*
X140871428Y-114852219D02*
X141061904Y-114137933D01*
X141061904Y-114137933D02*
X141252380Y-114852219D01*
X141252380Y-114852219D02*
X141490476Y-113852219D01*
X142442856Y-114852219D02*
X142109523Y-114376028D01*
X141871428Y-114852219D02*
X141871428Y-113852219D01*
X141871428Y-113852219D02*
X142252380Y-113852219D01*
X142252380Y-113852219D02*
X142347618Y-113899838D01*
X142347618Y-113899838D02*
X142395237Y-113947457D01*
X142395237Y-113947457D02*
X142442856Y-114042695D01*
X142442856Y-114042695D02*
X142442856Y-114185552D01*
X142442856Y-114185552D02*
X142395237Y-114280790D01*
X142395237Y-114280790D02*
X142347618Y-114328409D01*
X142347618Y-114328409D02*
X142252380Y-114376028D01*
X142252380Y-114376028D02*
X141871428Y-114376028D01*
X144109523Y-114852219D02*
X143633333Y-114852219D01*
X143633333Y-114852219D02*
X143633333Y-113852219D01*
X144442857Y-114328409D02*
X144776190Y-114328409D01*
X144919047Y-114852219D02*
X144442857Y-114852219D01*
X144442857Y-114852219D02*
X144442857Y-113852219D01*
X144442857Y-113852219D02*
X144919047Y-113852219D01*
X145347619Y-114852219D02*
X145347619Y-113852219D01*
X145347619Y-113852219D02*
X145585714Y-113852219D01*
X145585714Y-113852219D02*
X145728571Y-113899838D01*
X145728571Y-113899838D02*
X145823809Y-113995076D01*
X145823809Y-113995076D02*
X145871428Y-114090314D01*
X145871428Y-114090314D02*
X145919047Y-114280790D01*
X145919047Y-114280790D02*
X145919047Y-114423647D01*
X145919047Y-114423647D02*
X145871428Y-114614123D01*
X145871428Y-114614123D02*
X145823809Y-114709361D01*
X145823809Y-114709361D02*
X145728571Y-114804600D01*
X145728571Y-114804600D02*
X145585714Y-114852219D01*
X145585714Y-114852219D02*
X145347619Y-114852219D01*
X130457142Y-113744742D02*
X130685714Y-113744742D01*
X130685714Y-113744742D02*
X130799999Y-113801885D01*
X130799999Y-113801885D02*
X130914285Y-113916171D01*
X130914285Y-113916171D02*
X130971428Y-114144742D01*
X130971428Y-114144742D02*
X130971428Y-114544742D01*
X130971428Y-114544742D02*
X130914285Y-114773314D01*
X130914285Y-114773314D02*
X130799999Y-114887600D01*
X130799999Y-114887600D02*
X130685714Y-114944742D01*
X130685714Y-114944742D02*
X130457142Y-114944742D01*
X130457142Y-114944742D02*
X130342857Y-114887600D01*
X130342857Y-114887600D02*
X130228571Y-114773314D01*
X130228571Y-114773314D02*
X130171428Y-114544742D01*
X130171428Y-114544742D02*
X130171428Y-114144742D01*
X130171428Y-114144742D02*
X130228571Y-113916171D01*
X130228571Y-113916171D02*
X130342857Y-113801885D01*
X130342857Y-113801885D02*
X130457142Y-113744742D01*
X132057142Y-114944742D02*
X131485714Y-114944742D01*
X131485714Y-114944742D02*
X131485714Y-113744742D01*
X132457143Y-114316171D02*
X132857143Y-114316171D01*
X133028571Y-114944742D02*
X132457143Y-114944742D01*
X132457143Y-114944742D02*
X132457143Y-113744742D01*
X132457143Y-113744742D02*
X133028571Y-113744742D01*
X133542857Y-114944742D02*
X133542857Y-113744742D01*
X133542857Y-113744742D02*
X133828571Y-113744742D01*
X133828571Y-113744742D02*
X134000000Y-113801885D01*
X134000000Y-113801885D02*
X134114285Y-113916171D01*
X134114285Y-113916171D02*
X134171428Y-114030457D01*
X134171428Y-114030457D02*
X134228571Y-114259028D01*
X134228571Y-114259028D02*
X134228571Y-114430457D01*
X134228571Y-114430457D02*
X134171428Y-114659028D01*
X134171428Y-114659028D02*
X134114285Y-114773314D01*
X134114285Y-114773314D02*
X134000000Y-114887600D01*
X134000000Y-114887600D02*
X133828571Y-114944742D01*
X133828571Y-114944742D02*
X133542857Y-114944742D01*
X115342857Y-114316171D02*
X115742857Y-114316171D01*
X115914285Y-114944742D02*
X115342857Y-114944742D01*
X115342857Y-114944742D02*
X115342857Y-113744742D01*
X115342857Y-113744742D02*
X115914285Y-113744742D01*
X116428571Y-114944742D02*
X116428571Y-113744742D01*
X116428571Y-113744742D02*
X117114285Y-114944742D01*
X117114285Y-114944742D02*
X117114285Y-113744742D01*
X118371428Y-114830457D02*
X118314285Y-114887600D01*
X118314285Y-114887600D02*
X118142857Y-114944742D01*
X118142857Y-114944742D02*
X118028571Y-114944742D01*
X118028571Y-114944742D02*
X117857142Y-114887600D01*
X117857142Y-114887600D02*
X117742857Y-114773314D01*
X117742857Y-114773314D02*
X117685714Y-114659028D01*
X117685714Y-114659028D02*
X117628571Y-114430457D01*
X117628571Y-114430457D02*
X117628571Y-114259028D01*
X117628571Y-114259028D02*
X117685714Y-114030457D01*
X117685714Y-114030457D02*
X117742857Y-113916171D01*
X117742857Y-113916171D02*
X117857142Y-113801885D01*
X117857142Y-113801885D02*
X118028571Y-113744742D01*
X118028571Y-113744742D02*
X118142857Y-113744742D01*
X118142857Y-113744742D02*
X118314285Y-113801885D01*
X118314285Y-113801885D02*
X118371428Y-113859028D01*
X119114285Y-113744742D02*
X119342857Y-113744742D01*
X119342857Y-113744742D02*
X119457142Y-113801885D01*
X119457142Y-113801885D02*
X119571428Y-113916171D01*
X119571428Y-113916171D02*
X119628571Y-114144742D01*
X119628571Y-114144742D02*
X119628571Y-114544742D01*
X119628571Y-114544742D02*
X119571428Y-114773314D01*
X119571428Y-114773314D02*
X119457142Y-114887600D01*
X119457142Y-114887600D02*
X119342857Y-114944742D01*
X119342857Y-114944742D02*
X119114285Y-114944742D01*
X119114285Y-114944742D02*
X119000000Y-114887600D01*
X119000000Y-114887600D02*
X118885714Y-114773314D01*
X118885714Y-114773314D02*
X118828571Y-114544742D01*
X118828571Y-114544742D02*
X118828571Y-114144742D01*
X118828571Y-114144742D02*
X118885714Y-113916171D01*
X118885714Y-113916171D02*
X119000000Y-113801885D01*
X119000000Y-113801885D02*
X119114285Y-113744742D01*
X120142857Y-114944742D02*
X120142857Y-113744742D01*
X120142857Y-113744742D02*
X120428571Y-113744742D01*
X120428571Y-113744742D02*
X120600000Y-113801885D01*
X120600000Y-113801885D02*
X120714285Y-113916171D01*
X120714285Y-113916171D02*
X120771428Y-114030457D01*
X120771428Y-114030457D02*
X120828571Y-114259028D01*
X120828571Y-114259028D02*
X120828571Y-114430457D01*
X120828571Y-114430457D02*
X120771428Y-114659028D01*
X120771428Y-114659028D02*
X120714285Y-114773314D01*
X120714285Y-114773314D02*
X120600000Y-114887600D01*
X120600000Y-114887600D02*
X120428571Y-114944742D01*
X120428571Y-114944742D02*
X120142857Y-114944742D01*
X121342857Y-114316171D02*
X121742857Y-114316171D01*
X121914285Y-114944742D02*
X121342857Y-114944742D01*
X121342857Y-114944742D02*
X121342857Y-113744742D01*
X121342857Y-113744742D02*
X121914285Y-113744742D01*
X123114285Y-114944742D02*
X122714285Y-114373314D01*
X122428571Y-114944742D02*
X122428571Y-113744742D01*
X122428571Y-113744742D02*
X122885714Y-113744742D01*
X122885714Y-113744742D02*
X122999999Y-113801885D01*
X122999999Y-113801885D02*
X123057142Y-113859028D01*
X123057142Y-113859028D02*
X123114285Y-113973314D01*
X123114285Y-113973314D02*
X123114285Y-114144742D01*
X123114285Y-114144742D02*
X123057142Y-114259028D01*
X123057142Y-114259028D02*
X122999999Y-114316171D01*
X122999999Y-114316171D02*
X122885714Y-114373314D01*
X122885714Y-114373314D02*
X122428571Y-114373314D01*
X105828572Y-114316171D02*
X105428572Y-114316171D01*
X105428572Y-114944742D02*
X105428572Y-113744742D01*
X105428572Y-113744742D02*
X106000000Y-113744742D01*
X106400000Y-114601885D02*
X106971429Y-114601885D01*
X106285714Y-114944742D02*
X106685714Y-113744742D01*
X106685714Y-113744742D02*
X107085714Y-114944742D01*
X107485714Y-114944742D02*
X107485714Y-113744742D01*
X107485714Y-113744742D02*
X108171428Y-114944742D01*
X108171428Y-114944742D02*
X108171428Y-113744742D01*
D12*
X133835347Y-105144438D02*
X133835347Y-103144438D01*
X133835347Y-103144438D02*
X134597252Y-103144438D01*
X134597252Y-103144438D02*
X134787728Y-103239676D01*
X134787728Y-103239676D02*
X134882966Y-103334914D01*
X134882966Y-103334914D02*
X134978204Y-103525390D01*
X134978204Y-103525390D02*
X134978204Y-103811104D01*
X134978204Y-103811104D02*
X134882966Y-104001580D01*
X134882966Y-104001580D02*
X134787728Y-104096819D01*
X134787728Y-104096819D02*
X134597252Y-104192057D01*
X134597252Y-104192057D02*
X133835347Y-104192057D01*
X135835347Y-105144438D02*
X135835347Y-103811104D01*
X135835347Y-104192057D02*
X135930585Y-104001580D01*
X135930585Y-104001580D02*
X136025823Y-103906342D01*
X136025823Y-103906342D02*
X136216299Y-103811104D01*
X136216299Y-103811104D02*
X136406776Y-103811104D01*
X137359156Y-105144438D02*
X137168680Y-105049200D01*
X137168680Y-105049200D02*
X137073442Y-104953961D01*
X137073442Y-104953961D02*
X136978204Y-104763485D01*
X136978204Y-104763485D02*
X136978204Y-104192057D01*
X136978204Y-104192057D02*
X137073442Y-104001580D01*
X137073442Y-104001580D02*
X137168680Y-103906342D01*
X137168680Y-103906342D02*
X137359156Y-103811104D01*
X137359156Y-103811104D02*
X137644871Y-103811104D01*
X137644871Y-103811104D02*
X137835347Y-103906342D01*
X137835347Y-103906342D02*
X137930585Y-104001580D01*
X137930585Y-104001580D02*
X138025823Y-104192057D01*
X138025823Y-104192057D02*
X138025823Y-104763485D01*
X138025823Y-104763485D02*
X137930585Y-104953961D01*
X137930585Y-104953961D02*
X137835347Y-105049200D01*
X137835347Y-105049200D02*
X137644871Y-105144438D01*
X137644871Y-105144438D02*
X137359156Y-105144438D01*
X139740109Y-103811104D02*
X139740109Y-105430152D01*
X139740109Y-105430152D02*
X139644871Y-105620628D01*
X139644871Y-105620628D02*
X139549633Y-105715866D01*
X139549633Y-105715866D02*
X139359156Y-105811104D01*
X139359156Y-105811104D02*
X139073442Y-105811104D01*
X139073442Y-105811104D02*
X138882966Y-105715866D01*
X139740109Y-105049200D02*
X139549633Y-105144438D01*
X139549633Y-105144438D02*
X139168680Y-105144438D01*
X139168680Y-105144438D02*
X138978204Y-105049200D01*
X138978204Y-105049200D02*
X138882966Y-104953961D01*
X138882966Y-104953961D02*
X138787728Y-104763485D01*
X138787728Y-104763485D02*
X138787728Y-104192057D01*
X138787728Y-104192057D02*
X138882966Y-104001580D01*
X138882966Y-104001580D02*
X138978204Y-103906342D01*
X138978204Y-103906342D02*
X139168680Y-103811104D01*
X139168680Y-103811104D02*
X139549633Y-103811104D01*
X139549633Y-103811104D02*
X139740109Y-103906342D01*
X140692490Y-105144438D02*
X140692490Y-103811104D01*
X140692490Y-104192057D02*
X140787728Y-104001580D01*
X140787728Y-104001580D02*
X140882966Y-103906342D01*
X140882966Y-103906342D02*
X141073442Y-103811104D01*
X141073442Y-103811104D02*
X141263919Y-103811104D01*
X142787728Y-105144438D02*
X142787728Y-104096819D01*
X142787728Y-104096819D02*
X142692490Y-103906342D01*
X142692490Y-103906342D02*
X142502014Y-103811104D01*
X142502014Y-103811104D02*
X142121061Y-103811104D01*
X142121061Y-103811104D02*
X141930585Y-103906342D01*
X142787728Y-105049200D02*
X142597252Y-105144438D01*
X142597252Y-105144438D02*
X142121061Y-105144438D01*
X142121061Y-105144438D02*
X141930585Y-105049200D01*
X141930585Y-105049200D02*
X141835347Y-104858723D01*
X141835347Y-104858723D02*
X141835347Y-104668247D01*
X141835347Y-104668247D02*
X141930585Y-104477771D01*
X141930585Y-104477771D02*
X142121061Y-104382533D01*
X142121061Y-104382533D02*
X142597252Y-104382533D01*
X142597252Y-104382533D02*
X142787728Y-104287295D01*
X143740109Y-105144438D02*
X143740109Y-103811104D01*
X143740109Y-104001580D02*
X143835347Y-103906342D01*
X143835347Y-103906342D02*
X144025823Y-103811104D01*
X144025823Y-103811104D02*
X144311538Y-103811104D01*
X144311538Y-103811104D02*
X144502014Y-103906342D01*
X144502014Y-103906342D02*
X144597252Y-104096819D01*
X144597252Y-104096819D02*
X144597252Y-105144438D01*
X144597252Y-104096819D02*
X144692490Y-103906342D01*
X144692490Y-103906342D02*
X144882966Y-103811104D01*
X144882966Y-103811104D02*
X145168680Y-103811104D01*
X145168680Y-103811104D02*
X145359157Y-103906342D01*
X145359157Y-103906342D02*
X145454395Y-104096819D01*
X145454395Y-104096819D02*
X145454395Y-105144438D01*
X146406776Y-105144438D02*
X146406776Y-103811104D01*
X146406776Y-104001580D02*
X146502014Y-103906342D01*
X146502014Y-103906342D02*
X146692490Y-103811104D01*
X146692490Y-103811104D02*
X146978205Y-103811104D01*
X146978205Y-103811104D02*
X147168681Y-103906342D01*
X147168681Y-103906342D02*
X147263919Y-104096819D01*
X147263919Y-104096819D02*
X147263919Y-105144438D01*
X147263919Y-104096819D02*
X147359157Y-103906342D01*
X147359157Y-103906342D02*
X147549633Y-103811104D01*
X147549633Y-103811104D02*
X147835347Y-103811104D01*
X147835347Y-103811104D02*
X148025824Y-103906342D01*
X148025824Y-103906342D02*
X148121062Y-104096819D01*
X148121062Y-104096819D02*
X148121062Y-105144438D01*
X149930586Y-105144438D02*
X149930586Y-104096819D01*
X149930586Y-104096819D02*
X149835348Y-103906342D01*
X149835348Y-103906342D02*
X149644872Y-103811104D01*
X149644872Y-103811104D02*
X149263919Y-103811104D01*
X149263919Y-103811104D02*
X149073443Y-103906342D01*
X149930586Y-105049200D02*
X149740110Y-105144438D01*
X149740110Y-105144438D02*
X149263919Y-105144438D01*
X149263919Y-105144438D02*
X149073443Y-105049200D01*
X149073443Y-105049200D02*
X148978205Y-104858723D01*
X148978205Y-104858723D02*
X148978205Y-104668247D01*
X148978205Y-104668247D02*
X149073443Y-104477771D01*
X149073443Y-104477771D02*
X149263919Y-104382533D01*
X149263919Y-104382533D02*
X149740110Y-104382533D01*
X149740110Y-104382533D02*
X149930586Y-104287295D01*
X150882967Y-105144438D02*
X150882967Y-103144438D01*
X150882967Y-103906342D02*
X151073443Y-103811104D01*
X151073443Y-103811104D02*
X151454396Y-103811104D01*
X151454396Y-103811104D02*
X151644872Y-103906342D01*
X151644872Y-103906342D02*
X151740110Y-104001580D01*
X151740110Y-104001580D02*
X151835348Y-104192057D01*
X151835348Y-104192057D02*
X151835348Y-104763485D01*
X151835348Y-104763485D02*
X151740110Y-104953961D01*
X151740110Y-104953961D02*
X151644872Y-105049200D01*
X151644872Y-105049200D02*
X151454396Y-105144438D01*
X151454396Y-105144438D02*
X151073443Y-105144438D01*
X151073443Y-105144438D02*
X150882967Y-105049200D01*
X152978205Y-105144438D02*
X152787729Y-105049200D01*
X152787729Y-105049200D02*
X152692491Y-104858723D01*
X152692491Y-104858723D02*
X152692491Y-103144438D01*
X154502015Y-105049200D02*
X154311539Y-105144438D01*
X154311539Y-105144438D02*
X153930586Y-105144438D01*
X153930586Y-105144438D02*
X153740110Y-105049200D01*
X153740110Y-105049200D02*
X153644872Y-104858723D01*
X153644872Y-104858723D02*
X153644872Y-104096819D01*
X153644872Y-104096819D02*
X153740110Y-103906342D01*
X153740110Y-103906342D02*
X153930586Y-103811104D01*
X153930586Y-103811104D02*
X154311539Y-103811104D01*
X154311539Y-103811104D02*
X154502015Y-103906342D01*
X154502015Y-103906342D02*
X154597253Y-104096819D01*
X154597253Y-104096819D02*
X154597253Y-104287295D01*
X154597253Y-104287295D02*
X153644872Y-104477771D01*
X156978206Y-105144438D02*
X156978206Y-103144438D01*
X156978206Y-103144438D02*
X157454396Y-103144438D01*
X157454396Y-103144438D02*
X157740111Y-103239676D01*
X157740111Y-103239676D02*
X157930587Y-103430152D01*
X157930587Y-103430152D02*
X158025825Y-103620628D01*
X158025825Y-103620628D02*
X158121063Y-104001580D01*
X158121063Y-104001580D02*
X158121063Y-104287295D01*
X158121063Y-104287295D02*
X158025825Y-104668247D01*
X158025825Y-104668247D02*
X157930587Y-104858723D01*
X157930587Y-104858723D02*
X157740111Y-105049200D01*
X157740111Y-105049200D02*
X157454396Y-105144438D01*
X157454396Y-105144438D02*
X156978206Y-105144438D01*
X160121063Y-104953961D02*
X160025825Y-105049200D01*
X160025825Y-105049200D02*
X159740111Y-105144438D01*
X159740111Y-105144438D02*
X159549635Y-105144438D01*
X159549635Y-105144438D02*
X159263920Y-105049200D01*
X159263920Y-105049200D02*
X159073444Y-104858723D01*
X159073444Y-104858723D02*
X158978206Y-104668247D01*
X158978206Y-104668247D02*
X158882968Y-104287295D01*
X158882968Y-104287295D02*
X158882968Y-104001580D01*
X158882968Y-104001580D02*
X158978206Y-103620628D01*
X158978206Y-103620628D02*
X159073444Y-103430152D01*
X159073444Y-103430152D02*
X159263920Y-103239676D01*
X159263920Y-103239676D02*
X159549635Y-103144438D01*
X159549635Y-103144438D02*
X159740111Y-103144438D01*
X159740111Y-103144438D02*
X160025825Y-103239676D01*
X160025825Y-103239676D02*
X160121063Y-103334914D01*
X163454397Y-105144438D02*
X162502016Y-105144438D01*
X162502016Y-105144438D02*
X162502016Y-103144438D01*
X164406778Y-105144438D02*
X164216302Y-105049200D01*
X164216302Y-105049200D02*
X164121064Y-104953961D01*
X164121064Y-104953961D02*
X164025826Y-104763485D01*
X164025826Y-104763485D02*
X164025826Y-104192057D01*
X164025826Y-104192057D02*
X164121064Y-104001580D01*
X164121064Y-104001580D02*
X164216302Y-103906342D01*
X164216302Y-103906342D02*
X164406778Y-103811104D01*
X164406778Y-103811104D02*
X164692493Y-103811104D01*
X164692493Y-103811104D02*
X164882969Y-103906342D01*
X164882969Y-103906342D02*
X164978207Y-104001580D01*
X164978207Y-104001580D02*
X165073445Y-104192057D01*
X165073445Y-104192057D02*
X165073445Y-104763485D01*
X165073445Y-104763485D02*
X164978207Y-104953961D01*
X164978207Y-104953961D02*
X164882969Y-105049200D01*
X164882969Y-105049200D02*
X164692493Y-105144438D01*
X164692493Y-105144438D02*
X164406778Y-105144438D01*
X166787731Y-105144438D02*
X166787731Y-104096819D01*
X166787731Y-104096819D02*
X166692493Y-103906342D01*
X166692493Y-103906342D02*
X166502017Y-103811104D01*
X166502017Y-103811104D02*
X166121064Y-103811104D01*
X166121064Y-103811104D02*
X165930588Y-103906342D01*
X166787731Y-105049200D02*
X166597255Y-105144438D01*
X166597255Y-105144438D02*
X166121064Y-105144438D01*
X166121064Y-105144438D02*
X165930588Y-105049200D01*
X165930588Y-105049200D02*
X165835350Y-104858723D01*
X165835350Y-104858723D02*
X165835350Y-104668247D01*
X165835350Y-104668247D02*
X165930588Y-104477771D01*
X165930588Y-104477771D02*
X166121064Y-104382533D01*
X166121064Y-104382533D02*
X166597255Y-104382533D01*
X166597255Y-104382533D02*
X166787731Y-104287295D01*
X168597255Y-105144438D02*
X168597255Y-103144438D01*
X168597255Y-105049200D02*
X168406779Y-105144438D01*
X168406779Y-105144438D02*
X168025826Y-105144438D01*
X168025826Y-105144438D02*
X167835350Y-105049200D01*
X167835350Y-105049200D02*
X167740112Y-104953961D01*
X167740112Y-104953961D02*
X167644874Y-104763485D01*
X167644874Y-104763485D02*
X167644874Y-104192057D01*
X167644874Y-104192057D02*
X167740112Y-104001580D01*
X167740112Y-104001580D02*
X167835350Y-103906342D01*
X167835350Y-103906342D02*
X168025826Y-103811104D01*
X168025826Y-103811104D02*
X168406779Y-103811104D01*
X168406779Y-103811104D02*
X168597255Y-103906342D01*
D11*
X114317261Y-109650057D02*
X114222023Y-109602438D01*
X114222023Y-109602438D02*
X114126785Y-109507200D01*
X114126785Y-109507200D02*
X113983928Y-109364342D01*
X113983928Y-109364342D02*
X113888690Y-109316723D01*
X113888690Y-109316723D02*
X113793452Y-109316723D01*
X113841071Y-109554819D02*
X113745833Y-109507200D01*
X113745833Y-109507200D02*
X113650595Y-109411961D01*
X113650595Y-109411961D02*
X113602976Y-109221485D01*
X113602976Y-109221485D02*
X113602976Y-108888152D01*
X113602976Y-108888152D02*
X113650595Y-108697676D01*
X113650595Y-108697676D02*
X113745833Y-108602438D01*
X113745833Y-108602438D02*
X113841071Y-108554819D01*
X113841071Y-108554819D02*
X114031547Y-108554819D01*
X114031547Y-108554819D02*
X114126785Y-108602438D01*
X114126785Y-108602438D02*
X114222023Y-108697676D01*
X114222023Y-108697676D02*
X114269642Y-108888152D01*
X114269642Y-108888152D02*
X114269642Y-109221485D01*
X114269642Y-109221485D02*
X114222023Y-109411961D01*
X114222023Y-109411961D02*
X114126785Y-109507200D01*
X114126785Y-109507200D02*
X114031547Y-109554819D01*
X114031547Y-109554819D02*
X113841071Y-109554819D01*
X115222023Y-109554819D02*
X114650595Y-109554819D01*
X114936309Y-109554819D02*
X114936309Y-108554819D01*
X114936309Y-108554819D02*
X114841071Y-108697676D01*
X114841071Y-108697676D02*
X114745833Y-108792914D01*
X114745833Y-108792914D02*
X114650595Y-108840533D01*
D13*
%TO.C,U7*%
X107752500Y-76100000D02*
X107752500Y-76750000D01*
X107752500Y-76100000D02*
X107752500Y-75450000D01*
X110872500Y-76100000D02*
X110872500Y-76750000D01*
X110872500Y-76100000D02*
X110872500Y-75450000D01*
X107802500Y-77262500D02*
X107472500Y-77502500D01*
X107472500Y-77022500D01*
X107802500Y-77262500D01*
G36*
X107802500Y-77262500D02*
G01*
X107472500Y-77502500D01*
X107472500Y-77022500D01*
X107802500Y-77262500D01*
G37*
%TO.C,Q1*%
X114412500Y-108260000D02*
X115062500Y-108260000D01*
X114412500Y-108260000D02*
X113762500Y-108260000D01*
X114412500Y-105140000D02*
X115062500Y-105140000D01*
X114412500Y-105140000D02*
X113762500Y-105140000D01*
X115815000Y-108540000D02*
X115335000Y-108540000D01*
X115575000Y-108210000D01*
X115815000Y-108540000D01*
G36*
X115815000Y-108540000D02*
G01*
X115335000Y-108540000D01*
X115575000Y-108210000D01*
X115815000Y-108540000D01*
G37*
%TO.C,R41*%
X147490000Y-109972936D02*
X147490000Y-111427064D01*
X149310000Y-109972936D02*
X149310000Y-111427064D01*
%TO.C,TP5*%
X147767000Y-95824000D02*
X149667000Y-95824000D01*
X147767000Y-97724000D02*
X147767000Y-95824000D01*
X149667000Y-95824000D02*
X149667000Y-97724000D01*
X149667000Y-97724000D02*
X147767000Y-97724000D01*
%TO.C,TP1*%
X162626000Y-95824000D02*
X164526000Y-95824000D01*
X162626000Y-97724000D02*
X162626000Y-95824000D01*
X164526000Y-95824000D02*
X164526000Y-97724000D01*
X164526000Y-97724000D02*
X162626000Y-97724000D01*
%TO.C,C3*%
X97600000Y-83890000D02*
X98600000Y-83890000D01*
X98100000Y-83390000D02*
X98100000Y-84390000D01*
X98840000Y-83104437D02*
X98840000Y-84890000D01*
X98840000Y-83104437D02*
X99904437Y-82040000D01*
X98840000Y-89695563D02*
X98840000Y-87910000D01*
X98840000Y-89695563D02*
X99904437Y-90760000D01*
X99904437Y-82040000D02*
X107560000Y-82040000D01*
X99904437Y-90760000D02*
X107560000Y-90760000D01*
X107560000Y-82040000D02*
X107560000Y-84890000D01*
X107560000Y-90760000D02*
X107560000Y-87910000D01*
%TO.C,D4*%
X149915000Y-109865000D02*
X149915000Y-113035000D01*
X149915000Y-113035000D02*
X153800000Y-113035000D01*
X153800000Y-109865000D02*
X149915000Y-109865000D01*
%TO.C,C12*%
X143461252Y-95160000D02*
X142038748Y-95160000D01*
X143461252Y-93340000D02*
X142038748Y-93340000D01*
%TO.C,D5*%
X168910000Y-70550000D02*
X168910000Y-67250000D01*
X168910000Y-70550000D02*
X163400000Y-70550000D01*
X168910000Y-67250000D02*
X163400000Y-67250000D01*
%TO.C,R34*%
X130464564Y-75910000D02*
X129010436Y-75910000D01*
X130464564Y-74090000D02*
X129010436Y-74090000D01*
%TO.C,R28*%
X123264564Y-73910000D02*
X121810436Y-73910000D01*
X123264564Y-72090000D02*
X121810436Y-72090000D01*
%TO.C,R27*%
X123264564Y-78910000D02*
X121810436Y-78910000D01*
X123264564Y-77090000D02*
X121810436Y-77090000D01*
%TO.C,C11*%
X121826248Y-74590000D02*
X123248752Y-74590000D01*
X121826248Y-76410000D02*
X123248752Y-76410000D01*
%TO.C,R6*%
X118935436Y-104540000D02*
X120389564Y-104540000D01*
X118935436Y-106360000D02*
X120389564Y-106360000D01*
%TO.C,J2*%
X106730000Y-115670000D02*
X109330000Y-115670000D01*
X109330000Y-118330000D02*
X109330000Y-115670000D01*
X106730000Y-118330000D02*
X106730000Y-115670000D01*
X106730000Y-118330000D02*
X109330000Y-118330000D01*
X105460000Y-118330000D02*
X104130000Y-118330000D01*
X104130000Y-118330000D02*
X104130000Y-117000000D01*
%TO.C,Y1*%
X120500000Y-91525000D02*
X116500000Y-91525000D01*
X120500000Y-94825000D02*
X120500000Y-91525000D01*
%TO.C,U6*%
X101900000Y-74890000D02*
X101660000Y-74560000D01*
X102140000Y-74560000D01*
X101900000Y-74890000D01*
G36*
X101900000Y-74890000D02*
G01*
X101660000Y-74560000D01*
X102140000Y-74560000D01*
X101900000Y-74890000D01*
G37*
X103200000Y-77960000D02*
X104000000Y-77960000D01*
X103200000Y-77960000D02*
X102400000Y-77960000D01*
X103200000Y-74840000D02*
X104000000Y-74840000D01*
X103200000Y-74840000D02*
X102400000Y-74840000D01*
%TO.C,U5*%
X143000000Y-87440000D02*
X141050000Y-87440000D01*
X143000000Y-87440000D02*
X144950000Y-87440000D01*
X143000000Y-92560000D02*
X141050000Y-92560000D01*
X143000000Y-92560000D02*
X144950000Y-92560000D01*
X140300000Y-87535000D02*
X140060000Y-87205000D01*
X140540000Y-87205000D01*
X140300000Y-87535000D01*
G36*
X140300000Y-87535000D02*
G01*
X140060000Y-87205000D01*
X140540000Y-87205000D01*
X140300000Y-87535000D01*
G37*
D11*
%TO.C,U4*%
X126375000Y-86375000D02*
X126375000Y-86600000D01*
X126375000Y-86375000D02*
X126700000Y-86375000D01*
X126375000Y-93625000D02*
X126375000Y-93300000D01*
X126375000Y-93625000D02*
X126700000Y-93625000D01*
X133625000Y-86375000D02*
X133300000Y-86375000D01*
X133625000Y-86375000D02*
X133625000Y-86700000D01*
X133625000Y-93625000D02*
X133300000Y-93625000D01*
X133625000Y-93625000D02*
X133625000Y-93300000D01*
D13*
X125610000Y-86660000D02*
X125270000Y-86190000D01*
X125950000Y-86190000D01*
X125610000Y-86660000D01*
G36*
X125610000Y-86660000D02*
G01*
X125270000Y-86190000D01*
X125950000Y-86190000D01*
X125610000Y-86660000D01*
G37*
%TO.C,U3*%
X110225000Y-93845000D02*
X108275000Y-93845000D01*
X110225000Y-93845000D02*
X112175000Y-93845000D01*
X110225000Y-103965000D02*
X108275000Y-103965000D01*
X110225000Y-103965000D02*
X112175000Y-103965000D01*
X107525000Y-93900000D02*
X107285000Y-93570000D01*
X107765000Y-93570000D01*
X107525000Y-93900000D01*
G36*
X107525000Y-93900000D02*
G01*
X107285000Y-93570000D01*
X107765000Y-93570000D01*
X107525000Y-93900000D01*
G37*
%TO.C,U2*%
X132125000Y-77040000D02*
X129925000Y-77040000D01*
X132125000Y-77040000D02*
X134325000Y-77040000D01*
X132125000Y-82260000D02*
X129925000Y-82260000D01*
X132125000Y-82260000D02*
X134325000Y-82260000D01*
X129225000Y-77240000D02*
X128985000Y-76910000D01*
X129465000Y-76910000D01*
X129225000Y-77240000D01*
G36*
X129225000Y-77240000D02*
G01*
X128985000Y-76910000D01*
X129465000Y-76910000D01*
X129225000Y-77240000D01*
G37*
%TO.C,U1*%
X90230000Y-80660000D02*
X94871000Y-80660000D01*
X90230000Y-80660000D02*
X90230000Y-70420000D01*
X91740000Y-80660000D02*
X91740000Y-70420000D01*
X94871000Y-80660000D02*
X94871000Y-70420000D01*
X90230000Y-77390000D02*
X91740000Y-77390000D01*
X90230000Y-73689000D02*
X91740000Y-73689000D01*
X90230000Y-70420000D02*
X94871000Y-70420000D01*
%TO.C,TP4*%
X154747000Y-97724000D02*
X152847000Y-97724000D01*
X154747000Y-95824000D02*
X154747000Y-97724000D01*
X152847000Y-97724000D02*
X152847000Y-95824000D01*
X152847000Y-95824000D02*
X154747000Y-95824000D01*
%TO.C,TP3*%
X157927000Y-95824000D02*
X159827000Y-95824000D01*
X157927000Y-97724000D02*
X157927000Y-95824000D01*
X159827000Y-95824000D02*
X159827000Y-97724000D01*
X159827000Y-97724000D02*
X157927000Y-97724000D01*
%TO.C,TP2*%
X169606000Y-97724000D02*
X167706000Y-97724000D01*
X169606000Y-95824000D02*
X169606000Y-97724000D01*
X167706000Y-97724000D02*
X167706000Y-95824000D01*
X167706000Y-95824000D02*
X169606000Y-95824000D01*
%TO.C,TH1*%
X127027000Y-67313436D02*
X127027000Y-67767564D01*
X128497000Y-67313436D02*
X128497000Y-67767564D01*
%TO.C,SW1*%
X100850000Y-108850000D02*
X100850000Y-110350000D01*
X102100000Y-112850000D02*
X106600000Y-112850000D01*
X106600000Y-106350000D02*
X102100000Y-106350000D01*
X107850000Y-110350000D02*
X107850000Y-108850000D01*
%TO.C,R40*%
X108585436Y-80760000D02*
X110039564Y-80760000D01*
X108585436Y-78940000D02*
X110039564Y-78940000D01*
%TO.C,R39*%
X142762064Y-86547000D02*
X141307936Y-86547000D01*
X142762064Y-84727000D02*
X141307936Y-84727000D01*
%TO.C,R38*%
X142762064Y-83797000D02*
X141307936Y-83797000D01*
X142762064Y-81977000D02*
X141307936Y-81977000D01*
%TO.C,R37*%
X148130000Y-72380000D02*
X173370000Y-72380000D01*
X148130000Y-75560000D02*
X148130000Y-72380000D01*
X148130000Y-78440000D02*
X148130000Y-81620000D01*
X148130000Y-81620000D02*
X173370000Y-81620000D01*
X173370000Y-72380000D02*
X173370000Y-75560000D01*
X173370000Y-81620000D02*
X173370000Y-78440000D01*
%TO.C,R36*%
X141307936Y-73727000D02*
X142762064Y-73727000D01*
X141307936Y-75547000D02*
X142762064Y-75547000D01*
%TO.C,R35*%
X141307936Y-76477000D02*
X142762064Y-76477000D01*
X141307936Y-78297000D02*
X142762064Y-78297000D01*
%TO.C,R33*%
X160160000Y-67272936D02*
X160160000Y-68727064D01*
X158340000Y-67272936D02*
X158340000Y-68727064D01*
%TO.C,R32*%
X148660000Y-67272936D02*
X148660000Y-68727064D01*
X146840000Y-67272936D02*
X146840000Y-68727064D01*
%TO.C,R31*%
X137160000Y-67272936D02*
X137160000Y-68727064D01*
X135340000Y-67272936D02*
X135340000Y-68727064D01*
%TO.C,R30*%
X125410000Y-67272936D02*
X125410000Y-68727064D01*
X123590000Y-67272936D02*
X123590000Y-68727064D01*
%TO.C,R29*%
X114160000Y-67272936D02*
X114160000Y-68727064D01*
X112340000Y-67272936D02*
X112340000Y-68727064D01*
%TO.C,R26*%
X154910000Y-67272936D02*
X154910000Y-68727064D01*
X153090000Y-67272936D02*
X153090000Y-68727064D01*
%TO.C,R25*%
X143410000Y-67272936D02*
X143410000Y-68727064D01*
X141590000Y-67272936D02*
X141590000Y-68727064D01*
%TO.C,R24*%
X131660000Y-67272936D02*
X131660000Y-68727064D01*
X129840000Y-67272936D02*
X129840000Y-68727064D01*
%TO.C,R23*%
X120410000Y-67272936D02*
X120410000Y-68727064D01*
X118590000Y-67272936D02*
X118590000Y-68727064D01*
%TO.C,R22*%
X108910000Y-67272936D02*
X108910000Y-68727064D01*
X107090000Y-67272936D02*
X107090000Y-68727064D01*
%TO.C,R21*%
X124590000Y-104689564D02*
X124590000Y-103235436D01*
X126410000Y-104689564D02*
X126410000Y-103235436D01*
%TO.C,R20*%
X128926000Y-98205936D02*
X128926000Y-99660064D01*
X127106000Y-98205936D02*
X127106000Y-99660064D01*
%TO.C,R19*%
X126513000Y-98205936D02*
X126513000Y-99660064D01*
X124693000Y-98205936D02*
X124693000Y-99660064D01*
%TO.C,R18*%
X137910000Y-86272936D02*
X137910000Y-87727064D01*
X136090000Y-86272936D02*
X136090000Y-87727064D01*
%TO.C,R17*%
X118227064Y-73910000D02*
X116772936Y-73910000D01*
X118227064Y-72090000D02*
X116772936Y-72090000D01*
%TO.C,R16*%
X123264564Y-83910000D02*
X121810436Y-83910000D01*
X123264564Y-82090000D02*
X121810436Y-82090000D01*
%TO.C,R15*%
X123227064Y-79590000D02*
X121772936Y-79590000D01*
X123227064Y-81410000D02*
X121772936Y-81410000D01*
%TO.C,R14*%
X117810000Y-81589564D02*
X117810000Y-80135436D01*
X115990000Y-81589564D02*
X115990000Y-80135436D01*
%TO.C,R13*%
X115310000Y-81589564D02*
X115310000Y-80135436D01*
X113490000Y-81589564D02*
X113490000Y-80135436D01*
%TO.C,R12*%
X170690000Y-87764564D02*
X170690000Y-86310436D01*
X172510000Y-87764564D02*
X172510000Y-86310436D01*
%TO.C,R11*%
X152927064Y-109110000D02*
X151472936Y-109110000D01*
X152927064Y-107290000D02*
X151472936Y-107290000D01*
%TO.C,R10*%
X120389564Y-109110000D02*
X118935436Y-109110000D01*
X120389564Y-107290000D02*
X118935436Y-107290000D01*
%TO.C,R9*%
X152210436Y-88160000D02*
X153664564Y-88160000D01*
X152210436Y-86340000D02*
X153664564Y-86340000D01*
%TO.C,R8*%
X101310436Y-64590000D02*
X102764564Y-64590000D01*
X101310436Y-66410000D02*
X102764564Y-66410000D01*
%TO.C,R7*%
X143627064Y-112810000D02*
X142172936Y-112810000D01*
X143627064Y-110990000D02*
X142172936Y-110990000D01*
%TO.C,R5*%
X157152936Y-88230000D02*
X158607064Y-88230000D01*
X157152936Y-86410000D02*
X158607064Y-86410000D01*
%TO.C,R4*%
X112514564Y-93120000D02*
X111060436Y-93120000D01*
X112514564Y-91300000D02*
X111060436Y-91300000D01*
%TO.C,R3*%
X101977064Y-102485000D02*
X101522936Y-102485000D01*
X101977064Y-101015000D02*
X101522936Y-101015000D01*
%TO.C,R2*%
X112477064Y-90660000D02*
X111022936Y-90660000D01*
X112477064Y-88840000D02*
X111022936Y-88840000D01*
%TO.C,R1*%
X101977064Y-99485000D02*
X101522936Y-99485000D01*
X101977064Y-98015000D02*
X101522936Y-98015000D01*
%TO.C,Q6*%
X151500000Y-60230000D02*
X151500000Y-64871000D01*
X151500000Y-60230000D02*
X161740000Y-60230000D01*
X151500000Y-61740000D02*
X161740000Y-61740000D01*
X151500000Y-64871000D02*
X161740000Y-64871000D01*
X154770000Y-60230000D02*
X154770000Y-61740000D01*
X158471000Y-60230000D02*
X158471000Y-61740000D01*
X161740000Y-60230000D02*
X161740000Y-64871000D01*
%TO.C,Q5*%
X140000000Y-60230000D02*
X140000000Y-64871000D01*
X140000000Y-60230000D02*
X150240000Y-60230000D01*
X140000000Y-61740000D02*
X150240000Y-61740000D01*
X140000000Y-64871000D02*
X150240000Y-64871000D01*
X143270000Y-60230000D02*
X143270000Y-61740000D01*
X146971000Y-60230000D02*
X146971000Y-61740000D01*
X150240000Y-60230000D02*
X150240000Y-64871000D01*
%TO.C,Q4*%
X128460000Y-60230000D02*
X128460000Y-64871000D01*
X128460000Y-60230000D02*
X138700000Y-60230000D01*
X128460000Y-61740000D02*
X138700000Y-61740000D01*
X128460000Y-64871000D02*
X138700000Y-64871000D01*
X131730000Y-60230000D02*
X131730000Y-61740000D01*
X135431000Y-60230000D02*
X135431000Y-61740000D01*
X138700000Y-60230000D02*
X138700000Y-64871000D01*
%TO.C,Q3*%
X116920000Y-60230000D02*
X116920000Y-64871000D01*
X116920000Y-60230000D02*
X127160000Y-60230000D01*
X116920000Y-61740000D02*
X127160000Y-61740000D01*
X116920000Y-64871000D02*
X127160000Y-64871000D01*
X120190000Y-60230000D02*
X120190000Y-61740000D01*
X123891000Y-60230000D02*
X123891000Y-61740000D01*
X127160000Y-60230000D02*
X127160000Y-64871000D01*
%TO.C,Q2*%
X115740000Y-60230000D02*
X115740000Y-64871000D01*
X112471000Y-60230000D02*
X112471000Y-61740000D01*
X108770000Y-60230000D02*
X108770000Y-61740000D01*
X105500000Y-64871000D02*
X115740000Y-64871000D01*
X105500000Y-61740000D02*
X115740000Y-61740000D01*
X105500000Y-60230000D02*
X115740000Y-60230000D01*
X105500000Y-60230000D02*
X105500000Y-64871000D01*
%TO.C,J12*%
X158380000Y-115720000D02*
X166060000Y-115720000D01*
X166060000Y-118380000D02*
X166060000Y-115720000D01*
X158380000Y-118380000D02*
X158380000Y-115720000D01*
X158380000Y-118380000D02*
X166060000Y-118380000D01*
X157110000Y-118380000D02*
X155780000Y-118380000D01*
X155780000Y-118380000D02*
X155780000Y-117050000D01*
%TO.C,J11*%
X177930000Y-107730000D02*
X176600000Y-107730000D01*
X177930000Y-106400000D02*
X177930000Y-107730000D01*
X177930000Y-105130000D02*
X177930000Y-92370000D01*
X177930000Y-105130000D02*
X175270000Y-105130000D01*
X177930000Y-92370000D02*
X175270000Y-92370000D01*
X175270000Y-105130000D02*
X175270000Y-92370000D01*
%TO.C,J10*%
X148265000Y-118330000D02*
X148265000Y-117000000D01*
X149595000Y-118330000D02*
X148265000Y-118330000D01*
X150865000Y-118330000D02*
X153465000Y-118330000D01*
X150865000Y-118330000D02*
X150865000Y-115670000D01*
X153465000Y-118330000D02*
X153465000Y-115670000D01*
X150865000Y-115670000D02*
X153465000Y-115670000D01*
%TO.C,J9*%
X129590000Y-115670000D02*
X137270000Y-115670000D01*
X137270000Y-118330000D02*
X137270000Y-115670000D01*
X129590000Y-118330000D02*
X129590000Y-115670000D01*
X129590000Y-118330000D02*
X137270000Y-118330000D01*
X128320000Y-118330000D02*
X126990000Y-118330000D01*
X126990000Y-118330000D02*
X126990000Y-117000000D01*
%TO.C,J8*%
X116560000Y-115670000D02*
X124240000Y-115670000D01*
X124240000Y-118330000D02*
X124240000Y-115670000D01*
X116560000Y-118330000D02*
X116560000Y-115670000D01*
X116560000Y-118330000D02*
X124240000Y-118330000D01*
X115290000Y-118330000D02*
X113960000Y-118330000D01*
X113960000Y-118330000D02*
X113960000Y-117000000D01*
%TO.C,J7*%
X164380000Y-64830000D02*
X164380000Y-63500000D01*
X165710000Y-64830000D02*
X164380000Y-64830000D01*
X166980000Y-64830000D02*
X169580000Y-64830000D01*
X166980000Y-64830000D02*
X166980000Y-62170000D01*
X169580000Y-64830000D02*
X169580000Y-62170000D01*
X166980000Y-62170000D02*
X169580000Y-62170000D01*
%TO.C,J6*%
X177930000Y-89730000D02*
X176600000Y-89730000D01*
X177930000Y-88400000D02*
X177930000Y-89730000D01*
X177930000Y-87130000D02*
X177930000Y-84530000D01*
X177930000Y-87130000D02*
X175270000Y-87130000D01*
X177930000Y-84530000D02*
X175270000Y-84530000D01*
X175270000Y-87130000D02*
X175270000Y-84530000D01*
%TO.C,J5*%
X95850000Y-95420000D02*
X93930000Y-95420000D01*
X90215000Y-95420000D02*
X91920000Y-95420000D01*
X93930000Y-104580000D02*
X95850000Y-104580000D01*
X91920000Y-104580000D02*
X90215000Y-104580000D01*
X90215000Y-104580000D02*
X90215000Y-95420000D01*
%TO.C,J4*%
X142850000Y-115670000D02*
X145450000Y-115670000D01*
X145450000Y-118330000D02*
X145450000Y-115670000D01*
X142850000Y-118330000D02*
X142850000Y-115670000D01*
X142850000Y-118330000D02*
X145450000Y-118330000D01*
X141580000Y-118330000D02*
X140250000Y-118330000D01*
X140250000Y-118330000D02*
X140250000Y-117000000D01*
%TO.C,J3*%
X92170000Y-83895000D02*
X93500000Y-83895000D01*
X92170000Y-85225000D02*
X92170000Y-83895000D01*
X92170000Y-86495000D02*
X92170000Y-89095000D01*
X92170000Y-86495000D02*
X94830000Y-86495000D01*
X92170000Y-89095000D02*
X94830000Y-89095000D01*
X94830000Y-86495000D02*
X94830000Y-89095000D01*
%TO.C,J1*%
X164580000Y-88520000D02*
X164580000Y-88580000D01*
X161920000Y-88580000D02*
X164580000Y-88580000D01*
X161920000Y-88520000D02*
X164580000Y-88520000D01*
X161920000Y-88520000D02*
X161920000Y-88580000D01*
X161920000Y-87250000D02*
X161920000Y-85920000D01*
X161920000Y-85920000D02*
X163250000Y-85920000D01*
%TO.C,D3*%
X155390500Y-83500000D02*
X151380500Y-83500000D01*
X155390500Y-85500000D02*
X151380500Y-85500000D01*
X155390500Y-85500000D02*
X155390500Y-83500000D01*
%TO.C,D2*%
X104322500Y-70085000D02*
X104322500Y-66915000D01*
X104322500Y-66915000D02*
X100437500Y-66915000D01*
X100437500Y-70085000D02*
X104322500Y-70085000D01*
%TO.C,D1*%
X118860000Y-113150000D02*
X118860000Y-109850000D01*
X118860000Y-113150000D02*
X113350000Y-113150000D01*
X118860000Y-109850000D02*
X113350000Y-109850000D01*
%TO.C,C16*%
X102626248Y-80810000D02*
X104048752Y-80810000D01*
X102626248Y-78990000D02*
X104048752Y-78990000D01*
%TO.C,C15*%
X141323748Y-79227000D02*
X142746252Y-79227000D01*
X141323748Y-81047000D02*
X142746252Y-81047000D01*
%TO.C,C14*%
X121265000Y-94563748D02*
X121265000Y-95086252D01*
X122735000Y-94563748D02*
X122735000Y-95086252D01*
%TO.C,C13*%
X122735000Y-91536252D02*
X122735000Y-91013748D01*
X121265000Y-91536252D02*
X121265000Y-91013748D01*
%TO.C,C10*%
X127090000Y-104686252D02*
X127090000Y-103263748D01*
X128910000Y-104686252D02*
X128910000Y-103263748D01*
%TO.C,C9*%
X118211252Y-76410000D02*
X116788748Y-76410000D01*
X118211252Y-74590000D02*
X116788748Y-74590000D01*
%TO.C,C8*%
X136090000Y-92288748D02*
X136090000Y-93711252D01*
X137910000Y-92288748D02*
X137910000Y-93711252D01*
%TO.C,C7*%
X122910000Y-87511252D02*
X122910000Y-86088748D01*
X121090000Y-87511252D02*
X121090000Y-86088748D01*
%TO.C,C6*%
X116313748Y-97340000D02*
X117736252Y-97340000D01*
X116313748Y-99160000D02*
X117736252Y-99160000D01*
%TO.C,C5*%
X98335000Y-73338748D02*
X98335000Y-73861252D01*
X96865000Y-73338748D02*
X96865000Y-73861252D01*
%TO.C,C4*%
X96865000Y-77861252D02*
X96865000Y-77338748D01*
X98335000Y-77861252D02*
X98335000Y-77338748D01*
%TO.C,C2*%
X133826248Y-74090000D02*
X135248752Y-74090000D01*
X133826248Y-75910000D02*
X135248752Y-75910000D01*
%TO.C,C1*%
X101538748Y-95090000D02*
X102961252Y-95090000D01*
X101538748Y-96910000D02*
X102961252Y-96910000D01*
%TD*%
%LPC*%
D14*
%TO.C,U7*%
X108362500Y-77037500D03*
X110262500Y-77037500D03*
X109312500Y-75162500D03*
%TD*%
D15*
%TO.C,Q1*%
X115350000Y-107650000D03*
X115350000Y-105750000D03*
X113475000Y-106700000D03*
%TD*%
D16*
%TO.C,R41*%
X148400000Y-112162500D03*
X148400000Y-109237500D03*
%TD*%
D17*
%TO.C,TP5*%
X148717000Y-96774000D03*
%TD*%
%TO.C,TP1*%
X163576000Y-96774000D03*
%TD*%
D18*
%TO.C,C3*%
X99500000Y-86400000D03*
X106900000Y-86400000D03*
%TD*%
D19*
%TO.C,D4*%
X150800000Y-111450000D03*
X153600000Y-111450000D03*
%TD*%
D20*
%TO.C,C12*%
X144225000Y-94250000D03*
X141275000Y-94250000D03*
%TD*%
D21*
%TO.C,D5*%
X167400000Y-68900000D03*
X163400000Y-68900000D03*
%TD*%
D22*
%TO.C,R34*%
X131200000Y-75000000D03*
X128275000Y-75000000D03*
%TD*%
%TO.C,R28*%
X124000000Y-73000000D03*
X121075000Y-73000000D03*
%TD*%
%TO.C,R27*%
X124000000Y-78000000D03*
X121075000Y-78000000D03*
%TD*%
D23*
%TO.C,C11*%
X121062500Y-75500000D03*
X124012500Y-75500000D03*
%TD*%
D24*
%TO.C,R6*%
X118200000Y-105450000D03*
X121125000Y-105450000D03*
%TD*%
D25*
%TO.C,J2*%
X108000000Y-117000000D03*
D26*
X105460000Y-117000000D03*
%TD*%
D27*
%TO.C,Y1*%
X119600000Y-94025000D03*
X117400000Y-94025000D03*
X117400000Y-92325000D03*
X119600000Y-92325000D03*
%TD*%
D28*
%TO.C,U6*%
X104337500Y-75450000D03*
X104337500Y-76400000D03*
X104337500Y-77350000D03*
X102062500Y-77350000D03*
X102062500Y-76400000D03*
X102062500Y-75450000D03*
%TD*%
D29*
%TO.C,U5*%
X140525000Y-88095000D03*
X140525000Y-89365000D03*
X140525000Y-90635000D03*
X140525000Y-91905000D03*
X145475000Y-91905000D03*
X145475000Y-90635000D03*
X145475000Y-89365000D03*
X145475000Y-88095000D03*
%TD*%
D30*
%TO.C,U4*%
X125750000Y-87200000D03*
X125750000Y-88000000D03*
X125750000Y-88800000D03*
X125750000Y-89600000D03*
X125750000Y-90400000D03*
X125750000Y-91200000D03*
X125750000Y-92000000D03*
X125750000Y-92800000D03*
D31*
X127200000Y-94250000D03*
X128000000Y-94250000D03*
X128800000Y-94250000D03*
X129600000Y-94250000D03*
X130400000Y-94250000D03*
X131200000Y-94250000D03*
X132000000Y-94250000D03*
X132800000Y-94250000D03*
D30*
X134250000Y-92800000D03*
X134250000Y-92000000D03*
X134250000Y-91200000D03*
X134250000Y-90400000D03*
X134250000Y-89600000D03*
X134250000Y-88800000D03*
X134250000Y-88000000D03*
X134250000Y-87200000D03*
D31*
X132800000Y-85750000D03*
X132000000Y-85750000D03*
X131200000Y-85750000D03*
X130400000Y-85750000D03*
X129600000Y-85750000D03*
X128800000Y-85750000D03*
X128000000Y-85750000D03*
X127200000Y-85750000D03*
%TD*%
D29*
%TO.C,U3*%
X107750000Y-94460000D03*
X107750000Y-95730000D03*
X107750000Y-97000000D03*
X107750000Y-98270000D03*
X107750000Y-99540000D03*
X107750000Y-100810000D03*
X107750000Y-102080000D03*
X107750000Y-103350000D03*
X112700000Y-103350000D03*
X112700000Y-102080000D03*
X112700000Y-100810000D03*
X112700000Y-99540000D03*
X112700000Y-98270000D03*
X112700000Y-97000000D03*
X112700000Y-95730000D03*
X112700000Y-94460000D03*
%TD*%
D32*
%TO.C,U2*%
X129262500Y-77700000D03*
X129262500Y-78350000D03*
X129262500Y-79000000D03*
X129262500Y-79650000D03*
X129262500Y-80300000D03*
X129262500Y-80950000D03*
X129262500Y-81600000D03*
X134987500Y-81600000D03*
X134987500Y-80950000D03*
X134987500Y-80300000D03*
X134987500Y-79650000D03*
X134987500Y-79000000D03*
X134987500Y-78350000D03*
X134987500Y-77700000D03*
%TD*%
D33*
%TO.C,U1*%
X93500000Y-78080000D03*
D34*
X93500000Y-75540000D03*
X93500000Y-73000000D03*
%TD*%
D17*
%TO.C,TP4*%
X153797000Y-96774000D03*
%TD*%
%TO.C,TP3*%
X158877000Y-96774000D03*
%TD*%
%TO.C,TP2*%
X168656000Y-96774000D03*
%TD*%
D35*
%TO.C,TH1*%
X127762000Y-68453000D03*
X127762000Y-66628000D03*
%TD*%
D36*
%TO.C,SW1*%
X101100000Y-107350000D03*
X107600000Y-107350000D03*
X101100000Y-111850000D03*
X107600000Y-111850000D03*
%TD*%
D24*
%TO.C,R40*%
X110775000Y-79850000D03*
X107850000Y-79850000D03*
%TD*%
D22*
%TO.C,R39*%
X143497500Y-85637000D03*
X140572500Y-85637000D03*
%TD*%
%TO.C,R38*%
X143497500Y-82887000D03*
X140572500Y-82887000D03*
%TD*%
D37*
%TO.C,R37*%
X146780000Y-77000000D03*
D38*
X174720000Y-77000000D03*
%TD*%
D24*
%TO.C,R36*%
X140572500Y-74637000D03*
X143497500Y-74637000D03*
%TD*%
%TO.C,R35*%
X140572500Y-77387000D03*
X143497500Y-77387000D03*
%TD*%
D16*
%TO.C,R33*%
X159250000Y-66537500D03*
X159250000Y-69462500D03*
%TD*%
%TO.C,R32*%
X147750000Y-66537500D03*
X147750000Y-69462500D03*
%TD*%
%TO.C,R31*%
X136250000Y-66537500D03*
X136250000Y-69462500D03*
%TD*%
%TO.C,R30*%
X124500000Y-66537500D03*
X124500000Y-69462500D03*
%TD*%
%TO.C,R29*%
X113250000Y-66537500D03*
X113250000Y-69462500D03*
%TD*%
%TO.C,R26*%
X154000000Y-66537500D03*
X154000000Y-69462500D03*
%TD*%
%TO.C,R25*%
X142500000Y-66537500D03*
X142500000Y-69462500D03*
%TD*%
%TO.C,R24*%
X130750000Y-66537500D03*
X130750000Y-69462500D03*
%TD*%
%TO.C,R23*%
X119500000Y-66537500D03*
X119500000Y-69462500D03*
%TD*%
%TO.C,R22*%
X108000000Y-66537500D03*
X108000000Y-69462500D03*
%TD*%
D39*
%TO.C,R21*%
X125500000Y-105425000D03*
X125500000Y-102500000D03*
%TD*%
D16*
%TO.C,R20*%
X128016000Y-97470500D03*
X128016000Y-100395500D03*
%TD*%
%TO.C,R19*%
X125603000Y-97470500D03*
X125603000Y-100395500D03*
%TD*%
%TO.C,R18*%
X137000000Y-85537500D03*
X137000000Y-88462500D03*
%TD*%
D22*
%TO.C,R17*%
X118962500Y-73000000D03*
X116037500Y-73000000D03*
%TD*%
%TO.C,R16*%
X124000000Y-83000000D03*
X121075000Y-83000000D03*
%TD*%
%TO.C,R15*%
X121037500Y-80500000D03*
X123962500Y-80500000D03*
%TD*%
D39*
%TO.C,R14*%
X116900000Y-79400000D03*
X116900000Y-82325000D03*
%TD*%
%TO.C,R13*%
X114400000Y-79400000D03*
X114400000Y-82325000D03*
%TD*%
%TO.C,R12*%
X171600000Y-88500000D03*
X171600000Y-85575000D03*
%TD*%
D22*
%TO.C,R11*%
X153662500Y-108200000D03*
X150737500Y-108200000D03*
%TD*%
%TO.C,R10*%
X121125000Y-108200000D03*
X118200000Y-108200000D03*
%TD*%
D24*
%TO.C,R9*%
X154400000Y-87250000D03*
X151475000Y-87250000D03*
%TD*%
%TO.C,R8*%
X100575000Y-65500000D03*
X103500000Y-65500000D03*
%TD*%
D22*
%TO.C,R7*%
X144362500Y-111900000D03*
X141437500Y-111900000D03*
%TD*%
D24*
%TO.C,R5*%
X159342500Y-87320000D03*
X156417500Y-87320000D03*
%TD*%
D22*
%TO.C,R4*%
X113250000Y-92210000D03*
X110325000Y-92210000D03*
%TD*%
D40*
%TO.C,R3*%
X102662500Y-101750000D03*
X100837500Y-101750000D03*
%TD*%
D22*
%TO.C,R2*%
X113212500Y-89750000D03*
X110287500Y-89750000D03*
%TD*%
D40*
%TO.C,R1*%
X102662500Y-98750000D03*
X100837500Y-98750000D03*
%TD*%
D41*
%TO.C,Q6*%
X154080000Y-63500000D03*
D42*
X156620000Y-63500000D03*
X159160000Y-63500000D03*
%TD*%
D41*
%TO.C,Q5*%
X142580000Y-63500000D03*
D42*
X145120000Y-63500000D03*
X147660000Y-63500000D03*
%TD*%
D41*
%TO.C,Q4*%
X131040000Y-63500000D03*
D42*
X133580000Y-63500000D03*
X136120000Y-63500000D03*
%TD*%
D41*
%TO.C,Q3*%
X119500000Y-63500000D03*
D42*
X122040000Y-63500000D03*
X124580000Y-63500000D03*
%TD*%
%TO.C,Q2*%
X113160000Y-63500000D03*
X110620000Y-63500000D03*
D41*
X108080000Y-63500000D03*
%TD*%
D25*
%TO.C,J12*%
X164730000Y-117050000D03*
X162190000Y-117050000D03*
X159650000Y-117050000D03*
D26*
X157110000Y-117050000D03*
%TD*%
%TO.C,J11*%
X176600000Y-106400000D03*
D25*
X176600000Y-103860000D03*
X176600000Y-101320000D03*
X176600000Y-98780000D03*
X176600000Y-96240000D03*
X176600000Y-93700000D03*
%TD*%
D26*
%TO.C,J10*%
X149595000Y-117000000D03*
D25*
X152135000Y-117000000D03*
%TD*%
%TO.C,J9*%
X135940000Y-117000000D03*
X133400000Y-117000000D03*
X130860000Y-117000000D03*
D26*
X128320000Y-117000000D03*
%TD*%
D25*
%TO.C,J8*%
X122910000Y-117000000D03*
X120370000Y-117000000D03*
X117830000Y-117000000D03*
D26*
X115290000Y-117000000D03*
%TD*%
%TO.C,J7*%
X165710000Y-63500000D03*
D25*
X168250000Y-63500000D03*
%TD*%
D26*
%TO.C,J6*%
X176600000Y-88400000D03*
D25*
X176600000Y-85860000D03*
%TD*%
D43*
%TO.C,J5*%
X96605000Y-97110000D03*
X96605000Y-102890000D03*
D44*
X97725000Y-96800000D03*
X97725000Y-97600000D03*
D45*
X97725000Y-98750000D03*
X97725000Y-99750000D03*
X97725000Y-100250000D03*
X97725000Y-101250000D03*
D44*
X97725000Y-102400000D03*
X97725000Y-103200000D03*
X97725000Y-103200000D03*
X97725000Y-102400000D03*
D45*
X97725000Y-101750000D03*
X97725000Y-100750000D03*
X97725000Y-99250000D03*
X97725000Y-98250000D03*
D44*
X97725000Y-97600000D03*
X97725000Y-96800000D03*
D46*
X97125000Y-95680000D03*
D47*
X92925000Y-95680000D03*
D46*
X97125000Y-104320000D03*
D47*
X92925000Y-104320000D03*
%TD*%
D25*
%TO.C,J4*%
X144120000Y-117000000D03*
D26*
X141580000Y-117000000D03*
%TD*%
%TO.C,J3*%
X93500000Y-85225000D03*
D25*
X93500000Y-87765000D03*
%TD*%
D26*
%TO.C,J1*%
X163250000Y-87250000D03*
%TD*%
D48*
%TO.C,D3*%
X151380500Y-84500000D03*
X154680500Y-84500000D03*
%TD*%
D49*
%TO.C,D2*%
X103437500Y-68500000D03*
X100637500Y-68500000D03*
%TD*%
D21*
%TO.C,D1*%
X117350000Y-111500000D03*
X113350000Y-111500000D03*
%TD*%
D23*
%TO.C,C16*%
X104812500Y-79900000D03*
X101862500Y-79900000D03*
%TD*%
%TO.C,C15*%
X140560000Y-80137000D03*
X143510000Y-80137000D03*
%TD*%
D50*
%TO.C,C14*%
X122000000Y-95775000D03*
X122000000Y-93875000D03*
%TD*%
D51*
%TO.C,C13*%
X122000000Y-90325000D03*
X122000000Y-92225000D03*
%TD*%
D52*
%TO.C,C10*%
X128000000Y-105450000D03*
X128000000Y-102500000D03*
%TD*%
D20*
%TO.C,C9*%
X118975000Y-75500000D03*
X116025000Y-75500000D03*
%TD*%
D53*
%TO.C,C8*%
X137000000Y-94475000D03*
X137000000Y-91525000D03*
%TD*%
D52*
%TO.C,C7*%
X122000000Y-85325000D03*
X122000000Y-88275000D03*
%TD*%
D23*
%TO.C,C6*%
X115550000Y-98250000D03*
X118500000Y-98250000D03*
%TD*%
D50*
%TO.C,C5*%
X97600000Y-72650000D03*
X97600000Y-74550000D03*
%TD*%
D51*
%TO.C,C4*%
X97600000Y-78550000D03*
X97600000Y-76650000D03*
%TD*%
D23*
%TO.C,C2*%
X133062500Y-75000000D03*
X136012500Y-75000000D03*
%TD*%
%TO.C,C1*%
X100775000Y-96000000D03*
X103725000Y-96000000D03*
%TD*%
D54*
%TO.C,H4*%
X175000000Y-115000000D03*
%TD*%
%TO.C,H3*%
X95000000Y-115000000D03*
%TD*%
%TO.C,H1*%
X95000000Y-65000000D03*
%TD*%
%TO.C,H2*%
X175000000Y-65000000D03*
%TD*%
%LPD*%
M02*
