%TF.GenerationSoftware,KiCad,Pcbnew,8.0.1*%
%TF.CreationDate,2024-04-29T16:23:36+02:00*%
%TF.ProjectId,CC_Load,43435f4c-6f61-4642-9e6b-696361645f70,rev?*%
%TF.SameCoordinates,Original*%
%TF.FileFunction,Copper,L2,Bot*%
%TF.FilePolarity,Positive*%
%FSLAX46Y46*%
G04 Gerber Fmt 4.6, Leading zero omitted, Abs format (unit mm)*
G04 Created by KiCad (PCBNEW 8.0.1) date 2024-04-29 16:23:36*
%MOMM*%
%LPD*%
G01*
G04 APERTURE LIST*
%TA.AperFunction,ComponentPad*%
%ADD10R,1.500000X1.500000*%
%TD*%
%TA.AperFunction,ComponentPad*%
%ADD11O,1.700000X1.700000*%
%TD*%
%TA.AperFunction,ComponentPad*%
%ADD12R,1.700000X1.700000*%
%TD*%
%TA.AperFunction,ComponentPad*%
%ADD13R,2.000000X1.905000*%
%TD*%
%TA.AperFunction,ComponentPad*%
%ADD14O,2.000000X1.905000*%
%TD*%
%TA.AperFunction,ComponentPad*%
%ADD15C,2.000000*%
%TD*%
%TA.AperFunction,ComponentPad*%
%ADD16C,2.400000*%
%TD*%
%TA.AperFunction,ComponentPad*%
%ADD17O,2.400000X2.400000*%
%TD*%
%TA.AperFunction,ComponentPad*%
%ADD18R,1.905000X2.000000*%
%TD*%
%TA.AperFunction,ComponentPad*%
%ADD19O,1.905000X2.000000*%
%TD*%
%TA.AperFunction,ComponentPad*%
%ADD20O,2.100000X1.000000*%
%TD*%
%TA.AperFunction,ComponentPad*%
%ADD21O,1.800000X1.000000*%
%TD*%
%TA.AperFunction,ComponentPad*%
%ADD22C,6.400000*%
%TD*%
%TA.AperFunction,ViaPad*%
%ADD23C,0.500000*%
%TD*%
%TA.AperFunction,Conductor*%
%ADD24C,0.200000*%
%TD*%
G04 APERTURE END LIST*
D10*
%TO.P,TP5,1,1*%
%TO.N,GND*%
X148717000Y-96774000D03*
%TD*%
%TO.P,TP1,1,1*%
%TO.N,/ADC_06*%
X163576000Y-96774000D03*
%TD*%
D11*
%TO.P,J2,2,Pin_2*%
%TO.N,+12V*%
X108000000Y-117000000D03*
D12*
%TO.P,J2,1,Pin_1*%
%TO.N,/FAN_NEG*%
X105460000Y-117000000D03*
%TD*%
D13*
%TO.P,U1,1,VI*%
%TO.N,+12V*%
X93500000Y-78080000D03*
D14*
%TO.P,U1,2,GND*%
%TO.N,GND*%
X93500000Y-75540000D03*
%TO.P,U1,3,VO*%
%TO.N,+5V*%
X93500000Y-73000000D03*
%TD*%
D10*
%TO.P,TP4,1,1*%
%TO.N,/PIN_04*%
X153797000Y-96774000D03*
%TD*%
%TO.P,TP3,1,1*%
%TO.N,/ADC_03*%
X158877000Y-96774000D03*
%TD*%
%TO.P,TP2,1,1*%
%TO.N,/ADC_07*%
X168656000Y-96774000D03*
%TD*%
D15*
%TO.P,SW1,1,1*%
%TO.N,RST_UC*%
X101100000Y-107350000D03*
X107600000Y-107350000D03*
%TO.P,SW1,2,2*%
%TO.N,GND*%
X101100000Y-111850000D03*
X107600000Y-111850000D03*
%TD*%
D16*
%TO.P,R37,1*%
%TO.N,/CURR_SHUNT*%
X146780000Y-77000000D03*
D17*
%TO.P,R37,2*%
%TO.N,GND*%
X174720000Y-77000000D03*
%TD*%
D18*
%TO.P,Q6,1,G*%
%TO.N,Net-(Q6-G)*%
X154080000Y-63500000D03*
D19*
%TO.P,Q6,2,D*%
%TO.N,/LOAD_POS*%
X156620000Y-63500000D03*
%TO.P,Q6,3,S*%
%TO.N,Net-(Q6-S)*%
X159160000Y-63500000D03*
%TD*%
D18*
%TO.P,Q5,1,G*%
%TO.N,Net-(Q5-G)*%
X142580000Y-63500000D03*
D19*
%TO.P,Q5,2,D*%
%TO.N,/LOAD_POS*%
X145120000Y-63500000D03*
%TO.P,Q5,3,S*%
%TO.N,Net-(Q5-S)*%
X147660000Y-63500000D03*
%TD*%
D18*
%TO.P,Q4,1,G*%
%TO.N,Net-(Q4-G)*%
X131040000Y-63500000D03*
D19*
%TO.P,Q4,2,D*%
%TO.N,/LOAD_POS*%
X133580000Y-63500000D03*
%TO.P,Q4,3,S*%
%TO.N,Net-(Q4-S)*%
X136120000Y-63500000D03*
%TD*%
D18*
%TO.P,Q3,1,G*%
%TO.N,Net-(Q3-G)*%
X119500000Y-63500000D03*
D19*
%TO.P,Q3,2,D*%
%TO.N,/LOAD_POS*%
X122040000Y-63500000D03*
%TO.P,Q3,3,S*%
%TO.N,Net-(Q3-S)*%
X124580000Y-63500000D03*
%TD*%
%TO.P,Q2,3,S*%
%TO.N,Net-(Q2-S)*%
X113160000Y-63500000D03*
%TO.P,Q2,2,D*%
%TO.N,/LOAD_POS*%
X110620000Y-63500000D03*
D18*
%TO.P,Q2,1,G*%
%TO.N,Net-(Q2-G)*%
X108080000Y-63500000D03*
%TD*%
D11*
%TO.P,J12,4,Pin_4*%
%TO.N,PIN_10_UC*%
X164730000Y-117050000D03*
%TO.P,J12,3,Pin_3*%
%TO.N,PIN_09_UC*%
X162190000Y-117050000D03*
%TO.P,J12,2,Pin_2*%
%TO.N,PIN_08_UC*%
X159650000Y-117050000D03*
D12*
%TO.P,J12,1,Pin_1*%
%TO.N,GND*%
X157110000Y-117050000D03*
%TD*%
%TO.P,J11,1,Pin_1*%
%TO.N,GND*%
X176600000Y-106400000D03*
D11*
%TO.P,J11,2,Pin_2*%
%TO.N,SPI_MOSI_UC*%
X176600000Y-103860000D03*
%TO.P,J11,3,Pin_3*%
%TO.N,SPI_MISO_UC*%
X176600000Y-101320000D03*
%TO.P,J11,4,Pin_4*%
%TO.N,SPI_SCLK_UC*%
X176600000Y-98780000D03*
%TO.P,J11,5,Pin_5*%
%TO.N,RST_UC*%
X176600000Y-96240000D03*
%TO.P,J11,6,Pin_6*%
%TO.N,+5V*%
X176600000Y-93700000D03*
%TD*%
D12*
%TO.P,J10,1,Pin_1*%
%TO.N,Net-(J10-Pin_1)*%
X149595000Y-117000000D03*
D11*
%TO.P,J10,2,Pin_2*%
%TO.N,LED_OUT*%
X152135000Y-117000000D03*
%TD*%
%TO.P,J9,4,Pin_4*%
%TO.N,+5V*%
X135940000Y-117000000D03*
%TO.P,J9,3,Pin_3*%
%TO.N,I2C_SDA*%
X133400000Y-117000000D03*
%TO.P,J9,2,Pin_2*%
%TO.N,I2C_SCL*%
X130860000Y-117000000D03*
D12*
%TO.P,J9,1,Pin_1*%
%TO.N,GND*%
X128320000Y-117000000D03*
%TD*%
D11*
%TO.P,J8,4,Pin_4*%
%TO.N,ENCODER_A*%
X122910000Y-117000000D03*
%TO.P,J8,3,Pin_3*%
%TO.N,ENCODER_B*%
X120370000Y-117000000D03*
%TO.P,J8,2,Pin_2*%
%TO.N,ENCODER_SW*%
X117830000Y-117000000D03*
D12*
%TO.P,J8,1,Pin_1*%
%TO.N,GND*%
X115290000Y-117000000D03*
%TD*%
%TO.P,J7,1,Pin_1*%
%TO.N,/LOAD_POS*%
X165710000Y-63500000D03*
D11*
%TO.P,J7,2,Pin_2*%
%TO.N,GND*%
X168250000Y-63500000D03*
%TD*%
D12*
%TO.P,J6,1,Pin_1*%
%TO.N,TEMP_SENSE_UC*%
X176600000Y-88400000D03*
D11*
%TO.P,J6,2,Pin_2*%
%TO.N,+5V*%
X176600000Y-85860000D03*
%TD*%
D20*
%TO.P,J5,S1,SHIELD*%
%TO.N,unconnected-(J5-SHIELD-PadS1)_2*%
X97125000Y-95680000D03*
D21*
%TO.N,unconnected-(J5-SHIELD-PadS1)_0*%
X92925000Y-95680000D03*
D20*
%TO.N,unconnected-(J5-SHIELD-PadS1)_1*%
X97125000Y-104320000D03*
D21*
%TO.N,unconnected-(J5-SHIELD-PadS1)*%
X92925000Y-104320000D03*
%TD*%
D11*
%TO.P,J4,2,Pin_2*%
%TO.N,+5V*%
X144120000Y-117000000D03*
D12*
%TO.P,J4,1,Pin_1*%
%TO.N,/PWR_LED_K*%
X141580000Y-117000000D03*
%TD*%
%TO.P,J3,1,Pin_1*%
%TO.N,GND*%
X93500000Y-85225000D03*
D11*
%TO.P,J3,2,Pin_2*%
%TO.N,+12V*%
X93500000Y-87765000D03*
%TD*%
D12*
%TO.P,J1,1,Pin_1*%
%TO.N,Net-(J1-Pin_1)*%
X163250000Y-87250000D03*
%TD*%
D22*
%TO.P,H4,1,1*%
%TO.N,GND*%
X175000000Y-115000000D03*
%TD*%
%TO.P,H3,1,1*%
%TO.N,GND*%
X95000000Y-115000000D03*
%TD*%
%TO.P,H1,1,1*%
%TO.N,GND*%
X95000000Y-65000000D03*
%TD*%
%TO.P,H2,1,1*%
%TO.N,GND*%
X175000000Y-65000000D03*
%TD*%
D23*
%TO.N,GND*%
X139446000Y-85598000D03*
%TO.N,/ADC_07*%
X131953000Y-89027000D03*
%TO.N,/ADC_06*%
X128905000Y-91313000D03*
%TO.N,/ADC_03*%
X129540000Y-88392000D03*
%TO.N,/PIN_04*%
X130302000Y-88900000D03*
%TO.N,PIN_10_UC*%
X137668000Y-102362000D03*
%TO.N,PIN_09_UC*%
X137414000Y-103124000D03*
%TO.N,PIN_08_UC*%
X137160000Y-103886000D03*
%TO.N,ENCODER_SW*%
X125095000Y-96012000D03*
%TO.N,ENCODER_A*%
X128016000Y-98933000D03*
%TO.N,ENCODER_B*%
X125603000Y-98933000D03*
%TO.N,SPI_MOSI_UC*%
X132080000Y-95504000D03*
%TO.N,SPI_MISO_UC*%
X133604000Y-94234000D03*
%TO.N,SPI_SCLK_UC*%
X135382000Y-92837000D03*
%TO.N,LED_OUT*%
X128016000Y-87630000D03*
%TO.N,RST_UC*%
X118618000Y-96901000D03*
%TO.N,SHUNT_TEMP_UC*%
X132842000Y-84455000D03*
%TO.N,TEMP_SENSE_UC*%
X170307000Y-88519000D03*
%TO.N,FAN_OUT*%
X123571000Y-87757000D03*
%TO.N,V_SENSE_UC*%
X154432000Y-88646000D03*
X135636000Y-88011000D03*
%TO.N,TEMP_SENSE_UC*%
X135636000Y-87249000D03*
%TO.N,+5V*%
X133096000Y-73660000D03*
%TO.N,GND*%
X171577000Y-84455000D03*
X145669000Y-111887000D03*
X154813000Y-108204000D03*
X148336000Y-108077000D03*
%TO.N,FAN_OUT*%
X122174000Y-105410000D03*
%TO.N,SHUNT_TEMP_UC*%
X127762000Y-69342000D03*
%TO.N,+5V*%
X127762000Y-65659000D03*
%TO.N,I2C_SCL*%
X139192000Y-91948000D03*
%TO.N,I2C_SDA*%
X139192000Y-90551000D03*
X131191000Y-84455000D03*
%TO.N,I2C_SCL*%
X130429000Y-84455000D03*
%TO.N,I2C_SDA*%
X106426000Y-77343000D03*
%TO.N,I2C_SCL*%
X105791000Y-76454000D03*
%TO.N,I2C_SDA*%
X116840000Y-83185000D03*
%TO.N,I2C_SCL*%
X114427000Y-83185000D03*
%TO.N,RST_UC*%
X129540000Y-86995000D03*
%TO.N,GND*%
X106299000Y-94488000D03*
X116586000Y-105791000D03*
X122428000Y-108204000D03*
X128016000Y-101600000D03*
X169291000Y-68834000D03*
X133604000Y-79629000D03*
X137033000Y-75057000D03*
X144599000Y-80231000D03*
X150371500Y-84500000D03*
X150368000Y-87249000D03*
X142240000Y-89408000D03*
X141224000Y-95885000D03*
X137033000Y-95504000D03*
X137033000Y-89535000D03*
X132969000Y-89662000D03*
X127127000Y-88773000D03*
X127127000Y-90424000D03*
X122047000Y-96774000D03*
X119634000Y-95123000D03*
X117348000Y-91059000D03*
X122047000Y-89408000D03*
X121920000Y-84328000D03*
X116078000Y-74295000D03*
X111125000Y-77089000D03*
X105918000Y-79883000D03*
X103124000Y-76454000D03*
X99568000Y-65532000D03*
X97536000Y-75692000D03*
X103632000Y-101727000D03*
X103632000Y-98806000D03*
X99695000Y-96012000D03*
X98933000Y-96774000D03*
X98806000Y-103124000D03*
%TO.N,+5V*%
X96520000Y-101854000D03*
X96520000Y-98171000D03*
%TO.N,/USB_D-*%
X96520000Y-99145000D03*
X96520000Y-100288000D03*
%TD*%
D24*
%TO.N,/ADC_06*%
X156845000Y-98044000D02*
X162306000Y-98044000D01*
X162306000Y-98044000D02*
X163576000Y-96774000D01*
X153416000Y-101473000D02*
X156845000Y-98044000D01*
X133985000Y-101473000D02*
X153416000Y-101473000D01*
X128905000Y-91313000D02*
X128905000Y-96393000D01*
X128905000Y-96393000D02*
X133985000Y-101473000D01*
%TO.N,/ADC_03*%
X152908000Y-100838000D02*
X156972000Y-96774000D01*
X134112000Y-100838000D02*
X152908000Y-100838000D01*
X156972000Y-96774000D02*
X158877000Y-96774000D01*
X129540000Y-96266000D02*
X134112000Y-100838000D01*
X129540000Y-88392000D02*
X129540000Y-96266000D01*
%TO.N,/PIN_04*%
X134493000Y-100203000D02*
X152654000Y-100203000D01*
X153797000Y-99060000D02*
X153797000Y-96774000D01*
X130302000Y-96012000D02*
X134493000Y-100203000D01*
X152654000Y-100203000D02*
X153797000Y-99060000D01*
X130302000Y-88900000D02*
X130302000Y-96012000D01*
%TO.N,PIN_10_UC*%
X152400000Y-102362000D02*
X163068000Y-113030000D01*
X137668000Y-102362000D02*
X152400000Y-102362000D01*
X163068000Y-113030000D02*
X163068000Y-115388000D01*
X163068000Y-115388000D02*
X164730000Y-117050000D01*
%TO.N,PIN_09_UC*%
X162190000Y-113295000D02*
X162190000Y-117050000D01*
X152019000Y-103124000D02*
X162190000Y-113295000D01*
X137414000Y-103124000D02*
X152019000Y-103124000D01*
%TO.N,PIN_08_UC*%
X151765000Y-103886000D02*
X161163000Y-113284000D01*
X161163000Y-115537000D02*
X159650000Y-117050000D01*
X137160000Y-103886000D02*
X151765000Y-103886000D01*
X161163000Y-113284000D02*
X161163000Y-115537000D01*
%TO.N,/ADC_07*%
X137541000Y-96139000D02*
X138384000Y-95296000D01*
X167178000Y-95296000D02*
X168656000Y-96774000D01*
X131572000Y-95758699D02*
X131952301Y-96139000D01*
X131952301Y-96139000D02*
X137541000Y-96139000D01*
X131572000Y-89408000D02*
X131572000Y-95758699D01*
X138384000Y-95296000D02*
X167178000Y-95296000D01*
X131953000Y-89027000D02*
X131572000Y-89408000D01*
%TO.N,SPI_MOSI_UC*%
X173482000Y-100742000D02*
X176600000Y-103860000D01*
X173482000Y-96774000D02*
X173482000Y-100742000D01*
X140970000Y-94615000D02*
X171323000Y-94615000D01*
X140716000Y-94869000D02*
X140970000Y-94615000D01*
X139446000Y-94869000D02*
X140716000Y-94869000D01*
X134239000Y-94615000D02*
X139192000Y-94615000D01*
X139192000Y-94615000D02*
X139446000Y-94869000D01*
X133350000Y-95504000D02*
X134239000Y-94615000D01*
X132080000Y-95504000D02*
X133350000Y-95504000D01*
X171323000Y-94615000D02*
X173482000Y-96774000D01*
%TO.N,LED_OUT*%
X144145000Y-113919000D02*
X149606000Y-113919000D01*
X152135000Y-116448000D02*
X152135000Y-117000000D01*
X128016000Y-97790000D02*
X144145000Y-113919000D01*
X149606000Y-113919000D02*
X152135000Y-116448000D01*
X128016000Y-87630000D02*
X128016000Y-97790000D01*
%TO.N,SPI_MISO_UC*%
X133927000Y-93911000D02*
X133604000Y-94234000D01*
X174371000Y-99091000D02*
X174371000Y-96266000D01*
X174371000Y-96266000D02*
X172085000Y-93980000D01*
X140336397Y-93980000D02*
X140267397Y-93911000D01*
X176600000Y-101320000D02*
X174371000Y-99091000D01*
X172085000Y-93980000D02*
X140336397Y-93980000D01*
X140267397Y-93911000D02*
X133927000Y-93911000D01*
%TO.N,SPI_SCLK_UC*%
X135890000Y-93345000D02*
X135382000Y-92837000D01*
X175133000Y-97313000D02*
X175133000Y-95885000D01*
X176600000Y-98780000D02*
X175133000Y-97313000D01*
X175133000Y-95885000D02*
X172593000Y-93345000D01*
X172593000Y-93345000D02*
X135890000Y-93345000D01*
%TO.N,RST_UC*%
X131445000Y-86995000D02*
X129540000Y-86995000D01*
X137160000Y-92710000D02*
X131445000Y-86995000D01*
X173101000Y-92710000D02*
X137160000Y-92710000D01*
X176600000Y-96209000D02*
X173101000Y-92710000D01*
X176600000Y-96240000D02*
X176600000Y-96209000D01*
%TO.N,FAN_OUT*%
X123190000Y-88138000D02*
X123571000Y-87757000D01*
X122301000Y-97409000D02*
X123190000Y-96520000D01*
X122301000Y-105283000D02*
X122301000Y-97409000D01*
X122174000Y-105410000D02*
X122301000Y-105283000D01*
X123190000Y-96520000D02*
X123190000Y-88138000D01*
%TO.N,ENCODER_SW*%
X119260000Y-115570000D02*
X117830000Y-117000000D01*
X120650000Y-115570000D02*
X119260000Y-115570000D01*
X123190000Y-97917000D02*
X123190000Y-113030000D01*
X125095000Y-96012000D02*
X123190000Y-97917000D01*
X123190000Y-113030000D02*
X120650000Y-115570000D01*
%TO.N,ENCODER_B*%
X123952000Y-100457000D02*
X125476000Y-98933000D01*
X123952000Y-113538000D02*
X123952000Y-100457000D01*
X120490000Y-117000000D02*
X123952000Y-113538000D01*
X120370000Y-117000000D02*
X120490000Y-117000000D01*
X125476000Y-98933000D02*
X125603000Y-98933000D01*
%TO.N,ENCODER_A*%
X122910000Y-115723000D02*
X122910000Y-117000000D01*
X124714000Y-101219000D02*
X124714000Y-113919000D01*
X127000000Y-98933000D02*
X124714000Y-101219000D01*
X128016000Y-98933000D02*
X127000000Y-98933000D01*
X124714000Y-113919000D02*
X122910000Y-115723000D01*
%TO.N,RST_UC*%
X128905000Y-86360000D02*
X129540000Y-86995000D01*
X123063000Y-86360000D02*
X128905000Y-86360000D01*
X118618000Y-90805000D02*
X123063000Y-86360000D01*
X118618000Y-96901000D02*
X118618000Y-90805000D01*
%TO.N,I2C_SDA*%
X131191000Y-84582000D02*
X131191000Y-84455000D01*
X137160000Y-90551000D02*
X131191000Y-84582000D01*
X139192000Y-90551000D02*
X137160000Y-90551000D01*
%TO.N,I2C_SCL*%
X137668000Y-91948000D02*
X139192000Y-91948000D01*
X130429000Y-84709000D02*
X137668000Y-91948000D01*
X130429000Y-84455000D02*
X130429000Y-84709000D01*
%TO.N,I2C_SDA*%
X131191000Y-84328000D02*
X131191000Y-84455000D01*
X130048000Y-83185000D02*
X131191000Y-84328000D01*
X116840000Y-83185000D02*
X130048000Y-83185000D01*
%TO.N,I2C_SCL*%
X114998500Y-83756500D02*
X114427000Y-83185000D01*
X129730500Y-83756500D02*
X114998500Y-83756500D01*
X130429000Y-84455000D02*
X129730500Y-83756500D01*
X110617000Y-83185000D02*
X114427000Y-83185000D01*
X105791000Y-76454000D02*
X105791000Y-78359000D01*
X105791000Y-78359000D02*
X110617000Y-83185000D01*
%TO.N,I2C_SDA*%
X115824000Y-82169000D02*
X116840000Y-83185000D01*
X110490000Y-82169000D02*
X115824000Y-82169000D01*
X106426000Y-78105000D02*
X110490000Y-82169000D01*
X106426000Y-77343000D02*
X106426000Y-78105000D01*
%TO.N,TEMP_SENSE_UC*%
X155575000Y-87884000D02*
X142875000Y-87884000D01*
X142240000Y-87249000D02*
X135636000Y-87249000D01*
X170307000Y-88519000D02*
X156210000Y-88519000D01*
X156210000Y-88519000D02*
X155575000Y-87884000D01*
X142875000Y-87884000D02*
X142240000Y-87249000D01*
%TO.N,V_SENSE_UC*%
X142494000Y-88646000D02*
X154432000Y-88646000D01*
X141859000Y-88011000D02*
X142494000Y-88646000D01*
X135636000Y-88011000D02*
X141859000Y-88011000D01*
%TO.N,SHUNT_TEMP_UC*%
X130302000Y-71882000D02*
X127762000Y-69342000D01*
X130302000Y-80010000D02*
X130302000Y-71882000D01*
X132842000Y-84455000D02*
X132842000Y-82550000D01*
X132842000Y-82550000D02*
X130302000Y-80010000D01*
%TO.N,+5V*%
X133096000Y-70993000D02*
X127762000Y-65659000D01*
X133096000Y-73660000D02*
X133096000Y-70993000D01*
X95885000Y-98806000D02*
X95885000Y-101219000D01*
X95885000Y-101219000D02*
X96520000Y-101854000D01*
X96520000Y-98171000D02*
X95885000Y-98806000D01*
%TO.N,/USB_D-*%
X96520000Y-99145000D02*
X96520000Y-100288000D01*
%TD*%
%TA.AperFunction,Conductor*%
%TO.N,GND*%
G36*
X147556100Y-95765407D02*
G01*
X147592064Y-95814907D01*
X147592064Y-95876093D01*
X147586118Y-95890446D01*
X147581836Y-95898848D01*
X147581835Y-95898852D01*
X147567000Y-95992515D01*
X147567000Y-96673999D01*
X147567001Y-96674000D01*
X148381448Y-96674000D01*
X148367000Y-96727922D01*
X148367000Y-96820078D01*
X148381448Y-96874000D01*
X147567002Y-96874000D01*
X147567001Y-96874001D01*
X147567001Y-97555485D01*
X147581833Y-97649141D01*
X147581836Y-97649151D01*
X147639358Y-97762043D01*
X147728956Y-97851641D01*
X147841848Y-97909163D01*
X147841852Y-97909164D01*
X147935515Y-97923999D01*
X148616998Y-97923999D01*
X148617000Y-97923998D01*
X148617000Y-97109551D01*
X148670922Y-97124000D01*
X148763078Y-97124000D01*
X148817000Y-97109551D01*
X148817000Y-97923998D01*
X148817001Y-97923999D01*
X149498483Y-97923999D01*
X149498485Y-97923998D01*
X149592141Y-97909166D01*
X149592151Y-97909163D01*
X149705043Y-97851641D01*
X149794641Y-97762043D01*
X149852163Y-97649151D01*
X149852164Y-97649147D01*
X149867000Y-97555484D01*
X149867000Y-96874001D01*
X149866999Y-96874000D01*
X149052552Y-96874000D01*
X149067000Y-96820078D01*
X149067000Y-96727922D01*
X149052552Y-96674000D01*
X149866998Y-96674000D01*
X149866999Y-96673999D01*
X149866999Y-95992516D01*
X149866998Y-95992514D01*
X149852166Y-95898858D01*
X149852163Y-95898848D01*
X149847882Y-95890446D01*
X149838310Y-95830014D01*
X149866086Y-95775497D01*
X149920603Y-95747719D01*
X149936091Y-95746500D01*
X152633925Y-95746500D01*
X152692116Y-95765407D01*
X152728080Y-95814907D01*
X152728080Y-95876093D01*
X152722867Y-95888976D01*
X152718363Y-95898190D01*
X152706427Y-95922605D01*
X152703529Y-95942496D01*
X152696500Y-95990740D01*
X152696500Y-97557260D01*
X152700681Y-97585956D01*
X152706427Y-97625395D01*
X152743268Y-97700753D01*
X152757802Y-97730483D01*
X152840517Y-97813198D01*
X152894285Y-97839483D01*
X152945604Y-97864572D01*
X152945605Y-97864572D01*
X152945607Y-97864573D01*
X153013740Y-97874500D01*
X153247500Y-97874500D01*
X153305691Y-97893407D01*
X153341655Y-97942907D01*
X153346500Y-97973500D01*
X153346500Y-98832389D01*
X153327593Y-98890580D01*
X153317504Y-98902393D01*
X152496393Y-99723504D01*
X152441876Y-99751281D01*
X152426389Y-99752500D01*
X134720611Y-99752500D01*
X134662420Y-99733593D01*
X134650607Y-99723504D01*
X131618054Y-96690951D01*
X131590277Y-96636434D01*
X131599848Y-96576002D01*
X131643113Y-96532737D01*
X131703545Y-96523166D01*
X131737558Y-96535211D01*
X131778414Y-96558799D01*
X131802621Y-96565284D01*
X131802626Y-96565287D01*
X131802627Y-96565286D01*
X131892989Y-96589499D01*
X131892991Y-96589500D01*
X131892992Y-96589500D01*
X137600309Y-96589500D01*
X137690669Y-96565287D01*
X137690672Y-96565287D01*
X137703903Y-96561741D01*
X137714887Y-96558799D01*
X137817614Y-96499489D01*
X138541607Y-95775496D01*
X138596124Y-95747719D01*
X138611611Y-95746500D01*
X147497909Y-95746500D01*
X147556100Y-95765407D01*
G37*
%TD.AperFunction*%
%TA.AperFunction,Conductor*%
G36*
X137796580Y-95084407D02*
G01*
X137832544Y-95133907D01*
X137832544Y-95195093D01*
X137808393Y-95234504D01*
X137383393Y-95659504D01*
X137328876Y-95687281D01*
X137313389Y-95688500D01*
X134041611Y-95688500D01*
X133983420Y-95669593D01*
X133947456Y-95620093D01*
X133947456Y-95558907D01*
X133971608Y-95519496D01*
X134396609Y-95094496D01*
X134451125Y-95066719D01*
X134466612Y-95065500D01*
X137738389Y-95065500D01*
X137796580Y-95084407D01*
G37*
%TD.AperFunction*%
%TA.AperFunction,Conductor*%
G36*
X132722270Y-88909373D02*
G01*
X136538393Y-92725496D01*
X136566170Y-92780013D01*
X136556599Y-92840445D01*
X136513334Y-92883710D01*
X136468389Y-92894500D01*
X136117611Y-92894500D01*
X136059420Y-92875593D01*
X136047607Y-92865504D01*
X136006680Y-92824577D01*
X135978903Y-92770060D01*
X135978531Y-92767495D01*
X135967044Y-92680240D01*
X135967044Y-92680238D01*
X135967042Y-92680233D01*
X135906537Y-92534161D01*
X135906537Y-92534160D01*
X135810286Y-92408723D01*
X135810285Y-92408722D01*
X135810282Y-92408718D01*
X135810277Y-92408714D01*
X135810276Y-92408713D01*
X135733122Y-92349511D01*
X135684841Y-92312464D01*
X135684840Y-92312463D01*
X135684838Y-92312462D01*
X135538766Y-92251957D01*
X135538758Y-92251955D01*
X135382001Y-92231318D01*
X135381999Y-92231318D01*
X135225241Y-92251955D01*
X135225233Y-92251957D01*
X135079161Y-92312462D01*
X135079160Y-92312462D01*
X134953723Y-92408713D01*
X134953713Y-92408723D01*
X134857462Y-92534160D01*
X134857462Y-92534161D01*
X134796957Y-92680233D01*
X134796955Y-92680241D01*
X134776318Y-92836999D01*
X134776318Y-92837000D01*
X134796955Y-92993758D01*
X134796957Y-92993766D01*
X134857462Y-93139838D01*
X134857462Y-93139839D01*
X134857464Y-93139841D01*
X134953718Y-93265282D01*
X134953722Y-93265285D01*
X134976754Y-93282958D01*
X135011410Y-93333382D01*
X135009809Y-93394546D01*
X134972562Y-93443088D01*
X134916487Y-93460500D01*
X133867691Y-93460500D01*
X133822508Y-93472606D01*
X133777325Y-93484713D01*
X133777324Y-93484712D01*
X133753112Y-93491201D01*
X133753109Y-93491202D01*
X133650390Y-93550507D01*
X133650384Y-93550512D01*
X133591576Y-93609319D01*
X133537059Y-93637095D01*
X133534497Y-93637467D01*
X133447237Y-93648956D01*
X133301161Y-93709462D01*
X133301160Y-93709462D01*
X133175723Y-93805713D01*
X133175713Y-93805723D01*
X133079462Y-93931160D01*
X133079462Y-93931161D01*
X133018957Y-94077233D01*
X133018955Y-94077241D01*
X132998318Y-94233999D01*
X132998318Y-94234000D01*
X133018955Y-94390758D01*
X133018957Y-94390766D01*
X133079462Y-94536838D01*
X133079462Y-94536839D01*
X133175713Y-94662276D01*
X133175718Y-94662282D01*
X133300547Y-94758066D01*
X133335203Y-94808490D01*
X133333602Y-94869654D01*
X133310284Y-94906611D01*
X133192394Y-95024503D01*
X133137878Y-95052281D01*
X133122390Y-95053500D01*
X132512932Y-95053500D01*
X132454741Y-95034593D01*
X132452684Y-95033056D01*
X132382841Y-94979464D01*
X132382840Y-94979463D01*
X132382838Y-94979462D01*
X132236766Y-94918957D01*
X132236758Y-94918955D01*
X132108578Y-94902080D01*
X132053353Y-94875739D01*
X132024158Y-94821968D01*
X132022500Y-94803927D01*
X132022500Y-89710352D01*
X132041407Y-89652161D01*
X132090907Y-89616197D01*
X132108582Y-89612199D01*
X132109762Y-89612044D01*
X132255841Y-89551536D01*
X132381282Y-89455282D01*
X132477536Y-89329841D01*
X132538044Y-89183762D01*
X132558682Y-89027000D01*
X132554113Y-88992298D01*
X132565262Y-88932140D01*
X132609644Y-88890022D01*
X132670306Y-88882035D01*
X132722270Y-88909373D01*
G37*
%TD.AperFunction*%
%TA.AperFunction,Conductor*%
G36*
X175002152Y-60100593D02*
G01*
X175422716Y-60118956D01*
X175431296Y-60119706D01*
X175846505Y-60174370D01*
X175855010Y-60175870D01*
X175972778Y-60201978D01*
X176263872Y-60266512D01*
X176272187Y-60268739D01*
X176671605Y-60394676D01*
X176679721Y-60397630D01*
X177066634Y-60557895D01*
X177074446Y-60561537D01*
X177176472Y-60614649D01*
X177445910Y-60754910D01*
X177453390Y-60759228D01*
X177806598Y-60984246D01*
X177813672Y-60989200D01*
X178145912Y-61244136D01*
X178152513Y-61249675D01*
X178461302Y-61532627D01*
X178467372Y-61538697D01*
X178750322Y-61847484D01*
X178755863Y-61854087D01*
X179010799Y-62186327D01*
X179015753Y-62193401D01*
X179240771Y-62546609D01*
X179245089Y-62554089D01*
X179438458Y-62925546D01*
X179442108Y-62933373D01*
X179602369Y-63320278D01*
X179605323Y-63328394D01*
X179731255Y-63727796D01*
X179733490Y-63736139D01*
X179824129Y-64144989D01*
X179825629Y-64153494D01*
X179880291Y-64568691D01*
X179881044Y-64577295D01*
X179899406Y-64997847D01*
X179899500Y-65002165D01*
X179899500Y-114997834D01*
X179899406Y-115002152D01*
X179881044Y-115422704D01*
X179880291Y-115431308D01*
X179825629Y-115846505D01*
X179824129Y-115855010D01*
X179733490Y-116263860D01*
X179731255Y-116272203D01*
X179605323Y-116671605D01*
X179602369Y-116679721D01*
X179442108Y-117066626D01*
X179438458Y-117074453D01*
X179245089Y-117445910D01*
X179240771Y-117453390D01*
X179015753Y-117806598D01*
X179010799Y-117813672D01*
X178755863Y-118145912D01*
X178750313Y-118152526D01*
X178467383Y-118461290D01*
X178461290Y-118467383D01*
X178397143Y-118526164D01*
X178152528Y-118750312D01*
X178145912Y-118755863D01*
X177813672Y-119010799D01*
X177806598Y-119015753D01*
X177453390Y-119240771D01*
X177445910Y-119245089D01*
X177074453Y-119438458D01*
X177066626Y-119442108D01*
X176679721Y-119602369D01*
X176671605Y-119605323D01*
X176272203Y-119731255D01*
X176263860Y-119733490D01*
X175855010Y-119824129D01*
X175846505Y-119825629D01*
X175431308Y-119880291D01*
X175422704Y-119881044D01*
X175002153Y-119899406D01*
X174997835Y-119899500D01*
X95002165Y-119899500D01*
X94997847Y-119899406D01*
X94577295Y-119881044D01*
X94568691Y-119880291D01*
X94153494Y-119825629D01*
X94144989Y-119824129D01*
X93736139Y-119733490D01*
X93727796Y-119731255D01*
X93328394Y-119605323D01*
X93320278Y-119602369D01*
X92933373Y-119442108D01*
X92925546Y-119438458D01*
X92554089Y-119245089D01*
X92546609Y-119240771D01*
X92193401Y-119015753D01*
X92186327Y-119010799D01*
X91854087Y-118755863D01*
X91847484Y-118750322D01*
X91538697Y-118467372D01*
X91532627Y-118461302D01*
X91249675Y-118152513D01*
X91244136Y-118145912D01*
X91151465Y-118025141D01*
X90989200Y-117813672D01*
X90984246Y-117806598D01*
X90902951Y-117678991D01*
X90775785Y-117479380D01*
X90759228Y-117453390D01*
X90754910Y-117445910D01*
X90561537Y-117074446D01*
X90557891Y-117066626D01*
X90551004Y-117050000D01*
X90397630Y-116679721D01*
X90394676Y-116671605D01*
X90381640Y-116630260D01*
X90268739Y-116272187D01*
X90266512Y-116263872D01*
X90190445Y-115920753D01*
X90175870Y-115855010D01*
X90174370Y-115846505D01*
X90168248Y-115800001D01*
X90119706Y-115431296D01*
X90118956Y-115422716D01*
X90100594Y-115002152D01*
X90100547Y-115000006D01*
X91395060Y-115000006D01*
X91414806Y-115376807D01*
X91414808Y-115376827D01*
X91473835Y-115749503D01*
X91571497Y-116113985D01*
X91571502Y-116114002D01*
X91706723Y-116466261D01*
X91878027Y-116802465D01*
X91878033Y-116802476D01*
X92083544Y-117118933D01*
X92321003Y-117412171D01*
X92383704Y-117474872D01*
X93797916Y-116060658D01*
X93939339Y-116202081D01*
X92525127Y-117616295D01*
X92587828Y-117678996D01*
X92881066Y-117916455D01*
X93197523Y-118121966D01*
X93197534Y-118121972D01*
X93533738Y-118293276D01*
X93885997Y-118428497D01*
X93886014Y-118428502D01*
X94250496Y-118526164D01*
X94623172Y-118585191D01*
X94623192Y-118585193D01*
X94999994Y-118604940D01*
X95000006Y-118604940D01*
X95376807Y-118585193D01*
X95376827Y-118585191D01*
X95749503Y-118526164D01*
X96113985Y-118428502D01*
X96114002Y-118428497D01*
X96466261Y-118293276D01*
X96802465Y-118121972D01*
X96802476Y-118121966D01*
X97118927Y-117916459D01*
X97159925Y-117883260D01*
X104259500Y-117883260D01*
X104264337Y-117916455D01*
X104269427Y-117951395D01*
X104299116Y-118012124D01*
X104320802Y-118056483D01*
X104403517Y-118139198D01*
X104445287Y-118159618D01*
X104508604Y-118190572D01*
X104508605Y-118190572D01*
X104508607Y-118190573D01*
X104576740Y-118200500D01*
X104576743Y-118200500D01*
X106343257Y-118200500D01*
X106343260Y-118200500D01*
X106411393Y-118190573D01*
X106516483Y-118139198D01*
X106599198Y-118056483D01*
X106650573Y-117951393D01*
X106660500Y-117883260D01*
X106660500Y-117388635D01*
X106679407Y-117330444D01*
X106728907Y-117294480D01*
X106790093Y-117294480D01*
X106839593Y-117330444D01*
X106854719Y-117361540D01*
X106875771Y-117435528D01*
X106974942Y-117634689D01*
X107109019Y-117812236D01*
X107273438Y-117962124D01*
X107462599Y-118079247D01*
X107670060Y-118159618D01*
X107888757Y-118200500D01*
X108111243Y-118200500D01*
X108329940Y-118159618D01*
X108537401Y-118079247D01*
X108726562Y-117962124D01*
X108890981Y-117812236D01*
X109025058Y-117634689D01*
X109124229Y-117435528D01*
X109185115Y-117221536D01*
X109205643Y-117000000D01*
X109185115Y-116778464D01*
X109124229Y-116564472D01*
X109025058Y-116365311D01*
X108890981Y-116187764D01*
X108726562Y-116037876D01*
X108537401Y-115920753D01*
X108329940Y-115840382D01*
X108329939Y-115840381D01*
X108329937Y-115840381D01*
X108111243Y-115799500D01*
X107888757Y-115799500D01*
X107670062Y-115840381D01*
X107617350Y-115860802D01*
X107462599Y-115920753D01*
X107396054Y-115961956D01*
X107273438Y-116037876D01*
X107171869Y-116130469D01*
X107109019Y-116187764D01*
X107071262Y-116237763D01*
X106974943Y-116365309D01*
X106974938Y-116365318D01*
X106875772Y-116564469D01*
X106875771Y-116564472D01*
X106854720Y-116638458D01*
X106820611Y-116689252D01*
X106763158Y-116710296D01*
X106704309Y-116693552D01*
X106666540Y-116645415D01*
X106660500Y-116611364D01*
X106660500Y-116116743D01*
X106660101Y-116114002D01*
X106650573Y-116048607D01*
X106647504Y-116042330D01*
X106612513Y-115970753D01*
X106599198Y-115943517D01*
X106516483Y-115860802D01*
X106496001Y-115850789D01*
X106411395Y-115809427D01*
X106375298Y-115804168D01*
X106343260Y-115799500D01*
X104576740Y-115799500D01*
X104544702Y-115804168D01*
X104508604Y-115809427D01*
X104403518Y-115860801D01*
X104320801Y-115943518D01*
X104269427Y-116048604D01*
X104269427Y-116048607D01*
X104259500Y-116116740D01*
X104259500Y-117883260D01*
X97159925Y-117883260D01*
X97412177Y-117678991D01*
X97474873Y-117616295D01*
X96060659Y-116202082D01*
X96202082Y-116060659D01*
X97616295Y-117474872D01*
X97678991Y-117412177D01*
X97916459Y-117118927D01*
X98121966Y-116802476D01*
X98121972Y-116802465D01*
X98293276Y-116466261D01*
X98428497Y-116114002D01*
X98428502Y-116113985D01*
X98526164Y-115749503D01*
X98585191Y-115376827D01*
X98585193Y-115376807D01*
X98604940Y-115000006D01*
X98604940Y-114999993D01*
X98585193Y-114623192D01*
X98585191Y-114623172D01*
X98526164Y-114250496D01*
X98428502Y-113886014D01*
X98428497Y-113885997D01*
X98293276Y-113533738D01*
X98121972Y-113197534D01*
X98121966Y-113197523D01*
X97916455Y-112881066D01*
X97678996Y-112587828D01*
X97616295Y-112525127D01*
X96202081Y-113939339D01*
X96060658Y-113797916D01*
X97474872Y-112383704D01*
X97412171Y-112321003D01*
X97118933Y-112083544D01*
X96802476Y-111878033D01*
X96802465Y-111878027D01*
X96747459Y-111850000D01*
X99695202Y-111850000D01*
X99714361Y-112081220D01*
X99771319Y-112306137D01*
X99771320Y-112306140D01*
X99864514Y-112518605D01*
X99991416Y-112712843D01*
X100041417Y-112767158D01*
X100645606Y-112162968D01*
X100659890Y-112187708D01*
X100762292Y-112290110D01*
X100787029Y-112304391D01*
X100181914Y-112909507D01*
X100331644Y-113026047D01*
X100331647Y-113026049D01*
X100535695Y-113136475D01*
X100755145Y-113211812D01*
X100983993Y-113250000D01*
X101216007Y-113250000D01*
X101444854Y-113211812D01*
X101664304Y-113136475D01*
X101868352Y-113026049D01*
X101868356Y-113026046D01*
X102018084Y-112909507D01*
X101412969Y-112304392D01*
X101437708Y-112290110D01*
X101540110Y-112187708D01*
X101554392Y-112162969D01*
X102158582Y-112767160D01*
X102158583Y-112767159D01*
X102208578Y-112712851D01*
X102335485Y-112518605D01*
X102428679Y-112306140D01*
X102428680Y-112306137D01*
X102485638Y-112081220D01*
X102504797Y-111850000D01*
X106195202Y-111850000D01*
X106214361Y-112081220D01*
X106271319Y-112306137D01*
X106271320Y-112306140D01*
X106364514Y-112518605D01*
X106491416Y-112712843D01*
X106541417Y-112767158D01*
X107145606Y-112162968D01*
X107159890Y-112187708D01*
X107262292Y-112290110D01*
X107287029Y-112304391D01*
X106681914Y-112909507D01*
X106831644Y-113026047D01*
X106831647Y-113026049D01*
X107035695Y-113136475D01*
X107255145Y-113211812D01*
X107483993Y-113250000D01*
X107716007Y-113250000D01*
X107944854Y-113211812D01*
X108164304Y-113136475D01*
X108368352Y-113026049D01*
X108368356Y-113026046D01*
X108518084Y-112909507D01*
X107912969Y-112304392D01*
X107937708Y-112290110D01*
X108040110Y-112187708D01*
X108054392Y-112162969D01*
X108658582Y-112767160D01*
X108658583Y-112767159D01*
X108708578Y-112712851D01*
X108835485Y-112518605D01*
X108928679Y-112306140D01*
X108928680Y-112306137D01*
X108985638Y-112081220D01*
X109004797Y-111850000D01*
X108985638Y-111618779D01*
X108928680Y-111393862D01*
X108928679Y-111393859D01*
X108835485Y-111181394D01*
X108708583Y-110987156D01*
X108658581Y-110932840D01*
X108054391Y-111537029D01*
X108040110Y-111512292D01*
X107937708Y-111409890D01*
X107912968Y-111395607D01*
X108518084Y-110790492D01*
X108518084Y-110790491D01*
X108368355Y-110673952D01*
X108368352Y-110673950D01*
X108164304Y-110563524D01*
X107944854Y-110488187D01*
X107716007Y-110450000D01*
X107483993Y-110450000D01*
X107255145Y-110488187D01*
X107035695Y-110563524D01*
X106831647Y-110673950D01*
X106831644Y-110673952D01*
X106681914Y-110790491D01*
X107287030Y-111395607D01*
X107262292Y-111409890D01*
X107159890Y-111512292D01*
X107145607Y-111537030D01*
X106541416Y-110932839D01*
X106491424Y-110987145D01*
X106491416Y-110987155D01*
X106364519Y-111181385D01*
X106364514Y-111181394D01*
X106271320Y-111393859D01*
X106271319Y-111393862D01*
X106214361Y-111618779D01*
X106195202Y-111850000D01*
X102504797Y-111850000D01*
X102485638Y-111618779D01*
X102428680Y-111393862D01*
X102428679Y-111393859D01*
X102335485Y-111181394D01*
X102208583Y-110987156D01*
X102158581Y-110932840D01*
X101554391Y-111537029D01*
X101540110Y-111512292D01*
X101437708Y-111409890D01*
X101412968Y-111395607D01*
X102018084Y-110790492D01*
X102018084Y-110790491D01*
X101868355Y-110673952D01*
X101868352Y-110673950D01*
X101664304Y-110563524D01*
X101444854Y-110488187D01*
X101216007Y-110450000D01*
X100983993Y-110450000D01*
X100755145Y-110488187D01*
X100535695Y-110563524D01*
X100331647Y-110673950D01*
X100331644Y-110673952D01*
X100181914Y-110790491D01*
X100787030Y-111395607D01*
X100762292Y-111409890D01*
X100659890Y-111512292D01*
X100645607Y-111537030D01*
X100041416Y-110932839D01*
X99991424Y-110987145D01*
X99991416Y-110987155D01*
X99864519Y-111181385D01*
X99864514Y-111181394D01*
X99771320Y-111393859D01*
X99771319Y-111393862D01*
X99714361Y-111618779D01*
X99695202Y-111850000D01*
X96747459Y-111850000D01*
X96466261Y-111706723D01*
X96114002Y-111571502D01*
X96113985Y-111571497D01*
X95749503Y-111473835D01*
X95376827Y-111414808D01*
X95376807Y-111414806D01*
X95000006Y-111395060D01*
X94999994Y-111395060D01*
X94623192Y-111414806D01*
X94623172Y-111414808D01*
X94250496Y-111473835D01*
X93886014Y-111571497D01*
X93885997Y-111571502D01*
X93533738Y-111706723D01*
X93197534Y-111878027D01*
X93197523Y-111878033D01*
X92881066Y-112083544D01*
X92587825Y-112321005D01*
X92587821Y-112321009D01*
X92525126Y-112383703D01*
X93939340Y-113797917D01*
X93797917Y-113939340D01*
X92383703Y-112525126D01*
X92321009Y-112587821D01*
X92321005Y-112587825D01*
X92083544Y-112881066D01*
X91878033Y-113197523D01*
X91878027Y-113197534D01*
X91706723Y-113533738D01*
X91571502Y-113885997D01*
X91571497Y-113886014D01*
X91473835Y-114250496D01*
X91414808Y-114623172D01*
X91414806Y-114623192D01*
X91395060Y-114999993D01*
X91395060Y-115000006D01*
X90100547Y-115000006D01*
X90100500Y-114997834D01*
X90100500Y-107350004D01*
X99744341Y-107350004D01*
X99764935Y-107585400D01*
X99764936Y-107585407D01*
X99764937Y-107585408D01*
X99826097Y-107813663D01*
X99925965Y-108027830D01*
X100061505Y-108221401D01*
X100228599Y-108388495D01*
X100422170Y-108524035D01*
X100636337Y-108623903D01*
X100864592Y-108685063D01*
X100864596Y-108685063D01*
X100864599Y-108685064D01*
X101099996Y-108705659D01*
X101100000Y-108705659D01*
X101100004Y-108705659D01*
X101335400Y-108685064D01*
X101335401Y-108685063D01*
X101335408Y-108685063D01*
X101563663Y-108623903D01*
X101777830Y-108524035D01*
X101971401Y-108388495D01*
X102138495Y-108221401D01*
X102274035Y-108027830D01*
X102373903Y-107813663D01*
X102435063Y-107585408D01*
X102453459Y-107375147D01*
X102455659Y-107350004D01*
X106244341Y-107350004D01*
X106264935Y-107585400D01*
X106264936Y-107585407D01*
X106264937Y-107585408D01*
X106326097Y-107813663D01*
X106425965Y-108027830D01*
X106561505Y-108221401D01*
X106728599Y-108388495D01*
X106922170Y-108524035D01*
X107136337Y-108623903D01*
X107364592Y-108685063D01*
X107364596Y-108685063D01*
X107364599Y-108685064D01*
X107599996Y-108705659D01*
X107600000Y-108705659D01*
X107600004Y-108705659D01*
X107835400Y-108685064D01*
X107835401Y-108685063D01*
X107835408Y-108685063D01*
X108063663Y-108623903D01*
X108277830Y-108524035D01*
X108471401Y-108388495D01*
X108638495Y-108221401D01*
X108774035Y-108027830D01*
X108873903Y-107813663D01*
X108935063Y-107585408D01*
X108953459Y-107375147D01*
X108955659Y-107350004D01*
X108955659Y-107349995D01*
X108935064Y-107114599D01*
X108935063Y-107114596D01*
X108935063Y-107114592D01*
X108873903Y-106886337D01*
X108864385Y-106865925D01*
X108774040Y-106672181D01*
X108774036Y-106672173D01*
X108638498Y-106478603D01*
X108638497Y-106478602D01*
X108638495Y-106478599D01*
X108471401Y-106311505D01*
X108471397Y-106311502D01*
X108471396Y-106311501D01*
X108364007Y-106236307D01*
X108277830Y-106175965D01*
X108063663Y-106076097D01*
X107835408Y-106014937D01*
X107835407Y-106014936D01*
X107835400Y-106014935D01*
X107600004Y-105994341D01*
X107599996Y-105994341D01*
X107364599Y-106014935D01*
X107136332Y-106076098D01*
X106922181Y-106175959D01*
X106922173Y-106175963D01*
X106728603Y-106311501D01*
X106561501Y-106478603D01*
X106425963Y-106672173D01*
X106425959Y-106672181D01*
X106326098Y-106886332D01*
X106264935Y-107114599D01*
X106244341Y-107349995D01*
X106244341Y-107350004D01*
X102455659Y-107350004D01*
X102455659Y-107349995D01*
X102435064Y-107114599D01*
X102435063Y-107114596D01*
X102435063Y-107114592D01*
X102373903Y-106886337D01*
X102364385Y-106865925D01*
X102274040Y-106672181D01*
X102274036Y-106672173D01*
X102138498Y-106478603D01*
X102138497Y-106478602D01*
X102138495Y-106478599D01*
X101971401Y-106311505D01*
X101971397Y-106311502D01*
X101971396Y-106311501D01*
X101864007Y-106236307D01*
X101777830Y-106175965D01*
X101563663Y-106076097D01*
X101335408Y-106014937D01*
X101335407Y-106014936D01*
X101335400Y-106014935D01*
X101100004Y-105994341D01*
X101099996Y-105994341D01*
X100864599Y-106014935D01*
X100636332Y-106076098D01*
X100422181Y-106175959D01*
X100422173Y-106175963D01*
X100228603Y-106311501D01*
X100061501Y-106478603D01*
X99925963Y-106672173D01*
X99925959Y-106672181D01*
X99826098Y-106886332D01*
X99764935Y-107114599D01*
X99744341Y-107349995D01*
X99744341Y-107350004D01*
X90100500Y-107350004D01*
X90100500Y-104403769D01*
X91674500Y-104403769D01*
X91707183Y-104568079D01*
X91707185Y-104568085D01*
X91771296Y-104722862D01*
X91771297Y-104722863D01*
X91864374Y-104862162D01*
X91982838Y-104980626D01*
X92122137Y-105073703D01*
X92276918Y-105137816D01*
X92441233Y-105170500D01*
X92441234Y-105170500D01*
X93408766Y-105170500D01*
X93408767Y-105170500D01*
X93573082Y-105137816D01*
X93727863Y-105073703D01*
X93867162Y-104980626D01*
X93985626Y-104862162D01*
X94078703Y-104722863D01*
X94142816Y-104568082D01*
X94175500Y-104403767D01*
X94175500Y-104236233D01*
X94142816Y-104071918D01*
X94078703Y-103917137D01*
X93985626Y-103777838D01*
X93867162Y-103659374D01*
X93727863Y-103566297D01*
X93727864Y-103566297D01*
X93727862Y-103566296D01*
X93573085Y-103502185D01*
X93573079Y-103502183D01*
X93408769Y-103469500D01*
X93408767Y-103469500D01*
X92441233Y-103469500D01*
X92441230Y-103469500D01*
X92276920Y-103502183D01*
X92276914Y-103502185D01*
X92122137Y-103566296D01*
X91982838Y-103659374D01*
X91982834Y-103659377D01*
X91864377Y-103777834D01*
X91864374Y-103777838D01*
X91771296Y-103917137D01*
X91707185Y-104071914D01*
X91707183Y-104071920D01*
X91674500Y-104236230D01*
X91674500Y-104403769D01*
X90100500Y-104403769D01*
X90100500Y-101278309D01*
X95434500Y-101278309D01*
X95458713Y-101368673D01*
X95458712Y-101368673D01*
X95465200Y-101392886D01*
X95465202Y-101392890D01*
X95524507Y-101495609D01*
X95524511Y-101495614D01*
X95895318Y-101866422D01*
X95923095Y-101920938D01*
X95923467Y-101923502D01*
X95934956Y-102010762D01*
X95995462Y-102156838D01*
X95995462Y-102156839D01*
X96091713Y-102282276D01*
X96091718Y-102282282D01*
X96217159Y-102378536D01*
X96217160Y-102378536D01*
X96217161Y-102378537D01*
X96290677Y-102408988D01*
X96337203Y-102448724D01*
X96351487Y-102508219D01*
X96328073Y-102564747D01*
X96322796Y-102570455D01*
X96264514Y-102628737D01*
X96208498Y-102725758D01*
X96206225Y-102734241D01*
X96179500Y-102833982D01*
X96179500Y-102946018D01*
X96185185Y-102967233D01*
X96208498Y-103054241D01*
X96264513Y-103151260D01*
X96264515Y-103151263D01*
X96343737Y-103230485D01*
X96343739Y-103230486D01*
X96440757Y-103286500D01*
X96440758Y-103286500D01*
X96440763Y-103286503D01*
X96444116Y-103287401D01*
X96446202Y-103288756D01*
X96446755Y-103288985D01*
X96446712Y-103289087D01*
X96495430Y-103320722D01*
X96517359Y-103377842D01*
X96501526Y-103436943D01*
X96453978Y-103475451D01*
X96437809Y-103480126D01*
X96326920Y-103502183D01*
X96326914Y-103502185D01*
X96172137Y-103566296D01*
X96032838Y-103659374D01*
X96032834Y-103659377D01*
X95914377Y-103777834D01*
X95914374Y-103777838D01*
X95821296Y-103917137D01*
X95757185Y-104071914D01*
X95757183Y-104071920D01*
X95724500Y-104236230D01*
X95724500Y-104403769D01*
X95757183Y-104568079D01*
X95757185Y-104568085D01*
X95821296Y-104722862D01*
X95821297Y-104722863D01*
X95914374Y-104862162D01*
X96032838Y-104980626D01*
X96172137Y-105073703D01*
X96326918Y-105137816D01*
X96491233Y-105170500D01*
X96491234Y-105170500D01*
X97758766Y-105170500D01*
X97758767Y-105170500D01*
X97923082Y-105137816D01*
X98077863Y-105073703D01*
X98217162Y-104980626D01*
X98335626Y-104862162D01*
X98428703Y-104722863D01*
X98492816Y-104568082D01*
X98525500Y-104403767D01*
X98525500Y-104236233D01*
X98492816Y-104071918D01*
X98428703Y-103917137D01*
X98335626Y-103777838D01*
X98217162Y-103659374D01*
X98077863Y-103566297D01*
X98077864Y-103566297D01*
X98077862Y-103566296D01*
X97923085Y-103502185D01*
X97923079Y-103502183D01*
X97758769Y-103469500D01*
X97758767Y-103469500D01*
X96821750Y-103469500D01*
X96763559Y-103450593D01*
X96727595Y-103401093D01*
X96727595Y-103339907D01*
X96763559Y-103290407D01*
X96772250Y-103284764D01*
X96812861Y-103261316D01*
X96866263Y-103230485D01*
X96945485Y-103151263D01*
X97001503Y-103054237D01*
X97030500Y-102946018D01*
X97030500Y-102833982D01*
X97001503Y-102725763D01*
X97001501Y-102725760D01*
X97001501Y-102725758D01*
X96945486Y-102628739D01*
X96945485Y-102628737D01*
X96866263Y-102549515D01*
X96842643Y-102535878D01*
X96801704Y-102490410D01*
X96795308Y-102429560D01*
X96825901Y-102376572D01*
X96831867Y-102371609D01*
X96948282Y-102282282D01*
X97044536Y-102156841D01*
X97105044Y-102010762D01*
X97125682Y-101854000D01*
X97105044Y-101697238D01*
X97044537Y-101551161D01*
X97044537Y-101551160D01*
X96948286Y-101425723D01*
X96948285Y-101425722D01*
X96948282Y-101425718D01*
X96948277Y-101425714D01*
X96948276Y-101425713D01*
X96822838Y-101329462D01*
X96676762Y-101268956D01*
X96589503Y-101257467D01*
X96534278Y-101231125D01*
X96532422Y-101229318D01*
X96364496Y-101061392D01*
X96336719Y-101006875D01*
X96335500Y-100991388D01*
X96335500Y-100982280D01*
X96354407Y-100924089D01*
X96403907Y-100888125D01*
X96447422Y-100884127D01*
X96519999Y-100893682D01*
X96520000Y-100893682D01*
X96520001Y-100893682D01*
X96551352Y-100889554D01*
X96676762Y-100873044D01*
X96822841Y-100812536D01*
X96948282Y-100716282D01*
X97044536Y-100590841D01*
X97105044Y-100444762D01*
X97125682Y-100288000D01*
X97105044Y-100131238D01*
X97066104Y-100037229D01*
X97044537Y-99985161D01*
X97044537Y-99985160D01*
X96990958Y-99915334D01*
X96970534Y-99857658D01*
X96970500Y-99855067D01*
X96970500Y-99577932D01*
X96989407Y-99519741D01*
X96990936Y-99517693D01*
X97044536Y-99447841D01*
X97105044Y-99301762D01*
X97125682Y-99145000D01*
X97105044Y-98988238D01*
X97087352Y-98945526D01*
X97044537Y-98842161D01*
X97044536Y-98842160D01*
X97044536Y-98842159D01*
X96949469Y-98718265D01*
X96929046Y-98660592D01*
X96946423Y-98601926D01*
X96949459Y-98597747D01*
X97044536Y-98473841D01*
X97105044Y-98327762D01*
X97125682Y-98171000D01*
X97105044Y-98014238D01*
X97061521Y-97909164D01*
X97044537Y-97868161D01*
X97044537Y-97868160D01*
X96948286Y-97742723D01*
X96948285Y-97742722D01*
X96948282Y-97742718D01*
X96948277Y-97742714D01*
X96948276Y-97742713D01*
X96826343Y-97649151D01*
X96822841Y-97646464D01*
X96822840Y-97646463D01*
X96817693Y-97642514D01*
X96818531Y-97641421D01*
X96782384Y-97601268D01*
X96775994Y-97540417D01*
X96806592Y-97487432D01*
X96823322Y-97475276D01*
X96866263Y-97450485D01*
X96945485Y-97371263D01*
X97001503Y-97274237D01*
X97030500Y-97166018D01*
X97030500Y-97053982D01*
X97001503Y-96945763D01*
X97001501Y-96945760D01*
X97001501Y-96945758D01*
X96945486Y-96848739D01*
X96945485Y-96848737D01*
X96866263Y-96769515D01*
X96866260Y-96769513D01*
X96772250Y-96715236D01*
X96731309Y-96669767D01*
X96724913Y-96608916D01*
X96755506Y-96555928D01*
X96811402Y-96531042D01*
X96821750Y-96530500D01*
X97758766Y-96530500D01*
X97758767Y-96530500D01*
X97923082Y-96497816D01*
X98077863Y-96433703D01*
X98217162Y-96340626D01*
X98335626Y-96222162D01*
X98428703Y-96082863D01*
X98492816Y-95928082D01*
X98525500Y-95763767D01*
X98525500Y-95596233D01*
X98492816Y-95431918D01*
X98428703Y-95277137D01*
X98335626Y-95137838D01*
X98217162Y-95019374D01*
X98124084Y-94957181D01*
X98077862Y-94926296D01*
X97923085Y-94862185D01*
X97923079Y-94862183D01*
X97758769Y-94829500D01*
X97758767Y-94829500D01*
X96491233Y-94829500D01*
X96491230Y-94829500D01*
X96326920Y-94862183D01*
X96326914Y-94862185D01*
X96172137Y-94926296D01*
X96032838Y-95019374D01*
X96032834Y-95019377D01*
X95914377Y-95137834D01*
X95914374Y-95137838D01*
X95821296Y-95277137D01*
X95757185Y-95431914D01*
X95757183Y-95431920D01*
X95724500Y-95596230D01*
X95724500Y-95763769D01*
X95757183Y-95928079D01*
X95757185Y-95928085D01*
X95821296Y-96082862D01*
X95841689Y-96113382D01*
X95914374Y-96222162D01*
X96032838Y-96340626D01*
X96172137Y-96433703D01*
X96326918Y-96497816D01*
X96437810Y-96519873D01*
X96491193Y-96549769D01*
X96516809Y-96605334D01*
X96504872Y-96665344D01*
X96459943Y-96706877D01*
X96444123Y-96712596D01*
X96440764Y-96713496D01*
X96440759Y-96713498D01*
X96343739Y-96769513D01*
X96264513Y-96848739D01*
X96208498Y-96945758D01*
X96197682Y-96986124D01*
X96179500Y-97053982D01*
X96179500Y-97166018D01*
X96189175Y-97202124D01*
X96208498Y-97274241D01*
X96264513Y-97371260D01*
X96264515Y-97371263D01*
X96340474Y-97447222D01*
X96368250Y-97501737D01*
X96358679Y-97562169D01*
X96315414Y-97605434D01*
X96308356Y-97608688D01*
X96217159Y-97646464D01*
X96091723Y-97742713D01*
X96091713Y-97742723D01*
X95995462Y-97868160D01*
X95995462Y-97868161D01*
X95934956Y-98014237D01*
X95923467Y-98101496D01*
X95897125Y-98156721D01*
X95895318Y-98158576D01*
X95524511Y-98529385D01*
X95524507Y-98529390D01*
X95465200Y-98632112D01*
X95465200Y-98632113D01*
X95465201Y-98632114D01*
X95434500Y-98746691D01*
X95434500Y-101278309D01*
X90100500Y-101278309D01*
X90100500Y-95763769D01*
X91674500Y-95763769D01*
X91707183Y-95928079D01*
X91707185Y-95928085D01*
X91771296Y-96082862D01*
X91791689Y-96113382D01*
X91864374Y-96222162D01*
X91982838Y-96340626D01*
X92122137Y-96433703D01*
X92276918Y-96497816D01*
X92441233Y-96530500D01*
X92441234Y-96530500D01*
X93408766Y-96530500D01*
X93408767Y-96530500D01*
X93573082Y-96497816D01*
X93727863Y-96433703D01*
X93867162Y-96340626D01*
X93985626Y-96222162D01*
X94078703Y-96082863D01*
X94142816Y-95928082D01*
X94175500Y-95763767D01*
X94175500Y-95596233D01*
X94142816Y-95431918D01*
X94078703Y-95277137D01*
X93985626Y-95137838D01*
X93867162Y-95019374D01*
X93774084Y-94957181D01*
X93727862Y-94926296D01*
X93573085Y-94862185D01*
X93573079Y-94862183D01*
X93408769Y-94829500D01*
X93408767Y-94829500D01*
X92441233Y-94829500D01*
X92441230Y-94829500D01*
X92276920Y-94862183D01*
X92276914Y-94862185D01*
X92122137Y-94926296D01*
X91982838Y-95019374D01*
X91982834Y-95019377D01*
X91864377Y-95137834D01*
X91864374Y-95137838D01*
X91771296Y-95277137D01*
X91707185Y-95431914D01*
X91707183Y-95431920D01*
X91674500Y-95596230D01*
X91674500Y-95763769D01*
X90100500Y-95763769D01*
X90100500Y-85124999D01*
X92250000Y-85124999D01*
X92250001Y-85125000D01*
X93009157Y-85125000D01*
X93000000Y-85159174D01*
X93000000Y-85290826D01*
X93009157Y-85325000D01*
X92250002Y-85325000D01*
X92250001Y-85325001D01*
X92250001Y-86106485D01*
X92264833Y-86200141D01*
X92264836Y-86200151D01*
X92322358Y-86313043D01*
X92411956Y-86402641D01*
X92524848Y-86460163D01*
X92524852Y-86460164D01*
X92618515Y-86474999D01*
X92977013Y-86474999D01*
X93035204Y-86493906D01*
X93071168Y-86543406D01*
X93071168Y-86604591D01*
X93035204Y-86654092D01*
X93012777Y-86666313D01*
X92962604Y-86685750D01*
X92962601Y-86685752D01*
X92962600Y-86685752D01*
X92962599Y-86685753D01*
X92811042Y-86779593D01*
X92773438Y-86802876D01*
X92609020Y-86952763D01*
X92474943Y-87130309D01*
X92474938Y-87130318D01*
X92375772Y-87329469D01*
X92375771Y-87329472D01*
X92314885Y-87543464D01*
X92294357Y-87765000D01*
X92314885Y-87986536D01*
X92371434Y-88185286D01*
X92375772Y-88200530D01*
X92456293Y-88362238D01*
X92474942Y-88399689D01*
X92609019Y-88577236D01*
X92773438Y-88727124D01*
X92962599Y-88844247D01*
X93170060Y-88924618D01*
X93388757Y-88965500D01*
X93611243Y-88965500D01*
X93829940Y-88924618D01*
X94037401Y-88844247D01*
X94226562Y-88727124D01*
X94390981Y-88577236D01*
X94525058Y-88399689D01*
X94624229Y-88200528D01*
X94685115Y-87986536D01*
X94705643Y-87765000D01*
X94685115Y-87543464D01*
X94624229Y-87329472D01*
X94525058Y-87130311D01*
X94390981Y-86952764D01*
X94226562Y-86802876D01*
X94037401Y-86685753D01*
X93987220Y-86666313D01*
X93939791Y-86627662D01*
X93924137Y-86568513D01*
X93946240Y-86511459D01*
X93997657Y-86478294D01*
X94022985Y-86474999D01*
X94381483Y-86474999D01*
X94381485Y-86474998D01*
X94475141Y-86460166D01*
X94475151Y-86460163D01*
X94588043Y-86402641D01*
X94677641Y-86313043D01*
X94735163Y-86200151D01*
X94735164Y-86200147D01*
X94750000Y-86106484D01*
X94750000Y-85325001D01*
X94749999Y-85325000D01*
X93990843Y-85325000D01*
X94000000Y-85290826D01*
X94000000Y-85159174D01*
X93990843Y-85125000D01*
X94749998Y-85125000D01*
X94749999Y-85124999D01*
X94749999Y-84343516D01*
X94749998Y-84343514D01*
X94735166Y-84249858D01*
X94735163Y-84249848D01*
X94677641Y-84136956D01*
X94588043Y-84047358D01*
X94475151Y-83989836D01*
X94475147Y-83989835D01*
X94381484Y-83975000D01*
X93600001Y-83975000D01*
X93600000Y-83975001D01*
X93600000Y-84734157D01*
X93565826Y-84725000D01*
X93434174Y-84725000D01*
X93400000Y-84734157D01*
X93400000Y-83975001D01*
X93399999Y-83975000D01*
X92618516Y-83975000D01*
X92618514Y-83975001D01*
X92524858Y-83989833D01*
X92524848Y-83989836D01*
X92411956Y-84047358D01*
X92322358Y-84136956D01*
X92264836Y-84249848D01*
X92264835Y-84249852D01*
X92250000Y-84343515D01*
X92250000Y-85124999D01*
X90100500Y-85124999D01*
X90100500Y-75646447D01*
X92100000Y-75646447D01*
X92133301Y-75856706D01*
X92199089Y-76059180D01*
X92295736Y-76248861D01*
X92420870Y-76421092D01*
X92571411Y-76571633D01*
X92607575Y-76597908D01*
X92643539Y-76647408D01*
X92643538Y-76708593D01*
X92607574Y-76758093D01*
X92549384Y-76777000D01*
X92466740Y-76777000D01*
X92432673Y-76781963D01*
X92398604Y-76786927D01*
X92293518Y-76838301D01*
X92210801Y-76921018D01*
X92159427Y-77026104D01*
X92157379Y-77040160D01*
X92149500Y-77094240D01*
X92149500Y-79065760D01*
X92156118Y-79111182D01*
X92159427Y-79133895D01*
X92210801Y-79238981D01*
X92210802Y-79238983D01*
X92293517Y-79321698D01*
X92347285Y-79347983D01*
X92398604Y-79373072D01*
X92398605Y-79373072D01*
X92398607Y-79373073D01*
X92466740Y-79383000D01*
X92466743Y-79383000D01*
X94533257Y-79383000D01*
X94533260Y-79383000D01*
X94601393Y-79373073D01*
X94706483Y-79321698D01*
X94789198Y-79238983D01*
X94840573Y-79133893D01*
X94850500Y-79065760D01*
X94850500Y-77094240D01*
X94840573Y-77026107D01*
X94789198Y-76921017D01*
X94706483Y-76838302D01*
X94682677Y-76826664D01*
X94601395Y-76786927D01*
X94574139Y-76782956D01*
X94533260Y-76777000D01*
X94450616Y-76777000D01*
X94392425Y-76758093D01*
X94356461Y-76708593D01*
X94356461Y-76647407D01*
X94392425Y-76597908D01*
X94428588Y-76571633D01*
X94546221Y-76454000D01*
X105185318Y-76454000D01*
X105205955Y-76610758D01*
X105205957Y-76610766D01*
X105266462Y-76756838D01*
X105266463Y-76756840D01*
X105266464Y-76756841D01*
X105320042Y-76826665D01*
X105340466Y-76884340D01*
X105340500Y-76886932D01*
X105340500Y-78418308D01*
X105364142Y-78506545D01*
X105371201Y-78532887D01*
X105371202Y-78532890D01*
X105430507Y-78635609D01*
X105430508Y-78635610D01*
X105430509Y-78635611D01*
X105430511Y-78635614D01*
X110340386Y-83545490D01*
X110443113Y-83604799D01*
X110467320Y-83611284D01*
X110467325Y-83611287D01*
X110467326Y-83611286D01*
X110557688Y-83635499D01*
X110557690Y-83635500D01*
X110557691Y-83635500D01*
X113994068Y-83635500D01*
X114052259Y-83654407D01*
X114054315Y-83655943D01*
X114124159Y-83709536D01*
X114270238Y-83770044D01*
X114357496Y-83781531D01*
X114412720Y-83807872D01*
X114414576Y-83809680D01*
X114721885Y-84116988D01*
X114721890Y-84116992D01*
X114782803Y-84152160D01*
X114824613Y-84176299D01*
X114832398Y-84178385D01*
X114832405Y-84178389D01*
X114832406Y-84178387D01*
X114939191Y-84207000D01*
X129502889Y-84207000D01*
X129561080Y-84225907D01*
X129572893Y-84235996D01*
X129804318Y-84467421D01*
X129832095Y-84521938D01*
X129832467Y-84524502D01*
X129843956Y-84611762D01*
X129904462Y-84757838D01*
X129904462Y-84757839D01*
X130000713Y-84883276D01*
X130000718Y-84883282D01*
X130000730Y-84883291D01*
X130000744Y-84883307D01*
X130005307Y-84887870D01*
X130005008Y-84888168D01*
X130026203Y-84912336D01*
X130068507Y-84985609D01*
X130068508Y-84985610D01*
X130068509Y-84985611D01*
X130068511Y-84985614D01*
X130773822Y-85690925D01*
X131458393Y-86375496D01*
X131486170Y-86430013D01*
X131476599Y-86490445D01*
X131433334Y-86533710D01*
X131388389Y-86544500D01*
X129972932Y-86544500D01*
X129914741Y-86525593D01*
X129912684Y-86524056D01*
X129842841Y-86470464D01*
X129842840Y-86470463D01*
X129842838Y-86470462D01*
X129696762Y-86409956D01*
X129609502Y-86398467D01*
X129554277Y-86372125D01*
X129552422Y-86370318D01*
X129181614Y-85999511D01*
X129181609Y-85999507D01*
X129078890Y-85940202D01*
X129078886Y-85940200D01*
X129054673Y-85933712D01*
X129054673Y-85933713D01*
X128964309Y-85909500D01*
X123003691Y-85909500D01*
X122889114Y-85940201D01*
X122889113Y-85940201D01*
X122882940Y-85943766D01*
X122882938Y-85943766D01*
X122786388Y-85999509D01*
X118257507Y-90528390D01*
X118198200Y-90631112D01*
X118198200Y-90631113D01*
X118198201Y-90631114D01*
X118172253Y-90727955D01*
X118167500Y-90745692D01*
X118167500Y-96468067D01*
X118148593Y-96526258D01*
X118147042Y-96528334D01*
X118093462Y-96598160D01*
X118093462Y-96598161D01*
X118032957Y-96744233D01*
X118032955Y-96744241D01*
X118012318Y-96900999D01*
X118012318Y-96901000D01*
X118032955Y-97057758D01*
X118032957Y-97057766D01*
X118093462Y-97203838D01*
X118093462Y-97203839D01*
X118185281Y-97323500D01*
X118189718Y-97329282D01*
X118315159Y-97425536D01*
X118315160Y-97425536D01*
X118315161Y-97425537D01*
X118435232Y-97475272D01*
X118461238Y-97486044D01*
X118578809Y-97501522D01*
X118617999Y-97506682D01*
X118618000Y-97506682D01*
X118618001Y-97506682D01*
X118655561Y-97501737D01*
X118774762Y-97486044D01*
X118920841Y-97425536D01*
X119046282Y-97329282D01*
X119142536Y-97203841D01*
X119203044Y-97057762D01*
X119223682Y-96901000D01*
X119203044Y-96744238D01*
X119190310Y-96713496D01*
X119142537Y-96598161D01*
X119142537Y-96598160D01*
X119088958Y-96528334D01*
X119068534Y-96470658D01*
X119068500Y-96468067D01*
X119068500Y-91032611D01*
X119087407Y-90974420D01*
X119097496Y-90962607D01*
X123220607Y-86839496D01*
X123275124Y-86811719D01*
X123290611Y-86810500D01*
X128677390Y-86810500D01*
X128735581Y-86829407D01*
X128747394Y-86839497D01*
X128915318Y-87007422D01*
X128943095Y-87061938D01*
X128943467Y-87064502D01*
X128954956Y-87151762D01*
X129015462Y-87297838D01*
X129015462Y-87297839D01*
X129111713Y-87423276D01*
X129111718Y-87423282D01*
X129237159Y-87519536D01*
X129237160Y-87519536D01*
X129237161Y-87519537D01*
X129246755Y-87523511D01*
X129383238Y-87580044D01*
X129484664Y-87593396D01*
X129499476Y-87595347D01*
X129538929Y-87614165D01*
X129546206Y-87606497D01*
X129580522Y-87595347D01*
X129696762Y-87580044D01*
X129842841Y-87519536D01*
X129912665Y-87465957D01*
X129970341Y-87445534D01*
X129972932Y-87445500D01*
X131217389Y-87445500D01*
X131275580Y-87464407D01*
X131287393Y-87474496D01*
X132070626Y-88257729D01*
X132098403Y-88312246D01*
X132088832Y-88372678D01*
X132045567Y-88415943D01*
X131987701Y-88425886D01*
X131953002Y-88421318D01*
X131952999Y-88421318D01*
X131796241Y-88441955D01*
X131796233Y-88441957D01*
X131650161Y-88502462D01*
X131650160Y-88502462D01*
X131524723Y-88598713D01*
X131524713Y-88598723D01*
X131428462Y-88724160D01*
X131428462Y-88724161D01*
X131367956Y-88870237D01*
X131356467Y-88957497D01*
X131330125Y-89012722D01*
X131328318Y-89014577D01*
X131211511Y-89131385D01*
X131211507Y-89131390D01*
X131152200Y-89234112D01*
X131152200Y-89234113D01*
X131152201Y-89234114D01*
X131121500Y-89348691D01*
X131121500Y-95818008D01*
X131145713Y-95908372D01*
X131145712Y-95908372D01*
X131152200Y-95932585D01*
X131152202Y-95932589D01*
X131175788Y-95973441D01*
X131188510Y-96033289D01*
X131163624Y-96089185D01*
X131110636Y-96119778D01*
X131049785Y-96113382D01*
X131020048Y-96092945D01*
X130781496Y-95854393D01*
X130753719Y-95799876D01*
X130752500Y-95784389D01*
X130752500Y-89332932D01*
X130771407Y-89274741D01*
X130772936Y-89272693D01*
X130826536Y-89202841D01*
X130887044Y-89056762D01*
X130907682Y-88900000D01*
X130887044Y-88743238D01*
X130859096Y-88675766D01*
X130826537Y-88597161D01*
X130826537Y-88597160D01*
X130730286Y-88471723D01*
X130730285Y-88471722D01*
X130730282Y-88471718D01*
X130730277Y-88471714D01*
X130730276Y-88471713D01*
X130626390Y-88391999D01*
X130604841Y-88375464D01*
X130604840Y-88375463D01*
X130604838Y-88375462D01*
X130458766Y-88314957D01*
X130458758Y-88314955D01*
X130302001Y-88294318D01*
X130301999Y-88294318D01*
X130232442Y-88303475D01*
X130172281Y-88292325D01*
X130130164Y-88247942D01*
X130127667Y-88241173D01*
X130127527Y-88241232D01*
X130064537Y-88089161D01*
X130064537Y-88089160D01*
X129968286Y-87963723D01*
X129968285Y-87963722D01*
X129968282Y-87963718D01*
X129968277Y-87963714D01*
X129968276Y-87963713D01*
X129842838Y-87867462D01*
X129696766Y-87806957D01*
X129696758Y-87806955D01*
X129596231Y-87793720D01*
X129580522Y-87791652D01*
X129541069Y-87772834D01*
X129533793Y-87780503D01*
X129499476Y-87791653D01*
X129383241Y-87806955D01*
X129383233Y-87806957D01*
X129237161Y-87867462D01*
X129237160Y-87867462D01*
X129111723Y-87963713D01*
X129111713Y-87963723D01*
X129015462Y-88089160D01*
X129015462Y-88089161D01*
X128954957Y-88235233D01*
X128954955Y-88235241D01*
X128934318Y-88391999D01*
X128934318Y-88392000D01*
X128954955Y-88548758D01*
X128954957Y-88548766D01*
X129015462Y-88694838D01*
X129015463Y-88694840D01*
X129015464Y-88694841D01*
X129069042Y-88764665D01*
X129089466Y-88822340D01*
X129089500Y-88824932D01*
X129089500Y-90618720D01*
X129070593Y-90676911D01*
X129021093Y-90712875D01*
X128977578Y-90716873D01*
X128905001Y-90707318D01*
X128904999Y-90707318D01*
X128748241Y-90727955D01*
X128748232Y-90727957D01*
X128603385Y-90787955D01*
X128542388Y-90792756D01*
X128490219Y-90760786D01*
X128466805Y-90704258D01*
X128466500Y-90696491D01*
X128466500Y-88062932D01*
X128485407Y-88004741D01*
X128486936Y-88002693D01*
X128540536Y-87932841D01*
X128601044Y-87786762D01*
X128621682Y-87630000D01*
X128601044Y-87473238D01*
X128593141Y-87454159D01*
X128540537Y-87327161D01*
X128540537Y-87327160D01*
X128444286Y-87201723D01*
X128444285Y-87201722D01*
X128444282Y-87201718D01*
X128444277Y-87201714D01*
X128444276Y-87201713D01*
X128318838Y-87105462D01*
X128172766Y-87044957D01*
X128172758Y-87044955D01*
X128016001Y-87024318D01*
X128015999Y-87024318D01*
X127859241Y-87044955D01*
X127859233Y-87044957D01*
X127713161Y-87105462D01*
X127713160Y-87105462D01*
X127587723Y-87201713D01*
X127587713Y-87201723D01*
X127491462Y-87327160D01*
X127491462Y-87327161D01*
X127430957Y-87473233D01*
X127430955Y-87473241D01*
X127410318Y-87629999D01*
X127410318Y-87630000D01*
X127430955Y-87786758D01*
X127430957Y-87786766D01*
X127491462Y-87932838D01*
X127491463Y-87932840D01*
X127491464Y-87932841D01*
X127545042Y-88002665D01*
X127565466Y-88060340D01*
X127565500Y-88062932D01*
X127565500Y-97849309D01*
X127578447Y-97897627D01*
X127596201Y-97963887D01*
X127596202Y-97963889D01*
X127596203Y-97963892D01*
X127655507Y-98066609D01*
X127655511Y-98066614D01*
X127809352Y-98220456D01*
X127837129Y-98274972D01*
X127827558Y-98335404D01*
X127784293Y-98378669D01*
X127777234Y-98381923D01*
X127713160Y-98408463D01*
X127713159Y-98408464D01*
X127643334Y-98462042D01*
X127585659Y-98482466D01*
X127583068Y-98482500D01*
X126940691Y-98482500D01*
X126862744Y-98503386D01*
X126862743Y-98503385D01*
X126826111Y-98513201D01*
X126826109Y-98513202D01*
X126723390Y-98572507D01*
X126723385Y-98572511D01*
X126368575Y-98927320D01*
X126314059Y-98955097D01*
X126253627Y-98945526D01*
X126210362Y-98902261D01*
X126200419Y-98870238D01*
X126199517Y-98863389D01*
X126188044Y-98776238D01*
X126188042Y-98776233D01*
X126127537Y-98630161D01*
X126127537Y-98630160D01*
X126031286Y-98504723D01*
X126031285Y-98504722D01*
X126031282Y-98504718D01*
X126031277Y-98504714D01*
X126031276Y-98504713D01*
X125905838Y-98408462D01*
X125759766Y-98347957D01*
X125759758Y-98347955D01*
X125603001Y-98327318D01*
X125602999Y-98327318D01*
X125446241Y-98347955D01*
X125446233Y-98347957D01*
X125300161Y-98408462D01*
X125300160Y-98408462D01*
X125174723Y-98504713D01*
X125174713Y-98504723D01*
X125078464Y-98630159D01*
X125041258Y-98719980D01*
X125019798Y-98752097D01*
X123809504Y-99962392D01*
X123754987Y-99990169D01*
X123694555Y-99980598D01*
X123651290Y-99937333D01*
X123640500Y-99892388D01*
X123640500Y-98144611D01*
X123659407Y-98086420D01*
X123669496Y-98074607D01*
X124372843Y-97371260D01*
X125107424Y-96636678D01*
X125161939Y-96608903D01*
X125164474Y-96608535D01*
X125251762Y-96597044D01*
X125397841Y-96536536D01*
X125523282Y-96440282D01*
X125619536Y-96314841D01*
X125680044Y-96168762D01*
X125700682Y-96012000D01*
X125697883Y-95990743D01*
X125689634Y-95928082D01*
X125680044Y-95855238D01*
X125668927Y-95828399D01*
X125619537Y-95709161D01*
X125619537Y-95709160D01*
X125523286Y-95583723D01*
X125523285Y-95583722D01*
X125523282Y-95583718D01*
X125523277Y-95583714D01*
X125523276Y-95583713D01*
X125397838Y-95487462D01*
X125251766Y-95426957D01*
X125251758Y-95426955D01*
X125095001Y-95406318D01*
X125094999Y-95406318D01*
X124938241Y-95426955D01*
X124938233Y-95426957D01*
X124792161Y-95487462D01*
X124792160Y-95487462D01*
X124666723Y-95583713D01*
X124666713Y-95583723D01*
X124570462Y-95709160D01*
X124570462Y-95709161D01*
X124509956Y-95855236D01*
X124498467Y-95942496D01*
X124472125Y-95997720D01*
X124470318Y-95999575D01*
X123808808Y-96661087D01*
X123754291Y-96688865D01*
X123693859Y-96679294D01*
X123650594Y-96636029D01*
X123641963Y-96585798D01*
X123640500Y-96585798D01*
X123640500Y-88440352D01*
X123659407Y-88382161D01*
X123708907Y-88346197D01*
X123726582Y-88342199D01*
X123727762Y-88342044D01*
X123873841Y-88281536D01*
X123999282Y-88185282D01*
X124095536Y-88059841D01*
X124156044Y-87913762D01*
X124176682Y-87757000D01*
X124175046Y-87744577D01*
X124167532Y-87687497D01*
X124156044Y-87600238D01*
X124135997Y-87551841D01*
X124095537Y-87454161D01*
X124095537Y-87454160D01*
X123999286Y-87328723D01*
X123999285Y-87328722D01*
X123999282Y-87328718D01*
X123999277Y-87328714D01*
X123999276Y-87328713D01*
X123910772Y-87260802D01*
X123873841Y-87232464D01*
X123873840Y-87232463D01*
X123873838Y-87232462D01*
X123727766Y-87171957D01*
X123727758Y-87171955D01*
X123571001Y-87151318D01*
X123570999Y-87151318D01*
X123414241Y-87171955D01*
X123414233Y-87171957D01*
X123268161Y-87232462D01*
X123268160Y-87232462D01*
X123142723Y-87328713D01*
X123142713Y-87328723D01*
X123046462Y-87454160D01*
X123046462Y-87454161D01*
X122985956Y-87600237D01*
X122974467Y-87687497D01*
X122948125Y-87742722D01*
X122946318Y-87744577D01*
X122829511Y-87861385D01*
X122829507Y-87861390D01*
X122770200Y-87964112D01*
X122770200Y-87964113D01*
X122770201Y-87964114D01*
X122744552Y-88059839D01*
X122739500Y-88078692D01*
X122739500Y-96292388D01*
X122720593Y-96350579D01*
X122710504Y-96362391D01*
X121940511Y-97132385D01*
X121940507Y-97132390D01*
X121881200Y-97235112D01*
X121881200Y-97235113D01*
X121881201Y-97235114D01*
X121858658Y-97319247D01*
X121850500Y-97349692D01*
X121850500Y-104852494D01*
X121831593Y-104910685D01*
X121811768Y-104931036D01*
X121745720Y-104981716D01*
X121745713Y-104981723D01*
X121649462Y-105107160D01*
X121649462Y-105107161D01*
X121588957Y-105253233D01*
X121588955Y-105253241D01*
X121568318Y-105409999D01*
X121568318Y-105410000D01*
X121588955Y-105566758D01*
X121588957Y-105566766D01*
X121649462Y-105712838D01*
X121649462Y-105712839D01*
X121745713Y-105838276D01*
X121745718Y-105838282D01*
X121871159Y-105934536D01*
X121871160Y-105934536D01*
X121871161Y-105934537D01*
X122015541Y-105994341D01*
X122017238Y-105995044D01*
X122134809Y-106010522D01*
X122173999Y-106015682D01*
X122174000Y-106015682D01*
X122174001Y-106015682D01*
X122205352Y-106011554D01*
X122330762Y-105995044D01*
X122476841Y-105934536D01*
X122580235Y-105855198D01*
X122637908Y-105834776D01*
X122696574Y-105852153D01*
X122733821Y-105900695D01*
X122739500Y-105933742D01*
X122739500Y-112802389D01*
X122720593Y-112860580D01*
X122710504Y-112872393D01*
X120492393Y-115090504D01*
X120437876Y-115118281D01*
X120422389Y-115119500D01*
X119200691Y-115119500D01*
X119143402Y-115134850D01*
X119086112Y-115150201D01*
X119042696Y-115175266D01*
X119042697Y-115175267D01*
X118983387Y-115209509D01*
X118983385Y-115209511D01*
X118344355Y-115848539D01*
X118289839Y-115876316D01*
X118238590Y-115870850D01*
X118159940Y-115840381D01*
X117941243Y-115799500D01*
X117718757Y-115799500D01*
X117500062Y-115840381D01*
X117447350Y-115860802D01*
X117292599Y-115920753D01*
X117226054Y-115961956D01*
X117103438Y-116037876D01*
X117001869Y-116130469D01*
X116939019Y-116187764D01*
X116901262Y-116237763D01*
X116804943Y-116365309D01*
X116804938Y-116365318D01*
X116727620Y-116520593D01*
X116684757Y-116564256D01*
X116624416Y-116574385D01*
X116569645Y-116547112D01*
X116541365Y-116492854D01*
X116539999Y-116476465D01*
X116539999Y-116118516D01*
X116539998Y-116118514D01*
X116525166Y-116024858D01*
X116525163Y-116024848D01*
X116467641Y-115911956D01*
X116378043Y-115822358D01*
X116265151Y-115764836D01*
X116265147Y-115764835D01*
X116171484Y-115750000D01*
X115390001Y-115750000D01*
X115390000Y-115750001D01*
X115390000Y-116509157D01*
X115355826Y-116500000D01*
X115224174Y-116500000D01*
X115190000Y-116509157D01*
X115190000Y-115750001D01*
X115189999Y-115750000D01*
X114408516Y-115750000D01*
X114408514Y-115750001D01*
X114314858Y-115764833D01*
X114314848Y-115764836D01*
X114201956Y-115822358D01*
X114112358Y-115911956D01*
X114054836Y-116024848D01*
X114054835Y-116024852D01*
X114040000Y-116118515D01*
X114040000Y-116899999D01*
X114040001Y-116900000D01*
X114799157Y-116900000D01*
X114790000Y-116934174D01*
X114790000Y-117065826D01*
X114799157Y-117100000D01*
X114040002Y-117100000D01*
X114040001Y-117100001D01*
X114040001Y-117881485D01*
X114054833Y-117975141D01*
X114054836Y-117975151D01*
X114112358Y-118088043D01*
X114201956Y-118177641D01*
X114314848Y-118235163D01*
X114314852Y-118235164D01*
X114408515Y-118249999D01*
X115189998Y-118249999D01*
X115190000Y-118249998D01*
X115190000Y-117490842D01*
X115224174Y-117500000D01*
X115355826Y-117500000D01*
X115390000Y-117490842D01*
X115390000Y-118249998D01*
X115390001Y-118249999D01*
X116171483Y-118249999D01*
X116171485Y-118249998D01*
X116265141Y-118235166D01*
X116265151Y-118235163D01*
X116378043Y-118177641D01*
X116467641Y-118088043D01*
X116525163Y-117975151D01*
X116525164Y-117975147D01*
X116539999Y-117881484D01*
X116539999Y-117523535D01*
X116558906Y-117465344D01*
X116608406Y-117429380D01*
X116669591Y-117429380D01*
X116719092Y-117465344D01*
X116727620Y-117479407D01*
X116774491Y-117573535D01*
X116804942Y-117634689D01*
X116939019Y-117812236D01*
X117103438Y-117962124D01*
X117292599Y-118079247D01*
X117500060Y-118159618D01*
X117718757Y-118200500D01*
X117941243Y-118200500D01*
X118159940Y-118159618D01*
X118367401Y-118079247D01*
X118556562Y-117962124D01*
X118720981Y-117812236D01*
X118855058Y-117634689D01*
X118954229Y-117435528D01*
X119004780Y-117257859D01*
X119038889Y-117207065D01*
X119096342Y-117186021D01*
X119155191Y-117202765D01*
X119192960Y-117250902D01*
X119195215Y-117257845D01*
X119245771Y-117435528D01*
X119344942Y-117634689D01*
X119479019Y-117812236D01*
X119643438Y-117962124D01*
X119832599Y-118079247D01*
X120040060Y-118159618D01*
X120258757Y-118200500D01*
X120481243Y-118200500D01*
X120699940Y-118159618D01*
X120907401Y-118079247D01*
X121096562Y-117962124D01*
X121260981Y-117812236D01*
X121395058Y-117634689D01*
X121494229Y-117435528D01*
X121544780Y-117257859D01*
X121578889Y-117207065D01*
X121636342Y-117186021D01*
X121695191Y-117202765D01*
X121732960Y-117250902D01*
X121735215Y-117257845D01*
X121785771Y-117435528D01*
X121884942Y-117634689D01*
X122019019Y-117812236D01*
X122183438Y-117962124D01*
X122372599Y-118079247D01*
X122580060Y-118159618D01*
X122798757Y-118200500D01*
X123021243Y-118200500D01*
X123239940Y-118159618D01*
X123447401Y-118079247D01*
X123636562Y-117962124D01*
X123800981Y-117812236D01*
X123935058Y-117634689D01*
X124034229Y-117435528D01*
X124095115Y-117221536D01*
X124115643Y-117000000D01*
X124106377Y-116899999D01*
X127070000Y-116899999D01*
X127070001Y-116900000D01*
X127829157Y-116900000D01*
X127820000Y-116934174D01*
X127820000Y-117065826D01*
X127829157Y-117100000D01*
X127070002Y-117100000D01*
X127070001Y-117100001D01*
X127070001Y-117881485D01*
X127084833Y-117975141D01*
X127084836Y-117975151D01*
X127142358Y-118088043D01*
X127231956Y-118177641D01*
X127344848Y-118235163D01*
X127344852Y-118235164D01*
X127438515Y-118249999D01*
X128219998Y-118249999D01*
X128220000Y-118249998D01*
X128220000Y-117490842D01*
X128254174Y-117500000D01*
X128385826Y-117500000D01*
X128420000Y-117490842D01*
X128420000Y-118249998D01*
X128420001Y-118249999D01*
X129201483Y-118249999D01*
X129201485Y-118249998D01*
X129295141Y-118235166D01*
X129295151Y-118235163D01*
X129408043Y-118177641D01*
X129497641Y-118088043D01*
X129555163Y-117975151D01*
X129555164Y-117975147D01*
X129569999Y-117881484D01*
X129569999Y-117523535D01*
X129588906Y-117465344D01*
X129638406Y-117429380D01*
X129699591Y-117429380D01*
X129749092Y-117465344D01*
X129757620Y-117479407D01*
X129804491Y-117573535D01*
X129834942Y-117634689D01*
X129969019Y-117812236D01*
X130133438Y-117962124D01*
X130322599Y-118079247D01*
X130530060Y-118159618D01*
X130748757Y-118200500D01*
X130971243Y-118200500D01*
X131189940Y-118159618D01*
X131397401Y-118079247D01*
X131586562Y-117962124D01*
X131750981Y-117812236D01*
X131885058Y-117634689D01*
X131984229Y-117435528D01*
X132034780Y-117257859D01*
X132068889Y-117207065D01*
X132126342Y-117186021D01*
X132185191Y-117202765D01*
X132222960Y-117250902D01*
X132225215Y-117257845D01*
X132275771Y-117435528D01*
X132374942Y-117634689D01*
X132509019Y-117812236D01*
X132673438Y-117962124D01*
X132862599Y-118079247D01*
X133070060Y-118159618D01*
X133288757Y-118200500D01*
X133511243Y-118200500D01*
X133729940Y-118159618D01*
X133937401Y-118079247D01*
X134126562Y-117962124D01*
X134290981Y-117812236D01*
X134425058Y-117634689D01*
X134524229Y-117435528D01*
X134574780Y-117257859D01*
X134608889Y-117207065D01*
X134666342Y-117186021D01*
X134725191Y-117202765D01*
X134762960Y-117250902D01*
X134765215Y-117257845D01*
X134815771Y-117435528D01*
X134914942Y-117634689D01*
X135049019Y-117812236D01*
X135213438Y-117962124D01*
X135402599Y-118079247D01*
X135610060Y-118159618D01*
X135828757Y-118200500D01*
X136051243Y-118200500D01*
X136269940Y-118159618D01*
X136477401Y-118079247D01*
X136666562Y-117962124D01*
X136753072Y-117883260D01*
X140379500Y-117883260D01*
X140384337Y-117916455D01*
X140389427Y-117951395D01*
X140419116Y-118012124D01*
X140440802Y-118056483D01*
X140523517Y-118139198D01*
X140565287Y-118159618D01*
X140628604Y-118190572D01*
X140628605Y-118190572D01*
X140628607Y-118190573D01*
X140696740Y-118200500D01*
X140696743Y-118200500D01*
X142463257Y-118200500D01*
X142463260Y-118200500D01*
X142531393Y-118190573D01*
X142636483Y-118139198D01*
X142719198Y-118056483D01*
X142770573Y-117951393D01*
X142780500Y-117883260D01*
X142780500Y-117388635D01*
X142799407Y-117330444D01*
X142848907Y-117294480D01*
X142910093Y-117294480D01*
X142959593Y-117330444D01*
X142974719Y-117361540D01*
X142995771Y-117435528D01*
X143094942Y-117634689D01*
X143229019Y-117812236D01*
X143393438Y-117962124D01*
X143582599Y-118079247D01*
X143790060Y-118159618D01*
X144008757Y-118200500D01*
X144231243Y-118200500D01*
X144449940Y-118159618D01*
X144657401Y-118079247D01*
X144846562Y-117962124D01*
X145010981Y-117812236D01*
X145145058Y-117634689D01*
X145244229Y-117435528D01*
X145305115Y-117221536D01*
X145325643Y-117000000D01*
X145305115Y-116778464D01*
X145244229Y-116564472D01*
X145145058Y-116365311D01*
X145010981Y-116187764D01*
X144846562Y-116037876D01*
X144657401Y-115920753D01*
X144449940Y-115840382D01*
X144449939Y-115840381D01*
X144449937Y-115840381D01*
X144231243Y-115799500D01*
X144008757Y-115799500D01*
X143790062Y-115840381D01*
X143737350Y-115860802D01*
X143582599Y-115920753D01*
X143516054Y-115961956D01*
X143393438Y-116037876D01*
X143291869Y-116130469D01*
X143229019Y-116187764D01*
X143191262Y-116237763D01*
X143094943Y-116365309D01*
X143094938Y-116365318D01*
X142995772Y-116564469D01*
X142995771Y-116564472D01*
X142974720Y-116638458D01*
X142940611Y-116689252D01*
X142883158Y-116710296D01*
X142824309Y-116693552D01*
X142786540Y-116645415D01*
X142780500Y-116611364D01*
X142780500Y-116116743D01*
X142780101Y-116114002D01*
X142770573Y-116048607D01*
X142767504Y-116042330D01*
X142732513Y-115970753D01*
X142719198Y-115943517D01*
X142636483Y-115860802D01*
X142616001Y-115850789D01*
X142531395Y-115809427D01*
X142495298Y-115804168D01*
X142463260Y-115799500D01*
X140696740Y-115799500D01*
X140664702Y-115804168D01*
X140628604Y-115809427D01*
X140523518Y-115860801D01*
X140440801Y-115943518D01*
X140389427Y-116048604D01*
X140389427Y-116048607D01*
X140379500Y-116116740D01*
X140379500Y-117883260D01*
X136753072Y-117883260D01*
X136830981Y-117812236D01*
X136965058Y-117634689D01*
X137064229Y-117435528D01*
X137125115Y-117221536D01*
X137145643Y-117000000D01*
X137125115Y-116778464D01*
X137064229Y-116564472D01*
X136965058Y-116365311D01*
X136830981Y-116187764D01*
X136666562Y-116037876D01*
X136477401Y-115920753D01*
X136269940Y-115840382D01*
X136269939Y-115840381D01*
X136269937Y-115840381D01*
X136051243Y-115799500D01*
X135828757Y-115799500D01*
X135610062Y-115840381D01*
X135557350Y-115860802D01*
X135402599Y-115920753D01*
X135336054Y-115961956D01*
X135213438Y-116037876D01*
X135111869Y-116130469D01*
X135049019Y-116187764D01*
X135011262Y-116237763D01*
X134914943Y-116365309D01*
X134914938Y-116365318D01*
X134815772Y-116564469D01*
X134815771Y-116564472D01*
X134765219Y-116742140D01*
X134731111Y-116792934D01*
X134673658Y-116813978D01*
X134614809Y-116797234D01*
X134577040Y-116749097D01*
X134574784Y-116742154D01*
X134524229Y-116564472D01*
X134425058Y-116365311D01*
X134290981Y-116187764D01*
X134126562Y-116037876D01*
X133937401Y-115920753D01*
X133729940Y-115840382D01*
X133729939Y-115840381D01*
X133729937Y-115840381D01*
X133511243Y-115799500D01*
X133288757Y-115799500D01*
X133070062Y-115840381D01*
X133017350Y-115860802D01*
X132862599Y-115920753D01*
X132796054Y-115961956D01*
X132673438Y-116037876D01*
X132571869Y-116130469D01*
X132509019Y-116187764D01*
X132471262Y-116237763D01*
X132374943Y-116365309D01*
X132374938Y-116365318D01*
X132275772Y-116564469D01*
X132275771Y-116564472D01*
X132225219Y-116742140D01*
X132191111Y-116792934D01*
X132133658Y-116813978D01*
X132074809Y-116797234D01*
X132037040Y-116749097D01*
X132034784Y-116742154D01*
X131984229Y-116564472D01*
X131885058Y-116365311D01*
X131750981Y-116187764D01*
X131586562Y-116037876D01*
X131397401Y-115920753D01*
X131189940Y-115840382D01*
X131189939Y-115840381D01*
X131189937Y-115840381D01*
X130971243Y-115799500D01*
X130748757Y-115799500D01*
X130530062Y-115840381D01*
X130477350Y-115860802D01*
X130322599Y-115920753D01*
X130256054Y-115961956D01*
X130133438Y-116037876D01*
X130031869Y-116130469D01*
X129969019Y-116187764D01*
X129931262Y-116237763D01*
X129834943Y-116365309D01*
X129834938Y-116365318D01*
X129757620Y-116520593D01*
X129714757Y-116564256D01*
X129654416Y-116574385D01*
X129599645Y-116547112D01*
X129571365Y-116492854D01*
X129569999Y-116476465D01*
X129569999Y-116118516D01*
X129569998Y-116118514D01*
X129555166Y-116024858D01*
X129555163Y-116024848D01*
X129497641Y-115911956D01*
X129408043Y-115822358D01*
X129295151Y-115764836D01*
X129295147Y-115764835D01*
X129201484Y-115750000D01*
X128420001Y-115750000D01*
X128420000Y-115750001D01*
X128420000Y-116509157D01*
X128385826Y-116500000D01*
X128254174Y-116500000D01*
X128220000Y-116509157D01*
X128220000Y-115750001D01*
X128219999Y-115750000D01*
X127438516Y-115750000D01*
X127438514Y-115750001D01*
X127344858Y-115764833D01*
X127344848Y-115764836D01*
X127231956Y-115822358D01*
X127142358Y-115911956D01*
X127084836Y-116024848D01*
X127084835Y-116024852D01*
X127070000Y-116118515D01*
X127070000Y-116899999D01*
X124106377Y-116899999D01*
X124095115Y-116778464D01*
X124034229Y-116564472D01*
X123935058Y-116365311D01*
X123800981Y-116187764D01*
X123636562Y-116037876D01*
X123493107Y-115949053D01*
X123453588Y-115902346D01*
X123449069Y-115841328D01*
X123475220Y-115794881D01*
X125074489Y-114195614D01*
X125133799Y-114092887D01*
X125136741Y-114081903D01*
X125140287Y-114068672D01*
X125140287Y-114068669D01*
X125164500Y-113978309D01*
X125164500Y-101446611D01*
X125183407Y-101388420D01*
X125193496Y-101376607D01*
X127157607Y-99412496D01*
X127212124Y-99384719D01*
X127227611Y-99383500D01*
X127583068Y-99383500D01*
X127641259Y-99402407D01*
X127643315Y-99403943D01*
X127713159Y-99457536D01*
X127713160Y-99457536D01*
X127713161Y-99457537D01*
X127859233Y-99518042D01*
X127859238Y-99518044D01*
X127976809Y-99533522D01*
X128015999Y-99538682D01*
X128016000Y-99538682D01*
X128016001Y-99538682D01*
X128047352Y-99534554D01*
X128172762Y-99518044D01*
X128318841Y-99457536D01*
X128444282Y-99361282D01*
X128540536Y-99235841D01*
X128567077Y-99171763D01*
X128606811Y-99125240D01*
X128666306Y-99110956D01*
X128722834Y-99134370D01*
X128728544Y-99139647D01*
X143868387Y-114279490D01*
X143971114Y-114338799D01*
X144085691Y-114369500D01*
X149378389Y-114369500D01*
X149436580Y-114388407D01*
X149448393Y-114398496D01*
X150739116Y-115689219D01*
X150766893Y-115743736D01*
X150757322Y-115804168D01*
X150714057Y-115847433D01*
X150653625Y-115857004D01*
X150625632Y-115848164D01*
X150546395Y-115809427D01*
X150510298Y-115804168D01*
X150478260Y-115799500D01*
X148711740Y-115799500D01*
X148679702Y-115804168D01*
X148643604Y-115809427D01*
X148538518Y-115860801D01*
X148455801Y-115943518D01*
X148404427Y-116048604D01*
X148404427Y-116048607D01*
X148394500Y-116116740D01*
X148394500Y-117883260D01*
X148399337Y-117916455D01*
X148404427Y-117951395D01*
X148434116Y-118012124D01*
X148455802Y-118056483D01*
X148538517Y-118139198D01*
X148580287Y-118159618D01*
X148643604Y-118190572D01*
X148643605Y-118190572D01*
X148643607Y-118190573D01*
X148711740Y-118200500D01*
X148711743Y-118200500D01*
X150478257Y-118200500D01*
X150478260Y-118200500D01*
X150546393Y-118190573D01*
X150651483Y-118139198D01*
X150734198Y-118056483D01*
X150785573Y-117951393D01*
X150795500Y-117883260D01*
X150795500Y-117388635D01*
X150814407Y-117330444D01*
X150863907Y-117294480D01*
X150925093Y-117294480D01*
X150974593Y-117330444D01*
X150989719Y-117361540D01*
X151010771Y-117435528D01*
X151109942Y-117634689D01*
X151244019Y-117812236D01*
X151408438Y-117962124D01*
X151597599Y-118079247D01*
X151805060Y-118159618D01*
X152023757Y-118200500D01*
X152246243Y-118200500D01*
X152464940Y-118159618D01*
X152672401Y-118079247D01*
X152861562Y-117962124D01*
X153025981Y-117812236D01*
X153160058Y-117634689D01*
X153259229Y-117435528D01*
X153320115Y-117221536D01*
X153340643Y-117000000D01*
X153320115Y-116778464D01*
X153259229Y-116564472D01*
X153160058Y-116365311D01*
X153025981Y-116187764D01*
X152861562Y-116037876D01*
X152672401Y-115920753D01*
X152464940Y-115840382D01*
X152464939Y-115840381D01*
X152464937Y-115840381D01*
X152246243Y-115799500D01*
X152164611Y-115799500D01*
X152106420Y-115780593D01*
X152094607Y-115770504D01*
X151182679Y-114858576D01*
X149882614Y-113558511D01*
X149882611Y-113558509D01*
X149882610Y-113558508D01*
X149882609Y-113558507D01*
X149779890Y-113499202D01*
X149779886Y-113499200D01*
X149755673Y-113492712D01*
X149755673Y-113492713D01*
X149665309Y-113468500D01*
X149665307Y-113468500D01*
X144372611Y-113468500D01*
X144314420Y-113449593D01*
X144302607Y-113439504D01*
X128495496Y-97632393D01*
X128467719Y-97577876D01*
X128466500Y-97562389D01*
X128466500Y-96830610D01*
X128485407Y-96772419D01*
X128534907Y-96736455D01*
X128596093Y-96736455D01*
X128635501Y-96760604D01*
X133708386Y-101833489D01*
X133708388Y-101833490D01*
X133708390Y-101833492D01*
X133811107Y-101892796D01*
X133811109Y-101892797D01*
X133811113Y-101892799D01*
X133835322Y-101899284D01*
X133835325Y-101899287D01*
X133835326Y-101899286D01*
X133925688Y-101923499D01*
X133925690Y-101923500D01*
X133925691Y-101923500D01*
X137051492Y-101923500D01*
X137109683Y-101942407D01*
X137145647Y-101991907D01*
X137145647Y-102053093D01*
X137142957Y-102060380D01*
X137103004Y-102156838D01*
X137082957Y-102205236D01*
X137082955Y-102205241D01*
X137062318Y-102361999D01*
X137062318Y-102362000D01*
X137082955Y-102518759D01*
X137082955Y-102518761D01*
X137082956Y-102518762D01*
X137086054Y-102526241D01*
X137090853Y-102587237D01*
X137058883Y-102639405D01*
X137054857Y-102642666D01*
X136985719Y-102695717D01*
X136985713Y-102695723D01*
X136889462Y-102821160D01*
X136889462Y-102821161D01*
X136828957Y-102967233D01*
X136828955Y-102967241D01*
X136808318Y-103123999D01*
X136808318Y-103124000D01*
X136828955Y-103280759D01*
X136828955Y-103280761D01*
X136828956Y-103280762D01*
X136832054Y-103288241D01*
X136836853Y-103349237D01*
X136804883Y-103401405D01*
X136800857Y-103404666D01*
X136731719Y-103457717D01*
X136731713Y-103457723D01*
X136635462Y-103583160D01*
X136635462Y-103583161D01*
X136574957Y-103729233D01*
X136574955Y-103729241D01*
X136554318Y-103885999D01*
X136554318Y-103886000D01*
X136574955Y-104042758D01*
X136574957Y-104042766D01*
X136635462Y-104188838D01*
X136635462Y-104188839D01*
X136717329Y-104295530D01*
X136731718Y-104314282D01*
X136857159Y-104410536D01*
X137003238Y-104471044D01*
X137120809Y-104486522D01*
X137159999Y-104491682D01*
X137160000Y-104491682D01*
X137160001Y-104491682D01*
X137191352Y-104487554D01*
X137316762Y-104471044D01*
X137462841Y-104410536D01*
X137532665Y-104356957D01*
X137590341Y-104336534D01*
X137592932Y-104336500D01*
X151537389Y-104336500D01*
X151595580Y-104355407D01*
X151607393Y-104365496D01*
X160683504Y-113441607D01*
X160711281Y-113496124D01*
X160712500Y-113511611D01*
X160712500Y-115309388D01*
X160693593Y-115367579D01*
X160683504Y-115379392D01*
X160164356Y-115898539D01*
X160109839Y-115926316D01*
X160058590Y-115920850D01*
X159979940Y-115890381D01*
X159761243Y-115849500D01*
X159538757Y-115849500D01*
X159320062Y-115890381D01*
X159289177Y-115902346D01*
X159112599Y-115970753D01*
X158923438Y-116087876D01*
X158759019Y-116237764D01*
X158733012Y-116272203D01*
X158624943Y-116415309D01*
X158624938Y-116415318D01*
X158547620Y-116570593D01*
X158504757Y-116614256D01*
X158444416Y-116624385D01*
X158389645Y-116597112D01*
X158361365Y-116542854D01*
X158359999Y-116526465D01*
X158359999Y-116168516D01*
X158359998Y-116168514D01*
X158345166Y-116074858D01*
X158345163Y-116074848D01*
X158287641Y-115961956D01*
X158198043Y-115872358D01*
X158085151Y-115814836D01*
X158085147Y-115814835D01*
X157991484Y-115800000D01*
X157210001Y-115800000D01*
X157210000Y-115800001D01*
X157210000Y-116559157D01*
X157175826Y-116550000D01*
X157044174Y-116550000D01*
X157010000Y-116559157D01*
X157010000Y-115800001D01*
X157009999Y-115800000D01*
X156228516Y-115800000D01*
X156228514Y-115800001D01*
X156134858Y-115814833D01*
X156134848Y-115814836D01*
X156021956Y-115872358D01*
X155932358Y-115961956D01*
X155874836Y-116074848D01*
X155874835Y-116074852D01*
X155860000Y-116168515D01*
X155860000Y-116949999D01*
X155860001Y-116950000D01*
X156619157Y-116950000D01*
X156610000Y-116984174D01*
X156610000Y-117115826D01*
X156619157Y-117150000D01*
X155860002Y-117150000D01*
X155860001Y-117150001D01*
X155860001Y-117931485D01*
X155874833Y-118025141D01*
X155874836Y-118025151D01*
X155932358Y-118138043D01*
X156021956Y-118227641D01*
X156134848Y-118285163D01*
X156134852Y-118285164D01*
X156228515Y-118299999D01*
X157009998Y-118299999D01*
X157010000Y-118299998D01*
X157010000Y-117540842D01*
X157044174Y-117550000D01*
X157175826Y-117550000D01*
X157210000Y-117540842D01*
X157210000Y-118299998D01*
X157210001Y-118299999D01*
X157991483Y-118299999D01*
X157991485Y-118299998D01*
X158085141Y-118285166D01*
X158085151Y-118285163D01*
X158198043Y-118227641D01*
X158287641Y-118138043D01*
X158345163Y-118025151D01*
X158345164Y-118025147D01*
X158359999Y-117931484D01*
X158359999Y-117573535D01*
X158378906Y-117515344D01*
X158428406Y-117479380D01*
X158489591Y-117479380D01*
X158539092Y-117515344D01*
X158547620Y-117529407D01*
X158600041Y-117634681D01*
X158624942Y-117684689D01*
X158759019Y-117862236D01*
X158923438Y-118012124D01*
X159112599Y-118129247D01*
X159320060Y-118209618D01*
X159538757Y-118250500D01*
X159761243Y-118250500D01*
X159979940Y-118209618D01*
X160187401Y-118129247D01*
X160376562Y-118012124D01*
X160540981Y-117862236D01*
X160675058Y-117684689D01*
X160774229Y-117485528D01*
X160824780Y-117307859D01*
X160858889Y-117257065D01*
X160916342Y-117236021D01*
X160975191Y-117252765D01*
X161012960Y-117300902D01*
X161015215Y-117307845D01*
X161065771Y-117485528D01*
X161164942Y-117684689D01*
X161299019Y-117862236D01*
X161463438Y-118012124D01*
X161652599Y-118129247D01*
X161860060Y-118209618D01*
X162078757Y-118250500D01*
X162301243Y-118250500D01*
X162519940Y-118209618D01*
X162727401Y-118129247D01*
X162916562Y-118012124D01*
X163080981Y-117862236D01*
X163215058Y-117684689D01*
X163314229Y-117485528D01*
X163364780Y-117307859D01*
X163398889Y-117257065D01*
X163456342Y-117236021D01*
X163515191Y-117252765D01*
X163552960Y-117300902D01*
X163555215Y-117307845D01*
X163605771Y-117485528D01*
X163704942Y-117684689D01*
X163839019Y-117862236D01*
X164003438Y-118012124D01*
X164192599Y-118129247D01*
X164400060Y-118209618D01*
X164618757Y-118250500D01*
X164841243Y-118250500D01*
X165059940Y-118209618D01*
X165267401Y-118129247D01*
X165456562Y-118012124D01*
X165620981Y-117862236D01*
X165755058Y-117684689D01*
X165854229Y-117485528D01*
X165915115Y-117271536D01*
X165935643Y-117050000D01*
X165915115Y-116828464D01*
X165854229Y-116614472D01*
X165755058Y-116415311D01*
X165620981Y-116237764D01*
X165456562Y-116087876D01*
X165267401Y-115970753D01*
X165059940Y-115890382D01*
X165059939Y-115890381D01*
X165059937Y-115890381D01*
X164841243Y-115849500D01*
X164618757Y-115849500D01*
X164400060Y-115890381D01*
X164321409Y-115920851D01*
X164260318Y-115924241D01*
X164215643Y-115898540D01*
X163547496Y-115230393D01*
X163519719Y-115175876D01*
X163518500Y-115160389D01*
X163518500Y-115000006D01*
X171395060Y-115000006D01*
X171414806Y-115376807D01*
X171414808Y-115376827D01*
X171473835Y-115749503D01*
X171571497Y-116113985D01*
X171571502Y-116114002D01*
X171706723Y-116466261D01*
X171878027Y-116802465D01*
X171878033Y-116802476D01*
X172083544Y-117118933D01*
X172321003Y-117412171D01*
X172383704Y-117474872D01*
X173797916Y-116060658D01*
X173939339Y-116202081D01*
X172525127Y-117616295D01*
X172587828Y-117678996D01*
X172881066Y-117916455D01*
X173197523Y-118121966D01*
X173197534Y-118121972D01*
X173533738Y-118293276D01*
X173885997Y-118428497D01*
X173886014Y-118428502D01*
X174250496Y-118526164D01*
X174623172Y-118585191D01*
X174623192Y-118585193D01*
X174999994Y-118604940D01*
X175000006Y-118604940D01*
X175376807Y-118585193D01*
X175376827Y-118585191D01*
X175749503Y-118526164D01*
X176113985Y-118428502D01*
X176114002Y-118428497D01*
X176466261Y-118293276D01*
X176802465Y-118121972D01*
X176802476Y-118121966D01*
X177118927Y-117916459D01*
X177412177Y-117678991D01*
X177474873Y-117616295D01*
X176060659Y-116202082D01*
X176202082Y-116060659D01*
X177616295Y-117474872D01*
X177678991Y-117412177D01*
X177916459Y-117118927D01*
X178121966Y-116802476D01*
X178121972Y-116802465D01*
X178293276Y-116466261D01*
X178428497Y-116114002D01*
X178428502Y-116113985D01*
X178526164Y-115749503D01*
X178585191Y-115376827D01*
X178585193Y-115376807D01*
X178604940Y-115000006D01*
X178604940Y-114999993D01*
X178585193Y-114623192D01*
X178585191Y-114623172D01*
X178526164Y-114250496D01*
X178428502Y-113886014D01*
X178428497Y-113885997D01*
X178293276Y-113533738D01*
X178121972Y-113197534D01*
X178121966Y-113197523D01*
X177916455Y-112881066D01*
X177678996Y-112587828D01*
X177616295Y-112525127D01*
X176202081Y-113939339D01*
X176060658Y-113797916D01*
X177474872Y-112383704D01*
X177412171Y-112321003D01*
X177118933Y-112083544D01*
X176802476Y-111878033D01*
X176802465Y-111878027D01*
X176466261Y-111706723D01*
X176114002Y-111571502D01*
X176113985Y-111571497D01*
X175749503Y-111473835D01*
X175376827Y-111414808D01*
X175376807Y-111414806D01*
X175000006Y-111395060D01*
X174999994Y-111395060D01*
X174623192Y-111414806D01*
X174623172Y-111414808D01*
X174250496Y-111473835D01*
X173886014Y-111571497D01*
X173885997Y-111571502D01*
X173533738Y-111706723D01*
X173197534Y-111878027D01*
X173197523Y-111878033D01*
X172881066Y-112083544D01*
X172587825Y-112321005D01*
X172587821Y-112321009D01*
X172525126Y-112383703D01*
X173939340Y-113797917D01*
X173797917Y-113939340D01*
X172383703Y-112525126D01*
X172321009Y-112587821D01*
X172321005Y-112587825D01*
X172083544Y-112881066D01*
X171878033Y-113197523D01*
X171878027Y-113197534D01*
X171706723Y-113533738D01*
X171571502Y-113885997D01*
X171571497Y-113886014D01*
X171473835Y-114250496D01*
X171414808Y-114623172D01*
X171414806Y-114623192D01*
X171395060Y-114999993D01*
X171395060Y-115000006D01*
X163518500Y-115000006D01*
X163518500Y-112970692D01*
X163518500Y-112970691D01*
X163487799Y-112856114D01*
X163462731Y-112812696D01*
X163428489Y-112753386D01*
X152767604Y-102092501D01*
X152739829Y-102037987D01*
X152749400Y-101977555D01*
X152792665Y-101934290D01*
X152837610Y-101923500D01*
X153475309Y-101923500D01*
X153565669Y-101899287D01*
X153565672Y-101899287D01*
X153578995Y-101895717D01*
X153589887Y-101892799D01*
X153692614Y-101833489D01*
X157002607Y-98523496D01*
X157057124Y-98495719D01*
X157072611Y-98494500D01*
X162365309Y-98494500D01*
X162455669Y-98470287D01*
X162455672Y-98470287D01*
X162468903Y-98466741D01*
X162479887Y-98463799D01*
X162582614Y-98404489D01*
X163083607Y-97903496D01*
X163138124Y-97875719D01*
X163153611Y-97874500D01*
X164359257Y-97874500D01*
X164359260Y-97874500D01*
X164427393Y-97864573D01*
X164532483Y-97813198D01*
X164615198Y-97730483D01*
X164666573Y-97625393D01*
X164676500Y-97557260D01*
X164676500Y-95990740D01*
X164666573Y-95922607D01*
X164650133Y-95888979D01*
X164641563Y-95828399D01*
X164670238Y-95774349D01*
X164725207Y-95747476D01*
X164739075Y-95746500D01*
X166950389Y-95746500D01*
X167008580Y-95765407D01*
X167020393Y-95775496D01*
X167526504Y-96281607D01*
X167554281Y-96336124D01*
X167555500Y-96351611D01*
X167555500Y-97557260D01*
X167559681Y-97585956D01*
X167565427Y-97625395D01*
X167602268Y-97700753D01*
X167616802Y-97730483D01*
X167699517Y-97813198D01*
X167753285Y-97839483D01*
X167804604Y-97864572D01*
X167804605Y-97864572D01*
X167804607Y-97864573D01*
X167872740Y-97874500D01*
X167872743Y-97874500D01*
X169439257Y-97874500D01*
X169439260Y-97874500D01*
X169507393Y-97864573D01*
X169612483Y-97813198D01*
X169695198Y-97730483D01*
X169746573Y-97625393D01*
X169756500Y-97557260D01*
X169756500Y-95990740D01*
X169746573Y-95922607D01*
X169730134Y-95888981D01*
X169713640Y-95855241D01*
X169695198Y-95817517D01*
X169612483Y-95734802D01*
X169612481Y-95734801D01*
X169507395Y-95683427D01*
X169480139Y-95679456D01*
X169439260Y-95673500D01*
X169439257Y-95673500D01*
X168233611Y-95673500D01*
X168175420Y-95654593D01*
X168163607Y-95644504D01*
X167753607Y-95234504D01*
X167725830Y-95179987D01*
X167735401Y-95119555D01*
X167778666Y-95076290D01*
X167823611Y-95065500D01*
X171095389Y-95065500D01*
X171153580Y-95084407D01*
X171165393Y-95094496D01*
X173002504Y-96931607D01*
X173030281Y-96986124D01*
X173031500Y-97001611D01*
X173031500Y-100801311D01*
X173051727Y-100876796D01*
X173051728Y-100876800D01*
X173062198Y-100915881D01*
X173062202Y-100915889D01*
X173121507Y-101018609D01*
X173121508Y-101018610D01*
X173121509Y-101018611D01*
X173121511Y-101018614D01*
X174308133Y-102205236D01*
X175446061Y-103343164D01*
X175473838Y-103397681D01*
X175471278Y-103440260D01*
X175414885Y-103638462D01*
X175414885Y-103638464D01*
X175394357Y-103860000D01*
X175414885Y-104081536D01*
X175475771Y-104295528D01*
X175574942Y-104494689D01*
X175709019Y-104672236D01*
X175873438Y-104822124D01*
X176062599Y-104939247D01*
X176112777Y-104958686D01*
X176160208Y-104997336D01*
X176175862Y-105056485D01*
X176153760Y-105113539D01*
X176102343Y-105146705D01*
X176077014Y-105150000D01*
X175718516Y-105150000D01*
X175718514Y-105150001D01*
X175624858Y-105164833D01*
X175624848Y-105164836D01*
X175511956Y-105222358D01*
X175422358Y-105311956D01*
X175364836Y-105424848D01*
X175364835Y-105424852D01*
X175350000Y-105518515D01*
X175350000Y-106299999D01*
X175350001Y-106300000D01*
X176109157Y-106300000D01*
X176100000Y-106334174D01*
X176100000Y-106465826D01*
X176109157Y-106500000D01*
X175350002Y-106500000D01*
X175350001Y-106500001D01*
X175350001Y-107281485D01*
X175364833Y-107375141D01*
X175364836Y-107375151D01*
X175422358Y-107488043D01*
X175511956Y-107577641D01*
X175624848Y-107635163D01*
X175624852Y-107635164D01*
X175718515Y-107649999D01*
X176499998Y-107649999D01*
X176500000Y-107649998D01*
X176500000Y-106890842D01*
X176534174Y-106900000D01*
X176665826Y-106900000D01*
X176700000Y-106890842D01*
X176700000Y-107649998D01*
X176700001Y-107649999D01*
X177481483Y-107649999D01*
X177481485Y-107649998D01*
X177575141Y-107635166D01*
X177575151Y-107635163D01*
X177688043Y-107577641D01*
X177777641Y-107488043D01*
X177835163Y-107375151D01*
X177835164Y-107375147D01*
X177850000Y-107281484D01*
X177850000Y-106500001D01*
X177849999Y-106500000D01*
X177090843Y-106500000D01*
X177100000Y-106465826D01*
X177100000Y-106334174D01*
X177090843Y-106300000D01*
X177849998Y-106300000D01*
X177849999Y-106299999D01*
X177849999Y-105518516D01*
X177849998Y-105518514D01*
X177835166Y-105424858D01*
X177835163Y-105424848D01*
X177777641Y-105311956D01*
X177688043Y-105222358D01*
X177575151Y-105164836D01*
X177575147Y-105164835D01*
X177481484Y-105150000D01*
X177122986Y-105150000D01*
X177064795Y-105131093D01*
X177028831Y-105081593D01*
X177028831Y-105020407D01*
X177064795Y-104970907D01*
X177087219Y-104958687D01*
X177137401Y-104939247D01*
X177326562Y-104822124D01*
X177490981Y-104672236D01*
X177625058Y-104494689D01*
X177724229Y-104295528D01*
X177785115Y-104081536D01*
X177805643Y-103860000D01*
X177785115Y-103638464D01*
X177724229Y-103424472D01*
X177625058Y-103225311D01*
X177490981Y-103047764D01*
X177326562Y-102897876D01*
X177137401Y-102780753D01*
X176929940Y-102700382D01*
X176929939Y-102700381D01*
X176929937Y-102700381D01*
X176860033Y-102687314D01*
X176806307Y-102658036D01*
X176780051Y-102602771D01*
X176791294Y-102542627D01*
X176835741Y-102500578D01*
X176860033Y-102492686D01*
X176929940Y-102479618D01*
X177137401Y-102399247D01*
X177326562Y-102282124D01*
X177490981Y-102132236D01*
X177625058Y-101954689D01*
X177724229Y-101755528D01*
X177785115Y-101541536D01*
X177805643Y-101320000D01*
X177785115Y-101098464D01*
X177724229Y-100884472D01*
X177625058Y-100685311D01*
X177490981Y-100507764D01*
X177326562Y-100357876D01*
X177137401Y-100240753D01*
X176929940Y-100160382D01*
X176929939Y-100160381D01*
X176929937Y-100160381D01*
X176860033Y-100147314D01*
X176806307Y-100118036D01*
X176780051Y-100062771D01*
X176791294Y-100002627D01*
X176835741Y-99960578D01*
X176860033Y-99952686D01*
X176929940Y-99939618D01*
X177137401Y-99859247D01*
X177326562Y-99742124D01*
X177490981Y-99592236D01*
X177625058Y-99414689D01*
X177724229Y-99215528D01*
X177785115Y-99001536D01*
X177805643Y-98780000D01*
X177785115Y-98558464D01*
X177724229Y-98344472D01*
X177625058Y-98145311D01*
X177490981Y-97967764D01*
X177326562Y-97817876D01*
X177137401Y-97700753D01*
X176929940Y-97620382D01*
X176929939Y-97620381D01*
X176929937Y-97620381D01*
X176860033Y-97607314D01*
X176806307Y-97578036D01*
X176780051Y-97522771D01*
X176791294Y-97462627D01*
X176835741Y-97420578D01*
X176860033Y-97412686D01*
X176929940Y-97399618D01*
X177137401Y-97319247D01*
X177326562Y-97202124D01*
X177490981Y-97052236D01*
X177625058Y-96874689D01*
X177724229Y-96675528D01*
X177785115Y-96461536D01*
X177805643Y-96240000D01*
X177785115Y-96018464D01*
X177724229Y-95804472D01*
X177625058Y-95605311D01*
X177490981Y-95427764D01*
X177326562Y-95277876D01*
X177137401Y-95160753D01*
X176929940Y-95080382D01*
X176929939Y-95080381D01*
X176929937Y-95080381D01*
X176860033Y-95067314D01*
X176806307Y-95038036D01*
X176780051Y-94982771D01*
X176791294Y-94922627D01*
X176835741Y-94880578D01*
X176860033Y-94872686D01*
X176929940Y-94859618D01*
X177137401Y-94779247D01*
X177326562Y-94662124D01*
X177490981Y-94512236D01*
X177625058Y-94334689D01*
X177724229Y-94135528D01*
X177785115Y-93921536D01*
X177805643Y-93700000D01*
X177785115Y-93478464D01*
X177724229Y-93264472D01*
X177625058Y-93065311D01*
X177490981Y-92887764D01*
X177326562Y-92737876D01*
X177137401Y-92620753D01*
X176929940Y-92540382D01*
X176929939Y-92540381D01*
X176929937Y-92540381D01*
X176711243Y-92499500D01*
X176488757Y-92499500D01*
X176270062Y-92540381D01*
X176193797Y-92569926D01*
X176062599Y-92620753D01*
X175873438Y-92737876D01*
X175709020Y-92887763D01*
X175574943Y-93065309D01*
X175574938Y-93065318D01*
X175537831Y-93139839D01*
X175475771Y-93264472D01*
X175414885Y-93478464D01*
X175394357Y-93700000D01*
X175414885Y-93921536D01*
X175417623Y-93931160D01*
X175475772Y-94135530D01*
X175514831Y-94213972D01*
X175523844Y-94274490D01*
X175495563Y-94328748D01*
X175440792Y-94356020D01*
X175380451Y-94345890D01*
X175356209Y-94328106D01*
X173377614Y-92349511D01*
X173377611Y-92349509D01*
X173377609Y-92349507D01*
X173274890Y-92290202D01*
X173274886Y-92290200D01*
X173250673Y-92283712D01*
X173250673Y-92283713D01*
X173160309Y-92259500D01*
X173160307Y-92259500D01*
X139861113Y-92259500D01*
X139802922Y-92240593D01*
X139766958Y-92191093D01*
X139766958Y-92129907D01*
X139769649Y-92122614D01*
X139777044Y-92104762D01*
X139797682Y-91948000D01*
X139777044Y-91791238D01*
X139716537Y-91645161D01*
X139716537Y-91645160D01*
X139620286Y-91519723D01*
X139620285Y-91519722D01*
X139620282Y-91519718D01*
X139620277Y-91519714D01*
X139620276Y-91519713D01*
X139494838Y-91423462D01*
X139348766Y-91362957D01*
X139348758Y-91362955D01*
X139248231Y-91349720D01*
X139232522Y-91347652D01*
X139193069Y-91328834D01*
X139185793Y-91336503D01*
X139151476Y-91347653D01*
X139035241Y-91362955D01*
X139035233Y-91362957D01*
X138889161Y-91423462D01*
X138850994Y-91452748D01*
X138819334Y-91477042D01*
X138761659Y-91497466D01*
X138759068Y-91497500D01*
X137895611Y-91497500D01*
X137837420Y-91478593D01*
X137825607Y-91468504D01*
X137527607Y-91170504D01*
X137499830Y-91115987D01*
X137509401Y-91055555D01*
X137552666Y-91012290D01*
X137597611Y-91001500D01*
X138759068Y-91001500D01*
X138817259Y-91020407D01*
X138819315Y-91021943D01*
X138889159Y-91075536D01*
X139035238Y-91136044D01*
X139136664Y-91149396D01*
X139151476Y-91151347D01*
X139190929Y-91170165D01*
X139198206Y-91162497D01*
X139232522Y-91151347D01*
X139348762Y-91136044D01*
X139494841Y-91075536D01*
X139620282Y-90979282D01*
X139716536Y-90853841D01*
X139777044Y-90707762D01*
X139797682Y-90551000D01*
X139777044Y-90394238D01*
X139716537Y-90248161D01*
X139716537Y-90248160D01*
X139620286Y-90122723D01*
X139620285Y-90122722D01*
X139620282Y-90122718D01*
X139620277Y-90122714D01*
X139620276Y-90122713D01*
X139494838Y-90026462D01*
X139348766Y-89965957D01*
X139348758Y-89965955D01*
X139192001Y-89945318D01*
X139191999Y-89945318D01*
X139035241Y-89965955D01*
X139035233Y-89965957D01*
X138889161Y-90026462D01*
X138850994Y-90055748D01*
X138819334Y-90080042D01*
X138761659Y-90100466D01*
X138759068Y-90100500D01*
X137387612Y-90100500D01*
X137329421Y-90081593D01*
X137317608Y-90071504D01*
X136701380Y-89455276D01*
X135929714Y-88683611D01*
X135901938Y-88629095D01*
X135911509Y-88568663D01*
X135939447Y-88535070D01*
X136008668Y-88481955D01*
X136066341Y-88461534D01*
X136068932Y-88461500D01*
X141631389Y-88461500D01*
X141689580Y-88480407D01*
X141701392Y-88490495D01*
X142217386Y-89006490D01*
X142311154Y-89060626D01*
X142311155Y-89060627D01*
X142320110Y-89065797D01*
X142320112Y-89065798D01*
X142320114Y-89065799D01*
X142434691Y-89096500D01*
X153999068Y-89096500D01*
X154057259Y-89115407D01*
X154059315Y-89116943D01*
X154129159Y-89170536D01*
X154129160Y-89170536D01*
X154129161Y-89170537D01*
X154161089Y-89183762D01*
X154275238Y-89231044D01*
X154392809Y-89246522D01*
X154431999Y-89251682D01*
X154432000Y-89251682D01*
X154432001Y-89251682D01*
X154463352Y-89247554D01*
X154588762Y-89231044D01*
X154734841Y-89170536D01*
X154860282Y-89074282D01*
X154956536Y-88948841D01*
X155017044Y-88802762D01*
X155037682Y-88646000D01*
X155035456Y-88629095D01*
X155018785Y-88502462D01*
X155017044Y-88489238D01*
X155009648Y-88471384D01*
X155004848Y-88410390D01*
X155036817Y-88358220D01*
X155093345Y-88334805D01*
X155101113Y-88334500D01*
X155347389Y-88334500D01*
X155405580Y-88353407D01*
X155417392Y-88363495D01*
X155933386Y-88879490D01*
X156036114Y-88938799D01*
X156150691Y-88969500D01*
X169874068Y-88969500D01*
X169932259Y-88988407D01*
X169934315Y-88989943D01*
X170004159Y-89043536D01*
X170004160Y-89043536D01*
X170004161Y-89043537D01*
X170078372Y-89074276D01*
X170150238Y-89104044D01*
X170267809Y-89119522D01*
X170306999Y-89124682D01*
X170307000Y-89124682D01*
X170307001Y-89124682D01*
X170338352Y-89120554D01*
X170463762Y-89104044D01*
X170609841Y-89043536D01*
X170735282Y-88947282D01*
X170831536Y-88821841D01*
X170892044Y-88675762D01*
X170912682Y-88519000D01*
X170892044Y-88362238D01*
X170863085Y-88292325D01*
X170831537Y-88216161D01*
X170831537Y-88216160D01*
X170735286Y-88090723D01*
X170735285Y-88090722D01*
X170735282Y-88090718D01*
X170735277Y-88090714D01*
X170735276Y-88090713D01*
X170609838Y-87994462D01*
X170463766Y-87933957D01*
X170463758Y-87933955D01*
X170307001Y-87913318D01*
X170306999Y-87913318D01*
X170150241Y-87933955D01*
X170150233Y-87933957D01*
X170004161Y-87994462D01*
X169965994Y-88023748D01*
X169934334Y-88048042D01*
X169876659Y-88068466D01*
X169874068Y-88068500D01*
X164549500Y-88068500D01*
X164491309Y-88049593D01*
X164455345Y-88000093D01*
X164450500Y-87969500D01*
X164450500Y-86366743D01*
X164442676Y-86313043D01*
X164440573Y-86298607D01*
X164389198Y-86193517D01*
X164306483Y-86110802D01*
X164306481Y-86110801D01*
X164201395Y-86059427D01*
X164174139Y-86055456D01*
X164133260Y-86049500D01*
X162366740Y-86049500D01*
X162332673Y-86054463D01*
X162298604Y-86059427D01*
X162193518Y-86110801D01*
X162110801Y-86193518D01*
X162059427Y-86298604D01*
X162049500Y-86366743D01*
X162049500Y-87969500D01*
X162030593Y-88027691D01*
X161981093Y-88063655D01*
X161950500Y-88068500D01*
X156437612Y-88068500D01*
X156379421Y-88049593D01*
X156367609Y-88039504D01*
X155851614Y-87523511D01*
X155851609Y-87523507D01*
X155748892Y-87464203D01*
X155748889Y-87464202D01*
X155748887Y-87464201D01*
X155714372Y-87454953D01*
X155634309Y-87433500D01*
X155634308Y-87433500D01*
X143102612Y-87433500D01*
X143044421Y-87414593D01*
X143032609Y-87404504D01*
X142516614Y-86888511D01*
X142516609Y-86888507D01*
X142413892Y-86829203D01*
X142413889Y-86829202D01*
X142413887Y-86829201D01*
X142382227Y-86820718D01*
X142299309Y-86798500D01*
X142299308Y-86798500D01*
X136068932Y-86798500D01*
X136010741Y-86779593D01*
X136008684Y-86778056D01*
X135938841Y-86724464D01*
X135938840Y-86724463D01*
X135938838Y-86724462D01*
X135792766Y-86663957D01*
X135792758Y-86663955D01*
X135636001Y-86643318D01*
X135635999Y-86643318D01*
X135479241Y-86663955D01*
X135479233Y-86663957D01*
X135333161Y-86724462D01*
X135333160Y-86724462D01*
X135207723Y-86820713D01*
X135207713Y-86820723D01*
X135111462Y-86946160D01*
X135111462Y-86946161D01*
X135050957Y-87092233D01*
X135050955Y-87092241D01*
X135030318Y-87248999D01*
X135030318Y-87249000D01*
X135040813Y-87328723D01*
X135050956Y-87405762D01*
X135078906Y-87473238D01*
X135111463Y-87551839D01*
X135111465Y-87551842D01*
X135125193Y-87569733D01*
X135145617Y-87627409D01*
X135128239Y-87686075D01*
X135125203Y-87690253D01*
X135113168Y-87705938D01*
X135111932Y-87707549D01*
X135061506Y-87742204D01*
X135000342Y-87740601D01*
X134963387Y-87717284D01*
X133106103Y-85860000D01*
X175394357Y-85860000D01*
X175414885Y-86081536D01*
X175475771Y-86295528D01*
X175574942Y-86494689D01*
X175709019Y-86672236D01*
X175873438Y-86822124D01*
X176062599Y-86939247D01*
X176240549Y-87008185D01*
X176287980Y-87046837D01*
X176303634Y-87105986D01*
X176281531Y-87163040D01*
X176230114Y-87196205D01*
X176204786Y-87199500D01*
X175716740Y-87199500D01*
X175682673Y-87204463D01*
X175648604Y-87209427D01*
X175543518Y-87260801D01*
X175460801Y-87343518D01*
X175409427Y-87448604D01*
X175407125Y-87464407D01*
X175399500Y-87516740D01*
X175399500Y-89283260D01*
X175401841Y-89299326D01*
X175409427Y-89351395D01*
X175460212Y-89455276D01*
X175460802Y-89456483D01*
X175543517Y-89539198D01*
X175597285Y-89565483D01*
X175648604Y-89590572D01*
X175648605Y-89590572D01*
X175648607Y-89590573D01*
X175716740Y-89600500D01*
X175716743Y-89600500D01*
X177483257Y-89600500D01*
X177483260Y-89600500D01*
X177551393Y-89590573D01*
X177656483Y-89539198D01*
X177739198Y-89456483D01*
X177790573Y-89351393D01*
X177800500Y-89283260D01*
X177800500Y-87516740D01*
X177790573Y-87448607D01*
X177789054Y-87445500D01*
X177739198Y-87343518D01*
X177739198Y-87343517D01*
X177656483Y-87260802D01*
X177656481Y-87260801D01*
X177551395Y-87209427D01*
X177524139Y-87205456D01*
X177483260Y-87199500D01*
X176995214Y-87199500D01*
X176937023Y-87180593D01*
X176901059Y-87131093D01*
X176901059Y-87069907D01*
X176937023Y-87020407D01*
X176959448Y-87008186D01*
X177137401Y-86939247D01*
X177326562Y-86822124D01*
X177490981Y-86672236D01*
X177625058Y-86494689D01*
X177724229Y-86295528D01*
X177785115Y-86081536D01*
X177805643Y-85860000D01*
X177785115Y-85638464D01*
X177724229Y-85424472D01*
X177625058Y-85225311D01*
X177490981Y-85047764D01*
X177326562Y-84897876D01*
X177137401Y-84780753D01*
X176929940Y-84700382D01*
X176929939Y-84700381D01*
X176929937Y-84700381D01*
X176711243Y-84659500D01*
X176488757Y-84659500D01*
X176270062Y-84700381D01*
X176206514Y-84725000D01*
X176062599Y-84780753D01*
X175897018Y-84883276D01*
X175873438Y-84897876D01*
X175709020Y-85047763D01*
X175574943Y-85225309D01*
X175574938Y-85225318D01*
X175478997Y-85417993D01*
X175475771Y-85424472D01*
X175414885Y-85638464D01*
X175394357Y-85860000D01*
X133106103Y-85860000D01*
X131820084Y-84573981D01*
X131792307Y-84519464D01*
X131791935Y-84491054D01*
X131796682Y-84454999D01*
X131782005Y-84343515D01*
X131776044Y-84298238D01*
X131756000Y-84249848D01*
X131715537Y-84152161D01*
X131715537Y-84152160D01*
X131619286Y-84026723D01*
X131619285Y-84026722D01*
X131619282Y-84026718D01*
X131619277Y-84026714D01*
X131619276Y-84026713D01*
X131551883Y-83975001D01*
X131493841Y-83930464D01*
X131493839Y-83930463D01*
X131404019Y-83893258D01*
X131371901Y-83871798D01*
X131045592Y-83545489D01*
X130324614Y-82824511D01*
X130324611Y-82824509D01*
X130324610Y-82824508D01*
X130324609Y-82824507D01*
X130221892Y-82765203D01*
X130221889Y-82765202D01*
X130221887Y-82765201D01*
X130190227Y-82756718D01*
X130107309Y-82734500D01*
X130107308Y-82734500D01*
X117272932Y-82734500D01*
X117214741Y-82715593D01*
X117212684Y-82714056D01*
X117142841Y-82660464D01*
X117142840Y-82660463D01*
X117142838Y-82660462D01*
X116996762Y-82599956D01*
X116909502Y-82588467D01*
X116854277Y-82562125D01*
X116852421Y-82560318D01*
X116565489Y-82273386D01*
X116100614Y-81808511D01*
X116100611Y-81808509D01*
X116100610Y-81808508D01*
X116100609Y-81808507D01*
X115997890Y-81749202D01*
X115997886Y-81749200D01*
X115973673Y-81742712D01*
X115973673Y-81742713D01*
X115883309Y-81718500D01*
X115883307Y-81718500D01*
X110717611Y-81718500D01*
X110659420Y-81699593D01*
X110647607Y-81689504D01*
X106905496Y-77947393D01*
X106877719Y-77892876D01*
X106876500Y-77877389D01*
X106876500Y-77775932D01*
X106895407Y-77717741D01*
X106896936Y-77715693D01*
X106950536Y-77645841D01*
X107011044Y-77499762D01*
X107031682Y-77343000D01*
X107011044Y-77186238D01*
X107011042Y-77186233D01*
X106950537Y-77040161D01*
X106950537Y-77040160D01*
X106854286Y-76914723D01*
X106854285Y-76914722D01*
X106854282Y-76914718D01*
X106854277Y-76914714D01*
X106854276Y-76914713D01*
X106728838Y-76818462D01*
X106582766Y-76757957D01*
X106582758Y-76757955D01*
X106456832Y-76741377D01*
X106401607Y-76715036D01*
X106372412Y-76661265D01*
X106377002Y-76617734D01*
X106374365Y-76617028D01*
X106376044Y-76610762D01*
X106396682Y-76454000D01*
X106396682Y-76453999D01*
X106376044Y-76297241D01*
X106376044Y-76297238D01*
X106315537Y-76151161D01*
X106315537Y-76151160D01*
X106219286Y-76025723D01*
X106219285Y-76025722D01*
X106219282Y-76025718D01*
X106219277Y-76025714D01*
X106219276Y-76025713D01*
X106093838Y-75929462D01*
X105947766Y-75868957D01*
X105947758Y-75868955D01*
X105791001Y-75848318D01*
X105790999Y-75848318D01*
X105634241Y-75868955D01*
X105634233Y-75868957D01*
X105488161Y-75929462D01*
X105488160Y-75929462D01*
X105362723Y-76025713D01*
X105362713Y-76025723D01*
X105266462Y-76151160D01*
X105266462Y-76151161D01*
X105205957Y-76297233D01*
X105205955Y-76297241D01*
X105185318Y-76453999D01*
X105185318Y-76454000D01*
X94546221Y-76454000D01*
X94579129Y-76421092D01*
X94704263Y-76248861D01*
X94800910Y-76059180D01*
X94866698Y-75856706D01*
X94900000Y-75646447D01*
X94900000Y-75640001D01*
X94899999Y-75640000D01*
X94042607Y-75640000D01*
X94050000Y-75612409D01*
X94050000Y-75467591D01*
X94042607Y-75440000D01*
X94899999Y-75440000D01*
X94900000Y-75439999D01*
X94900000Y-75433552D01*
X94866698Y-75223293D01*
X94800910Y-75020819D01*
X94704263Y-74831138D01*
X94579129Y-74658907D01*
X94428592Y-74508370D01*
X94256361Y-74383236D01*
X94152726Y-74330432D01*
X94109461Y-74287167D01*
X94099890Y-74226735D01*
X94127667Y-74172219D01*
X94152723Y-74154013D01*
X94230421Y-74114425D01*
X94396347Y-73993873D01*
X94541373Y-73848847D01*
X94661925Y-73682921D01*
X94755037Y-73500178D01*
X94755038Y-73500173D01*
X94755040Y-73500171D01*
X94818415Y-73305125D01*
X94818416Y-73305121D01*
X94850500Y-73102551D01*
X94850500Y-72897448D01*
X94818416Y-72694878D01*
X94818415Y-72694874D01*
X94755040Y-72499828D01*
X94755038Y-72499825D01*
X94755037Y-72499824D01*
X94755037Y-72499822D01*
X94661925Y-72317079D01*
X94541373Y-72151153D01*
X94396347Y-72006127D01*
X94230421Y-71885575D01*
X94230420Y-71885574D01*
X94230418Y-71885573D01*
X94047674Y-71792461D01*
X94047671Y-71792459D01*
X93852625Y-71729084D01*
X93852621Y-71729083D01*
X93650051Y-71697000D01*
X93650048Y-71697000D01*
X93349952Y-71697000D01*
X93349949Y-71697000D01*
X93147378Y-71729083D01*
X93147374Y-71729084D01*
X92952328Y-71792459D01*
X92952325Y-71792461D01*
X92769581Y-71885573D01*
X92603654Y-72006126D01*
X92458626Y-72151154D01*
X92338073Y-72317081D01*
X92244961Y-72499825D01*
X92244959Y-72499828D01*
X92181584Y-72694874D01*
X92181583Y-72694878D01*
X92149500Y-72897448D01*
X92149500Y-73102551D01*
X92181583Y-73305121D01*
X92181584Y-73305125D01*
X92244959Y-73500171D01*
X92244961Y-73500174D01*
X92326395Y-73659999D01*
X92338075Y-73682921D01*
X92458627Y-73848847D01*
X92603653Y-73993873D01*
X92769579Y-74114425D01*
X92769581Y-74114426D01*
X92847273Y-74154012D01*
X92890538Y-74197277D01*
X92900109Y-74257709D01*
X92872332Y-74312226D01*
X92847273Y-74330432D01*
X92743638Y-74383236D01*
X92571407Y-74508370D01*
X92420870Y-74658907D01*
X92295736Y-74831138D01*
X92199089Y-75020819D01*
X92133301Y-75223293D01*
X92100000Y-75433552D01*
X92100000Y-75439999D01*
X92100001Y-75440000D01*
X92957393Y-75440000D01*
X92950000Y-75467591D01*
X92950000Y-75612409D01*
X92957393Y-75640000D01*
X92100001Y-75640000D01*
X92100000Y-75640001D01*
X92100000Y-75646447D01*
X90100500Y-75646447D01*
X90100500Y-69342000D01*
X127156318Y-69342000D01*
X127176955Y-69498758D01*
X127176957Y-69498766D01*
X127237462Y-69644838D01*
X127237462Y-69644839D01*
X127237464Y-69644841D01*
X127333718Y-69770282D01*
X127459159Y-69866536D01*
X127605238Y-69927044D01*
X127692496Y-69938531D01*
X127747720Y-69964872D01*
X127749577Y-69966680D01*
X129822504Y-72039607D01*
X129850281Y-72094124D01*
X129851500Y-72109611D01*
X129851500Y-80069309D01*
X129875713Y-80159673D01*
X129875712Y-80159673D01*
X129882200Y-80183886D01*
X129882202Y-80183890D01*
X129941507Y-80286609D01*
X129941509Y-80286611D01*
X129941511Y-80286614D01*
X132362505Y-82707608D01*
X132390281Y-82762123D01*
X132391500Y-82777610D01*
X132391500Y-84022067D01*
X132372593Y-84080258D01*
X132371042Y-84082334D01*
X132317462Y-84152160D01*
X132317462Y-84152161D01*
X132256957Y-84298233D01*
X132256955Y-84298241D01*
X132236318Y-84454999D01*
X132236318Y-84455000D01*
X132256955Y-84611758D01*
X132256957Y-84611766D01*
X132317462Y-84757838D01*
X132317462Y-84757839D01*
X132413713Y-84883276D01*
X132413718Y-84883282D01*
X132413721Y-84883284D01*
X132413723Y-84883286D01*
X132429357Y-84895282D01*
X132539159Y-84979536D01*
X132539160Y-84979536D01*
X132539161Y-84979537D01*
X132665835Y-85032007D01*
X132685238Y-85040044D01*
X132802809Y-85055522D01*
X132841999Y-85060682D01*
X132842000Y-85060682D01*
X132842001Y-85060682D01*
X132873352Y-85056554D01*
X132998762Y-85040044D01*
X133144841Y-84979536D01*
X133270282Y-84883282D01*
X133366536Y-84757841D01*
X133427044Y-84611762D01*
X133447682Y-84455000D01*
X133427044Y-84298238D01*
X133407000Y-84249848D01*
X133366537Y-84152161D01*
X133366537Y-84152160D01*
X133312958Y-84082334D01*
X133292534Y-84024658D01*
X133292500Y-84022067D01*
X133292500Y-82490692D01*
X133292500Y-82490691D01*
X133261799Y-82376114D01*
X133236731Y-82332696D01*
X133202489Y-82273386D01*
X130781496Y-79852393D01*
X130753719Y-79797876D01*
X130752500Y-79782389D01*
X130752500Y-77000000D01*
X145224706Y-77000000D01*
X145243853Y-77243300D01*
X145300828Y-77480613D01*
X145300829Y-77480616D01*
X145394219Y-77706081D01*
X145394224Y-77706092D01*
X145521739Y-77914176D01*
X145521745Y-77914184D01*
X145546664Y-77943361D01*
X145680241Y-78099759D01*
X145865821Y-78258259D01*
X145865823Y-78258260D01*
X146073907Y-78385775D01*
X146073909Y-78385776D01*
X146073911Y-78385777D01*
X146299388Y-78479172D01*
X146536698Y-78536146D01*
X146780000Y-78555294D01*
X147023302Y-78536146D01*
X147260612Y-78479172D01*
X147486089Y-78385777D01*
X147694179Y-78258259D01*
X147879759Y-78099759D01*
X148038259Y-77914179D01*
X148165777Y-77706089D01*
X148259172Y-77480612D01*
X148316146Y-77243302D01*
X148335294Y-77000000D01*
X148327424Y-76900000D01*
X173122921Y-76900000D01*
X174125629Y-76900000D01*
X174120000Y-76921009D01*
X174120000Y-77078991D01*
X174125629Y-77100000D01*
X173122922Y-77100000D01*
X173134811Y-77251068D01*
X173193604Y-77495957D01*
X173289979Y-77728628D01*
X173289985Y-77728640D01*
X173421566Y-77943359D01*
X173421567Y-77943361D01*
X173585121Y-78134860D01*
X173585139Y-78134878D01*
X173776638Y-78298432D01*
X173776640Y-78298433D01*
X173991359Y-78430014D01*
X173991371Y-78430020D01*
X174224042Y-78526395D01*
X174224041Y-78526395D01*
X174468931Y-78585188D01*
X174619999Y-78597076D01*
X174620000Y-78597076D01*
X174620000Y-77594370D01*
X174641009Y-77600000D01*
X174798991Y-77600000D01*
X174820000Y-77594370D01*
X174820000Y-78597076D01*
X174971068Y-78585188D01*
X175215957Y-78526395D01*
X175448628Y-78430020D01*
X175448640Y-78430014D01*
X175663359Y-78298433D01*
X175663361Y-78298432D01*
X175854860Y-78134878D01*
X175854878Y-78134860D01*
X176018432Y-77943361D01*
X176018433Y-77943359D01*
X176150014Y-77728640D01*
X176150020Y-77728628D01*
X176246395Y-77495957D01*
X176305188Y-77251068D01*
X176317078Y-77100000D01*
X175314371Y-77100000D01*
X175320000Y-77078991D01*
X175320000Y-76921009D01*
X175314371Y-76900000D01*
X176317078Y-76900000D01*
X176305188Y-76748931D01*
X176246395Y-76504042D01*
X176150020Y-76271371D01*
X176150014Y-76271359D01*
X176018433Y-76056640D01*
X176018432Y-76056638D01*
X175854878Y-75865139D01*
X175854860Y-75865121D01*
X175663361Y-75701567D01*
X175663359Y-75701566D01*
X175448640Y-75569985D01*
X175448628Y-75569979D01*
X175215957Y-75473604D01*
X175215958Y-75473604D01*
X174971068Y-75414811D01*
X174820000Y-75402921D01*
X174820000Y-76405629D01*
X174798991Y-76400000D01*
X174641009Y-76400000D01*
X174620000Y-76405629D01*
X174620000Y-75402921D01*
X174468931Y-75414811D01*
X174224042Y-75473604D01*
X173991371Y-75569979D01*
X173991359Y-75569985D01*
X173776640Y-75701566D01*
X173776638Y-75701567D01*
X173585139Y-75865121D01*
X173585121Y-75865139D01*
X173421567Y-76056638D01*
X173421566Y-76056640D01*
X173289985Y-76271359D01*
X173289979Y-76271371D01*
X173193604Y-76504042D01*
X173134811Y-76748931D01*
X173122921Y-76900000D01*
X148327424Y-76900000D01*
X148316146Y-76756698D01*
X148259172Y-76519388D01*
X148165777Y-76293911D01*
X148151964Y-76271371D01*
X148038260Y-76085823D01*
X148038259Y-76085821D01*
X148038254Y-76085815D01*
X147879767Y-75900250D01*
X147879764Y-75900247D01*
X147879759Y-75900241D01*
X147879752Y-75900235D01*
X147879749Y-75900232D01*
X147694184Y-75741745D01*
X147694176Y-75741739D01*
X147486092Y-75614224D01*
X147486081Y-75614219D01*
X147260616Y-75520829D01*
X147260613Y-75520828D01*
X147023300Y-75463853D01*
X146780000Y-75444706D01*
X146536699Y-75463853D01*
X146299386Y-75520828D01*
X146299383Y-75520829D01*
X146073918Y-75614219D01*
X146073907Y-75614224D01*
X145865823Y-75741739D01*
X145865815Y-75741745D01*
X145680250Y-75900232D01*
X145680232Y-75900250D01*
X145521745Y-76085815D01*
X145521739Y-76085823D01*
X145394224Y-76293907D01*
X145394219Y-76293918D01*
X145300829Y-76519383D01*
X145300828Y-76519386D01*
X145243853Y-76756699D01*
X145224706Y-77000000D01*
X130752500Y-77000000D01*
X130752500Y-71822692D01*
X130744400Y-71792463D01*
X130721799Y-71708114D01*
X130696731Y-71664696D01*
X130662489Y-71605386D01*
X128386680Y-69329577D01*
X128358903Y-69275060D01*
X128358531Y-69272495D01*
X128347044Y-69185240D01*
X128347044Y-69185238D01*
X128286537Y-69039161D01*
X128286537Y-69039160D01*
X128190286Y-68913723D01*
X128190285Y-68913722D01*
X128190282Y-68913718D01*
X128190277Y-68913714D01*
X128190276Y-68913713D01*
X128064838Y-68817462D01*
X127918766Y-68756957D01*
X127918758Y-68756955D01*
X127762001Y-68736318D01*
X127761999Y-68736318D01*
X127605241Y-68756955D01*
X127605233Y-68756957D01*
X127459161Y-68817462D01*
X127459160Y-68817462D01*
X127333723Y-68913713D01*
X127333713Y-68913723D01*
X127237462Y-69039160D01*
X127237462Y-69039161D01*
X127176957Y-69185233D01*
X127176955Y-69185241D01*
X127156318Y-69341999D01*
X127156318Y-69342000D01*
X90100500Y-69342000D01*
X90100500Y-65002165D01*
X90100547Y-65000006D01*
X91395060Y-65000006D01*
X91414806Y-65376807D01*
X91414808Y-65376827D01*
X91473835Y-65749503D01*
X91571497Y-66113985D01*
X91571502Y-66114002D01*
X91706723Y-66466261D01*
X91878027Y-66802465D01*
X91878033Y-66802476D01*
X92083544Y-67118933D01*
X92321003Y-67412171D01*
X92383704Y-67474872D01*
X93797916Y-66060658D01*
X93939339Y-66202081D01*
X92525127Y-67616295D01*
X92587828Y-67678996D01*
X92881066Y-67916455D01*
X93197523Y-68121966D01*
X93197534Y-68121972D01*
X93533738Y-68293276D01*
X93885997Y-68428497D01*
X93886014Y-68428502D01*
X94250496Y-68526164D01*
X94623172Y-68585191D01*
X94623192Y-68585193D01*
X94999994Y-68604940D01*
X95000006Y-68604940D01*
X95376807Y-68585193D01*
X95376827Y-68585191D01*
X95749503Y-68526164D01*
X96113985Y-68428502D01*
X96114002Y-68428497D01*
X96466261Y-68293276D01*
X96802465Y-68121972D01*
X96802476Y-68121966D01*
X97118927Y-67916459D01*
X97412177Y-67678991D01*
X97474873Y-67616295D01*
X96060659Y-66202082D01*
X96202082Y-66060659D01*
X97616295Y-67474872D01*
X97678991Y-67412177D01*
X97916459Y-67118927D01*
X98121966Y-66802476D01*
X98121972Y-66802465D01*
X98293276Y-66466261D01*
X98428497Y-66114002D01*
X98428502Y-66113985D01*
X98526164Y-65749503D01*
X98540498Y-65659000D01*
X127156318Y-65659000D01*
X127176955Y-65815758D01*
X127176957Y-65815766D01*
X127237462Y-65961838D01*
X127237462Y-65961839D01*
X127237464Y-65961841D01*
X127333718Y-66087282D01*
X127459159Y-66183536D01*
X127605238Y-66244044D01*
X127692496Y-66255531D01*
X127747720Y-66281872D01*
X127749577Y-66283680D01*
X132616504Y-71150607D01*
X132644281Y-71205124D01*
X132645500Y-71220611D01*
X132645500Y-73227067D01*
X132626593Y-73285258D01*
X132625042Y-73287334D01*
X132571462Y-73357160D01*
X132571462Y-73357161D01*
X132510957Y-73503233D01*
X132510955Y-73503241D01*
X132490318Y-73659999D01*
X132490318Y-73660000D01*
X132510955Y-73816758D01*
X132510957Y-73816766D01*
X132571462Y-73962838D01*
X132571462Y-73962839D01*
X132667713Y-74088276D01*
X132667718Y-74088282D01*
X132793159Y-74184536D01*
X132939238Y-74245044D01*
X133035439Y-74257709D01*
X133095999Y-74265682D01*
X133096000Y-74265682D01*
X133096001Y-74265682D01*
X133127352Y-74261554D01*
X133252762Y-74245044D01*
X133398841Y-74184536D01*
X133524282Y-74088282D01*
X133620536Y-73962841D01*
X133681044Y-73816762D01*
X133701682Y-73660000D01*
X133681044Y-73503238D01*
X133620537Y-73357161D01*
X133620537Y-73357160D01*
X133566958Y-73287334D01*
X133546534Y-73229658D01*
X133546500Y-73227067D01*
X133546500Y-70933692D01*
X133515799Y-70819114D01*
X133515799Y-70819112D01*
X133456492Y-70716390D01*
X133456491Y-70716389D01*
X133456490Y-70716388D01*
X133456489Y-70716386D01*
X128386680Y-65646577D01*
X128358903Y-65592060D01*
X128358531Y-65589495D01*
X128347044Y-65502240D01*
X128347044Y-65502238D01*
X128286537Y-65356161D01*
X128286537Y-65356160D01*
X128190286Y-65230723D01*
X128190285Y-65230722D01*
X128190282Y-65230718D01*
X128190277Y-65230714D01*
X128190276Y-65230713D01*
X128064838Y-65134462D01*
X127918766Y-65073957D01*
X127918758Y-65073955D01*
X127762001Y-65053318D01*
X127761999Y-65053318D01*
X127605241Y-65073955D01*
X127605233Y-65073957D01*
X127459161Y-65134462D01*
X127459160Y-65134462D01*
X127333723Y-65230713D01*
X127333713Y-65230723D01*
X127237462Y-65356160D01*
X127237462Y-65356161D01*
X127176957Y-65502233D01*
X127176955Y-65502241D01*
X127156318Y-65658999D01*
X127156318Y-65659000D01*
X98540498Y-65659000D01*
X98585191Y-65376827D01*
X98585193Y-65376807D01*
X98604940Y-65000006D01*
X171395060Y-65000006D01*
X171414806Y-65376807D01*
X171414808Y-65376827D01*
X171473835Y-65749503D01*
X171571497Y-66113985D01*
X171571502Y-66114002D01*
X171706723Y-66466261D01*
X171878027Y-66802465D01*
X171878033Y-66802476D01*
X172083544Y-67118933D01*
X172321003Y-67412171D01*
X172383704Y-67474872D01*
X173797916Y-66060658D01*
X173939339Y-66202081D01*
X172525127Y-67616295D01*
X172587828Y-67678996D01*
X172881066Y-67916455D01*
X173197523Y-68121966D01*
X173197534Y-68121972D01*
X173533738Y-68293276D01*
X173885997Y-68428497D01*
X173886014Y-68428502D01*
X174250496Y-68526164D01*
X174623172Y-68585191D01*
X174623192Y-68585193D01*
X174999994Y-68604940D01*
X175000006Y-68604940D01*
X175376807Y-68585193D01*
X175376827Y-68585191D01*
X175749503Y-68526164D01*
X176113985Y-68428502D01*
X176114002Y-68428497D01*
X176466261Y-68293276D01*
X176802465Y-68121972D01*
X176802476Y-68121966D01*
X177118927Y-67916459D01*
X177412177Y-67678991D01*
X177474873Y-67616295D01*
X176060659Y-66202082D01*
X176202082Y-66060659D01*
X177616295Y-67474872D01*
X177678991Y-67412177D01*
X177916459Y-67118927D01*
X178121966Y-66802476D01*
X178121972Y-66802465D01*
X178293276Y-66466261D01*
X178428497Y-66114002D01*
X178428502Y-66113985D01*
X178526164Y-65749503D01*
X178585191Y-65376827D01*
X178585193Y-65376807D01*
X178604940Y-65000006D01*
X178604940Y-64999993D01*
X178585193Y-64623192D01*
X178585191Y-64623172D01*
X178526164Y-64250496D01*
X178428502Y-63886014D01*
X178428497Y-63885997D01*
X178293276Y-63533738D01*
X178121972Y-63197534D01*
X178121966Y-63197523D01*
X177916455Y-62881066D01*
X177678996Y-62587828D01*
X177616295Y-62525127D01*
X176202081Y-63939339D01*
X176060658Y-63797916D01*
X177474872Y-62383704D01*
X177412171Y-62321003D01*
X177118933Y-62083544D01*
X176802476Y-61878033D01*
X176802465Y-61878027D01*
X176466261Y-61706723D01*
X176114002Y-61571502D01*
X176113985Y-61571497D01*
X175749503Y-61473835D01*
X175376827Y-61414808D01*
X175376807Y-61414806D01*
X175000006Y-61395060D01*
X174999994Y-61395060D01*
X174623192Y-61414806D01*
X174623172Y-61414808D01*
X174250496Y-61473835D01*
X173886014Y-61571497D01*
X173885997Y-61571502D01*
X173533738Y-61706723D01*
X173197534Y-61878027D01*
X173197523Y-61878033D01*
X172881066Y-62083544D01*
X172587825Y-62321005D01*
X172587821Y-62321009D01*
X172525126Y-62383703D01*
X173939340Y-63797917D01*
X173797917Y-63939340D01*
X172383703Y-62525126D01*
X172321009Y-62587821D01*
X172321005Y-62587825D01*
X172083544Y-62881066D01*
X171878033Y-63197523D01*
X171878027Y-63197534D01*
X171706723Y-63533738D01*
X171571502Y-63885997D01*
X171571497Y-63886014D01*
X171473835Y-64250496D01*
X171414808Y-64623172D01*
X171414806Y-64623192D01*
X171395060Y-64999993D01*
X171395060Y-65000006D01*
X98604940Y-65000006D01*
X98604940Y-64999993D01*
X98585193Y-64623192D01*
X98585191Y-64623172D01*
X98570950Y-64533260D01*
X106777000Y-64533260D01*
X106780384Y-64556483D01*
X106786927Y-64601395D01*
X106830524Y-64690573D01*
X106838302Y-64706483D01*
X106921017Y-64789198D01*
X106974785Y-64815483D01*
X107026104Y-64840572D01*
X107026105Y-64840572D01*
X107026107Y-64840573D01*
X107094240Y-64850500D01*
X107094243Y-64850500D01*
X109065757Y-64850500D01*
X109065760Y-64850500D01*
X109133893Y-64840573D01*
X109238983Y-64789198D01*
X109321698Y-64706483D01*
X109373073Y-64601393D01*
X109383000Y-64533260D01*
X109383000Y-64366401D01*
X109401907Y-64308210D01*
X109451407Y-64272246D01*
X109512593Y-64272246D01*
X109562090Y-64308208D01*
X109562093Y-64308211D01*
X109618473Y-64385813D01*
X109626127Y-64396347D01*
X109771153Y-64541373D01*
X109937079Y-64661925D01*
X110119822Y-64755037D01*
X110119824Y-64755037D01*
X110119825Y-64755038D01*
X110119828Y-64755040D01*
X110314874Y-64818415D01*
X110314878Y-64818416D01*
X110517449Y-64850500D01*
X110517452Y-64850500D01*
X110722551Y-64850500D01*
X110925121Y-64818416D01*
X110925125Y-64818415D01*
X111120171Y-64755040D01*
X111120173Y-64755038D01*
X111120178Y-64755037D01*
X111302921Y-64661925D01*
X111468847Y-64541373D01*
X111613873Y-64396347D01*
X111734425Y-64230421D01*
X111801790Y-64098208D01*
X111845055Y-64054944D01*
X111905487Y-64045373D01*
X111960003Y-64073150D01*
X111978210Y-64098209D01*
X112045573Y-64230419D01*
X112100885Y-64306549D01*
X112166127Y-64396347D01*
X112311153Y-64541373D01*
X112477079Y-64661925D01*
X112659822Y-64755037D01*
X112659824Y-64755037D01*
X112659825Y-64755038D01*
X112659828Y-64755040D01*
X112854874Y-64818415D01*
X112854878Y-64818416D01*
X113057449Y-64850500D01*
X113057452Y-64850500D01*
X113262551Y-64850500D01*
X113465121Y-64818416D01*
X113465125Y-64818415D01*
X113660171Y-64755040D01*
X113660173Y-64755038D01*
X113660178Y-64755037D01*
X113842921Y-64661925D01*
X114008847Y-64541373D01*
X114016960Y-64533260D01*
X118197000Y-64533260D01*
X118200384Y-64556483D01*
X118206927Y-64601395D01*
X118250524Y-64690573D01*
X118258302Y-64706483D01*
X118341017Y-64789198D01*
X118394785Y-64815483D01*
X118446104Y-64840572D01*
X118446105Y-64840572D01*
X118446107Y-64840573D01*
X118514240Y-64850500D01*
X118514243Y-64850500D01*
X120485757Y-64850500D01*
X120485760Y-64850500D01*
X120553893Y-64840573D01*
X120658983Y-64789198D01*
X120741698Y-64706483D01*
X120793073Y-64601393D01*
X120803000Y-64533260D01*
X120803000Y-64366401D01*
X120821907Y-64308210D01*
X120871407Y-64272246D01*
X120932593Y-64272246D01*
X120982090Y-64308208D01*
X120982093Y-64308211D01*
X121038473Y-64385813D01*
X121046127Y-64396347D01*
X121191153Y-64541373D01*
X121357079Y-64661925D01*
X121539822Y-64755037D01*
X121539824Y-64755037D01*
X121539825Y-64755038D01*
X121539828Y-64755040D01*
X121734874Y-64818415D01*
X121734878Y-64818416D01*
X121937449Y-64850500D01*
X121937452Y-64850500D01*
X122142551Y-64850500D01*
X122345121Y-64818416D01*
X122345125Y-64818415D01*
X122540171Y-64755040D01*
X122540173Y-64755038D01*
X122540178Y-64755037D01*
X122722921Y-64661925D01*
X122888847Y-64541373D01*
X123033873Y-64396347D01*
X123154425Y-64230421D01*
X123221790Y-64098208D01*
X123265055Y-64054944D01*
X123325487Y-64045373D01*
X123380003Y-64073150D01*
X123398210Y-64098209D01*
X123465573Y-64230419D01*
X123520885Y-64306549D01*
X123586127Y-64396347D01*
X123731153Y-64541373D01*
X123897079Y-64661925D01*
X124079822Y-64755037D01*
X124079824Y-64755037D01*
X124079825Y-64755038D01*
X124079828Y-64755040D01*
X124274874Y-64818415D01*
X124274878Y-64818416D01*
X124477449Y-64850500D01*
X124477452Y-64850500D01*
X124682551Y-64850500D01*
X124885121Y-64818416D01*
X124885125Y-64818415D01*
X125080171Y-64755040D01*
X125080173Y-64755038D01*
X125080178Y-64755037D01*
X125262921Y-64661925D01*
X125428847Y-64541373D01*
X125436960Y-64533260D01*
X129737000Y-64533260D01*
X129740384Y-64556483D01*
X129746927Y-64601395D01*
X129790524Y-64690573D01*
X129798302Y-64706483D01*
X129881017Y-64789198D01*
X129934785Y-64815483D01*
X129986104Y-64840572D01*
X129986105Y-64840572D01*
X129986107Y-64840573D01*
X130054240Y-64850500D01*
X130054243Y-64850500D01*
X132025757Y-64850500D01*
X132025760Y-64850500D01*
X132093893Y-64840573D01*
X132198983Y-64789198D01*
X132281698Y-64706483D01*
X132333073Y-64601393D01*
X132343000Y-64533260D01*
X132343000Y-64366401D01*
X132361907Y-64308210D01*
X132411407Y-64272246D01*
X132472593Y-64272246D01*
X132522090Y-64308208D01*
X132522093Y-64308211D01*
X132578473Y-64385813D01*
X132586127Y-64396347D01*
X132731153Y-64541373D01*
X132897079Y-64661925D01*
X133079822Y-64755037D01*
X133079824Y-64755037D01*
X133079825Y-64755038D01*
X133079828Y-64755040D01*
X133274874Y-64818415D01*
X133274878Y-64818416D01*
X133477449Y-64850500D01*
X133477452Y-64850500D01*
X133682551Y-64850500D01*
X133885121Y-64818416D01*
X133885125Y-64818415D01*
X134080171Y-64755040D01*
X134080173Y-64755038D01*
X134080178Y-64755037D01*
X134262921Y-64661925D01*
X134428847Y-64541373D01*
X134573873Y-64396347D01*
X134694425Y-64230421D01*
X134761790Y-64098208D01*
X134805055Y-64054944D01*
X134865487Y-64045373D01*
X134920003Y-64073150D01*
X134938210Y-64098209D01*
X135005573Y-64230419D01*
X135060885Y-64306549D01*
X135126127Y-64396347D01*
X135271153Y-64541373D01*
X135437079Y-64661925D01*
X135619822Y-64755037D01*
X135619824Y-64755037D01*
X135619825Y-64755038D01*
X135619828Y-64755040D01*
X135814874Y-64818415D01*
X135814878Y-64818416D01*
X136017449Y-64850500D01*
X136017452Y-64850500D01*
X136222551Y-64850500D01*
X136425121Y-64818416D01*
X136425125Y-64818415D01*
X136620171Y-64755040D01*
X136620173Y-64755038D01*
X136620178Y-64755037D01*
X136802921Y-64661925D01*
X136968847Y-64541373D01*
X136976960Y-64533260D01*
X141277000Y-64533260D01*
X141280384Y-64556483D01*
X141286927Y-64601395D01*
X141330524Y-64690573D01*
X141338302Y-64706483D01*
X141421017Y-64789198D01*
X141474785Y-64815483D01*
X141526104Y-64840572D01*
X141526105Y-64840572D01*
X141526107Y-64840573D01*
X141594240Y-64850500D01*
X141594243Y-64850500D01*
X143565757Y-64850500D01*
X143565760Y-64850500D01*
X143633893Y-64840573D01*
X143738983Y-64789198D01*
X143821698Y-64706483D01*
X143873073Y-64601393D01*
X143883000Y-64533260D01*
X143883000Y-64366401D01*
X143901907Y-64308210D01*
X143951407Y-64272246D01*
X144012593Y-64272246D01*
X144062090Y-64308208D01*
X144062093Y-64308211D01*
X144118473Y-64385813D01*
X144126127Y-64396347D01*
X144271153Y-64541373D01*
X144437079Y-64661925D01*
X144619822Y-64755037D01*
X144619824Y-64755037D01*
X144619825Y-64755038D01*
X144619828Y-64755040D01*
X144814874Y-64818415D01*
X144814878Y-64818416D01*
X145017449Y-64850500D01*
X145017452Y-64850500D01*
X145222551Y-64850500D01*
X145425121Y-64818416D01*
X145425125Y-64818415D01*
X145620171Y-64755040D01*
X145620173Y-64755038D01*
X145620178Y-64755037D01*
X145802921Y-64661925D01*
X145968847Y-64541373D01*
X146113873Y-64396347D01*
X146234425Y-64230421D01*
X146301790Y-64098208D01*
X146345055Y-64054944D01*
X146405487Y-64045373D01*
X146460003Y-64073150D01*
X146478210Y-64098209D01*
X146545573Y-64230419D01*
X146600885Y-64306549D01*
X146666127Y-64396347D01*
X146811153Y-64541373D01*
X146977079Y-64661925D01*
X147159822Y-64755037D01*
X147159824Y-64755037D01*
X147159825Y-64755038D01*
X147159828Y-64755040D01*
X147354874Y-64818415D01*
X147354878Y-64818416D01*
X147557449Y-64850500D01*
X147557452Y-64850500D01*
X147762551Y-64850500D01*
X147965121Y-64818416D01*
X147965125Y-64818415D01*
X148160171Y-64755040D01*
X148160173Y-64755038D01*
X148160178Y-64755037D01*
X148342921Y-64661925D01*
X148508847Y-64541373D01*
X148516960Y-64533260D01*
X152777000Y-64533260D01*
X152780384Y-64556483D01*
X152786927Y-64601395D01*
X152830524Y-64690573D01*
X152838302Y-64706483D01*
X152921017Y-64789198D01*
X152974785Y-64815483D01*
X153026104Y-64840572D01*
X153026105Y-64840572D01*
X153026107Y-64840573D01*
X153094240Y-64850500D01*
X153094243Y-64850500D01*
X155065757Y-64850500D01*
X155065760Y-64850500D01*
X155133893Y-64840573D01*
X155238983Y-64789198D01*
X155321698Y-64706483D01*
X155373073Y-64601393D01*
X155383000Y-64533260D01*
X155383000Y-64366401D01*
X155401907Y-64308210D01*
X155451407Y-64272246D01*
X155512593Y-64272246D01*
X155562090Y-64308208D01*
X155562093Y-64308211D01*
X155618473Y-64385813D01*
X155626127Y-64396347D01*
X155771153Y-64541373D01*
X155937079Y-64661925D01*
X156119822Y-64755037D01*
X156119824Y-64755037D01*
X156119825Y-64755038D01*
X156119828Y-64755040D01*
X156314874Y-64818415D01*
X156314878Y-64818416D01*
X156517449Y-64850500D01*
X156517452Y-64850500D01*
X156722551Y-64850500D01*
X156925121Y-64818416D01*
X156925125Y-64818415D01*
X157120171Y-64755040D01*
X157120173Y-64755038D01*
X157120178Y-64755037D01*
X157302921Y-64661925D01*
X157468847Y-64541373D01*
X157613873Y-64396347D01*
X157734425Y-64230421D01*
X157801790Y-64098208D01*
X157845055Y-64054944D01*
X157905487Y-64045373D01*
X157960003Y-64073150D01*
X157978210Y-64098209D01*
X158045573Y-64230419D01*
X158100885Y-64306549D01*
X158166127Y-64396347D01*
X158311153Y-64541373D01*
X158477079Y-64661925D01*
X158659822Y-64755037D01*
X158659824Y-64755037D01*
X158659825Y-64755038D01*
X158659828Y-64755040D01*
X158854874Y-64818415D01*
X158854878Y-64818416D01*
X159057449Y-64850500D01*
X159057452Y-64850500D01*
X159262551Y-64850500D01*
X159465121Y-64818416D01*
X159465125Y-64818415D01*
X159660171Y-64755040D01*
X159660173Y-64755038D01*
X159660178Y-64755037D01*
X159842921Y-64661925D01*
X160008847Y-64541373D01*
X160153873Y-64396347D01*
X160163381Y-64383260D01*
X164509500Y-64383260D01*
X164511407Y-64396347D01*
X164519427Y-64451395D01*
X164559447Y-64533256D01*
X164570802Y-64556483D01*
X164653517Y-64639198D01*
X164700006Y-64661925D01*
X164758604Y-64690572D01*
X164758605Y-64690572D01*
X164758607Y-64690573D01*
X164826740Y-64700500D01*
X164826743Y-64700500D01*
X166593257Y-64700500D01*
X166593260Y-64700500D01*
X166661393Y-64690573D01*
X166766483Y-64639198D01*
X166849198Y-64556483D01*
X166900573Y-64451393D01*
X166910500Y-64383260D01*
X166910500Y-64031745D01*
X166929407Y-63973554D01*
X166978907Y-63937590D01*
X167040093Y-63937590D01*
X167089593Y-63973554D01*
X167099225Y-63989906D01*
X167163332Y-64127386D01*
X167288783Y-64306549D01*
X167443450Y-64461216D01*
X167622613Y-64586667D01*
X167820842Y-64679102D01*
X168032118Y-64735713D01*
X168149999Y-64746026D01*
X168150000Y-64746026D01*
X168150000Y-63990842D01*
X168184174Y-64000000D01*
X168315826Y-64000000D01*
X168350000Y-63990842D01*
X168350000Y-64746026D01*
X168467881Y-64735713D01*
X168679157Y-64679102D01*
X168877386Y-64586667D01*
X169056549Y-64461216D01*
X169211216Y-64306549D01*
X169336667Y-64127386D01*
X169429102Y-63929157D01*
X169485713Y-63717881D01*
X169496026Y-63600000D01*
X168740843Y-63600000D01*
X168750000Y-63565826D01*
X168750000Y-63434174D01*
X168740843Y-63400000D01*
X169496026Y-63400000D01*
X169496026Y-63399999D01*
X169485713Y-63282118D01*
X169429102Y-63070842D01*
X169336667Y-62872614D01*
X169211216Y-62693450D01*
X169056549Y-62538783D01*
X168877386Y-62413332D01*
X168679157Y-62320897D01*
X168467886Y-62264288D01*
X168350000Y-62253973D01*
X168350000Y-63009157D01*
X168315826Y-63000000D01*
X168184174Y-63000000D01*
X168150000Y-63009157D01*
X168150000Y-62253973D01*
X168149999Y-62253973D01*
X168032113Y-62264288D01*
X167820842Y-62320897D01*
X167622614Y-62413332D01*
X167443450Y-62538783D01*
X167288783Y-62693450D01*
X167163331Y-62872615D01*
X167163327Y-62872623D01*
X167099224Y-63010093D01*
X167057496Y-63054841D01*
X166997435Y-63066516D01*
X166941982Y-63040658D01*
X166912319Y-62987144D01*
X166910500Y-62968254D01*
X166910500Y-62616743D01*
X166908593Y-62603653D01*
X166900573Y-62548607D01*
X166899596Y-62546609D01*
X166860551Y-62466740D01*
X166849198Y-62443517D01*
X166766483Y-62360802D01*
X166766481Y-62360801D01*
X166661395Y-62309427D01*
X166634139Y-62305456D01*
X166593260Y-62299500D01*
X164826740Y-62299500D01*
X164792673Y-62304463D01*
X164758604Y-62309427D01*
X164653518Y-62360801D01*
X164570801Y-62443518D01*
X164519427Y-62548604D01*
X164518628Y-62554089D01*
X164509500Y-62616740D01*
X164509500Y-64383260D01*
X160163381Y-64383260D01*
X160274425Y-64230421D01*
X160367537Y-64047678D01*
X160367538Y-64047673D01*
X160367540Y-64047671D01*
X160430915Y-63852625D01*
X160430916Y-63852621D01*
X160463000Y-63650051D01*
X160463000Y-63349948D01*
X160430916Y-63147378D01*
X160430915Y-63147374D01*
X160367540Y-62952328D01*
X160367538Y-62952325D01*
X160367537Y-62952324D01*
X160367537Y-62952322D01*
X160274425Y-62769579D01*
X160153873Y-62603653D01*
X160008847Y-62458627D01*
X159842921Y-62338075D01*
X159842920Y-62338074D01*
X159842918Y-62338073D01*
X159660174Y-62244961D01*
X159660171Y-62244959D01*
X159465125Y-62181584D01*
X159465121Y-62181583D01*
X159262551Y-62149500D01*
X159262548Y-62149500D01*
X159057452Y-62149500D01*
X159057449Y-62149500D01*
X158854878Y-62181583D01*
X158854874Y-62181584D01*
X158659828Y-62244959D01*
X158659825Y-62244961D01*
X158477081Y-62338073D01*
X158311154Y-62458626D01*
X158166126Y-62603654D01*
X158045573Y-62769581D01*
X157978210Y-62901790D01*
X157934945Y-62945055D01*
X157874513Y-62954626D01*
X157819996Y-62926849D01*
X157801790Y-62901790D01*
X157734426Y-62769581D01*
X157734425Y-62769579D01*
X157613873Y-62603653D01*
X157468847Y-62458627D01*
X157302921Y-62338075D01*
X157302920Y-62338074D01*
X157302918Y-62338073D01*
X157120174Y-62244961D01*
X157120171Y-62244959D01*
X156925125Y-62181584D01*
X156925121Y-62181583D01*
X156722551Y-62149500D01*
X156722548Y-62149500D01*
X156517452Y-62149500D01*
X156517449Y-62149500D01*
X156314878Y-62181583D01*
X156314874Y-62181584D01*
X156119828Y-62244959D01*
X156119825Y-62244961D01*
X155937081Y-62338073D01*
X155771154Y-62458626D01*
X155626126Y-62603654D01*
X155562093Y-62691789D01*
X155512593Y-62727753D01*
X155451407Y-62727753D01*
X155401907Y-62691789D01*
X155383000Y-62633598D01*
X155383000Y-62466743D01*
X155383000Y-62466740D01*
X155373073Y-62398607D01*
X155365787Y-62383704D01*
X155329476Y-62309427D01*
X155321698Y-62293517D01*
X155238983Y-62210802D01*
X155238981Y-62210801D01*
X155133895Y-62159427D01*
X155106639Y-62155456D01*
X155065760Y-62149500D01*
X153094240Y-62149500D01*
X153060173Y-62154463D01*
X153026104Y-62159427D01*
X152921018Y-62210801D01*
X152838301Y-62293518D01*
X152786927Y-62398604D01*
X152781963Y-62432673D01*
X152777000Y-62466740D01*
X152777000Y-64533260D01*
X148516960Y-64533260D01*
X148653873Y-64396347D01*
X148774425Y-64230421D01*
X148867537Y-64047678D01*
X148867538Y-64047673D01*
X148867540Y-64047671D01*
X148930915Y-63852625D01*
X148930916Y-63852621D01*
X148963000Y-63650051D01*
X148963000Y-63349948D01*
X148930916Y-63147378D01*
X148930915Y-63147374D01*
X148867540Y-62952328D01*
X148867538Y-62952325D01*
X148867537Y-62952324D01*
X148867537Y-62952322D01*
X148774425Y-62769579D01*
X148653873Y-62603653D01*
X148508847Y-62458627D01*
X148342921Y-62338075D01*
X148342920Y-62338074D01*
X148342918Y-62338073D01*
X148160174Y-62244961D01*
X148160171Y-62244959D01*
X147965125Y-62181584D01*
X147965121Y-62181583D01*
X147762551Y-62149500D01*
X147762548Y-62149500D01*
X147557452Y-62149500D01*
X147557449Y-62149500D01*
X147354878Y-62181583D01*
X147354874Y-62181584D01*
X147159828Y-62244959D01*
X147159825Y-62244961D01*
X146977081Y-62338073D01*
X146811154Y-62458626D01*
X146666126Y-62603654D01*
X146545573Y-62769581D01*
X146478210Y-62901790D01*
X146434945Y-62945055D01*
X146374513Y-62954626D01*
X146319996Y-62926849D01*
X146301790Y-62901790D01*
X146234426Y-62769581D01*
X146234425Y-62769579D01*
X146113873Y-62603653D01*
X145968847Y-62458627D01*
X145802921Y-62338075D01*
X145802920Y-62338074D01*
X145802918Y-62338073D01*
X145620174Y-62244961D01*
X145620171Y-62244959D01*
X145425125Y-62181584D01*
X145425121Y-62181583D01*
X145222551Y-62149500D01*
X145222548Y-62149500D01*
X145017452Y-62149500D01*
X145017449Y-62149500D01*
X144814878Y-62181583D01*
X144814874Y-62181584D01*
X144619828Y-62244959D01*
X144619825Y-62244961D01*
X144437081Y-62338073D01*
X144271154Y-62458626D01*
X144126126Y-62603654D01*
X144062093Y-62691789D01*
X144012593Y-62727753D01*
X143951407Y-62727753D01*
X143901907Y-62691789D01*
X143883000Y-62633598D01*
X143883000Y-62466743D01*
X143883000Y-62466740D01*
X143873073Y-62398607D01*
X143865787Y-62383704D01*
X143829476Y-62309427D01*
X143821698Y-62293517D01*
X143738983Y-62210802D01*
X143738981Y-62210801D01*
X143633895Y-62159427D01*
X143606639Y-62155456D01*
X143565760Y-62149500D01*
X141594240Y-62149500D01*
X141560173Y-62154463D01*
X141526104Y-62159427D01*
X141421018Y-62210801D01*
X141338301Y-62293518D01*
X141286927Y-62398604D01*
X141281963Y-62432673D01*
X141277000Y-62466740D01*
X141277000Y-64533260D01*
X136976960Y-64533260D01*
X137113873Y-64396347D01*
X137234425Y-64230421D01*
X137327537Y-64047678D01*
X137327538Y-64047673D01*
X137327540Y-64047671D01*
X137390915Y-63852625D01*
X137390916Y-63852621D01*
X137423000Y-63650051D01*
X137423000Y-63349948D01*
X137390916Y-63147378D01*
X137390915Y-63147374D01*
X137327540Y-62952328D01*
X137327538Y-62952325D01*
X137327537Y-62952324D01*
X137327537Y-62952322D01*
X137234425Y-62769579D01*
X137113873Y-62603653D01*
X136968847Y-62458627D01*
X136802921Y-62338075D01*
X136802920Y-62338074D01*
X136802918Y-62338073D01*
X136620174Y-62244961D01*
X136620171Y-62244959D01*
X136425125Y-62181584D01*
X136425121Y-62181583D01*
X136222551Y-62149500D01*
X136222548Y-62149500D01*
X136017452Y-62149500D01*
X136017449Y-62149500D01*
X135814878Y-62181583D01*
X135814874Y-62181584D01*
X135619828Y-62244959D01*
X135619825Y-62244961D01*
X135437081Y-62338073D01*
X135271154Y-62458626D01*
X135126126Y-62603654D01*
X135005573Y-62769581D01*
X134938210Y-62901790D01*
X134894945Y-62945055D01*
X134834513Y-62954626D01*
X134779996Y-62926849D01*
X134761790Y-62901790D01*
X134694426Y-62769581D01*
X134694425Y-62769579D01*
X134573873Y-62603653D01*
X134428847Y-62458627D01*
X134262921Y-62338075D01*
X134262920Y-62338074D01*
X134262918Y-62338073D01*
X134080174Y-62244961D01*
X134080171Y-62244959D01*
X133885125Y-62181584D01*
X133885121Y-62181583D01*
X133682551Y-62149500D01*
X133682548Y-62149500D01*
X133477452Y-62149500D01*
X133477449Y-62149500D01*
X133274878Y-62181583D01*
X133274874Y-62181584D01*
X133079828Y-62244959D01*
X133079825Y-62244961D01*
X132897081Y-62338073D01*
X132731154Y-62458626D01*
X132586126Y-62603654D01*
X132522093Y-62691789D01*
X132472593Y-62727753D01*
X132411407Y-62727753D01*
X132361907Y-62691789D01*
X132343000Y-62633598D01*
X132343000Y-62466743D01*
X132343000Y-62466740D01*
X132333073Y-62398607D01*
X132325787Y-62383704D01*
X132289476Y-62309427D01*
X132281698Y-62293517D01*
X132198983Y-62210802D01*
X132198981Y-62210801D01*
X132093895Y-62159427D01*
X132066639Y-62155456D01*
X132025760Y-62149500D01*
X130054240Y-62149500D01*
X130020173Y-62154463D01*
X129986104Y-62159427D01*
X129881018Y-62210801D01*
X129798301Y-62293518D01*
X129746927Y-62398604D01*
X129741963Y-62432673D01*
X129737000Y-62466740D01*
X129737000Y-64533260D01*
X125436960Y-64533260D01*
X125573873Y-64396347D01*
X125694425Y-64230421D01*
X125787537Y-64047678D01*
X125787538Y-64047673D01*
X125787540Y-64047671D01*
X125850915Y-63852625D01*
X125850916Y-63852621D01*
X125883000Y-63650051D01*
X125883000Y-63349948D01*
X125850916Y-63147378D01*
X125850915Y-63147374D01*
X125787540Y-62952328D01*
X125787538Y-62952325D01*
X125787537Y-62952324D01*
X125787537Y-62952322D01*
X125694425Y-62769579D01*
X125573873Y-62603653D01*
X125428847Y-62458627D01*
X125262921Y-62338075D01*
X125262920Y-62338074D01*
X125262918Y-62338073D01*
X125080174Y-62244961D01*
X125080171Y-62244959D01*
X124885125Y-62181584D01*
X124885121Y-62181583D01*
X124682551Y-62149500D01*
X124682548Y-62149500D01*
X124477452Y-62149500D01*
X124477449Y-62149500D01*
X124274878Y-62181583D01*
X124274874Y-62181584D01*
X124079828Y-62244959D01*
X124079825Y-62244961D01*
X123897081Y-62338073D01*
X123731154Y-62458626D01*
X123586126Y-62603654D01*
X123465573Y-62769581D01*
X123398210Y-62901790D01*
X123354945Y-62945055D01*
X123294513Y-62954626D01*
X123239996Y-62926849D01*
X123221790Y-62901790D01*
X123154426Y-62769581D01*
X123154425Y-62769579D01*
X123033873Y-62603653D01*
X122888847Y-62458627D01*
X122722921Y-62338075D01*
X122722920Y-62338074D01*
X122722918Y-62338073D01*
X122540174Y-62244961D01*
X122540171Y-62244959D01*
X122345125Y-62181584D01*
X122345121Y-62181583D01*
X122142551Y-62149500D01*
X122142548Y-62149500D01*
X121937452Y-62149500D01*
X121937449Y-62149500D01*
X121734878Y-62181583D01*
X121734874Y-62181584D01*
X121539828Y-62244959D01*
X121539825Y-62244961D01*
X121357081Y-62338073D01*
X121191154Y-62458626D01*
X121046126Y-62603654D01*
X120982093Y-62691789D01*
X120932593Y-62727753D01*
X120871407Y-62727753D01*
X120821907Y-62691789D01*
X120803000Y-62633598D01*
X120803000Y-62466743D01*
X120803000Y-62466740D01*
X120793073Y-62398607D01*
X120785787Y-62383704D01*
X120749476Y-62309427D01*
X120741698Y-62293517D01*
X120658983Y-62210802D01*
X120658981Y-62210801D01*
X120553895Y-62159427D01*
X120526639Y-62155456D01*
X120485760Y-62149500D01*
X118514240Y-62149500D01*
X118480173Y-62154463D01*
X118446104Y-62159427D01*
X118341018Y-62210801D01*
X118258301Y-62293518D01*
X118206927Y-62398604D01*
X118201963Y-62432673D01*
X118197000Y-62466740D01*
X118197000Y-64533260D01*
X114016960Y-64533260D01*
X114153873Y-64396347D01*
X114274425Y-64230421D01*
X114367537Y-64047678D01*
X114367538Y-64047673D01*
X114367540Y-64047671D01*
X114430915Y-63852625D01*
X114430916Y-63852621D01*
X114463000Y-63650051D01*
X114463000Y-63349948D01*
X114430916Y-63147378D01*
X114430915Y-63147374D01*
X114367540Y-62952328D01*
X114367538Y-62952325D01*
X114367537Y-62952324D01*
X114367537Y-62952322D01*
X114274425Y-62769579D01*
X114153873Y-62603653D01*
X114008847Y-62458627D01*
X113842921Y-62338075D01*
X113842920Y-62338074D01*
X113842918Y-62338073D01*
X113660174Y-62244961D01*
X113660171Y-62244959D01*
X113465125Y-62181584D01*
X113465121Y-62181583D01*
X113262551Y-62149500D01*
X113262548Y-62149500D01*
X113057452Y-62149500D01*
X113057449Y-62149500D01*
X112854878Y-62181583D01*
X112854874Y-62181584D01*
X112659828Y-62244959D01*
X112659825Y-62244961D01*
X112477081Y-62338073D01*
X112311154Y-62458626D01*
X112166126Y-62603654D01*
X112045573Y-62769581D01*
X111978210Y-62901790D01*
X111934945Y-62945055D01*
X111874513Y-62954626D01*
X111819996Y-62926849D01*
X111801790Y-62901790D01*
X111734426Y-62769581D01*
X111734425Y-62769579D01*
X111613873Y-62603653D01*
X111468847Y-62458627D01*
X111302921Y-62338075D01*
X111302920Y-62338074D01*
X111302918Y-62338073D01*
X111120174Y-62244961D01*
X111120171Y-62244959D01*
X110925125Y-62181584D01*
X110925121Y-62181583D01*
X110722551Y-62149500D01*
X110722548Y-62149500D01*
X110517452Y-62149500D01*
X110517449Y-62149500D01*
X110314878Y-62181583D01*
X110314874Y-62181584D01*
X110119828Y-62244959D01*
X110119825Y-62244961D01*
X109937081Y-62338073D01*
X109771154Y-62458626D01*
X109626126Y-62603654D01*
X109562093Y-62691789D01*
X109512593Y-62727753D01*
X109451407Y-62727753D01*
X109401907Y-62691789D01*
X109383000Y-62633598D01*
X109383000Y-62466743D01*
X109383000Y-62466740D01*
X109373073Y-62398607D01*
X109365787Y-62383704D01*
X109329476Y-62309427D01*
X109321698Y-62293517D01*
X109238983Y-62210802D01*
X109238981Y-62210801D01*
X109133895Y-62159427D01*
X109106639Y-62155456D01*
X109065760Y-62149500D01*
X107094240Y-62149500D01*
X107060173Y-62154463D01*
X107026104Y-62159427D01*
X106921018Y-62210801D01*
X106838301Y-62293518D01*
X106786927Y-62398604D01*
X106781963Y-62432673D01*
X106777000Y-62466740D01*
X106777000Y-64533260D01*
X98570950Y-64533260D01*
X98526164Y-64250496D01*
X98428502Y-63886014D01*
X98428497Y-63885997D01*
X98293276Y-63533738D01*
X98121972Y-63197534D01*
X98121966Y-63197523D01*
X97916455Y-62881066D01*
X97678996Y-62587828D01*
X97616295Y-62525127D01*
X96202081Y-63939339D01*
X96060658Y-63797916D01*
X97474872Y-62383704D01*
X97412171Y-62321003D01*
X97118933Y-62083544D01*
X96802476Y-61878033D01*
X96802465Y-61878027D01*
X96466261Y-61706723D01*
X96114002Y-61571502D01*
X96113985Y-61571497D01*
X95749503Y-61473835D01*
X95376827Y-61414808D01*
X95376807Y-61414806D01*
X95000006Y-61395060D01*
X94999994Y-61395060D01*
X94623192Y-61414806D01*
X94623172Y-61414808D01*
X94250496Y-61473835D01*
X93886014Y-61571497D01*
X93885997Y-61571502D01*
X93533738Y-61706723D01*
X93197534Y-61878027D01*
X93197523Y-61878033D01*
X92881066Y-62083544D01*
X92587825Y-62321005D01*
X92587821Y-62321009D01*
X92525126Y-62383703D01*
X93939340Y-63797917D01*
X93797917Y-63939340D01*
X92383703Y-62525126D01*
X92321009Y-62587821D01*
X92321005Y-62587825D01*
X92083544Y-62881066D01*
X91878033Y-63197523D01*
X91878027Y-63197534D01*
X91706723Y-63533738D01*
X91571502Y-63885997D01*
X91571497Y-63886014D01*
X91473835Y-64250496D01*
X91414808Y-64623172D01*
X91414806Y-64623192D01*
X91395060Y-64999993D01*
X91395060Y-65000006D01*
X90100547Y-65000006D01*
X90100594Y-64997847D01*
X90105998Y-64874077D01*
X90118956Y-64577281D01*
X90119706Y-64568705D01*
X90174370Y-64153490D01*
X90175870Y-64144989D01*
X90197954Y-64045373D01*
X90266513Y-63736122D01*
X90268738Y-63727817D01*
X90394678Y-63328387D01*
X90397630Y-63320278D01*
X90403127Y-63307007D01*
X90557898Y-62933356D01*
X90561533Y-62925562D01*
X90754915Y-62554079D01*
X90759222Y-62546618D01*
X90984253Y-62193389D01*
X90989192Y-62186338D01*
X91244146Y-61854074D01*
X91249665Y-61847497D01*
X91532638Y-61538685D01*
X91538685Y-61532638D01*
X91847497Y-61249665D01*
X91854074Y-61244146D01*
X92186338Y-60989192D01*
X92193389Y-60984253D01*
X92546618Y-60759222D01*
X92554079Y-60754915D01*
X92925562Y-60561533D01*
X92933356Y-60557898D01*
X93320285Y-60397627D01*
X93328387Y-60394678D01*
X93727817Y-60268738D01*
X93736122Y-60266513D01*
X94144989Y-60175870D01*
X94153490Y-60174370D01*
X94568705Y-60119706D01*
X94577281Y-60118956D01*
X94997847Y-60100593D01*
X95002165Y-60100500D01*
X95026929Y-60100500D01*
X174973071Y-60100500D01*
X174997835Y-60100500D01*
X175002152Y-60100593D01*
G37*
%TD.AperFunction*%
%TD*%
M02*
