%TF.GenerationSoftware,KiCad,Pcbnew,7.0.7*%
%TF.CreationDate,2023-11-30T13:52:08+01:00*%
%TF.ProjectId,CC_Load,43435f4c-6f61-4642-9e6b-696361645f70,rev?*%
%TF.SameCoordinates,Original*%
%TF.FileFunction,Soldermask,Top*%
%TF.FilePolarity,Negative*%
%FSLAX46Y46*%
G04 Gerber Fmt 4.6, Leading zero omitted, Abs format (unit mm)*
G04 Created by KiCad (PCBNEW 7.0.7) date 2023-11-30 13:52:08*
%MOMM*%
%LPD*%
G01*
G04 APERTURE LIST*
G04 Aperture macros list*
%AMRoundRect*
0 Rectangle with rounded corners*
0 $1 Rounding radius*
0 $2 $3 $4 $5 $6 $7 $8 $9 X,Y pos of 4 corners*
0 Add a 4 corners polygon primitive as box body*
4,1,4,$2,$3,$4,$5,$6,$7,$8,$9,$2,$3,0*
0 Add four circle primitives for the rounded corners*
1,1,$1+$1,$2,$3*
1,1,$1+$1,$4,$5*
1,1,$1+$1,$6,$7*
1,1,$1+$1,$8,$9*
0 Add four rect primitives between the rounded corners*
20,1,$1+$1,$2,$3,$4,$5,0*
20,1,$1+$1,$4,$5,$6,$7,0*
20,1,$1+$1,$6,$7,$8,$9,0*
20,1,$1+$1,$8,$9,$2,$3,0*%
G04 Aperture macros list end*
%ADD10RoundRect,0.250000X0.325000X0.650000X-0.325000X0.650000X-0.325000X-0.650000X0.325000X-0.650000X0*%
%ADD11O,1.700000X1.700000*%
%ADD12R,1.700000X1.700000*%
%ADD13R,2.400000X1.600000*%
%ADD14O,2.400000X1.600000*%
%ADD15R,2.000000X1.905000*%
%ADD16O,2.000000X1.905000*%
%ADD17RoundRect,0.250000X-0.312500X-0.625000X0.312500X-0.625000X0.312500X0.625000X-0.312500X0.625000X0*%
%ADD18RoundRect,0.250000X0.625000X-0.312500X0.625000X0.312500X-0.625000X0.312500X-0.625000X-0.312500X0*%
%ADD19RoundRect,0.250000X0.312500X0.625000X-0.312500X0.625000X-0.312500X-0.625000X0.312500X-0.625000X0*%
%ADD20C,2.400000*%
%ADD21O,2.400000X2.400000*%
%ADD22RoundRect,0.250000X-0.625000X0.312500X-0.625000X-0.312500X0.625000X-0.312500X0.625000X0.312500X0*%
%ADD23O,1.905000X2.000000*%
%ADD24R,1.905000X2.000000*%
%ADD25C,6.400000*%
%ADD26R,2.000000X2.000000*%
%ADD27O,2.000000X2.000000*%
%ADD28RoundRect,0.250000X-0.325000X-0.650000X0.325000X-0.650000X0.325000X0.650000X-0.325000X0.650000X0*%
%ADD29RoundRect,0.250000X-0.650000X0.325000X-0.650000X-0.325000X0.650000X-0.325000X0.650000X0.325000X0*%
%ADD30RoundRect,0.250000X0.650000X-0.325000X0.650000X0.325000X-0.650000X0.325000X-0.650000X-0.325000X0*%
%ADD31R,1.600000X1.600000*%
%ADD32C,1.600000*%
%ADD33C,1.524000*%
%ADD34O,1.600000X1.600000*%
G04 APERTURE END LIST*
D10*
%TO.C,C9*%
X125475000Y-77500000D03*
X122525000Y-77500000D03*
%TD*%
D11*
%TO.C,RV1*%
X164000000Y-70080000D03*
X164000000Y-67540000D03*
D12*
X164000000Y-65000000D03*
%TD*%
D13*
%TO.C,U2*%
X119175000Y-80700000D03*
D14*
X119175000Y-83240000D03*
X119175000Y-85780000D03*
X119175000Y-88320000D03*
X126795000Y-88320000D03*
X126795000Y-85780000D03*
X126795000Y-83240000D03*
X126795000Y-80700000D03*
%TD*%
D15*
%TO.C,U1*%
X55445000Y-69540000D03*
D16*
X55445000Y-67000000D03*
X55445000Y-64460000D03*
%TD*%
D12*
%TO.C,TH1*%
X105500000Y-44500000D03*
D11*
X105500000Y-47040000D03*
%TD*%
D17*
%TO.C,R24*%
X116037500Y-33000000D03*
X118962500Y-33000000D03*
%TD*%
D18*
%TO.C,R23*%
X154000000Y-35037500D03*
X154000000Y-37962500D03*
%TD*%
D19*
%TO.C,R22*%
X123962500Y-33000000D03*
X121037500Y-33000000D03*
%TD*%
D20*
%TO.C,R21*%
X97970000Y-79500000D03*
D21*
X70030000Y-79500000D03*
%TD*%
D17*
%TO.C,R20*%
X108037500Y-79000000D03*
X110962500Y-79000000D03*
%TD*%
D19*
%TO.C,R19*%
X108575000Y-89000000D03*
X111500000Y-89000000D03*
%TD*%
%TO.C,R18*%
X150962500Y-86500000D03*
X148037500Y-86500000D03*
%TD*%
D17*
%TO.C,R17*%
X150962500Y-83000000D03*
X148037500Y-83000000D03*
%TD*%
D18*
%TO.C,R16*%
X133000000Y-86537500D03*
X133000000Y-89462500D03*
%TD*%
D20*
%TO.C,R15*%
X98000000Y-42530000D03*
D21*
X98000000Y-70470000D03*
%TD*%
D20*
%TO.C,R14*%
X87450000Y-42530000D03*
D21*
X87450000Y-70470000D03*
%TD*%
D20*
%TO.C,R13*%
X76900000Y-42530000D03*
D21*
X76900000Y-70470000D03*
%TD*%
%TO.C,R12*%
X66350000Y-70470000D03*
D20*
X66350000Y-42530000D03*
%TD*%
D19*
%TO.C,R11*%
X100462500Y-39000000D03*
X97537500Y-39000000D03*
%TD*%
%TO.C,R10*%
X88462500Y-39000000D03*
X85537500Y-39000000D03*
%TD*%
%TO.C,R9*%
X76462500Y-39000000D03*
X73537500Y-39000000D03*
%TD*%
%TO.C,R8*%
X61537500Y-39000000D03*
X64462500Y-39000000D03*
%TD*%
%TO.C,R7*%
X132037500Y-80500000D03*
X134962500Y-80500000D03*
%TD*%
D22*
%TO.C,R6*%
X164000000Y-75000000D03*
X164000000Y-77925000D03*
%TD*%
D18*
%TO.C,R5*%
X142000000Y-86537500D03*
X142000000Y-89462500D03*
%TD*%
%TO.C,R4*%
X110500000Y-47425000D03*
X110500000Y-44500000D03*
%TD*%
D17*
%TO.C,R3*%
X55962500Y-44000000D03*
X53037500Y-44000000D03*
%TD*%
D22*
%TO.C,R2*%
X116540000Y-51000000D03*
X116540000Y-53925000D03*
%TD*%
D18*
%TO.C,R1*%
X112000000Y-53925000D03*
X112000000Y-51000000D03*
%TD*%
D23*
%TO.C,Q5*%
X122500000Y-38000000D03*
X119960000Y-38000000D03*
D24*
X117420000Y-38000000D03*
%TD*%
D23*
%TO.C,Q4*%
X104540000Y-35445000D03*
X102000000Y-35445000D03*
D24*
X99460000Y-35445000D03*
%TD*%
D23*
%TO.C,Q3*%
X92540000Y-35445000D03*
X90000000Y-35445000D03*
D24*
X87460000Y-35445000D03*
%TD*%
D23*
%TO.C,Q2*%
X80540000Y-35445000D03*
X78000000Y-35445000D03*
D24*
X75460000Y-35445000D03*
%TD*%
D23*
%TO.C,Q1*%
X68540000Y-35445000D03*
X66000000Y-35445000D03*
D24*
X63460000Y-35445000D03*
%TD*%
D12*
%TO.C,J7*%
X128000000Y-33725000D03*
D11*
X128000000Y-36265000D03*
%TD*%
D12*
%TO.C,J6*%
X165000000Y-53075000D03*
D11*
X165000000Y-50535000D03*
X165000000Y-47995000D03*
X165000000Y-45455000D03*
X165000000Y-42915000D03*
%TD*%
D12*
%TO.C,J5*%
X157000000Y-80100000D03*
D11*
X157000000Y-77560000D03*
X157000000Y-75020000D03*
X157000000Y-72480000D03*
X157000000Y-69940000D03*
X157000000Y-67400000D03*
X157000000Y-64860000D03*
X157000000Y-62320000D03*
X157000000Y-59780000D03*
X157000000Y-57240000D03*
X157000000Y-54700000D03*
X157000000Y-52160000D03*
X157000000Y-49620000D03*
X157000000Y-47080000D03*
X157000000Y-44540000D03*
X157000000Y-42000000D03*
%TD*%
D12*
%TO.C,J4*%
X111000000Y-38275000D03*
D11*
X111000000Y-35735000D03*
%TD*%
D12*
%TO.C,J3*%
X55500000Y-47725000D03*
D11*
X55500000Y-50265000D03*
%TD*%
%TO.C,J2*%
X54500000Y-79500000D03*
D12*
X54500000Y-76960000D03*
%TD*%
%TO.C,J1*%
X105500000Y-58770000D03*
%TD*%
D25*
%TO.C,H4*%
X164000000Y-86000000D03*
%TD*%
%TO.C,H3*%
X56000000Y-86000000D03*
%TD*%
%TO.C,H2*%
X164000000Y-36000000D03*
%TD*%
%TO.C,H1*%
X56000000Y-36000000D03*
%TD*%
D26*
%TO.C,D2*%
X105997500Y-85500000D03*
D27*
X111077500Y-85500000D03*
%TD*%
D26*
%TO.C,D1*%
X120500000Y-52500000D03*
D27*
X125580000Y-52500000D03*
%TD*%
D28*
%TO.C,C8*%
X108062500Y-82000000D03*
X111012500Y-82000000D03*
%TD*%
D29*
%TO.C,C7*%
X137500000Y-86525000D03*
X137500000Y-89475000D03*
%TD*%
D28*
%TO.C,C6*%
X139025000Y-80500000D03*
X141975000Y-80500000D03*
%TD*%
D29*
%TO.C,C5*%
X132250000Y-69975000D03*
X132250000Y-67025000D03*
%TD*%
%TO.C,C4*%
X59000000Y-62550000D03*
X59000000Y-65500000D03*
%TD*%
D30*
%TO.C,C3*%
X59000000Y-71000000D03*
X59000000Y-68050000D03*
%TD*%
D31*
%TO.C,C2*%
X56000000Y-56500000D03*
D32*
X53500000Y-56500000D03*
%TD*%
D31*
%TO.C,C1*%
X61500000Y-77317621D03*
D32*
X61500000Y-79817621D03*
%TD*%
D33*
%TO.C,A2*%
X114230000Y-70130000D03*
X116770000Y-70130000D03*
X119310000Y-70130000D03*
X121850000Y-70130000D03*
X124390000Y-70130000D03*
X115500000Y-46000000D03*
X118040000Y-46000000D03*
X120580000Y-46000000D03*
X123120000Y-46000000D03*
%TD*%
D31*
%TO.C,A1*%
X150610000Y-73550000D03*
D34*
X150610000Y-71010000D03*
X150610000Y-68470000D03*
X150610000Y-65930000D03*
X150610000Y-63390000D03*
X150610000Y-60850000D03*
X150610000Y-58310000D03*
X150610000Y-55770000D03*
X150610000Y-53230000D03*
X150610000Y-50690000D03*
X150610000Y-48150000D03*
X150610000Y-45610000D03*
X150610000Y-43070000D03*
X150610000Y-40530000D03*
X150610000Y-37990000D03*
X135370000Y-37990000D03*
X135370000Y-40530000D03*
X135370000Y-43070000D03*
X135370000Y-45610000D03*
X135370000Y-48150000D03*
X135370000Y-50690000D03*
X135370000Y-53230000D03*
X135370000Y-55770000D03*
X135370000Y-58310000D03*
X135370000Y-60850000D03*
X135370000Y-63390000D03*
X135370000Y-65930000D03*
X135370000Y-68470000D03*
X135370000Y-71010000D03*
X135370000Y-73550000D03*
%TD*%
M02*
