M48
; DRILL file {KiCad 7.0.7} date Thu Nov 30 13:52:09 2023
; FORMAT={-:-/ absolute / inch / decimal}
; #@! TF.CreationDate,2023-11-30T13:52:09+01:00
; #@! TF.GenerationSoftware,Kicad,Pcbnew,7.0.7
; #@! TF.FileFunction,Plated,1,2,PTH
FMAT,2
INCH
; #@! TA.AperFunction,Plated,PTH,ViaDrill
T1C0.0236
; #@! TA.AperFunction,Plated,PTH,ComponentDrill
T2C0.0300
; #@! TA.AperFunction,Plated,PTH,ComponentDrill
T3C0.0315
; #@! TA.AperFunction,Plated,PTH,ComponentDrill
T4C0.0394
; #@! TA.AperFunction,Plated,PTH,ComponentDrill
T5C0.0433
; #@! TA.AperFunction,Plated,PTH,ComponentDrill
T6C0.0472
; #@! TA.AperFunction,Plated,PTH,ComponentDrill
T7C0.1260
%
G90
G05
T1
X2.3425Y-1.5551
X2.815Y-1.5551
X3.2874Y-1.5551
X3.7598Y-1.5551
X4.4094Y-2.8937
X4.4685Y-1.8898
X4.5866Y-2.9724
X4.6972Y-2.8862
X4.8622Y-3.1693
X5.1181Y-1.9094
X5.689Y-3.4843
T2
X4.4972Y-2.761
X4.5472Y-1.811
X4.5972Y-2.761
X4.6472Y-1.811
X4.6972Y-2.761
X4.7472Y-1.811
X4.7972Y-2.761
X4.8472Y-1.811
X4.8972Y-2.761
T3
X2.1063Y-2.2244
X2.2047Y-2.2244
X2.4213Y-3.044
X2.4213Y-3.1424
X4.6919Y-3.1772
X4.6919Y-3.2772
X4.6919Y-3.3772
X4.6919Y-3.4772
X4.9919Y-3.1772
X4.9919Y-3.2772
X4.9919Y-3.3772
X4.9919Y-3.4772
T4
X2.1457Y-3.0299
X2.1457Y-3.1299
X2.185Y-1.8789
X2.185Y-1.9789
X4.1535Y-1.752
X4.1535Y-1.852
X4.1535Y-2.3138
X4.1731Y-3.3661
X4.3701Y-1.4069
X4.3701Y-1.5069
X4.3731Y-3.3661
X4.7441Y-2.0669
X4.9441Y-2.0669
X5.0394Y-1.3278
X5.0394Y-1.4278
X5.3295Y-1.4957
X5.3295Y-1.5957
X5.3295Y-1.6957
X5.3295Y-1.7957
X5.3295Y-1.8957
X5.3295Y-1.9957
X5.3295Y-2.0957
X5.3295Y-2.1957
X5.3295Y-2.2957
X5.3295Y-2.3957
X5.3295Y-2.4957
X5.3295Y-2.5957
X5.3295Y-2.6957
X5.3295Y-2.7957
X5.3295Y-2.8957
X5.9295Y-1.4957
X5.9295Y-1.5957
X5.9295Y-1.6957
X5.9295Y-1.7957
X5.9295Y-1.8957
X5.9295Y-1.9957
X5.9295Y-2.0957
X5.9295Y-2.1957
X5.9295Y-2.2957
X5.9295Y-2.3957
X5.9295Y-2.4957
X5.9295Y-2.5957
X5.9295Y-2.6957
X5.9295Y-2.7957
X5.9295Y-2.8957
X6.1811Y-1.6535
X6.1811Y-1.7535
X6.1811Y-1.8535
X6.1811Y-1.9535
X6.1811Y-2.0535
X6.1811Y-2.1535
X6.1811Y-2.2535
X6.1811Y-2.3535
X6.1811Y-2.4535
X6.1811Y-2.5535
X6.1811Y-2.6535
X6.1811Y-2.7535
X6.1811Y-2.8535
X6.1811Y-2.9535
X6.1811Y-3.0535
X6.1811Y-3.1535
X6.4567Y-2.5591
X6.4567Y-2.6591
X6.4567Y-2.7591
X6.4961Y-1.6896
X6.4961Y-1.7896
X6.4961Y-1.8896
X6.4961Y-1.9896
X6.4961Y-2.0896
T5
X2.1829Y-2.5378
X2.1829Y-2.6378
X2.1829Y-2.7378
X2.4984Y-1.3955
X2.5984Y-1.3955
X2.6984Y-1.3955
X2.9709Y-1.3955
X3.0709Y-1.3955
X3.1709Y-1.3955
X3.4433Y-1.3955
X3.5433Y-1.3955
X3.6433Y-1.3955
X3.9157Y-1.3955
X4.0157Y-1.3955
X4.1157Y-1.3955
X4.6228Y-1.4961
X4.7228Y-1.4961
X4.8228Y-1.4961
T6
X2.6122Y-1.6744
X2.6122Y-2.7744
X2.7571Y-3.1299
X3.0276Y-1.6744
X3.0276Y-2.7744
X3.4429Y-1.6744
X3.4429Y-2.7744
X3.8571Y-3.1299
X3.8583Y-1.6744
X3.8583Y-2.7744
T7
X2.2047Y-1.4173
X2.2047Y-3.3858
X6.4567Y-1.4173
X6.4567Y-3.3858
T0
M30
