%TF.GenerationSoftware,KiCad,Pcbnew,7.0.7*%
%TF.CreationDate,2023-11-30T13:52:08+01:00*%
%TF.ProjectId,CC_Load,43435f4c-6f61-4642-9e6b-696361645f70,rev?*%
%TF.SameCoordinates,Original*%
%TF.FileFunction,Legend,Top*%
%TF.FilePolarity,Positive*%
%FSLAX46Y46*%
G04 Gerber Fmt 4.6, Leading zero omitted, Abs format (unit mm)*
G04 Created by KiCad (PCBNEW 7.0.7) date 2023-11-30 13:52:08*
%MOMM*%
%LPD*%
G01*
G04 APERTURE LIST*
%ADD10C,0.250000*%
%ADD11C,0.150000*%
%ADD12C,0.120000*%
%ADD13C,0.100000*%
G04 APERTURE END LIST*
D10*
G36*
X68414159Y-89393882D02*
G01*
X68458520Y-89482603D01*
X68458520Y-89503000D01*
X67946615Y-89605381D01*
X67946615Y-89482603D01*
X67990975Y-89393883D01*
X68079695Y-89349523D01*
X68325441Y-89349523D01*
X68414159Y-89393882D01*
G37*
G36*
X72420425Y-90137745D02*
G01*
X72363535Y-90166190D01*
X72041601Y-90166190D01*
X71952879Y-90121829D01*
X71908520Y-90033110D01*
X71908520Y-89939746D01*
X71952880Y-89851026D01*
X72041600Y-89806666D01*
X72393044Y-89806666D01*
X72403916Y-89803473D01*
X72415182Y-89804690D01*
X72420425Y-89802947D01*
X72420425Y-90137745D01*
G37*
G36*
X76718921Y-89393882D02*
G01*
X76763282Y-89482603D01*
X76763282Y-89503000D01*
X76251377Y-89605381D01*
X76251377Y-89482603D01*
X76295737Y-89393883D01*
X76384457Y-89349523D01*
X76630203Y-89349523D01*
X76718921Y-89393882D01*
G37*
G36*
X78928445Y-89393882D02*
G01*
X78972806Y-89482603D01*
X78972806Y-89503000D01*
X78460901Y-89605381D01*
X78460901Y-89482603D01*
X78505261Y-89393883D01*
X78593981Y-89349523D01*
X78839727Y-89349523D01*
X78928445Y-89393882D01*
G37*
G36*
X66200568Y-89709047D02*
G01*
X65785519Y-89709047D01*
X65993044Y-89086473D01*
X66200568Y-89709047D01*
G37*
G36*
X66833286Y-86294113D02*
G01*
X66946840Y-86407667D01*
X67010901Y-86663910D01*
X67010901Y-87166469D01*
X66946840Y-87422712D01*
X66833286Y-87536266D01*
X66725440Y-87590190D01*
X66479696Y-87590190D01*
X66371850Y-87536267D01*
X66258295Y-87422713D01*
X66194234Y-87166467D01*
X66194234Y-86663912D01*
X66258295Y-86407666D01*
X66371850Y-86294112D01*
X66479696Y-86240190D01*
X66725440Y-86240190D01*
X66833286Y-86294113D01*
G37*
G36*
X91747572Y-86294113D02*
G01*
X91861126Y-86407667D01*
X91925187Y-86663910D01*
X91925187Y-87166469D01*
X91861126Y-87422712D01*
X91747572Y-87536266D01*
X91639726Y-87590190D01*
X91393982Y-87590190D01*
X91286136Y-87536267D01*
X91172581Y-87422713D01*
X91108520Y-87166467D01*
X91108520Y-86663912D01*
X91172581Y-86407666D01*
X91286136Y-86294112D01*
X91393982Y-86240190D01*
X91639726Y-86240190D01*
X91747572Y-86294113D01*
G37*
G36*
X94649332Y-86300635D02*
G01*
X94766502Y-86417805D01*
X94827484Y-86539770D01*
X94896616Y-86816294D01*
X94896616Y-87014085D01*
X94827484Y-87290609D01*
X94766502Y-87412574D01*
X94649332Y-87529744D01*
X94467996Y-87590190D01*
X94232330Y-87590190D01*
X94232330Y-86240190D01*
X94467996Y-86240190D01*
X94649332Y-86300635D01*
G37*
G36*
X72752949Y-87133047D02*
G01*
X72337900Y-87133047D01*
X72545425Y-86510473D01*
X72752949Y-87133047D01*
G37*
G36*
X93248187Y-87133047D02*
G01*
X92833138Y-87133047D01*
X93040663Y-86510473D01*
X93248187Y-87133047D01*
G37*
G36*
X81690427Y-86294111D02*
G01*
X81737931Y-86341616D01*
X81791854Y-86449460D01*
X81791854Y-86619014D01*
X81737931Y-86726858D01*
X81690427Y-86774363D01*
X81582583Y-86828285D01*
X81127568Y-86828285D01*
X81127568Y-86240190D01*
X81582583Y-86240190D01*
X81690427Y-86294111D01*
G37*
G36*
X83290427Y-86294111D02*
G01*
X83337931Y-86341616D01*
X83391854Y-86449460D01*
X83391854Y-86619014D01*
X83337931Y-86726858D01*
X83290427Y-86774363D01*
X83182583Y-86828285D01*
X82727568Y-86828285D01*
X82727568Y-86240190D01*
X83182583Y-86240190D01*
X83290427Y-86294111D01*
G37*
G36*
X99335820Y-90644761D02*
G01*
X63966139Y-90644761D01*
X63966139Y-90322048D01*
X65338579Y-90322048D01*
X65374491Y-90382638D01*
X65437460Y-90414194D01*
X65507494Y-90406697D01*
X65562356Y-90362527D01*
X65578295Y-90330719D01*
X65702186Y-89959047D01*
X66283902Y-89959047D01*
X66407792Y-90330718D01*
X66447987Y-90388556D01*
X66513071Y-90415480D01*
X66582379Y-90402943D01*
X66633908Y-90354925D01*
X66651296Y-90286672D01*
X66644962Y-90251662D01*
X66581948Y-90062619D01*
X66934711Y-90062619D01*
X66937903Y-90073491D01*
X66936687Y-90084757D01*
X66947907Y-90118520D01*
X67024097Y-90270901D01*
X67039336Y-90287284D01*
X67050765Y-90306526D01*
X67068998Y-90319173D01*
X67072068Y-90322473D01*
X67074741Y-90323156D01*
X67080000Y-90326804D01*
X67232381Y-90402994D01*
X67301700Y-90415468D01*
X67366760Y-90388485D01*
X67406903Y-90330612D01*
X67409386Y-90260222D01*
X67373418Y-90199664D01*
X67344183Y-90179386D01*
X67229070Y-90121830D01*
X67199465Y-90062619D01*
X67696615Y-90062619D01*
X67699807Y-90073491D01*
X67698591Y-90084758D01*
X67709812Y-90118521D01*
X67786003Y-90270902D01*
X67801240Y-90287283D01*
X67812670Y-90306526D01*
X67830906Y-90319175D01*
X67833974Y-90322473D01*
X67836646Y-90323156D01*
X67841905Y-90326804D01*
X67994286Y-90402994D01*
X68005437Y-90405000D01*
X68014970Y-90411127D01*
X68050187Y-90416190D01*
X68354949Y-90416190D01*
X68365821Y-90412997D01*
X68377087Y-90414214D01*
X68410850Y-90402994D01*
X68563231Y-90326804D01*
X68601518Y-90291190D01*
X69144235Y-90291190D01*
X69164078Y-90358770D01*
X69217308Y-90404894D01*
X69287024Y-90414918D01*
X69351093Y-90385659D01*
X69389172Y-90326407D01*
X69394235Y-90291190D01*
X69394235Y-89885823D01*
X69408091Y-89871966D01*
X69778759Y-90366190D01*
X69835181Y-90408348D01*
X69905440Y-90413309D01*
X69967227Y-90379499D01*
X70000927Y-90317650D01*
X69995839Y-90247401D01*
X69978759Y-90216190D01*
X69586662Y-89693395D01*
X69750772Y-89529285D01*
X70363282Y-89529285D01*
X70366474Y-89540157D01*
X70365258Y-89551424D01*
X70376479Y-89585187D01*
X70452670Y-89737568D01*
X70467907Y-89753948D01*
X70479336Y-89773191D01*
X70497572Y-89785840D01*
X70500641Y-89789139D01*
X70503313Y-89789822D01*
X70508571Y-89793469D01*
X70660952Y-89869660D01*
X70672102Y-89871666D01*
X70681637Y-89877794D01*
X70716854Y-89882857D01*
X70915916Y-89882857D01*
X71004637Y-89927217D01*
X71048997Y-90015936D01*
X71048997Y-90033110D01*
X71004637Y-90121829D01*
X70915916Y-90166190D01*
X70670172Y-90166190D01*
X70544183Y-90103196D01*
X70474864Y-90090722D01*
X70409804Y-90117705D01*
X70369661Y-90175578D01*
X70367178Y-90245969D01*
X70403146Y-90306526D01*
X70432381Y-90326804D01*
X70584762Y-90402994D01*
X70595913Y-90405000D01*
X70605446Y-90411127D01*
X70640663Y-90416190D01*
X70945425Y-90416190D01*
X70956297Y-90412997D01*
X70967563Y-90414214D01*
X71001326Y-90402994D01*
X71153707Y-90326804D01*
X71170090Y-90311564D01*
X71189331Y-90300137D01*
X71201978Y-90281903D01*
X71205279Y-90278833D01*
X71205962Y-90276158D01*
X71209609Y-90270902D01*
X71285800Y-90118521D01*
X71287806Y-90107370D01*
X71293934Y-90097836D01*
X71298997Y-90062619D01*
X71658520Y-90062619D01*
X71661712Y-90073491D01*
X71660496Y-90084758D01*
X71671717Y-90118521D01*
X71747908Y-90270902D01*
X71763145Y-90287283D01*
X71774575Y-90306526D01*
X71792811Y-90319175D01*
X71795879Y-90322473D01*
X71798551Y-90323156D01*
X71803810Y-90326804D01*
X71956191Y-90402994D01*
X71967342Y-90405000D01*
X71976875Y-90411127D01*
X72012092Y-90416190D01*
X72393044Y-90416190D01*
X72403916Y-90412997D01*
X72415182Y-90414214D01*
X72448945Y-90402994D01*
X72475805Y-90389563D01*
X72493498Y-90404894D01*
X72563214Y-90414918D01*
X72627283Y-90385659D01*
X72665362Y-90326407D01*
X72670425Y-90291190D01*
X74401378Y-90291190D01*
X74421221Y-90358770D01*
X74474451Y-90404894D01*
X74544167Y-90414918D01*
X74608236Y-90385659D01*
X74646315Y-90326407D01*
X74651378Y-90291190D01*
X74651378Y-89578095D01*
X75315664Y-89578095D01*
X75315664Y-90291190D01*
X75335507Y-90358770D01*
X75388737Y-90404894D01*
X75458453Y-90414918D01*
X75522522Y-90385659D01*
X75560601Y-90326407D01*
X75565664Y-90291190D01*
X75565664Y-90062619D01*
X76001377Y-90062619D01*
X76004569Y-90073491D01*
X76003353Y-90084758D01*
X76014574Y-90118521D01*
X76090765Y-90270902D01*
X76106002Y-90287283D01*
X76117432Y-90306526D01*
X76135668Y-90319175D01*
X76138736Y-90322473D01*
X76141408Y-90323156D01*
X76146667Y-90326804D01*
X76299048Y-90402994D01*
X76310199Y-90405000D01*
X76319732Y-90411127D01*
X76354949Y-90416190D01*
X76659711Y-90416190D01*
X76670583Y-90412997D01*
X76681849Y-90414214D01*
X76715612Y-90402994D01*
X76867993Y-90326804D01*
X76919565Y-90278833D01*
X76937014Y-90210595D01*
X76914802Y-90143756D01*
X76859980Y-90099536D01*
X76789954Y-90091975D01*
X76756191Y-90103196D01*
X76630202Y-90166190D01*
X76384458Y-90166190D01*
X76295736Y-90121829D01*
X76266131Y-90062619D01*
X77448997Y-90062619D01*
X77452189Y-90073491D01*
X77450973Y-90084757D01*
X77462193Y-90118520D01*
X77538383Y-90270901D01*
X77553622Y-90287284D01*
X77565051Y-90306526D01*
X77583284Y-90319173D01*
X77586354Y-90322473D01*
X77589027Y-90323156D01*
X77594286Y-90326804D01*
X77746667Y-90402994D01*
X77815986Y-90415468D01*
X77881046Y-90388485D01*
X77921189Y-90330612D01*
X77923672Y-90260222D01*
X77887704Y-90199664D01*
X77858469Y-90179386D01*
X77743356Y-90121830D01*
X77713751Y-90062619D01*
X78210901Y-90062619D01*
X78214093Y-90073491D01*
X78212877Y-90084758D01*
X78224098Y-90118521D01*
X78300289Y-90270902D01*
X78315526Y-90287283D01*
X78326956Y-90306526D01*
X78345192Y-90319175D01*
X78348260Y-90322473D01*
X78350932Y-90323156D01*
X78356191Y-90326804D01*
X78508572Y-90402994D01*
X78519723Y-90405000D01*
X78529256Y-90411127D01*
X78564473Y-90416190D01*
X78869235Y-90416190D01*
X78880107Y-90412997D01*
X78891373Y-90414214D01*
X78925136Y-90402994D01*
X79077517Y-90326804D01*
X79115804Y-90291190D01*
X79658521Y-90291190D01*
X79678364Y-90358770D01*
X79731594Y-90404894D01*
X79801310Y-90414918D01*
X79865379Y-90385659D01*
X79903458Y-90326407D01*
X79908521Y-90291190D01*
X79908521Y-89655094D01*
X80423282Y-89655094D01*
X80428306Y-89725348D01*
X80470514Y-89781733D01*
X80536507Y-89806348D01*
X80605330Y-89791377D01*
X80633813Y-89770055D01*
X80695661Y-89708207D01*
X80773997Y-89669039D01*
X81022857Y-89793469D01*
X81027330Y-89794274D01*
X81030871Y-89797130D01*
X81061686Y-89800456D01*
X81092177Y-89805944D01*
X81096377Y-89804202D01*
X81100897Y-89804690D01*
X81134660Y-89793470D01*
X81287041Y-89717280D01*
X81288756Y-89715684D01*
X81291047Y-89715186D01*
X81319529Y-89693864D01*
X81395719Y-89617673D01*
X81429474Y-89555855D01*
X81424449Y-89485601D01*
X81382240Y-89429217D01*
X81316247Y-89404603D01*
X81247423Y-89419575D01*
X81218941Y-89440897D01*
X81157094Y-89502744D01*
X81078759Y-89541911D01*
X80829899Y-89417482D01*
X80825424Y-89416676D01*
X80821884Y-89413821D01*
X80791071Y-89410494D01*
X80760579Y-89405007D01*
X80756378Y-89406749D01*
X80751858Y-89406261D01*
X80718095Y-89417482D01*
X80565714Y-89493673D01*
X80564000Y-89495266D01*
X80561711Y-89495765D01*
X80533228Y-89517087D01*
X80457037Y-89593277D01*
X80423282Y-89655094D01*
X79908521Y-89655094D01*
X79908521Y-89558793D01*
X79962442Y-89450949D01*
X80009947Y-89403445D01*
X80117791Y-89349523D01*
X80240664Y-89349523D01*
X80308244Y-89329680D01*
X80354368Y-89276450D01*
X80364392Y-89206734D01*
X80335133Y-89142665D01*
X80275881Y-89104586D01*
X80240664Y-89099523D01*
X80088283Y-89099523D01*
X80077410Y-89102715D01*
X80066144Y-89101499D01*
X80032381Y-89112720D01*
X79895751Y-89181034D01*
X79888678Y-89156943D01*
X79835448Y-89110819D01*
X79765732Y-89100795D01*
X79701663Y-89130054D01*
X79663584Y-89189306D01*
X79658521Y-89224523D01*
X79658521Y-90291190D01*
X79115804Y-90291190D01*
X79129089Y-90278833D01*
X79146538Y-90210595D01*
X79124326Y-90143756D01*
X79069504Y-90099536D01*
X78999478Y-90091975D01*
X78965715Y-90103196D01*
X78839726Y-90166190D01*
X78593982Y-90166190D01*
X78505260Y-90121829D01*
X78460901Y-90033110D01*
X78460901Y-89860332D01*
X79122321Y-89728049D01*
X79150609Y-89713213D01*
X79179664Y-89699945D01*
X79181572Y-89696975D01*
X79184697Y-89695337D01*
X79200470Y-89667568D01*
X79217743Y-89640693D01*
X79218422Y-89635967D01*
X79219486Y-89634095D01*
X79219267Y-89630090D01*
X79222806Y-89605476D01*
X79222806Y-89453095D01*
X79219614Y-89442225D01*
X79220831Y-89430957D01*
X79209610Y-89397194D01*
X79133420Y-89244813D01*
X79118178Y-89228426D01*
X79106752Y-89209189D01*
X79088519Y-89196542D01*
X79085449Y-89193241D01*
X79082774Y-89192557D01*
X79077518Y-89188911D01*
X78925137Y-89112720D01*
X78913986Y-89110713D01*
X78904452Y-89104586D01*
X78869235Y-89099523D01*
X78564473Y-89099523D01*
X78553600Y-89102715D01*
X78542334Y-89101499D01*
X78508571Y-89112720D01*
X78356190Y-89188911D01*
X78339806Y-89204151D01*
X78320567Y-89215578D01*
X78307918Y-89233812D01*
X78304619Y-89236882D01*
X78303935Y-89239555D01*
X78300289Y-89244812D01*
X78224098Y-89397193D01*
X78222091Y-89408343D01*
X78215964Y-89417878D01*
X78210901Y-89453095D01*
X78210901Y-90062619D01*
X77713751Y-90062619D01*
X77698997Y-90033110D01*
X77698997Y-88691190D01*
X77679154Y-88623610D01*
X77625924Y-88577486D01*
X77556208Y-88567462D01*
X77492139Y-88596721D01*
X77454060Y-88655973D01*
X77448997Y-88691190D01*
X77448997Y-90062619D01*
X76266131Y-90062619D01*
X76251377Y-90033110D01*
X76251377Y-89860332D01*
X76912797Y-89728049D01*
X76941085Y-89713213D01*
X76970140Y-89699945D01*
X76972048Y-89696975D01*
X76975173Y-89695337D01*
X76990946Y-89667568D01*
X77008219Y-89640693D01*
X77008898Y-89635967D01*
X77009962Y-89634095D01*
X77009743Y-89630090D01*
X77013282Y-89605476D01*
X77013282Y-89453095D01*
X77010090Y-89442225D01*
X77011307Y-89430957D01*
X77000086Y-89397194D01*
X76923896Y-89244813D01*
X76908654Y-89228426D01*
X76897228Y-89209189D01*
X76878995Y-89196542D01*
X76875925Y-89193241D01*
X76873250Y-89192557D01*
X76867994Y-89188911D01*
X76715613Y-89112720D01*
X76704462Y-89110713D01*
X76694928Y-89104586D01*
X76659711Y-89099523D01*
X76354949Y-89099523D01*
X76344076Y-89102715D01*
X76332810Y-89101499D01*
X76299047Y-89112720D01*
X76146666Y-89188911D01*
X76130282Y-89204151D01*
X76111043Y-89215578D01*
X76098394Y-89233812D01*
X76095095Y-89236882D01*
X76094411Y-89239555D01*
X76090765Y-89244812D01*
X76014574Y-89397193D01*
X76012567Y-89408343D01*
X76006440Y-89417878D01*
X76001377Y-89453095D01*
X76001377Y-90062619D01*
X75565664Y-90062619D01*
X75565664Y-88691190D01*
X75545821Y-88623610D01*
X75492591Y-88577486D01*
X75422875Y-88567462D01*
X75358806Y-88596721D01*
X75320727Y-88655973D01*
X75315664Y-88691190D01*
X75315664Y-89328095D01*
X74651378Y-89328095D01*
X74651378Y-88691190D01*
X74631535Y-88623610D01*
X74578305Y-88577486D01*
X74508589Y-88567462D01*
X74444520Y-88596721D01*
X74406441Y-88655973D01*
X74401378Y-88691190D01*
X74401378Y-90291190D01*
X72670425Y-90291190D01*
X72670425Y-89453095D01*
X72667233Y-89442225D01*
X72668450Y-89430957D01*
X72657229Y-89397194D01*
X72581039Y-89244813D01*
X72565797Y-89228426D01*
X72554371Y-89209189D01*
X72536138Y-89196542D01*
X72533068Y-89193241D01*
X72530393Y-89192557D01*
X72525137Y-89188911D01*
X72372756Y-89112720D01*
X72361605Y-89110713D01*
X72352071Y-89104586D01*
X72316854Y-89099523D01*
X72012092Y-89099523D01*
X72001219Y-89102715D01*
X71989953Y-89101499D01*
X71956190Y-89112720D01*
X71803809Y-89188911D01*
X71752238Y-89236882D01*
X71734789Y-89305119D01*
X71757001Y-89371958D01*
X71811824Y-89416178D01*
X71881850Y-89423738D01*
X71915613Y-89412517D01*
X72041600Y-89349523D01*
X72287346Y-89349523D01*
X72376064Y-89393882D01*
X72420425Y-89482603D01*
X72420425Y-89528221D01*
X72363535Y-89556666D01*
X72012092Y-89556666D01*
X72001219Y-89559858D01*
X71989953Y-89558642D01*
X71956190Y-89569863D01*
X71803809Y-89646054D01*
X71787425Y-89661294D01*
X71768186Y-89672721D01*
X71755537Y-89690955D01*
X71752238Y-89694025D01*
X71751554Y-89696698D01*
X71747908Y-89701955D01*
X71671717Y-89854336D01*
X71669710Y-89865486D01*
X71663583Y-89875021D01*
X71658520Y-89910238D01*
X71658520Y-90062619D01*
X71298997Y-90062619D01*
X71298997Y-89986428D01*
X71295804Y-89975555D01*
X71297021Y-89964289D01*
X71285800Y-89930526D01*
X71209609Y-89778145D01*
X71194370Y-89761763D01*
X71182942Y-89742521D01*
X71164705Y-89729871D01*
X71161638Y-89726574D01*
X71158965Y-89725890D01*
X71153707Y-89722243D01*
X71001326Y-89646053D01*
X70990174Y-89644046D01*
X70980642Y-89637920D01*
X70945425Y-89632857D01*
X70746362Y-89632857D01*
X70657642Y-89588496D01*
X70613282Y-89499776D01*
X70613282Y-89482603D01*
X70657642Y-89393883D01*
X70746362Y-89349523D01*
X70915917Y-89349523D01*
X71041904Y-89412517D01*
X71111223Y-89424992D01*
X71176283Y-89398009D01*
X71216427Y-89340136D01*
X71218909Y-89269746D01*
X71182942Y-89209189D01*
X71153708Y-89188911D01*
X71001327Y-89112720D01*
X70990176Y-89110713D01*
X70980642Y-89104586D01*
X70945425Y-89099523D01*
X70716854Y-89099523D01*
X70705981Y-89102715D01*
X70694715Y-89101499D01*
X70660952Y-89112720D01*
X70508571Y-89188911D01*
X70492187Y-89204151D01*
X70472948Y-89215578D01*
X70460299Y-89233812D01*
X70457000Y-89236882D01*
X70456316Y-89239555D01*
X70452670Y-89244812D01*
X70376479Y-89397193D01*
X70374472Y-89408343D01*
X70368345Y-89417878D01*
X70363282Y-89453095D01*
X70363282Y-89529285D01*
X69750772Y-89529285D01*
X69967147Y-89312911D01*
X70000902Y-89251094D01*
X69995878Y-89180840D01*
X69953669Y-89124455D01*
X69887676Y-89099841D01*
X69818853Y-89114813D01*
X69790371Y-89136135D01*
X69394235Y-89532271D01*
X69394235Y-88691190D01*
X69374392Y-88623610D01*
X69321162Y-88577486D01*
X69251446Y-88567462D01*
X69187377Y-88596721D01*
X69149298Y-88655973D01*
X69144235Y-88691190D01*
X69144235Y-90291190D01*
X68601518Y-90291190D01*
X68614803Y-90278833D01*
X68632252Y-90210595D01*
X68610040Y-90143756D01*
X68555218Y-90099536D01*
X68485192Y-90091975D01*
X68451429Y-90103196D01*
X68325440Y-90166190D01*
X68079696Y-90166190D01*
X67990974Y-90121829D01*
X67946615Y-90033110D01*
X67946615Y-89860333D01*
X68608035Y-89728049D01*
X68636323Y-89713213D01*
X68665378Y-89699945D01*
X68667286Y-89696975D01*
X68670411Y-89695337D01*
X68686184Y-89667568D01*
X68703457Y-89640693D01*
X68704136Y-89635967D01*
X68705200Y-89634095D01*
X68704981Y-89630090D01*
X68708520Y-89605476D01*
X68708520Y-89453095D01*
X68705328Y-89442225D01*
X68706545Y-89430957D01*
X68695324Y-89397194D01*
X68619134Y-89244813D01*
X68603892Y-89228426D01*
X68592466Y-89209189D01*
X68574233Y-89196542D01*
X68571163Y-89193241D01*
X68568488Y-89192557D01*
X68563232Y-89188911D01*
X68410851Y-89112720D01*
X68399700Y-89110713D01*
X68390166Y-89104586D01*
X68354949Y-89099523D01*
X68050187Y-89099523D01*
X68039314Y-89102715D01*
X68028048Y-89101499D01*
X67994285Y-89112720D01*
X67841904Y-89188911D01*
X67825520Y-89204151D01*
X67806281Y-89215578D01*
X67793632Y-89233812D01*
X67790333Y-89236882D01*
X67789649Y-89239555D01*
X67786003Y-89244812D01*
X67709812Y-89397193D01*
X67707805Y-89408343D01*
X67701678Y-89417878D01*
X67696615Y-89453095D01*
X67696615Y-90062619D01*
X67199465Y-90062619D01*
X67184711Y-90033110D01*
X67184711Y-88691190D01*
X67164868Y-88623610D01*
X67111638Y-88577486D01*
X67041922Y-88567462D01*
X66977853Y-88596721D01*
X66939774Y-88655973D01*
X66934711Y-88691190D01*
X66934711Y-90062619D01*
X66581948Y-90062619D01*
X66111629Y-88651662D01*
X66094007Y-88626305D01*
X66078263Y-88599742D01*
X66074095Y-88597653D01*
X66071434Y-88593824D01*
X66042896Y-88582018D01*
X66015294Y-88568186D01*
X66010658Y-88568682D01*
X66006350Y-88566900D01*
X65975967Y-88572395D01*
X65945260Y-88575683D01*
X65941627Y-88578607D01*
X65937042Y-88579437D01*
X65914459Y-88600480D01*
X65890398Y-88619853D01*
X65887531Y-88625574D01*
X65885513Y-88627455D01*
X65884400Y-88631822D01*
X65874459Y-88651662D01*
X65341125Y-90251661D01*
X65338579Y-90322048D01*
X63966139Y-90322048D01*
X63966139Y-89655094D01*
X64194710Y-89655094D01*
X64199734Y-89725348D01*
X64241942Y-89781733D01*
X64307935Y-89806348D01*
X64376758Y-89791377D01*
X64405241Y-89770055D01*
X64467089Y-89708207D01*
X64545425Y-89669039D01*
X64794285Y-89793469D01*
X64798758Y-89794274D01*
X64802299Y-89797130D01*
X64833114Y-89800456D01*
X64863605Y-89805944D01*
X64867805Y-89804202D01*
X64872325Y-89804690D01*
X64906088Y-89793470D01*
X65058469Y-89717280D01*
X65060184Y-89715684D01*
X65062475Y-89715186D01*
X65090957Y-89693864D01*
X65167147Y-89617673D01*
X65200902Y-89555855D01*
X65195877Y-89485601D01*
X65153668Y-89429217D01*
X65087675Y-89404603D01*
X65018851Y-89419575D01*
X64990369Y-89440897D01*
X64928522Y-89502744D01*
X64850187Y-89541911D01*
X64601327Y-89417482D01*
X64596852Y-89416676D01*
X64593312Y-89413821D01*
X64562499Y-89410494D01*
X64532007Y-89405007D01*
X64527806Y-89406749D01*
X64523286Y-89406261D01*
X64489523Y-89417482D01*
X64337142Y-89493673D01*
X64335428Y-89495266D01*
X64333139Y-89495765D01*
X64304656Y-89517087D01*
X64228465Y-89593277D01*
X64194710Y-89655094D01*
X63966139Y-89655094D01*
X63966139Y-87029476D01*
X64344234Y-87029476D01*
X64345192Y-87032738D01*
X64347966Y-87059793D01*
X64424157Y-87364556D01*
X64426376Y-87368338D01*
X64433621Y-87390139D01*
X64509811Y-87542520D01*
X64511407Y-87544235D01*
X64511905Y-87546525D01*
X64533227Y-87575007D01*
X64685607Y-87727388D01*
X64695551Y-87732818D01*
X64702659Y-87741646D01*
X64734468Y-87757586D01*
X64963040Y-87833776D01*
X64965380Y-87833860D01*
X64967351Y-87835127D01*
X65002568Y-87840190D01*
X65154949Y-87840190D01*
X65157195Y-87839530D01*
X65159466Y-87840109D01*
X65194477Y-87833775D01*
X65423048Y-87757585D01*
X65432352Y-87751119D01*
X65443426Y-87748710D01*
X65471908Y-87727388D01*
X65548099Y-87651198D01*
X65581854Y-87589380D01*
X65576830Y-87519126D01*
X65534621Y-87462742D01*
X65468628Y-87438127D01*
X65399805Y-87453099D01*
X65371322Y-87474421D01*
X65315998Y-87529745D01*
X65134666Y-87590190D01*
X65022851Y-87590190D01*
X64841518Y-87529745D01*
X64724348Y-87412575D01*
X64663364Y-87290609D01*
X64636176Y-87181857D01*
X65944234Y-87181857D01*
X65945192Y-87185119D01*
X65947966Y-87212174D01*
X66024157Y-87516937D01*
X66032296Y-87530809D01*
X66035715Y-87546525D01*
X66057037Y-87575007D01*
X66209417Y-87727388D01*
X66211472Y-87728510D01*
X66212670Y-87730526D01*
X66241905Y-87750804D01*
X66394286Y-87826994D01*
X66405437Y-87829000D01*
X66414970Y-87835127D01*
X66450187Y-87840190D01*
X66754949Y-87840190D01*
X66765821Y-87836997D01*
X66777087Y-87838214D01*
X66810850Y-87826994D01*
X66963231Y-87750804D01*
X66964946Y-87749207D01*
X66967236Y-87748710D01*
X66995718Y-87727388D01*
X67007916Y-87715190D01*
X67696615Y-87715190D01*
X67716458Y-87782770D01*
X67769688Y-87828894D01*
X67839404Y-87838918D01*
X67903473Y-87809659D01*
X67941552Y-87750407D01*
X67946615Y-87715190D01*
X67946615Y-86585884D01*
X68627371Y-87777207D01*
X68629795Y-87779539D01*
X68630744Y-87782770D01*
X68655003Y-87803790D01*
X68678128Y-87826038D01*
X68681430Y-87826689D01*
X68683974Y-87828894D01*
X68715743Y-87833461D01*
X68747229Y-87839676D01*
X68750359Y-87838439D01*
X68753690Y-87838918D01*
X68782882Y-87825586D01*
X68812733Y-87813790D01*
X68814697Y-87811057D01*
X68817759Y-87809659D01*
X68835113Y-87782655D01*
X68853843Y-87756599D01*
X68854018Y-87753238D01*
X68855838Y-87750407D01*
X68860901Y-87715190D01*
X68860901Y-86572333D01*
X69296614Y-86572333D01*
X69299806Y-86583205D01*
X69298590Y-86594472D01*
X69309811Y-86628235D01*
X69386002Y-86780616D01*
X69387596Y-86782330D01*
X69388095Y-86784620D01*
X69409417Y-86813102D01*
X69485607Y-86889292D01*
X69487660Y-86890413D01*
X69488858Y-86892429D01*
X69518093Y-86912707D01*
X69670474Y-86988898D01*
X69674785Y-86989673D01*
X69696059Y-86998363D01*
X69987510Y-87071225D01*
X70109473Y-87132207D01*
X70156978Y-87179711D01*
X70210900Y-87287555D01*
X70210900Y-87380919D01*
X70156977Y-87488764D01*
X70109475Y-87536267D01*
X70001629Y-87590190D01*
X69670469Y-87590190D01*
X69461142Y-87520414D01*
X69390755Y-87517869D01*
X69330165Y-87553782D01*
X69298610Y-87616750D01*
X69306107Y-87686784D01*
X69350277Y-87741646D01*
X69382086Y-87757586D01*
X69610658Y-87833776D01*
X69612998Y-87833860D01*
X69614969Y-87835127D01*
X69650186Y-87840190D01*
X70031138Y-87840190D01*
X70042010Y-87836997D01*
X70053276Y-87838214D01*
X70087039Y-87826994D01*
X70239420Y-87750804D01*
X70241135Y-87749207D01*
X70243425Y-87748710D01*
X70271907Y-87727388D01*
X70348098Y-87651198D01*
X70349220Y-87649142D01*
X70351236Y-87647945D01*
X70371514Y-87618710D01*
X70447704Y-87466329D01*
X70449710Y-87455177D01*
X70455837Y-87445645D01*
X70460900Y-87410428D01*
X70460900Y-87258047D01*
X70457708Y-87247177D01*
X70458925Y-87235909D01*
X70447704Y-87202146D01*
X70371514Y-87049765D01*
X70369918Y-87048049D01*
X70369420Y-87045759D01*
X70348098Y-87017277D01*
X70271907Y-86941087D01*
X70269850Y-86939964D01*
X70268655Y-86937951D01*
X70239421Y-86917673D01*
X70087040Y-86841482D01*
X70082727Y-86840705D01*
X70061454Y-86832017D01*
X69770003Y-86759154D01*
X69648039Y-86698172D01*
X69600536Y-86650669D01*
X69546614Y-86542824D01*
X69546614Y-86449460D01*
X69600536Y-86341616D01*
X69648040Y-86294111D01*
X69755885Y-86240190D01*
X70087046Y-86240190D01*
X70296372Y-86309966D01*
X70366759Y-86312511D01*
X70427349Y-86276599D01*
X70458904Y-86213630D01*
X70451407Y-86143596D01*
X70442859Y-86132979D01*
X70669315Y-86132979D01*
X70698574Y-86197048D01*
X70757826Y-86235127D01*
X70793043Y-86240190D01*
X71125186Y-86240190D01*
X71125186Y-87715190D01*
X71145029Y-87782770D01*
X71198259Y-87828894D01*
X71267975Y-87838918D01*
X71332044Y-87809659D01*
X71370123Y-87750407D01*
X71370750Y-87746048D01*
X71890960Y-87746048D01*
X71926872Y-87806638D01*
X71989841Y-87838194D01*
X72059875Y-87830697D01*
X72114737Y-87786527D01*
X72130676Y-87754719D01*
X72254567Y-87383047D01*
X72836283Y-87383047D01*
X72960173Y-87754718D01*
X73000368Y-87812556D01*
X73065452Y-87839480D01*
X73134760Y-87826943D01*
X73186289Y-87778925D01*
X73202526Y-87715190D01*
X73487092Y-87715190D01*
X73506935Y-87782770D01*
X73560165Y-87828894D01*
X73629881Y-87838918D01*
X73693950Y-87809659D01*
X73732029Y-87750407D01*
X73737092Y-87715190D01*
X73737092Y-86585884D01*
X74417848Y-87777207D01*
X74420272Y-87779539D01*
X74421221Y-87782770D01*
X74445480Y-87803790D01*
X74468605Y-87826038D01*
X74471907Y-87826689D01*
X74474451Y-87828894D01*
X74506220Y-87833461D01*
X74537706Y-87839676D01*
X74540836Y-87838439D01*
X74544167Y-87838918D01*
X74573359Y-87825586D01*
X74603210Y-87813790D01*
X74605174Y-87811057D01*
X74608236Y-87809659D01*
X74625590Y-87782655D01*
X74644320Y-87756599D01*
X74644495Y-87753238D01*
X74646315Y-87750407D01*
X74651378Y-87715190D01*
X74651378Y-86132979D01*
X74935982Y-86132979D01*
X74965241Y-86197048D01*
X75024493Y-86235127D01*
X75059710Y-86240190D01*
X75391853Y-86240190D01*
X75391853Y-87715190D01*
X75411696Y-87782770D01*
X75464926Y-87828894D01*
X75534642Y-87838918D01*
X75598711Y-87809659D01*
X75636790Y-87750407D01*
X75641853Y-87715190D01*
X75641853Y-87029476D01*
X77525187Y-87029476D01*
X77526145Y-87032738D01*
X77528919Y-87059793D01*
X77605110Y-87364556D01*
X77607329Y-87368338D01*
X77614574Y-87390139D01*
X77690764Y-87542520D01*
X77692360Y-87544235D01*
X77692858Y-87546525D01*
X77714180Y-87575007D01*
X77866560Y-87727388D01*
X77876504Y-87732818D01*
X77883612Y-87741646D01*
X77915421Y-87757586D01*
X78143993Y-87833776D01*
X78146333Y-87833860D01*
X78148304Y-87835127D01*
X78183521Y-87840190D01*
X78335902Y-87840190D01*
X78338148Y-87839530D01*
X78340419Y-87840109D01*
X78375430Y-87833775D01*
X78604001Y-87757585D01*
X78613305Y-87751119D01*
X78624379Y-87748710D01*
X78652861Y-87727388D01*
X78729052Y-87651198D01*
X78762807Y-87589380D01*
X78757783Y-87519126D01*
X78715574Y-87462742D01*
X78649581Y-87438127D01*
X78580758Y-87453099D01*
X78552275Y-87474421D01*
X78496951Y-87529745D01*
X78315619Y-87590190D01*
X78203804Y-87590190D01*
X78022471Y-87529745D01*
X77905301Y-87412575D01*
X77904227Y-87410428D01*
X79201378Y-87410428D01*
X79204570Y-87421300D01*
X79203354Y-87432566D01*
X79214574Y-87466329D01*
X79290764Y-87618710D01*
X79292360Y-87620425D01*
X79292858Y-87622715D01*
X79314180Y-87651197D01*
X79390370Y-87727388D01*
X79392425Y-87728510D01*
X79393623Y-87730526D01*
X79422858Y-87750804D01*
X79575239Y-87826994D01*
X79586390Y-87829000D01*
X79595923Y-87835127D01*
X79631140Y-87840190D01*
X79935902Y-87840190D01*
X79946774Y-87836997D01*
X79958040Y-87838214D01*
X79991803Y-87826994D01*
X80144184Y-87750804D01*
X80145899Y-87749208D01*
X80148190Y-87748710D01*
X80176672Y-87727388D01*
X80188870Y-87715190D01*
X80877568Y-87715190D01*
X80897411Y-87782770D01*
X80950641Y-87828894D01*
X81020357Y-87838918D01*
X81084426Y-87809659D01*
X81122505Y-87750407D01*
X81127568Y-87715190D01*
X81127568Y-87078285D01*
X81318438Y-87078285D01*
X81814450Y-87786873D01*
X81869461Y-87830857D01*
X81939519Y-87838118D01*
X82002381Y-87806351D01*
X82038089Y-87745640D01*
X82036885Y-87715190D01*
X82477568Y-87715190D01*
X82497411Y-87782770D01*
X82550641Y-87828894D01*
X82620357Y-87838918D01*
X82684426Y-87809659D01*
X82722505Y-87750407D01*
X82727568Y-87715190D01*
X82727568Y-87078285D01*
X82918438Y-87078285D01*
X83414450Y-87786873D01*
X83469461Y-87830857D01*
X83539519Y-87838118D01*
X83602381Y-87806351D01*
X83638089Y-87745640D01*
X83636885Y-87715190D01*
X84077568Y-87715190D01*
X84080138Y-87723945D01*
X84078840Y-87732979D01*
X84089906Y-87757211D01*
X84097411Y-87782770D01*
X84104307Y-87788745D01*
X84108099Y-87797048D01*
X84130511Y-87811451D01*
X84150641Y-87828894D01*
X84159673Y-87830192D01*
X84167351Y-87835127D01*
X84202568Y-87840190D01*
X84964473Y-87840190D01*
X85032053Y-87820347D01*
X85078177Y-87767117D01*
X85085643Y-87715190D01*
X85525187Y-87715190D01*
X85545030Y-87782770D01*
X85598260Y-87828894D01*
X85667976Y-87838918D01*
X85732045Y-87809659D01*
X85770124Y-87750407D01*
X85775187Y-87715190D01*
X85775187Y-86585884D01*
X86455943Y-87777207D01*
X86458367Y-87779539D01*
X86459316Y-87782770D01*
X86483575Y-87803790D01*
X86506700Y-87826038D01*
X86510002Y-87826689D01*
X86512546Y-87828894D01*
X86544315Y-87833461D01*
X86575801Y-87839676D01*
X86578931Y-87838439D01*
X86582262Y-87838918D01*
X86611454Y-87825586D01*
X86641305Y-87813790D01*
X86643269Y-87811057D01*
X86646331Y-87809659D01*
X86663685Y-87782655D01*
X86682415Y-87756599D01*
X86682590Y-87753238D01*
X86684410Y-87750407D01*
X86689473Y-87715190D01*
X86689473Y-86132979D01*
X86974077Y-86132979D01*
X87003336Y-86197048D01*
X87062588Y-86235127D01*
X87097805Y-86240190D01*
X87429948Y-86240190D01*
X87429948Y-87715190D01*
X87449791Y-87782770D01*
X87503021Y-87828894D01*
X87572737Y-87838918D01*
X87636806Y-87809659D01*
X87674885Y-87750407D01*
X87679948Y-87715190D01*
X89639473Y-87715190D01*
X89642043Y-87723945D01*
X89640745Y-87732979D01*
X89651811Y-87757211D01*
X89659316Y-87782770D01*
X89666212Y-87788745D01*
X89670004Y-87797048D01*
X89692416Y-87811451D01*
X89712546Y-87828894D01*
X89721578Y-87830192D01*
X89729256Y-87835127D01*
X89764473Y-87840190D01*
X90526378Y-87840190D01*
X90593958Y-87820347D01*
X90640082Y-87767117D01*
X90650106Y-87697401D01*
X90620847Y-87633332D01*
X90561595Y-87595253D01*
X90526378Y-87590190D01*
X89889473Y-87590190D01*
X89889473Y-87181857D01*
X90858520Y-87181857D01*
X90859478Y-87185119D01*
X90862252Y-87212174D01*
X90938443Y-87516937D01*
X90946582Y-87530809D01*
X90950001Y-87546525D01*
X90971323Y-87575007D01*
X91123703Y-87727388D01*
X91125758Y-87728510D01*
X91126956Y-87730526D01*
X91156191Y-87750804D01*
X91308572Y-87826994D01*
X91319723Y-87829000D01*
X91329256Y-87835127D01*
X91364473Y-87840190D01*
X91669235Y-87840190D01*
X91680107Y-87836997D01*
X91691373Y-87838214D01*
X91725136Y-87826994D01*
X91877517Y-87750804D01*
X91879232Y-87749207D01*
X91881522Y-87748710D01*
X91885078Y-87746048D01*
X92386198Y-87746048D01*
X92422110Y-87806638D01*
X92485079Y-87838194D01*
X92555113Y-87830697D01*
X92609975Y-87786527D01*
X92625914Y-87754719D01*
X92749805Y-87383047D01*
X93331521Y-87383047D01*
X93455411Y-87754718D01*
X93495606Y-87812556D01*
X93560690Y-87839480D01*
X93629998Y-87826943D01*
X93681527Y-87778925D01*
X93697764Y-87715190D01*
X93982330Y-87715190D01*
X93984900Y-87723945D01*
X93983602Y-87732979D01*
X93994668Y-87757211D01*
X94002173Y-87782770D01*
X94009069Y-87788745D01*
X94012861Y-87797048D01*
X94035273Y-87811451D01*
X94055403Y-87828894D01*
X94064435Y-87830192D01*
X94072113Y-87835127D01*
X94107330Y-87840190D01*
X94488282Y-87840190D01*
X94490528Y-87839530D01*
X94492799Y-87840109D01*
X94527810Y-87833776D01*
X94756382Y-87757585D01*
X94765686Y-87751119D01*
X94776760Y-87748710D01*
X94805242Y-87727388D01*
X94957623Y-87575008D01*
X94958745Y-87572952D01*
X94960761Y-87571755D01*
X94981039Y-87542520D01*
X95057229Y-87390139D01*
X95058005Y-87385826D01*
X95066693Y-87364555D01*
X95142884Y-87059793D01*
X95142745Y-87056395D01*
X95146616Y-87029476D01*
X95146616Y-86800904D01*
X95145657Y-86797640D01*
X95142884Y-86770587D01*
X95114161Y-86655697D01*
X96649203Y-86655697D01*
X96656279Y-86690565D01*
X97037231Y-87757232D01*
X97053884Y-87780139D01*
X97067804Y-87804805D01*
X97074317Y-87808244D01*
X97078648Y-87814201D01*
X97105040Y-87824467D01*
X97130087Y-87837693D01*
X97137425Y-87837064D01*
X97144290Y-87839735D01*
X97172047Y-87834101D01*
X97200265Y-87831687D01*
X97206098Y-87827191D01*
X97213316Y-87825727D01*
X97233618Y-87805984D01*
X97256054Y-87788695D01*
X97260967Y-87779388D01*
X97263811Y-87776624D01*
X97264896Y-87771947D01*
X97272667Y-87757232D01*
X97653620Y-86690565D01*
X97657662Y-86620249D01*
X97633108Y-86576738D01*
X97944313Y-86576738D01*
X97966525Y-86643577D01*
X98021348Y-86687797D01*
X98091374Y-86695357D01*
X98125137Y-86684136D01*
X98277518Y-86607945D01*
X98279232Y-86606350D01*
X98281522Y-86605852D01*
X98310004Y-86584530D01*
X98401378Y-86493156D01*
X98401378Y-87590190D01*
X98069235Y-87590190D01*
X98001655Y-87610033D01*
X97955531Y-87663263D01*
X97945507Y-87732979D01*
X97974766Y-87797048D01*
X98034018Y-87835127D01*
X98069235Y-87840190D01*
X98983521Y-87840190D01*
X99051101Y-87820347D01*
X99097225Y-87767117D01*
X99107249Y-87697401D01*
X99077990Y-87633332D01*
X99018738Y-87595253D01*
X98983521Y-87590190D01*
X98651378Y-87590190D01*
X98651378Y-86115190D01*
X98641729Y-86082329D01*
X98632655Y-86049387D01*
X98631843Y-86048659D01*
X98631535Y-86047610D01*
X98605667Y-86025195D01*
X98580209Y-86002375D01*
X98579130Y-86002201D01*
X98578305Y-86001486D01*
X98544420Y-85996614D01*
X98510670Y-85991181D01*
X98509670Y-85991617D01*
X98508589Y-85991462D01*
X98477462Y-86005676D01*
X98446119Y-86019359D01*
X98445160Y-86020428D01*
X98444520Y-86020721D01*
X98443561Y-86022212D01*
X98422372Y-86045853D01*
X98276857Y-86264124D01*
X98147571Y-86393410D01*
X98013333Y-86460530D01*
X97961762Y-86508501D01*
X97944313Y-86576738D01*
X97633108Y-86576738D01*
X97623047Y-86558909D01*
X97560764Y-86526020D01*
X97490586Y-86532026D01*
X97434797Y-86575019D01*
X97418184Y-86606481D01*
X97154949Y-87343537D01*
X96891715Y-86606481D01*
X96850298Y-86549512D01*
X96784656Y-86523978D01*
X96715630Y-86537986D01*
X96665135Y-86587089D01*
X96649203Y-86655697D01*
X95114161Y-86655697D01*
X95066693Y-86465825D01*
X95064475Y-86462045D01*
X95057229Y-86440241D01*
X94981039Y-86287860D01*
X94979442Y-86286144D01*
X94978945Y-86283855D01*
X94957623Y-86255372D01*
X94805242Y-86102992D01*
X94795298Y-86097562D01*
X94788191Y-86088734D01*
X94756382Y-86072795D01*
X94527810Y-85996604D01*
X94525469Y-85996519D01*
X94523499Y-85995253D01*
X94488282Y-85990190D01*
X94107330Y-85990190D01*
X94098574Y-85992760D01*
X94089541Y-85991462D01*
X94065308Y-86002528D01*
X94039750Y-86010033D01*
X94033774Y-86016929D01*
X94025472Y-86020721D01*
X94011068Y-86043133D01*
X93993626Y-86063263D01*
X93992327Y-86072295D01*
X93987393Y-86079973D01*
X93982330Y-86115190D01*
X93982330Y-87715190D01*
X93697764Y-87715190D01*
X93698915Y-87710672D01*
X93692581Y-87675662D01*
X93159248Y-86075662D01*
X93141626Y-86050305D01*
X93125882Y-86023742D01*
X93121714Y-86021653D01*
X93119053Y-86017824D01*
X93090515Y-86006018D01*
X93062913Y-85992186D01*
X93058277Y-85992682D01*
X93053969Y-85990900D01*
X93023586Y-85996395D01*
X92992879Y-85999683D01*
X92989246Y-86002607D01*
X92984661Y-86003437D01*
X92962078Y-86024480D01*
X92938017Y-86043853D01*
X92935150Y-86049574D01*
X92933132Y-86051455D01*
X92932019Y-86055822D01*
X92922078Y-86075662D01*
X92388744Y-87675661D01*
X92386198Y-87746048D01*
X91885078Y-87746048D01*
X91910004Y-87727388D01*
X92062385Y-87575008D01*
X92070092Y-87560892D01*
X92081812Y-87549873D01*
X92095265Y-87516936D01*
X92171455Y-87212174D01*
X92171316Y-87208776D01*
X92175187Y-87181857D01*
X92175187Y-86648523D01*
X92174228Y-86645260D01*
X92171455Y-86618206D01*
X92095265Y-86313444D01*
X92087125Y-86299571D01*
X92083707Y-86283855D01*
X92062385Y-86255372D01*
X91910004Y-86102992D01*
X91907949Y-86101870D01*
X91906752Y-86099854D01*
X91877517Y-86079576D01*
X91725136Y-86003386D01*
X91713984Y-86001379D01*
X91704452Y-85995253D01*
X91669235Y-85990190D01*
X91364473Y-85990190D01*
X91353603Y-85993381D01*
X91342335Y-85992165D01*
X91308572Y-86003386D01*
X91156191Y-86079576D01*
X91154475Y-86081172D01*
X91152186Y-86081670D01*
X91123703Y-86102992D01*
X90971323Y-86255373D01*
X90963615Y-86269487D01*
X90951897Y-86280506D01*
X90938443Y-86313443D01*
X90862252Y-86618206D01*
X90862390Y-86621603D01*
X90858520Y-86648523D01*
X90858520Y-87181857D01*
X89889473Y-87181857D01*
X89889473Y-86115190D01*
X89869630Y-86047610D01*
X89816400Y-86001486D01*
X89746684Y-85991462D01*
X89682615Y-86020721D01*
X89644536Y-86079973D01*
X89639473Y-86115190D01*
X89639473Y-87715190D01*
X87679948Y-87715190D01*
X87679948Y-86240190D01*
X88012091Y-86240190D01*
X88079671Y-86220347D01*
X88125795Y-86167117D01*
X88135819Y-86097401D01*
X88106560Y-86033332D01*
X88047308Y-85995253D01*
X88012091Y-85990190D01*
X87097805Y-85990190D01*
X87030225Y-86010033D01*
X86984101Y-86063263D01*
X86974077Y-86132979D01*
X86689473Y-86132979D01*
X86689473Y-86115190D01*
X86669630Y-86047610D01*
X86616400Y-86001486D01*
X86546684Y-85991462D01*
X86482615Y-86020721D01*
X86444536Y-86079973D01*
X86439473Y-86115190D01*
X86439473Y-87244495D01*
X85758717Y-86053173D01*
X85756292Y-86050840D01*
X85755344Y-86047610D01*
X85731084Y-86026589D01*
X85707960Y-86004342D01*
X85704657Y-86003690D01*
X85702114Y-86001486D01*
X85670344Y-85996918D01*
X85638859Y-85990704D01*
X85635728Y-85991940D01*
X85632398Y-85991462D01*
X85603201Y-86004795D01*
X85573356Y-86016590D01*
X85571392Y-86019322D01*
X85568329Y-86020721D01*
X85550970Y-86047730D01*
X85532245Y-86073781D01*
X85532069Y-86077141D01*
X85530250Y-86079973D01*
X85525187Y-86115190D01*
X85525187Y-87715190D01*
X85085643Y-87715190D01*
X85088201Y-87697401D01*
X85058942Y-87633332D01*
X84999690Y-87595253D01*
X84964473Y-87590190D01*
X84327568Y-87590190D01*
X84327568Y-87002095D01*
X84735901Y-87002095D01*
X84803481Y-86982252D01*
X84849605Y-86929022D01*
X84859629Y-86859306D01*
X84830370Y-86795237D01*
X84771118Y-86757158D01*
X84735901Y-86752095D01*
X84327568Y-86752095D01*
X84327568Y-86240190D01*
X84964473Y-86240190D01*
X85032053Y-86220347D01*
X85078177Y-86167117D01*
X85088201Y-86097401D01*
X85058942Y-86033332D01*
X84999690Y-85995253D01*
X84964473Y-85990190D01*
X84202568Y-85990190D01*
X84193812Y-85992760D01*
X84184779Y-85991462D01*
X84160546Y-86002528D01*
X84134988Y-86010033D01*
X84129012Y-86016929D01*
X84120710Y-86020721D01*
X84106306Y-86043133D01*
X84088864Y-86063263D01*
X84087565Y-86072295D01*
X84082631Y-86079973D01*
X84077568Y-86115190D01*
X84077568Y-87715190D01*
X83636885Y-87715190D01*
X83635306Y-87675262D01*
X83619258Y-87643507D01*
X83221639Y-87075481D01*
X83222964Y-87075092D01*
X83234230Y-87076309D01*
X83267993Y-87065089D01*
X83420374Y-86988899D01*
X83422089Y-86987303D01*
X83424380Y-86986805D01*
X83452862Y-86965483D01*
X83529052Y-86889292D01*
X83530174Y-86887237D01*
X83532188Y-86886041D01*
X83552466Y-86856806D01*
X83628657Y-86704425D01*
X83630663Y-86693274D01*
X83636791Y-86683740D01*
X83641854Y-86648523D01*
X83641854Y-86419952D01*
X83638661Y-86409079D01*
X83639878Y-86397813D01*
X83628657Y-86364050D01*
X83552466Y-86211669D01*
X83550872Y-86209955D01*
X83550374Y-86207666D01*
X83529052Y-86179183D01*
X83452862Y-86102992D01*
X83450805Y-86101869D01*
X83449609Y-86099854D01*
X83420374Y-86079576D01*
X83267993Y-86003386D01*
X83256841Y-86001379D01*
X83247309Y-85995253D01*
X83212092Y-85990190D01*
X82602568Y-85990190D01*
X82593812Y-85992760D01*
X82584779Y-85991462D01*
X82560546Y-86002528D01*
X82534988Y-86010033D01*
X82529012Y-86016929D01*
X82520710Y-86020721D01*
X82506306Y-86043133D01*
X82488864Y-86063263D01*
X82487565Y-86072295D01*
X82482631Y-86079973D01*
X82477568Y-86115190D01*
X82477568Y-87715190D01*
X82036885Y-87715190D01*
X82035306Y-87675262D01*
X82019258Y-87643507D01*
X81621639Y-87075481D01*
X81622964Y-87075092D01*
X81634230Y-87076309D01*
X81667993Y-87065089D01*
X81820374Y-86988899D01*
X81822089Y-86987303D01*
X81824380Y-86986805D01*
X81852862Y-86965483D01*
X81929052Y-86889292D01*
X81930174Y-86887237D01*
X81932188Y-86886041D01*
X81952466Y-86856806D01*
X82028657Y-86704425D01*
X82030663Y-86693274D01*
X82036791Y-86683740D01*
X82041854Y-86648523D01*
X82041854Y-86419952D01*
X82038661Y-86409079D01*
X82039878Y-86397813D01*
X82028657Y-86364050D01*
X81952466Y-86211669D01*
X81950872Y-86209955D01*
X81950374Y-86207666D01*
X81929052Y-86179183D01*
X81852862Y-86102992D01*
X81850805Y-86101869D01*
X81849609Y-86099854D01*
X81820374Y-86079576D01*
X81667993Y-86003386D01*
X81656841Y-86001379D01*
X81647309Y-85995253D01*
X81612092Y-85990190D01*
X81002568Y-85990190D01*
X80993812Y-85992760D01*
X80984779Y-85991462D01*
X80960546Y-86002528D01*
X80934988Y-86010033D01*
X80929012Y-86016929D01*
X80920710Y-86020721D01*
X80906306Y-86043133D01*
X80888864Y-86063263D01*
X80887565Y-86072295D01*
X80882631Y-86079973D01*
X80877568Y-86115190D01*
X80877568Y-87715190D01*
X80188870Y-87715190D01*
X80252862Y-87651197D01*
X80253984Y-87649142D01*
X80255998Y-87647946D01*
X80276276Y-87618711D01*
X80352467Y-87466330D01*
X80354473Y-87455179D01*
X80360601Y-87445645D01*
X80365664Y-87410428D01*
X80365664Y-86115190D01*
X80345821Y-86047610D01*
X80292591Y-86001486D01*
X80222875Y-85991462D01*
X80158806Y-86020721D01*
X80120727Y-86079973D01*
X80115664Y-86115190D01*
X80115664Y-87380919D01*
X80061741Y-87488763D01*
X80014237Y-87536268D01*
X79906393Y-87590190D01*
X79660649Y-87590190D01*
X79552803Y-87536267D01*
X79505300Y-87488765D01*
X79451378Y-87380919D01*
X79451378Y-86115190D01*
X79431535Y-86047610D01*
X79378305Y-86001486D01*
X79308589Y-85991462D01*
X79244520Y-86020721D01*
X79206441Y-86079973D01*
X79201378Y-86115190D01*
X79201378Y-87410428D01*
X77904227Y-87410428D01*
X77844317Y-87290609D01*
X77775187Y-87014086D01*
X77775187Y-86816293D01*
X77844317Y-86539770D01*
X77905301Y-86417804D01*
X78022471Y-86300634D01*
X78203804Y-86240190D01*
X78315619Y-86240190D01*
X78496951Y-86300634D01*
X78552275Y-86355959D01*
X78614093Y-86389714D01*
X78684347Y-86384690D01*
X78740731Y-86342481D01*
X78765346Y-86276488D01*
X78750374Y-86207665D01*
X78729052Y-86179182D01*
X78652861Y-86102992D01*
X78642917Y-86097562D01*
X78635810Y-86088734D01*
X78604001Y-86072795D01*
X78375430Y-85996605D01*
X78373091Y-85996520D01*
X78371119Y-85995253D01*
X78335902Y-85990190D01*
X78183521Y-85990190D01*
X78181274Y-85990849D01*
X78179004Y-85990271D01*
X78143993Y-85996604D01*
X77915421Y-86072794D01*
X77906115Y-86079261D01*
X77895043Y-86081670D01*
X77866560Y-86102992D01*
X77714180Y-86255373D01*
X77713058Y-86257427D01*
X77711042Y-86258625D01*
X77690764Y-86287860D01*
X77614574Y-86440241D01*
X77613797Y-86444555D01*
X77605110Y-86465824D01*
X77528919Y-86770587D01*
X77529057Y-86773984D01*
X77525187Y-86800904D01*
X77525187Y-87029476D01*
X75641853Y-87029476D01*
X75641853Y-86240190D01*
X75973996Y-86240190D01*
X76041576Y-86220347D01*
X76087700Y-86167117D01*
X76097724Y-86097401D01*
X76068465Y-86033332D01*
X76009213Y-85995253D01*
X75973996Y-85990190D01*
X75059710Y-85990190D01*
X74992130Y-86010033D01*
X74946006Y-86063263D01*
X74935982Y-86132979D01*
X74651378Y-86132979D01*
X74651378Y-86115190D01*
X74631535Y-86047610D01*
X74578305Y-86001486D01*
X74508589Y-85991462D01*
X74444520Y-86020721D01*
X74406441Y-86079973D01*
X74401378Y-86115190D01*
X74401378Y-87244495D01*
X73720622Y-86053173D01*
X73718197Y-86050840D01*
X73717249Y-86047610D01*
X73692989Y-86026589D01*
X73669865Y-86004342D01*
X73666562Y-86003690D01*
X73664019Y-86001486D01*
X73632249Y-85996918D01*
X73600764Y-85990704D01*
X73597633Y-85991940D01*
X73594303Y-85991462D01*
X73565106Y-86004795D01*
X73535261Y-86016590D01*
X73533297Y-86019322D01*
X73530234Y-86020721D01*
X73512875Y-86047730D01*
X73494150Y-86073781D01*
X73493974Y-86077141D01*
X73492155Y-86079973D01*
X73487092Y-86115190D01*
X73487092Y-87715190D01*
X73202526Y-87715190D01*
X73203677Y-87710672D01*
X73197343Y-87675662D01*
X72664010Y-86075662D01*
X72646388Y-86050305D01*
X72630644Y-86023742D01*
X72626476Y-86021653D01*
X72623815Y-86017824D01*
X72595277Y-86006018D01*
X72567675Y-85992186D01*
X72563039Y-85992682D01*
X72558731Y-85990900D01*
X72528348Y-85996395D01*
X72497641Y-85999683D01*
X72494008Y-86002607D01*
X72489423Y-86003437D01*
X72466840Y-86024480D01*
X72442779Y-86043853D01*
X72439912Y-86049574D01*
X72437894Y-86051455D01*
X72436781Y-86055822D01*
X72426840Y-86075662D01*
X71893506Y-87675661D01*
X71890960Y-87746048D01*
X71370750Y-87746048D01*
X71375186Y-87715190D01*
X71375186Y-86240190D01*
X71707329Y-86240190D01*
X71774909Y-86220347D01*
X71821033Y-86167117D01*
X71831057Y-86097401D01*
X71801798Y-86033332D01*
X71742546Y-85995253D01*
X71707329Y-85990190D01*
X70793043Y-85990190D01*
X70725463Y-86010033D01*
X70679339Y-86063263D01*
X70669315Y-86132979D01*
X70442859Y-86132979D01*
X70407237Y-86088734D01*
X70375428Y-86072795D01*
X70146857Y-85996605D01*
X70144518Y-85996520D01*
X70142546Y-85995253D01*
X70107329Y-85990190D01*
X69726376Y-85990190D01*
X69715506Y-85993381D01*
X69704238Y-85992165D01*
X69670475Y-86003386D01*
X69518094Y-86079576D01*
X69516378Y-86081171D01*
X69514088Y-86081670D01*
X69485606Y-86102992D01*
X69409416Y-86179183D01*
X69408293Y-86181239D01*
X69406280Y-86182435D01*
X69386002Y-86211669D01*
X69309811Y-86364050D01*
X69307804Y-86375200D01*
X69301677Y-86384735D01*
X69296614Y-86419952D01*
X69296614Y-86572333D01*
X68860901Y-86572333D01*
X68860901Y-86115190D01*
X68841058Y-86047610D01*
X68787828Y-86001486D01*
X68718112Y-85991462D01*
X68654043Y-86020721D01*
X68615964Y-86079973D01*
X68610901Y-86115190D01*
X68610901Y-87244495D01*
X67930145Y-86053173D01*
X67927720Y-86050840D01*
X67926772Y-86047610D01*
X67902512Y-86026589D01*
X67879388Y-86004342D01*
X67876085Y-86003690D01*
X67873542Y-86001486D01*
X67841772Y-85996918D01*
X67810287Y-85990704D01*
X67807156Y-85991940D01*
X67803826Y-85991462D01*
X67774629Y-86004795D01*
X67744784Y-86016590D01*
X67742820Y-86019322D01*
X67739757Y-86020721D01*
X67722398Y-86047730D01*
X67703673Y-86073781D01*
X67703497Y-86077141D01*
X67701678Y-86079973D01*
X67696615Y-86115190D01*
X67696615Y-87715190D01*
X67007916Y-87715190D01*
X67148099Y-87575008D01*
X67155806Y-87560892D01*
X67167526Y-87549873D01*
X67180979Y-87516936D01*
X67257169Y-87212174D01*
X67257030Y-87208776D01*
X67260901Y-87181857D01*
X67260901Y-86648523D01*
X67259942Y-86645260D01*
X67257169Y-86618206D01*
X67180979Y-86313444D01*
X67172839Y-86299571D01*
X67169421Y-86283855D01*
X67148099Y-86255372D01*
X66995718Y-86102992D01*
X66993663Y-86101870D01*
X66992466Y-86099854D01*
X66963231Y-86079576D01*
X66810850Y-86003386D01*
X66799698Y-86001379D01*
X66790166Y-85995253D01*
X66754949Y-85990190D01*
X66450187Y-85990190D01*
X66439317Y-85993381D01*
X66428049Y-85992165D01*
X66394286Y-86003386D01*
X66241905Y-86079576D01*
X66240189Y-86081172D01*
X66237900Y-86081670D01*
X66209417Y-86102992D01*
X66057037Y-86255373D01*
X66049329Y-86269487D01*
X66037611Y-86280506D01*
X66024157Y-86313443D01*
X65947966Y-86618206D01*
X65948104Y-86621603D01*
X65944234Y-86648523D01*
X65944234Y-87181857D01*
X64636176Y-87181857D01*
X64594234Y-87014086D01*
X64594234Y-86816293D01*
X64663364Y-86539770D01*
X64724348Y-86417804D01*
X64841518Y-86300634D01*
X65022851Y-86240190D01*
X65134666Y-86240190D01*
X65315998Y-86300634D01*
X65371322Y-86355959D01*
X65433140Y-86389714D01*
X65503394Y-86384690D01*
X65559778Y-86342481D01*
X65584393Y-86276488D01*
X65569421Y-86207665D01*
X65548099Y-86179182D01*
X65471908Y-86102992D01*
X65461964Y-86097562D01*
X65454857Y-86088734D01*
X65423048Y-86072795D01*
X65194477Y-85996605D01*
X65192138Y-85996520D01*
X65190166Y-85995253D01*
X65154949Y-85990190D01*
X65002568Y-85990190D01*
X65000321Y-85990849D01*
X64998051Y-85990271D01*
X64963040Y-85996604D01*
X64734468Y-86072794D01*
X64725162Y-86079261D01*
X64714090Y-86081670D01*
X64685607Y-86102992D01*
X64533227Y-86255373D01*
X64532105Y-86257427D01*
X64530089Y-86258625D01*
X64509811Y-86287860D01*
X64433621Y-86440241D01*
X64432844Y-86444555D01*
X64424157Y-86465824D01*
X64347966Y-86770587D01*
X64348104Y-86773984D01*
X64344234Y-86800904D01*
X64344234Y-87029476D01*
X63966139Y-87029476D01*
X63966139Y-85761619D01*
X99335820Y-85761619D01*
X99335820Y-90644761D01*
G37*
D11*
X58869819Y-53377506D02*
X59584104Y-53377506D01*
X59584104Y-53377506D02*
X59726961Y-53425125D01*
X59726961Y-53425125D02*
X59822200Y-53520363D01*
X59822200Y-53520363D02*
X59869819Y-53663220D01*
X59869819Y-53663220D02*
X59869819Y-53758458D01*
X59869819Y-52425125D02*
X59869819Y-52901315D01*
X59869819Y-52901315D02*
X58869819Y-52901315D01*
X59774580Y-51520363D02*
X59822200Y-51567982D01*
X59822200Y-51567982D02*
X59869819Y-51710839D01*
X59869819Y-51710839D02*
X59869819Y-51806077D01*
X59869819Y-51806077D02*
X59822200Y-51948934D01*
X59822200Y-51948934D02*
X59726961Y-52044172D01*
X59726961Y-52044172D02*
X59631723Y-52091791D01*
X59631723Y-52091791D02*
X59441247Y-52139410D01*
X59441247Y-52139410D02*
X59298390Y-52139410D01*
X59298390Y-52139410D02*
X59107914Y-52091791D01*
X59107914Y-52091791D02*
X59012676Y-52044172D01*
X59012676Y-52044172D02*
X58917438Y-51948934D01*
X58917438Y-51948934D02*
X58869819Y-51806077D01*
X58869819Y-51806077D02*
X58869819Y-51710839D01*
X58869819Y-51710839D02*
X58917438Y-51567982D01*
X58917438Y-51567982D02*
X58965057Y-51520363D01*
X58869819Y-50806077D02*
X59584104Y-50806077D01*
X59584104Y-50806077D02*
X59726961Y-50853696D01*
X59726961Y-50853696D02*
X59822200Y-50948934D01*
X59822200Y-50948934D02*
X59869819Y-51091791D01*
X59869819Y-51091791D02*
X59869819Y-51187029D01*
X59869819Y-49853696D02*
X59869819Y-50329886D01*
X59869819Y-50329886D02*
X58869819Y-50329886D01*
X59774580Y-48948934D02*
X59822200Y-48996553D01*
X59822200Y-48996553D02*
X59869819Y-49139410D01*
X59869819Y-49139410D02*
X59869819Y-49234648D01*
X59869819Y-49234648D02*
X59822200Y-49377505D01*
X59822200Y-49377505D02*
X59726961Y-49472743D01*
X59726961Y-49472743D02*
X59631723Y-49520362D01*
X59631723Y-49520362D02*
X59441247Y-49567981D01*
X59441247Y-49567981D02*
X59298390Y-49567981D01*
X59298390Y-49567981D02*
X59107914Y-49520362D01*
X59107914Y-49520362D02*
X59012676Y-49472743D01*
X59012676Y-49472743D02*
X58917438Y-49377505D01*
X58917438Y-49377505D02*
X58869819Y-49234648D01*
X58869819Y-49234648D02*
X58869819Y-49139410D01*
X58869819Y-49139410D02*
X58917438Y-48996553D01*
X58917438Y-48996553D02*
X58965057Y-48948934D01*
X58869819Y-48234648D02*
X59584104Y-48234648D01*
X59584104Y-48234648D02*
X59726961Y-48282267D01*
X59726961Y-48282267D02*
X59822200Y-48377505D01*
X59822200Y-48377505D02*
X59869819Y-48520362D01*
X59869819Y-48520362D02*
X59869819Y-48615600D01*
X59869819Y-47282267D02*
X59869819Y-47758457D01*
X59869819Y-47758457D02*
X58869819Y-47758457D01*
X59774580Y-46377505D02*
X59822200Y-46425124D01*
X59822200Y-46425124D02*
X59869819Y-46567981D01*
X59869819Y-46567981D02*
X59869819Y-46663219D01*
X59869819Y-46663219D02*
X59822200Y-46806076D01*
X59822200Y-46806076D02*
X59726961Y-46901314D01*
X59726961Y-46901314D02*
X59631723Y-46948933D01*
X59631723Y-46948933D02*
X59441247Y-46996552D01*
X59441247Y-46996552D02*
X59298390Y-46996552D01*
X59298390Y-46996552D02*
X59107914Y-46948933D01*
X59107914Y-46948933D02*
X59012676Y-46901314D01*
X59012676Y-46901314D02*
X58917438Y-46806076D01*
X58917438Y-46806076D02*
X58869819Y-46663219D01*
X58869819Y-46663219D02*
X58869819Y-46567981D01*
X58869819Y-46567981D02*
X58917438Y-46425124D01*
X58917438Y-46425124D02*
X58965057Y-46377505D01*
X58869819Y-45663219D02*
X59584104Y-45663219D01*
X59584104Y-45663219D02*
X59726961Y-45710838D01*
X59726961Y-45710838D02*
X59822200Y-45806076D01*
X59822200Y-45806076D02*
X59869819Y-45948933D01*
X59869819Y-45948933D02*
X59869819Y-46044171D01*
X59869819Y-44710838D02*
X59869819Y-45187028D01*
X59869819Y-45187028D02*
X58869819Y-45187028D01*
X59774580Y-43806076D02*
X59822200Y-43853695D01*
X59822200Y-43853695D02*
X59869819Y-43996552D01*
X59869819Y-43996552D02*
X59869819Y-44091790D01*
X59869819Y-44091790D02*
X59822200Y-44234647D01*
X59822200Y-44234647D02*
X59726961Y-44329885D01*
X59726961Y-44329885D02*
X59631723Y-44377504D01*
X59631723Y-44377504D02*
X59441247Y-44425123D01*
X59441247Y-44425123D02*
X59298390Y-44425123D01*
X59298390Y-44425123D02*
X59107914Y-44377504D01*
X59107914Y-44377504D02*
X59012676Y-44329885D01*
X59012676Y-44329885D02*
X58917438Y-44234647D01*
X58917438Y-44234647D02*
X58869819Y-44091790D01*
X58869819Y-44091790D02*
X58869819Y-43996552D01*
X58869819Y-43996552D02*
X58917438Y-43853695D01*
X58917438Y-43853695D02*
X58965057Y-43806076D01*
X121312969Y-91369819D02*
X120836779Y-91369819D01*
X120836779Y-91369819D02*
X120836779Y-90369819D01*
X121646303Y-91369819D02*
X121646303Y-90369819D01*
X121646303Y-90369819D02*
X121979636Y-91084104D01*
X121979636Y-91084104D02*
X122312969Y-90369819D01*
X122312969Y-90369819D02*
X122312969Y-91369819D01*
X122693922Y-90369819D02*
X123312969Y-90369819D01*
X123312969Y-90369819D02*
X122979636Y-90750771D01*
X122979636Y-90750771D02*
X123122493Y-90750771D01*
X123122493Y-90750771D02*
X123217731Y-90798390D01*
X123217731Y-90798390D02*
X123265350Y-90846009D01*
X123265350Y-90846009D02*
X123312969Y-90941247D01*
X123312969Y-90941247D02*
X123312969Y-91179342D01*
X123312969Y-91179342D02*
X123265350Y-91274580D01*
X123265350Y-91274580D02*
X123217731Y-91322200D01*
X123217731Y-91322200D02*
X123122493Y-91369819D01*
X123122493Y-91369819D02*
X122836779Y-91369819D01*
X122836779Y-91369819D02*
X122741541Y-91322200D01*
X122741541Y-91322200D02*
X122693922Y-91274580D01*
X124217731Y-90369819D02*
X123741541Y-90369819D01*
X123741541Y-90369819D02*
X123693922Y-90846009D01*
X123693922Y-90846009D02*
X123741541Y-90798390D01*
X123741541Y-90798390D02*
X123836779Y-90750771D01*
X123836779Y-90750771D02*
X124074874Y-90750771D01*
X124074874Y-90750771D02*
X124170112Y-90798390D01*
X124170112Y-90798390D02*
X124217731Y-90846009D01*
X124217731Y-90846009D02*
X124265350Y-90941247D01*
X124265350Y-90941247D02*
X124265350Y-91179342D01*
X124265350Y-91179342D02*
X124217731Y-91274580D01*
X124217731Y-91274580D02*
X124170112Y-91322200D01*
X124170112Y-91322200D02*
X124074874Y-91369819D01*
X124074874Y-91369819D02*
X123836779Y-91369819D01*
X123836779Y-91369819D02*
X123741541Y-91322200D01*
X123741541Y-91322200D02*
X123693922Y-91274580D01*
X124836779Y-90798390D02*
X124741541Y-90750771D01*
X124741541Y-90750771D02*
X124693922Y-90703152D01*
X124693922Y-90703152D02*
X124646303Y-90607914D01*
X124646303Y-90607914D02*
X124646303Y-90560295D01*
X124646303Y-90560295D02*
X124693922Y-90465057D01*
X124693922Y-90465057D02*
X124741541Y-90417438D01*
X124741541Y-90417438D02*
X124836779Y-90369819D01*
X124836779Y-90369819D02*
X125027255Y-90369819D01*
X125027255Y-90369819D02*
X125122493Y-90417438D01*
X125122493Y-90417438D02*
X125170112Y-90465057D01*
X125170112Y-90465057D02*
X125217731Y-90560295D01*
X125217731Y-90560295D02*
X125217731Y-90607914D01*
X125217731Y-90607914D02*
X125170112Y-90703152D01*
X125170112Y-90703152D02*
X125122493Y-90750771D01*
X125122493Y-90750771D02*
X125027255Y-90798390D01*
X125027255Y-90798390D02*
X124836779Y-90798390D01*
X124836779Y-90798390D02*
X124741541Y-90846009D01*
X124741541Y-90846009D02*
X124693922Y-90893628D01*
X124693922Y-90893628D02*
X124646303Y-90988866D01*
X124646303Y-90988866D02*
X124646303Y-91179342D01*
X124646303Y-91179342D02*
X124693922Y-91274580D01*
X124693922Y-91274580D02*
X124741541Y-91322200D01*
X124741541Y-91322200D02*
X124836779Y-91369819D01*
X124836779Y-91369819D02*
X125027255Y-91369819D01*
X125027255Y-91369819D02*
X125122493Y-91322200D01*
X125122493Y-91322200D02*
X125170112Y-91274580D01*
X125170112Y-91274580D02*
X125217731Y-91179342D01*
X125217731Y-91179342D02*
X125217731Y-90988866D01*
X125217731Y-90988866D02*
X125170112Y-90893628D01*
X125170112Y-90893628D02*
X125122493Y-90846009D01*
X125122493Y-90846009D02*
X125027255Y-90798390D01*
X104869819Y-70076077D02*
X105869819Y-69742744D01*
X105869819Y-69742744D02*
X104869819Y-69409411D01*
X104869819Y-68885601D02*
X104869819Y-68695125D01*
X104869819Y-68695125D02*
X104917438Y-68599887D01*
X104917438Y-68599887D02*
X105012676Y-68504649D01*
X105012676Y-68504649D02*
X105203152Y-68457030D01*
X105203152Y-68457030D02*
X105536485Y-68457030D01*
X105536485Y-68457030D02*
X105726961Y-68504649D01*
X105726961Y-68504649D02*
X105822200Y-68599887D01*
X105822200Y-68599887D02*
X105869819Y-68695125D01*
X105869819Y-68695125D02*
X105869819Y-68885601D01*
X105869819Y-68885601D02*
X105822200Y-68980839D01*
X105822200Y-68980839D02*
X105726961Y-69076077D01*
X105726961Y-69076077D02*
X105536485Y-69123696D01*
X105536485Y-69123696D02*
X105203152Y-69123696D01*
X105203152Y-69123696D02*
X105012676Y-69076077D01*
X105012676Y-69076077D02*
X104917438Y-68980839D01*
X104917438Y-68980839D02*
X104869819Y-68885601D01*
X105869819Y-67552268D02*
X105869819Y-68028458D01*
X105869819Y-68028458D02*
X104869819Y-68028458D01*
X104869819Y-67361791D02*
X104869819Y-66790363D01*
X105869819Y-67076077D02*
X104869819Y-67076077D01*
X105822200Y-65742743D02*
X105869819Y-65599886D01*
X105869819Y-65599886D02*
X105869819Y-65361791D01*
X105869819Y-65361791D02*
X105822200Y-65266553D01*
X105822200Y-65266553D02*
X105774580Y-65218934D01*
X105774580Y-65218934D02*
X105679342Y-65171315D01*
X105679342Y-65171315D02*
X105584104Y-65171315D01*
X105584104Y-65171315D02*
X105488866Y-65218934D01*
X105488866Y-65218934D02*
X105441247Y-65266553D01*
X105441247Y-65266553D02*
X105393628Y-65361791D01*
X105393628Y-65361791D02*
X105346009Y-65552267D01*
X105346009Y-65552267D02*
X105298390Y-65647505D01*
X105298390Y-65647505D02*
X105250771Y-65695124D01*
X105250771Y-65695124D02*
X105155533Y-65742743D01*
X105155533Y-65742743D02*
X105060295Y-65742743D01*
X105060295Y-65742743D02*
X104965057Y-65695124D01*
X104965057Y-65695124D02*
X104917438Y-65647505D01*
X104917438Y-65647505D02*
X104869819Y-65552267D01*
X104869819Y-65552267D02*
X104869819Y-65314172D01*
X104869819Y-65314172D02*
X104917438Y-65171315D01*
X105346009Y-64742743D02*
X105346009Y-64409410D01*
X105869819Y-64266553D02*
X105869819Y-64742743D01*
X105869819Y-64742743D02*
X104869819Y-64742743D01*
X104869819Y-64742743D02*
X104869819Y-64266553D01*
X105869819Y-63837981D02*
X104869819Y-63837981D01*
X104869819Y-63837981D02*
X105869819Y-63266553D01*
X105869819Y-63266553D02*
X104869819Y-63266553D01*
X105822200Y-62837981D02*
X105869819Y-62695124D01*
X105869819Y-62695124D02*
X105869819Y-62457029D01*
X105869819Y-62457029D02*
X105822200Y-62361791D01*
X105822200Y-62361791D02*
X105774580Y-62314172D01*
X105774580Y-62314172D02*
X105679342Y-62266553D01*
X105679342Y-62266553D02*
X105584104Y-62266553D01*
X105584104Y-62266553D02*
X105488866Y-62314172D01*
X105488866Y-62314172D02*
X105441247Y-62361791D01*
X105441247Y-62361791D02*
X105393628Y-62457029D01*
X105393628Y-62457029D02*
X105346009Y-62647505D01*
X105346009Y-62647505D02*
X105298390Y-62742743D01*
X105298390Y-62742743D02*
X105250771Y-62790362D01*
X105250771Y-62790362D02*
X105155533Y-62837981D01*
X105155533Y-62837981D02*
X105060295Y-62837981D01*
X105060295Y-62837981D02*
X104965057Y-62790362D01*
X104965057Y-62790362D02*
X104917438Y-62742743D01*
X104917438Y-62742743D02*
X104869819Y-62647505D01*
X104869819Y-62647505D02*
X104869819Y-62409410D01*
X104869819Y-62409410D02*
X104917438Y-62266553D01*
X105346009Y-61837981D02*
X105346009Y-61504648D01*
X105869819Y-61361791D02*
X105869819Y-61837981D01*
X105869819Y-61837981D02*
X104869819Y-61837981D01*
X104869819Y-61837981D02*
X104869819Y-61361791D01*
X115836779Y-58259819D02*
X115836779Y-57259819D01*
X115836779Y-57259819D02*
X116217731Y-57259819D01*
X116217731Y-57259819D02*
X116312969Y-57307438D01*
X116312969Y-57307438D02*
X116360588Y-57355057D01*
X116360588Y-57355057D02*
X116408207Y-57450295D01*
X116408207Y-57450295D02*
X116408207Y-57593152D01*
X116408207Y-57593152D02*
X116360588Y-57688390D01*
X116360588Y-57688390D02*
X116312969Y-57736009D01*
X116312969Y-57736009D02*
X116217731Y-57783628D01*
X116217731Y-57783628D02*
X115836779Y-57783628D01*
X117408207Y-58164580D02*
X117360588Y-58212200D01*
X117360588Y-58212200D02*
X117217731Y-58259819D01*
X117217731Y-58259819D02*
X117122493Y-58259819D01*
X117122493Y-58259819D02*
X116979636Y-58212200D01*
X116979636Y-58212200D02*
X116884398Y-58116961D01*
X116884398Y-58116961D02*
X116836779Y-58021723D01*
X116836779Y-58021723D02*
X116789160Y-57831247D01*
X116789160Y-57831247D02*
X116789160Y-57688390D01*
X116789160Y-57688390D02*
X116836779Y-57497914D01*
X116836779Y-57497914D02*
X116884398Y-57402676D01*
X116884398Y-57402676D02*
X116979636Y-57307438D01*
X116979636Y-57307438D02*
X117122493Y-57259819D01*
X117122493Y-57259819D02*
X117217731Y-57259819D01*
X117217731Y-57259819D02*
X117360588Y-57307438D01*
X117360588Y-57307438D02*
X117408207Y-57355057D01*
X118170112Y-57736009D02*
X117836779Y-57736009D01*
X117836779Y-58259819D02*
X117836779Y-57259819D01*
X117836779Y-57259819D02*
X118312969Y-57259819D01*
X118836779Y-57688390D02*
X118741541Y-57640771D01*
X118741541Y-57640771D02*
X118693922Y-57593152D01*
X118693922Y-57593152D02*
X118646303Y-57497914D01*
X118646303Y-57497914D02*
X118646303Y-57450295D01*
X118646303Y-57450295D02*
X118693922Y-57355057D01*
X118693922Y-57355057D02*
X118741541Y-57307438D01*
X118741541Y-57307438D02*
X118836779Y-57259819D01*
X118836779Y-57259819D02*
X119027255Y-57259819D01*
X119027255Y-57259819D02*
X119122493Y-57307438D01*
X119122493Y-57307438D02*
X119170112Y-57355057D01*
X119170112Y-57355057D02*
X119217731Y-57450295D01*
X119217731Y-57450295D02*
X119217731Y-57497914D01*
X119217731Y-57497914D02*
X119170112Y-57593152D01*
X119170112Y-57593152D02*
X119122493Y-57640771D01*
X119122493Y-57640771D02*
X119027255Y-57688390D01*
X119027255Y-57688390D02*
X118836779Y-57688390D01*
X118836779Y-57688390D02*
X118741541Y-57736009D01*
X118741541Y-57736009D02*
X118693922Y-57783628D01*
X118693922Y-57783628D02*
X118646303Y-57878866D01*
X118646303Y-57878866D02*
X118646303Y-58069342D01*
X118646303Y-58069342D02*
X118693922Y-58164580D01*
X118693922Y-58164580D02*
X118741541Y-58212200D01*
X118741541Y-58212200D02*
X118836779Y-58259819D01*
X118836779Y-58259819D02*
X119027255Y-58259819D01*
X119027255Y-58259819D02*
X119122493Y-58212200D01*
X119122493Y-58212200D02*
X119170112Y-58164580D01*
X119170112Y-58164580D02*
X119217731Y-58069342D01*
X119217731Y-58069342D02*
X119217731Y-57878866D01*
X119217731Y-57878866D02*
X119170112Y-57783628D01*
X119170112Y-57783628D02*
X119122493Y-57736009D01*
X119122493Y-57736009D02*
X119027255Y-57688390D01*
X120122493Y-57259819D02*
X119646303Y-57259819D01*
X119646303Y-57259819D02*
X119598684Y-57736009D01*
X119598684Y-57736009D02*
X119646303Y-57688390D01*
X119646303Y-57688390D02*
X119741541Y-57640771D01*
X119741541Y-57640771D02*
X119979636Y-57640771D01*
X119979636Y-57640771D02*
X120074874Y-57688390D01*
X120074874Y-57688390D02*
X120122493Y-57736009D01*
X120122493Y-57736009D02*
X120170112Y-57831247D01*
X120170112Y-57831247D02*
X120170112Y-58069342D01*
X120170112Y-58069342D02*
X120122493Y-58164580D01*
X120122493Y-58164580D02*
X120074874Y-58212200D01*
X120074874Y-58212200D02*
X119979636Y-58259819D01*
X119979636Y-58259819D02*
X119741541Y-58259819D01*
X119741541Y-58259819D02*
X119646303Y-58212200D01*
X119646303Y-58212200D02*
X119598684Y-58164580D01*
X120646303Y-58259819D02*
X120836779Y-58259819D01*
X120836779Y-58259819D02*
X120932017Y-58212200D01*
X120932017Y-58212200D02*
X120979636Y-58164580D01*
X120979636Y-58164580D02*
X121074874Y-58021723D01*
X121074874Y-58021723D02*
X121122493Y-57831247D01*
X121122493Y-57831247D02*
X121122493Y-57450295D01*
X121122493Y-57450295D02*
X121074874Y-57355057D01*
X121074874Y-57355057D02*
X121027255Y-57307438D01*
X121027255Y-57307438D02*
X120932017Y-57259819D01*
X120932017Y-57259819D02*
X120741541Y-57259819D01*
X120741541Y-57259819D02*
X120646303Y-57307438D01*
X120646303Y-57307438D02*
X120598684Y-57355057D01*
X120598684Y-57355057D02*
X120551065Y-57450295D01*
X120551065Y-57450295D02*
X120551065Y-57688390D01*
X120551065Y-57688390D02*
X120598684Y-57783628D01*
X120598684Y-57783628D02*
X120646303Y-57831247D01*
X120646303Y-57831247D02*
X120741541Y-57878866D01*
X120741541Y-57878866D02*
X120932017Y-57878866D01*
X120932017Y-57878866D02*
X121027255Y-57831247D01*
X121027255Y-57831247D02*
X121074874Y-57783628D01*
X121074874Y-57783628D02*
X121122493Y-57688390D01*
X122074874Y-58259819D02*
X121503446Y-58259819D01*
X121789160Y-58259819D02*
X121789160Y-57259819D01*
X121789160Y-57259819D02*
X121693922Y-57402676D01*
X121693922Y-57402676D02*
X121598684Y-57497914D01*
X121598684Y-57497914D02*
X121503446Y-57545533D01*
X115789160Y-59584104D02*
X116265350Y-59584104D01*
X115693922Y-59869819D02*
X116027255Y-58869819D01*
X116027255Y-58869819D02*
X116360588Y-59869819D01*
X116693922Y-59869819D02*
X116693922Y-58869819D01*
X116693922Y-58869819D02*
X116932017Y-58869819D01*
X116932017Y-58869819D02*
X117074874Y-58917438D01*
X117074874Y-58917438D02*
X117170112Y-59012676D01*
X117170112Y-59012676D02*
X117217731Y-59107914D01*
X117217731Y-59107914D02*
X117265350Y-59298390D01*
X117265350Y-59298390D02*
X117265350Y-59441247D01*
X117265350Y-59441247D02*
X117217731Y-59631723D01*
X117217731Y-59631723D02*
X117170112Y-59726961D01*
X117170112Y-59726961D02*
X117074874Y-59822200D01*
X117074874Y-59822200D02*
X116932017Y-59869819D01*
X116932017Y-59869819D02*
X116693922Y-59869819D01*
X118265350Y-59774580D02*
X118217731Y-59822200D01*
X118217731Y-59822200D02*
X118074874Y-59869819D01*
X118074874Y-59869819D02*
X117979636Y-59869819D01*
X117979636Y-59869819D02*
X117836779Y-59822200D01*
X117836779Y-59822200D02*
X117741541Y-59726961D01*
X117741541Y-59726961D02*
X117693922Y-59631723D01*
X117693922Y-59631723D02*
X117646303Y-59441247D01*
X117646303Y-59441247D02*
X117646303Y-59298390D01*
X117646303Y-59298390D02*
X117693922Y-59107914D01*
X117693922Y-59107914D02*
X117741541Y-59012676D01*
X117741541Y-59012676D02*
X117836779Y-58917438D01*
X117836779Y-58917438D02*
X117979636Y-58869819D01*
X117979636Y-58869819D02*
X118074874Y-58869819D01*
X118074874Y-58869819D02*
X118217731Y-58917438D01*
X118217731Y-58917438D02*
X118265350Y-58965057D01*
X119408207Y-58822200D02*
X118551065Y-60107914D01*
X119741541Y-59869819D02*
X119741541Y-58869819D01*
X119741541Y-58869819D02*
X119979636Y-58869819D01*
X119979636Y-58869819D02*
X120122493Y-58917438D01*
X120122493Y-58917438D02*
X120217731Y-59012676D01*
X120217731Y-59012676D02*
X120265350Y-59107914D01*
X120265350Y-59107914D02*
X120312969Y-59298390D01*
X120312969Y-59298390D02*
X120312969Y-59441247D01*
X120312969Y-59441247D02*
X120265350Y-59631723D01*
X120265350Y-59631723D02*
X120217731Y-59726961D01*
X120217731Y-59726961D02*
X120122493Y-59822200D01*
X120122493Y-59822200D02*
X119979636Y-59869819D01*
X119979636Y-59869819D02*
X119741541Y-59869819D01*
X120693922Y-59584104D02*
X121170112Y-59584104D01*
X120598684Y-59869819D02*
X120932017Y-58869819D01*
X120932017Y-58869819D02*
X121265350Y-59869819D01*
X122170112Y-59774580D02*
X122122493Y-59822200D01*
X122122493Y-59822200D02*
X121979636Y-59869819D01*
X121979636Y-59869819D02*
X121884398Y-59869819D01*
X121884398Y-59869819D02*
X121741541Y-59822200D01*
X121741541Y-59822200D02*
X121646303Y-59726961D01*
X121646303Y-59726961D02*
X121598684Y-59631723D01*
X121598684Y-59631723D02*
X121551065Y-59441247D01*
X121551065Y-59441247D02*
X121551065Y-59298390D01*
X121551065Y-59298390D02*
X121598684Y-59107914D01*
X121598684Y-59107914D02*
X121646303Y-59012676D01*
X121646303Y-59012676D02*
X121741541Y-58917438D01*
X121741541Y-58917438D02*
X121884398Y-58869819D01*
X121884398Y-58869819D02*
X121979636Y-58869819D01*
X121979636Y-58869819D02*
X122122493Y-58917438D01*
X122122493Y-58917438D02*
X122170112Y-58965057D01*
X166988866Y-70703220D02*
X166988866Y-69941316D01*
X166369819Y-68846077D02*
X166369819Y-68274649D01*
X167369819Y-68560363D02*
X166369819Y-68560363D01*
X167369819Y-67369887D02*
X166893628Y-67703220D01*
X167369819Y-67941315D02*
X166369819Y-67941315D01*
X166369819Y-67941315D02*
X166369819Y-67560363D01*
X166369819Y-67560363D02*
X166417438Y-67465125D01*
X166417438Y-67465125D02*
X166465057Y-67417506D01*
X166465057Y-67417506D02*
X166560295Y-67369887D01*
X166560295Y-67369887D02*
X166703152Y-67369887D01*
X166703152Y-67369887D02*
X166798390Y-67417506D01*
X166798390Y-67417506D02*
X166846009Y-67465125D01*
X166846009Y-67465125D02*
X166893628Y-67560363D01*
X166893628Y-67560363D02*
X166893628Y-67941315D01*
X167369819Y-66941315D02*
X166369819Y-66941315D01*
X167369819Y-66465125D02*
X166369819Y-66465125D01*
X166369819Y-66465125D02*
X167084104Y-66131792D01*
X167084104Y-66131792D02*
X166369819Y-65798459D01*
X166369819Y-65798459D02*
X167369819Y-65798459D01*
X166988866Y-64560363D02*
X166988866Y-63798459D01*
X167369819Y-64179411D02*
X166607914Y-64179411D01*
X105869819Y-51663220D02*
X104869819Y-51663220D01*
X104869819Y-51663220D02*
X105869819Y-51091792D01*
X105869819Y-51091792D02*
X104869819Y-51091792D01*
X104869819Y-50758458D02*
X104869819Y-50187030D01*
X105869819Y-50472744D02*
X104869819Y-50472744D01*
X105774580Y-49282268D02*
X105822200Y-49329887D01*
X105822200Y-49329887D02*
X105869819Y-49472744D01*
X105869819Y-49472744D02*
X105869819Y-49567982D01*
X105869819Y-49567982D02*
X105822200Y-49710839D01*
X105822200Y-49710839D02*
X105726961Y-49806077D01*
X105726961Y-49806077D02*
X105631723Y-49853696D01*
X105631723Y-49853696D02*
X105441247Y-49901315D01*
X105441247Y-49901315D02*
X105298390Y-49901315D01*
X105298390Y-49901315D02*
X105107914Y-49853696D01*
X105107914Y-49853696D02*
X105012676Y-49806077D01*
X105012676Y-49806077D02*
X104917438Y-49710839D01*
X104917438Y-49710839D02*
X104869819Y-49567982D01*
X104869819Y-49567982D02*
X104869819Y-49472744D01*
X104869819Y-49472744D02*
X104917438Y-49329887D01*
X104917438Y-49329887D02*
X104965057Y-49282268D01*
X113488866Y-38663220D02*
X113488866Y-37901316D01*
X113488866Y-35901315D02*
X113488866Y-35139411D01*
X113869819Y-35520363D02*
X113107914Y-35520363D01*
X130511133Y-33336779D02*
X130511133Y-34098684D01*
X130511133Y-36098684D02*
X130511133Y-36860589D01*
X130130180Y-36479636D02*
X130892085Y-36479636D01*
X127170112Y-38901009D02*
X126836779Y-38901009D01*
X126836779Y-39424819D02*
X126836779Y-38424819D01*
X126836779Y-38424819D02*
X127312969Y-38424819D01*
X127646303Y-39139104D02*
X128122493Y-39139104D01*
X127551065Y-39424819D02*
X127884398Y-38424819D01*
X127884398Y-38424819D02*
X128217731Y-39424819D01*
X128551065Y-39424819D02*
X128551065Y-38424819D01*
X128551065Y-38424819D02*
X129122493Y-39424819D01*
X129122493Y-39424819D02*
X129122493Y-38424819D01*
X52869819Y-49187030D02*
X52869819Y-49663220D01*
X52869819Y-49663220D02*
X51869819Y-49663220D01*
X52346009Y-48853696D02*
X52346009Y-48520363D01*
X52869819Y-48377506D02*
X52869819Y-48853696D01*
X52869819Y-48853696D02*
X51869819Y-48853696D01*
X51869819Y-48853696D02*
X51869819Y-48377506D01*
X52869819Y-47948934D02*
X51869819Y-47948934D01*
X51869819Y-47948934D02*
X51869819Y-47710839D01*
X51869819Y-47710839D02*
X51917438Y-47567982D01*
X51917438Y-47567982D02*
X52012676Y-47472744D01*
X52012676Y-47472744D02*
X52107914Y-47425125D01*
X52107914Y-47425125D02*
X52298390Y-47377506D01*
X52298390Y-47377506D02*
X52441247Y-47377506D01*
X52441247Y-47377506D02*
X52631723Y-47425125D01*
X52631723Y-47425125D02*
X52726961Y-47472744D01*
X52726961Y-47472744D02*
X52822200Y-47567982D01*
X52822200Y-47567982D02*
X52869819Y-47710839D01*
X52869819Y-47710839D02*
X52869819Y-47948934D01*
X56988866Y-80123220D02*
X56988866Y-79361316D01*
X56988866Y-77361315D02*
X56988866Y-76599411D01*
X57369819Y-76980363D02*
X56607914Y-76980363D01*
X52369819Y-80493220D02*
X51369819Y-80493220D01*
X51369819Y-80493220D02*
X51369819Y-80112268D01*
X51369819Y-80112268D02*
X51417438Y-80017030D01*
X51417438Y-80017030D02*
X51465057Y-79969411D01*
X51465057Y-79969411D02*
X51560295Y-79921792D01*
X51560295Y-79921792D02*
X51703152Y-79921792D01*
X51703152Y-79921792D02*
X51798390Y-79969411D01*
X51798390Y-79969411D02*
X51846009Y-80017030D01*
X51846009Y-80017030D02*
X51893628Y-80112268D01*
X51893628Y-80112268D02*
X51893628Y-80493220D01*
X51369819Y-79588458D02*
X52369819Y-79350363D01*
X52369819Y-79350363D02*
X51655533Y-79159887D01*
X51655533Y-79159887D02*
X52369819Y-78969411D01*
X52369819Y-78969411D02*
X51369819Y-78731316D01*
X52369819Y-77778935D02*
X51893628Y-78112268D01*
X52369819Y-78350363D02*
X51369819Y-78350363D01*
X51369819Y-78350363D02*
X51369819Y-77969411D01*
X51369819Y-77969411D02*
X51417438Y-77874173D01*
X51417438Y-77874173D02*
X51465057Y-77826554D01*
X51465057Y-77826554D02*
X51560295Y-77778935D01*
X51560295Y-77778935D02*
X51703152Y-77778935D01*
X51703152Y-77778935D02*
X51798390Y-77826554D01*
X51798390Y-77826554D02*
X51846009Y-77874173D01*
X51846009Y-77874173D02*
X51893628Y-77969411D01*
X51893628Y-77969411D02*
X51893628Y-78350363D01*
X52369819Y-76588458D02*
X51369819Y-76588458D01*
X52369819Y-76112268D02*
X51369819Y-76112268D01*
X51369819Y-76112268D02*
X52369819Y-75540840D01*
X52369819Y-75540840D02*
X51369819Y-75540840D01*
X109812969Y-33369819D02*
X109336779Y-33369819D01*
X109336779Y-33369819D02*
X109336779Y-32369819D01*
X110336779Y-32369819D02*
X110527255Y-32369819D01*
X110527255Y-32369819D02*
X110622493Y-32417438D01*
X110622493Y-32417438D02*
X110717731Y-32512676D01*
X110717731Y-32512676D02*
X110765350Y-32703152D01*
X110765350Y-32703152D02*
X110765350Y-33036485D01*
X110765350Y-33036485D02*
X110717731Y-33226961D01*
X110717731Y-33226961D02*
X110622493Y-33322200D01*
X110622493Y-33322200D02*
X110527255Y-33369819D01*
X110527255Y-33369819D02*
X110336779Y-33369819D01*
X110336779Y-33369819D02*
X110241541Y-33322200D01*
X110241541Y-33322200D02*
X110146303Y-33226961D01*
X110146303Y-33226961D02*
X110098684Y-33036485D01*
X110098684Y-33036485D02*
X110098684Y-32703152D01*
X110098684Y-32703152D02*
X110146303Y-32512676D01*
X110146303Y-32512676D02*
X110241541Y-32417438D01*
X110241541Y-32417438D02*
X110336779Y-32369819D01*
X111146303Y-33084104D02*
X111622493Y-33084104D01*
X111051065Y-33369819D02*
X111384398Y-32369819D01*
X111384398Y-32369819D02*
X111717731Y-33369819D01*
X112051065Y-33369819D02*
X112051065Y-32369819D01*
X112051065Y-32369819D02*
X112289160Y-32369819D01*
X112289160Y-32369819D02*
X112432017Y-32417438D01*
X112432017Y-32417438D02*
X112527255Y-32512676D01*
X112527255Y-32512676D02*
X112574874Y-32607914D01*
X112574874Y-32607914D02*
X112622493Y-32798390D01*
X112622493Y-32798390D02*
X112622493Y-32941247D01*
X112622493Y-32941247D02*
X112574874Y-33131723D01*
X112574874Y-33131723D02*
X112527255Y-33226961D01*
X112527255Y-33226961D02*
X112432017Y-33322200D01*
X112432017Y-33322200D02*
X112289160Y-33369819D01*
X112289160Y-33369819D02*
X112051065Y-33369819D01*
X138289160Y-43584104D02*
X138765350Y-43584104D01*
X138193922Y-43869819D02*
X138527255Y-42869819D01*
X138527255Y-42869819D02*
X138860588Y-43869819D01*
X139193922Y-43869819D02*
X139193922Y-43203152D01*
X139193922Y-43393628D02*
X139241541Y-43298390D01*
X139241541Y-43298390D02*
X139289160Y-43250771D01*
X139289160Y-43250771D02*
X139384398Y-43203152D01*
X139384398Y-43203152D02*
X139479636Y-43203152D01*
X140241541Y-43869819D02*
X140241541Y-42869819D01*
X140241541Y-43822200D02*
X140146303Y-43869819D01*
X140146303Y-43869819D02*
X139955827Y-43869819D01*
X139955827Y-43869819D02*
X139860589Y-43822200D01*
X139860589Y-43822200D02*
X139812970Y-43774580D01*
X139812970Y-43774580D02*
X139765351Y-43679342D01*
X139765351Y-43679342D02*
X139765351Y-43393628D01*
X139765351Y-43393628D02*
X139812970Y-43298390D01*
X139812970Y-43298390D02*
X139860589Y-43250771D01*
X139860589Y-43250771D02*
X139955827Y-43203152D01*
X139955827Y-43203152D02*
X140146303Y-43203152D01*
X140146303Y-43203152D02*
X140241541Y-43250771D01*
X141146303Y-43203152D02*
X141146303Y-43869819D01*
X140717732Y-43203152D02*
X140717732Y-43726961D01*
X140717732Y-43726961D02*
X140765351Y-43822200D01*
X140765351Y-43822200D02*
X140860589Y-43869819D01*
X140860589Y-43869819D02*
X141003446Y-43869819D01*
X141003446Y-43869819D02*
X141098684Y-43822200D01*
X141098684Y-43822200D02*
X141146303Y-43774580D01*
X141622494Y-43869819D02*
X141622494Y-43203152D01*
X141622494Y-42869819D02*
X141574875Y-42917438D01*
X141574875Y-42917438D02*
X141622494Y-42965057D01*
X141622494Y-42965057D02*
X141670113Y-42917438D01*
X141670113Y-42917438D02*
X141622494Y-42869819D01*
X141622494Y-42869819D02*
X141622494Y-42965057D01*
X142098684Y-43203152D02*
X142098684Y-43869819D01*
X142098684Y-43298390D02*
X142146303Y-43250771D01*
X142146303Y-43250771D02*
X142241541Y-43203152D01*
X142241541Y-43203152D02*
X142384398Y-43203152D01*
X142384398Y-43203152D02*
X142479636Y-43250771D01*
X142479636Y-43250771D02*
X142527255Y-43346009D01*
X142527255Y-43346009D02*
X142527255Y-43869819D01*
X143146303Y-43869819D02*
X143051065Y-43822200D01*
X143051065Y-43822200D02*
X143003446Y-43774580D01*
X143003446Y-43774580D02*
X142955827Y-43679342D01*
X142955827Y-43679342D02*
X142955827Y-43393628D01*
X142955827Y-43393628D02*
X143003446Y-43298390D01*
X143003446Y-43298390D02*
X143051065Y-43250771D01*
X143051065Y-43250771D02*
X143146303Y-43203152D01*
X143146303Y-43203152D02*
X143289160Y-43203152D01*
X143289160Y-43203152D02*
X143384398Y-43250771D01*
X143384398Y-43250771D02*
X143432017Y-43298390D01*
X143432017Y-43298390D02*
X143479636Y-43393628D01*
X143479636Y-43393628D02*
X143479636Y-43679342D01*
X143479636Y-43679342D02*
X143432017Y-43774580D01*
X143432017Y-43774580D02*
X143384398Y-43822200D01*
X143384398Y-43822200D02*
X143289160Y-43869819D01*
X143289160Y-43869819D02*
X143146303Y-43869819D01*
X144670113Y-43869819D02*
X144670113Y-42869819D01*
X144670113Y-42869819D02*
X145241541Y-43869819D01*
X145241541Y-43869819D02*
X145241541Y-42869819D01*
X146146303Y-43869819D02*
X146146303Y-43346009D01*
X146146303Y-43346009D02*
X146098684Y-43250771D01*
X146098684Y-43250771D02*
X146003446Y-43203152D01*
X146003446Y-43203152D02*
X145812970Y-43203152D01*
X145812970Y-43203152D02*
X145717732Y-43250771D01*
X146146303Y-43822200D02*
X146051065Y-43869819D01*
X146051065Y-43869819D02*
X145812970Y-43869819D01*
X145812970Y-43869819D02*
X145717732Y-43822200D01*
X145717732Y-43822200D02*
X145670113Y-43726961D01*
X145670113Y-43726961D02*
X145670113Y-43631723D01*
X145670113Y-43631723D02*
X145717732Y-43536485D01*
X145717732Y-43536485D02*
X145812970Y-43488866D01*
X145812970Y-43488866D02*
X146051065Y-43488866D01*
X146051065Y-43488866D02*
X146146303Y-43441247D01*
X146622494Y-43203152D02*
X146622494Y-43869819D01*
X146622494Y-43298390D02*
X146670113Y-43250771D01*
X146670113Y-43250771D02*
X146765351Y-43203152D01*
X146765351Y-43203152D02*
X146908208Y-43203152D01*
X146908208Y-43203152D02*
X147003446Y-43250771D01*
X147003446Y-43250771D02*
X147051065Y-43346009D01*
X147051065Y-43346009D02*
X147051065Y-43869819D01*
X147670113Y-43869819D02*
X147574875Y-43822200D01*
X147574875Y-43822200D02*
X147527256Y-43774580D01*
X147527256Y-43774580D02*
X147479637Y-43679342D01*
X147479637Y-43679342D02*
X147479637Y-43393628D01*
X147479637Y-43393628D02*
X147527256Y-43298390D01*
X147527256Y-43298390D02*
X147574875Y-43250771D01*
X147574875Y-43250771D02*
X147670113Y-43203152D01*
X147670113Y-43203152D02*
X147812970Y-43203152D01*
X147812970Y-43203152D02*
X147908208Y-43250771D01*
X147908208Y-43250771D02*
X147955827Y-43298390D01*
X147955827Y-43298390D02*
X148003446Y-43393628D01*
X148003446Y-43393628D02*
X148003446Y-43679342D01*
X148003446Y-43679342D02*
X147955827Y-43774580D01*
X147955827Y-43774580D02*
X147908208Y-43822200D01*
X147908208Y-43822200D02*
X147812970Y-43869819D01*
X147812970Y-43869819D02*
X147670113Y-43869819D01*
X168369819Y-53626792D02*
X167893628Y-53960125D01*
X168369819Y-54198220D02*
X167369819Y-54198220D01*
X167369819Y-54198220D02*
X167369819Y-53817268D01*
X167369819Y-53817268D02*
X167417438Y-53722030D01*
X167417438Y-53722030D02*
X167465057Y-53674411D01*
X167465057Y-53674411D02*
X167560295Y-53626792D01*
X167560295Y-53626792D02*
X167703152Y-53626792D01*
X167703152Y-53626792D02*
X167798390Y-53674411D01*
X167798390Y-53674411D02*
X167846009Y-53722030D01*
X167846009Y-53722030D02*
X167893628Y-53817268D01*
X167893628Y-53817268D02*
X167893628Y-54198220D01*
X167369819Y-53007744D02*
X167369819Y-52817268D01*
X167369819Y-52817268D02*
X167417438Y-52722030D01*
X167417438Y-52722030D02*
X167512676Y-52626792D01*
X167512676Y-52626792D02*
X167703152Y-52579173D01*
X167703152Y-52579173D02*
X168036485Y-52579173D01*
X168036485Y-52579173D02*
X168226961Y-52626792D01*
X168226961Y-52626792D02*
X168322200Y-52722030D01*
X168322200Y-52722030D02*
X168369819Y-52817268D01*
X168369819Y-52817268D02*
X168369819Y-53007744D01*
X168369819Y-53007744D02*
X168322200Y-53102982D01*
X168322200Y-53102982D02*
X168226961Y-53198220D01*
X168226961Y-53198220D02*
X168036485Y-53245839D01*
X168036485Y-53245839D02*
X167703152Y-53245839D01*
X167703152Y-53245839D02*
X167512676Y-53198220D01*
X167512676Y-53198220D02*
X167417438Y-53102982D01*
X167417438Y-53102982D02*
X167369819Y-53007744D01*
X167369819Y-52293458D02*
X167369819Y-51722030D01*
X168369819Y-52007744D02*
X167369819Y-52007744D01*
X168465057Y-51626792D02*
X168465057Y-50864887D01*
X167846009Y-50626791D02*
X167846009Y-50293458D01*
X168369819Y-50150601D02*
X168369819Y-50626791D01*
X168369819Y-50626791D02*
X167369819Y-50626791D01*
X167369819Y-50626791D02*
X167369819Y-50150601D01*
X168369819Y-49722029D02*
X167369819Y-49722029D01*
X167369819Y-49722029D02*
X168369819Y-49150601D01*
X168369819Y-49150601D02*
X167369819Y-49150601D01*
X160369819Y-42807030D02*
X160369819Y-43283220D01*
X160369819Y-43283220D02*
X159369819Y-43283220D01*
X160274580Y-41902268D02*
X160322200Y-41949887D01*
X160322200Y-41949887D02*
X160369819Y-42092744D01*
X160369819Y-42092744D02*
X160369819Y-42187982D01*
X160369819Y-42187982D02*
X160322200Y-42330839D01*
X160322200Y-42330839D02*
X160226961Y-42426077D01*
X160226961Y-42426077D02*
X160131723Y-42473696D01*
X160131723Y-42473696D02*
X159941247Y-42521315D01*
X159941247Y-42521315D02*
X159798390Y-42521315D01*
X159798390Y-42521315D02*
X159607914Y-42473696D01*
X159607914Y-42473696D02*
X159512676Y-42426077D01*
X159512676Y-42426077D02*
X159417438Y-42330839D01*
X159417438Y-42330839D02*
X159369819Y-42187982D01*
X159369819Y-42187982D02*
X159369819Y-42092744D01*
X159369819Y-42092744D02*
X159417438Y-41949887D01*
X159417438Y-41949887D02*
X159465057Y-41902268D01*
X160369819Y-41473696D02*
X159369819Y-41473696D01*
X159369819Y-41473696D02*
X159369819Y-41235601D01*
X159369819Y-41235601D02*
X159417438Y-41092744D01*
X159417438Y-41092744D02*
X159512676Y-40997506D01*
X159512676Y-40997506D02*
X159607914Y-40949887D01*
X159607914Y-40949887D02*
X159798390Y-40902268D01*
X159798390Y-40902268D02*
X159941247Y-40902268D01*
X159941247Y-40902268D02*
X160131723Y-40949887D01*
X160131723Y-40949887D02*
X160226961Y-40997506D01*
X160226961Y-40997506D02*
X160322200Y-41092744D01*
X160322200Y-41092744D02*
X160369819Y-41235601D01*
X160369819Y-41235601D02*
X160369819Y-41473696D01*
X127884580Y-77666666D02*
X127932200Y-77714285D01*
X127932200Y-77714285D02*
X127979819Y-77857142D01*
X127979819Y-77857142D02*
X127979819Y-77952380D01*
X127979819Y-77952380D02*
X127932200Y-78095237D01*
X127932200Y-78095237D02*
X127836961Y-78190475D01*
X127836961Y-78190475D02*
X127741723Y-78238094D01*
X127741723Y-78238094D02*
X127551247Y-78285713D01*
X127551247Y-78285713D02*
X127408390Y-78285713D01*
X127408390Y-78285713D02*
X127217914Y-78238094D01*
X127217914Y-78238094D02*
X127122676Y-78190475D01*
X127122676Y-78190475D02*
X127027438Y-78095237D01*
X127027438Y-78095237D02*
X126979819Y-77952380D01*
X126979819Y-77952380D02*
X126979819Y-77857142D01*
X126979819Y-77857142D02*
X127027438Y-77714285D01*
X127027438Y-77714285D02*
X127075057Y-77666666D01*
X127979819Y-77190475D02*
X127979819Y-76999999D01*
X127979819Y-76999999D02*
X127932200Y-76904761D01*
X127932200Y-76904761D02*
X127884580Y-76857142D01*
X127884580Y-76857142D02*
X127741723Y-76761904D01*
X127741723Y-76761904D02*
X127551247Y-76714285D01*
X127551247Y-76714285D02*
X127170295Y-76714285D01*
X127170295Y-76714285D02*
X127075057Y-76761904D01*
X127075057Y-76761904D02*
X127027438Y-76809523D01*
X127027438Y-76809523D02*
X126979819Y-76904761D01*
X126979819Y-76904761D02*
X126979819Y-77095237D01*
X126979819Y-77095237D02*
X127027438Y-77190475D01*
X127027438Y-77190475D02*
X127075057Y-77238094D01*
X127075057Y-77238094D02*
X127170295Y-77285713D01*
X127170295Y-77285713D02*
X127408390Y-77285713D01*
X127408390Y-77285713D02*
X127503628Y-77238094D01*
X127503628Y-77238094D02*
X127551247Y-77190475D01*
X127551247Y-77190475D02*
X127598866Y-77095237D01*
X127598866Y-77095237D02*
X127598866Y-76904761D01*
X127598866Y-76904761D02*
X127551247Y-76809523D01*
X127551247Y-76809523D02*
X127503628Y-76761904D01*
X127503628Y-76761904D02*
X127408390Y-76714285D01*
X50454819Y-67721904D02*
X51264342Y-67721904D01*
X51264342Y-67721904D02*
X51359580Y-67674285D01*
X51359580Y-67674285D02*
X51407200Y-67626666D01*
X51407200Y-67626666D02*
X51454819Y-67531428D01*
X51454819Y-67531428D02*
X51454819Y-67340952D01*
X51454819Y-67340952D02*
X51407200Y-67245714D01*
X51407200Y-67245714D02*
X51359580Y-67198095D01*
X51359580Y-67198095D02*
X51264342Y-67150476D01*
X51264342Y-67150476D02*
X50454819Y-67150476D01*
X51454819Y-66150476D02*
X51454819Y-66721904D01*
X51454819Y-66436190D02*
X50454819Y-66436190D01*
X50454819Y-66436190D02*
X50597676Y-66531428D01*
X50597676Y-66531428D02*
X50692914Y-66626666D01*
X50692914Y-66626666D02*
X50740533Y-66721904D01*
X116857142Y-31454819D02*
X116523809Y-30978628D01*
X116285714Y-31454819D02*
X116285714Y-30454819D01*
X116285714Y-30454819D02*
X116666666Y-30454819D01*
X116666666Y-30454819D02*
X116761904Y-30502438D01*
X116761904Y-30502438D02*
X116809523Y-30550057D01*
X116809523Y-30550057D02*
X116857142Y-30645295D01*
X116857142Y-30645295D02*
X116857142Y-30788152D01*
X116857142Y-30788152D02*
X116809523Y-30883390D01*
X116809523Y-30883390D02*
X116761904Y-30931009D01*
X116761904Y-30931009D02*
X116666666Y-30978628D01*
X116666666Y-30978628D02*
X116285714Y-30978628D01*
X117238095Y-30550057D02*
X117285714Y-30502438D01*
X117285714Y-30502438D02*
X117380952Y-30454819D01*
X117380952Y-30454819D02*
X117619047Y-30454819D01*
X117619047Y-30454819D02*
X117714285Y-30502438D01*
X117714285Y-30502438D02*
X117761904Y-30550057D01*
X117761904Y-30550057D02*
X117809523Y-30645295D01*
X117809523Y-30645295D02*
X117809523Y-30740533D01*
X117809523Y-30740533D02*
X117761904Y-30883390D01*
X117761904Y-30883390D02*
X117190476Y-31454819D01*
X117190476Y-31454819D02*
X117809523Y-31454819D01*
X118666666Y-30788152D02*
X118666666Y-31454819D01*
X118428571Y-30407200D02*
X118190476Y-31121485D01*
X118190476Y-31121485D02*
X118809523Y-31121485D01*
X153357142Y-33954819D02*
X153023809Y-33478628D01*
X152785714Y-33954819D02*
X152785714Y-32954819D01*
X152785714Y-32954819D02*
X153166666Y-32954819D01*
X153166666Y-32954819D02*
X153261904Y-33002438D01*
X153261904Y-33002438D02*
X153309523Y-33050057D01*
X153309523Y-33050057D02*
X153357142Y-33145295D01*
X153357142Y-33145295D02*
X153357142Y-33288152D01*
X153357142Y-33288152D02*
X153309523Y-33383390D01*
X153309523Y-33383390D02*
X153261904Y-33431009D01*
X153261904Y-33431009D02*
X153166666Y-33478628D01*
X153166666Y-33478628D02*
X152785714Y-33478628D01*
X153738095Y-33050057D02*
X153785714Y-33002438D01*
X153785714Y-33002438D02*
X153880952Y-32954819D01*
X153880952Y-32954819D02*
X154119047Y-32954819D01*
X154119047Y-32954819D02*
X154214285Y-33002438D01*
X154214285Y-33002438D02*
X154261904Y-33050057D01*
X154261904Y-33050057D02*
X154309523Y-33145295D01*
X154309523Y-33145295D02*
X154309523Y-33240533D01*
X154309523Y-33240533D02*
X154261904Y-33383390D01*
X154261904Y-33383390D02*
X153690476Y-33954819D01*
X153690476Y-33954819D02*
X154309523Y-33954819D01*
X154642857Y-32954819D02*
X155261904Y-32954819D01*
X155261904Y-32954819D02*
X154928571Y-33335771D01*
X154928571Y-33335771D02*
X155071428Y-33335771D01*
X155071428Y-33335771D02*
X155166666Y-33383390D01*
X155166666Y-33383390D02*
X155214285Y-33431009D01*
X155214285Y-33431009D02*
X155261904Y-33526247D01*
X155261904Y-33526247D02*
X155261904Y-33764342D01*
X155261904Y-33764342D02*
X155214285Y-33859580D01*
X155214285Y-33859580D02*
X155166666Y-33907200D01*
X155166666Y-33907200D02*
X155071428Y-33954819D01*
X155071428Y-33954819D02*
X154785714Y-33954819D01*
X154785714Y-33954819D02*
X154690476Y-33907200D01*
X154690476Y-33907200D02*
X154642857Y-33859580D01*
X121857142Y-31454819D02*
X121523809Y-30978628D01*
X121285714Y-31454819D02*
X121285714Y-30454819D01*
X121285714Y-30454819D02*
X121666666Y-30454819D01*
X121666666Y-30454819D02*
X121761904Y-30502438D01*
X121761904Y-30502438D02*
X121809523Y-30550057D01*
X121809523Y-30550057D02*
X121857142Y-30645295D01*
X121857142Y-30645295D02*
X121857142Y-30788152D01*
X121857142Y-30788152D02*
X121809523Y-30883390D01*
X121809523Y-30883390D02*
X121761904Y-30931009D01*
X121761904Y-30931009D02*
X121666666Y-30978628D01*
X121666666Y-30978628D02*
X121285714Y-30978628D01*
X122238095Y-30550057D02*
X122285714Y-30502438D01*
X122285714Y-30502438D02*
X122380952Y-30454819D01*
X122380952Y-30454819D02*
X122619047Y-30454819D01*
X122619047Y-30454819D02*
X122714285Y-30502438D01*
X122714285Y-30502438D02*
X122761904Y-30550057D01*
X122761904Y-30550057D02*
X122809523Y-30645295D01*
X122809523Y-30645295D02*
X122809523Y-30740533D01*
X122809523Y-30740533D02*
X122761904Y-30883390D01*
X122761904Y-30883390D02*
X122190476Y-31454819D01*
X122190476Y-31454819D02*
X122809523Y-31454819D01*
X123190476Y-30550057D02*
X123238095Y-30502438D01*
X123238095Y-30502438D02*
X123333333Y-30454819D01*
X123333333Y-30454819D02*
X123571428Y-30454819D01*
X123571428Y-30454819D02*
X123666666Y-30502438D01*
X123666666Y-30502438D02*
X123714285Y-30550057D01*
X123714285Y-30550057D02*
X123761904Y-30645295D01*
X123761904Y-30645295D02*
X123761904Y-30740533D01*
X123761904Y-30740533D02*
X123714285Y-30883390D01*
X123714285Y-30883390D02*
X123142857Y-31454819D01*
X123142857Y-31454819D02*
X123761904Y-31454819D01*
X93357142Y-79954819D02*
X93023809Y-79478628D01*
X92785714Y-79954819D02*
X92785714Y-78954819D01*
X92785714Y-78954819D02*
X93166666Y-78954819D01*
X93166666Y-78954819D02*
X93261904Y-79002438D01*
X93261904Y-79002438D02*
X93309523Y-79050057D01*
X93309523Y-79050057D02*
X93357142Y-79145295D01*
X93357142Y-79145295D02*
X93357142Y-79288152D01*
X93357142Y-79288152D02*
X93309523Y-79383390D01*
X93309523Y-79383390D02*
X93261904Y-79431009D01*
X93261904Y-79431009D02*
X93166666Y-79478628D01*
X93166666Y-79478628D02*
X92785714Y-79478628D01*
X93738095Y-79050057D02*
X93785714Y-79002438D01*
X93785714Y-79002438D02*
X93880952Y-78954819D01*
X93880952Y-78954819D02*
X94119047Y-78954819D01*
X94119047Y-78954819D02*
X94214285Y-79002438D01*
X94214285Y-79002438D02*
X94261904Y-79050057D01*
X94261904Y-79050057D02*
X94309523Y-79145295D01*
X94309523Y-79145295D02*
X94309523Y-79240533D01*
X94309523Y-79240533D02*
X94261904Y-79383390D01*
X94261904Y-79383390D02*
X93690476Y-79954819D01*
X93690476Y-79954819D02*
X94309523Y-79954819D01*
X95261904Y-79954819D02*
X94690476Y-79954819D01*
X94976190Y-79954819D02*
X94976190Y-78954819D01*
X94976190Y-78954819D02*
X94880952Y-79097676D01*
X94880952Y-79097676D02*
X94785714Y-79192914D01*
X94785714Y-79192914D02*
X94690476Y-79240533D01*
X104857142Y-79454819D02*
X104523809Y-78978628D01*
X104285714Y-79454819D02*
X104285714Y-78454819D01*
X104285714Y-78454819D02*
X104666666Y-78454819D01*
X104666666Y-78454819D02*
X104761904Y-78502438D01*
X104761904Y-78502438D02*
X104809523Y-78550057D01*
X104809523Y-78550057D02*
X104857142Y-78645295D01*
X104857142Y-78645295D02*
X104857142Y-78788152D01*
X104857142Y-78788152D02*
X104809523Y-78883390D01*
X104809523Y-78883390D02*
X104761904Y-78931009D01*
X104761904Y-78931009D02*
X104666666Y-78978628D01*
X104666666Y-78978628D02*
X104285714Y-78978628D01*
X105238095Y-78550057D02*
X105285714Y-78502438D01*
X105285714Y-78502438D02*
X105380952Y-78454819D01*
X105380952Y-78454819D02*
X105619047Y-78454819D01*
X105619047Y-78454819D02*
X105714285Y-78502438D01*
X105714285Y-78502438D02*
X105761904Y-78550057D01*
X105761904Y-78550057D02*
X105809523Y-78645295D01*
X105809523Y-78645295D02*
X105809523Y-78740533D01*
X105809523Y-78740533D02*
X105761904Y-78883390D01*
X105761904Y-78883390D02*
X105190476Y-79454819D01*
X105190476Y-79454819D02*
X105809523Y-79454819D01*
X106428571Y-78454819D02*
X106523809Y-78454819D01*
X106523809Y-78454819D02*
X106619047Y-78502438D01*
X106619047Y-78502438D02*
X106666666Y-78550057D01*
X106666666Y-78550057D02*
X106714285Y-78645295D01*
X106714285Y-78645295D02*
X106761904Y-78835771D01*
X106761904Y-78835771D02*
X106761904Y-79073866D01*
X106761904Y-79073866D02*
X106714285Y-79264342D01*
X106714285Y-79264342D02*
X106666666Y-79359580D01*
X106666666Y-79359580D02*
X106619047Y-79407200D01*
X106619047Y-79407200D02*
X106523809Y-79454819D01*
X106523809Y-79454819D02*
X106428571Y-79454819D01*
X106428571Y-79454819D02*
X106333333Y-79407200D01*
X106333333Y-79407200D02*
X106285714Y-79359580D01*
X106285714Y-79359580D02*
X106238095Y-79264342D01*
X106238095Y-79264342D02*
X106190476Y-79073866D01*
X106190476Y-79073866D02*
X106190476Y-78835771D01*
X106190476Y-78835771D02*
X106238095Y-78645295D01*
X106238095Y-78645295D02*
X106285714Y-78550057D01*
X106285714Y-78550057D02*
X106333333Y-78502438D01*
X106333333Y-78502438D02*
X106428571Y-78454819D01*
X105394642Y-89454819D02*
X105061309Y-88978628D01*
X104823214Y-89454819D02*
X104823214Y-88454819D01*
X104823214Y-88454819D02*
X105204166Y-88454819D01*
X105204166Y-88454819D02*
X105299404Y-88502438D01*
X105299404Y-88502438D02*
X105347023Y-88550057D01*
X105347023Y-88550057D02*
X105394642Y-88645295D01*
X105394642Y-88645295D02*
X105394642Y-88788152D01*
X105394642Y-88788152D02*
X105347023Y-88883390D01*
X105347023Y-88883390D02*
X105299404Y-88931009D01*
X105299404Y-88931009D02*
X105204166Y-88978628D01*
X105204166Y-88978628D02*
X104823214Y-88978628D01*
X106347023Y-89454819D02*
X105775595Y-89454819D01*
X106061309Y-89454819D02*
X106061309Y-88454819D01*
X106061309Y-88454819D02*
X105966071Y-88597676D01*
X105966071Y-88597676D02*
X105870833Y-88692914D01*
X105870833Y-88692914D02*
X105775595Y-88740533D01*
X106823214Y-89454819D02*
X107013690Y-89454819D01*
X107013690Y-89454819D02*
X107108928Y-89407200D01*
X107108928Y-89407200D02*
X107156547Y-89359580D01*
X107156547Y-89359580D02*
X107251785Y-89216723D01*
X107251785Y-89216723D02*
X107299404Y-89026247D01*
X107299404Y-89026247D02*
X107299404Y-88645295D01*
X107299404Y-88645295D02*
X107251785Y-88550057D01*
X107251785Y-88550057D02*
X107204166Y-88502438D01*
X107204166Y-88502438D02*
X107108928Y-88454819D01*
X107108928Y-88454819D02*
X106918452Y-88454819D01*
X106918452Y-88454819D02*
X106823214Y-88502438D01*
X106823214Y-88502438D02*
X106775595Y-88550057D01*
X106775595Y-88550057D02*
X106727976Y-88645295D01*
X106727976Y-88645295D02*
X106727976Y-88883390D01*
X106727976Y-88883390D02*
X106775595Y-88978628D01*
X106775595Y-88978628D02*
X106823214Y-89026247D01*
X106823214Y-89026247D02*
X106918452Y-89073866D01*
X106918452Y-89073866D02*
X107108928Y-89073866D01*
X107108928Y-89073866D02*
X107204166Y-89026247D01*
X107204166Y-89026247D02*
X107251785Y-88978628D01*
X107251785Y-88978628D02*
X107299404Y-88883390D01*
X146954819Y-87142857D02*
X146478628Y-87476190D01*
X146954819Y-87714285D02*
X145954819Y-87714285D01*
X145954819Y-87714285D02*
X145954819Y-87333333D01*
X145954819Y-87333333D02*
X146002438Y-87238095D01*
X146002438Y-87238095D02*
X146050057Y-87190476D01*
X146050057Y-87190476D02*
X146145295Y-87142857D01*
X146145295Y-87142857D02*
X146288152Y-87142857D01*
X146288152Y-87142857D02*
X146383390Y-87190476D01*
X146383390Y-87190476D02*
X146431009Y-87238095D01*
X146431009Y-87238095D02*
X146478628Y-87333333D01*
X146478628Y-87333333D02*
X146478628Y-87714285D01*
X146954819Y-86190476D02*
X146954819Y-86761904D01*
X146954819Y-86476190D02*
X145954819Y-86476190D01*
X145954819Y-86476190D02*
X146097676Y-86571428D01*
X146097676Y-86571428D02*
X146192914Y-86666666D01*
X146192914Y-86666666D02*
X146240533Y-86761904D01*
X146383390Y-85619047D02*
X146335771Y-85714285D01*
X146335771Y-85714285D02*
X146288152Y-85761904D01*
X146288152Y-85761904D02*
X146192914Y-85809523D01*
X146192914Y-85809523D02*
X146145295Y-85809523D01*
X146145295Y-85809523D02*
X146050057Y-85761904D01*
X146050057Y-85761904D02*
X146002438Y-85714285D01*
X146002438Y-85714285D02*
X145954819Y-85619047D01*
X145954819Y-85619047D02*
X145954819Y-85428571D01*
X145954819Y-85428571D02*
X146002438Y-85333333D01*
X146002438Y-85333333D02*
X146050057Y-85285714D01*
X146050057Y-85285714D02*
X146145295Y-85238095D01*
X146145295Y-85238095D02*
X146192914Y-85238095D01*
X146192914Y-85238095D02*
X146288152Y-85285714D01*
X146288152Y-85285714D02*
X146335771Y-85333333D01*
X146335771Y-85333333D02*
X146383390Y-85428571D01*
X146383390Y-85428571D02*
X146383390Y-85619047D01*
X146383390Y-85619047D02*
X146431009Y-85714285D01*
X146431009Y-85714285D02*
X146478628Y-85761904D01*
X146478628Y-85761904D02*
X146573866Y-85809523D01*
X146573866Y-85809523D02*
X146764342Y-85809523D01*
X146764342Y-85809523D02*
X146859580Y-85761904D01*
X146859580Y-85761904D02*
X146907200Y-85714285D01*
X146907200Y-85714285D02*
X146954819Y-85619047D01*
X146954819Y-85619047D02*
X146954819Y-85428571D01*
X146954819Y-85428571D02*
X146907200Y-85333333D01*
X146907200Y-85333333D02*
X146859580Y-85285714D01*
X146859580Y-85285714D02*
X146764342Y-85238095D01*
X146764342Y-85238095D02*
X146573866Y-85238095D01*
X146573866Y-85238095D02*
X146478628Y-85285714D01*
X146478628Y-85285714D02*
X146431009Y-85333333D01*
X146431009Y-85333333D02*
X146383390Y-85428571D01*
X146954819Y-83642857D02*
X146478628Y-83976190D01*
X146954819Y-84214285D02*
X145954819Y-84214285D01*
X145954819Y-84214285D02*
X145954819Y-83833333D01*
X145954819Y-83833333D02*
X146002438Y-83738095D01*
X146002438Y-83738095D02*
X146050057Y-83690476D01*
X146050057Y-83690476D02*
X146145295Y-83642857D01*
X146145295Y-83642857D02*
X146288152Y-83642857D01*
X146288152Y-83642857D02*
X146383390Y-83690476D01*
X146383390Y-83690476D02*
X146431009Y-83738095D01*
X146431009Y-83738095D02*
X146478628Y-83833333D01*
X146478628Y-83833333D02*
X146478628Y-84214285D01*
X146954819Y-82690476D02*
X146954819Y-83261904D01*
X146954819Y-82976190D02*
X145954819Y-82976190D01*
X145954819Y-82976190D02*
X146097676Y-83071428D01*
X146097676Y-83071428D02*
X146192914Y-83166666D01*
X146192914Y-83166666D02*
X146240533Y-83261904D01*
X145954819Y-82357142D02*
X145954819Y-81690476D01*
X145954819Y-81690476D02*
X146954819Y-82119047D01*
X131454819Y-88642857D02*
X130978628Y-88976190D01*
X131454819Y-89214285D02*
X130454819Y-89214285D01*
X130454819Y-89214285D02*
X130454819Y-88833333D01*
X130454819Y-88833333D02*
X130502438Y-88738095D01*
X130502438Y-88738095D02*
X130550057Y-88690476D01*
X130550057Y-88690476D02*
X130645295Y-88642857D01*
X130645295Y-88642857D02*
X130788152Y-88642857D01*
X130788152Y-88642857D02*
X130883390Y-88690476D01*
X130883390Y-88690476D02*
X130931009Y-88738095D01*
X130931009Y-88738095D02*
X130978628Y-88833333D01*
X130978628Y-88833333D02*
X130978628Y-89214285D01*
X131454819Y-87690476D02*
X131454819Y-88261904D01*
X131454819Y-87976190D02*
X130454819Y-87976190D01*
X130454819Y-87976190D02*
X130597676Y-88071428D01*
X130597676Y-88071428D02*
X130692914Y-88166666D01*
X130692914Y-88166666D02*
X130740533Y-88261904D01*
X130454819Y-86833333D02*
X130454819Y-87023809D01*
X130454819Y-87023809D02*
X130502438Y-87119047D01*
X130502438Y-87119047D02*
X130550057Y-87166666D01*
X130550057Y-87166666D02*
X130692914Y-87261904D01*
X130692914Y-87261904D02*
X130883390Y-87309523D01*
X130883390Y-87309523D02*
X131264342Y-87309523D01*
X131264342Y-87309523D02*
X131359580Y-87261904D01*
X131359580Y-87261904D02*
X131407200Y-87214285D01*
X131407200Y-87214285D02*
X131454819Y-87119047D01*
X131454819Y-87119047D02*
X131454819Y-86928571D01*
X131454819Y-86928571D02*
X131407200Y-86833333D01*
X131407200Y-86833333D02*
X131359580Y-86785714D01*
X131359580Y-86785714D02*
X131264342Y-86738095D01*
X131264342Y-86738095D02*
X131026247Y-86738095D01*
X131026247Y-86738095D02*
X130931009Y-86785714D01*
X130931009Y-86785714D02*
X130883390Y-86833333D01*
X130883390Y-86833333D02*
X130835771Y-86928571D01*
X130835771Y-86928571D02*
X130835771Y-87119047D01*
X130835771Y-87119047D02*
X130883390Y-87214285D01*
X130883390Y-87214285D02*
X130931009Y-87261904D01*
X130931009Y-87261904D02*
X131026247Y-87309523D01*
X97207142Y-46454819D02*
X96873809Y-45978628D01*
X96635714Y-46454819D02*
X96635714Y-45454819D01*
X96635714Y-45454819D02*
X97016666Y-45454819D01*
X97016666Y-45454819D02*
X97111904Y-45502438D01*
X97111904Y-45502438D02*
X97159523Y-45550057D01*
X97159523Y-45550057D02*
X97207142Y-45645295D01*
X97207142Y-45645295D02*
X97207142Y-45788152D01*
X97207142Y-45788152D02*
X97159523Y-45883390D01*
X97159523Y-45883390D02*
X97111904Y-45931009D01*
X97111904Y-45931009D02*
X97016666Y-45978628D01*
X97016666Y-45978628D02*
X96635714Y-45978628D01*
X98159523Y-46454819D02*
X97588095Y-46454819D01*
X97873809Y-46454819D02*
X97873809Y-45454819D01*
X97873809Y-45454819D02*
X97778571Y-45597676D01*
X97778571Y-45597676D02*
X97683333Y-45692914D01*
X97683333Y-45692914D02*
X97588095Y-45740533D01*
X99064285Y-45454819D02*
X98588095Y-45454819D01*
X98588095Y-45454819D02*
X98540476Y-45931009D01*
X98540476Y-45931009D02*
X98588095Y-45883390D01*
X98588095Y-45883390D02*
X98683333Y-45835771D01*
X98683333Y-45835771D02*
X98921428Y-45835771D01*
X98921428Y-45835771D02*
X99016666Y-45883390D01*
X99016666Y-45883390D02*
X99064285Y-45931009D01*
X99064285Y-45931009D02*
X99111904Y-46026247D01*
X99111904Y-46026247D02*
X99111904Y-46264342D01*
X99111904Y-46264342D02*
X99064285Y-46359580D01*
X99064285Y-46359580D02*
X99016666Y-46407200D01*
X99016666Y-46407200D02*
X98921428Y-46454819D01*
X98921428Y-46454819D02*
X98683333Y-46454819D01*
X98683333Y-46454819D02*
X98588095Y-46407200D01*
X98588095Y-46407200D02*
X98540476Y-46359580D01*
X86707142Y-46454819D02*
X86373809Y-45978628D01*
X86135714Y-46454819D02*
X86135714Y-45454819D01*
X86135714Y-45454819D02*
X86516666Y-45454819D01*
X86516666Y-45454819D02*
X86611904Y-45502438D01*
X86611904Y-45502438D02*
X86659523Y-45550057D01*
X86659523Y-45550057D02*
X86707142Y-45645295D01*
X86707142Y-45645295D02*
X86707142Y-45788152D01*
X86707142Y-45788152D02*
X86659523Y-45883390D01*
X86659523Y-45883390D02*
X86611904Y-45931009D01*
X86611904Y-45931009D02*
X86516666Y-45978628D01*
X86516666Y-45978628D02*
X86135714Y-45978628D01*
X87659523Y-46454819D02*
X87088095Y-46454819D01*
X87373809Y-46454819D02*
X87373809Y-45454819D01*
X87373809Y-45454819D02*
X87278571Y-45597676D01*
X87278571Y-45597676D02*
X87183333Y-45692914D01*
X87183333Y-45692914D02*
X87088095Y-45740533D01*
X88516666Y-45788152D02*
X88516666Y-46454819D01*
X88278571Y-45407200D02*
X88040476Y-46121485D01*
X88040476Y-46121485D02*
X88659523Y-46121485D01*
X76207142Y-46454819D02*
X75873809Y-45978628D01*
X75635714Y-46454819D02*
X75635714Y-45454819D01*
X75635714Y-45454819D02*
X76016666Y-45454819D01*
X76016666Y-45454819D02*
X76111904Y-45502438D01*
X76111904Y-45502438D02*
X76159523Y-45550057D01*
X76159523Y-45550057D02*
X76207142Y-45645295D01*
X76207142Y-45645295D02*
X76207142Y-45788152D01*
X76207142Y-45788152D02*
X76159523Y-45883390D01*
X76159523Y-45883390D02*
X76111904Y-45931009D01*
X76111904Y-45931009D02*
X76016666Y-45978628D01*
X76016666Y-45978628D02*
X75635714Y-45978628D01*
X77159523Y-46454819D02*
X76588095Y-46454819D01*
X76873809Y-46454819D02*
X76873809Y-45454819D01*
X76873809Y-45454819D02*
X76778571Y-45597676D01*
X76778571Y-45597676D02*
X76683333Y-45692914D01*
X76683333Y-45692914D02*
X76588095Y-45740533D01*
X77492857Y-45454819D02*
X78111904Y-45454819D01*
X78111904Y-45454819D02*
X77778571Y-45835771D01*
X77778571Y-45835771D02*
X77921428Y-45835771D01*
X77921428Y-45835771D02*
X78016666Y-45883390D01*
X78016666Y-45883390D02*
X78064285Y-45931009D01*
X78064285Y-45931009D02*
X78111904Y-46026247D01*
X78111904Y-46026247D02*
X78111904Y-46264342D01*
X78111904Y-46264342D02*
X78064285Y-46359580D01*
X78064285Y-46359580D02*
X78016666Y-46407200D01*
X78016666Y-46407200D02*
X77921428Y-46454819D01*
X77921428Y-46454819D02*
X77635714Y-46454819D01*
X77635714Y-46454819D02*
X77540476Y-46407200D01*
X77540476Y-46407200D02*
X77492857Y-46359580D01*
X65707142Y-46454819D02*
X65373809Y-45978628D01*
X65135714Y-46454819D02*
X65135714Y-45454819D01*
X65135714Y-45454819D02*
X65516666Y-45454819D01*
X65516666Y-45454819D02*
X65611904Y-45502438D01*
X65611904Y-45502438D02*
X65659523Y-45550057D01*
X65659523Y-45550057D02*
X65707142Y-45645295D01*
X65707142Y-45645295D02*
X65707142Y-45788152D01*
X65707142Y-45788152D02*
X65659523Y-45883390D01*
X65659523Y-45883390D02*
X65611904Y-45931009D01*
X65611904Y-45931009D02*
X65516666Y-45978628D01*
X65516666Y-45978628D02*
X65135714Y-45978628D01*
X66659523Y-46454819D02*
X66088095Y-46454819D01*
X66373809Y-46454819D02*
X66373809Y-45454819D01*
X66373809Y-45454819D02*
X66278571Y-45597676D01*
X66278571Y-45597676D02*
X66183333Y-45692914D01*
X66183333Y-45692914D02*
X66088095Y-45740533D01*
X67040476Y-45550057D02*
X67088095Y-45502438D01*
X67088095Y-45502438D02*
X67183333Y-45454819D01*
X67183333Y-45454819D02*
X67421428Y-45454819D01*
X67421428Y-45454819D02*
X67516666Y-45502438D01*
X67516666Y-45502438D02*
X67564285Y-45550057D01*
X67564285Y-45550057D02*
X67611904Y-45645295D01*
X67611904Y-45645295D02*
X67611904Y-45740533D01*
X67611904Y-45740533D02*
X67564285Y-45883390D01*
X67564285Y-45883390D02*
X66992857Y-46454819D01*
X66992857Y-46454819D02*
X67611904Y-46454819D01*
X102954819Y-39642857D02*
X102478628Y-39976190D01*
X102954819Y-40214285D02*
X101954819Y-40214285D01*
X101954819Y-40214285D02*
X101954819Y-39833333D01*
X101954819Y-39833333D02*
X102002438Y-39738095D01*
X102002438Y-39738095D02*
X102050057Y-39690476D01*
X102050057Y-39690476D02*
X102145295Y-39642857D01*
X102145295Y-39642857D02*
X102288152Y-39642857D01*
X102288152Y-39642857D02*
X102383390Y-39690476D01*
X102383390Y-39690476D02*
X102431009Y-39738095D01*
X102431009Y-39738095D02*
X102478628Y-39833333D01*
X102478628Y-39833333D02*
X102478628Y-40214285D01*
X102954819Y-38690476D02*
X102954819Y-39261904D01*
X102954819Y-38976190D02*
X101954819Y-38976190D01*
X101954819Y-38976190D02*
X102097676Y-39071428D01*
X102097676Y-39071428D02*
X102192914Y-39166666D01*
X102192914Y-39166666D02*
X102240533Y-39261904D01*
X102954819Y-37738095D02*
X102954819Y-38309523D01*
X102954819Y-38023809D02*
X101954819Y-38023809D01*
X101954819Y-38023809D02*
X102097676Y-38119047D01*
X102097676Y-38119047D02*
X102192914Y-38214285D01*
X102192914Y-38214285D02*
X102240533Y-38309523D01*
X90954819Y-39642857D02*
X90478628Y-39976190D01*
X90954819Y-40214285D02*
X89954819Y-40214285D01*
X89954819Y-40214285D02*
X89954819Y-39833333D01*
X89954819Y-39833333D02*
X90002438Y-39738095D01*
X90002438Y-39738095D02*
X90050057Y-39690476D01*
X90050057Y-39690476D02*
X90145295Y-39642857D01*
X90145295Y-39642857D02*
X90288152Y-39642857D01*
X90288152Y-39642857D02*
X90383390Y-39690476D01*
X90383390Y-39690476D02*
X90431009Y-39738095D01*
X90431009Y-39738095D02*
X90478628Y-39833333D01*
X90478628Y-39833333D02*
X90478628Y-40214285D01*
X90954819Y-38690476D02*
X90954819Y-39261904D01*
X90954819Y-38976190D02*
X89954819Y-38976190D01*
X89954819Y-38976190D02*
X90097676Y-39071428D01*
X90097676Y-39071428D02*
X90192914Y-39166666D01*
X90192914Y-39166666D02*
X90240533Y-39261904D01*
X89954819Y-38071428D02*
X89954819Y-37976190D01*
X89954819Y-37976190D02*
X90002438Y-37880952D01*
X90002438Y-37880952D02*
X90050057Y-37833333D01*
X90050057Y-37833333D02*
X90145295Y-37785714D01*
X90145295Y-37785714D02*
X90335771Y-37738095D01*
X90335771Y-37738095D02*
X90573866Y-37738095D01*
X90573866Y-37738095D02*
X90764342Y-37785714D01*
X90764342Y-37785714D02*
X90859580Y-37833333D01*
X90859580Y-37833333D02*
X90907200Y-37880952D01*
X90907200Y-37880952D02*
X90954819Y-37976190D01*
X90954819Y-37976190D02*
X90954819Y-38071428D01*
X90954819Y-38071428D02*
X90907200Y-38166666D01*
X90907200Y-38166666D02*
X90859580Y-38214285D01*
X90859580Y-38214285D02*
X90764342Y-38261904D01*
X90764342Y-38261904D02*
X90573866Y-38309523D01*
X90573866Y-38309523D02*
X90335771Y-38309523D01*
X90335771Y-38309523D02*
X90145295Y-38261904D01*
X90145295Y-38261904D02*
X90050057Y-38214285D01*
X90050057Y-38214285D02*
X90002438Y-38166666D01*
X90002438Y-38166666D02*
X89954819Y-38071428D01*
X78954819Y-39166666D02*
X78478628Y-39499999D01*
X78954819Y-39738094D02*
X77954819Y-39738094D01*
X77954819Y-39738094D02*
X77954819Y-39357142D01*
X77954819Y-39357142D02*
X78002438Y-39261904D01*
X78002438Y-39261904D02*
X78050057Y-39214285D01*
X78050057Y-39214285D02*
X78145295Y-39166666D01*
X78145295Y-39166666D02*
X78288152Y-39166666D01*
X78288152Y-39166666D02*
X78383390Y-39214285D01*
X78383390Y-39214285D02*
X78431009Y-39261904D01*
X78431009Y-39261904D02*
X78478628Y-39357142D01*
X78478628Y-39357142D02*
X78478628Y-39738094D01*
X78954819Y-38690475D02*
X78954819Y-38499999D01*
X78954819Y-38499999D02*
X78907200Y-38404761D01*
X78907200Y-38404761D02*
X78859580Y-38357142D01*
X78859580Y-38357142D02*
X78716723Y-38261904D01*
X78716723Y-38261904D02*
X78526247Y-38214285D01*
X78526247Y-38214285D02*
X78145295Y-38214285D01*
X78145295Y-38214285D02*
X78050057Y-38261904D01*
X78050057Y-38261904D02*
X78002438Y-38309523D01*
X78002438Y-38309523D02*
X77954819Y-38404761D01*
X77954819Y-38404761D02*
X77954819Y-38595237D01*
X77954819Y-38595237D02*
X78002438Y-38690475D01*
X78002438Y-38690475D02*
X78050057Y-38738094D01*
X78050057Y-38738094D02*
X78145295Y-38785713D01*
X78145295Y-38785713D02*
X78383390Y-38785713D01*
X78383390Y-38785713D02*
X78478628Y-38738094D01*
X78478628Y-38738094D02*
X78526247Y-38690475D01*
X78526247Y-38690475D02*
X78573866Y-38595237D01*
X78573866Y-38595237D02*
X78573866Y-38404761D01*
X78573866Y-38404761D02*
X78526247Y-38309523D01*
X78526247Y-38309523D02*
X78478628Y-38261904D01*
X78478628Y-38261904D02*
X78383390Y-38214285D01*
X66954819Y-39166666D02*
X66478628Y-39499999D01*
X66954819Y-39738094D02*
X65954819Y-39738094D01*
X65954819Y-39738094D02*
X65954819Y-39357142D01*
X65954819Y-39357142D02*
X66002438Y-39261904D01*
X66002438Y-39261904D02*
X66050057Y-39214285D01*
X66050057Y-39214285D02*
X66145295Y-39166666D01*
X66145295Y-39166666D02*
X66288152Y-39166666D01*
X66288152Y-39166666D02*
X66383390Y-39214285D01*
X66383390Y-39214285D02*
X66431009Y-39261904D01*
X66431009Y-39261904D02*
X66478628Y-39357142D01*
X66478628Y-39357142D02*
X66478628Y-39738094D01*
X66383390Y-38595237D02*
X66335771Y-38690475D01*
X66335771Y-38690475D02*
X66288152Y-38738094D01*
X66288152Y-38738094D02*
X66192914Y-38785713D01*
X66192914Y-38785713D02*
X66145295Y-38785713D01*
X66145295Y-38785713D02*
X66050057Y-38738094D01*
X66050057Y-38738094D02*
X66002438Y-38690475D01*
X66002438Y-38690475D02*
X65954819Y-38595237D01*
X65954819Y-38595237D02*
X65954819Y-38404761D01*
X65954819Y-38404761D02*
X66002438Y-38309523D01*
X66002438Y-38309523D02*
X66050057Y-38261904D01*
X66050057Y-38261904D02*
X66145295Y-38214285D01*
X66145295Y-38214285D02*
X66192914Y-38214285D01*
X66192914Y-38214285D02*
X66288152Y-38261904D01*
X66288152Y-38261904D02*
X66335771Y-38309523D01*
X66335771Y-38309523D02*
X66383390Y-38404761D01*
X66383390Y-38404761D02*
X66383390Y-38595237D01*
X66383390Y-38595237D02*
X66431009Y-38690475D01*
X66431009Y-38690475D02*
X66478628Y-38738094D01*
X66478628Y-38738094D02*
X66573866Y-38785713D01*
X66573866Y-38785713D02*
X66764342Y-38785713D01*
X66764342Y-38785713D02*
X66859580Y-38738094D01*
X66859580Y-38738094D02*
X66907200Y-38690475D01*
X66907200Y-38690475D02*
X66954819Y-38595237D01*
X66954819Y-38595237D02*
X66954819Y-38404761D01*
X66954819Y-38404761D02*
X66907200Y-38309523D01*
X66907200Y-38309523D02*
X66859580Y-38261904D01*
X66859580Y-38261904D02*
X66764342Y-38214285D01*
X66764342Y-38214285D02*
X66573866Y-38214285D01*
X66573866Y-38214285D02*
X66478628Y-38261904D01*
X66478628Y-38261904D02*
X66431009Y-38309523D01*
X66431009Y-38309523D02*
X66383390Y-38404761D01*
X130954819Y-80666666D02*
X130478628Y-80999999D01*
X130954819Y-81238094D02*
X129954819Y-81238094D01*
X129954819Y-81238094D02*
X129954819Y-80857142D01*
X129954819Y-80857142D02*
X130002438Y-80761904D01*
X130002438Y-80761904D02*
X130050057Y-80714285D01*
X130050057Y-80714285D02*
X130145295Y-80666666D01*
X130145295Y-80666666D02*
X130288152Y-80666666D01*
X130288152Y-80666666D02*
X130383390Y-80714285D01*
X130383390Y-80714285D02*
X130431009Y-80761904D01*
X130431009Y-80761904D02*
X130478628Y-80857142D01*
X130478628Y-80857142D02*
X130478628Y-81238094D01*
X129954819Y-80333332D02*
X129954819Y-79666666D01*
X129954819Y-79666666D02*
X130954819Y-80095237D01*
X166274819Y-76629166D02*
X165798628Y-76962499D01*
X166274819Y-77200594D02*
X165274819Y-77200594D01*
X165274819Y-77200594D02*
X165274819Y-76819642D01*
X165274819Y-76819642D02*
X165322438Y-76724404D01*
X165322438Y-76724404D02*
X165370057Y-76676785D01*
X165370057Y-76676785D02*
X165465295Y-76629166D01*
X165465295Y-76629166D02*
X165608152Y-76629166D01*
X165608152Y-76629166D02*
X165703390Y-76676785D01*
X165703390Y-76676785D02*
X165751009Y-76724404D01*
X165751009Y-76724404D02*
X165798628Y-76819642D01*
X165798628Y-76819642D02*
X165798628Y-77200594D01*
X165274819Y-75772023D02*
X165274819Y-75962499D01*
X165274819Y-75962499D02*
X165322438Y-76057737D01*
X165322438Y-76057737D02*
X165370057Y-76105356D01*
X165370057Y-76105356D02*
X165512914Y-76200594D01*
X165512914Y-76200594D02*
X165703390Y-76248213D01*
X165703390Y-76248213D02*
X166084342Y-76248213D01*
X166084342Y-76248213D02*
X166179580Y-76200594D01*
X166179580Y-76200594D02*
X166227200Y-76152975D01*
X166227200Y-76152975D02*
X166274819Y-76057737D01*
X166274819Y-76057737D02*
X166274819Y-75867261D01*
X166274819Y-75867261D02*
X166227200Y-75772023D01*
X166227200Y-75772023D02*
X166179580Y-75724404D01*
X166179580Y-75724404D02*
X166084342Y-75676785D01*
X166084342Y-75676785D02*
X165846247Y-75676785D01*
X165846247Y-75676785D02*
X165751009Y-75724404D01*
X165751009Y-75724404D02*
X165703390Y-75772023D01*
X165703390Y-75772023D02*
X165655771Y-75867261D01*
X165655771Y-75867261D02*
X165655771Y-76057737D01*
X165655771Y-76057737D02*
X165703390Y-76152975D01*
X165703390Y-76152975D02*
X165751009Y-76200594D01*
X165751009Y-76200594D02*
X165846247Y-76248213D01*
X140634819Y-88166666D02*
X140158628Y-88499999D01*
X140634819Y-88738094D02*
X139634819Y-88738094D01*
X139634819Y-88738094D02*
X139634819Y-88357142D01*
X139634819Y-88357142D02*
X139682438Y-88261904D01*
X139682438Y-88261904D02*
X139730057Y-88214285D01*
X139730057Y-88214285D02*
X139825295Y-88166666D01*
X139825295Y-88166666D02*
X139968152Y-88166666D01*
X139968152Y-88166666D02*
X140063390Y-88214285D01*
X140063390Y-88214285D02*
X140111009Y-88261904D01*
X140111009Y-88261904D02*
X140158628Y-88357142D01*
X140158628Y-88357142D02*
X140158628Y-88738094D01*
X139634819Y-87261904D02*
X139634819Y-87738094D01*
X139634819Y-87738094D02*
X140111009Y-87785713D01*
X140111009Y-87785713D02*
X140063390Y-87738094D01*
X140063390Y-87738094D02*
X140015771Y-87642856D01*
X140015771Y-87642856D02*
X140015771Y-87404761D01*
X140015771Y-87404761D02*
X140063390Y-87309523D01*
X140063390Y-87309523D02*
X140111009Y-87261904D01*
X140111009Y-87261904D02*
X140206247Y-87214285D01*
X140206247Y-87214285D02*
X140444342Y-87214285D01*
X140444342Y-87214285D02*
X140539580Y-87261904D01*
X140539580Y-87261904D02*
X140587200Y-87309523D01*
X140587200Y-87309523D02*
X140634819Y-87404761D01*
X140634819Y-87404761D02*
X140634819Y-87642856D01*
X140634819Y-87642856D02*
X140587200Y-87738094D01*
X140587200Y-87738094D02*
X140539580Y-87785713D01*
X110333333Y-43417319D02*
X110000000Y-42941128D01*
X109761905Y-43417319D02*
X109761905Y-42417319D01*
X109761905Y-42417319D02*
X110142857Y-42417319D01*
X110142857Y-42417319D02*
X110238095Y-42464938D01*
X110238095Y-42464938D02*
X110285714Y-42512557D01*
X110285714Y-42512557D02*
X110333333Y-42607795D01*
X110333333Y-42607795D02*
X110333333Y-42750652D01*
X110333333Y-42750652D02*
X110285714Y-42845890D01*
X110285714Y-42845890D02*
X110238095Y-42893509D01*
X110238095Y-42893509D02*
X110142857Y-42941128D01*
X110142857Y-42941128D02*
X109761905Y-42941128D01*
X111190476Y-42750652D02*
X111190476Y-43417319D01*
X110952381Y-42369700D02*
X110714286Y-43083985D01*
X110714286Y-43083985D02*
X111333333Y-43083985D01*
X54333333Y-42634819D02*
X54000000Y-42158628D01*
X53761905Y-42634819D02*
X53761905Y-41634819D01*
X53761905Y-41634819D02*
X54142857Y-41634819D01*
X54142857Y-41634819D02*
X54238095Y-41682438D01*
X54238095Y-41682438D02*
X54285714Y-41730057D01*
X54285714Y-41730057D02*
X54333333Y-41825295D01*
X54333333Y-41825295D02*
X54333333Y-41968152D01*
X54333333Y-41968152D02*
X54285714Y-42063390D01*
X54285714Y-42063390D02*
X54238095Y-42111009D01*
X54238095Y-42111009D02*
X54142857Y-42158628D01*
X54142857Y-42158628D02*
X53761905Y-42158628D01*
X54666667Y-41634819D02*
X55285714Y-41634819D01*
X55285714Y-41634819D02*
X54952381Y-42015771D01*
X54952381Y-42015771D02*
X55095238Y-42015771D01*
X55095238Y-42015771D02*
X55190476Y-42063390D01*
X55190476Y-42063390D02*
X55238095Y-42111009D01*
X55238095Y-42111009D02*
X55285714Y-42206247D01*
X55285714Y-42206247D02*
X55285714Y-42444342D01*
X55285714Y-42444342D02*
X55238095Y-42539580D01*
X55238095Y-42539580D02*
X55190476Y-42587200D01*
X55190476Y-42587200D02*
X55095238Y-42634819D01*
X55095238Y-42634819D02*
X54809524Y-42634819D01*
X54809524Y-42634819D02*
X54714286Y-42587200D01*
X54714286Y-42587200D02*
X54666667Y-42539580D01*
X115034819Y-52629166D02*
X114558628Y-52962499D01*
X115034819Y-53200594D02*
X114034819Y-53200594D01*
X114034819Y-53200594D02*
X114034819Y-52819642D01*
X114034819Y-52819642D02*
X114082438Y-52724404D01*
X114082438Y-52724404D02*
X114130057Y-52676785D01*
X114130057Y-52676785D02*
X114225295Y-52629166D01*
X114225295Y-52629166D02*
X114368152Y-52629166D01*
X114368152Y-52629166D02*
X114463390Y-52676785D01*
X114463390Y-52676785D02*
X114511009Y-52724404D01*
X114511009Y-52724404D02*
X114558628Y-52819642D01*
X114558628Y-52819642D02*
X114558628Y-53200594D01*
X114130057Y-52248213D02*
X114082438Y-52200594D01*
X114082438Y-52200594D02*
X114034819Y-52105356D01*
X114034819Y-52105356D02*
X114034819Y-51867261D01*
X114034819Y-51867261D02*
X114082438Y-51772023D01*
X114082438Y-51772023D02*
X114130057Y-51724404D01*
X114130057Y-51724404D02*
X114225295Y-51676785D01*
X114225295Y-51676785D02*
X114320533Y-51676785D01*
X114320533Y-51676785D02*
X114463390Y-51724404D01*
X114463390Y-51724404D02*
X115034819Y-52295832D01*
X115034819Y-52295832D02*
X115034819Y-51676785D01*
X110494819Y-52629166D02*
X110018628Y-52962499D01*
X110494819Y-53200594D02*
X109494819Y-53200594D01*
X109494819Y-53200594D02*
X109494819Y-52819642D01*
X109494819Y-52819642D02*
X109542438Y-52724404D01*
X109542438Y-52724404D02*
X109590057Y-52676785D01*
X109590057Y-52676785D02*
X109685295Y-52629166D01*
X109685295Y-52629166D02*
X109828152Y-52629166D01*
X109828152Y-52629166D02*
X109923390Y-52676785D01*
X109923390Y-52676785D02*
X109971009Y-52724404D01*
X109971009Y-52724404D02*
X110018628Y-52819642D01*
X110018628Y-52819642D02*
X110018628Y-53200594D01*
X110494819Y-51676785D02*
X110494819Y-52248213D01*
X110494819Y-51962499D02*
X109494819Y-51962499D01*
X109494819Y-51962499D02*
X109637676Y-52057737D01*
X109637676Y-52057737D02*
X109732914Y-52152975D01*
X109732914Y-52152975D02*
X109780533Y-52248213D01*
X101904761Y-31725057D02*
X101809523Y-31677438D01*
X101809523Y-31677438D02*
X101714285Y-31582200D01*
X101714285Y-31582200D02*
X101571428Y-31439342D01*
X101571428Y-31439342D02*
X101476190Y-31391723D01*
X101476190Y-31391723D02*
X101380952Y-31391723D01*
X101428571Y-31629819D02*
X101333333Y-31582200D01*
X101333333Y-31582200D02*
X101238095Y-31486961D01*
X101238095Y-31486961D02*
X101190476Y-31296485D01*
X101190476Y-31296485D02*
X101190476Y-30963152D01*
X101190476Y-30963152D02*
X101238095Y-30772676D01*
X101238095Y-30772676D02*
X101333333Y-30677438D01*
X101333333Y-30677438D02*
X101428571Y-30629819D01*
X101428571Y-30629819D02*
X101619047Y-30629819D01*
X101619047Y-30629819D02*
X101714285Y-30677438D01*
X101714285Y-30677438D02*
X101809523Y-30772676D01*
X101809523Y-30772676D02*
X101857142Y-30963152D01*
X101857142Y-30963152D02*
X101857142Y-31296485D01*
X101857142Y-31296485D02*
X101809523Y-31486961D01*
X101809523Y-31486961D02*
X101714285Y-31582200D01*
X101714285Y-31582200D02*
X101619047Y-31629819D01*
X101619047Y-31629819D02*
X101428571Y-31629819D01*
X102714285Y-30963152D02*
X102714285Y-31629819D01*
X102476190Y-30582200D02*
X102238095Y-31296485D01*
X102238095Y-31296485D02*
X102857142Y-31296485D01*
X89904761Y-31725057D02*
X89809523Y-31677438D01*
X89809523Y-31677438D02*
X89714285Y-31582200D01*
X89714285Y-31582200D02*
X89571428Y-31439342D01*
X89571428Y-31439342D02*
X89476190Y-31391723D01*
X89476190Y-31391723D02*
X89380952Y-31391723D01*
X89428571Y-31629819D02*
X89333333Y-31582200D01*
X89333333Y-31582200D02*
X89238095Y-31486961D01*
X89238095Y-31486961D02*
X89190476Y-31296485D01*
X89190476Y-31296485D02*
X89190476Y-30963152D01*
X89190476Y-30963152D02*
X89238095Y-30772676D01*
X89238095Y-30772676D02*
X89333333Y-30677438D01*
X89333333Y-30677438D02*
X89428571Y-30629819D01*
X89428571Y-30629819D02*
X89619047Y-30629819D01*
X89619047Y-30629819D02*
X89714285Y-30677438D01*
X89714285Y-30677438D02*
X89809523Y-30772676D01*
X89809523Y-30772676D02*
X89857142Y-30963152D01*
X89857142Y-30963152D02*
X89857142Y-31296485D01*
X89857142Y-31296485D02*
X89809523Y-31486961D01*
X89809523Y-31486961D02*
X89714285Y-31582200D01*
X89714285Y-31582200D02*
X89619047Y-31629819D01*
X89619047Y-31629819D02*
X89428571Y-31629819D01*
X90190476Y-30629819D02*
X90809523Y-30629819D01*
X90809523Y-30629819D02*
X90476190Y-31010771D01*
X90476190Y-31010771D02*
X90619047Y-31010771D01*
X90619047Y-31010771D02*
X90714285Y-31058390D01*
X90714285Y-31058390D02*
X90761904Y-31106009D01*
X90761904Y-31106009D02*
X90809523Y-31201247D01*
X90809523Y-31201247D02*
X90809523Y-31439342D01*
X90809523Y-31439342D02*
X90761904Y-31534580D01*
X90761904Y-31534580D02*
X90714285Y-31582200D01*
X90714285Y-31582200D02*
X90619047Y-31629819D01*
X90619047Y-31629819D02*
X90333333Y-31629819D01*
X90333333Y-31629819D02*
X90238095Y-31582200D01*
X90238095Y-31582200D02*
X90190476Y-31534580D01*
X77904761Y-31725057D02*
X77809523Y-31677438D01*
X77809523Y-31677438D02*
X77714285Y-31582200D01*
X77714285Y-31582200D02*
X77571428Y-31439342D01*
X77571428Y-31439342D02*
X77476190Y-31391723D01*
X77476190Y-31391723D02*
X77380952Y-31391723D01*
X77428571Y-31629819D02*
X77333333Y-31582200D01*
X77333333Y-31582200D02*
X77238095Y-31486961D01*
X77238095Y-31486961D02*
X77190476Y-31296485D01*
X77190476Y-31296485D02*
X77190476Y-30963152D01*
X77190476Y-30963152D02*
X77238095Y-30772676D01*
X77238095Y-30772676D02*
X77333333Y-30677438D01*
X77333333Y-30677438D02*
X77428571Y-30629819D01*
X77428571Y-30629819D02*
X77619047Y-30629819D01*
X77619047Y-30629819D02*
X77714285Y-30677438D01*
X77714285Y-30677438D02*
X77809523Y-30772676D01*
X77809523Y-30772676D02*
X77857142Y-30963152D01*
X77857142Y-30963152D02*
X77857142Y-31296485D01*
X77857142Y-31296485D02*
X77809523Y-31486961D01*
X77809523Y-31486961D02*
X77714285Y-31582200D01*
X77714285Y-31582200D02*
X77619047Y-31629819D01*
X77619047Y-31629819D02*
X77428571Y-31629819D01*
X78238095Y-30725057D02*
X78285714Y-30677438D01*
X78285714Y-30677438D02*
X78380952Y-30629819D01*
X78380952Y-30629819D02*
X78619047Y-30629819D01*
X78619047Y-30629819D02*
X78714285Y-30677438D01*
X78714285Y-30677438D02*
X78761904Y-30725057D01*
X78761904Y-30725057D02*
X78809523Y-30820295D01*
X78809523Y-30820295D02*
X78809523Y-30915533D01*
X78809523Y-30915533D02*
X78761904Y-31058390D01*
X78761904Y-31058390D02*
X78190476Y-31629819D01*
X78190476Y-31629819D02*
X78809523Y-31629819D01*
X65904761Y-31725057D02*
X65809523Y-31677438D01*
X65809523Y-31677438D02*
X65714285Y-31582200D01*
X65714285Y-31582200D02*
X65571428Y-31439342D01*
X65571428Y-31439342D02*
X65476190Y-31391723D01*
X65476190Y-31391723D02*
X65380952Y-31391723D01*
X65428571Y-31629819D02*
X65333333Y-31582200D01*
X65333333Y-31582200D02*
X65238095Y-31486961D01*
X65238095Y-31486961D02*
X65190476Y-31296485D01*
X65190476Y-31296485D02*
X65190476Y-30963152D01*
X65190476Y-30963152D02*
X65238095Y-30772676D01*
X65238095Y-30772676D02*
X65333333Y-30677438D01*
X65333333Y-30677438D02*
X65428571Y-30629819D01*
X65428571Y-30629819D02*
X65619047Y-30629819D01*
X65619047Y-30629819D02*
X65714285Y-30677438D01*
X65714285Y-30677438D02*
X65809523Y-30772676D01*
X65809523Y-30772676D02*
X65857142Y-30963152D01*
X65857142Y-30963152D02*
X65857142Y-31296485D01*
X65857142Y-31296485D02*
X65809523Y-31486961D01*
X65809523Y-31486961D02*
X65714285Y-31582200D01*
X65714285Y-31582200D02*
X65619047Y-31629819D01*
X65619047Y-31629819D02*
X65428571Y-31629819D01*
X66809523Y-31629819D02*
X66238095Y-31629819D01*
X66523809Y-31629819D02*
X66523809Y-30629819D01*
X66523809Y-30629819D02*
X66428571Y-30772676D01*
X66428571Y-30772676D02*
X66333333Y-30867914D01*
X66333333Y-30867914D02*
X66238095Y-30915533D01*
X127666666Y-30849819D02*
X127666666Y-31564104D01*
X127666666Y-31564104D02*
X127619047Y-31706961D01*
X127619047Y-31706961D02*
X127523809Y-31802200D01*
X127523809Y-31802200D02*
X127380952Y-31849819D01*
X127380952Y-31849819D02*
X127285714Y-31849819D01*
X128047619Y-30849819D02*
X128714285Y-30849819D01*
X128714285Y-30849819D02*
X128285714Y-31849819D01*
X102799405Y-85454819D02*
X102799405Y-84454819D01*
X102799405Y-84454819D02*
X103037500Y-84454819D01*
X103037500Y-84454819D02*
X103180357Y-84502438D01*
X103180357Y-84502438D02*
X103275595Y-84597676D01*
X103275595Y-84597676D02*
X103323214Y-84692914D01*
X103323214Y-84692914D02*
X103370833Y-84883390D01*
X103370833Y-84883390D02*
X103370833Y-85026247D01*
X103370833Y-85026247D02*
X103323214Y-85216723D01*
X103323214Y-85216723D02*
X103275595Y-85311961D01*
X103275595Y-85311961D02*
X103180357Y-85407200D01*
X103180357Y-85407200D02*
X103037500Y-85454819D01*
X103037500Y-85454819D02*
X102799405Y-85454819D01*
X103751786Y-84550057D02*
X103799405Y-84502438D01*
X103799405Y-84502438D02*
X103894643Y-84454819D01*
X103894643Y-84454819D02*
X104132738Y-84454819D01*
X104132738Y-84454819D02*
X104227976Y-84502438D01*
X104227976Y-84502438D02*
X104275595Y-84550057D01*
X104275595Y-84550057D02*
X104323214Y-84645295D01*
X104323214Y-84645295D02*
X104323214Y-84740533D01*
X104323214Y-84740533D02*
X104275595Y-84883390D01*
X104275595Y-84883390D02*
X103704167Y-85454819D01*
X103704167Y-85454819D02*
X104323214Y-85454819D01*
X103775595Y-86954819D02*
X103775595Y-85954819D01*
X104347023Y-86954819D02*
X103918452Y-86383390D01*
X104347023Y-85954819D02*
X103775595Y-86526247D01*
X122301905Y-50454819D02*
X122301905Y-49454819D01*
X122301905Y-49454819D02*
X122540000Y-49454819D01*
X122540000Y-49454819D02*
X122682857Y-49502438D01*
X122682857Y-49502438D02*
X122778095Y-49597676D01*
X122778095Y-49597676D02*
X122825714Y-49692914D01*
X122825714Y-49692914D02*
X122873333Y-49883390D01*
X122873333Y-49883390D02*
X122873333Y-50026247D01*
X122873333Y-50026247D02*
X122825714Y-50216723D01*
X122825714Y-50216723D02*
X122778095Y-50311961D01*
X122778095Y-50311961D02*
X122682857Y-50407200D01*
X122682857Y-50407200D02*
X122540000Y-50454819D01*
X122540000Y-50454819D02*
X122301905Y-50454819D01*
X123825714Y-50454819D02*
X123254286Y-50454819D01*
X123540000Y-50454819D02*
X123540000Y-49454819D01*
X123540000Y-49454819D02*
X123444762Y-49597676D01*
X123444762Y-49597676D02*
X123349524Y-49692914D01*
X123349524Y-49692914D02*
X123254286Y-49740533D01*
X120238095Y-50954819D02*
X120238095Y-49954819D01*
X120809523Y-50954819D02*
X120380952Y-50383390D01*
X120809523Y-49954819D02*
X120238095Y-50526247D01*
X105870833Y-82359580D02*
X105823214Y-82407200D01*
X105823214Y-82407200D02*
X105680357Y-82454819D01*
X105680357Y-82454819D02*
X105585119Y-82454819D01*
X105585119Y-82454819D02*
X105442262Y-82407200D01*
X105442262Y-82407200D02*
X105347024Y-82311961D01*
X105347024Y-82311961D02*
X105299405Y-82216723D01*
X105299405Y-82216723D02*
X105251786Y-82026247D01*
X105251786Y-82026247D02*
X105251786Y-81883390D01*
X105251786Y-81883390D02*
X105299405Y-81692914D01*
X105299405Y-81692914D02*
X105347024Y-81597676D01*
X105347024Y-81597676D02*
X105442262Y-81502438D01*
X105442262Y-81502438D02*
X105585119Y-81454819D01*
X105585119Y-81454819D02*
X105680357Y-81454819D01*
X105680357Y-81454819D02*
X105823214Y-81502438D01*
X105823214Y-81502438D02*
X105870833Y-81550057D01*
X106442262Y-81883390D02*
X106347024Y-81835771D01*
X106347024Y-81835771D02*
X106299405Y-81788152D01*
X106299405Y-81788152D02*
X106251786Y-81692914D01*
X106251786Y-81692914D02*
X106251786Y-81645295D01*
X106251786Y-81645295D02*
X106299405Y-81550057D01*
X106299405Y-81550057D02*
X106347024Y-81502438D01*
X106347024Y-81502438D02*
X106442262Y-81454819D01*
X106442262Y-81454819D02*
X106632738Y-81454819D01*
X106632738Y-81454819D02*
X106727976Y-81502438D01*
X106727976Y-81502438D02*
X106775595Y-81550057D01*
X106775595Y-81550057D02*
X106823214Y-81645295D01*
X106823214Y-81645295D02*
X106823214Y-81692914D01*
X106823214Y-81692914D02*
X106775595Y-81788152D01*
X106775595Y-81788152D02*
X106727976Y-81835771D01*
X106727976Y-81835771D02*
X106632738Y-81883390D01*
X106632738Y-81883390D02*
X106442262Y-81883390D01*
X106442262Y-81883390D02*
X106347024Y-81931009D01*
X106347024Y-81931009D02*
X106299405Y-81978628D01*
X106299405Y-81978628D02*
X106251786Y-82073866D01*
X106251786Y-82073866D02*
X106251786Y-82264342D01*
X106251786Y-82264342D02*
X106299405Y-82359580D01*
X106299405Y-82359580D02*
X106347024Y-82407200D01*
X106347024Y-82407200D02*
X106442262Y-82454819D01*
X106442262Y-82454819D02*
X106632738Y-82454819D01*
X106632738Y-82454819D02*
X106727976Y-82407200D01*
X106727976Y-82407200D02*
X106775595Y-82359580D01*
X106775595Y-82359580D02*
X106823214Y-82264342D01*
X106823214Y-82264342D02*
X106823214Y-82073866D01*
X106823214Y-82073866D02*
X106775595Y-81978628D01*
X106775595Y-81978628D02*
X106727976Y-81931009D01*
X106727976Y-81931009D02*
X106632738Y-81883390D01*
X135859580Y-88166666D02*
X135907200Y-88214285D01*
X135907200Y-88214285D02*
X135954819Y-88357142D01*
X135954819Y-88357142D02*
X135954819Y-88452380D01*
X135954819Y-88452380D02*
X135907200Y-88595237D01*
X135907200Y-88595237D02*
X135811961Y-88690475D01*
X135811961Y-88690475D02*
X135716723Y-88738094D01*
X135716723Y-88738094D02*
X135526247Y-88785713D01*
X135526247Y-88785713D02*
X135383390Y-88785713D01*
X135383390Y-88785713D02*
X135192914Y-88738094D01*
X135192914Y-88738094D02*
X135097676Y-88690475D01*
X135097676Y-88690475D02*
X135002438Y-88595237D01*
X135002438Y-88595237D02*
X134954819Y-88452380D01*
X134954819Y-88452380D02*
X134954819Y-88357142D01*
X134954819Y-88357142D02*
X135002438Y-88214285D01*
X135002438Y-88214285D02*
X135050057Y-88166666D01*
X134954819Y-87833332D02*
X134954819Y-87166666D01*
X134954819Y-87166666D02*
X135954819Y-87595237D01*
X137859580Y-80666666D02*
X137907200Y-80714285D01*
X137907200Y-80714285D02*
X137954819Y-80857142D01*
X137954819Y-80857142D02*
X137954819Y-80952380D01*
X137954819Y-80952380D02*
X137907200Y-81095237D01*
X137907200Y-81095237D02*
X137811961Y-81190475D01*
X137811961Y-81190475D02*
X137716723Y-81238094D01*
X137716723Y-81238094D02*
X137526247Y-81285713D01*
X137526247Y-81285713D02*
X137383390Y-81285713D01*
X137383390Y-81285713D02*
X137192914Y-81238094D01*
X137192914Y-81238094D02*
X137097676Y-81190475D01*
X137097676Y-81190475D02*
X137002438Y-81095237D01*
X137002438Y-81095237D02*
X136954819Y-80952380D01*
X136954819Y-80952380D02*
X136954819Y-80857142D01*
X136954819Y-80857142D02*
X137002438Y-80714285D01*
X137002438Y-80714285D02*
X137050057Y-80666666D01*
X136954819Y-79809523D02*
X136954819Y-79999999D01*
X136954819Y-79999999D02*
X137002438Y-80095237D01*
X137002438Y-80095237D02*
X137050057Y-80142856D01*
X137050057Y-80142856D02*
X137192914Y-80238094D01*
X137192914Y-80238094D02*
X137383390Y-80285713D01*
X137383390Y-80285713D02*
X137764342Y-80285713D01*
X137764342Y-80285713D02*
X137859580Y-80238094D01*
X137859580Y-80238094D02*
X137907200Y-80190475D01*
X137907200Y-80190475D02*
X137954819Y-80095237D01*
X137954819Y-80095237D02*
X137954819Y-79904761D01*
X137954819Y-79904761D02*
X137907200Y-79809523D01*
X137907200Y-79809523D02*
X137859580Y-79761904D01*
X137859580Y-79761904D02*
X137764342Y-79714285D01*
X137764342Y-79714285D02*
X137526247Y-79714285D01*
X137526247Y-79714285D02*
X137431009Y-79761904D01*
X137431009Y-79761904D02*
X137383390Y-79809523D01*
X137383390Y-79809523D02*
X137335771Y-79904761D01*
X137335771Y-79904761D02*
X137335771Y-80095237D01*
X137335771Y-80095237D02*
X137383390Y-80190475D01*
X137383390Y-80190475D02*
X137431009Y-80238094D01*
X137431009Y-80238094D02*
X137526247Y-80285713D01*
X132083333Y-72109580D02*
X132035714Y-72157200D01*
X132035714Y-72157200D02*
X131892857Y-72204819D01*
X131892857Y-72204819D02*
X131797619Y-72204819D01*
X131797619Y-72204819D02*
X131654762Y-72157200D01*
X131654762Y-72157200D02*
X131559524Y-72061961D01*
X131559524Y-72061961D02*
X131511905Y-71966723D01*
X131511905Y-71966723D02*
X131464286Y-71776247D01*
X131464286Y-71776247D02*
X131464286Y-71633390D01*
X131464286Y-71633390D02*
X131511905Y-71442914D01*
X131511905Y-71442914D02*
X131559524Y-71347676D01*
X131559524Y-71347676D02*
X131654762Y-71252438D01*
X131654762Y-71252438D02*
X131797619Y-71204819D01*
X131797619Y-71204819D02*
X131892857Y-71204819D01*
X131892857Y-71204819D02*
X132035714Y-71252438D01*
X132035714Y-71252438D02*
X132083333Y-71300057D01*
X132988095Y-71204819D02*
X132511905Y-71204819D01*
X132511905Y-71204819D02*
X132464286Y-71681009D01*
X132464286Y-71681009D02*
X132511905Y-71633390D01*
X132511905Y-71633390D02*
X132607143Y-71585771D01*
X132607143Y-71585771D02*
X132845238Y-71585771D01*
X132845238Y-71585771D02*
X132940476Y-71633390D01*
X132940476Y-71633390D02*
X132988095Y-71681009D01*
X132988095Y-71681009D02*
X133035714Y-71776247D01*
X133035714Y-71776247D02*
X133035714Y-72014342D01*
X133035714Y-72014342D02*
X132988095Y-72109580D01*
X132988095Y-72109580D02*
X132940476Y-72157200D01*
X132940476Y-72157200D02*
X132845238Y-72204819D01*
X132845238Y-72204819D02*
X132607143Y-72204819D01*
X132607143Y-72204819D02*
X132511905Y-72157200D01*
X132511905Y-72157200D02*
X132464286Y-72109580D01*
X59359580Y-60691666D02*
X59407200Y-60739285D01*
X59407200Y-60739285D02*
X59454819Y-60882142D01*
X59454819Y-60882142D02*
X59454819Y-60977380D01*
X59454819Y-60977380D02*
X59407200Y-61120237D01*
X59407200Y-61120237D02*
X59311961Y-61215475D01*
X59311961Y-61215475D02*
X59216723Y-61263094D01*
X59216723Y-61263094D02*
X59026247Y-61310713D01*
X59026247Y-61310713D02*
X58883390Y-61310713D01*
X58883390Y-61310713D02*
X58692914Y-61263094D01*
X58692914Y-61263094D02*
X58597676Y-61215475D01*
X58597676Y-61215475D02*
X58502438Y-61120237D01*
X58502438Y-61120237D02*
X58454819Y-60977380D01*
X58454819Y-60977380D02*
X58454819Y-60882142D01*
X58454819Y-60882142D02*
X58502438Y-60739285D01*
X58502438Y-60739285D02*
X58550057Y-60691666D01*
X58788152Y-59834523D02*
X59454819Y-59834523D01*
X58407200Y-60072618D02*
X59121485Y-60310713D01*
X59121485Y-60310713D02*
X59121485Y-59691666D01*
X59359580Y-73191666D02*
X59407200Y-73239285D01*
X59407200Y-73239285D02*
X59454819Y-73382142D01*
X59454819Y-73382142D02*
X59454819Y-73477380D01*
X59454819Y-73477380D02*
X59407200Y-73620237D01*
X59407200Y-73620237D02*
X59311961Y-73715475D01*
X59311961Y-73715475D02*
X59216723Y-73763094D01*
X59216723Y-73763094D02*
X59026247Y-73810713D01*
X59026247Y-73810713D02*
X58883390Y-73810713D01*
X58883390Y-73810713D02*
X58692914Y-73763094D01*
X58692914Y-73763094D02*
X58597676Y-73715475D01*
X58597676Y-73715475D02*
X58502438Y-73620237D01*
X58502438Y-73620237D02*
X58454819Y-73477380D01*
X58454819Y-73477380D02*
X58454819Y-73382142D01*
X58454819Y-73382142D02*
X58502438Y-73239285D01*
X58502438Y-73239285D02*
X58550057Y-73191666D01*
X58454819Y-72858332D02*
X58454819Y-72239285D01*
X58454819Y-72239285D02*
X58835771Y-72572618D01*
X58835771Y-72572618D02*
X58835771Y-72429761D01*
X58835771Y-72429761D02*
X58883390Y-72334523D01*
X58883390Y-72334523D02*
X58931009Y-72286904D01*
X58931009Y-72286904D02*
X59026247Y-72239285D01*
X59026247Y-72239285D02*
X59264342Y-72239285D01*
X59264342Y-72239285D02*
X59359580Y-72286904D01*
X59359580Y-72286904D02*
X59407200Y-72334523D01*
X59407200Y-72334523D02*
X59454819Y-72429761D01*
X59454819Y-72429761D02*
X59454819Y-72715475D01*
X59454819Y-72715475D02*
X59407200Y-72810713D01*
X59407200Y-72810713D02*
X59359580Y-72858332D01*
X54583333Y-61259580D02*
X54535714Y-61307200D01*
X54535714Y-61307200D02*
X54392857Y-61354819D01*
X54392857Y-61354819D02*
X54297619Y-61354819D01*
X54297619Y-61354819D02*
X54154762Y-61307200D01*
X54154762Y-61307200D02*
X54059524Y-61211961D01*
X54059524Y-61211961D02*
X54011905Y-61116723D01*
X54011905Y-61116723D02*
X53964286Y-60926247D01*
X53964286Y-60926247D02*
X53964286Y-60783390D01*
X53964286Y-60783390D02*
X54011905Y-60592914D01*
X54011905Y-60592914D02*
X54059524Y-60497676D01*
X54059524Y-60497676D02*
X54154762Y-60402438D01*
X54154762Y-60402438D02*
X54297619Y-60354819D01*
X54297619Y-60354819D02*
X54392857Y-60354819D01*
X54392857Y-60354819D02*
X54535714Y-60402438D01*
X54535714Y-60402438D02*
X54583333Y-60450057D01*
X54964286Y-60450057D02*
X55011905Y-60402438D01*
X55011905Y-60402438D02*
X55107143Y-60354819D01*
X55107143Y-60354819D02*
X55345238Y-60354819D01*
X55345238Y-60354819D02*
X55440476Y-60402438D01*
X55440476Y-60402438D02*
X55488095Y-60450057D01*
X55488095Y-60450057D02*
X55535714Y-60545295D01*
X55535714Y-60545295D02*
X55535714Y-60640533D01*
X55535714Y-60640533D02*
X55488095Y-60783390D01*
X55488095Y-60783390D02*
X54916667Y-61354819D01*
X54916667Y-61354819D02*
X55535714Y-61354819D01*
X61333333Y-83177201D02*
X61285714Y-83224821D01*
X61285714Y-83224821D02*
X61142857Y-83272440D01*
X61142857Y-83272440D02*
X61047619Y-83272440D01*
X61047619Y-83272440D02*
X60904762Y-83224821D01*
X60904762Y-83224821D02*
X60809524Y-83129582D01*
X60809524Y-83129582D02*
X60761905Y-83034344D01*
X60761905Y-83034344D02*
X60714286Y-82843868D01*
X60714286Y-82843868D02*
X60714286Y-82701011D01*
X60714286Y-82701011D02*
X60761905Y-82510535D01*
X60761905Y-82510535D02*
X60809524Y-82415297D01*
X60809524Y-82415297D02*
X60904762Y-82320059D01*
X60904762Y-82320059D02*
X61047619Y-82272440D01*
X61047619Y-82272440D02*
X61142857Y-82272440D01*
X61142857Y-82272440D02*
X61285714Y-82320059D01*
X61285714Y-82320059D02*
X61333333Y-82367678D01*
X62285714Y-83272440D02*
X61714286Y-83272440D01*
X62000000Y-83272440D02*
X62000000Y-82272440D01*
X62000000Y-82272440D02*
X61904762Y-82415297D01*
X61904762Y-82415297D02*
X61809524Y-82510535D01*
X61809524Y-82510535D02*
X61714286Y-82558154D01*
X144251904Y-38535180D02*
X144251904Y-37725657D01*
X144251904Y-37725657D02*
X144204285Y-37630419D01*
X144204285Y-37630419D02*
X144156666Y-37582800D01*
X144156666Y-37582800D02*
X144061428Y-37535180D01*
X144061428Y-37535180D02*
X143870952Y-37535180D01*
X143870952Y-37535180D02*
X143775714Y-37582800D01*
X143775714Y-37582800D02*
X143728095Y-37630419D01*
X143728095Y-37630419D02*
X143680476Y-37725657D01*
X143680476Y-37725657D02*
X143680476Y-38535180D01*
X143251904Y-37582800D02*
X143109047Y-37535180D01*
X143109047Y-37535180D02*
X142870952Y-37535180D01*
X142870952Y-37535180D02*
X142775714Y-37582800D01*
X142775714Y-37582800D02*
X142728095Y-37630419D01*
X142728095Y-37630419D02*
X142680476Y-37725657D01*
X142680476Y-37725657D02*
X142680476Y-37820895D01*
X142680476Y-37820895D02*
X142728095Y-37916133D01*
X142728095Y-37916133D02*
X142775714Y-37963752D01*
X142775714Y-37963752D02*
X142870952Y-38011371D01*
X142870952Y-38011371D02*
X143061428Y-38058990D01*
X143061428Y-38058990D02*
X143156666Y-38106609D01*
X143156666Y-38106609D02*
X143204285Y-38154228D01*
X143204285Y-38154228D02*
X143251904Y-38249466D01*
X143251904Y-38249466D02*
X143251904Y-38344704D01*
X143251904Y-38344704D02*
X143204285Y-38439942D01*
X143204285Y-38439942D02*
X143156666Y-38487561D01*
X143156666Y-38487561D02*
X143061428Y-38535180D01*
X143061428Y-38535180D02*
X142823333Y-38535180D01*
X142823333Y-38535180D02*
X142680476Y-38487561D01*
X141918571Y-38058990D02*
X141775714Y-38011371D01*
X141775714Y-38011371D02*
X141728095Y-37963752D01*
X141728095Y-37963752D02*
X141680476Y-37868514D01*
X141680476Y-37868514D02*
X141680476Y-37725657D01*
X141680476Y-37725657D02*
X141728095Y-37630419D01*
X141728095Y-37630419D02*
X141775714Y-37582800D01*
X141775714Y-37582800D02*
X141870952Y-37535180D01*
X141870952Y-37535180D02*
X142251904Y-37535180D01*
X142251904Y-37535180D02*
X142251904Y-38535180D01*
X142251904Y-38535180D02*
X141918571Y-38535180D01*
X141918571Y-38535180D02*
X141823333Y-38487561D01*
X141823333Y-38487561D02*
X141775714Y-38439942D01*
X141775714Y-38439942D02*
X141728095Y-38344704D01*
X141728095Y-38344704D02*
X141728095Y-38249466D01*
X141728095Y-38249466D02*
X141775714Y-38154228D01*
X141775714Y-38154228D02*
X141823333Y-38106609D01*
X141823333Y-38106609D02*
X141918571Y-38058990D01*
X141918571Y-38058990D02*
X142251904Y-38058990D01*
D12*
%TO.C,C9*%
X124711252Y-78410000D02*
X123288748Y-78410000D01*
X124711252Y-76590000D02*
X123288748Y-76590000D01*
%TO.C,RV1*%
X162670000Y-66270000D02*
X165330000Y-66270000D01*
X162670000Y-63670000D02*
X164000000Y-63670000D01*
X165330000Y-66270000D02*
X165330000Y-71410000D01*
X162670000Y-65000000D02*
X162670000Y-63670000D01*
X162670000Y-66270000D02*
X162670000Y-71410000D01*
X162670000Y-71410000D02*
X165330000Y-71410000D01*
%TO.C,U2*%
X120735000Y-79370000D02*
X120735000Y-89650000D01*
X125235000Y-79370000D02*
X123985000Y-79370000D01*
X120735000Y-89650000D02*
X125235000Y-89650000D01*
X125235000Y-89650000D02*
X125235000Y-79370000D01*
X121985000Y-79370000D02*
X120735000Y-79370000D01*
X121985000Y-79370000D02*
G75*
G03*
X123985000Y-79370000I1000000J0D01*
G01*
%TO.C,U1*%
X52175000Y-72120000D02*
X52175000Y-61880000D01*
X52175000Y-68850000D02*
X53685000Y-68850000D01*
X52175000Y-65149000D02*
X53685000Y-65149000D01*
X52175000Y-72120000D02*
X56816000Y-72120000D01*
X56816000Y-72120000D02*
X56816000Y-61880000D01*
X52175000Y-61880000D02*
X56816000Y-61880000D01*
X53685000Y-72120000D02*
X53685000Y-61880000D01*
%TO.C,TH1*%
X104170000Y-44500000D02*
X104170000Y-43170000D01*
X104170000Y-48370000D02*
X106830000Y-48370000D01*
X104170000Y-45770000D02*
X104170000Y-48370000D01*
X104170000Y-45770000D02*
X106830000Y-45770000D01*
X104170000Y-43170000D02*
X105500000Y-43170000D01*
X106830000Y-45770000D02*
X106830000Y-48370000D01*
%TO.C,R24*%
X116772936Y-33910000D02*
X118227064Y-33910000D01*
X116772936Y-32090000D02*
X118227064Y-32090000D01*
%TO.C,R23*%
X153090000Y-37227064D02*
X153090000Y-35772936D01*
X154910000Y-37227064D02*
X154910000Y-35772936D01*
%TO.C,R22*%
X123227064Y-32090000D02*
X121772936Y-32090000D01*
X123227064Y-33910000D02*
X121772936Y-33910000D01*
%TO.C,R21*%
X71380000Y-74880000D02*
X71380000Y-78060000D01*
X96620000Y-78060000D02*
X96620000Y-74880000D01*
X96620000Y-84120000D02*
X71380000Y-84120000D01*
X96620000Y-80940000D02*
X96620000Y-84120000D01*
X71380000Y-84120000D02*
X71380000Y-80940000D01*
X96620000Y-74880000D02*
X71380000Y-74880000D01*
%TO.C,R20*%
X108772936Y-79910000D02*
X110227064Y-79910000D01*
X108772936Y-78090000D02*
X110227064Y-78090000D01*
%TO.C,R19*%
X110764564Y-89910000D02*
X109310436Y-89910000D01*
X110764564Y-88090000D02*
X109310436Y-88090000D01*
%TO.C,R18*%
X150227064Y-85590000D02*
X148772936Y-85590000D01*
X150227064Y-87410000D02*
X148772936Y-87410000D01*
%TO.C,R17*%
X148772936Y-82090000D02*
X150227064Y-82090000D01*
X148772936Y-83910000D02*
X150227064Y-83910000D01*
%TO.C,R16*%
X132090000Y-88727064D02*
X132090000Y-87272936D01*
X133910000Y-88727064D02*
X133910000Y-87272936D01*
%TO.C,R15*%
X93380000Y-69120000D02*
X96560000Y-69120000D01*
X96560000Y-43880000D02*
X93380000Y-43880000D01*
X102620000Y-43880000D02*
X102620000Y-69120000D01*
X99440000Y-43880000D02*
X102620000Y-43880000D01*
X102620000Y-69120000D02*
X99440000Y-69120000D01*
X93380000Y-43880000D02*
X93380000Y-69120000D01*
%TO.C,R14*%
X82830000Y-69120000D02*
X86010000Y-69120000D01*
X86010000Y-43880000D02*
X82830000Y-43880000D01*
X92070000Y-43880000D02*
X92070000Y-69120000D01*
X88890000Y-43880000D02*
X92070000Y-43880000D01*
X92070000Y-69120000D02*
X88890000Y-69120000D01*
X82830000Y-43880000D02*
X82830000Y-69120000D01*
%TO.C,R13*%
X72280000Y-69120000D02*
X75460000Y-69120000D01*
X75460000Y-43880000D02*
X72280000Y-43880000D01*
X81520000Y-43880000D02*
X81520000Y-69120000D01*
X78340000Y-43880000D02*
X81520000Y-43880000D01*
X81520000Y-69120000D02*
X78340000Y-69120000D01*
X72280000Y-43880000D02*
X72280000Y-69120000D01*
%TO.C,R12*%
X61730000Y-43880000D02*
X61730000Y-69120000D01*
X70970000Y-69120000D02*
X67790000Y-69120000D01*
X67790000Y-43880000D02*
X70970000Y-43880000D01*
X70970000Y-43880000D02*
X70970000Y-69120000D01*
X64910000Y-43880000D02*
X61730000Y-43880000D01*
X61730000Y-69120000D02*
X64910000Y-69120000D01*
%TO.C,R11*%
X99727064Y-38090000D02*
X98272936Y-38090000D01*
X99727064Y-39910000D02*
X98272936Y-39910000D01*
%TO.C,R10*%
X87727064Y-38090000D02*
X86272936Y-38090000D01*
X87727064Y-39910000D02*
X86272936Y-39910000D01*
%TO.C,R9*%
X75727064Y-38090000D02*
X74272936Y-38090000D01*
X75727064Y-39910000D02*
X74272936Y-39910000D01*
%TO.C,R8*%
X63727064Y-39910000D02*
X62272936Y-39910000D01*
X63727064Y-38090000D02*
X62272936Y-38090000D01*
%TO.C,R7*%
X134227064Y-81410000D02*
X132772936Y-81410000D01*
X134227064Y-79590000D02*
X132772936Y-79590000D01*
%TO.C,R6*%
X163090000Y-75735436D02*
X163090000Y-77189564D01*
X164910000Y-75735436D02*
X164910000Y-77189564D01*
%TO.C,R5*%
X141090000Y-88727064D02*
X141090000Y-87272936D01*
X142910000Y-88727064D02*
X142910000Y-87272936D01*
%TO.C,R4*%
X111410000Y-46689564D02*
X111410000Y-45235436D01*
X109590000Y-46689564D02*
X109590000Y-45235436D01*
%TO.C,R3*%
X53772936Y-43090000D02*
X55227064Y-43090000D01*
X53772936Y-44910000D02*
X55227064Y-44910000D01*
%TO.C,R2*%
X115630000Y-51735436D02*
X115630000Y-53189564D01*
X117450000Y-51735436D02*
X117450000Y-53189564D01*
%TO.C,R1*%
X112910000Y-53189564D02*
X112910000Y-51735436D01*
X111090000Y-53189564D02*
X111090000Y-51735436D01*
%TO.C,Q5*%
X114840000Y-36240000D02*
X125080000Y-36240000D01*
X125080000Y-34730000D02*
X125080000Y-39371000D01*
X114840000Y-39371000D02*
X125080000Y-39371000D01*
X114840000Y-34730000D02*
X114840000Y-39371000D01*
X121811000Y-34730000D02*
X121811000Y-36240000D01*
X118110000Y-34730000D02*
X118110000Y-36240000D01*
X114840000Y-34730000D02*
X125080000Y-34730000D01*
%TO.C,Q4*%
X96880000Y-33685000D02*
X107120000Y-33685000D01*
X107120000Y-32175000D02*
X107120000Y-36816000D01*
X96880000Y-36816000D02*
X107120000Y-36816000D01*
X96880000Y-32175000D02*
X96880000Y-36816000D01*
X103851000Y-32175000D02*
X103851000Y-33685000D01*
X100150000Y-32175000D02*
X100150000Y-33685000D01*
X96880000Y-32175000D02*
X107120000Y-32175000D01*
%TO.C,Q3*%
X84880000Y-33685000D02*
X95120000Y-33685000D01*
X95120000Y-32175000D02*
X95120000Y-36816000D01*
X84880000Y-36816000D02*
X95120000Y-36816000D01*
X84880000Y-32175000D02*
X84880000Y-36816000D01*
X91851000Y-32175000D02*
X91851000Y-33685000D01*
X88150000Y-32175000D02*
X88150000Y-33685000D01*
X84880000Y-32175000D02*
X95120000Y-32175000D01*
%TO.C,Q2*%
X72880000Y-33685000D02*
X83120000Y-33685000D01*
X83120000Y-32175000D02*
X83120000Y-36816000D01*
X72880000Y-36816000D02*
X83120000Y-36816000D01*
X72880000Y-32175000D02*
X72880000Y-36816000D01*
X79851000Y-32175000D02*
X79851000Y-33685000D01*
X76150000Y-32175000D02*
X76150000Y-33685000D01*
X72880000Y-32175000D02*
X83120000Y-32175000D01*
%TO.C,Q1*%
X60880000Y-33685000D02*
X71120000Y-33685000D01*
X71120000Y-32175000D02*
X71120000Y-36816000D01*
X60880000Y-36816000D02*
X71120000Y-36816000D01*
X60880000Y-32175000D02*
X60880000Y-36816000D01*
X67851000Y-32175000D02*
X67851000Y-33685000D01*
X64150000Y-32175000D02*
X64150000Y-33685000D01*
X60880000Y-32175000D02*
X71120000Y-32175000D01*
%TO.C,J7*%
X126670000Y-33725000D02*
X126670000Y-32395000D01*
X126670000Y-37595000D02*
X129330000Y-37595000D01*
X126670000Y-34995000D02*
X126670000Y-37595000D01*
X126670000Y-34995000D02*
X129330000Y-34995000D01*
X126670000Y-32395000D02*
X128000000Y-32395000D01*
X129330000Y-34995000D02*
X129330000Y-37595000D01*
%TO.C,J6*%
X163670000Y-51805000D02*
X163670000Y-41585000D01*
X166330000Y-54405000D02*
X165000000Y-54405000D01*
X166330000Y-51805000D02*
X166330000Y-41585000D01*
X166330000Y-41585000D02*
X163670000Y-41585000D01*
X166330000Y-51805000D02*
X163670000Y-51805000D01*
X166330000Y-53075000D02*
X166330000Y-54405000D01*
%TO.C,J5*%
X155670000Y-78830000D02*
X155670000Y-40670000D01*
X158330000Y-78830000D02*
X155670000Y-78830000D01*
X158330000Y-40670000D02*
X155670000Y-40670000D01*
X158330000Y-81430000D02*
X157000000Y-81430000D01*
X158330000Y-78830000D02*
X158330000Y-40670000D01*
X158330000Y-80100000D02*
X158330000Y-81430000D01*
%TO.C,J4*%
X112330000Y-38275000D02*
X112330000Y-39605000D01*
X112330000Y-34405000D02*
X109670000Y-34405000D01*
X112330000Y-37005000D02*
X112330000Y-34405000D01*
X112330000Y-37005000D02*
X109670000Y-37005000D01*
X112330000Y-39605000D02*
X111000000Y-39605000D01*
X109670000Y-37005000D02*
X109670000Y-34405000D01*
%TO.C,J3*%
X54170000Y-47725000D02*
X54170000Y-46395000D01*
X54170000Y-51595000D02*
X56830000Y-51595000D01*
X54170000Y-48995000D02*
X54170000Y-51595000D01*
X54170000Y-48995000D02*
X56830000Y-48995000D01*
X54170000Y-46395000D02*
X55500000Y-46395000D01*
X56830000Y-48995000D02*
X56830000Y-51595000D01*
%TO.C,J2*%
X55830000Y-78230000D02*
X55830000Y-80830000D01*
X53170000Y-75630000D02*
X54500000Y-75630000D01*
X53170000Y-78230000D02*
X55830000Y-78230000D01*
X53170000Y-78230000D02*
X53170000Y-80830000D01*
X53170000Y-80830000D02*
X55830000Y-80830000D01*
X53170000Y-76960000D02*
X53170000Y-75630000D01*
%TO.C,J1*%
X104170000Y-57440000D02*
X105500000Y-57440000D01*
X104170000Y-60040000D02*
X106830000Y-60040000D01*
X104170000Y-60100000D02*
X106830000Y-60100000D01*
X106830000Y-60040000D02*
X106830000Y-60100000D01*
X104170000Y-60040000D02*
X104170000Y-60100000D01*
X104170000Y-58770000D02*
X104170000Y-57440000D01*
%TO.C,D2*%
X107297500Y-84080000D02*
X107297500Y-86920000D01*
X110257500Y-86920000D02*
X110257500Y-86740000D01*
X106817500Y-84260000D02*
X106817500Y-84080000D01*
X107537500Y-84080000D02*
X107537500Y-86920000D01*
X106817500Y-84080000D02*
X110257500Y-84080000D01*
X106817500Y-86920000D02*
X110257500Y-86920000D01*
X106817500Y-86740000D02*
X106817500Y-86920000D01*
X107417500Y-84080000D02*
X107417500Y-86920000D01*
X110257500Y-84080000D02*
X110257500Y-84260000D01*
%TO.C,D1*%
X121800000Y-51080000D02*
X121800000Y-53920000D01*
X124760000Y-53920000D02*
X124760000Y-53740000D01*
X121320000Y-51260000D02*
X121320000Y-51080000D01*
X122040000Y-51080000D02*
X122040000Y-53920000D01*
X121320000Y-51080000D02*
X124760000Y-51080000D01*
X121320000Y-53920000D02*
X124760000Y-53920000D01*
X121320000Y-53740000D02*
X121320000Y-53920000D01*
X121920000Y-51080000D02*
X121920000Y-53920000D01*
X124760000Y-51080000D02*
X124760000Y-51260000D01*
%TO.C,C8*%
X108826248Y-81090000D02*
X110248752Y-81090000D01*
X108826248Y-82910000D02*
X110248752Y-82910000D01*
%TO.C,C7*%
X138410000Y-87288748D02*
X138410000Y-88711252D01*
X136590000Y-87288748D02*
X136590000Y-88711252D01*
%TO.C,C6*%
X139788748Y-79590000D02*
X141211252Y-79590000D01*
X139788748Y-81410000D02*
X141211252Y-81410000D01*
%TO.C,C5*%
X131340000Y-67788748D02*
X131340000Y-69211252D01*
X133160000Y-67788748D02*
X133160000Y-69211252D01*
%TO.C,C4*%
X59910000Y-63313748D02*
X59910000Y-64736252D01*
X58090000Y-63313748D02*
X58090000Y-64736252D01*
%TO.C,C3*%
X58090000Y-70236252D02*
X58090000Y-68813748D01*
X59910000Y-70236252D02*
X59910000Y-68813748D01*
%TO.C,C2*%
X52749000Y-55460000D02*
X52749000Y-53952000D01*
X53269000Y-55460000D02*
X53269000Y-53624000D01*
X53669000Y-59547000D02*
X53669000Y-57540000D01*
X52109000Y-58390000D02*
X52109000Y-54610000D01*
X53949000Y-59631000D02*
X53949000Y-57540000D01*
X54670000Y-59730000D02*
X54670000Y-53270000D01*
X53869000Y-55460000D02*
X53869000Y-53390000D01*
X53749000Y-55460000D02*
X53749000Y-53426000D01*
X54710000Y-59730000D02*
X54710000Y-53270000D01*
X52069000Y-58334000D02*
X52069000Y-54666000D01*
X52189000Y-58495000D02*
X52189000Y-54505000D01*
X54190000Y-55460000D02*
X54190000Y-53318000D01*
X53149000Y-55460000D02*
X53149000Y-53688000D01*
X53229000Y-59356000D02*
X53229000Y-57540000D01*
X52469000Y-58805000D02*
X52469000Y-57540000D01*
X54190000Y-59682000D02*
X54190000Y-57540000D01*
X51589000Y-57302000D02*
X51589000Y-55698000D01*
X54630000Y-59728000D02*
X54630000Y-53272000D01*
X53109000Y-55460000D02*
X53109000Y-53710000D01*
X58250241Y-58339000D02*
X57620241Y-58339000D01*
X53029000Y-55460000D02*
X53029000Y-53758000D01*
X51509000Y-56902000D02*
X51509000Y-56098000D01*
X54110000Y-55460000D02*
X54110000Y-53333000D01*
X53509000Y-55460000D02*
X53509000Y-53514000D01*
X53149000Y-59312000D02*
X53149000Y-57540000D01*
X52989000Y-55460000D02*
X52989000Y-53784000D01*
X54230000Y-55460000D02*
X54230000Y-53311000D01*
X51869000Y-58009000D02*
X51869000Y-54991000D01*
X52389000Y-58724000D02*
X52389000Y-54276000D01*
X53589000Y-55460000D02*
X53589000Y-53482000D01*
X52669000Y-58984000D02*
X52669000Y-57540000D01*
X51949000Y-58150000D02*
X51949000Y-54850000D01*
X54150000Y-55460000D02*
X54150000Y-53325000D01*
X54470000Y-55460000D02*
X54470000Y-53282000D01*
X52909000Y-59164000D02*
X52909000Y-57540000D01*
X51829000Y-57932000D02*
X51829000Y-55068000D01*
X54310000Y-59701000D02*
X54310000Y-57540000D01*
X53189000Y-59334000D02*
X53189000Y-57540000D01*
X53949000Y-55460000D02*
X53949000Y-53369000D01*
X54510000Y-59722000D02*
X54510000Y-57540000D01*
X52589000Y-58916000D02*
X52589000Y-57540000D01*
X52949000Y-59190000D02*
X52949000Y-57540000D01*
X52029000Y-58276000D02*
X52029000Y-54724000D01*
X52869000Y-55460000D02*
X52869000Y-53864000D01*
X51549000Y-57133000D02*
X51549000Y-55867000D01*
X52469000Y-55460000D02*
X52469000Y-54195000D01*
X52789000Y-55460000D02*
X52789000Y-53922000D01*
X54430000Y-55460000D02*
X54430000Y-53285000D01*
X53469000Y-59470000D02*
X53469000Y-57540000D01*
X54430000Y-59715000D02*
X54430000Y-57540000D01*
X53109000Y-59290000D02*
X53109000Y-57540000D01*
X53429000Y-59452000D02*
X53429000Y-57540000D01*
X53069000Y-55460000D02*
X53069000Y-53734000D01*
X52309000Y-58637000D02*
X52309000Y-54363000D01*
X52829000Y-59107000D02*
X52829000Y-57540000D01*
X53989000Y-55460000D02*
X53989000Y-53359000D01*
X53469000Y-55460000D02*
X53469000Y-53530000D01*
X53349000Y-55460000D02*
X53349000Y-53584000D01*
X52229000Y-58544000D02*
X52229000Y-54456000D01*
X52269000Y-58592000D02*
X52269000Y-54408000D01*
X53429000Y-55460000D02*
X53429000Y-53548000D01*
X52509000Y-58843000D02*
X52509000Y-57540000D01*
X53789000Y-55460000D02*
X53789000Y-53414000D01*
X51789000Y-57850000D02*
X51789000Y-55150000D01*
X54029000Y-59650000D02*
X54029000Y-57540000D01*
X53389000Y-59434000D02*
X53389000Y-57540000D01*
X52509000Y-55460000D02*
X52509000Y-54157000D01*
X53589000Y-59518000D02*
X53589000Y-57540000D01*
X53229000Y-55460000D02*
X53229000Y-53644000D01*
X54270000Y-55460000D02*
X54270000Y-53305000D01*
X53869000Y-59610000D02*
X53869000Y-57540000D01*
X52829000Y-55460000D02*
X52829000Y-53893000D01*
X52589000Y-55460000D02*
X52589000Y-54084000D01*
X53629000Y-59533000D02*
X53629000Y-57540000D01*
X54029000Y-55460000D02*
X54029000Y-53350000D01*
X57935241Y-58654000D02*
X57935241Y-58024000D01*
X53189000Y-55460000D02*
X53189000Y-53666000D01*
X51989000Y-58214000D02*
X51989000Y-54786000D01*
X52549000Y-58880000D02*
X52549000Y-57540000D01*
X51909000Y-58081000D02*
X51909000Y-54919000D01*
X54150000Y-59675000D02*
X54150000Y-57540000D01*
X51669000Y-57559000D02*
X51669000Y-55441000D01*
X51629000Y-57440000D02*
X51629000Y-55560000D01*
X54310000Y-55460000D02*
X54310000Y-53299000D01*
X53309000Y-59396000D02*
X53309000Y-57540000D01*
X53709000Y-55460000D02*
X53709000Y-53439000D01*
X54230000Y-59689000D02*
X54230000Y-57540000D01*
X54070000Y-59659000D02*
X54070000Y-57540000D01*
X53829000Y-59598000D02*
X53829000Y-57540000D01*
X54750000Y-59730000D02*
X54750000Y-53270000D01*
X53909000Y-55460000D02*
X53909000Y-53379000D01*
X53069000Y-59266000D02*
X53069000Y-57540000D01*
X53909000Y-59621000D02*
X53909000Y-57540000D01*
X53629000Y-55460000D02*
X53629000Y-53467000D01*
X53989000Y-59641000D02*
X53989000Y-57540000D01*
X54470000Y-59718000D02*
X54470000Y-57540000D01*
X52629000Y-58950000D02*
X52629000Y-57540000D01*
X52429000Y-58765000D02*
X52429000Y-54235000D01*
X53309000Y-55460000D02*
X53309000Y-53604000D01*
X52789000Y-59078000D02*
X52789000Y-57540000D01*
X54510000Y-55460000D02*
X54510000Y-53278000D01*
X53789000Y-59586000D02*
X53789000Y-57540000D01*
X53829000Y-55460000D02*
X53829000Y-53402000D01*
X51709000Y-57665000D02*
X51709000Y-55335000D01*
X52869000Y-59136000D02*
X52869000Y-57540000D01*
X52709000Y-55460000D02*
X52709000Y-53984000D01*
X53669000Y-55460000D02*
X53669000Y-53453000D01*
X52349000Y-58682000D02*
X52349000Y-54318000D01*
X52149000Y-58444000D02*
X52149000Y-54556000D01*
X51749000Y-57762000D02*
X51749000Y-55238000D01*
X54350000Y-55460000D02*
X54350000Y-53294000D01*
X52549000Y-55460000D02*
X52549000Y-54120000D01*
X53029000Y-59242000D02*
X53029000Y-57540000D01*
X54110000Y-59667000D02*
X54110000Y-57540000D01*
X53389000Y-55460000D02*
X53389000Y-53566000D01*
X54590000Y-59727000D02*
X54590000Y-53273000D01*
X52669000Y-55460000D02*
X52669000Y-54016000D01*
X52949000Y-55460000D02*
X52949000Y-53810000D01*
X52749000Y-59048000D02*
X52749000Y-57540000D01*
X54390000Y-55460000D02*
X54390000Y-53289000D01*
X53269000Y-59376000D02*
X53269000Y-57540000D01*
X52909000Y-55460000D02*
X52909000Y-53836000D01*
X54350000Y-59706000D02*
X54350000Y-57540000D01*
X52709000Y-59016000D02*
X52709000Y-57540000D01*
X53509000Y-59486000D02*
X53509000Y-57540000D01*
X53749000Y-59574000D02*
X53749000Y-57540000D01*
X53709000Y-59561000D02*
X53709000Y-57540000D01*
X54390000Y-59711000D02*
X54390000Y-57540000D01*
X53549000Y-59502000D02*
X53549000Y-57540000D01*
X53549000Y-55460000D02*
X53549000Y-53498000D01*
X54270000Y-59695000D02*
X54270000Y-57540000D01*
X53349000Y-59416000D02*
X53349000Y-57540000D01*
X54070000Y-55460000D02*
X54070000Y-53341000D01*
X52629000Y-55460000D02*
X52629000Y-54050000D01*
X52989000Y-59216000D02*
X52989000Y-57540000D01*
X54550000Y-59724000D02*
X54550000Y-53276000D01*
X58020000Y-56500000D02*
G75*
G03*
X58020000Y-56500000I-3270000J0D01*
G01*
%TO.C,C1*%
X60460000Y-80568621D02*
X58952000Y-80568621D01*
X60460000Y-80048621D02*
X58624000Y-80048621D01*
X64547000Y-79648621D02*
X62540000Y-79648621D01*
X63390000Y-81208621D02*
X59610000Y-81208621D01*
X64631000Y-79368621D02*
X62540000Y-79368621D01*
X64730000Y-78647621D02*
X58270000Y-78647621D01*
X60460000Y-79448621D02*
X58390000Y-79448621D01*
X60460000Y-79568621D02*
X58426000Y-79568621D01*
X64730000Y-78607621D02*
X58270000Y-78607621D01*
X63334000Y-81248621D02*
X59666000Y-81248621D01*
X63495000Y-81128621D02*
X59505000Y-81128621D01*
X60460000Y-79127621D02*
X58318000Y-79127621D01*
X60460000Y-80168621D02*
X58688000Y-80168621D01*
X64356000Y-80088621D02*
X62540000Y-80088621D01*
X63805000Y-80848621D02*
X62540000Y-80848621D01*
X64682000Y-79127621D02*
X62540000Y-79127621D01*
X62302000Y-81728621D02*
X60698000Y-81728621D01*
X64728000Y-78687621D02*
X58272000Y-78687621D01*
X60460000Y-80208621D02*
X58710000Y-80208621D01*
X63339000Y-75067380D02*
X63339000Y-75697380D01*
X60460000Y-80288621D02*
X58758000Y-80288621D01*
X61902000Y-81808621D02*
X61098000Y-81808621D01*
X60460000Y-79207621D02*
X58333000Y-79207621D01*
X60460000Y-79808621D02*
X58514000Y-79808621D01*
X64312000Y-80168621D02*
X62540000Y-80168621D01*
X60460000Y-80328621D02*
X58784000Y-80328621D01*
X60460000Y-79087621D02*
X58311000Y-79087621D01*
X63009000Y-81448621D02*
X59991000Y-81448621D01*
X63724000Y-80928621D02*
X59276000Y-80928621D01*
X60460000Y-79728621D02*
X58482000Y-79728621D01*
X63984000Y-80648621D02*
X62540000Y-80648621D01*
X63150000Y-81368621D02*
X59850000Y-81368621D01*
X60460000Y-79167621D02*
X58325000Y-79167621D01*
X60460000Y-78847621D02*
X58282000Y-78847621D01*
X64164000Y-80408621D02*
X62540000Y-80408621D01*
X62932000Y-81488621D02*
X60068000Y-81488621D01*
X64701000Y-79007621D02*
X62540000Y-79007621D01*
X64334000Y-80128621D02*
X62540000Y-80128621D01*
X60460000Y-79368621D02*
X58369000Y-79368621D01*
X64722000Y-78807621D02*
X62540000Y-78807621D01*
X63916000Y-80728621D02*
X62540000Y-80728621D01*
X64190000Y-80368621D02*
X62540000Y-80368621D01*
X63276000Y-81288621D02*
X59724000Y-81288621D01*
X60460000Y-80448621D02*
X58864000Y-80448621D01*
X62133000Y-81768621D02*
X60867000Y-81768621D01*
X60460000Y-80848621D02*
X59195000Y-80848621D01*
X60460000Y-80528621D02*
X58922000Y-80528621D01*
X60460000Y-78887621D02*
X58285000Y-78887621D01*
X64470000Y-79848621D02*
X62540000Y-79848621D01*
X64715000Y-78887621D02*
X62540000Y-78887621D01*
X64290000Y-80208621D02*
X62540000Y-80208621D01*
X64452000Y-79888621D02*
X62540000Y-79888621D01*
X60460000Y-80248621D02*
X58734000Y-80248621D01*
X63637000Y-81008621D02*
X59363000Y-81008621D01*
X64107000Y-80488621D02*
X62540000Y-80488621D01*
X60460000Y-79328621D02*
X58359000Y-79328621D01*
X60460000Y-79848621D02*
X58530000Y-79848621D01*
X60460000Y-79968621D02*
X58584000Y-79968621D01*
X63544000Y-81088621D02*
X59456000Y-81088621D01*
X63592000Y-81048621D02*
X59408000Y-81048621D01*
X60460000Y-79888621D02*
X58548000Y-79888621D01*
X63843000Y-80808621D02*
X62540000Y-80808621D01*
X60460000Y-79528621D02*
X58414000Y-79528621D01*
X62850000Y-81528621D02*
X60150000Y-81528621D01*
X64650000Y-79288621D02*
X62540000Y-79288621D01*
X64434000Y-79928621D02*
X62540000Y-79928621D01*
X60460000Y-80808621D02*
X59157000Y-80808621D01*
X64518000Y-79728621D02*
X62540000Y-79728621D01*
X60460000Y-80088621D02*
X58644000Y-80088621D01*
X60460000Y-79047621D02*
X58305000Y-79047621D01*
X64610000Y-79448621D02*
X62540000Y-79448621D01*
X60460000Y-80488621D02*
X58893000Y-80488621D01*
X60460000Y-80728621D02*
X59084000Y-80728621D01*
X64533000Y-79688621D02*
X62540000Y-79688621D01*
X60460000Y-79288621D02*
X58350000Y-79288621D01*
X63654000Y-75382380D02*
X63024000Y-75382380D01*
X60460000Y-80128621D02*
X58666000Y-80128621D01*
X63214000Y-81328621D02*
X59786000Y-81328621D01*
X63880000Y-80768621D02*
X62540000Y-80768621D01*
X63081000Y-81408621D02*
X59919000Y-81408621D01*
X64675000Y-79167621D02*
X62540000Y-79167621D01*
X62559000Y-81648621D02*
X60441000Y-81648621D01*
X62440000Y-81688621D02*
X60560000Y-81688621D01*
X60460000Y-79007621D02*
X58299000Y-79007621D01*
X64396000Y-80008621D02*
X62540000Y-80008621D01*
X60460000Y-79608621D02*
X58439000Y-79608621D01*
X64689000Y-79087621D02*
X62540000Y-79087621D01*
X64659000Y-79247621D02*
X62540000Y-79247621D01*
X64598000Y-79488621D02*
X62540000Y-79488621D01*
X64730000Y-78567621D02*
X58270000Y-78567621D01*
X60460000Y-79408621D02*
X58379000Y-79408621D01*
X64266000Y-80248621D02*
X62540000Y-80248621D01*
X64621000Y-79408621D02*
X62540000Y-79408621D01*
X60460000Y-79688621D02*
X58467000Y-79688621D01*
X64641000Y-79328621D02*
X62540000Y-79328621D01*
X64718000Y-78847621D02*
X62540000Y-78847621D01*
X63950000Y-80688621D02*
X62540000Y-80688621D01*
X63765000Y-80888621D02*
X59235000Y-80888621D01*
X60460000Y-80008621D02*
X58604000Y-80008621D01*
X64078000Y-80528621D02*
X62540000Y-80528621D01*
X60460000Y-78807621D02*
X58278000Y-78807621D01*
X64586000Y-79528621D02*
X62540000Y-79528621D01*
X60460000Y-79488621D02*
X58402000Y-79488621D01*
X62665000Y-81608621D02*
X60335000Y-81608621D01*
X64136000Y-80448621D02*
X62540000Y-80448621D01*
X60460000Y-80608621D02*
X58984000Y-80608621D01*
X60460000Y-79648621D02*
X58453000Y-79648621D01*
X63682000Y-80968621D02*
X59318000Y-80968621D01*
X63444000Y-81168621D02*
X59556000Y-81168621D01*
X62762000Y-81568621D02*
X60238000Y-81568621D01*
X60460000Y-78967621D02*
X58294000Y-78967621D01*
X60460000Y-80768621D02*
X59120000Y-80768621D01*
X64242000Y-80288621D02*
X62540000Y-80288621D01*
X64667000Y-79207621D02*
X62540000Y-79207621D01*
X60460000Y-79928621D02*
X58566000Y-79928621D01*
X64727000Y-78727621D02*
X58273000Y-78727621D01*
X60460000Y-80648621D02*
X59016000Y-80648621D01*
X60460000Y-80368621D02*
X58810000Y-80368621D01*
X64048000Y-80568621D02*
X62540000Y-80568621D01*
X60460000Y-78927621D02*
X58289000Y-78927621D01*
X64376000Y-80048621D02*
X62540000Y-80048621D01*
X60460000Y-80408621D02*
X58836000Y-80408621D01*
X64706000Y-78967621D02*
X62540000Y-78967621D01*
X64016000Y-80608621D02*
X62540000Y-80608621D01*
X64486000Y-79808621D02*
X62540000Y-79808621D01*
X64574000Y-79568621D02*
X62540000Y-79568621D01*
X64561000Y-79608621D02*
X62540000Y-79608621D01*
X64711000Y-78927621D02*
X62540000Y-78927621D01*
X64502000Y-79768621D02*
X62540000Y-79768621D01*
X60460000Y-79768621D02*
X58498000Y-79768621D01*
X64695000Y-79047621D02*
X62540000Y-79047621D01*
X64416000Y-79968621D02*
X62540000Y-79968621D01*
X60460000Y-79247621D02*
X58341000Y-79247621D01*
X60460000Y-80688621D02*
X59050000Y-80688621D01*
X64216000Y-80328621D02*
X62540000Y-80328621D01*
X64724000Y-78767621D02*
X58276000Y-78767621D01*
X64770000Y-78567621D02*
G75*
G03*
X64770000Y-78567621I-3270000J0D01*
G01*
D13*
%TO.C,A2*%
X107880000Y-75845000D02*
X130740000Y-75845000D01*
X130740000Y-75845000D02*
X130740000Y-41555000D01*
X130740000Y-41555000D02*
X107880000Y-41555000D01*
X107880000Y-41555000D02*
X107880000Y-75845000D01*
D12*
%TO.C,A1*%
X149340000Y-74820000D02*
X152010000Y-74820000D01*
X139050000Y-31510000D02*
X146930000Y-31510000D01*
X133970000Y-34050000D02*
X133970000Y-77490000D01*
X146930000Y-31510000D02*
X146930000Y-41930000D01*
X139050000Y-41930000D02*
X139050000Y-31510000D01*
X133970000Y-34050000D02*
X139050000Y-34050000D01*
X152010000Y-72280000D02*
X152010000Y-34050000D01*
X149340000Y-36720000D02*
X152010000Y-36720000D01*
X136640000Y-74820000D02*
X136640000Y-36720000D01*
X149340000Y-72280000D02*
X149340000Y-74820000D01*
X136640000Y-36720000D02*
X133970000Y-36720000D01*
X136640000Y-74820000D02*
X133970000Y-74820000D01*
X149340000Y-72280000D02*
X152010000Y-72280000D01*
X133970000Y-77490000D02*
X152010000Y-77490000D01*
X152010000Y-34050000D02*
X146930000Y-34050000D01*
X152010000Y-77490000D02*
X152010000Y-74820000D01*
X146930000Y-41930000D02*
X139050000Y-41930000D01*
X149340000Y-72280000D02*
X149340000Y-36720000D01*
%TD*%
M02*
